<?xml version="1.0" encoding="utf-8" standalone="no"?>
<!DOCTYPE svg PUBLIC "-//W3C//DTD SVG 1.1//EN"
  "http://www.w3.org/Graphics/SVG/1.1/DTD/svg11.dtd">
<!-- Created with matplotlib (http://matplotlib.org/) -->
<svg height="157pt" version="1.1" viewBox="0 0 203 157" width="203pt" xmlns="http://www.w3.org/2000/svg" xmlns:xlink="http://www.w3.org/1999/xlink">
 <defs>
  <style type="text/css">
*{stroke-linecap:butt;stroke-linejoin:round;}
  </style>
 </defs>
 <g id="figure_1">
  <g id="patch_1">
   <path d="
M0 157.956
L203.663 157.956
L203.663 0
L0 0
z
" style="fill:#ffffff;"/>
  </g>
  <g id="axes_1">
   <g id="patch_2">
    <path d="
M21.8781 122.4
L189.278 122.4
L189.278 7.2
L21.8781 7.2
z
" style="fill:#ffffff;"/>
   </g>
   <g id="line2d_1">
    <defs>
     <path d="
M0 1.5
C0.397805 1.5 0.77937 1.34195 1.06066 1.06066
C1.34195 0.77937 1.5 0.397805 1.5 0
C1.5 -0.397805 1.34195 -0.77937 1.06066 -1.06066
C0.77937 -1.34195 0.397805 -1.5 0 -1.5
C-0.397805 -1.5 -0.77937 -1.34195 -1.06066 -1.06066
C-1.34195 -0.77937 -1.5 -0.397805 -1.5 0
C-1.5 0.397805 -1.34195 0.77937 -1.06066 1.06066
C-0.77937 1.34195 -0.397805 1.5 0 1.5
z
" id="m8185dd89ac" style="stroke:#000000;stroke-width:0.5;"/>
    </defs>
    <g clip-path="url(#p9f2557187d)">
     <use style="stroke:#000000;stroke-width:0.5;" x="23.2102942" xlink:href="#m8185dd89ac" y="90.01152"/>
     <use style="stroke:#000000;stroke-width:0.5;" x="24.542296" xlink:href="#m8185dd89ac" y="88.907328"/>
     <use style="stroke:#000000;stroke-width:0.5;" x="25.430353" xlink:href="#m8185dd89ac" y="87.8032512"/>
     <use style="stroke:#000000;stroke-width:0.5;" x="26.7625222" xlink:href="#m8185dd89ac" y="86.6990592"/>
     <use style="stroke:#000000;stroke-width:0.5;" x="28.094524" xlink:href="#m8185dd89ac" y="85.5948672"/>
     <use style="stroke:#000000;stroke-width:0.5;" x="28.982581" xlink:href="#m8185dd89ac" y="84.4907904"/>
     <use style="stroke:#000000;stroke-width:0.5;" x="30.3147502" xlink:href="#m8185dd89ac" y="83.3865984"/>
     <use style="stroke:#000000;stroke-width:0.5;" x="31.2028072" xlink:href="#m8185dd89ac" y="82.2824064"/>
     <use style="stroke:#000000;stroke-width:0.5;" x="32.0908642" xlink:href="#m8185dd89ac" y="80.8102656"/>
     <use style="stroke:#000000;stroke-width:0.5;" x="32.9789212" xlink:href="#m8185dd89ac" y="79.7060736"/>
     <use style="stroke:#000000;stroke-width:0.5;" x="33.8669782" xlink:href="#m8185dd89ac" y="78.6018816"/>
     <use style="stroke:#000000;stroke-width:0.5;" x="35.1991474" xlink:href="#m8185dd89ac" y="77.1297408"/>
     <use style="stroke:#000000;stroke-width:0.5;" x="36.0872044" xlink:href="#m8185dd89ac" y="76.0255488"/>
     <use style="stroke:#000000;stroke-width:0.5;" x="36.9752614" xlink:href="#m8185dd89ac" y="74.553408"/>
     <use style="stroke:#000000;stroke-width:0.5;" x="37.8633184" xlink:href="#m8185dd89ac" y="73.449216"/>
     <use style="stroke:#000000;stroke-width:0.5;" x="38.7513754" xlink:href="#m8185dd89ac" y="71.97696"/>
     <use style="stroke:#000000;stroke-width:0.5;" x="39.6394324" xlink:href="#m8185dd89ac" y="70.8728832"/>
     <use style="stroke:#000000;stroke-width:0.5;" x="40.5274894" xlink:href="#m8185dd89ac" y="69.7686912"/>
     <use style="stroke:#000000;stroke-width:0.5;" x="41.4155464" xlink:href="#m8185dd89ac" y="68.2964352"/>
     <use style="stroke:#000000;stroke-width:0.5;" x="42.3036034" xlink:href="#m8185dd89ac" y="67.1923584"/>
     <use style="stroke:#000000;stroke-width:0.5;" x="43.1916604" xlink:href="#m8185dd89ac" y="65.7201024"/>
     <use style="stroke:#000000;stroke-width:0.5;" x="43.6356052" xlink:href="#m8185dd89ac" y="64.2479616"/>
     <use style="stroke:#000000;stroke-width:0.5;" x="44.5238296" xlink:href="#m8185dd89ac" y="63.1437696"/>
     <use style="stroke:#000000;stroke-width:0.5;" x="45.4118866" xlink:href="#m8185dd89ac" y="61.6715136"/>
     <use style="stroke:#000000;stroke-width:0.5;" x="46.2999436" xlink:href="#m8185dd89ac" y="60.5674368"/>
     <use style="stroke:#000000;stroke-width:0.5;" x="46.7438884" xlink:href="#m8185dd89ac" y="59.0951808"/>
     <use style="stroke:#000000;stroke-width:0.5;" x="47.6319454" xlink:href="#m8185dd89ac" y="57.62304"/>
     <use style="stroke:#000000;stroke-width:0.5;" x="48.5200024" xlink:href="#m8185dd89ac" y="56.518848"/>
     <use style="stroke:#000000;stroke-width:0.5;" x="49.4080594" xlink:href="#m8185dd89ac" y="55.046592"/>
     <use style="stroke:#000000;stroke-width:0.5;" x="50.2961164" xlink:href="#m8185dd89ac" y="53.9425152"/>
     <use style="stroke:#000000;stroke-width:0.5;" x="50.7402286" xlink:href="#m8185dd89ac" y="52.4702592"/>
     <use style="stroke:#000000;stroke-width:0.5;" x="51.6282856" xlink:href="#m8185dd89ac" y="51.3661824"/>
     <use style="stroke:#000000;stroke-width:0.5;" x="52.5163426" xlink:href="#m8185dd89ac" y="49.8939264"/>
     <use style="stroke:#000000;stroke-width:0.5;" x="53.4043996" xlink:href="#m8185dd89ac" y="48.4216704"/>
     <use style="stroke:#000000;stroke-width:0.5;" x="54.2924566" xlink:href="#m8185dd89ac" y="47.3175936"/>
     <use style="stroke:#000000;stroke-width:0.5;" x="54.7364014" xlink:href="#m8185dd89ac" y="45.8453376"/>
     <use style="stroke:#000000;stroke-width:0.5;" x="55.6246258" xlink:href="#m8185dd89ac" y="44.7412608"/>
     <use style="stroke:#000000;stroke-width:0.5;" x="56.5126828" xlink:href="#m8185dd89ac" y="43.2690048"/>
     <use style="stroke:#000000;stroke-width:0.5;" x="57.4007398" xlink:href="#m8185dd89ac" y="42.1648128"/>
     <use style="stroke:#000000;stroke-width:0.5;" x="58.2887968" xlink:href="#m8185dd89ac" y="40.692672"/>
     <use style="stroke:#000000;stroke-width:0.5;" x="59.1768538" xlink:href="#m8185dd89ac" y="39.58848"/>
     <use style="stroke:#000000;stroke-width:0.5;" x="60.0649108" xlink:href="#m8185dd89ac" y="38.1163392"/>
     <use style="stroke:#000000;stroke-width:0.5;" x="60.9529678" xlink:href="#m8185dd89ac" y="37.0121472"/>
     <use style="stroke:#000000;stroke-width:0.5;" x="61.8410248" xlink:href="#m8185dd89ac" y="35.9079552"/>
     <use style="stroke:#000000;stroke-width:0.5;" x="63.1730266" xlink:href="#m8185dd89ac" y="34.8038784"/>
     <use style="stroke:#000000;stroke-width:0.5;" x="64.5051958" xlink:href="#m8185dd89ac" y="33.6996864"/>
     <use style="stroke:#000000;stroke-width:0.5;" x="65.3932528" xlink:href="#m8185dd89ac" y="32.2274304"/>
     <use style="stroke:#000000;stroke-width:0.5;" x="66.725422" xlink:href="#m8185dd89ac" y="31.1233536"/>
     <use style="stroke:#000000;stroke-width:0.5;" x="68.0574238" xlink:href="#m8185dd89ac" y="30.3872256"/>
     <use style="stroke:#000000;stroke-width:0.5;" x="68.9454808" xlink:href="#m8185dd89ac" y="29.2830336"/>
     <use style="stroke:#000000;stroke-width:0.5;" x="70.27765" xlink:href="#m8185dd89ac" y="28.5470208"/>
     <use style="stroke:#000000;stroke-width:0.5;" x="72.053764" xlink:href="#m8185dd89ac" y="27.8108928"/>
     <use style="stroke:#000000;stroke-width:0.5;" x="73.3857658" xlink:href="#m8185dd89ac" y="27.0747648"/>
     <use style="stroke:#000000;stroke-width:0.5;" x="75.1618798" xlink:href="#m8185dd89ac" y="26.3386368"/>
     <use style="stroke:#000000;stroke-width:0.5;" x="76.9379938" xlink:href="#m8185dd89ac" y="25.9705728"/>
     <use style="stroke:#000000;stroke-width:0.5;" x="78.7142752" xlink:href="#m8185dd89ac" y="25.9705728"/>
     <use style="stroke:#000000;stroke-width:0.5;" x="80.046277" xlink:href="#m8185dd89ac" y="25.6025088"/>
     <use style="stroke:#000000;stroke-width:0.5;" x="81.822391" xlink:href="#m8185dd89ac" y="25.9705728"/>
     <use style="stroke:#000000;stroke-width:0.5;" x="83.598505" xlink:href="#m8185dd89ac" y="25.9705728"/>
     <use style="stroke:#000000;stroke-width:0.5;" x="85.374619" xlink:href="#m8185dd89ac" y="26.3386368"/>
     <use style="stroke:#000000;stroke-width:0.5;" x="87.150733" xlink:href="#m8185dd89ac" y="27.0747648"/>
     <use style="stroke:#000000;stroke-width:0.5;" x="88.4829022" xlink:href="#m8185dd89ac" y="27.8108928"/>
     <use style="stroke:#000000;stroke-width:0.5;" x="89.8149877" xlink:href="#m8185dd89ac" y="28.5470208"/>
     <use style="stroke:#000000;stroke-width:0.5;" x="91.59111844" xlink:href="#m8185dd89ac" y="29.2830336"/>
     <use style="stroke:#000000;stroke-width:0.5;" x="92.92322068" xlink:href="#m8185dd89ac" y="30.3872256"/>
     <use style="stroke:#000000;stroke-width:0.5;" x="94.25530618" xlink:href="#m8185dd89ac" y="30.7552896"/>
     <use style="stroke:#000000;stroke-width:0.5;" x="96.03143692" xlink:href="#m8185dd89ac" y="31.4914176"/>
     <use style="stroke:#000000;stroke-width:0.5;" x="97.36353916" xlink:href="#m8185dd89ac" y="31.8594816"/>
     <use style="stroke:#000000;stroke-width:0.5;" x="99.1396699" xlink:href="#m8185dd89ac" y="32.5954944"/>
     <use style="stroke:#000000;stroke-width:0.5;" x="100.4717554" xlink:href="#m8185dd89ac" y="33.3316224"/>
     <use style="stroke:#000000;stroke-width:0.5;" x="102.24788614" xlink:href="#m8185dd89ac" y="33.6996864"/>
     <use style="stroke:#000000;stroke-width:0.5;" x="103.57998838" xlink:href="#m8185dd89ac" y="34.4358144"/>
     <use style="stroke:#000000;stroke-width:0.5;" x="106.68820462" xlink:href="#m8185dd89ac" y="35.1719424"/>
     <use style="stroke:#000000;stroke-width:0.5;" x="108.46433536" xlink:href="#m8185dd89ac" y="35.1719424"/>
     <use style="stroke:#000000;stroke-width:0.5;" x="110.2404661" xlink:href="#m8185dd89ac" y="35.1719424"/>
     <use style="stroke:#000000;stroke-width:0.5;" x="112.0165801" xlink:href="#m8185dd89ac" y="34.8038784"/>
     <use style="stroke:#000000;stroke-width:0.5;" x="113.34868234" xlink:href="#m8185dd89ac" y="34.0677504"/>
     <use style="stroke:#000000;stroke-width:0.5;" x="115.12481308" xlink:href="#m8185dd89ac" y="33.6996864"/>
     <use style="stroke:#000000;stroke-width:0.5;" x="116.45689858" xlink:href="#m8185dd89ac" y="32.9635584"/>
     <use style="stroke:#000000;stroke-width:0.5;" x="118.23302932" xlink:href="#m8185dd89ac" y="31.8594816"/>
     <use style="stroke:#000000;stroke-width:0.5;" x="119.56513156" xlink:href="#m8185dd89ac" y="31.1233536"/>
     <use style="stroke:#000000;stroke-width:0.5;" x="121.3412623" xlink:href="#m8185dd89ac" y="30.3872256"/>
     <use style="stroke:#000000;stroke-width:0.5;" x="122.6733478" xlink:href="#m8185dd89ac" y="29.6510976"/>
     <use style="stroke:#000000;stroke-width:0.5;" x="124.4494618" xlink:href="#m8185dd89ac" y="28.9149696"/>
     <use style="stroke:#000000;stroke-width:0.5;" x="125.781631" xlink:href="#m8185dd89ac" y="28.1789568"/>
     <use style="stroke:#000000;stroke-width:0.5;" x="127.1136328" xlink:href="#m8185dd89ac" y="27.4428288"/>
     <use style="stroke:#000000;stroke-width:0.5;" x="128.8897468" xlink:href="#m8185dd89ac" y="26.7067008"/>
     <use style="stroke:#000000;stroke-width:0.5;" x="130.221916" xlink:href="#m8185dd89ac" y="25.9705728"/>
     <use style="stroke:#000000;stroke-width:0.5;" x="131.99803" xlink:href="#m8185dd89ac" y="25.6025088"/>
     <use style="stroke:#000000;stroke-width:0.5;" x="133.774144" xlink:href="#m8185dd89ac" y="25.23456"/>
     <use style="stroke:#000000;stroke-width:0.5;" x="135.550258" xlink:href="#m8185dd89ac" y="25.23456"/>
     <use style="stroke:#000000;stroke-width:0.5;" x="137.326372" xlink:href="#m8185dd89ac" y="25.23456"/>
     <use style="stroke:#000000;stroke-width:0.5;" x="139.102486" xlink:href="#m8185dd89ac" y="25.6025088"/>
     <use style="stroke:#000000;stroke-width:0.5;" x="140.4346552" xlink:href="#m8185dd89ac" y="26.3386368"/>
     <use style="stroke:#000000;stroke-width:0.5;" x="142.2107692" xlink:href="#m8185dd89ac" y="26.7067008"/>
     <use style="stroke:#000000;stroke-width:0.5;" x="143.542771" xlink:href="#m8185dd89ac" y="27.4428288"/>
     <use style="stroke:#000000;stroke-width:0.5;" x="144.8749402" xlink:href="#m8185dd89ac" y="28.5470208"/>
     <use style="stroke:#000000;stroke-width:0.5;" x="146.2071094" xlink:href="#m8185dd89ac" y="29.2830336"/>
     <use style="stroke:#000000;stroke-width:0.5;" x="147.5391112" xlink:href="#m8185dd89ac" y="30.7552896"/>
     <use style="stroke:#000000;stroke-width:0.5;" x="148.4271682" xlink:href="#m8185dd89ac" y="31.8594816"/>
     <use style="stroke:#000000;stroke-width:0.5;" x="149.7593374" xlink:href="#m8185dd89ac" y="32.9635584"/>
     <use style="stroke:#000000;stroke-width:0.5;" x="150.6473944" xlink:href="#m8185dd89ac" y="34.0677504"/>
     <use style="stroke:#000000;stroke-width:0.5;" x="151.9793962" xlink:href="#m8185dd89ac" y="35.1719424"/>
     <use style="stroke:#000000;stroke-width:0.5;" x="152.8674532" xlink:href="#m8185dd89ac" y="36.2760192"/>
     <use style="stroke:#000000;stroke-width:0.5;" x="154.1996224" xlink:href="#m8185dd89ac" y="37.3802112"/>
     <use style="stroke:#000000;stroke-width:0.5;" x="155.0876794" xlink:href="#m8185dd89ac" y="38.852352"/>
     <use style="stroke:#000000;stroke-width:0.5;" x="155.9757364" xlink:href="#m8185dd89ac" y="39.956544"/>
     <use style="stroke:#000000;stroke-width:0.5;" x="156.8637934" xlink:href="#m8185dd89ac" y="41.4288"/>
     <use style="stroke:#000000;stroke-width:0.5;" x="157.7518504" xlink:href="#m8185dd89ac" y="42.5328768"/>
     <use style="stroke:#000000;stroke-width:0.5;" x="158.6399074" xlink:href="#m8185dd89ac" y="43.6370688"/>
     <use style="stroke:#000000;stroke-width:0.5;" x="159.5279644" xlink:href="#m8185dd89ac" y="45.1092096"/>
     <use style="stroke:#000000;stroke-width:0.5;" x="160.4160214" xlink:href="#m8185dd89ac" y="46.2134016"/>
     <use style="stroke:#000000;stroke-width:0.5;" x="161.3040784" xlink:href="#m8185dd89ac" y="47.6856576"/>
     <use style="stroke:#000000;stroke-width:0.5;" x="162.1921354" xlink:href="#m8185dd89ac" y="48.7897344"/>
     <use style="stroke:#000000;stroke-width:0.5;" x="163.0801924" xlink:href="#m8185dd89ac" y="50.2619904"/>
     <use style="stroke:#000000;stroke-width:0.5;" x="163.9682494" xlink:href="#m8185dd89ac" y="51.3661824"/>
     <use style="stroke:#000000;stroke-width:0.5;" x="164.8563064" xlink:href="#m8185dd89ac" y="52.8383232"/>
     <use style="stroke:#000000;stroke-width:0.5;" x="165.7443634" xlink:href="#m8185dd89ac" y="53.9425152"/>
     <use style="stroke:#000000;stroke-width:0.5;" x="166.1884756" xlink:href="#m8185dd89ac" y="55.414656"/>
     <use style="stroke:#000000;stroke-width:0.5;" x="167.0765326" xlink:href="#m8185dd89ac" y="56.886912"/>
     <use style="stroke:#000000;stroke-width:0.5;" x="167.9645896" xlink:href="#m8185dd89ac" y="57.991104"/>
     <use style="stroke:#000000;stroke-width:0.5;" x="168.8526466" xlink:href="#m8185dd89ac" y="59.4632448"/>
     <use style="stroke:#000000;stroke-width:0.5;" x="169.7407036" xlink:href="#m8185dd89ac" y="60.5674368"/>
     <use style="stroke:#000000;stroke-width:0.5;" x="170.1848158" xlink:href="#m8185dd89ac" y="62.0395776"/>
     <use style="stroke:#000000;stroke-width:0.5;" x="171.0728728" xlink:href="#m8185dd89ac" y="63.1437696"/>
     <use style="stroke:#000000;stroke-width:0.5;" x="171.9609298" xlink:href="#m8185dd89ac" y="64.6160256"/>
     <use style="stroke:#000000;stroke-width:0.5;" x="172.8489868" xlink:href="#m8185dd89ac" y="66.0881664"/>
     <use style="stroke:#000000;stroke-width:0.5;" x="173.7370438" xlink:href="#m8185dd89ac" y="67.1923584"/>
     <use style="stroke:#000000;stroke-width:0.5;" x="174.1809886" xlink:href="#m8185dd89ac" y="68.6644992"/>
     <use style="stroke:#000000;stroke-width:0.5;" x="175.0690456" xlink:href="#m8185dd89ac" y="69.7686912"/>
     <use style="stroke:#000000;stroke-width:0.5;" x="175.9571026" xlink:href="#m8185dd89ac" y="71.2409472"/>
     <use style="stroke:#000000;stroke-width:0.5;" x="176.8451596" xlink:href="#m8185dd89ac" y="72.345024"/>
     <use style="stroke:#000000;stroke-width:0.5;" x="177.7332166" xlink:href="#m8185dd89ac" y="73.81728"/>
     <use style="stroke:#000000;stroke-width:0.5;" x="178.1773288" xlink:href="#m8185dd89ac" y="75.2894208"/>
     <use style="stroke:#000000;stroke-width:0.5;" x="179.509498" xlink:href="#m8185dd89ac" y="76.3936128"/>
     <use style="stroke:#000000;stroke-width:0.5;" x="180.397555" xlink:href="#m8185dd89ac" y="77.4978048"/>
     <use style="stroke:#000000;stroke-width:0.5;" x="181.285612" xlink:href="#m8185dd89ac" y="78.6018816"/>
     <use style="stroke:#000000;stroke-width:0.5;" x="182.6176138" xlink:href="#m8185dd89ac" y="79.7060736"/>
     <use style="stroke:#000000;stroke-width:0.5;" x="183.5056708" xlink:href="#m8185dd89ac" y="81.1783296"/>
     <use style="stroke:#000000;stroke-width:0.5;" x="184.83784" xlink:href="#m8185dd89ac" y="82.2824064"/>
     <use style="stroke:#000000;stroke-width:0.5;" x="185.725897" xlink:href="#m8185dd89ac" y="83.3865984"/>
     <use style="stroke:#000000;stroke-width:0.5;" x="186.613954" xlink:href="#m8185dd89ac" y="84.4907904"/>
     <use style="stroke:#000000;stroke-width:0.5;" x="187.9459558" xlink:href="#m8185dd89ac" y="85.9629312"/>
     <use style="stroke:#000000;stroke-width:0.5;" x="188.8340128" xlink:href="#m8185dd89ac" y="87.0671232"/>
    </g>
   </g>
   <g id="line2d_2">
    <path clip-path="url(#p9f2557187d)" d="
M23.2299 89.9712
L27.8947 85.577
L31.1404 82.1479
L34.1447 78.514
L36.961 74.7193
L40.4994 69.5645
L43.8215 64.386
L47.7542 57.824
L54.071 47.2188
L57.4391 42.071
L60.1271 38.3181
L62.0529 35.8756
L64.1511 33.5105
L66.4894 31.2832
L69.1216 29.2891
L70.5542 28.4167
L72.0603 27.6488
L73.6318 27.0005
L75.2567 26.4854
L76.9196 26.1144
L78.6035 25.8951
L80.2908 25.8307
L81.9653 25.9203
L83.6137 26.1583
L85.2273 26.5349
L86.8027 27.036
L89.8545 28.3389
L99.1541 32.9754
L100.857 33.5926
L102.609 34.1035
L104.402 34.4895
L106.22 34.7357
L108.043 34.8312
L109.854 34.77
L111.634 34.5514
L113.37 34.18
L115.052 33.6665
L116.678 33.0266
L119.779 31.4552
L127.297 27.1753
L128.873 26.5073
L130.487 25.9672
L132.136 25.5757
L133.81 25.3484
L135.493 25.2952
L137.17 25.42
L138.824 25.721
L140.436 26.1905
L141.992 26.8163
L143.483 27.5818
L144.9 28.468
L147.509 30.5193
L149.845 32.8091
L151.974 35.2069
L155.875 40.0633
L159.556 44.9914
L163.079 50.1415
L167.239 56.7668
L176.796 72.4907
L179.599 76.4025
L182.545 80.0428
L186.551 84.4736
L188.635 86.7183
L188.635 86.7183" style="fill:none;stroke:#e41a1c;stroke-linecap:square;stroke-width:1.2;"/>
   </g>
   <g id="patch_3">
    <path d="
M189.278 122.4
L189.278 7.2" style="fill:none;stroke:#000000;stroke-linecap:square;stroke-linejoin:miter;"/>
   </g>
   <g id="patch_4">
    <path d="
M21.8781 122.4
L21.8781 7.2" style="fill:none;stroke:#000000;stroke-linecap:square;stroke-linejoin:miter;"/>
   </g>
   <g id="patch_5">
    <path d="
M21.8781 7.2
L189.278 7.2" style="fill:none;stroke:#000000;stroke-linecap:square;stroke-linejoin:miter;"/>
   </g>
   <g id="patch_6">
    <path d="
M21.8781 122.4
L189.278 122.4" style="fill:none;stroke:#000000;stroke-linecap:square;stroke-linejoin:miter;"/>
   </g>
   <g id="matplotlib.axis_1">
    <g id="xtick_1">
     <g id="line2d_3">
      <defs>
       <path d="
M0 0
L0 -4" id="mc7db9fdffb" style="stroke:#000000;stroke-width:0.5;"/>
      </defs>
      <g>
       <use style="stroke:#000000;stroke-width:0.5;" x="21.878125" xlink:href="#mc7db9fdffb" y="122.4"/>
      </g>
     </g>
     <g id="line2d_4">
      <defs>
       <path d="
M0 0
L0 4" id="m5a7d422ac3" style="stroke:#000000;stroke-width:0.5;"/>
      </defs>
      <g>
       <use style="stroke:#000000;stroke-width:0.5;" x="21.878125" xlink:href="#m5a7d422ac3" y="7.2"/>
      </g>
     </g>
     <g id="text_1">
      <!-- −0.5 -->
      <defs>
       <path d="
M10.7969 72.9062
L49.5156 72.9062
L49.5156 64.5938
L19.8281 64.5938
L19.8281 46.7344
Q21.9688 47.4688 24.1094 47.8281
Q26.2656 48.1875 28.4219 48.1875
Q40.625 48.1875 47.75 41.5
Q54.8906 34.8125 54.8906 23.3906
Q54.8906 11.625 47.5625 5.09375
Q40.2344 -1.42188 26.9062 -1.42188
Q22.3125 -1.42188 17.5469 -0.640625
Q12.7969 0.140625 7.71875 1.70312
L7.71875 11.625
Q12.1094 9.23438 16.7969 8.0625
Q21.4844 6.89062 26.7031 6.89062
Q35.1562 6.89062 40.0781 11.3281
Q45.0156 15.7656 45.0156 23.3906
Q45.0156 31 40.0781 35.4375
Q35.1562 39.8906 26.7031 39.8906
Q22.75 39.8906 18.8125 39.0156
Q14.8906 38.1406 10.7969 36.2812
z
" id="BitstreamVeraSans-Roman-35"/>
       <path d="
M10.6875 12.4062
L21 12.4062
L21 0
L10.6875 0
z
" id="BitstreamVeraSans-Roman-2e"/>
       <path d="
M10.5938 35.5
L73.1875 35.5
L73.1875 27.2031
L10.5938 27.2031
z
" id="BitstreamVeraSans-Roman-2212"/>
       <path d="
M31.7812 66.4062
Q24.1719 66.4062 20.3281 58.9062
Q16.5 51.4219 16.5 36.375
Q16.5 21.3906 20.3281 13.8906
Q24.1719 6.39062 31.7812 6.39062
Q39.4531 6.39062 43.2812 13.8906
Q47.125 21.3906 47.125 36.375
Q47.125 51.4219 43.2812 58.9062
Q39.4531 66.4062 31.7812 66.4062
M31.7812 74.2188
Q44.0469 74.2188 50.5156 64.5156
Q56.9844 54.8281 56.9844 36.375
Q56.9844 17.9688 50.5156 8.26562
Q44.0469 -1.42188 31.7812 -1.42188
Q19.5312 -1.42188 13.0625 8.26562
Q6.59375 17.9688 6.59375 36.375
Q6.59375 54.8281 13.0625 64.5156
Q19.5312 74.2188 31.7812 74.2188" id="BitstreamVeraSans-Roman-30"/>
      </defs>
      <g transform="translate(10.703125 133.9984375)scale(0.1 -0.1)">
       <use xlink:href="#BitstreamVeraSans-Roman-2212"/>
       <use x="83.7890625" xlink:href="#BitstreamVeraSans-Roman-30"/>
       <use x="147.412109375" xlink:href="#BitstreamVeraSans-Roman-2e"/>
       <use x="179.19921875" xlink:href="#BitstreamVeraSans-Roman-35"/>
      </g>
     </g>
    </g>
    <g id="xtick_2">
     <g id="line2d_5">
      <g>
       <use style="stroke:#000000;stroke-width:0.5;" x="105.578125" xlink:href="#mc7db9fdffb" y="122.4"/>
      </g>
     </g>
     <g id="line2d_6">
      <g>
       <use style="stroke:#000000;stroke-width:0.5;" x="105.578125" xlink:href="#m5a7d422ac3" y="7.2"/>
      </g>
     </g>
     <g id="text_2">
      <!-- 0.0 -->
      <g transform="translate(98.28828125 133.9984375)scale(0.1 -0.1)">
       <use xlink:href="#BitstreamVeraSans-Roman-30"/>
       <use x="63.623046875" xlink:href="#BitstreamVeraSans-Roman-2e"/>
       <use x="95.41015625" xlink:href="#BitstreamVeraSans-Roman-30"/>
      </g>
     </g>
    </g>
    <g id="xtick_3">
     <g id="line2d_7">
      <g>
       <use style="stroke:#000000;stroke-width:0.5;" x="189.278125" xlink:href="#mc7db9fdffb" y="122.4"/>
      </g>
     </g>
     <g id="line2d_8">
      <g>
       <use style="stroke:#000000;stroke-width:0.5;" x="189.278125" xlink:href="#m5a7d422ac3" y="7.2"/>
      </g>
     </g>
     <g id="text_3">
      <!-- 0.5 -->
      <g transform="translate(182.09296875 133.9984375)scale(0.1 -0.1)">
       <use xlink:href="#BitstreamVeraSans-Roman-30"/>
       <use x="63.623046875" xlink:href="#BitstreamVeraSans-Roman-2e"/>
       <use x="95.41015625" xlink:href="#BitstreamVeraSans-Roman-35"/>
      </g>
     </g>
    </g>
    <g id="text_4">
     <!-- Relative Position -->
     <defs>
      <path d="
M54.8906 33.0156
L54.8906 0
L45.9062 0
L45.9062 32.7188
Q45.9062 40.4844 42.875 44.3281
Q39.8438 48.1875 33.7969 48.1875
Q26.5156 48.1875 22.3125 43.5469
Q18.1094 38.9219 18.1094 30.9062
L18.1094 0
L9.07812 0
L9.07812 54.6875
L18.1094 54.6875
L18.1094 46.1875
Q21.3438 51.125 25.7031 53.5625
Q30.0781 56 35.7969 56
Q45.2188 56 50.0469 50.1719
Q54.8906 44.3438 54.8906 33.0156" id="BitstreamVeraSans-Roman-6e"/>
      <path d="
M2.98438 54.6875
L12.5 54.6875
L29.5938 8.79688
L46.6875 54.6875
L56.2031 54.6875
L35.6875 0
L23.4844 0
z
" id="BitstreamVeraSans-Roman-76"/>
      <path d="
M34.2812 27.4844
Q23.3906 27.4844 19.1875 25
Q14.9844 22.5156 14.9844 16.5
Q14.9844 11.7188 18.1406 8.90625
Q21.2969 6.10938 26.7031 6.10938
Q34.1875 6.10938 38.7031 11.4062
Q43.2188 16.7031 43.2188 25.4844
L43.2188 27.4844
z

M52.2031 31.2031
L52.2031 0
L43.2188 0
L43.2188 8.29688
Q40.1406 3.32812 35.5469 0.953125
Q30.9531 -1.42188 24.3125 -1.42188
Q15.9219 -1.42188 10.9531 3.29688
Q6 8.01562 6 15.9219
Q6 25.1406 12.1719 29.8281
Q18.3594 34.5156 30.6094 34.5156
L43.2188 34.5156
L43.2188 35.4062
Q43.2188 41.6094 39.1406 45
Q35.0625 48.3906 27.6875 48.3906
Q23 48.3906 18.5469 47.2656
Q14.1094 46.1406 10.0156 43.8906
L10.0156 52.2031
Q14.9375 54.1094 19.5781 55.0469
Q24.2188 56 28.6094 56
Q40.4844 56 46.3438 49.8438
Q52.2031 43.7031 52.2031 31.2031" id="BitstreamVeraSans-Roman-61"/>
      <path d="
M44.2812 53.0781
L44.2812 44.5781
Q40.4844 46.5312 36.375 47.5
Q32.2812 48.4844 27.875 48.4844
Q21.1875 48.4844 17.8438 46.4375
Q14.5 44.3906 14.5 40.2812
Q14.5 37.1562 16.8906 35.375
Q19.2812 33.5938 26.5156 31.9844
L29.5938 31.2969
Q39.1562 29.25 43.1875 25.5156
Q47.2188 21.7812 47.2188 15.0938
Q47.2188 7.46875 41.1875 3.01562
Q35.1562 -1.42188 24.6094 -1.42188
Q20.2188 -1.42188 15.4531 -0.5625
Q10.6875 0.296875 5.42188 2
L5.42188 11.2812
Q10.4062 8.6875 15.2344 7.39062
Q20.0625 6.10938 24.8125 6.10938
Q31.1562 6.10938 34.5625 8.28125
Q37.9844 10.4531 37.9844 14.4062
Q37.9844 18.0625 35.5156 20.0156
Q33.0625 21.9688 24.7031 23.7812
L21.5781 24.5156
Q13.2344 26.2656 9.51562 29.9062
Q5.8125 33.5469 5.8125 39.8906
Q5.8125 47.6094 11.2812 51.7969
Q16.75 56 26.8125 56
Q31.7812 56 36.1719 55.2656
Q40.5781 54.5469 44.2812 53.0781" id="BitstreamVeraSans-Roman-73"/>
      <path d="
M30.6094 48.3906
Q23.3906 48.3906 19.1875 42.75
Q14.9844 37.1094 14.9844 27.2969
Q14.9844 17.4844 19.1562 11.8438
Q23.3438 6.20312 30.6094 6.20312
Q37.7969 6.20312 41.9844 11.8594
Q46.1875 17.5312 46.1875 27.2969
Q46.1875 37.0156 41.9844 42.7031
Q37.7969 48.3906 30.6094 48.3906
M30.6094 56
Q42.3281 56 49.0156 48.375
Q55.7188 40.7656 55.7188 27.2969
Q55.7188 13.875 49.0156 6.21875
Q42.3281 -1.42188 30.6094 -1.42188
Q18.8438 -1.42188 12.1719 6.21875
Q5.51562 13.875 5.51562 27.2969
Q5.51562 40.7656 12.1719 48.375
Q18.8438 56 30.6094 56" id="BitstreamVeraSans-Roman-6f"/>
      <path id="BitstreamVeraSans-Roman-20"/>
      <path d="
M44.3906 34.1875
Q47.5625 33.1094 50.5625 29.5938
Q53.5625 26.0781 56.5938 19.9219
L66.6094 0
L56 0
L46.6875 18.7031
Q43.0625 26.0312 39.6719 28.4219
Q36.2812 30.8125 30.4219 30.8125
L19.6719 30.8125
L19.6719 0
L9.8125 0
L9.8125 72.9062
L32.0781 72.9062
Q44.5781 72.9062 50.7344 67.6719
Q56.8906 62.4531 56.8906 51.9062
Q56.8906 45.0156 53.6875 40.4688
Q50.4844 35.9375 44.3906 34.1875
M19.6719 64.7969
L19.6719 38.9219
L32.0781 38.9219
Q39.2031 38.9219 42.8438 42.2188
Q46.4844 45.5156 46.4844 51.9062
Q46.4844 58.2969 42.8438 61.5469
Q39.2031 64.7969 32.0781 64.7969
z
" id="BitstreamVeraSans-Roman-52"/>
      <path d="
M19.6719 64.7969
L19.6719 37.4062
L32.0781 37.4062
Q38.9688 37.4062 42.7188 40.9688
Q46.4844 44.5312 46.4844 51.125
Q46.4844 57.6719 42.7188 61.2344
Q38.9688 64.7969 32.0781 64.7969
z

M9.8125 72.9062
L32.0781 72.9062
Q44.3438 72.9062 50.6094 67.3594
Q56.8906 61.8125 56.8906 51.125
Q56.8906 40.3281 50.6094 34.8125
Q44.3438 29.2969 32.0781 29.2969
L19.6719 29.2969
L19.6719 0
L9.8125 0
z
" id="BitstreamVeraSans-Roman-50"/>
      <path d="
M9.42188 75.9844
L18.4062 75.9844
L18.4062 0
L9.42188 0
z
" id="BitstreamVeraSans-Roman-6c"/>
      <path d="
M9.42188 54.6875
L18.4062 54.6875
L18.4062 0
L9.42188 0
z

M9.42188 75.9844
L18.4062 75.9844
L18.4062 64.5938
L9.42188 64.5938
z
" id="BitstreamVeraSans-Roman-69"/>
      <path d="
M18.3125 70.2188
L18.3125 54.6875
L36.8125 54.6875
L36.8125 47.7031
L18.3125 47.7031
L18.3125 18.0156
Q18.3125 11.3281 20.1406 9.42188
Q21.9688 7.51562 27.5938 7.51562
L36.8125 7.51562
L36.8125 0
L27.5938 0
Q17.1875 0 13.2344 3.875
Q9.28125 7.76562 9.28125 18.0156
L9.28125 47.7031
L2.6875 47.7031
L2.6875 54.6875
L9.28125 54.6875
L9.28125 70.2188
z
" id="BitstreamVeraSans-Roman-74"/>
      <path d="
M56.2031 29.5938
L56.2031 25.2031
L14.8906 25.2031
Q15.4844 15.9219 20.4844 11.0625
Q25.4844 6.20312 34.4219 6.20312
Q39.5938 6.20312 44.4531 7.46875
Q49.3125 8.73438 54.1094 11.2812
L54.1094 2.78125
Q49.2656 0.734375 44.1875 -0.34375
Q39.1094 -1.42188 33.8906 -1.42188
Q20.7969 -1.42188 13.1562 6.1875
Q5.51562 13.8125 5.51562 26.8125
Q5.51562 40.2344 12.7656 48.1094
Q20.0156 56 32.3281 56
Q43.3594 56 49.7812 48.8906
Q56.2031 41.7969 56.2031 29.5938
M47.2188 32.2344
Q47.125 39.5938 43.0938 43.9844
Q39.0625 48.3906 32.4219 48.3906
Q24.9062 48.3906 20.3906 44.1406
Q15.875 39.8906 15.1875 32.1719
z
" id="BitstreamVeraSans-Roman-65"/>
     </defs>
     <g transform="translate(64.78515625 148.6765625)scale(0.1 -0.1)">
      <use xlink:href="#BitstreamVeraSans-Roman-52"/>
      <use x="64.982421875" xlink:href="#BitstreamVeraSans-Roman-65"/>
      <use x="126.505859375" xlink:href="#BitstreamVeraSans-Roman-6c"/>
      <use x="154.2890625" xlink:href="#BitstreamVeraSans-Roman-61"/>
      <use x="215.568359375" xlink:href="#BitstreamVeraSans-Roman-74"/>
      <use x="254.77734375" xlink:href="#BitstreamVeraSans-Roman-69"/>
      <use x="282.560546875" xlink:href="#BitstreamVeraSans-Roman-76"/>
      <use x="341.740234375" xlink:href="#BitstreamVeraSans-Roman-65"/>
      <use x="403.263671875" xlink:href="#BitstreamVeraSans-Roman-20"/>
      <use x="435.05078125" xlink:href="#BitstreamVeraSans-Roman-50"/>
      <use x="491.728515625" xlink:href="#BitstreamVeraSans-Roman-6f"/>
      <use x="552.91015625" xlink:href="#BitstreamVeraSans-Roman-73"/>
      <use x="605.009765625" xlink:href="#BitstreamVeraSans-Roman-69"/>
      <use x="632.79296875" xlink:href="#BitstreamVeraSans-Roman-74"/>
      <use x="672.001953125" xlink:href="#BitstreamVeraSans-Roman-69"/>
      <use x="699.78515625" xlink:href="#BitstreamVeraSans-Roman-6f"/>
      <use x="760.966796875" xlink:href="#BitstreamVeraSans-Roman-6e"/>
     </g>
    </g>
   </g>
   <g id="matplotlib.axis_2">
    <g id="text_5">
     <!-- Nucleoid Density -->
     <defs>
      <path d="
M48.7812 52.5938
L48.7812 44.1875
Q44.9688 46.2969 41.1406 47.3438
Q37.3125 48.3906 33.4062 48.3906
Q24.6562 48.3906 19.8125 42.8438
Q14.9844 37.3125 14.9844 27.2969
Q14.9844 17.2812 19.8125 11.7344
Q24.6562 6.20312 33.4062 6.20312
Q37.3125 6.20312 41.1406 7.25
Q44.9688 8.29688 48.7812 10.4062
L48.7812 2.09375
Q45.0156 0.34375 40.9844 -0.53125
Q36.9688 -1.42188 32.4219 -1.42188
Q20.0625 -1.42188 12.7812 6.34375
Q5.51562 14.1094 5.51562 27.2969
Q5.51562 40.6719 12.8594 48.3281
Q20.2188 56 33.0156 56
Q37.1562 56 41.1094 55.1406
Q45.0625 54.2969 48.7812 52.5938" id="BitstreamVeraSans-Roman-63"/>
      <path d="
M32.1719 -5.07812
Q28.375 -14.8438 24.75 -17.8125
Q21.1406 -20.7969 15.0938 -20.7969
L7.90625 -20.7969
L7.90625 -13.2812
L13.1875 -13.2812
Q16.8906 -13.2812 18.9375 -11.5156
Q21 -9.76562 23.4844 -3.21875
L25.0938 0.875
L2.98438 54.6875
L12.5 54.6875
L29.5938 11.9219
L46.6875 54.6875
L56.2031 54.6875
z
" id="BitstreamVeraSans-Roman-79"/>
      <path d="
M19.6719 64.7969
L19.6719 8.10938
L31.5938 8.10938
Q46.6875 8.10938 53.6875 14.9375
Q60.6875 21.7812 60.6875 36.5312
Q60.6875 51.1719 53.6875 57.9844
Q46.6875 64.7969 31.5938 64.7969
z

M9.8125 72.9062
L30.0781 72.9062
Q51.2656 72.9062 61.1719 64.0938
Q71.0938 55.2812 71.0938 36.5312
Q71.0938 17.6719 61.125 8.82812
Q51.1719 0 30.0781 0
L9.8125 0
z
" id="BitstreamVeraSans-Roman-44"/>
      <path d="
M9.8125 72.9062
L23.0938 72.9062
L55.4219 11.9219
L55.4219 72.9062
L64.9844 72.9062
L64.9844 0
L51.7031 0
L19.3906 60.9844
L19.3906 0
L9.8125 0
z
" id="BitstreamVeraSans-Roman-4e"/>
      <path d="
M8.5 21.5781
L8.5 54.6875
L17.4844 54.6875
L17.4844 21.9219
Q17.4844 14.1562 20.5 10.2656
Q23.5312 6.39062 29.5938 6.39062
Q36.8594 6.39062 41.0781 11.0312
Q45.3125 15.6719 45.3125 23.6875
L45.3125 54.6875
L54.2969 54.6875
L54.2969 0
L45.3125 0
L45.3125 8.40625
Q42.0469 3.42188 37.7188 1
Q33.4062 -1.42188 27.6875 -1.42188
Q18.2656 -1.42188 13.375 4.4375
Q8.5 10.2969 8.5 21.5781" id="BitstreamVeraSans-Roman-75"/>
      <path d="
M45.4062 46.3906
L45.4062 75.9844
L54.3906 75.9844
L54.3906 0
L45.4062 0
L45.4062 8.20312
Q42.5781 3.32812 38.25 0.953125
Q33.9375 -1.42188 27.875 -1.42188
Q17.9688 -1.42188 11.7344 6.48438
Q5.51562 14.4062 5.51562 27.2969
Q5.51562 40.1875 11.7344 48.0938
Q17.9688 56 27.875 56
Q33.9375 56 38.25 53.625
Q42.5781 51.2656 45.4062 46.3906
M14.7969 27.2969
Q14.7969 17.3906 18.875 11.75
Q22.9531 6.10938 30.0781 6.10938
Q37.2031 6.10938 41.2969 11.75
Q45.4062 17.3906 45.4062 27.2969
Q45.4062 37.2031 41.2969 42.8438
Q37.2031 48.4844 30.0781 48.4844
Q22.9531 48.4844 18.875 42.8438
Q14.7969 37.2031 14.7969 27.2969" id="BitstreamVeraSans-Roman-64"/>
     </defs>
     <g transform="translate(14.7984375 106.9953125)rotate(-90.0)scale(0.1 -0.1)">
      <use xlink:href="#BitstreamVeraSans-Roman-4e"/>
      <use x="74.8046875" xlink:href="#BitstreamVeraSans-Roman-75"/>
      <use x="138.18359375" xlink:href="#BitstreamVeraSans-Roman-63"/>
      <use x="193.1640625" xlink:href="#BitstreamVeraSans-Roman-6c"/>
      <use x="220.947265625" xlink:href="#BitstreamVeraSans-Roman-65"/>
      <use x="282.470703125" xlink:href="#BitstreamVeraSans-Roman-6f"/>
      <use x="343.65234375" xlink:href="#BitstreamVeraSans-Roman-69"/>
      <use x="371.435546875" xlink:href="#BitstreamVeraSans-Roman-64"/>
      <use x="434.912109375" xlink:href="#BitstreamVeraSans-Roman-20"/>
      <use x="466.69921875" xlink:href="#BitstreamVeraSans-Roman-44"/>
      <use x="543.701171875" xlink:href="#BitstreamVeraSans-Roman-65"/>
      <use x="605.224609375" xlink:href="#BitstreamVeraSans-Roman-6e"/>
      <use x="668.603515625" xlink:href="#BitstreamVeraSans-Roman-73"/>
      <use x="720.703125" xlink:href="#BitstreamVeraSans-Roman-69"/>
      <use x="748.486328125" xlink:href="#BitstreamVeraSans-Roman-74"/>
      <use x="787.6953125" xlink:href="#BitstreamVeraSans-Roman-79"/>
     </g>
    </g>
   </g>
  </g>
 </g>
 <defs>
  <clipPath id="p9f2557187d">
   <rect height="115.2" width="167.4" x="21.878125" y="7.2"/>
  </clipPath>
 </defs>
</svg>
