<?xml version="1.0" encoding="utf-8" standalone="no"?>
<!DOCTYPE svg PUBLIC "-//W3C//DTD SVG 1.1//EN"
  "http://www.w3.org/Graphics/SVG/1.1/DTD/svg11.dtd">
<!-- Created with matplotlib (http://matplotlib.org/) -->
<svg height="220pt" version="1.1" viewBox="0 0 270 220" width="270pt" xmlns="http://www.w3.org/2000/svg" xmlns:xlink="http://www.w3.org/1999/xlink">
 <defs>
  <style type="text/css">
*{stroke-linecap:butt;stroke-linejoin:round;}
  </style>
 </defs>
 <g id="figure_1">
  <g id="patch_1">
   <path d="
M0 220.395
L270.961 220.395
L270.961 0
L0 0
z
" style="fill:#ffffff;"/>
  </g>
  <g id="axes_1">
   <g id="patch_2">
    <path d="
M40.5609 184.839
L263.761 184.839
L263.761 12.0391
L40.5609 12.0391
z
" style="fill:#ffffff;"/>
   </g>
   <g id="line2d_1">
    <defs>
     <path d="
M0 1.5
C0.397805 1.5 0.77937 1.34195 1.06066 1.06066
C1.34195 0.77937 1.5 0.397805 1.5 0
C1.5 -0.397805 1.34195 -0.77937 1.06066 -1.06066
C0.77937 -1.34195 0.397805 -1.5 0 -1.5
C-0.397805 -1.5 -0.77937 -1.34195 -1.06066 -1.06066
C-1.34195 -0.77937 -1.5 -0.397805 -1.5 0
C-1.5 0.397805 -1.34195 0.77937 -1.06066 1.06066
C-0.77937 1.34195 -0.397805 1.5 0 1.5
z
" id="m8185dd89ac" style="stroke:#000000;stroke-width:0.5;"/>
    </defs>
    <g clip-path="url(#p7c9d78d0d1)">
     <use style="stroke:#000000;stroke-width:0.5;" x="42.3371631" xlink:href="#m8185dd89ac" y="136.2563425"/>
     <use style="stroke:#000000;stroke-width:0.5;" x="44.1131655" xlink:href="#m8185dd89ac" y="134.6000545"/>
     <use style="stroke:#000000;stroke-width:0.5;" x="45.2972415" xlink:href="#m8185dd89ac" y="132.9439393"/>
     <use style="stroke:#000000;stroke-width:0.5;" x="47.0734671" xlink:href="#m8185dd89ac" y="131.2876513"/>
     <use style="stroke:#000000;stroke-width:0.5;" x="48.8494695" xlink:href="#m8185dd89ac" y="129.6313633"/>
     <use style="stroke:#000000;stroke-width:0.5;" x="50.0335455" xlink:href="#m8185dd89ac" y="127.9752481"/>
     <use style="stroke:#000000;stroke-width:0.5;" x="51.8097711" xlink:href="#m8185dd89ac" y="126.3189601"/>
     <use style="stroke:#000000;stroke-width:0.5;" x="52.9938471" xlink:href="#m8185dd89ac" y="124.6626721"/>
     <use style="stroke:#000000;stroke-width:0.5;" x="54.1779231" xlink:href="#m8185dd89ac" y="122.4544609"/>
     <use style="stroke:#000000;stroke-width:0.5;" x="55.3619991" xlink:href="#m8185dd89ac" y="120.7981729"/>
     <use style="stroke:#000000;stroke-width:0.5;" x="56.5460751" xlink:href="#m8185dd89ac" y="119.1418849"/>
     <use style="stroke:#000000;stroke-width:0.5;" x="58.3223007" xlink:href="#m8185dd89ac" y="116.9336737"/>
     <use style="stroke:#000000;stroke-width:0.5;" x="59.5063767" xlink:href="#m8185dd89ac" y="115.2773857"/>
     <use style="stroke:#000000;stroke-width:0.5;" x="60.6904527" xlink:href="#m8185dd89ac" y="113.0691745"/>
     <use style="stroke:#000000;stroke-width:0.5;" x="61.8745287" xlink:href="#m8185dd89ac" y="111.4128865"/>
     <use style="stroke:#000000;stroke-width:0.5;" x="63.0586047" xlink:href="#m8185dd89ac" y="109.2045025"/>
     <use style="stroke:#000000;stroke-width:0.5;" x="64.2426807" xlink:href="#m8185dd89ac" y="107.5483873"/>
     <use style="stroke:#000000;stroke-width:0.5;" x="65.4267567" xlink:href="#m8185dd89ac" y="105.8920993"/>
     <use style="stroke:#000000;stroke-width:0.5;" x="66.6108327" xlink:href="#m8185dd89ac" y="103.6837153"/>
     <use style="stroke:#000000;stroke-width:0.5;" x="67.7949087" xlink:href="#m8185dd89ac" y="102.0276001"/>
     <use style="stroke:#000000;stroke-width:0.5;" x="68.9789847" xlink:href="#m8185dd89ac" y="99.8192161"/>
     <use style="stroke:#000000;stroke-width:0.5;" x="69.5709111" xlink:href="#m8185dd89ac" y="97.6110049"/>
     <use style="stroke:#000000;stroke-width:0.5;" x="70.7552103" xlink:href="#m8185dd89ac" y="95.9547169"/>
     <use style="stroke:#000000;stroke-width:0.5;" x="71.9392863" xlink:href="#m8185dd89ac" y="93.7463329"/>
     <use style="stroke:#000000;stroke-width:0.5;" x="73.1233623" xlink:href="#m8185dd89ac" y="92.0902177"/>
     <use style="stroke:#000000;stroke-width:0.5;" x="73.7152887" xlink:href="#m8185dd89ac" y="89.8818337"/>
     <use style="stroke:#000000;stroke-width:0.5;" x="74.8993647" xlink:href="#m8185dd89ac" y="87.6736225"/>
     <use style="stroke:#000000;stroke-width:0.5;" x="76.0834407" xlink:href="#m8185dd89ac" y="86.0173345"/>
     <use style="stroke:#000000;stroke-width:0.5;" x="77.2675167" xlink:href="#m8185dd89ac" y="83.8089505"/>
     <use style="stroke:#000000;stroke-width:0.5;" x="78.4515927" xlink:href="#m8185dd89ac" y="82.1528353"/>
     <use style="stroke:#000000;stroke-width:0.5;" x="79.0437423" xlink:href="#m8185dd89ac" y="79.9444513"/>
     <use style="stroke:#000000;stroke-width:0.5;" x="80.2278183" xlink:href="#m8185dd89ac" y="78.2883361"/>
     <use style="stroke:#000000;stroke-width:0.5;" x="81.4118943" xlink:href="#m8185dd89ac" y="76.0799521"/>
     <use style="stroke:#000000;stroke-width:0.5;" x="82.5959703" xlink:href="#m8185dd89ac" y="73.8715681"/>
     <use style="stroke:#000000;stroke-width:0.5;" x="83.7800463" xlink:href="#m8185dd89ac" y="72.2154529"/>
     <use style="stroke:#000000;stroke-width:0.5;" x="84.3719727" xlink:href="#m8185dd89ac" y="70.0070689"/>
     <use style="stroke:#000000;stroke-width:0.5;" x="85.5562719" xlink:href="#m8185dd89ac" y="68.3509537"/>
     <use style="stroke:#000000;stroke-width:0.5;" x="86.7403479" xlink:href="#m8185dd89ac" y="66.1425697"/>
     <use style="stroke:#000000;stroke-width:0.5;" x="87.9244239" xlink:href="#m8185dd89ac" y="64.4862817"/>
     <use style="stroke:#000000;stroke-width:0.5;" x="89.1084999" xlink:href="#m8185dd89ac" y="62.2780705"/>
     <use style="stroke:#000000;stroke-width:0.5;" x="90.2925759" xlink:href="#m8185dd89ac" y="60.6217825"/>
     <use style="stroke:#000000;stroke-width:0.5;" x="91.4766519" xlink:href="#m8185dd89ac" y="58.4135713"/>
     <use style="stroke:#000000;stroke-width:0.5;" x="92.6607279" xlink:href="#m8185dd89ac" y="56.7572833"/>
     <use style="stroke:#000000;stroke-width:0.5;" x="93.8448039" xlink:href="#m8185dd89ac" y="55.1009953"/>
     <use style="stroke:#000000;stroke-width:0.5;" x="95.6208063" xlink:href="#m8185dd89ac" y="53.4448801"/>
     <use style="stroke:#000000;stroke-width:0.5;" x="97.3970319" xlink:href="#m8185dd89ac" y="51.7885921"/>
     <use style="stroke:#000000;stroke-width:0.5;" x="98.5811079" xlink:href="#m8185dd89ac" y="49.5802081"/>
     <use style="stroke:#000000;stroke-width:0.5;" x="100.3573335" xlink:href="#m8185dd89ac" y="47.9240929"/>
     <use style="stroke:#000000;stroke-width:0.5;" x="102.1333359" xlink:href="#m8185dd89ac" y="46.8199009"/>
     <use style="stroke:#000000;stroke-width:0.5;" x="103.3174119" xlink:href="#m8185dd89ac" y="45.1636129"/>
     <use style="stroke:#000000;stroke-width:0.5;" x="105.0936375" xlink:href="#m8185dd89ac" y="44.0595937"/>
     <use style="stroke:#000000;stroke-width:0.5;" x="107.4617895" xlink:href="#m8185dd89ac" y="42.9554017"/>
     <use style="stroke:#000000;stroke-width:0.5;" x="109.2377919" xlink:href="#m8185dd89ac" y="41.8512097"/>
     <use style="stroke:#000000;stroke-width:0.5;" x="111.6059439" xlink:href="#m8185dd89ac" y="40.7470177"/>
     <use style="stroke:#000000;stroke-width:0.5;" x="113.9740959" xlink:href="#m8185dd89ac" y="40.1949217"/>
     <use style="stroke:#000000;stroke-width:0.5;" x="116.3424711" xlink:href="#m8185dd89ac" y="40.1949217"/>
     <use style="stroke:#000000;stroke-width:0.5;" x="118.1184735" xlink:href="#m8185dd89ac" y="39.6428257"/>
     <use style="stroke:#000000;stroke-width:0.5;" x="120.4866255" xlink:href="#m8185dd89ac" y="40.1949217"/>
     <use style="stroke:#000000;stroke-width:0.5;" x="122.8547775" xlink:href="#m8185dd89ac" y="40.1949217"/>
     <use style="stroke:#000000;stroke-width:0.5;" x="125.2229295" xlink:href="#m8185dd89ac" y="40.7470177"/>
     <use style="stroke:#000000;stroke-width:0.5;" x="127.5910815" xlink:href="#m8185dd89ac" y="41.8512097"/>
     <use style="stroke:#000000;stroke-width:0.5;" x="129.3673071" xlink:href="#m8185dd89ac" y="42.9554017"/>
     <use style="stroke:#000000;stroke-width:0.5;" x="131.1434211" xlink:href="#m8185dd89ac" y="44.0595937"/>
     <use style="stroke:#000000;stroke-width:0.5;" x="133.51159542" xlink:href="#m8185dd89ac" y="45.1636129"/>
     <use style="stroke:#000000;stroke-width:0.5;" x="135.28773174" xlink:href="#m8185dd89ac" y="46.8199009"/>
     <use style="stroke:#000000;stroke-width:0.5;" x="137.06384574" xlink:href="#m8185dd89ac" y="47.3719969"/>
     <use style="stroke:#000000;stroke-width:0.5;" x="139.43202006" xlink:href="#m8185dd89ac" y="48.4761889"/>
     <use style="stroke:#000000;stroke-width:0.5;" x="141.20815638" xlink:href="#m8185dd89ac" y="49.0282849"/>
     <use style="stroke:#000000;stroke-width:0.5;" x="143.5763307" xlink:href="#m8185dd89ac" y="50.1323041"/>
     <use style="stroke:#000000;stroke-width:0.5;" x="145.3524447" xlink:href="#m8185dd89ac" y="51.2364961"/>
     <use style="stroke:#000000;stroke-width:0.5;" x="147.72061902" xlink:href="#m8185dd89ac" y="51.7885921"/>
     <use style="stroke:#000000;stroke-width:0.5;" x="149.49675534" xlink:href="#m8185dd89ac" y="52.8927841"/>
     <use style="stroke:#000000;stroke-width:0.5;" x="153.64104366" xlink:href="#m8185dd89ac" y="53.9969761"/>
     <use style="stroke:#000000;stroke-width:0.5;" x="156.00921798" xlink:href="#m8185dd89ac" y="53.9969761"/>
     <use style="stroke:#000000;stroke-width:0.5;" x="158.3773923" xlink:href="#m8185dd89ac" y="53.9969761"/>
     <use style="stroke:#000000;stroke-width:0.5;" x="160.7455443" xlink:href="#m8185dd89ac" y="53.4448801"/>
     <use style="stroke:#000000;stroke-width:0.5;" x="162.52168062" xlink:href="#m8185dd89ac" y="52.3406881"/>
     <use style="stroke:#000000;stroke-width:0.5;" x="164.88985494" xlink:href="#m8185dd89ac" y="51.7885921"/>
     <use style="stroke:#000000;stroke-width:0.5;" x="166.66596894" xlink:href="#m8185dd89ac" y="50.6844001"/>
     <use style="stroke:#000000;stroke-width:0.5;" x="169.03414326" xlink:href="#m8185dd89ac" y="49.0282849"/>
     <use style="stroke:#000000;stroke-width:0.5;" x="170.81027958" xlink:href="#m8185dd89ac" y="47.9240929"/>
     <use style="stroke:#000000;stroke-width:0.5;" x="173.1784539" xlink:href="#m8185dd89ac" y="46.8199009"/>
     <use style="stroke:#000000;stroke-width:0.5;" x="174.9545679" xlink:href="#m8185dd89ac" y="45.7157089"/>
     <use style="stroke:#000000;stroke-width:0.5;" x="177.3227199" xlink:href="#m8185dd89ac" y="44.6115169"/>
     <use style="stroke:#000000;stroke-width:0.5;" x="179.0989455" xlink:href="#m8185dd89ac" y="43.5074977"/>
     <use style="stroke:#000000;stroke-width:0.5;" x="180.8749479" xlink:href="#m8185dd89ac" y="42.4033057"/>
     <use style="stroke:#000000;stroke-width:0.5;" x="183.2430999" xlink:href="#m8185dd89ac" y="41.2991137"/>
     <use style="stroke:#000000;stroke-width:0.5;" x="185.0193255" xlink:href="#m8185dd89ac" y="40.1949217"/>
     <use style="stroke:#000000;stroke-width:0.5;" x="187.3874775" xlink:href="#m8185dd89ac" y="39.6428257"/>
     <use style="stroke:#000000;stroke-width:0.5;" x="189.7556295" xlink:href="#m8185dd89ac" y="39.0909025"/>
     <use style="stroke:#000000;stroke-width:0.5;" x="192.1237815" xlink:href="#m8185dd89ac" y="39.0909025"/>
     <use style="stroke:#000000;stroke-width:0.5;" x="194.4919335" xlink:href="#m8185dd89ac" y="39.0909025"/>
     <use style="stroke:#000000;stroke-width:0.5;" x="196.8600855" xlink:href="#m8185dd89ac" y="39.6428257"/>
     <use style="stroke:#000000;stroke-width:0.5;" x="198.6363111" xlink:href="#m8185dd89ac" y="40.7470177"/>
     <use style="stroke:#000000;stroke-width:0.5;" x="201.0044631" xlink:href="#m8185dd89ac" y="41.2991137"/>
     <use style="stroke:#000000;stroke-width:0.5;" x="202.7804655" xlink:href="#m8185dd89ac" y="42.4033057"/>
     <use style="stroke:#000000;stroke-width:0.5;" x="204.5566911" xlink:href="#m8185dd89ac" y="44.0595937"/>
     <use style="stroke:#000000;stroke-width:0.5;" x="206.3329167" xlink:href="#m8185dd89ac" y="45.1636129"/>
     <use style="stroke:#000000;stroke-width:0.5;" x="208.1089191" xlink:href="#m8185dd89ac" y="47.3719969"/>
     <use style="stroke:#000000;stroke-width:0.5;" x="209.2929951" xlink:href="#m8185dd89ac" y="49.0282849"/>
     <use style="stroke:#000000;stroke-width:0.5;" x="211.0692207" xlink:href="#m8185dd89ac" y="50.6844001"/>
     <use style="stroke:#000000;stroke-width:0.5;" x="212.2532967" xlink:href="#m8185dd89ac" y="52.3406881"/>
     <use style="stroke:#000000;stroke-width:0.5;" x="214.0292991" xlink:href="#m8185dd89ac" y="53.9969761"/>
     <use style="stroke:#000000;stroke-width:0.5;" x="215.2133751" xlink:href="#m8185dd89ac" y="55.6530913"/>
     <use style="stroke:#000000;stroke-width:0.5;" x="216.9896007" xlink:href="#m8185dd89ac" y="57.3093793"/>
     <use style="stroke:#000000;stroke-width:0.5;" x="218.1736767" xlink:href="#m8185dd89ac" y="59.5175905"/>
     <use style="stroke:#000000;stroke-width:0.5;" x="219.3577527" xlink:href="#m8185dd89ac" y="61.1738785"/>
     <use style="stroke:#000000;stroke-width:0.5;" x="220.5418287" xlink:href="#m8185dd89ac" y="63.3822625"/>
     <use style="stroke:#000000;stroke-width:0.5;" x="221.7259047" xlink:href="#m8185dd89ac" y="65.0383777"/>
     <use style="stroke:#000000;stroke-width:0.5;" x="222.9099807" xlink:href="#m8185dd89ac" y="66.6946657"/>
     <use style="stroke:#000000;stroke-width:0.5;" x="224.0940567" xlink:href="#m8185dd89ac" y="68.9028769"/>
     <use style="stroke:#000000;stroke-width:0.5;" x="225.2781327" xlink:href="#m8185dd89ac" y="70.5591649"/>
     <use style="stroke:#000000;stroke-width:0.5;" x="226.4622087" xlink:href="#m8185dd89ac" y="72.7675489"/>
     <use style="stroke:#000000;stroke-width:0.5;" x="227.6462847" xlink:href="#m8185dd89ac" y="74.4236641"/>
     <use style="stroke:#000000;stroke-width:0.5;" x="228.8303607" xlink:href="#m8185dd89ac" y="76.6320481"/>
     <use style="stroke:#000000;stroke-width:0.5;" x="230.0144367" xlink:href="#m8185dd89ac" y="78.2883361"/>
     <use style="stroke:#000000;stroke-width:0.5;" x="231.1985127" xlink:href="#m8185dd89ac" y="80.4965473"/>
     <use style="stroke:#000000;stroke-width:0.5;" x="232.3825887" xlink:href="#m8185dd89ac" y="82.1528353"/>
     <use style="stroke:#000000;stroke-width:0.5;" x="232.9747383" xlink:href="#m8185dd89ac" y="84.3610465"/>
     <use style="stroke:#000000;stroke-width:0.5;" x="234.1588143" xlink:href="#m8185dd89ac" y="86.5694305"/>
     <use style="stroke:#000000;stroke-width:0.5;" x="235.3428903" xlink:href="#m8185dd89ac" y="88.2257185"/>
     <use style="stroke:#000000;stroke-width:0.5;" x="236.5269663" xlink:href="#m8185dd89ac" y="90.4339297"/>
     <use style="stroke:#000000;stroke-width:0.5;" x="237.7110423" xlink:href="#m8185dd89ac" y="92.0902177"/>
     <use style="stroke:#000000;stroke-width:0.5;" x="238.3031919" xlink:href="#m8185dd89ac" y="94.2984289"/>
     <use style="stroke:#000000;stroke-width:0.5;" x="239.4872679" xlink:href="#m8185dd89ac" y="95.9547169"/>
     <use style="stroke:#000000;stroke-width:0.5;" x="240.6713439" xlink:href="#m8185dd89ac" y="98.1631009"/>
     <use style="stroke:#000000;stroke-width:0.5;" x="241.8554199" xlink:href="#m8185dd89ac" y="100.3713121"/>
     <use style="stroke:#000000;stroke-width:0.5;" x="243.0394959" xlink:href="#m8185dd89ac" y="102.0276001"/>
     <use style="stroke:#000000;stroke-width:0.5;" x="243.6314223" xlink:href="#m8185dd89ac" y="104.2358113"/>
     <use style="stroke:#000000;stroke-width:0.5;" x="244.8154983" xlink:href="#m8185dd89ac" y="105.8920993"/>
     <use style="stroke:#000000;stroke-width:0.5;" x="245.9995743" xlink:href="#m8185dd89ac" y="108.1004833"/>
     <use style="stroke:#000000;stroke-width:0.5;" x="247.1836503" xlink:href="#m8185dd89ac" y="109.7565985"/>
     <use style="stroke:#000000;stroke-width:0.5;" x="248.3677263" xlink:href="#m8185dd89ac" y="111.9649825"/>
     <use style="stroke:#000000;stroke-width:0.5;" x="248.9598759" xlink:href="#m8185dd89ac" y="114.1731937"/>
     <use style="stroke:#000000;stroke-width:0.5;" x="250.7361015" xlink:href="#m8185dd89ac" y="115.8294817"/>
     <use style="stroke:#000000;stroke-width:0.5;" x="251.9201775" xlink:href="#m8185dd89ac" y="117.4857697"/>
     <use style="stroke:#000000;stroke-width:0.5;" x="253.1042535" xlink:href="#m8185dd89ac" y="119.1418849"/>
     <use style="stroke:#000000;stroke-width:0.5;" x="254.8802559" xlink:href="#m8185dd89ac" y="120.7981729"/>
     <use style="stroke:#000000;stroke-width:0.5;" x="256.0643319" xlink:href="#m8185dd89ac" y="123.0065569"/>
     <use style="stroke:#000000;stroke-width:0.5;" x="257.8405575" xlink:href="#m8185dd89ac" y="124.6626721"/>
     <use style="stroke:#000000;stroke-width:0.5;" x="259.0246335" xlink:href="#m8185dd89ac" y="126.3189601"/>
     <use style="stroke:#000000;stroke-width:0.5;" x="260.2087095" xlink:href="#m8185dd89ac" y="127.9752481"/>
     <use style="stroke:#000000;stroke-width:0.5;" x="261.9847119" xlink:href="#m8185dd89ac" y="130.1834593"/>
     <use style="stroke:#000000;stroke-width:0.5;" x="263.1687879" xlink:href="#m8185dd89ac" y="131.8397473"/>
    </g>
   </g>
   <g id="line2d_2">
    <path clip-path="url(#p7c9d78d0d1)" d="
M42.3633 136.196
L48.5831 129.605
L51.5059 126.208
L54.2788 122.678
L56.9164 119.01
L60.6714 113.318
L64.2379 107.523
L68.7363 99.765
L72.9888 91.9363
L83.4848 72.0672
L86.8279 66.2529
L90.3365 60.5768
L92.8201 56.8734
L95.4917 53.2598
L98.4384 49.8008
L100.043 48.1639
L101.746 46.6138
L103.552 45.1727
L105.462 43.8642
L107.471 42.7123
L109.566 41.7398
L111.732 40.9672
L113.95 40.4107
L116.195 40.0816
L118.445 39.9851
L120.677 40.1195
L122.875 40.4766
L125.027 41.0414
L127.127 41.7931
L129.18 42.7053
L133.192 44.8853
L139.274 48.5027
L141.399 49.6487
L143.596 50.7021
L145.865 51.6279
L148.203 52.3942
L150.593 52.9733
L153.016 53.3426
L155.448 53.4859
L157.862 53.3941
L160.236 53.0661
L162.55 52.5091
L164.793 51.7388
L166.96 50.7789
L169.057 49.6608
L173.094 47.1051
L179.069 43.1579
L181.12 42.002
L183.221 41
L185.373 40.1899
L187.572 39.6026
L189.803 39.2616
L192.048 39.1818
L194.284 39.3691
L196.488 39.8205
L198.638 40.5249
L200.713 41.4635
L202.7 42.6118
L204.59 43.9411
L206.378 45.4203
L208.069 47.0181
L211.184 50.4527
L214.021 54.0495
L217.961 59.5113
L222.924 66.8529
L226.506 72.5432
L229.968 78.4312
L234.375 86.3893
L240.566 98.1093
L244.806 105.986
L248.332 111.959
L250.855 115.843
L253.464 119.54
L257.437 124.676
L262.903 131.317
L262.903 131.317" style="fill:none;stroke:#e41a1c;stroke-linecap:square;stroke-width:1.2;"/>
   </g>
   <g id="patch_3">
    <path d="
M263.761 184.839
L263.761 12.0391" style="fill:none;stroke:#000000;stroke-linecap:square;stroke-linejoin:miter;"/>
   </g>
   <g id="patch_4">
    <path d="
M40.5609 184.839
L40.5609 12.0391" style="fill:none;stroke:#000000;stroke-linecap:square;stroke-linejoin:miter;"/>
   </g>
   <g id="patch_5">
    <path d="
M40.5609 12.0391
L263.761 12.0391" style="fill:none;stroke:#000000;stroke-linecap:square;stroke-linejoin:miter;"/>
   </g>
   <g id="patch_6">
    <path d="
M40.5609 184.839
L263.761 184.839" style="fill:none;stroke:#000000;stroke-linecap:square;stroke-linejoin:miter;"/>
   </g>
   <g id="matplotlib.axis_1">
    <g id="xtick_1">
     <g id="line2d_3">
      <defs>
       <path d="
M0 0
L0 -4" id="mc7db9fdffb" style="stroke:#000000;stroke-width:0.5;"/>
      </defs>
      <g>
       <use style="stroke:#000000;stroke-width:0.5;" x="62.8809375" xlink:href="#mc7db9fdffb" y="184.8390625"/>
      </g>
     </g>
     <g id="line2d_4">
      <defs>
       <path d="
M0 0
L0 4" id="m5a7d422ac3" style="stroke:#000000;stroke-width:0.5;"/>
      </defs>
      <g>
       <use style="stroke:#000000;stroke-width:0.5;" x="62.8809375" xlink:href="#m5a7d422ac3" y="12.0390625"/>
      </g>
     </g>
     <g id="text_1">
      <!-- −0.4 -->
      <defs>
       <path d="
M10.6875 12.4062
L21 12.4062
L21 0
L10.6875 0
z
" id="BitstreamVeraSans-Roman-2e"/>
       <path d="
M37.7969 64.3125
L12.8906 25.3906
L37.7969 25.3906
z

M35.2031 72.9062
L47.6094 72.9062
L47.6094 25.3906
L58.0156 25.3906
L58.0156 17.1875
L47.6094 17.1875
L47.6094 0
L37.7969 0
L37.7969 17.1875
L4.89062 17.1875
L4.89062 26.7031
z
" id="BitstreamVeraSans-Roman-34"/>
       <path d="
M10.5938 35.5
L73.1875 35.5
L73.1875 27.2031
L10.5938 27.2031
z
" id="BitstreamVeraSans-Roman-2212"/>
       <path d="
M31.7812 66.4062
Q24.1719 66.4062 20.3281 58.9062
Q16.5 51.4219 16.5 36.375
Q16.5 21.3906 20.3281 13.8906
Q24.1719 6.39062 31.7812 6.39062
Q39.4531 6.39062 43.2812 13.8906
Q47.125 21.3906 47.125 36.375
Q47.125 51.4219 43.2812 58.9062
Q39.4531 66.4062 31.7812 66.4062
M31.7812 74.2188
Q44.0469 74.2188 50.5156 64.5156
Q56.9844 54.8281 56.9844 36.375
Q56.9844 17.9688 50.5156 8.26562
Q44.0469 -1.42188 31.7812 -1.42188
Q19.5312 -1.42188 13.0625 8.26562
Q6.59375 17.9688 6.59375 36.375
Q6.59375 54.8281 13.0625 64.5156
Q19.5312 74.2188 31.7812 74.2188" id="BitstreamVeraSans-Roman-30"/>
      </defs>
      <g transform="translate(51.5496875 196.4375)scale(0.1 -0.1)">
       <use xlink:href="#BitstreamVeraSans-Roman-2212"/>
       <use x="83.7890625" xlink:href="#BitstreamVeraSans-Roman-30"/>
       <use x="147.412109375" xlink:href="#BitstreamVeraSans-Roman-2e"/>
       <use x="179.19921875" xlink:href="#BitstreamVeraSans-Roman-34"/>
      </g>
     </g>
    </g>
    <g id="xtick_2">
     <g id="line2d_5">
      <g>
       <use style="stroke:#000000;stroke-width:0.5;" x="107.5209375" xlink:href="#mc7db9fdffb" y="184.8390625"/>
      </g>
     </g>
     <g id="line2d_6">
      <g>
       <use style="stroke:#000000;stroke-width:0.5;" x="107.5209375" xlink:href="#m5a7d422ac3" y="12.0390625"/>
      </g>
     </g>
     <g id="text_2">
      <!-- −0.2 -->
      <defs>
       <path d="
M19.1875 8.29688
L53.6094 8.29688
L53.6094 0
L7.32812 0
L7.32812 8.29688
Q12.9375 14.1094 22.625 23.8906
Q32.3281 33.6875 34.8125 36.5312
Q39.5469 41.8438 41.4219 45.5312
Q43.3125 49.2188 43.3125 52.7812
Q43.3125 58.5938 39.2344 62.25
Q35.1562 65.9219 28.6094 65.9219
Q23.9688 65.9219 18.8125 64.3125
Q13.6719 62.7031 7.8125 59.4219
L7.8125 69.3906
Q13.7656 71.7812 18.9375 73
Q24.125 74.2188 28.4219 74.2188
Q39.75 74.2188 46.4844 68.5469
Q53.2188 62.8906 53.2188 53.4219
Q53.2188 48.9219 51.5312 44.8906
Q49.8594 40.875 45.4062 35.4062
Q44.1875 33.9844 37.6406 27.2188
Q31.1094 20.4531 19.1875 8.29688" id="BitstreamVeraSans-Roman-32"/>
      </defs>
      <g transform="translate(96.41 196.4375)scale(0.1 -0.1)">
       <use xlink:href="#BitstreamVeraSans-Roman-2212"/>
       <use x="83.7890625" xlink:href="#BitstreamVeraSans-Roman-30"/>
       <use x="147.412109375" xlink:href="#BitstreamVeraSans-Roman-2e"/>
       <use x="179.19921875" xlink:href="#BitstreamVeraSans-Roman-32"/>
      </g>
     </g>
    </g>
    <g id="xtick_3">
     <g id="line2d_7">
      <g>
       <use style="stroke:#000000;stroke-width:0.5;" x="152.1609375" xlink:href="#mc7db9fdffb" y="184.8390625"/>
      </g>
     </g>
     <g id="line2d_8">
      <g>
       <use style="stroke:#000000;stroke-width:0.5;" x="152.1609375" xlink:href="#m5a7d422ac3" y="12.0390625"/>
      </g>
     </g>
     <g id="text_3">
      <!-- 0.0 -->
      <g transform="translate(144.87109375 196.4375)scale(0.1 -0.1)">
       <use xlink:href="#BitstreamVeraSans-Roman-30"/>
       <use x="63.623046875" xlink:href="#BitstreamVeraSans-Roman-2e"/>
       <use x="95.41015625" xlink:href="#BitstreamVeraSans-Roman-30"/>
      </g>
     </g>
    </g>
    <g id="xtick_4">
     <g id="line2d_9">
      <g>
       <use style="stroke:#000000;stroke-width:0.5;" x="196.8009375" xlink:href="#mc7db9fdffb" y="184.8390625"/>
      </g>
     </g>
     <g id="line2d_10">
      <g>
       <use style="stroke:#000000;stroke-width:0.5;" x="196.8009375" xlink:href="#m5a7d422ac3" y="12.0390625"/>
      </g>
     </g>
     <g id="text_4">
      <!-- 0.2 -->
      <g transform="translate(189.67984375 196.4375)scale(0.1 -0.1)">
       <use xlink:href="#BitstreamVeraSans-Roman-30"/>
       <use x="63.623046875" xlink:href="#BitstreamVeraSans-Roman-2e"/>
       <use x="95.41015625" xlink:href="#BitstreamVeraSans-Roman-32"/>
      </g>
     </g>
    </g>
    <g id="xtick_5">
     <g id="line2d_11">
      <g>
       <use style="stroke:#000000;stroke-width:0.5;" x="241.4409375" xlink:href="#mc7db9fdffb" y="184.8390625"/>
      </g>
     </g>
     <g id="line2d_12">
      <g>
       <use style="stroke:#000000;stroke-width:0.5;" x="241.4409375" xlink:href="#m5a7d422ac3" y="12.0390625"/>
      </g>
     </g>
     <g id="text_5">
      <!-- 0.4 -->
      <g transform="translate(234.09953125 196.4375)scale(0.1 -0.1)">
       <use xlink:href="#BitstreamVeraSans-Roman-30"/>
       <use x="63.623046875" xlink:href="#BitstreamVeraSans-Roman-2e"/>
       <use x="95.41015625" xlink:href="#BitstreamVeraSans-Roman-34"/>
      </g>
     </g>
    </g>
    <g id="text_6">
     <!-- Cell coordinate -->
     <defs>
      <path d="
M48.7812 52.5938
L48.7812 44.1875
Q44.9688 46.2969 41.1406 47.3438
Q37.3125 48.3906 33.4062 48.3906
Q24.6562 48.3906 19.8125 42.8438
Q14.9844 37.3125 14.9844 27.2969
Q14.9844 17.2812 19.8125 11.7344
Q24.6562 6.20312 33.4062 6.20312
Q37.3125 6.20312 41.1406 7.25
Q44.9688 8.29688 48.7812 10.4062
L48.7812 2.09375
Q45.0156 0.34375 40.9844 -0.53125
Q36.9688 -1.42188 32.4219 -1.42188
Q20.0625 -1.42188 12.7812 6.34375
Q5.51562 14.1094 5.51562 27.2969
Q5.51562 40.6719 12.8594 48.3281
Q20.2188 56 33.0156 56
Q37.1562 56 41.1094 55.1406
Q45.0625 54.2969 48.7812 52.5938" id="BitstreamVeraSans-Roman-63"/>
      <path d="
M54.8906 33.0156
L54.8906 0
L45.9062 0
L45.9062 32.7188
Q45.9062 40.4844 42.875 44.3281
Q39.8438 48.1875 33.7969 48.1875
Q26.5156 48.1875 22.3125 43.5469
Q18.1094 38.9219 18.1094 30.9062
L18.1094 0
L9.07812 0
L9.07812 54.6875
L18.1094 54.6875
L18.1094 46.1875
Q21.3438 51.125 25.7031 53.5625
Q30.0781 56 35.7969 56
Q45.2188 56 50.0469 50.1719
Q54.8906 44.3438 54.8906 33.0156" id="BitstreamVeraSans-Roman-6e"/>
      <path d="
M34.2812 27.4844
Q23.3906 27.4844 19.1875 25
Q14.9844 22.5156 14.9844 16.5
Q14.9844 11.7188 18.1406 8.90625
Q21.2969 6.10938 26.7031 6.10938
Q34.1875 6.10938 38.7031 11.4062
Q43.2188 16.7031 43.2188 25.4844
L43.2188 27.4844
z

M52.2031 31.2031
L52.2031 0
L43.2188 0
L43.2188 8.29688
Q40.1406 3.32812 35.5469 0.953125
Q30.9531 -1.42188 24.3125 -1.42188
Q15.9219 -1.42188 10.9531 3.29688
Q6 8.01562 6 15.9219
Q6 25.1406 12.1719 29.8281
Q18.3594 34.5156 30.6094 34.5156
L43.2188 34.5156
L43.2188 35.4062
Q43.2188 41.6094 39.1406 45
Q35.0625 48.3906 27.6875 48.3906
Q23 48.3906 18.5469 47.2656
Q14.1094 46.1406 10.0156 43.8906
L10.0156 52.2031
Q14.9375 54.1094 19.5781 55.0469
Q24.2188 56 28.6094 56
Q40.4844 56 46.3438 49.8438
Q52.2031 43.7031 52.2031 31.2031" id="BitstreamVeraSans-Roman-61"/>
      <path d="
M64.4062 67.2812
L64.4062 56.8906
Q59.4219 61.5312 53.7812 63.8125
Q48.1406 66.1094 41.7969 66.1094
Q29.2969 66.1094 22.6562 58.4688
Q16.0156 50.8281 16.0156 36.375
Q16.0156 21.9688 22.6562 14.3281
Q29.2969 6.6875 41.7969 6.6875
Q48.1406 6.6875 53.7812 8.98438
Q59.4219 11.2812 64.4062 15.9219
L64.4062 5.60938
Q59.2344 2.09375 53.4375 0.328125
Q47.6562 -1.42188 41.2188 -1.42188
Q24.6562 -1.42188 15.125 8.70312
Q5.60938 18.8438 5.60938 36.375
Q5.60938 53.9531 15.125 64.0781
Q24.6562 74.2188 41.2188 74.2188
Q47.75 74.2188 53.5312 72.4844
Q59.3281 70.75 64.4062 67.2812" id="BitstreamVeraSans-Roman-43"/>
      <path d="
M41.1094 46.2969
Q39.5938 47.1719 37.8125 47.5781
Q36.0312 48 33.8906 48
Q26.2656 48 22.1875 43.0469
Q18.1094 38.0938 18.1094 28.8125
L18.1094 0
L9.07812 0
L9.07812 54.6875
L18.1094 54.6875
L18.1094 46.1875
Q20.9531 51.1719 25.4844 53.5781
Q30.0312 56 36.5312 56
Q37.4531 56 38.5781 55.875
Q39.7031 55.7656 41.0625 55.5156
z
" id="BitstreamVeraSans-Roman-72"/>
      <path d="
M30.6094 48.3906
Q23.3906 48.3906 19.1875 42.75
Q14.9844 37.1094 14.9844 27.2969
Q14.9844 17.4844 19.1562 11.8438
Q23.3438 6.20312 30.6094 6.20312
Q37.7969 6.20312 41.9844 11.8594
Q46.1875 17.5312 46.1875 27.2969
Q46.1875 37.0156 41.9844 42.7031
Q37.7969 48.3906 30.6094 48.3906
M30.6094 56
Q42.3281 56 49.0156 48.375
Q55.7188 40.7656 55.7188 27.2969
Q55.7188 13.875 49.0156 6.21875
Q42.3281 -1.42188 30.6094 -1.42188
Q18.8438 -1.42188 12.1719 6.21875
Q5.51562 13.875 5.51562 27.2969
Q5.51562 40.7656 12.1719 48.375
Q18.8438 56 30.6094 56" id="BitstreamVeraSans-Roman-6f"/>
      <path id="BitstreamVeraSans-Roman-20"/>
      <path d="
M9.42188 75.9844
L18.4062 75.9844
L18.4062 0
L9.42188 0
z
" id="BitstreamVeraSans-Roman-6c"/>
      <path d="
M9.42188 54.6875
L18.4062 54.6875
L18.4062 0
L9.42188 0
z

M9.42188 75.9844
L18.4062 75.9844
L18.4062 64.5938
L9.42188 64.5938
z
" id="BitstreamVeraSans-Roman-69"/>
      <path d="
M18.3125 70.2188
L18.3125 54.6875
L36.8125 54.6875
L36.8125 47.7031
L18.3125 47.7031
L18.3125 18.0156
Q18.3125 11.3281 20.1406 9.42188
Q21.9688 7.51562 27.5938 7.51562
L36.8125 7.51562
L36.8125 0
L27.5938 0
Q17.1875 0 13.2344 3.875
Q9.28125 7.76562 9.28125 18.0156
L9.28125 47.7031
L2.6875 47.7031
L2.6875 54.6875
L9.28125 54.6875
L9.28125 70.2188
z
" id="BitstreamVeraSans-Roman-74"/>
      <path d="
M56.2031 29.5938
L56.2031 25.2031
L14.8906 25.2031
Q15.4844 15.9219 20.4844 11.0625
Q25.4844 6.20312 34.4219 6.20312
Q39.5938 6.20312 44.4531 7.46875
Q49.3125 8.73438 54.1094 11.2812
L54.1094 2.78125
Q49.2656 0.734375 44.1875 -0.34375
Q39.1094 -1.42188 33.8906 -1.42188
Q20.7969 -1.42188 13.1562 6.1875
Q5.51562 13.8125 5.51562 26.8125
Q5.51562 40.2344 12.7656 48.1094
Q20.0156 56 32.3281 56
Q43.3594 56 49.7812 48.8906
Q56.2031 41.7969 56.2031 29.5938
M47.2188 32.2344
Q47.125 39.5938 43.0938 43.9844
Q39.0625 48.3906 32.4219 48.3906
Q24.9062 48.3906 20.3906 44.1406
Q15.875 39.8906 15.1875 32.1719
z
" id="BitstreamVeraSans-Roman-65"/>
      <path d="
M45.4062 46.3906
L45.4062 75.9844
L54.3906 75.9844
L54.3906 0
L45.4062 0
L45.4062 8.20312
Q42.5781 3.32812 38.25 0.953125
Q33.9375 -1.42188 27.875 -1.42188
Q17.9688 -1.42188 11.7344 6.48438
Q5.51562 14.4062 5.51562 27.2969
Q5.51562 40.1875 11.7344 48.0938
Q17.9688 56 27.875 56
Q33.9375 56 38.25 53.625
Q42.5781 51.2656 45.4062 46.3906
M14.7969 27.2969
Q14.7969 17.3906 18.875 11.75
Q22.9531 6.10938 30.0781 6.10938
Q37.2031 6.10938 41.2969 11.75
Q45.4062 17.3906 45.4062 27.2969
Q45.4062 37.2031 41.2969 42.8438
Q37.2031 48.4844 30.0781 48.4844
Q22.9531 48.4844 18.875 42.8438
Q14.7969 37.2031 14.7969 27.2969" id="BitstreamVeraSans-Roman-64"/>
     </defs>
     <g transform="translate(114.8234375 211.115625)scale(0.1 -0.1)">
      <use xlink:href="#BitstreamVeraSans-Roman-43"/>
      <use x="69.82421875" xlink:href="#BitstreamVeraSans-Roman-65"/>
      <use x="131.34765625" xlink:href="#BitstreamVeraSans-Roman-6c"/>
      <use x="159.130859375" xlink:href="#BitstreamVeraSans-Roman-6c"/>
      <use x="186.9140625" xlink:href="#BitstreamVeraSans-Roman-20"/>
      <use x="218.701171875" xlink:href="#BitstreamVeraSans-Roman-63"/>
      <use x="273.681640625" xlink:href="#BitstreamVeraSans-Roman-6f"/>
      <use x="334.86328125" xlink:href="#BitstreamVeraSans-Roman-6f"/>
      <use x="396.044921875" xlink:href="#BitstreamVeraSans-Roman-72"/>
      <use x="435.408203125" xlink:href="#BitstreamVeraSans-Roman-64"/>
      <use x="498.884765625" xlink:href="#BitstreamVeraSans-Roman-69"/>
      <use x="526.66796875" xlink:href="#BitstreamVeraSans-Roman-6e"/>
      <use x="590.046875" xlink:href="#BitstreamVeraSans-Roman-61"/>
      <use x="651.326171875" xlink:href="#BitstreamVeraSans-Roman-74"/>
      <use x="690.53515625" xlink:href="#BitstreamVeraSans-Roman-65"/>
     </g>
    </g>
   </g>
   <g id="matplotlib.axis_2">
    <g id="ytick_1">
     <g id="line2d_13">
      <defs>
       <path d="
M0 0
L4 0" id="md7965d1ba0" style="stroke:#000000;stroke-width:0.5;"/>
      </defs>
      <g>
       <use style="stroke:#000000;stroke-width:0.5;" x="40.5609375" xlink:href="#md7965d1ba0" y="184.8390625"/>
      </g>
     </g>
     <g id="line2d_14">
      <defs>
       <path d="
M0 0
L-4 0" id="md9a1c1a7cd" style="stroke:#000000;stroke-width:0.5;"/>
      </defs>
      <g>
       <use style="stroke:#000000;stroke-width:0.5;" x="263.7609375" xlink:href="#md9a1c1a7cd" y="184.8390625"/>
      </g>
     </g>
     <g id="text_7">
      <!-- 0.0 -->
      <g transform="translate(21.98125 187.5984375)scale(0.1 -0.1)">
       <use xlink:href="#BitstreamVeraSans-Roman-30"/>
       <use x="63.623046875" xlink:href="#BitstreamVeraSans-Roman-2e"/>
       <use x="95.41015625" xlink:href="#BitstreamVeraSans-Roman-30"/>
      </g>
     </g>
    </g>
    <g id="ytick_2">
     <g id="line2d_15">
      <g>
       <use style="stroke:#000000;stroke-width:0.5;" x="40.5609375" xlink:href="#md7965d1ba0" y="150.2790625"/>
      </g>
     </g>
     <g id="line2d_16">
      <g>
       <use style="stroke:#000000;stroke-width:0.5;" x="263.7609375" xlink:href="#md9a1c1a7cd" y="150.2790625"/>
      </g>
     </g>
     <g id="text_8">
      <!-- 0.2 -->
      <g transform="translate(22.31875 153.0384375)scale(0.1 -0.1)">
       <use xlink:href="#BitstreamVeraSans-Roman-30"/>
       <use x="63.623046875" xlink:href="#BitstreamVeraSans-Roman-2e"/>
       <use x="95.41015625" xlink:href="#BitstreamVeraSans-Roman-32"/>
      </g>
     </g>
    </g>
    <g id="ytick_3">
     <g id="line2d_17">
      <g>
       <use style="stroke:#000000;stroke-width:0.5;" x="40.5609375" xlink:href="#md7965d1ba0" y="115.7190625"/>
      </g>
     </g>
     <g id="line2d_18">
      <g>
       <use style="stroke:#000000;stroke-width:0.5;" x="263.7609375" xlink:href="#md9a1c1a7cd" y="115.7190625"/>
      </g>
     </g>
     <g id="text_9">
      <!-- 0.4 -->
      <g transform="translate(21.878125 118.4784375)scale(0.1 -0.1)">
       <use xlink:href="#BitstreamVeraSans-Roman-30"/>
       <use x="63.623046875" xlink:href="#BitstreamVeraSans-Roman-2e"/>
       <use x="95.41015625" xlink:href="#BitstreamVeraSans-Roman-34"/>
      </g>
     </g>
    </g>
    <g id="ytick_4">
     <g id="line2d_19">
      <g>
       <use style="stroke:#000000;stroke-width:0.5;" x="40.5609375" xlink:href="#md7965d1ba0" y="81.1590625"/>
      </g>
     </g>
     <g id="line2d_20">
      <g>
       <use style="stroke:#000000;stroke-width:0.5;" x="263.7609375" xlink:href="#md9a1c1a7cd" y="81.1590625"/>
      </g>
     </g>
     <g id="text_10">
      <!-- 0.6 -->
      <defs>
       <path d="
M33.0156 40.375
Q26.375 40.375 22.4844 35.8281
Q18.6094 31.2969 18.6094 23.3906
Q18.6094 15.5312 22.4844 10.9531
Q26.375 6.39062 33.0156 6.39062
Q39.6562 6.39062 43.5312 10.9531
Q47.4062 15.5312 47.4062 23.3906
Q47.4062 31.2969 43.5312 35.8281
Q39.6562 40.375 33.0156 40.375
M52.5938 71.2969
L52.5938 62.3125
Q48.875 64.0625 45.0938 64.9844
Q41.3125 65.9219 37.5938 65.9219
Q27.8281 65.9219 22.6719 59.3281
Q17.5312 52.7344 16.7969 39.4062
Q19.6719 43.6562 24.0156 45.9219
Q28.375 48.1875 33.5938 48.1875
Q44.5781 48.1875 50.9531 41.5156
Q57.3281 34.8594 57.3281 23.3906
Q57.3281 12.1562 50.6875 5.35938
Q44.0469 -1.42188 33.0156 -1.42188
Q20.3594 -1.42188 13.6719 8.26562
Q6.98438 17.9688 6.98438 36.375
Q6.98438 53.6562 15.1875 63.9375
Q23.3906 74.2188 37.2031 74.2188
Q40.9219 74.2188 44.7031 73.4844
Q48.4844 72.75 52.5938 71.2969" id="BitstreamVeraSans-Roman-36"/>
      </defs>
      <g transform="translate(21.946875 83.9184375)scale(0.1 -0.1)">
       <use xlink:href="#BitstreamVeraSans-Roman-30"/>
       <use x="63.623046875" xlink:href="#BitstreamVeraSans-Roman-2e"/>
       <use x="95.41015625" xlink:href="#BitstreamVeraSans-Roman-36"/>
      </g>
     </g>
    </g>
    <g id="ytick_5">
     <g id="line2d_21">
      <g>
       <use style="stroke:#000000;stroke-width:0.5;" x="40.5609375" xlink:href="#md7965d1ba0" y="46.5990625"/>
      </g>
     </g>
     <g id="line2d_22">
      <g>
       <use style="stroke:#000000;stroke-width:0.5;" x="263.7609375" xlink:href="#md9a1c1a7cd" y="46.5990625"/>
      </g>
     </g>
     <g id="text_11">
      <!-- 0.8 -->
      <defs>
       <path d="
M31.7812 34.625
Q24.75 34.625 20.7188 30.8594
Q16.7031 27.0938 16.7031 20.5156
Q16.7031 13.9219 20.7188 10.1562
Q24.75 6.39062 31.7812 6.39062
Q38.8125 6.39062 42.8594 10.1719
Q46.9219 13.9688 46.9219 20.5156
Q46.9219 27.0938 42.8906 30.8594
Q38.875 34.625 31.7812 34.625
M21.9219 38.8125
Q15.5781 40.375 12.0312 44.7188
Q8.5 49.0781 8.5 55.3281
Q8.5 64.0625 14.7188 69.1406
Q20.9531 74.2188 31.7812 74.2188
Q42.6719 74.2188 48.875 69.1406
Q55.0781 64.0625 55.0781 55.3281
Q55.0781 49.0781 51.5312 44.7188
Q48 40.375 41.7031 38.8125
Q48.8281 37.1562 52.7969 32.3125
Q56.7812 27.4844 56.7812 20.5156
Q56.7812 9.90625 50.3125 4.23438
Q43.8438 -1.42188 31.7812 -1.42188
Q19.7344 -1.42188 13.25 4.23438
Q6.78125 9.90625 6.78125 20.5156
Q6.78125 27.4844 10.7812 32.3125
Q14.7969 37.1562 21.9219 38.8125
M18.3125 54.3906
Q18.3125 48.7344 21.8438 45.5625
Q25.3906 42.3906 31.7812 42.3906
Q38.1406 42.3906 41.7188 45.5625
Q45.3125 48.7344 45.3125 54.3906
Q45.3125 60.0625 41.7188 63.2344
Q38.1406 66.4062 31.7812 66.4062
Q25.3906 66.4062 21.8438 63.2344
Q18.3125 60.0625 18.3125 54.3906" id="BitstreamVeraSans-Roman-38"/>
      </defs>
      <g transform="translate(22.0015625 49.3584375)scale(0.1 -0.1)">
       <use xlink:href="#BitstreamVeraSans-Roman-30"/>
       <use x="63.623046875" xlink:href="#BitstreamVeraSans-Roman-2e"/>
       <use x="95.41015625" xlink:href="#BitstreamVeraSans-Roman-38"/>
      </g>
     </g>
    </g>
    <g id="ytick_6">
     <g id="line2d_23">
      <g>
       <use style="stroke:#000000;stroke-width:0.5;" x="40.5609375" xlink:href="#md7965d1ba0" y="12.0390625"/>
      </g>
     </g>
     <g id="line2d_24">
      <g>
       <use style="stroke:#000000;stroke-width:0.5;" x="263.7609375" xlink:href="#md9a1c1a7cd" y="12.0390625"/>
      </g>
     </g>
     <g id="text_12">
      <!-- 1.0 -->
      <defs>
       <path d="
M12.4062 8.29688
L28.5156 8.29688
L28.5156 63.9219
L10.9844 60.4062
L10.9844 69.3906
L28.4219 72.9062
L38.2812 72.9062
L38.2812 8.29688
L54.3906 8.29688
L54.3906 0
L12.4062 0
z
" id="BitstreamVeraSans-Roman-31"/>
      </defs>
      <g transform="translate(22.4203125 14.7984375)scale(0.1 -0.1)">
       <use xlink:href="#BitstreamVeraSans-Roman-31"/>
       <use x="63.623046875" xlink:href="#BitstreamVeraSans-Roman-2e"/>
       <use x="95.41015625" xlink:href="#BitstreamVeraSans-Roman-30"/>
      </g>
     </g>
    </g>
    <g id="text_13">
     <!-- Nucleoid density -->
     <defs>
      <path d="
M44.2812 53.0781
L44.2812 44.5781
Q40.4844 46.5312 36.375 47.5
Q32.2812 48.4844 27.875 48.4844
Q21.1875 48.4844 17.8438 46.4375
Q14.5 44.3906 14.5 40.2812
Q14.5 37.1562 16.8906 35.375
Q19.2812 33.5938 26.5156 31.9844
L29.5938 31.2969
Q39.1562 29.25 43.1875 25.5156
Q47.2188 21.7812 47.2188 15.0938
Q47.2188 7.46875 41.1875 3.01562
Q35.1562 -1.42188 24.6094 -1.42188
Q20.2188 -1.42188 15.4531 -0.5625
Q10.6875 0.296875 5.42188 2
L5.42188 11.2812
Q10.4062 8.6875 15.2344 7.39062
Q20.0625 6.10938 24.8125 6.10938
Q31.1562 6.10938 34.5625 8.28125
Q37.9844 10.4531 37.9844 14.4062
Q37.9844 18.0625 35.5156 20.0156
Q33.0625 21.9688 24.7031 23.7812
L21.5781 24.5156
Q13.2344 26.2656 9.51562 29.9062
Q5.8125 33.5469 5.8125 39.8906
Q5.8125 47.6094 11.2812 51.7969
Q16.75 56 26.8125 56
Q31.7812 56 36.1719 55.2656
Q40.5781 54.5469 44.2812 53.0781" id="BitstreamVeraSans-Roman-73"/>
      <path d="
M32.1719 -5.07812
Q28.375 -14.8438 24.75 -17.8125
Q21.1406 -20.7969 15.0938 -20.7969
L7.90625 -20.7969
L7.90625 -13.2812
L13.1875 -13.2812
Q16.8906 -13.2812 18.9375 -11.5156
Q21 -9.76562 23.4844 -3.21875
L25.0938 0.875
L2.98438 54.6875
L12.5 54.6875
L29.5938 11.9219
L46.6875 54.6875
L56.2031 54.6875
z
" id="BitstreamVeraSans-Roman-79"/>
      <path d="
M8.5 21.5781
L8.5 54.6875
L17.4844 54.6875
L17.4844 21.9219
Q17.4844 14.1562 20.5 10.2656
Q23.5312 6.39062 29.5938 6.39062
Q36.8594 6.39062 41.0781 11.0312
Q45.3125 15.6719 45.3125 23.6875
L45.3125 54.6875
L54.2969 54.6875
L54.2969 0
L45.3125 0
L45.3125 8.40625
Q42.0469 3.42188 37.7188 1
Q33.4062 -1.42188 27.6875 -1.42188
Q18.2656 -1.42188 13.375 4.4375
Q8.5 10.2969 8.5 21.5781" id="BitstreamVeraSans-Roman-75"/>
      <path d="
M9.8125 72.9062
L23.0938 72.9062
L55.4219 11.9219
L55.4219 72.9062
L64.9844 72.9062
L64.9844 0
L51.7031 0
L19.3906 60.9844
L19.3906 0
L9.8125 0
z
" id="BitstreamVeraSans-Roman-4e"/>
     </defs>
     <g transform="translate(14.7984375 139.95859375)rotate(-90.0)scale(0.1 -0.1)">
      <use xlink:href="#BitstreamVeraSans-Roman-4e"/>
      <use x="74.8046875" xlink:href="#BitstreamVeraSans-Roman-75"/>
      <use x="138.18359375" xlink:href="#BitstreamVeraSans-Roman-63"/>
      <use x="193.1640625" xlink:href="#BitstreamVeraSans-Roman-6c"/>
      <use x="220.947265625" xlink:href="#BitstreamVeraSans-Roman-65"/>
      <use x="282.470703125" xlink:href="#BitstreamVeraSans-Roman-6f"/>
      <use x="343.65234375" xlink:href="#BitstreamVeraSans-Roman-69"/>
      <use x="371.435546875" xlink:href="#BitstreamVeraSans-Roman-64"/>
      <use x="434.912109375" xlink:href="#BitstreamVeraSans-Roman-20"/>
      <use x="466.69921875" xlink:href="#BitstreamVeraSans-Roman-64"/>
      <use x="530.17578125" xlink:href="#BitstreamVeraSans-Roman-65"/>
      <use x="591.69921875" xlink:href="#BitstreamVeraSans-Roman-6e"/>
      <use x="655.078125" xlink:href="#BitstreamVeraSans-Roman-73"/>
      <use x="707.177734375" xlink:href="#BitstreamVeraSans-Roman-69"/>
      <use x="734.9609375" xlink:href="#BitstreamVeraSans-Roman-74"/>
      <use x="774.169921875" xlink:href="#BitstreamVeraSans-Roman-79"/>
     </g>
    </g>
   </g>
  </g>
 </g>
 <defs>
  <clipPath id="p7c9d78d0d1">
   <rect height="172.8" width="223.2" x="40.5609375" y="12.0390625"/>
  </clipPath>
 </defs>
</svg>
