<?xml version="1.0" encoding="UTF-8" standalone="no"?>
<!-- Created with matplotlib (http://matplotlib.org/) -->

<svg
   xmlns:dc="http://purl.org/dc/elements/1.1/"
   xmlns:cc="http://creativecommons.org/ns#"
   xmlns:rdf="http://www.w3.org/1999/02/22-rdf-syntax-ns#"
   xmlns:svg="http://www.w3.org/2000/svg"
   xmlns="http://www.w3.org/2000/svg"
   xmlns:sodipodi="http://sodipodi.sourceforge.net/DTD/sodipodi-0.dtd"
   xmlns:inkscape="http://www.inkscape.org/namespaces/inkscape"
   height="133.15446pt"
   version="1.1"
   viewBox="0 0 439.64249 133.15446"
   width="439.64249pt"
   id="svg2"
   inkscape:version="0.91 r13725"
   sodipodi:docname="SCforces-cellshape.svg">
  <metadata
     id="metadata32">
    <rdf:RDF>
      <cc:Work
         rdf:about="">
        <dc:format>image/svg+xml</dc:format>
        <dc:type
           rdf:resource="http://purl.org/dc/dcmitype/StillImage" />
        <dc:title></dc:title>
      </cc:Work>
    </rdf:RDF>
  </metadata>
  <sodipodi:namedview
     pagecolor="#ffffff"
     bordercolor="#666666"
     borderopacity="1"
     objecttolerance="10"
     gridtolerance="10"
     guidetolerance="10"
     inkscape:pageopacity="0"
     inkscape:pageshadow="2"
     inkscape:window-width="2560"
     inkscape:window-height="1481"
     id="namedview30"
     showgrid="false"
     fit-margin-top="0"
     fit-margin-left="0"
     fit-margin-right="0"
     fit-margin-bottom="0"
     inkscape:zoom="1.1726708"
     inkscape:cx="259.52613"
     inkscape:cy="75.2075"
     inkscape:window-x="0"
     inkscape:window-y="55"
     inkscape:window-maximized="1"
     inkscape:current-layer="svg2" />
  <defs
     id="defs4"
     style="stroke-linecap:butt;stroke-linejoin:round">
    <style
       type="text/css"
       id="style6">
*{stroke-linecap:butt;stroke-linejoin:round;}
  </style>
  </defs>
  <g
     style="stroke-linecap:butt;stroke-linejoin:round"
     id="axes_1"
     transform="translate(-37.2435,-7.5115336)">
    <g
       style="stroke-linecap:butt;stroke-linejoin:round"
       id="line2d_1">
      <path
         inkscape:connector-curvature="0"
         id="path14"
         style="fill:none;stroke:#000000;stroke-width:2;stroke-linecap:square;stroke-linejoin:round"
         d="m 410.308,8.51156 -307.524,0.00813 -2.064,0.06504 -4.1171,0.32484 -4.0886,0.58338 -4.0438,0.83955 -3.983,1.0925 -3.9062,1.341 -3.8141,1.5843 -3.7068,1.8212 -3.5848,2.0509 -3.4486,2.2725 -3.2988,2.4851 -3.1357,2.6878 -2.9603,2.8798 -2.7732,3.0605 -2.5751,3.229 -2.3666,3.3847 -2.1489,3.527 -1.9227,3.6552 -1.6887,3.769 -1.4482,3.8678 -1.2018,3.9513 -0.9507,4.0191 -0.6958,4.071 -0.4382,4.1067 -0.1788,4.1262 0.0813,4.1292 0.3411,4.116 0.5995,4.0863 0.8555,4.0404 1.1081,3.9786 1.3564,3.9009 1.5992,3.8075 1.8358,3.7 2.065,3.577 2.2861,3.439 2.4981,3.289 2.7001,3.125 2.8915,2.949 3.0714,2.761 3.2391,2.563 3.3939,2.353 3.5354,2.135 3.6628,1.908 3.7756,1.674 3.8735,1.433 3.956,1.186 4.0228,0.935 4.0737,0.68 4.1084,0.422 4.1272,0.163 310.62,-0.098 4.114,-0.357 4.084,-0.616 4.037,-0.871 3.974,-1.124 3.896,-1.372 3.801,-1.614 3.693,-1.85 3.568,-2.079 3.431,-2.3 3.279,-2.511 3.114,-2.712 2.938,-2.903 2.749,-3.083 2.549,-3.249 2.34,-3.403 2.122,-3.544 1.893,-3.67 1.659,-3.7822 1.418,-3.8791 1.171,-3.9606 0.919,-4.0265 0.663,-4.0764 0.406,-4.11 0.147,-4.1274 -0.114,-4.1285 -0.374,-4.1131 -0.631,-4.0815 -0.888,-4.0336 -1.139,-3.9697 -1.387,-3.8902 -1.629,-3.7951 -1.865,-3.685 -2.093,-3.5604 -2.313,-3.4215 -2.524,-3.2691 -2.725,-3.1038 -2.914,-2.9261 -3.094,-2.7369 -3.259,-2.5367 -3.412,-2.3265 -3.552,-2.1071 -3.678,-1.8794 -3.789,-1.6441 -3.884,-1.4023 -3.965,-1.1551 -4.03,-0.90316 -4.079,-0.64769 -4.112,-0.38964 -4.128,-0.13005 0,0"
         clip-path="url(#pb0f9773547)" />
    </g>
    <g
       style="stroke-linecap:butt;stroke-linejoin:round"
       id="line2d_2">
      <path
         inkscape:connector-curvature="0"
         id="path17"
         style="fill:none;stroke:#e41a1c;stroke-linecap:square;stroke-linejoin:round"
         d="m 130.021,45.1359 36.154,-19.6334 3.773,3.1825 31.488,40.299 -11.471,19.5899 -23.157,11.0813 -34.037,-28.3618 -31.831,-46.2312 39.095,5.7084 39.382,-1.6006 46.254,21.2404 -51.337,13.3376 38.688,-3.5479 29.991,9.4098 30.887,40.2221 14.758,21.561 -13.889,-19.574 -6.073,-41.0342 -19.09,19.3291 11.055,3.8456 -24.031,-9.5943 5.116,-49.851 26.415,16.5918 34.961,-21.0871 41.537,2.8282 -19.996,23.4334 29.436,3.3266 -28.64,-23.8829 -56.523,31.2642 -22.164,-17.3988 -37.839,-12.1754 1.023,1.8918 -32.039,-4.9393 12.777,15.1 20.431,-11.1842 30.271,-15.7089 -16.279,24.7435 5.572,7.1243 -15.163,0.0102 37.259,54.3684 16.338,-8.221 25.991,14.012 -18.383,-20.1778 5.665,31.6388 47.768,-2.67 38.111,-1.105 32.615,-17.594 -28.663,-37.972 16.814,-0.8562 -23.802,29.8636 8.445,15.9356 -37.447,13.69 21.943,-13.054 2.246,10.814 -22.093,-6.225 4.722,-48.8417 10.777,26.9232 15.81,11.3015 13.793,-45.7977 -18.454,20.5755 -32.448,41.2832 -5.817,-28.7897 28.296,2.5636 -24.911,20.1241 -18.765,-56.7725 -17.884,10.9155 -5.754,61.364 -79.412,-9.088 57.927,6.69 15.369,-28.335 7.207,-31.3209 -71.234,24.5334 22.753,-36.1024 -11.908,-37.9474 -45.538,36.5852 -57.263,-13.4036 54.706,27.4679 12.246,-13.9241 -3.047,-19.8181 -23.122,7.3749 14.617,-3.4149 16.589,29.0449 -4.206,-32.9133 0.509,43.6683 -2.133,-30.1137 32.821,-0.9906 -3.06,45.6668 -55.044,4.4588 -7.954,-13.6204 -7.376,23.6472 8.176,-32.7978 9.828,-7.4227 23.412,-25.0352 3.307,-16.7734 1.604,-6.9295 -14.883,-6.3782 -14.856,6.8749 10.562,-2.6754 0,0 0,0 -21.464,5.4072 -0.423,43.5065 38.638,-6.596 24.113,-17.7621 0.887,1.1842 40.658,13.2215 -26.444,20.8508 -15.448,23.8862 -37.683,-67.3458 -8.44,-0.8104 13.454,2.2866 -65.406,17.333 -27.345,-11.9584 21.194,21.7516 2.531,30.9126 32.657,-22.4095 6.972,-39.5606 -4.663,-13.6322 -37.256,2.4466 -14.003,42.776 5.474,13.7549 6.144,-22.2093 0.043,50.3649 -32.4143,-26.8356 5.9668,-24.9543 50.9275,6.255 -1.376,33.6061 5.453,4.9736 53.948,31.0172 -89.434,-7.872 0.785,2.042 28.003,-88.5043 11.782,-17.2018 -14.629,17.1787 80.87,9.801 19.238,-5.2788 5.051,32.912 16.161,4.316 -56.549,41.6702 13.841,-34.5531 10.709,12.5115 13.111,-1.963 -36.909,-10.1444 47.071,-24.5681 -42.657,-24.485 -12.593,-6.1468 -50.637,46.3622 -4.185,19.7232 37.488,29.9735 20.805,-4.29 -37.349,12.378 56.017,-2.846 30.549,-22.518 -5.145,-17.0871 5.023,-8.2774 -42.088,-23.0892 30.77,-3.36 11.388,11.5813 -36.608,-26.9282 13.105,36.4319 -0.298,-52.9772 -34.137,14.3507 -27.774,62.1612 21.566,-6.3319 13.206,-4.0818 -47.98,1.0369 -20.524,-32.8115 -21.864,10.5759 11.994,1.9509 17.579,41.7415 -5.541,-51.4704 -14.784,-44.4347 14.471,14.4897 7.912,-1.733 85.468,-5.1691 19.936,10.6306 -62.702,4.2718 -16.121,-8.6718 -50.472,23.6044 -37.0106,41.6493 12.0272,-51.5664 -5.7254,0.1767 0.0015,-22.4479 -18.4516,65.6811 10.8667,-13.0705 33.5842,7.3471 21.219,-28.019 -30.8042,-37.2568 3.8153,24.1244 8.4279,5.0421 7.247,42.464 -37.4595,-7.1142 14.7892,19.4126 16.7363,3.307 6.663,-2.39 47.626,-29.7689 -10.049,-40.7479 -33.34,-5.6549 -15.881,29.942 8.854,-29.7437 12.556,-13.8567 62.873,34.0558 -21.156,-27.2671 17.898,14.444 32.134,60.1841 -24.391,8.2643 -4.013,-52.2697 45.695,-28.8467 -58.141,48.22 65.438,-29.9504 -6.924,6.0998 4.713,4.1998 20.081,-12.7376 -20.157,19.7802 -3.387,-19.2401 -50.451,-6.722 7.595,29.1268 -5.08,-5.0615 -9.998,55.2774 29.615,-15.8344 38.75,-1.9001 21.815,-41.3774 62.21,-10.8503 -8.315,11.3271 -6.578,19.7624 -8.511,18.1122 -35.29,-8.7351 31.69,16.3406 31.851,-17.244 -16.127,-27.505 23.227,-14.2803 -10.237,23.3192 -16.439,30.0197 37.517,-41.3548 -31.189,-11.9629 16.407,3.7913 -3.219,74.4938 5.184,-1.265 25.993,-57.2559 -3.847,-8.1679 59.426,51.4048 12.79,23.798 -25.706,-57.6578 -30.543,18.3858 -60.687,-0.5204 -38.11,-25.0321 -21.778,56.3945 -69.684,-23.1265 3.824,-33.5618 -23.176,0.2849 -0.145,31.4613 -15.659,-5.9317 -34.679,4.2757 -7.831,-14.5699 44.204,18.1076 52.042,-21.5035 4.626,21.4937 -21.834,6.9012 -34.076,-26.3183 -26.709,17.3237 -24.416,-4.4249 -0.397,42.2345 6.428,-22.264 L 97.1318,89.6135 101.363,73.7147 102.617,31.5402 113.306,55.2575 93.0206,123.374 103.378,97.5097 114.4,97.1854 128.34,88.5148 66.236,75.4672 51.074,65.9275 62.6705,88.0695 76.3243,48.5191 55.8752,62.1094 112.632,39.5934 43.7948,72.7062 l 53.0853,-1.2151 -1.177,29.6019 4.7759,2.522 -1.7337,-1.593 L 128.386,95.5938 115.848,122.612 93.0659,80.4872 129.214,111.39 111.935,102.58 105.262,95.4718 99.0608,104.473 84.462,97.6521 61.6298,45.8714 78.5628,77.4531 80.3796,67.7885 134.857,56.5616 104.69,89.4227 74.5655,70.446 l 10.8472,1.1114 -2.685,-42.5906 3.0765,-5.4097 50.9458,61.4756 -1.424,39.0763 23.645,-60.0854 32.855,-14.7009 -38.846,52.2263 24.957,-12.4632 -82.1742,5.6905 -4.8022,12.7717 -16.0329,6.69 54.3393,7.309 -21.382,-25.516 6.666,19.491 20.394,-1.141 -34.003,-45.158 -8.6747,58.815 -20.5311,-13.021 1.828,-33.3754 -17.6326,-3.9961 2.487,-2.224 26.9047,-38.0009 21.3757,-14.5532 -24.9665,6.893 23.3665,8.2781 23.238,-14.4411 -11.666,15.1247 13.065,11.4699 45.082,19.1409 -4.299,-20.8624 5.269,21.6898 -49.011,32.5317 22.105,20.244 -6.235,-12.672 -11.765,-45.7009 4.136,-14.5102 -37.0848,15.6394 -6.2353,2.7526 9.9051,-23.3914 24.97,12.558 -35.128,8.8111 -0.363,48.7344 -10.398,-32.2518 17.9838,-8.8782 5.5062,31.387 -30.569,4.815 4.442,-20.844 6.8562,28.081 -10.1404,0.809 30.7362,-32.3153 1.034,-3.2308 L 88.0794,72.5195 110.605,57.6323 156.464,87.5375 150.384,115.834 88.8447,83.5292 77.804,33.4658 71.5927,23.9639 101.405,28.0875 62.997,36.2734 79.1301,51.9812 108.867,75.0196 80.4756,73.5915 78.7902,50.6749 l 40.0568,-6.1376 27.863,-0.8667 33.796,56.7564 12.56,7.112 46.356,-64.8706 28.852,28.906 -20.454,31.5086 -4.032,-8.7069 -33.511,-45.7934 29.628,-6.5848 -52.578,40.797 25.637,-12.3651 -16.412,5.2068 -38.316,28.0664 -52.765,6.845 20.491,-33.4491 -26.4123,-20.2776 5.3103,29.5147 17.568,24.085 -15.939,-18.1889 -25.0576,4.8984 22.2006,-10.5119 1.913,5.583 -13.4108,-25.1337 0.4452,-25.2757 -17.6309,-6.1185 31.4785,11.3873 26.381,-0.3423 -30.273,-22.9611 21.761,18.2527 -17.397,-20.8806 5.35,43.3602 -26.577,-3.5241 -6.5806,17.2611 5.8112,-17.7133 -9.623,-1.9006 41.8884,6.9711 -28.1009,9.5464 -11.0854,25.7855 -10.9486,-2.9812 5.6735,-13.1194 -2.3943,8.8764 11.3535,12.1602 -10.0213,5.574 -4.6081,10.067 40.1856,-0.201 6.385,-53.6193 5.626,12.6754 20.055,-29.6475 21.334,0.6256 8.63,-0.6492 47.671,9.3145 -6.598,-3.4122 5.272,-7.9188 -32.089,-17.0706 -31.857,17.4109 -23.877,16.1574 8.349,-19.6928 28.947,-20.192 -16.095,5.4164 20.983,52.8366 -12.005,-29.4249 -43.463,-3.1034 2.33,3.7977 -19.1112,-38.7038 -7.3034,13.8923 -33.1235,70.0917 1.77,6.47 4.6674,-44.0491 32.7313,-2.5148 13.5144,-0.1705 2.748,2.8429 -29.6882,51.2425 -4.1631,6.876 -1.4762,-15.368 24.0095,23.305 10.74,-1.342 2.58,-7.852 28.245,-1.053 -33.347,-5.937 -0.059,10.327 -30.3537,-2.351 33.8647,7.951 6.468,-41.803 -26.2733,10.0249 11.6493,19.9551 51.66,-51.887 5.764,-7.8356 -64.243,6.4739 14.775,-1.4679 -14.192,-12.2973 -13.452,6.1502 -27.443,21.3718 9.9837,-28.7009 47.4043,-4.2158 -11.855,-21.1519 -5.8185,6.752 -6.3049,18.2118 8.4345,0.9587 -9.3002,27.916 29.9281,2.3209 4.548,-38.4468 -3.534,18.62 0.116,9.3027 L 128.208,57.303 133,35.497 170.98,18.951 129.215,54.2963 129.989,72.7292 162.656,35.1196 130.65,80.9244 124.711,59.3693 117.714,36.054 97.0278,48.8717 123.772,75.8783 51.13,87.6738 85.4001,114.36 l 1.0668,1.656 18.2391,-1.898 -20.3779,-13.686 12.1831,26.742 84.9188,-22.602 -5.466,-17.9011 36.914,12.3446 -3.345,-5.7383 -29.381,22.9598 -34.521,-52.6618 -4.663,-34.432 -37.795,5.4937 8.354,1.6829 14.475,17.7571 0.955,6.1407 L 145.569,43.2351 100.158,75.7198 90.5741,127.493 86.886,92.0569 62.8725,48.1149 79.9971,37.6636 79.0015,59.3907 94.087,31.0245 90.8003,62.4784 51.9506,63.4367 80.2334,51.195 135.87,87.2933 l 10.92,18.6517 -27.597,10.555 -7.221,-13.357 0.626,0.966 L 72.9924,123.255 85.4686,88.5506 74.6491,77.4819 68.1415,42.2362 63.4986,64.8855 80.3475,38.0901 80.1407,72.2375 44.664,64.3632 60.7629,63.141 66.3333,68.3994 76.3437,93.3458 51.6565,94.1851 48.278,75.8117 51.96,68.7221 74.761,36.1623 l 4.3197,21.2463 38.7823,18.8608 15.283,-38.8132 -5.082,-16.9674 -20.56,5.5593 -14.6455,1.2984 8.9065,47.7757 24.508,-25.6814 -16.355,-30.2339 -2.451,25.8043 -56.0401,33.7507 1.5121,-1.9836 5.6135,19.8611 2.5892,3.0444 -2.1884,-5.2012 19.195,1.7719 L 47.2446,72.7139 64.1839,89.1468 77.9526,95.0088 88.6397,83.604 58.3749,44.8916 51.4795,64.6456 75.0494,36.9275 104.744,36.8836 87.5595,97.229 85.3064,94.4897 118.353,75.005 l 4.773,41.136 46.236,-26.9731 -29.476,40.0001 -34.992,-15.494 40.638,-44.2879 -52.6946,35.9969 27.5216,19.958 22.868,-26.5818 -34.95,5.6098 -13.0283,-69.037 -21.8601,-5.8015 10.2513,4.4456 2.8786,33.7835 11.1863,-21.7204 19.8072,0.4742 49.044,-18.347 7.928,-4.8493 40.451,30.1023 -34.963,60.1296 35.752,1.52 7.423,-10.327 -9.557,27.518 -54.069,-15.818 11.914,4.029 -13.106,9.98 -17.971,-1.544 -9.132,-58.4721 -76.0475,-21.037 -5.7855,23.7143 4.7267,5.3713 28.0521,-23.1995 1.6404,-6.3621 53.7798,-24.8614 16.454,8.4098 -23.956,-8.1105 63.903,4.3617 -7.649,4.5307 16.008,-4.8689 -10.055,1.0976 -15.327,4.8753 9.896,-9.0066 5.523,-11.6362 32.503,17.473 15.403,5.931 16.259,-13.7192 20.106,27.009 -3.098,24.2336 43.817,22.7482 -66.193,-36.9752 6.988,2.8945 -34.159,29.2934 -27.054,-1.9179 5.218,2.9067 33.837,32.6275 29.299,-0.378 -13.772,-31.6543 0.444,-23.9216 5.437,-20.0065 -51.285,-4.8841 42.103,25.953 -12.021,16.3549 -16.296,16.6916 -33.329,-20.6088 -39.615,8.5472 1.074,-5.2386 L 164.023,48.369 155.134,46.7347 99.7272,27.1379 132.69,44.7765 86.7962,25.1612 90.0591,35.9237 77.4701,48.3918 80.4686,120.318 53.5912,84.1417 124.312,80.8325 109.003,56.9683 l 42.701,7.2951 -24.88,24.0712 13.081,12.1124 11.906,-31.4421 43.879,49.8951 13.245,-12.172 35.314,-44.1007 -59.731,8.096 0.582,28.3172 -9.741,4.8555 25.512,3.074 -23.282,-19.6441 5.173,30.1271 22.548,6.914 17.329,-39.2788 -8.057,12.6464 -33.695,-59.1181 -8.146,5.0327 -36.573,-12.0252 -42.9515,18.5846 19.6785,-0.8702 18.838,34.2376 17.43,-7.7463 23.111,4.6649 7.859,-53.0522 35.598,-5.0956 1.59,80.1552 19.374,-56.2066 -8.34,-5.0588 -2.035,-5.6473 -39.154,30.2167 23.708,-12.5303 -9.794,50.5673 11.484,-20.0186 -33.397,-16.2432 3.163,-26.1747 7.182,47.1902 -21.222,19.4113 24.385,16.314 10.331,-8.18 -13.302,-67.3346 -35.412,-4.1162 24.841,15.9118 2.616,29.081 -0.34,-5.2592 -10.619,30.8702 -8.115,0.493 29.297,-12.131 -9.42,-3.404 -31.538,12.338 L 92.6891,45.3862 70.7259,68.56 l 9.1314,4.859 19.2247,7.3854 26.729,33.3376 25.678,15.504 -9.528,-15.407 35.399,-55.9142 13.745,-36.1189 6.628,23.302 -25.742,60.6201 -21.506,9.04 -5.63,-16.6686 -51.3266,9.1256 -20.1001,-14.3948 -16.4181,1.2221 9.1235,-13.6985 55.6823,-27.884 8.766,-28.3262 18.503,-1.0883 -2.242,-3.8813 13.821,68.9201 -22.241,44.1919 8.209,-8.568 18.107,-48.4013 13.818,-26.8133 -17.897,20.687 27.228,19.0435 17.363,20.3031 26.702,-30.8161 53.075,19.1733 11.055,-20.9184 -67.172,12.8597 -19.425,10.1381 46.623,-3.1742 60.881,-50.9911 39.408,20.2044 1.566,-19.1345 -43.324,45.1872 55.112,17.8146 -27.029,-66.1102 22.707,-0.5562 4.281,45.4643 55.041,-13.198 -23.02,2.7824 32.802,-9.5938 27.034,36.2245 -19.058,2.978 -13.008,10.486 -18.732,-6.892 -11.1,-3.667 -69.817,3.485 -13.173,-6.911 -18.322,25.465 0.546,-39.9455 1.043,31.3835 -64.209,-4.366 -10.105,-31.1327 -1.85,3.2779 -14.489,24.3298 -25.717,-8.922 -5.406,-25.401 26.905,32.748 10.54,-18.3273 -18.793,23.4133 -3.669,-10.395 -0.835,5.446 11.196,-18.1319 -31.389,13.9449 8.29,9.725 15.178,-17.5151 -13.068,11.6131 59.001,-11.473 -13.455,-26.1042 10.054,-31.9732 -25.039,6.8432 8.753,59.6872 19.181,15.064 -3.383,-40.6396 -23.024,-22.1982 -4.714,-29.0973 41.605,45.8479 8.212,26.5232 28.369,-33.5782 -21.099,31.5602 -7.981,22.536 -35.957,2.743 32.571,-56.4059 -6.967,15.1438 13.333,15.9531 -20.912,2.53 23.475,-10.959 -9.555,0.8445 32.731,-0.5293 -33.312,39.5078 18.645,1.216 -15.096,-4.434 8.818,-1.802 49.22,4.193 1.964,-38.9838 7.852,-6.0219 4.019,23.5267 -7.45,-54.6873 6.45,-1.099 -33.044,3.8687 15.2,-19.6863 -28.775,58.6918 24.032,-12.0159 -37.266,-17.4726 23.352,13.0184 -30.537,34.3232 -92.701,-39.7295 21.068,26.0855 17.848,-7.8802 13.013,22.9402 50.254,-9.143 -38.123,-42.5958 -11.22,27.49 -23.461,8.1398 15.143,-0.43 0.437,-40.0466 -22.869,7.2415 20.2,14.3308 -69.991,22.0463 11.371,-19.4292 -13.401,-31.4592 -35.241,-2.5968 -3.836,7.908 27.683,-7.5097 -31.6632,39.3264 -35.4868,6.898 -0.3238,-20.122 21.8638,3.5554 -9.4917,12.4168 11.9585,20.2153 -17.6122,8.318 35.1324,-20.025 47.425,-15.4373 15.692,0.2074 -46.064,-12.8746 15.425,28.2195 -1.747,-12.4619 75.394,-25.5445 27.009,12.7924 -6.524,8.5362 32.58,-24.1945 47.366,-18.6946 -19.572,-6.8128 0.472,6.028 -41.615,-1.2244 4.673,-9.4408 5.846,-13.5048 20.946,8.5268 -48.278,24.8545 68.373,7.7677 -6.783,-5.2007 -4.934,15.5573 -19.86,21.4686 -7.716,34.6095 L 226.312,99.6778 222.5,124.457 163.105,106.042 128.944,83.4702 102.283,72.5952 78.347,101.422 79.708,85.7868 68.7531,31.7252 l 18.2628,11.759 33.6091,30.6662 7.198,-16.9196 -14.229,42.1129 -25.2163,-28.6552 57.0283,12.5864 5.223,22.1031 37.906,4.2 37.542,4.511 44.241,18.954 23.531,-6.971 -13.213,6.211 -6.927,-7.061 43.02,-16.303 -53.371,-19.5461 42.745,1.9959 1.731,-29.4378 -25.258,-25.6465 14.068,-15.9579 10.603,5.9533 18.34,12.9603 -0.751,-23.2654 -19.602,-0.4067 -42.843,39.6264 -27.155,20.4442 -17.024,34.6273 49.571,-11.0002 26.163,-36.2852 -1.914,-41.5216 -13.649,27.2975 -17.321,27.6756 -6.261,-39.5469 -60.992,-11.2031 1.545,37.5019 12.638,-39.1741 12.505,3.2297 -35.298,-1.2827 -27.878,1.3029 -40.077,50.5694 -5.422,12.0386 32.36,2.9008 L 109.068,108.922 83.082,93.1829 61.5015,63.5723 70.5231,115.635 51.6652,103.102 60.0049,81.8367 70.3472,78.99 84.4968,35.5908 l 9.3647,30.8337 43.1035,-0.2897 17.227,27.8689 12.637,1.2961 -47.152,37.4962 27.701,-19.665 -1.514,13.907 -52.4249,-10.605 65.0479,-16.054 -32.138,-9.277 -37.7214,12.83 -10.3142,-13.1583 29.3106,-1.1295 -41.4643,26.7808 40.1513,9.463 42.536,-0.207 13.853,-19.358 17.396,21.625 36.433,-22.225 38.499,1.95 -41.862,6.116 -18.374,-6.008 11.563,-73.5682 11.165,22.0187 40.361,-23.4693 11.715,4.3091 28.044,37.5825 5.17,-14.8721 -45.083,-27.7439 29.212,17.7065 -13.31,20.3372 3.592,29.1794 L 258.568,91.7426 210.613,86.7271 314.021,81.3007 285,95.6554 245.386,75.4053 l 5.211,16.7792 -12.752,-25.4559 2.112,47.7564 -0.282,-27.466 -46.61,17.302 0.15,-6.035 -44.278,-17.772 7.563,20.378 -25.03,-8.2148 -43.2898,9.8668 8.8649,-20.4723 4.2889,19.9463 3.714,20.28 6.733,-4.246 37.151,-37.0244 12.245,-25.1669 2.292,-27.6368 24.303,9.1809 -29.462,35.2596 55.38,29.3186 18.989,-17.6453 -37.699,14.5184 -34.039,-7.2507 12.303,-4.771 -29.12,-25.4479 32.554,14.4611 -11.473,3.6899 9.799,-8.287 -16.506,11.0773 -8.904,-15.395 -4.889,-3.2682 -36.928,6.9344 8.23,52.997 25.759,-22.354 -11.303,9.475 -28.612,4.428 L 74.3899,71.9275 90.4947,96.2422 66.3105,82.3216 89.3194,89.9656 67.839,71.3719 73.3907,60.186 78.2307,67.4279 86.8771,53.4616 129.945,71.2915 92.4113,80.9468 89.89,63.4275 125.586,88.6692 97.2871,94.8724 94.4497,61.3506 75.0649,72.4386 104.164,57.5367 83.781,92.8502 119.371,119.415 80.963,104.9 l 79.649,12.01 10.683,-57.6022 -9.429,8.996 -79.1119,-4.4984 1.0266,-12.4749 -0.8202,-8.01 L 110.156,24.1391 83.6466,50.835 76.9303,102.262 75.0367,81.9254 53.7056,67.9495 62.9549,104.936 63.9218,79.5964 66.6888,84.8778 86.2434,102.034 62.0191,96.3652 82.71,120.261 74.3827,92.4808 81.7948,61.0371 75.5649,19.5523 118.121,33.145 76.49,31.9601 l 50.722,4.4125 34.216,7.9141 15.12,18.5469 L 148.964,90.884 119.933,108.605 101.088,60.2587 90.7514,79.1912 60.4801,109.92 73.2212,87.5 92.4694,106.853 79.7643,74.4178 117.314,111.325 85.2042,66.6239 93.9796,89.7394 153.083,94.3074 130.619,70.5338 91.4554,89.6814 47.2847,85.6647 68.9188,116.385 54.0606,98.5622 44.7137,59.3302 88.4679,102.592 136.571,84.7825 164.967,81.813 221.262,80.5784 203.681,96.2345 153.755,86.068 127.48,97.7701 l 8.954,32.0269 -13.827,-2.982 -19.61,-18.022 20.301,-12.5059 9.105,-37.209 -51.1357,-41.2404 -4.3086,35.3148 8.4951,4.2596 -4.3188,-12.4944 19.683,-3.5381 -24.4984,9.4203 -22.6364,-5.6782 46.5698,20.2282 76.637,-25.0627 11.402,25.6865 -16.083,3.822 31.416,12.9083 -56.704,6.0362 -9.535,4.5305 -12.185,6.5723 3.186,2.345 L 98.3628,84.8265 92.4586,95.8333 68.2964,90.9022 65.7174,72.1289 77.4741,116.363 64.9017,91.4198 103.003,120.615 98.935,119.523 110.051,102.472 83.277,100.013 79.5826,77.0497 87.7371,65.562 45.8945,62.9804 l 7.6032,-14.7263 33.3614,46.9216 62.7029,1.2766 21.022,-12.9769 -7.911,30.3186 2.91,-42.1955 4.229,25.7703 -13.029,3.2182 17.02,10.443 24.877,-5.896 -30.394,2.836 12.652,-1.305 -5.377,-22.558 -36.973,3.6438 -1.349,24.2712 -9.063,-37.3642 -19.007,-22.2592 -35.2043,6.0295 -9.3349,8.8963 6.5683,18.776 -4.7284,-3.6493 4.1842,26.7799 -2.0409,-30.7445 -15.9749,15.0885 19.4232,28.106 27.2293,-15.994 12.2164,0.778 13.561,8.023 44.323,-34.0167 15.869,-9.8531 21.396,-9.6737 4.522,59.2555 2.987,-58.699 -9.76,29.5002 -10.467,-22.5771 -26.514,1.1331 14.817,-39.9752 -22.542,47.2347 12.756,24.0093 11.895,15.568 43.265,4.807 1.736,-1.749 -14.402,-8.767 -31.813,-3.394 17.245,-36.28 -6.822,-4.2895 -20.871,-31.7026 -1.881,-3.1839 9.011,28.882 -37.636,37.9015 23.884,-24.8039 -13.085,-46.6929 22.138,-1.9228 -16.195,10.7835 54.915,-22.2178 5.499,25.7215 20.791,43.7061 -9.08,-17.318 -34.92,17.7478 47.917,-2.9916 -61.35,-38.8236 -53.647,26.7262 20.614,32.845 -34.421,-11.8937 32.925,2.5344 10.186,-34.6651 -73.6128,-6.4013 32.6498,-35.7476 -10.824,53.7576 -7.3031,8.3069 -0.7882,-5.6134 -10.7635,6.7359 11.2382,-34.701 50.7696,4.9704 10.886,-4.8729 29.75,-8.0832 29.967,-18.982 34.281,69.3783 22.082,-55.4559 -5.554,17.2827 -10.9,2.8748 5.541,-8.0411 -62.964,15.3739 -10.81,33.3806 7.7,-1.7244 -14.651,41.7841 -15.129,2.5 -78.6663,-34.4186 -7.895,-7.1897 26.3023,2.664 65.31,33.4313 -50.089,-30.9104 -23.426,19.2194 50.022,-19.1535 34.289,-30.8442 -30.346,21.9484 24.941,-20.7733 32.326,20.9637 15.365,-26.1938 71.629,41.5737 38.447,-25.6071 -16.449,-16.8428 23.591,-22.8921 -3.566,-15.4423 63.536,22.56 -13.174,-14.0027 1.557,-13.4173 -24.107,4.7076 36.342,18.6823 -22.827,20.8874 -54.922,-9.0149 -14.991,-7.4075 23.824,-9.6563 8.706,-14.0445 17.912,6.3372 23.327,49.9032 0.115,10.0311 -1.787,-35.027 -32.079,44.9623 -4.109,21.0104 -41.422,-8.135 13.723,-48.1473 -33.333,-39.8303 27.767,24.8425 34.205,-31.5759 -19.556,27.5389 -10.31,-2.6868 7.952,40.2133 36.32,36.7826 -2.592,-6.947 -2.243,2.106 7.331,-32.2218 -21.21,-27.3425 -5.671,-37.9101 -54.64,5.8656 27.91,22.7422 -31.852,-15.0341 31.403,-1.3427 20.927,-8.4879 18.411,35.1542 -22.787,23.8375 -9.009,14.0861 17.189,-7.0803 1.587,-3.1183 -14.788,-50.7879 32.214,4.204 9.224,23.6438 46.768,-5.992 37.897,15.102 -22.037,-10.733 34.902,22.6459 -32.51,-0.8322 -4.065,-27.0005 10.447,-0.5578 18.414,20.7733 -15.683,-29.9791 -11.575,-8.7125 -9.277,-4.5344 33.381,28.0317 -52.388,21.3794 37.836,38.0014 -5.294,-34.9227 -24.462,4.3756 37.738,-34.8833 3.57,36.254 10.85,-12.9406 -24.096,30.402 -12.149,-5.003 31.547,-48.2666 -13.184,36.5824 5.44,-18.2378 7.771,9.7556 -15.426,9.7308 -17.715,-6.4259 -23.936,25.9045 20.186,-23.6811 -12.341,-20.0849 0.658,-6.0556 17.275,19.7074 -3.35,-11.1693 16.154,-4.0599 0.448,17.6191 -36.631,16.8197 -32.153,-21.4508 54.641,13.2801 -22.068,-13.0198 -27.621,12.6205 -2.771,32.0926 -12.286,-14.515 6.593,-25.7477 -43.209,10.3781 -45.771,6.5223 52.165,8.7473 19.917,-15.3223 59.546,-30.2103 23.357,-34.2106 12.852,7.7232 L 426.758,55.1098 410.094,34.8414 406.319,71.3821 381.69,50.6185 350.042,68.7803 330.2,83.243 l 13.826,-37.2276 53.957,-10.8667 -44.132,48.6724 0.638,15.7201 34.977,-33.8038 -25.196,49.9966 21.893,-30.2555 -18.779,28.7745 28.808,-41.613 44.523,26.4004 -18.446,28.9656 -23.512,-5.972 -4.9,-17.837 4.903,-2.798 -7,19.574 -14.577,-57.0728 3.648,44.9278 -3.44,-8.9069 -43.711,2.1619 14.152,-20.1094 22.944,-2.2982 24.875,-10.7879 49.678,-12.9375 -34.465,48.474 -34.595,5.629 59.766,15.102 -12.661,-45.5718 42.398,-29.6406 -13.839,9.4009 0.33,-2.7643 -24.115,-38.7142 -30.3,57.6454 -24.134,21.2644 -12.605,21.7752 2.101,-34.1236 9.449,-12.6745 -12.121,30.3101 -11.109,5.871 20.194,16.04 12.325,1.38 16.037,-35.012 0.714,-24.6391 22.911,-12.8506 -60.854,-13.0877 47.632,0.3458 -4.214,-5.1406 -11.314,25.744 -28.326,-22.4744 34.073,40.3955 58.064,-33.0158 -8.112,-7.8592 9.906,16.3931 -48.319,-3.8332 -2.527,-22.4958 28.788,19.3318 26.837,33.7171 -30.297,5.9653 2.568,2.2855 -21.539,1.1511 40.061,-23.9496 -12.904,-10.1112 -20.313,43.5919 -27.058,1.8271 -3.905,-1.6633 -4.026,-52.1901 25.792,-23.9775 -19.766,1.7938 16.337,-6.5279 39.997,43.1171 -39.507,20.507 -9.823,-18.0867 -29.858,42.8126 29.103,-6.616 -27.089,-50.3789 -4.341,23.8118 15.024,21.3904 10.675,24.3447 49.114,-1.51 16.573,-21.9975 -17.267,-33.5483 -5.962,-33.3736 -22.289,37.9534 26.093,25.6331 -5.588,-16.265 21.608,11.883 -47.09,3.8471 -44.477,37.3558 9.521,-76.574 11.813,-11.4074 46.54,-10.7441 20.205,16.0086 -13.679,20.5149 11.26,23.4844 -37.964,19.7296 8.28,-34.916 -38.561,20.081 -65.588,-18.3436 -32.914,12.8769 21.068,-23.0097 -2.294,8.7347 3.841,-12.4698 14.274,28.9786 -1.23,-12.082 -42.335,-12.1722 26.979,2.1056 -17,13.6001 -45.803,5.5559 -16.917,-2.5885 -54.541,3.8668 40.297,28.9652 33.751,-10.49 21.855,12.965 12.776,-22.8622 12.626,-18.2098 -0.98,33.908 -2.494,-30.4865 34.926,16.0725 -56.582,-11.9909 3.282,34.1489 -92.352,-84.157 -2.281,-11.0124 -3.697,20.1272 -18.645,40.2137 -23.459,9.4308 12.44,15.8177 -47.1403,16.073 -29.9451,-36.5262 30.0861,0.1635 48.2443,-33.1755 -37.534,13.3098 -1.501,-36.8149 6.922,18.5247 51.665,-38.1458 62.284,79.6316 17.744,-8.4478 -57.506,-3.4398 -5.255,27.0024 44.686,-12.8342 -2.438,-7.1304 -17.605,27.0756 -27.467,-8.095 13.784,-10.523 36.988,3.378 -21.856,13.165 0.079,-6.96 -13.34,-35.2202 18.041,-4.4429 -39.727,22.4455 18.878,-41.6997 -15.389,-28.2456 -10.44,21.1127 32.422,-29.1484 -2.458,15.9884 30.787,28.9265 -2.236,17.7439 -2.396,-21.631 -4.058,-21.4593 2.011,2.4777 6.504,2.8107 -25.339,3.7309 -51.116,-19.5683 -34.118,19.0798 -4.869,-20.5744 25.112,-3.1499 -1.299,4.8095 -12.42,14.3055 -9.711,19.3521 -3.897,-15.8823 24.195,1.9569 L 99.9821,53.513 98.4035,70.2451 88.3018,62.4709 67.9716,34.8054 78.339,53.707 62.6056,100.74 56.3086,65.5977 93.06,81.3297 139.67,117.311 52.2963,90.0352 77.3145,90.9236 64.3064,88.4777 63.5096,86.4401 66.5216,60.3856 65.2853,69.7381 50.3431,58.5937 84.9863,79.5008 76.7511,76.3874 73.908,70.5758 98.3084,84.9707 82.3185,102.925 82.5246,83.271 99.7757,125.482 64.3094,104.431 81.4968,117.571 128.791,98.2124 144.029,86.8489 116.009,71.2066 79.7889,61.162 122.705,51.486 131.421,16.8143 118.118,40.0965 116.085,20.004 118.04,54.1175 107.514,27.8079 94.6642,15.6942 79.6568,52.4377 99.3359,42.789 94.1767,47.017 71.7559,103.668 83.9108,87.2354 65.7865,99.4916 l 31.1662,2.4754 -26.9,7.169 2.1562,-67.9975 15.692,-5.2294 32.2381,-22.0907 12.222,12.1698 -45.1305,4.4377 31.5955,31.401 -35.7606,45.2281 7.3181,9.425 11.4455,1.124 17.71,-58.7439 -5.183,0.2588 19.576,-13.0163 9.269,30.8903 -37.173,-2.7721 13.509,9.4719 62.502,36.2263 9.6,-33.9926 51.316,10.4047 -10.175,11.8499 -48.059,-12.5782 47.982,31.4972 -17.945,-6.514 29.563,-32.2029 11.95,-20.9458 -48.078,-18.0859 14.505,7.1663 38.327,-21.7802 -44.477,-6.1587 33.367,-10.4193 -10.597,4.778 -17.687,56.1448 -6.246,10.4944 17.584,18.6813 -45.48,1.603 -1.476,-60.8035 -3.445,-2.0138 -37.626,-5.6189 -30.397,-23.4619 -5.66,12.2626 9.385,30.5482 53.941,-34.13 -39.573,35.148 -32.416,7.0516 -5.7413,3.0573 -33.0056,-19.2542 7.2289,11.26 -19.0638,1.7286 14.4093,28.7321 42.1505,-29.2237 31.199,30.7287 35.17,17.7219 21.815,-77.7194 -40.58,15.8112 -42.805,4.4507 -32.6995,43.472 1.8545,-5.9552 9.7967,16.9657 50.0193,-24.2239 -27.789,-54.9467 3.112,-13.4948 47.121,16.0086 -8.867,-14.5137 -45.638,30.7335 -42.798,-14.3983 -5.5544,49.9899 33.6156,7.5905 11.9448,19.1309 -10.2987,15.274 3.4855,-52.2504 4.9822,2.3948 37.369,-23.0583 3.1,-9.9317 28.361,6.4552 38.105,16.1666 -36.475,10.3286 -17.839,-10.4152 -20.583,-10.1005 13.246,55.4719 -11.15,7.455 -35.74,-18.162 8.232,29.193 92.757,-45.4664 45.59,23.7784 72.221,-4.172 40.44,2.371 32.324,4.502 15.306,-12.7823 11.05,5.3383 -0.776,-25.5913 11.537,-4.9481 -13.016,6.0606 41.789,-35.2921 -43,-28.113 -25.096,26.4174 7.388,14.699 -35.767,-21.043 -33.046,-0.1605 40.735,-16.2758 30.745,5.7226 -9.242,14.6857 38.511,8.4715 -10.105,15.2422 28.98,8.9846 -48.511,-26.4236 10.151,14.4981 41.212,35.9247 2.952,-12.932 -26.436,2.4438 -49.708,12.5193 -0.921,23.1669 -2.495,-8.369 20.422,-71.1702 16.2,-3.5962 40.44,24.9079 -10.262,6.9035 -26.722,-34.5278 -0.1,-8.2036 32.594,3.4447 -10.188,-2.5085 -1.919,73.3792 20.933,-12.4683 -8.717,-29.3544 8.165,47.2887 11.716,-19.2268 -5.746,-34.1578 -48.321,24.612 2.919,-36.9783 -5.322,37.0082 7.889,25.4897 9.686,-52.785 5.649,-4.9073 2.623,20.1608 22.277,-5.98 -31.205,2.0127 5.043,30.3984 -46.862,16.1324 -29.342,8.056 21.985,4.891 7.631,-20.769 -19.818,31.775 46.067,-18.176 -12.405,-7.713 2.336,-13.5706 -20.27,13.3196 3.462,0.177 -43.649,-33.6369 -10.038,15.3128 -25.027,6.5121 16.319,-16.0213 50.324,8.0853 7.413,-16.0816 4.332,-11.0418 14.172,35.5623 12.038,-44.6413 -42.326,12.4221 -61.044,-20.4889 -35.161,-21.9307 -4.712,4.4186 44.225,12.4197 -8.408,-16.2599 -30.804,28.6807 -9.366,-30.0188 -44.707,-0.4795 51.467,15.8079 -14.062,1.4252 30.121,2.839 -74.288,4.031 -4.838,-7.2616 -15.387,20.0427 -39.723,2.1202 36.901,51.3417 -22.485,-25.2951 53.836,42.5441 -62.358,-11.153 45.031,-10.63 -17.902,15.211 9.365,-11.672 33.629,-87.6592 16.327,12.4315 50.748,-9.4567 -16.894,2.8762 -7.201,18.214 -8.23,38.1032 36.154,7.4698 -40.855,35.0882 -7.958,-36.4726 25.339,-33.1136 -44.016,36.429 7.421,0.9937 2.758,-5.6057 37.233,22.4032 -2.305,7.261 -109.71,-8.032 -57.735,0.942 -56.6116,-31.1745 4.8929,-12.9769 10.2586,-1.0218 6.3097,35.9942 -8.7591,5.744 33.338,-13.9053 -10.7057,-4.9023 -15.6964,-6.3764 -13.6397,6.8866 27.445,12.0034 26.9123,8.218 45.672,-43.6316 -74.8981,-15.7559 3.885,-0.9314 34.8871,-12.4516 6.713,29.2913 -9.794,-13.3221 -37.8786,4.1597 13.2021,-2.8131 -6.2709,36.6141 20.0234,-3.8732 36.285,-16.3728 20.478,15.1264 L 125.632,128.333 99.896,109.543 76.2393,59.1851 100.026,51.9794 81.1444,37.7405 67.5553,49.5878 52.8882,66.2323 l 3.3376,-22.0412 23.56,-19.9285 21.4162,23.4094 75.391,-8.6959 -4.7,-17.7379 -23.489,46.2213 -30.383,-1.825 40.441,29.9343 L 136.643,90.2775 111.765,54.3166 101.203,68.5242 101.487,83.67 69.2508,92.2738 77.9451,60.5989 86.2392,23.9438 75.6453,44.1676 86.5803,75.7018 100.27,90.6081 98.1473,91.9825 96.3104,113.061 108.761,92.0052 90.0073,112.368 107.374,102.212 98.1403,87.1663 95.5882,94.2882 50.8786,84.2542 48.2855,88.3919 84.3894,101.669 106.647,80.6682 94.7562,84.302 l 26.3988,16.974 27.457,-4.9107 -30.384,-30.028 25.399,-22.1017 35.744,12.2652 16.483,-9.1495 -19.575,42.9128 19.463,6.5435 72.449,-13.136 -11.673,20.4404 -30.526,9.515 46.588,-69.8025 -32.722,36.1892 -63.365,-21.5694 -10.96,21.8943 -4.485,5.1428 21.642,-7.1165 -18.102,29.7511 28.599,-10.4863 53.013,-8.5941 -63.958,-20.602 5.281,-26.7905 9.487,39.571 12.485,-16.9 20.026,55.3219 58.985,-16.343 -8.15,5.019 24.361,1.304 -1.124,-4.161 -21.815,21.209 -18.331,-27.3424 53.248,3.7404 -35.173,17.733 -15.522,8.733 -38.95,-19.908 -51.56,-2.061 15.156,7.716 23.9,15.113 42.095,-0.547 55.174,-5.772 23.111,-11.065 -1.123,-98.0517 5.993,31.1076 13.24,8.3905 4.895,-11.4382 21.413,-24.9995 24.674,25.3292 23.651,45.2696 4.264,10.0402 2.063,-8.3657 -63.718,5.7903 12.09,-46.0723 -29.052,21.5101 19.224,20.2632 -30.152,-12.4905 12.912,-38.6823 21.833,-13.3344 2.63,-9.2315 34.199,18.8792 2.978,-13.281 14.557,28.6076 3.364,36.7861 -24.837,-10.8404 10.326,39.7249 26.853,-7.914 2.274,-1.155 -30.771,6.382 -10.956,6.038 -9.341,-19.579 -11.354,-15.8944 12.965,-35.138 29.127,44.8242 -0.792,-10.6327 13.51,3.4931 5.833,-6.2673 -42.44,18.4691 35.459,-12.1694 -11.596,-54.7481 -16.331,37.2706 -1.572,24.9622 25.586,-14.021 15.626,9.1562 -22.22,-40.8368 -28.991,-8.2232 -6.301,29.6254 64.025,-24.7141 -4.875,12.3183 4.56,3.6311 -28.809,25.0176 -10.325,-0.5906 6.981,-10.8388 -2.715,21.3511 -32.583,24.4515 40.244,-14.798 4.745,10.773 -4.892,-22.06 23.296,9.66 12.833,-41.9624 -38.411,32.099 27.262,-1.7819 9.77,3.3257 -16.946,-27.9865 -30.223,36.2171 -16.658,-17.6618 -13.888,29.0058 -5.171,-1.146 -42.806,-18.2225 37.503,28.7505 -34.697,1.817 -76.459,3.398 6.856,-22.706 36.154,-9.7774 17.953,25.8454 -17.241,-2.588 -32.856,-7.419 14.491,-4.245 -38.141,13.043 14.053,10.043 -21.95,-11.403 13.827,12.213 -25.824,-14.993 32.514,-19.268 -51.651,-0.228 2.556,1.095 -21.935,-19.2655 -8.587,6.7182 17.633,23.7363 8.138,-12.4972 15.297,18.0312 -94.307,1.748 13.186,-15.84 25.34,-37.9213 5.609,36.2683 5.543,2.498 L 170.833,57.287 137.534,78.0948 118.34,65.1415 99.1792,58.6471 75.7997,89.5784 89.895,110.414 88.4819,94.9966 104.143,90.738 l 36.286,8.375 70.948,-4.7887 -2.077,-16.2209 -4.255,3.851 5.203,17.7769 47.233,8.3167 -20.233,-8.7848 -30.249,13.5848 13.823,1.166 -14.391,-26.3886 10.535,-30.9172 -17.046,-16.9915 -58.539,48.0586 26.088,3.9819 6.494,17.3638 -48.031,-10.6198 -13.636,10.7198 53.457,-29.5 54.42,-2.6613 15.394,11.2193 1.273,12.375 7.772,33.196 33.775,-37.3244 72.003,2.7429 10.008,-27.6417 -14.27,-17.2671 -24.634,3.4084 -17.195,-25.6962 -12.638,10.3309 -25.27,2.0329 -44.123,15.3823 16.088,-21.8293 -33.592,7.3641 35.939,-18.3309 -23.857,8.2025 35.404,31.8706 26.266,-39.7703 -3.602,46.7318 56.114,-39.8755 1.875,-9.2346 48.462,6.0455 -0.467,-13.9532 -34.96,16.0147 -10.909,-9.0419 -1.892,9.5891 36.713,15.7355 23.932,19.942 -25.985,-42.1665 20.805,-5.4106 35.322,-3.0229 -5.952,8.3744 -21.344,3.05 -7.72,64.5099 25.402,-20.8989 31.659,35.5355 12.679,-26.4563 -54.585,-11.896 -12.238,-12.2346 -44.37,-42.0247 -51.792,30.2514 -19.37,14.6839 7.703,34.3461 4.376,15.7432 -24.538,20.052 7.64,-47.3329 41.884,16.5909 -33.107,-15.6605 -66.652,-54.3945 44.17,0.4415 1.255,35.8144 -52.829,16.8009 -3.048,-52.7815 6.648,75.6067 -12.29,11.989 -38.411,-19.2735 -12.696,-37.3212 39.489,48.5407 -9.023,15.362 -21.903,-8.661 -8.929,2.788 5.927,-28.2417 -22.822,-42.6966 21.073,-10.1302 11.568,-3.6438 -14.734,8.1928 -32.053,14.1161 5.981,23.3538 6.699,8.6016 L 105.951,54.7587 95.4295,106.146 112.132,99.894 67.9064,83.7003 81.8106,60.1032 68.7011,110.942 89.3671,122.662 68.3216,86.0434 158.463,45.3729 165.244,103.176 150.071,69.3331 179.58,65.7094 125.894,62.2149 122.843,72.3427 57.3304,49.4288 69.3912,70.7574 85.5904,49.268 l 18.1116,8.2734 105.28,-7.397 -5.779,-30.0416 17.972,-4.4591 17.269,8.8893 -5.567,-2.3999 -70.719,29.4175 -22.35,-1.3399 9.238,2.7457 -47.006,26.7462 21.579,40.0864 -20.927,-45.2636 35.125,3.6142 -45.1011,4.2747 0,0"
         clip-path="url(#pb0f9773547)" />
    </g>
    <g
       style="stroke-linecap:butt;stroke-linejoin:round"
       id="line2d_3">
      <path
         inkscape:connector-curvature="0"
         id="path20"
         style="fill:none;stroke:#984ea3;stroke-linecap:square;stroke-linejoin:round"
         d="m 304.595,76.5318 -3.731,-38.4373 5.817,-5.0261 -25.128,25.0054 41.461,13.8267 -26.11,13.5008 -1.068,5.796 4.373,30.3147 -6.337,-0.456 123.371,0.681 7.163,-16.545 -7.382,-74.5728 -5.662,27.0885 30.257,-4.391 -4.217,20.1364 -42.562,53.8629 -34.038,-33.8317 30.951,7.4777 53.249,-11.4084 -5.115,-3.1736 -20.957,-26.4103 -55.049,-24.5843 -41.192,-5.6907 -18.501,-11.188 18.71,2.7856 -52.32,19.3976 12.73,47.378 3.852,19.6531 -37.54,17.798 84.922,-1.825 -15.349,-6.553 -8.291,-90.7241 15.045,32.6011 -4.145,22.975 19.042,-39.7352 84.476,62.4202 13.692,21.962 1.708,-53.3587 -5.602,-18.9717 12.868,26.5102 6.472,24.7212 -32.315,-27.7039 1.953,-5.1014 -29.024,-14.3124 28.247,0.0548 -36.96,-19.9885 3.614,50.8015 29.045,-24.2533 -37.544,30.8362 29.73,-46.5219 6.953,1.5334 33.048,10.7075 -27.721,7.1322 29.028,34.1058 -9.227,6.8 17.867,-27.9188 -17.803,-0.3043 -2.319,16.5428 -23.352,23.6613 18.674,-22.3273 -44.961,-22.7352 5.505,7.9086 6.471,-0.163 -26.577,-35.7798 -29.305,-5.5638 56.692,-4.8201 -29.953,-15.055 41.964,-5.5244 0.002,10.9093 47.764,57.0963 -6.583,-15.9977 -37.593,-28.1804 29.548,-2.4185 -9.454,14.6711 -54.847,10.8383 10.651,-11.9154 -48.601,32.1777 -11.696,-51.3322 -46.759,-10.0321 43.983,12.9538 -24.626,10.9997 12.394,48.0708 6.05,-13.4054 1.305,24.6537 -42.315,-15.8994 8.224,0.746 22.337,17.6804 -28.912,-49.6727 50.021,5.0409 -17.712,42.0598 29.264,-33.5002 -21.147,8.5134 -8.044,-26.6103 -10.762,22.5305 2.153,23.8216 -5.798,-17.9199 -7.423,24.4689 -50.823,0.94 65.784,-5.84 46.454,-12.2769 -15.995,3.5541 -44.725,20.8698 -47.623,-9.544 -35.377,-16.9692 -12.617,-9.8865 3.529,17.8577 4.469,34.507 40.002,-14.838 28.981,-46.0599 8.333,-22.9918 -7.632,-16.1173 -31.431,30.8665 42.569,-34.955 23.658,17.9143 -36.033,-12.7247 2.16,37.1434 26.078,-15.2943 32.844,-3.4628 -1.863,19.8765 -34.823,36.1531 -32.605,7.496 -6.999,-56.321 -12.313,-13.2886 4.83,0.0076 -13.726,-8.081 -35.431,32.2354 -54.502,-12.2102 22.055,10.7779 46.172,5.8156 33.851,24.6864 -17.267,11.8879 25.4,13.82 -47.227,-6.066 22.942,-2.66 34.91,2.844 41.245,-65.7386 14.374,-34.779 10.567,23.0763 20.503,15.047 -17.549,49.0263 -25.315,6.771 14.517,10.558 -43.291,9.562 5.801,3.92 -8.139,-46.7748 -30.49,-2.3563 -28.093,24.6001 -10.229,22.776 -5.19,-11.632 -23.292,-9.487 -33.678,-17.7264 12.511,-4.098 40.303,15.2464 44.032,-20.8666 -30.046,20.6536 31.796,-43.8608 -29.005,56.9928 16.075,4.49 3.483,3.683 -42.881,-3.968 -26.624,-22.473 5.559,-9.4257 -30.552,11.9457 -42.638,1.141 -4.118,-14.1306 -38.0562,-18.9565 49.1562,-2.5653 27.737,25.1113 60.282,8.0121 -14.961,-9.1698 68.624,21.5128 -91.661,-2.339 -29.593,-13.1304 39.487,5.9224 -31.599,-35.6291 12.7,-51.6742 6.759,5.233 -1.119,3.4856 10.964,12.7336 -50.339,-0.5674 -7.993,-0.2746 -39.6312,-15.2581 26.7342,22.8345 -37.5236,-14.9641 12.1527,8.539 28.0759,3.1232 11.757,15.4541 4.672,-42.7967 18.656,15.5692 41.678,-13.7958 -21.143,2.2964 -43.307,64.1965 -9.244,-43.7587 15.544,9.6085 39.618,-25.5947 32.436,14.1945 10.102,-20.3978 -23.651,11.346 -7.529,-11.6025 17.016,4.3309 17.228,-6.665 -56.164,40.7441 -22.741,19.5077 -54.9669,-7.9237 -9.3489,28.6179 26.0745,-4.5842 2.3139,17.0089 39.2884,10.934 27.101,-51.5043 21.662,24.1607 -18.416,8.8616 -12.268,-43.0651 33.412,-21.4871 0.191,14.4716 49.561,75.2126 -50.779,-1.708 -2.111,-50.9508 13.39,2.9627 18.228,12.4381 40.423,-9.498 4.514,-28.1533 49.16,-15.1196 -0.535,4.0117 -38.796,24.5799 -0.972,10.3695 20.923,-4.1844 -31.128,-43.824 7.241,7.9126 -23.776,12.2057 -3.229,31.837 -44.74,-38.8695 0.138,-18.1362 -10.94,1.0275 20.336,-6.2907 44.223,29.535 -23.202,11.9671 35.044,27.7325 25.934,11.2927 22.731,7.5555 L 320.406,73.7838 301.291,56.9973 280.9,19.2105 228.466,40.876 l 2.87,-24.4399 26.636,24.9344 -34.758,41.0254 -18.15,-8.482 -11.995,12.7316 -16.042,15.6265 -70.326,-46.1499 -1.562,3.3765 3.587,-30.2848 0.216,-6.2314 2.717,9.3137 64.401,3.1 -27.322,17.7238 -54.9226,-3.6275 64.0286,27.7765 12.715,-7.2411 42.544,-46.6918 -12.16,-3.9868 58.339,1.0711 9.539,29.7436 22.617,-21.4101 46.195,-2.7523 -26.413,13.6733 0.658,35.0776 -6.04,51.2356 -41.695,-32.8532 46.027,-50.9499 26.975,-20.6042 -9.274,21.5163 14.521,0.0156 1.155,12.5375 -13.262,47.1189 -20.636,-32.8885 14.654,-17.2422 -52.012,36.28 32.278,3.3169 2.881,8.0188 57.484,31.821 23.634,-30.887 23.974,11.539 45.785,-51.0011 -8.695,27.8708 -22.162,-64.1866 -20.842,-4.7224 -7.531,-7.3274 -28.332,11.7407 10.81,68.4128 16.812,-4.0645 3.361,6.787 -12.05,-60.0675 12.924,-3.978 41.915,-0.9944 -17.112,25.5716 16.476,-5.745 -46.335,28.309 50.171,14.9087 16.782,-23.8984 -20.511,20.124 -1.255,19.0707 20.114,-30.8206 -26.934,-26.33 -26.024,4.8695 -29.21,10.3442 -20.523,-14.55 -21.806,31.0279 1.572,21.728 2.918,17.712 64.312,-13.035 45.096,-3.989 -20.937,20.238 20.317,-51.1853 -19.876,41.5443 -26.303,-13.264 -53.22,-7.9216 -11.654,-29.3691 20.12,43.0697 44.003,-3.328 35.793,-3.086 -4.134,-21.101 -25.145,9.9942 -17.854,37.7108 24.704,-12.725 -27.003,3.411 -17.029,-15.383 11.805,-4.062 39.666,-12.5532 -9.244,-44.1725 -3.291,2.0515 31.848,-16.0824 0.585,18.645 -32.146,47.2518 -32.035,-2.6015 18.305,-48.7461 29.099,2.6755 -29.752,28.4247 35.056,1.6959 -48.598,22.5913 -17.378,-52.02 -47.66,14.0345 11.825,17.7573 18.312,30.5522 -6.308,7.334 1.054,5.09 41.708,-27.1058 42.844,-21.1825 -45.967,-15.7573 -43.246,-34.4881 -12.457,28.2663 -29.651,-16.5799 -5.516,26.9863 -9.038,36.6315 47.098,-44.0038 24.683,-20.357 17.15,10.6483 14.82,0.4763 -45.411,25.9731 -25.19,-31.7686 28.883,30.0145 -21.79,39.6697 -28.137,-23.5902 26.824,39.2152 28.01,-27.6975 -49.604,-36.7875 29.967,33.4998 -19.227,19.9202 8.781,-42.6939 20.515,39.6109 -19.758,-51.9269 6.447,14.8331 21.742,2.0798 27.489,-11.6169 -34.046,39.0699 22.948,2.47 9.831,-14.4979 -15.728,-60.3547 -3.884,62.9435 -12.13,-25.3466 -47.043,-24.7552 88.333,3.537 -3.195,8.335 15.41,56.3529 -4.93,-31.5506 6.405,-47.9213 12.834,-3.8299 -19.066,43.0843 -31.456,23.2446 -6.088,-13.7882 19.509,-29.2993 5.145,35.2163 10.511,14.3461 46.589,-42.582 -17.102,9.1215 39.824,-13.8203 -6.298,13.2524 -21.714,48.5594 18.731,-0.12 4.099,-46.3802 -27.943,-55.8092 19.602,57.5183 -15.952,-20.7506 -21.02,-11.4894 -13.122,-8.8328 -2.743,20.3112 -25.668,-11.5582 65.616,22.5056 -17.996,-13.9797 -14.839,1.756 12.325,-13.686 -5.597,-15.3313 39.244,3.6192 9.702,23.9205 -54.532,2.4015 15.996,2.1679 0.009,6.436 2.765,10.9887 -13.439,-7.2966 34.175,36.6481 -37.252,13.871 39.567,-17.4021 11.504,5.2151 -30.342,-25.7683 17.411,13.5553 17.214,-27.8122 -19.722,-14.555 -7.784,8.524 2.41,20.1148 -37.227,-26.8295 34.492,-4.3832 -16.787,-24.6961 -11.701,9.6783 24.751,-2.1823 31.927,23.136 4.563,-0.6768 -76.189,-25.8379 13.601,-4.1353 52.657,30.4721 -13.082,-14.1161 -35.574,-9.525 -52.695,26.1804 27.03,41.3886 -13.791,-39.608 13.538,39.8626 21.234,31.3866 39.733,-45.0297 7.877,5.8206 -56.011,-16.8911 -10.932,-24.1343 1.183,1.5682 0.755,21.9572 -60.104,16.6721 32.213,38.755 -32.957,7.198 -0.327,-45.2257 13.806,-10.2541 -110.663,18.0571 16.574,18.8397 3.101,-33.3082 13.636,-12.3555 -13.735,-20.0583 -14.2,15.8551 53.264,-16.06 -50.141,23.6422 -45.464,-38.4456 8.983,35.8915 48.5,-29.0702 11.519,42.7143 -7.119,20.7397 -10.192,-27.6172 -21.791,-21.3144 18.54,32.0972 22.02,19.3894 -3.668,-13.0463 -16.294,31.1903 1.604,4.645 4.369,-45.7572 -29.193,-19.8513 -14.947,-3.9742 -5.451,-10.6568 41.266,-1.2324 -11.992,-5.6741 29.97,29.8208 -4.957,1.1019 34.343,-41.7457 51.577,8.1308 -22.521,-12.4086 -11.872,10.9629 16.085,58.2468 54.311,-37.8703 -77.064,14.8507 -38.503,-14.0454 -0.321,-11.9112 -27.065,-3.4096 30.408,17.9773 8.784,-16.894 24.591,-23.881 8.292,0.1522 -40.79,55.4491 46.406,7.5889 9.428,38.9824 38.9,-24.1265 -9.076,22.6525 -56.255,-9.668 55.017,-51.6139 46.542,-2.246 -4.398,52.3829 -35.468,-35.4517 8.158,-1.9894 56.271,34.4331 -8.351,-2.561 -7.896,-7.4812 10.987,16.2862 -43.661,-35.0998 -6.865,-8.9803 5.484,-48.6861 26.512,6.9514 46.479,44.7354 11.901,4.7617 -9.101,-16.1857 16.031,51.2884 -1.686,-20.4467 -47.162,20.2667 -29.407,-5.98 -4.26,6.458 -10.352,11.838 41.823,-8.121 -2.646,-5.693 -10.47,-15.187 5.796,-35.2733 46.821,-1.3229 2.677,-28.1259 -8.291,9.4163 -15.703,21.5455 28.114,56.9903 -62.687,10.697 -64.362,-13.663 5.053,-49.9086 44.028,-12.9734 44.402,27.4182 15.755,-47.0799 -55.417,31.2198 28.231,-7.5645 -10.438,3.283 49.059,-2.1828 4.707,-3.9198 -14.429,30.6162 -21.576,-5.5536 -26.818,2.9088 6.718,23.7236 15.208,22.928 5.913,-6.549 -5.586,-11.611 23.129,-8.716 29.171,-5.6586 -45.705,10.5966 -48.722,-40.4559 -1.283,-14.8552 26.295,-29.3813 -33.262,36.576 44.802,33.4648 -8.273,-23.2786 15.432,-1.211 -49.268,13.7665 7.438,-0.3133 -5.132,-22.8774 -62.09,-1.216 12.959,-33.7328 -12.972,50.2335 -2.657,23.9383 -31.857,31.1504 11.578,-2.672 10.36,-39.4097 6.383,-18.2676 -62.592,19.7467 -17.12,-9.6625 1.711,39.1181 -7.642,12.465 -13.966,3.543 -20.984,-9.672 -20.768,9.785 12.42,-7.043 55.639,-29.2287 -48.561,29.3827 50.621,-61.8119 -7.59,21.5297 17.479,-31.7511 53.485,-9.0713 -12.479,-9.5348 1.755,63.755 -62.615,31.1534 -51.071,-46.5596 23.609,31.7456 -16.346,-23.7006 -17.658,-19.6501 -30.652,-6.2152 35.654,5.073 27.807,15.9201 43.941,31.4358 34.721,12.142 35.902,-61.525 14.995,-10.1434 -0.234,23.6701 3.244,-17.5895 68.177,-15.4739 8.508,-5.5797 -7.976,-17.3213 30.582,12.1671 -30.433,22.9191 26.607,-3.497 31.502,-23.0501 21.705,19.6239 -54.685,-15.2922 24.221,6.7697 -42.689,54.5652 -27.248,-3.5725 28.083,-8.0597 -24.353,-11.3518 -27.836,27.443 9.16,13.484 -29.999,-9.657 14.825,-47.2143 18.673,-10.7333 3.871,-31.5414 20.285,25.5053 -3.523,1.1709 -33.79,38.8598 1.955,-39.7118 -4.624,11.3254 29.903,46.9184 -20.371,-2.275 67.361,-1.9427 -16.761,-28.3003 38.65,19.1468 2.838,-31.3254 -4.021,10.3625 -55.642,0.2259 -12.678,-42.1718 -6.601,6.2942 29.931,51.2605 31.59,-2.3402 -68.312,-5.8902 32.651,30.5977 26.716,-27.4627 -7.027,20.9507 6.252,-33.9015 -51.947,35.1045 13.413,31.428 -31.325,-9.385 -5.27,11.272 -25.109,-16.441 54.711,15.827 36.177,-4.852 -33.652,-20.863 -44.018,4.294 7.839,-17.0651 -43.219,13.2181 11.341,-36.404 -23.23,-36.0574 34.526,-10.1655 -3.637,17.124 -24.733,-12.1263 -14.118,-1.4252 -35.838,5.6969 -14.088,-22.2797 -4.889,11.1204 -3.95,46.2603 -40.632,19.3017 -50.012,-34.5131 -39.2384,-26.9343 14.6052,62.6675 -21.7291,25.0897 17.5388,13.724 28.1875,-66.9103 41.169,10.1332 40.436,13.6329 20.188,9.8293 -33.598,20.2679 -27.139,7.127 -30.267,-5.109 -52.5656,-34.098 12.9199,19.655 19.2787,-1.182 2.523,6.513 -2.091,-10.0604 2.577,17.9274 L 83.4411,86.2652 65.7503,53.6962 50.7838,56.7735 92.0551,38.3198 124.585,77.4263 94.1053,74.4092 83.0312,60.901 124.946,33.0693 l 2.09,4.6906 -34.8443,38.9356 7.8233,-5.5228 -3.5219,-3.6706 64.1629,4.2532 -50.535,-13.5884 20.704,3.9412 L 84.8417,27.2275 69.7748,66.131 66.1269,71.7135 91.2298,101.346 85.2929,78.7057 70.9109,101.101 81.6929,64.3153 123.557,46.9745 78.8784,25.9653 l -0.0358,65.7078 21.0797,6.3333 -16.0208,22.1606 16.0208,-15.745 40.6367,-9.8152 6.968,-30.4214 11.756,44.9206 -49.832,16.242 -38.6373,-23.18 10.1085,11.295 -9.1644,-18.9636 -2.0231,6.2306 16.0187,-11.1059 -35.7641,-20.1483 16.0221,6.8117 -8.9482,9.4739 5.3168,0.2214 45.547,1.1594 -7.845,7.3979 -0.4812,7.1049 28.2622,7.125 -56.4794,-5.621 19.9299,5.116 9.3085,-40.2914 21.056,37.7604 57.473,-31.8071 27.284,-3.1705 -23.143,17.2893 38.092,-22.6953 -23.567,29.8219 33.801,24.0547 -6.362,0.95 5.613,-10.307 4.563,-22.0533 -51.952,33.6483 7.44,-5.41 4.106,-12.974 -50.46,6.526 -20.044,-7.361 -1.628,-20.3616 17.33,-12.0741 42.018,40.0727 12.197,-35.5754 18.391,14.6778 6.416,16.8416 L 205.263,128.76 163.279,109.75 145.644,73.7033 134.805,89.1388 99.336,57.9475 131.314,16.4473 121.273,18.7922 107.928,46.143 114.139,18.0462 92.399,24.0946 68.7872,77.3707 63.9882,57.1679 64.29,97.6799 56.7966,76.634 85.672,87.2874 69.3504,106.072 52.1261,79.4891 47.2835,60.9776 96.2221,48.0892 83.0774,20.7651 77.7226,42.3279 121.776,19.7063 80.0793,54.8422 112.32,60.7955 90.6196,86.4211 52.1663,60.2232 l 82.8897,35.0804 108.153,-5.0015 56.415,27.8299 -46.766,9.96 -4.994,-8.657 21.345,-13.495 -73.6,-11.75 8.345,-15.6477 17.396,-34.5044 17.508,46.9843 21.053,-2.8271 42.488,21.8799 -22.292,10.765 -13.67,13.757 4.562,-10.43 23.809,-45.3779 -28.694,-7.4349 -4.665,17.8672 37.482,24.4186 17.623,-2.777 -28.25,-18.1851 21.498,-2.3307 12.321,24.2828 -22.455,10.212 -13.993,-21.467 -10.514,-12.2396 6.603,-30.8407 22.64,-43.4545 -6.176,42.1289 11.505,17.5504 -42.069,-47.3082 16.704,4.9981 9.1,55.0321 1.845,-0.6693 -34.42,13.8278 55.318,17.305 20.502,-12.194 2.478,20.872 -10.496,1.421 4.132,-6.899 -27.461,-43.8723 24.001,10.0216 -0.684,-2.2908 26.12,-18.5165 5.553,26.9291 10.716,-12.5842 23.896,-18.9296 25.912,-1.7175 -6.503,30.887 -10.581,-20.4211 -57.654,12.9324 -45.912,-19.9104 -39.787,26.9396 -12.264,21.4787 18.667,-24.0423 2.21,27.8863 29.467,2.399 10.266,13.04 0.806,-21.278 -42.235,11.888 -38.952,-11.841 -0.109,-49.6532 52.67,-14.6456 9.659,-21.0736 -13.19,4.4545 3.804,21.8856 14.295,-7.7859 0.862,46.8673 -2.392,-7.9176 -32.695,-54.3988 -15.906,17.8849 37.954,6.0369 15.222,22.4163 25.585,-39.4256 14.741,-5.6161 5.161,11.6028 -10.984,-8.9243 58.7,-4.3786 5.753,6.8329 2.391,5.9317 27.877,0.2216 15.636,-4.9449 -6.687,16.8664 -37.422,1.0688 -39.862,2.3845 53.3,44.008 54.155,-4.9559 -0.314,-26.5633 -25.233,22.321 3.417,13.7342 -10.634,-11.1915 -27.963,-14.3832 11.392,-22.9027 -26.814,4.9802 26.117,44.1932 -30.708,-7.8611 25.182,-49.7626 22.081,-8.7129 -6.054,6.7784 26.745,5.1541 -14.782,23.578 17.447,11.0426 -21.611,29.4275 -20.209,-8.942 -4.769,9.261 -16.494,5.956 -44.304,-22.9586 -4.298,-0.2103 -38.599,13.0299 -16.458,-48.5027 9.455,16.2591 -1.759,6.5331 -7.6,7.2617 -1.275,-19.5016 12.255,-59.0646 -47.836,43.0218 -51.925,-13.4616 19.023,-23.4506 21.054,17.6881 4.143,11.1921 -4.491,-4.7946 24.417,-2.8411 15.134,45.543 0.154,-22.6451 -2.938,9.0234 -10.017,44.2976 54.265,0.137 4.854,-60.1326 -25.926,-10.3605 -6.675,23.817 36.059,-17.0702 -6.692,0.0047 -47.022,-23.8466 23.71,4.003 -37.873,9.234 2.733,-20.0563 -10.235,11.977 -66.707,25.018 -1.107,2.9078 -23.622,-1.0297 -32.398,5.5123 -6.309,-40.6247 -10.453,-6.3054 11.275,26.0418 14.08,-28.4998 -17.78,-5.9779 -31.1397,50.4042 -13.3278,-30.5705 -30.7971,45.197 28.7785,3.983 11.5196,28.5024 15.1625,3.513 3.435,-10.581 -26.8366,-1.584 37.1356,13.987 -7.858,-19.8861 -18.3553,21.0801 75.3983,-22.3114 38.826,3.9867 45.852,18.1357 -6.703,-42.928 -1.222,20.5079 -53.863,17.1771 14.652,-14.6965 51.682,-11.3517 -25.061,-37.8678 -36.318,-15.3778 -2.803,-14.5838 49.167,32.0167 14.935,2.8111 -67.143,-6.1338 9.153,-13.1973 14.092,26.3926 54.136,27.4559 39.747,-26.7341 0.083,-5.0861 21.843,10.8968 6.974,-24.6593 -43.591,-11.7085 13.732,12.4807 -60.299,28.1929 46.043,2.4835 -58.339,-19.3265 -19.062,11.1575 27.2,-37.3101 5.088,-7.3996 12.052,-0.9926 -26.578,72.0242 44.855,33.1146 -8.36,1.533 -83.835,6.841 37.56,-7.686 0.919,-0.895 -9.025,-30.6591 19.878,-36.9231 -36.096,-40.6539 69.537,16.2998 -24.326,18.6201 -3.147,38.553 -29.596,0.5249 21.323,-34.5134 -55.414,29.9494 44.743,-36.6836 22.797,21.1657 16.167,36.9092 -14.237,14.975 55.87,-46.1529 30.913,22.9445 8.733,32.1304 23.745,0.305 -18.048,-46.3996 29.259,32.1356 -12.068,13.102 -20.467,-37.55 21.4,39.56 1.924,-49.0735 9.231,8.2708 1.862,4.293 -37.869,6.7637 46.256,-52.9656 58.618,23.1634 9.475,22.9836 L 428.476,83.9479 463.04,81.79 390.762,80.3893 355.845,61.7874 387.799,81.7569 361.034,95.6004 325.543,81.579 l 15.734,-13.4438 -30.584,30.3146 33.715,3.4292 53.41,24.867 22.899,-31.716 35.741,-42.6372 2.683,10.2091 7.286,12.2326 -0.086,8.0335 -19.395,-11.3616 -21.526,14.6114 5.672,-22.186 -12.04,-6.9003 -40.635,-16.8047 -28.256,-16.1831 22.997,17.8657 -38.125,29.1455 14.242,-26.7374 2.608,2.831 28.673,-13.5374 25.797,32.0787 26.849,13.9572 27.361,-5.6041 -5.739,-1.4147 -24.753,1.3066 -25.479,5.4621 -23.49,-23.3726 -11.167,-7.5672 -32.017,37.262 -20.238,-11.5238 -28.821,18.9156 -12.04,4.4201 -13.857,0.6736 -20.08,18.7184 -19.701,-15.756 -16.696,-27.5504 31.256,21.2443 -53.966,17.6591 36.791,-36.2082 -37.613,-38.6253 5.369,48.6846 -48.288,26.8629 -24.526,0.622 -31.5031,0.499 L 118.738,93.2036 108.096,37.8777 56.8184,82.6716 67.6533,107.77 102.4,72.1179 46.4292,87.9449 77.1117,83.6613 54.1128,46.5958 103.45,64.2981 76.0891,55.5803 93.0838,98.8166 90.5224,82.8137 l 28.1226,2.8282 11.987,18.2221 18.424,10.225 26.25,-6.362 L 170.87,124.59 114.864,113.281 130.258,95.3139 132.42,44.3144 106.249,30.3129 74.1263,47.4973 56.6245,64.3167 55.1448,58.8922 105.087,97.1066 153.26,62.3403 132.208,34.2477 l -22.837,-1.2096 -5.842,19.5312 -28.6279,-20.078 0.2228,4.0591 -4.3301,47.7915 -9.3398,-8.9074 28.5473,39.1505 53.5557,-51.4607 -35.991,7.1542 -5.244,24.9303 -9.5686,34.3402 8.2436,-13.618 -10.7436,8.954 3.242,-1.337 37.5086,-46.1324 53.603,-8.299 34.701,-27.5574 51.374,52.4852 75.887,10.9726 2.617,-5.0279 26.644,-53.1957 -7.303,-18.7673 43.874,-12.3716 -26.276,8.8936 -3.312,53.6236 0.099,-21.5298 -4.633,47.1771 -45.864,-14.5847 10.634,-6.0353 33.273,-2.681 36.729,3.8347 37.126,4.9174 9.909,-12.2161 -11.804,-21.039 0.667,-2.0803 -25.413,0.6981 20.706,-1.0082 -29.774,-10.2521 30.902,-16.8194 7.227,20.2395 -1.059,22.3646 -32.257,-13.3911 11.773,-2.4053 -11.885,-12.2454 22.387,-14.1458 3.398,47.0278 9.275,36.4746 -23.503,-47.3846 -17.641,25.7577 20.562,33.2069 -7.94,11.056 -11.835,-14.101 3.831,-7.328 37.038,-12.098 -3.369,-7.673 -19.899,5.6426 18.116,1.5103 16.087,-31.9724 -20.855,-11.1405 -68.013,-7.6667 10.459,-2.8198 13.809,-10.1483 6.64,-17.2603 -8.647,20.6393 16.281,7.5415 33.916,7.5298 -50.347,-18.9913 -5.283,-11.4399 10.717,7.5601 -5.094,-9.1158 -4.688,14.7045 7.665,39.7658 -55.654,1.6678 46.494,38.8543 38.503,-51.6198 23.948,-3.7708 -8.11,0.918 -40.645,-13.7822 17.948,8.7003 -18.374,-5.6115 63.492,19.8903 -7.477,6.5508 -12.004,-14.0342 8.061,-4.4731 -29.218,5.0481 27.461,27.8765 -22.197,20.5506 -5.781,2.934 0.099,-32.9799 6.42,-26.6809 0.437,-20.1937 -31.801,33.0124 -10.076,-17.7933 41.25,34.6298 -18.886,9.1935 -53.775,-11.9882 -4.649,20.6183 54.898,-28.1923 -26.919,1.7601 50.715,-20.8921 29.664,-5.0431 -20.762,11.4573 -19.11,-3.2488 -35.356,21.3964 29.362,-11.8614 -44.221,65.1089 72.054,-18.792 -14.965,-15.224 10.605,-31.6623 -34.824,37.4873 -48.817,-30.5045 15.134,-14.7869 61.18,6.5133 -14.986,-40.2319 -17.35,16.7659 32.353,44.3924 -17.537,-39.1463 -3.421,18.2571 25.682,11.4856 4.349,5.7748 -13.742,27.4035 -10.366,13.996 4.433,-26.4933 -31.684,21.2063 -3.617,-43.4644 15.215,-14.0728 -9.909,-24.0822 -55.982,42.8473 37.846,-30.309 -1.029,-5.2589 12.207,40.5115 10.245,-42.8739 -25.01,16.3235 3.091,31.1539 42.966,11.237 -6.386,-8.3847 -11.778,6.1127 -10.946,-1.9559 -6.036,-6.258 3.253,16.3879 -10.996,-1.877 -74.246,10.762 -36.678,-34.705 -5.669,29.696 -1.602,-19.4814 6.805,-14.2857 -48.428,19.2589 -13.42,-4.3415 -12.006,-49.5755 -19.499,-16.8991 1.375,-8.145 15.696,2.7498 L 164.8,17.3137 140.709,52.0075 127.794,27.718 84.2516,62.1034 110.307,92.7544 70.0115,85.8929 111.527,86.2535 110.126,95.9863 128.56,63.1202 99.5706,127.999 105.586,117.874 77.9137,101.435 89.5521,89.3046 106.658,89.3424 83.3124,42.0051 l 19.7376,5.3203 17.671,6.2221 -40.5059,46.6145 29.5269,-28.8521 26.905,-10.7997 40.804,-12.4429 0.338,-7.9104 -1.921,-0.3006 0.534,-13.606 21.126,66.3251 -1.642,8.5046 30.236,-32.9314 -1.599,9.6572 L 213.48,95.5661 184.82,81.412 204.317,70.1601 199.867,75.2109 178.6,25.8275 191.247,49.4872 179.372,101.051 167,59.372 l -7.517,25.3494 34.931,0.7834 -35.335,6.2257 -32.199,15.8925 -11.127,-42.1381 4.524,-36.2036 -42.7335,41.8454 12.2348,-26.7 -23.6534,52.4355 35.2131,-6.0893 44.188,2.8933 -33.435,-49.6901 38.921,13.5161 9.446,35.9772 9.269,7.8826 3.353,14.483 1.564,-8.592 -26.018,-6.14 10.454,-31.3045 -42.541,34.4465 -27.9416,-2.52 46.1996,20.449 -7.08,-15.162 -18.993,-7.178 0.615,-29.3648 55.502,40.7028 -7.571,-44.4852 40.31,-14.5995 -64.355,-10.3052 -11.513,34.7567 25.128,1.6099 63.43,37.7903 21.935,-9.031 86.561,-0.788 20.276,-17.146 6.633,17.203 2.738,22.007 -7.619,-0.679 25.691,-6.99 27.014,-4.258 26.891,-15.036 -18.158,3.266 -20.782,23.26 14.923,-16.592 12.52,-5.913 -17.612,-42.0995 -45.622,-22.4252 45.145,-17.9904 -28.235,-9.064 -20.172,10.1718 20.127,14.3636 0.295,-14.6369 -7.714,2.7045 -16.259,6.5477 9.832,7.7507 7.215,-10.3029 1.253,-14.5573 68.1,0.6934 -51.433,16.2964 20.64,8.4715 -16.546,0.5511 24.527,40.2221 -55.055,4.4379 52.435,-2.5202 -22.339,13.0657 29.262,-22.7777 24.914,-17.2371 -68.312,6.8691 9.121,-14.7235 -19.398,9.0775 -15.307,-26.3182 -24.855,38.9526 5.838,7.7283 -10.104,32.072 19.498,-10.564 19.922,-5.9412 -1.588,-1.9377 64.836,0.9833 11.575,22.4976 19.746,-28.3581 -7.112,-35.3414 14.047,10.2911 -12.766,-8.9697 -9.422,15.3382 -14.128,37.0539 -20.479,-25.0519 -6.015,-26.4275 4.111,4.6109 L 339.382,42.056 322.543,31.8942 298.627,30.6948 325.428,63.547 313.02,91.0959 248.796,34.7698 l -0.494,13.5447 -60.036,-20.6288 9.589,5.7861 5.84,17.4205 -8.541,-14.6703 47.435,-10.9534 0.791,6.4354 23.213,21.0997 35.356,-16.1675 22.27,-17.9079 6.916,37.2694 48.595,-17.8276 28.796,-1.1996 -12.922,6.0187 20.04,20.2625 40.263,-0.6624 -14.326,-39.9725 -12.376,27.1487 -10.968,-9.6142 -17.834,20.6892 -12.421,35.4806 -14.688,-17.0213 9.765,-10.0775 8.671,-23.4858 20.423,18.0912 13.924,18.8827 -17.269,30.4166 -35.982,-33.2744 12.14,-5.6778 32.455,23.8688 9.951,0.0901 12.083,-12.9477 8.372,-25.8876 -4.388,-11.4911 -53.166,51.3278 1.563,-48.3037 31.229,-0.4868 10.599,20.0834 -9.323,-2.6205 12.91,9.7063 16.741,-9.6256 -5.035,10.4664 -54.931,3.7387 -33.997,17.5005 34.898,24.6392 -17.88,-0.748 41.189,-12.688 -39.283,22.405 36.084,-15.47 13.116,-19.9596 -2.521,-47.2051 -4.114,-26.3968 -0.788,32.5269 -38.496,21.9797 63.547,7.9144 -19.718,-26.7254 2.944,-16.4278 -27.5,22.4819 -36.403,9.0017 -27.881,8.7174 61.693,22.5327 -2.634,0.116 -23.717,-30.098 30.074,4.291 14.238,24.076 -5.54,-1.555 19.219,-6.2192 -15.942,-35.4437 33.509,-24.317 -5.175,37.444 13.342,23.6337 -16.797,24.0902 -27.518,-0.986 -1.86,-70.2325 -46.279,14.6156 9.799,14.124 -23.066,29.5179 -5.85,-8.544 -30.245,24.55 29.588,-24.024 21.605,-30.467 17.634,-15.547 -17.496,-21.8882 -11.269,54.1514 32.639,35.1278 -7.905,-18.281 -22.394,18.578 -24.497,0.908 -13.915,8.625 -9.665,-41.9749 -2.13,-0.2852 -29.236,-1.9353 23.244,-22.4532 3.845,-3.497 7.838,-32.5731 65.171,32.691 -7.13,28.6662 -24.067,-5.4787 -7.622,28.1392 12.026,-32.8277 -30.234,-8.6966 -81.835,-5.395 -10.208,-6.6216 8.514,-20.5637 -7.369,12.2718 -10.993,1.8805 -10.915,-2.6973 25.143,19.9012 -11.506,-23.5709 9.496,17.3755 -16.541,15.9408 6.489,-14.184 35.081,-11.6544 -27.013,-19.9439 28.743,-0.4286 13.713,-8.8047 25.307,7.089 24.906,5.0634 15.136,45.1713 57.131,5.9268 21.678,-55.0961 -4.54,17.1634 11.899,-11.7127 33.23,9.2538 -42.454,-15.1295 8.007,-5.2038 3.77,12.1148 -36.006,29.7747 -41.436,16.8886 34.612,23.7539 0.511,-38.2566 -6.926,-45.0069 5.331,17.5026 41.637,20.9427 38.415,1.3416 -36.835,-13.8682 30.696,-3.7219 -42.844,16.3877 25.815,-30.6294 21.569,10.2445 -37.122,9.0551 44.191,37.4803 -3.454,-28.2883 -41.591,15.0217 -58.438,-52.8293 60.239,-10.0198 28.37,26.9749 -0.508,12.9415 -16.483,-6.237 17.786,50.7818 -16.765,-9.1954 -10.551,37.7784 5.344,-20.886 7.633,-19.8686 -21.855,-28.5322 -11.086,-4.8375 -11.361,10.5301 33.746,11.3745 5.296,-16.3455 15.867,18.8597 -26.22,-7.3916 -0.197,22.7908 -17.203,24.6323 4.62,-31.0639 18.37,37.8039 -3.744,-24.069 -1.75,19.545 2.816,-17.018 27.448,-13.4015 -4.631,-0.0651 -28.703,-25.1552 -25.953,-14.7276 7.085,33.3666 -75.474,19.0538 22.768,1.904 40.355,-15.0698 -21.415,8.6254 42.968,-43.7987 15.639,28.1099 -12.707,-12.0858 -30.06,10.3063 24.783,7.8946 44.226,-15.4134 13.85,-2.6397 -23.281,-17.0375 -42.266,39.8869 21.776,21.2468 -11.813,0.01 -19.15,-34.3604 17.97,29.0044 -27.099,4.88 -12.765,-44.9174 3.455,-15.1621 43.557,10.2889 -23.8,-8.6573 22.133,-0.7405 12.568,40.9416 -17.742,1.365 -3.587,8.4878 39.051,-52.9567 -23.513,6.1711 6.058,12.367 40.963,0.9433 -38.913,17.1598 -9.901,7.5728 -11.733,-30.785 -2.887,-0.1576 -7.092,-17.7535 0.855,18.2496 42.887,8.1514 -20.172,-42.5983 -0.802,-8.2924 -7.5,7.9572 23.461,30.0565 18.81,-21.0871 2.576,19.9045 10.048,12.8092 -10.735,23.9227 0.11,-5.6461 -24.235,29.8556 -16.405,1.888 50.23,-28.8236 -12.911,-37.8116 1.482,1.3011 -18.517,-6.9252 19.632,-2.6892 -22.769,26.0805 -79.041,-20.887 6.457,-37.6693 17.776,26.1464 -39.187,1.7845 3.936,-25.1244 -11.154,15.7601 2.118,-16.7093 -15.515,2.7926 14.172,-1.4085 34.184,55.4174 -27.553,-39.6004 30.398,-12.3928 -17.759,-4.3718 -14.959,22.0741 58.743,11.4075 28.653,10.5835 34.523,-15.2091 9.123,9.4104 -17.496,1.2786 12.713,24.7678 -38.595,6.2575 -9.777,-12.2915 47.774,0.1427 -39.626,49.548 -22.78,-35.742 -12.406,-16.4211 5.633,23.7975 -18.08,36.5866 31.469,-12.396 17.613,-33.9385 -9.163,5.7983 51.104,-18.922 -40.72,18.5324 -17.97,19.8828 27.822,-43.9835 -19.147,21.0559 11.388,-22.1013 30.959,20.4235 -14.563,7.0829 7.774,-13.1383 9.636,-23.597 -0.56,15.5374 -15.789,-27.8919 -11.319,21.266 6.554,-14.9448 -14.456,-9.1154 38.16,10.5489 -25.702,-2.9365 12.946,15.4436 11.355,19.6914 -35.662,-52.7707 17.105,33.2842 -8.879,-27.1999 23.253,36.3678 -2.192,29.7377 -23.587,16.36 7.007,-6.251 0.314,1.217 -19.365,-37.9343 13.642,22.3003 -4.106,-9.2593 -47.124,19.6063 7.166,-8.362 12.539,18.953 12.28,-15.417 -8.046,17.947 L 363.628,68.7042 357.412,94.4605 311.23,80.0818 288.307,103.329 258.6,77.5336 257.972,96.9951 240.668,82.856 l -41.674,12.4074 2.08,-6.3789 -18.883,12.6165 13.972,-64.7131 20.847,5.0827 -25.599,29.0836 -50.04,34.1188 -2.167,2.128 19.059,-3.697 5.017,19.673 12.268,11.035 -24.623,-4.353 2.536,-3.256 -15.529,-21.088 -1.913,6.929 4.822,-73.2529 -21.221,-10.4652 12.708,-6.5927 36.124,38.6374 -13.251,9.9551 -3.277,-6.9966 -49.325,-11.9188 13.627,59.3227 54.712,2.595 -20.474,-29.2378 -25.691,4.7928 -2.361,14.794 8.087,-4.7458 29.266,-41.8663 21.898,45.5541 -3.039,-26.7098 12.899,19.0629 6.932,19.1669 10.251,13.091 -7.101,-88.4723 0.367,4.03 -11.788,4.0341 9.915,58.5982 -37.188,6.693 41.354,-23.6343 -38.528,-9.9118 -16.811,-7.1253 4.679,32.4494 18.693,11.284 16.053,-6.632 -11.023,14.179 30.156,-45.3485 -2.942,-0.4737 -2.816,-2.6383 45.184,-10.9121 11.196,12.6952 19.499,15.9444 -16.577,-4.1691 11.135,3.7903 2.401,27.3678 52.934,10.354 -3.778,-14.413 5.789,-31.8635 2.669,18.0515 33.596,-44.7079 30.733,-24.2464 -7.086,11.6947 -18.369,-23.7201 -39.203,-4.5256 -0.366,36.9828 11.594,-6.2206 -18.437,-30.0699 13.906,4.6206 -43.858,28.0973 -5.974,30.3668 14.304,-25.4583 38.945,-13.1075 41.968,20.596 -50.039,-30.6419 16.062,32.2416 -9.593,42.9824 -13.63,-9.7367 -82.352,32.5837 52.585,4.069 -26.216,-4.396 -50.322,-49.8906 -12.598,24.4516 69.896,-3.107 35.673,24.236 -6.842,4.122 9.744,-10.427 34.556,-10.765 5.454,-8.0249 21.644,24.8949 -48.366,-14.005 9.606,-12.0769 -15.326,23.9579 -0.249,-24.8676 -26.545,-33.4387 -15.824,3.0827 -41.254,7.6476 -37.016,17.6704 -26.091,7.2526 -16.555,24.439 -24.905,-4.549 25.43,5.965 10.957,-7.697 -36.971,-3.83 -23.118,-8.226 48.571,-2.472 -36.195,-0.091 34.466,19.656 -9.521,-6.181 L 111.483,81.7621 135.557,43.0223 88.4064,94.1488 97.4519,123.611 91.3386,119.2 114.253,89.1113 170.069,90.2574 141.036,79.3802 150.729,91.3398 131.931,72.1757 79.7607,74.7692 67.366,37.9002 54.3932,48.3513 70.5389,37.3157 l 42.8081,2.8527 -47.3886,37.955 5.7737,7.2911 29.5429,-12.4915 14.497,-34.7423 14.9,-14.1601 17.95,17.264 54.982,-19.0632 -13.89,7.9652 7.444,-3.6543 -2.392,-11.8044 -11.588,8.9831 -32.502,1.7209 -35.198,13.6185 -5.098,-9.6305 -39.5936,18.3461 15.2947,6.1728 3.0539,14.5087 15.571,43.8115 -8.2987,18.333 13.7847,-8.849 46.089,-5.967 17.706,-14.161 -35.467,-19.8302 17.224,-15.0189 -3.826,-16.6336 -22.174,3.8431 31.196,26.4245 4.213,9.4865 62.835,-0.5011 -17.79,19.3597 -23.251,-4.745 -12.157,5.308 -40.331,13.812 -11.898,-2.362 -4.086,-33.5855 41.085,-31.9514 -51.849,-18.2364 33.467,-11.1426 72.709,-10.1347 16.796,34.2047 20.344,-13.2982 5.106,42.3817 21.017,18.886 32.273,-53.3518 18.733,28.7684 31.282,30.9288 -22.166,15.803 -32.315,-66.7659 -4.262,8.286 7.679,-11.2674 15.562,-14.8205 40.507,58.0242 39.661,-53.9745 -20.723,-5.3184 28.814,15.3086 -48.978,43.8623 -24.491,-38.9621 -25.855,1.6796 10.598,27.9928 -22.223,-16.411 -18.733,26.1457 21.585,-27.3001 -1.25,20.1564 29.972,-13.5462 18.519,24.4538 -19.628,6.7227 -16.875,-9.0705 -3.19,7.0065 -55.057,-11.2628 -47.856,22.6328 4.624,-23.2822 58.071,-39.6564 3.484,10.3011 -0.504,33.9884 11.738,21.9671 -75.849,-11.151 28.331,-18.3779 -28.779,11.5387 -11.117,-3.7004 -9.251,-19.6784 -8.892,46.276 20.124,-5.73 -24.942,-5.099 L 83.7441,99.7254 64.3638,117.968 48.3015,71.0286 95.5819,80.1984 112.173,65.131 l 53.226,11.5596 -8.504,-59.8003 18.149,18.457 21.055,-9.2227 15.72,-12.1913 3.282,2.0064 28.501,9.1798 20.765,25.8344 -38.893,17.7579 -30.314,-34.2651 7.944,12.6916 -2.64,68.0317 51.027,-33.4986 -37.821,-1.3555 21.343,-2.358 -18.023,-8.3107 6.406,-7.0429 -31.677,41.6247 62.681,-43.2805 -2.24,-21.2862 -23.593,2.7816 12.575,21.0402 0.409,24.1152 10.962,19.1007 24.811,4.909 -32.221,16.891 32.804,-16.738 17.694,-16.0451 5.771,-28.9625 -1.595,-29.8382 22.616,-13.7669 39.395,-6.9661 40.687,6.3621 5.485,-7.1767 15.083,12.2876 -30.81,38.4199 -16.202,7.8877 33.973,9.0389 -34.262,-40.6489 29.103,42.9611 20.27,-21.4039 -3.402,-30.0668 28.373,35.8742 -47.953,37.0686 -40.704,17.641 0.244,-73.4278 -34.659,30.7351 -48.557,0.0714 -32.007,33.1353 -7.464,-6.228 -14.205,-26.1292 -20.876,13.6981 -13.127,14.8121 -1.316,-3.42 10.937,-8.4179 0.805,-41.5404 -17.831,11.203 12.297,10.2567 -24.644,-23.5383 -19.095,-11.3469 -7.885,3.2895 -28.929,-21.8227 -2.482,3.5589 0.578,14.9567 -8.335,-18.0403 18.083,22.5282 19.494,10.3928 25.399,-4.9535 42.336,-0.9695 -11.062,7.3053 L 112.54,41.7848 80.0123,62.9277 50.6007,73.2735 66.1716,64.9708 153.137,32.3664 l -1.688,13.8555 26.285,2.889 -4.277,-5.5246 35.068,3.1332 27.004,-13.8563 -18.949,0.9172 -22.866,10.5926 -17.099,-23.0288 11.284,-5.0189 0.737,7.0508 -19.585,14.1411 -4.334,29.475 -16.139,23.3721 11.248,-27.9354 18.183,-31.2379 -18.167,-2.8925 -6.371,16.4571 7.904,-20.9661 -4.51,16.6448 -49.467,20.526 39.452,0.0965 -6.178,18.685 7.579,-13.4079 -50.0079,-29.3417 1.326,22.5781 45.2019,-6.3529 28.905,62.6086 -20.042,10.032 9.116,-44.1021 -14.841,23.2321 -31.344,4.912 -36.4402,7.328 L 94.4889,74.4505 132.209,72.9128 94.2906,66.2209 104.1,58.1849 80.4346,90.4079 66.564,52.8391 54.2304,83.9505 83.0059,95.1067 65.2142,97.5122 49.4351,75.1924 l 5.1098,-1.9253 2.0969,-24.8246 28.6175,25.1001 1.1258,-50.9186 22.7269,4.311 -10.1198,3.866 -34.1864,48.8642 0,0"
         clip-path="url(#pb0f9773547)" />
    </g>
    <g
       style="stroke-linecap:butt;stroke-linejoin:round"
       id="line2d_4">
      <path
         inkscape:connector-curvature="0"
         id="path23"
         style="fill:none;stroke:#377eb8;stroke-linecap:square;stroke-linejoin:round"
         d="M 101.413,32.5197 63.7775,61.7282 83.7152,93.6615 90.0277,114.031 90.2295,104.688 100.198,88.3736 71.5746,64.2157 58.7657,83.8883 100.247,108.791 134.391,68.5124 129.486,32.757 143.324,35.212 171.206,16.6265 138.752,39.7066 93.3301,84.716 91.9323,61.0526 113.566,85.6702 93.9482,57.4251 63.3163,44.02 l 19.1132,14.5561 -4.2786,6.3354 9.9141,-9.1249 48.821,11.8298 -38.7009,-21.9238 6.1329,-9.6291 -7.6205,-9.1411 21.5335,57.8877 29.875,-47.8993 -9.263,-6.814 -34.841,-6.8773 71.154,55.5694 1.142,-19.7371 -33.388,42.2782 -11.609,6.774 -40.55,-21.294 23.552,-31.1382 -0.03,-2.6003 -32.926,17.9527 19.221,-5.5789 -46.9569,-14.1052 26.6017,-12.861 47.3282,0.4934 -34.4392,7.8057 0.235,-32.6293 -25.6729,16.3461 -14.5128,33.8763 30.887,-33.5014 55.2629,23.811 -51.0885,19.106 -10.0979,4.5553 17.2202,0.2623 -7.6709,-20.8153 2.9228,-2.9544 51.9943,-10.456 -52.8229,36.5288 27.7039,13.4617 -0.555,-0.6223 -25.8397,-3.4291 1.5645,24.6011 32.0662,-33.7213 6.11,-8.1016 -30.098,-52.1585 -6.2865,41.7784 -3.0234,-3.4675 7.0097,45.7365 -2.1705,-85.0894 26.0617,20.1889 29.694,-1.542 14.811,43.5241 26.822,-43.3975 -25.553,2.0409 23.775,-3.4117 7.466,-14.9923 -13.813,32.1313 -4.876,42.0952 -82.0969,4.4325 -31.6438,-7.4724 45.7677,12.0424 -14.0538,4.122 -19.5783,12.671 -11.8637,-5.207 14.2166,1.478 L 96.485,98.1792 78.0443,102.29 72.4193,64.8793 65.0485,62.7501 57.711,64.8925 88.1149,39.727 77.1888,23.2362 112.872,85.7435 114.402,93.5069 81.8159,70.5572 91.5729,46.5106 74.671,43.2658 91.2464,49.3722 133.983,84.3583 129.279,109.539 97.96,122.547 87.8279,111.503 74.8198,116.871 68.4974,100.706 57.1842,87.8062 66.1852,53.5991 47.0388,71.3647 96.9805,118.311 130.765,106.955 114.901,83.6456 l 8.866,13.6648 18.637,3.4866 12.716,-25.6755 42.617,43.2685 16.762,-23.5439 -35.229,5.6669 -8.381,8.776 -15.812,4.557 8.481,-47.6354 0.424,-1.0347 13.161,-6.9163 L 155.04,26.0401 124.783,36.7378 76.4182,27.4163 104.358,35.5204 86.1354,53.6068 88.4505,30.0362 70.519,72.1835 l -25.484,-4.032 17.4722,-0.2093 -7.4151,1.961 17.6586,-30.6771 -1.6951,5.0178 1.9136,2.1116 -2.5527,15.9841 -2.4731,-3.7097 73.1906,-18.7286 -23.463,-4.3286 -20.1553,-12.7249 51.9033,13.2136 -56.1433,-2.7642 32.7413,5.5394 39.581,10.75 -0.342,2.3123 40.585,-29.5599 4.535,70.855 -20.012,38.687 -40.518,-12.532 20.688,2.04 -5.208,-92.2331 -0.713,14.7527 -21.638,33.5624 5.878,6.6241 29.846,38.2369 -12.371,5.794 1.288,-5.887 13.75,-28.4653 -33.676,21.1563 -14.167,-11.883 23.841,9.841 -94.6899,-16.1519 20.564,-3.6455 28.9129,18.1184 -42.7379,-2.417 7.1582,-2.688 32.5727,1.704 15.771,9.797 -5.989,-10.869 -16.202,-29.9745 -10.6953,39.5545 3.3035,17.661 -7.952,-51.447 -15.2148,12.8021 3.4946,6.4649 17.7531,10.237 -11.7465,7.829 -29.0638,-36.6168 0.36,-29.5651 46.4583,-6.3144 -11.8184,2.5761 -18.9599,-20.5746 25.9711,10.5572 -40.5543,17.2754 0.3463,-10.738 -5.6547,45.1099 23.435,10.2813 -10.07,-18.6549 10.3987,-4.9827 -1.3431,32.6426 49.7092,-19.9385 -43.409,8.581 18.5618,26.6795 -3.0501,-30.228 23.4923,21.442 41.699,2.662 -17.402,-28.1169 64.427,-45.0578 25.744,33.3024 19.883,-15.0888 28.262,2.7668 -19.095,-25.1989 -25.487,15.9992 -0.417,3.9554 -15.579,-10.5374 -42.018,-4.3616 -9.292,25.8032 17.245,-3.3152 -18.856,-41.0637 10.983,10.5945 38.579,47.1649 3.336,-22.1238 -17.314,5.6443 20.953,-33.9797 -9.078,14.5145 12.365,1.2457 17.138,40.6537 -5.732,3.6709 -22.717,13.4403 -42.262,-10.0988 16.037,-1.932 11.652,-10.7011 44.019,-13.3604 -11.858,9.3489 -15.426,19.9264 -10.02,3.925 5.009,-23.5558 -16.307,-37.3845 27.024,46.7316 18.864,-20.8751 -24.162,-20.7153 -0.83,-3.6235 -8.251,20.7219 74.18,-31.8889 20.158,0.363 21.596,34.0444 22.361,0.6282 -29.764,-3.5733 15.382,-8.0621 10.823,31.0388 10.779,26.6836 27.888,-18.1687 19.548,-19.0403 45.307,-10.057 -6.009,21.7863 -33.496,41.5677 36.128,-29.635 0.799,-62.1165 13.259,16.5478 -32.214,-13.7424 -21.615,-12.8082 10.135,-4.8059 -5.19,-8.4593 11.25,29.9992 0.151,28.3461 -24.975,14.942 -19.101,25.6312 8.387,-33.3446 12.073,-4.0316 19.842,-36.6992 -8.634,-4.8268 -12.966,7.7984 -5.55,42.3072 47.497,5.8516 -19.097,-9.7898 -26.87,-47.8841 21.37,-12.5755 -18.889,20.5313 -4.417,9.7211 45.682,-28.0053 -23.16,-7.6505 -8.523,12.2107 16.923,-8.9527 2.534,27.6945 15.461,-5.2408 -31.559,24.6694 4.413,33.0767 48.19,6.515 -40.851,-6.569 -13.982,-41.2102 60.942,-11.2074 -49.982,-7.0862 25.981,-3.0838 -48.115,3.9392 30.916,25.2143 5.341,-15.8748 -27.233,-8.9718 -5.724,18.6109 8.867,37.2708 -22.299,-10.3342 -10.258,-18.3077 67.429,-6.1774 -16.871,-0.4726 37.853,-1.5881 -15.512,19.7716 22.079,-3.6084 -17.857,6.3753 -24.282,39.4945 15.156,-5.503 -12.908,13.063 -17.135,-47.2406 -12.888,-2.8733 0.331,6.2066 -14.385,-13.7241 -34.863,25.6304 -23.808,0.645 -2.215,-15.1274 -36.344,-22.1149 30.126,-28.1041 -36.952,19.0276 -9.12,-15.1882 -0.098,-13.012 25.447,42.5185 19.027,-12.1602 57.869,-16.0131 55.374,42.2981 0.838,4.7686 8.269,-24.7121 -32.826,-9.6279 -28.714,15.542 9.284,-17.1836 0.591,12.2305 0.009,-18.4352 -7.742,25.7165 -28.963,-20.1402 -30.378,-2.989 27.518,-13.5902 -21.582,-4.5527 -21.179,-9.1856 26.312,27.4764 2.735,-25.3194 63.915,22.9432 49.398,-1.9647 -20.223,53.0437 -9.263,-31.8349 16.557,-1.1875 -5.811,54.1888 -31.451,-9.048 -4.426,-21.4296 -8.026,13.5956 -19.417,-5.5604 65.388,3.8574 -9.727,22.892 -2.13,-55.2954 15.758,-22.2079 8.786,3.4194 -40.696,-3.839 -10.403,-10.3259 -35.22,10.4245 -21.232,2.104 -32.62,-27.0349 10.497,13.4881 9.77,14.4352 1.301,26.4088 -3.844,-3.094 33.701,4.7024 42.919,-9.7727 -2.386,-28.0525 14.383,-6.9979 37.518,-4.4241 8.381,10.4508 0.357,75.8751 -4.208,-34.6071 -27.872,24.3911 13.937,2.665 -39.183,-7.6336 -22.658,-7.7787 14.084,-29.5681 -30.33,-2.6526 46.194,-4.6824 -46.06,19.4385 -29.059,-27.9899 47.575,-25.1371 61.144,19.1899 -11.143,-11.9106 6.225,9.9876 25.91,22.1922 -26.454,-31.8159 20.427,34.584 11.591,14.2257 -24.369,-18.0835 -0.118,-11.1744 -6.228,-20.2618 -14.506,15.2855 30.918,3.0241 -23.577,6.9031 4.837,-12.3442 -23.974,-17.423 -1.885,15.9985 0.189,-15.9754 -13.011,16.2063 4.654,47.6771 -33.969,22.1487 -18.885,-35.7515 26.677,7.8849 30.346,-10.8469 -45.625,1.1182 -10.179,17.8355 -11.85,-18.3836 -43.873,-38.0129 -0.839,9.5412 -53.279,4.9345 1.445,-10.4596 24.166,7.2363 5.3,-12.392 -0.652,67.9511 2.584,-8.3304 24.702,29.4972 -28.571,-17.806 78.33,-0.468 -41.931,18.343 47.673,-14.587 4.833,-73.3746 59.5,-10.917 -11.124,36.8804 28.742,7.308 -25.801,23.6231 -13.195,22.0081 -1.646,6.836 -30.1,-40.922 -8.274,0.345 -6.825,44.599 -27.662,10.354 28.787,-22.892 0.751,7.522 78.11,-16.121 22.383,-17.0958 -5.242,4.7214 -5.108,8.4198 -13.404,-23.4756 22.666,17.9307 2.653,-26.8298 -10.525,-41.116 2.613,24.1484 -21.517,54.6309 6.305,-32.156 17.469,3.0515 17.166,-3.8906 -10.245,-31.1909 -12.962,18.056 1.778,15.0703 14.371,-20.7596 -21.113,43.6025 -19.651,17.2388 21.095,-53.1434 10.459,10.5889 -8.941,-33.4386 -42.158,-6.675 61.07,62.8454 -14.756,-44.4787 -35.441,-20.0448 15.394,19.8615 0.992,18.7544 11.284,-4.2112 6.578,-39.1985 -0.572,29.1525 6.45,-25.9924 -17.055,36.1743 6.83,45.6236 25.77,-26.5795 -16.355,-34.0972 2.964,-13.903 -20.579,12.9586 -24.03,33.1731 -14.428,-17.3512 -77.82,10.6601 -11.735,-4.3612 -13.82,-16.2874 -46.864,1.1702 6.747,-6.9222 8.809,0.7217 -2.955,14.8471 -24.795,-4.7731 -17.153,13.8592 30.975,-19.3571 -3.654,20.1006 12.956,14.2944 6.888,16.6649 4.805,-73.9916 44.517,44.8444 28.052,11.826 -49.532,17.0262 33.157,-40.2899 -41.216,61.7589 24.874,-25.4499 -7.762,14.7329 30.273,-3.729 1.348,-79.0947 -29.678,0.4802 -29.301,25.8893 -21.566,-18.5268 6.615,-6.3315 56.55,52.1617 27.492,-21.7224 -1.672,-23.2535 96.452,-14.272 -0.91,18.9389 -19.075,24.8679 8.867,1.3805 -3.23,10.9366 2.104,22.3628 -10.497,-23.2651 5.754,-4.1845 5.112,-28.548 16.553,-20.2832 28.851,44.5682 -36.797,13.7313 22.254,0.564 -28.847,-50.7051 -26.696,50.0492 -22.047,-10.127 -11.679,18.8785 -1.079,-6.071 9.887,9.8163 50.486,-22.9095 -0.255,-12.969 47.448,25.9327 1.783,-16.5508 -10.875,-32.9516 5.234,11.3932 -30.863,-13.8055 25.515,2.54 -55.641,24.9162 5.543,30.1634 13.279,41.1413 7.156,-14.547 8.377,-37.9731 17.352,-16.727 -12.006,49.0731 -35.819,-55.0973 40.127,26.8387 22.904,6.2996 -6.036,-23.3884 -23.29,23.4213 14.215,-10.7965 0.746,-23.2277 9.797,47.4443 -33.356,6.336 16.541,-29.9941 6.589,-47.4469 -41.646,-13.0826 34.372,15.3891 9.302,43.4605 -4.975,-1.9397 -1.866,-45.625 -16.024,68.3107 -72.638,5.004 -13.223,-44.5616 -2.07,-23.6757 -0.746,-1.3023 9.567,7.626 -44.209,29.8989 -25.727,-21.5716 30.334,14.2233 36.827,11.3629 21.692,20.5437 -5.231,-18.4147 -62.758,-24.9923 -19.716,-2.3553 73.268,31.5552 -24.158,17.8795 35.453,-3.8545 -0.872,12.8995 -17.544,14.751 19.848,-80.4329 -54.724,-1.2859 -17.114,-2.3765 -11.85,3.3064 6.603,11.945 -15.081,16.9952 -17.34,-4.5683 6.422,-13.5301 -19.189,5.4157 24.09,-34.0341 9.329,24.8917 4.406,33.0241 -15.013,-43.2558 24.383,-7.474 18.587,35.3146 37.846,11.9522 -15.462,-12.8125 9.211,-9.6547 -26.434,-14.5589 -6.617,11.4616 -28.454,-22.4682 26.253,33.7564 -31.813,-13.208 19.383,10.9027 0.823,38.5013 42.586,-14.7965 48.124,0.9816 -2.18,38.0109 39.079,-38.942 24.685,-47.4024 4.778,24.0405 0.854,-11.364 -33.811,-5.0058 -12.784,32.2548 29.951,-19.4497 -7.766,-24.2307 -0.481,11.295 -38.895,33.0063 -65.226,20.441 -1.403,-40.7305 21.274,-9.7143 -6.627,-12.4561 49.699,13.2221 -51.195,8.071 -4.776,-21.5645 -18.267,14.4195 -7.122,0.2626 6.797,-6.9683 9.678,12.1137 -46.727,-23.9181 -11.538,-14.6775 3.46,25.4589 -1.751,34.974 -18.951,12.1219 7.334,2.7205 -19.849,-23.629 -8.612,-34.8337 34.083,31.0469 32.084,-31.0959 11.215,32.6001 -3.882,21.5663 7.152,0.8849 40.734,-33.5314 -34.013,9.7906 10.767,39.8663 -10.011,12.598 14.455,-46.4337 -4.648,-21.6082 -49.25,-2.2871 14.08,7.3799 25.989,0.2309 50.077,-12.1061 8.688,-4.735 -10.871,-23.782 -14.183,35.699 -21.112,36.1337 -24.163,35.1536 -11.135,-40.5487 -12.072,-24.578 -26.86,7.4491 -7.399,8.5078 27.033,-10.0566 -19.457,-25.2528 6.787,-11.2985 -50.241,24.6289 1.374,22.5477 83.702,11.1244 -79.834,-29.5737 26.736,-29.6965 5.616,-3.5909 40.439,49.782 44.696,-52.1873 8.151,6.9532 -25.47,20.1255 -17.499,58.8134 -27.767,-10.3469 9.8,-32.0369 24.394,13.6986 -3.729,-10.1635 -53.993,0.1495 -5.257,-7.6345 16.615,17.5068 -37.873,-8.1099 -25.221,2.2088 -20.153,-6.5568 32.03,28.7372 -46.774,-11.6692 49.618,38.0178 -43.818,0.786 3.762,-19.772 -26.164,16.711 L 139.45,92.2273 97.3764,113.826 150.636,66.4452 121.628,38.2864 88.014,46.1791 72.451,55.5368 68.953,70.7849 77.4954,29.6003 97.8833,123.325 71.5634,111.817 l 8.3955,-2.968 -9.5109,8.472 30.528,1.296 15.284,-2.037 -42.2144,1.179 16.2236,-5.912 L 80.1839,69.654 66.8818,44.2975 86.0112,63.9342 136.582,125.344 151.077,58.3504 139.719,76.3821 201.942,48.1463 177.889,35.3176 l 4.387,46.2428 -4.263,-32.4104 18.586,26.3191 -22.297,-8.9114 12.134,-38.3488 7.798,23.9659 1.375,53.8102 -6.401,-6.1286 36.682,6.5016 -47.083,-15.4656 5.566,24.1476 -6.031,-23.7365 -36.077,6.3847 -8.389,29.0678 31.506,-17.393 19.325,11.064 10.156,-6.277 29.612,7.441 -53.283,-11.594 29.051,-3.841 75.635,19.288 -41.038,-9.824 -36.017,-5.683 9.953,-35.0153 -20.043,-4.7104 23.997,-1.8589 10.966,18.0517 6.053,-32.6277 -4.693,36.5748 -11.469,42.2288 46.235,-52.9361 -11.474,7.7948 -68.58,-43.3903 -2.496,17.382 -13.83,41.5286 16.61,-8.4203 -9.845,-10.4485 1.206,25.8678 -51.893,-6.71 -18.38,-44.1978 14.865,3.1136 -47.874,31.0216 5.3185,-1.0075 -10.6637,15.0041 -4.0361,1.84 35.255,-45.0433 -9.8215,-21.2254 1.952,-6.0662 42.7808,8.3265 13.136,-5.7679 19.649,-8.8663 5.68,4.1625 -16.785,-7.7675 -2.068,8.0227 -32.101,10.5564 -7.486,42.3704 -30.2093,-15.8496 -6.9264,8.074 13.9414,24.6487 -5.1596,12.137 54.1559,-35.4916 29.734,1.3355 7.778,0.8236 -2.951,-37.9659 6.902,-18.1942 14.081,1.0903 -1.581,4.6107 -13.481,17.852 -61.69,31.5314 21.786,-40.3175 -2.928,24.6367 -39.919,-21.8362 9.621,7.5398 13.198,9.8746 -12.333,-2.3527 -8.3409,17.9896 -2.6057,7.6147 16.6446,9.5651 L 79.7732,42.4047 92.7551,36.7925 139.753,51.0193 117.565,41.7248 119.11,14.0294 61.6223,44.1731 69.8572,34.1326 78.3117,60.5196 59.5125,52.4459 54.23,74.3038 71.991,109.461 89.5629,74.5572 141.316,39.0809 l 0.042,16.933 -72.6976,0.7155 9.6088,29.8714 -1.7311,-0.4248 20.726,35.139 -3.6233,-11.901 24.6332,-0.568 -12.457,-12.0119 43.103,18.1719 -3.91,17.848 30.553,-26.687 22.328,-1.015 -28.254,-36.0974 15.11,9.5995 -17.864,6.4963 -4.072,1.877 -19.47,-11.0698 -72.1402,30.5424 1.9078,0.669 24.2298,20.764 9.0986,-36.2804 -7.8562,30.7574 -12.0319,3.683 -1.1614,-27.45 -15.7018,5.362 36.1493,-12.7044 -28.2585,1.3241 -4.9536,-5.9364 37.5411,24.0697 23.024,-16.252 7.319,-15.142 28.711,13.8995 42.359,29.3065 0.151,4.604 29.556,-22.327 -41.192,4.961 -27.39,-11.1861 48.222,-44.0086 8.019,-18.5209 25.231,16.4754 31.551,10.843 -5.898,-6.9319 26.642,4.8065 -16.759,-11.6694 -15.973,42.0266 -3.772,-13.0152 9.138,-58.4397 35.888,-2.9942 -16.775,17.216 -2.154,47.4223 -23.213,-0.6232 31.645,-27.182 -2.952,-27.1136 10.213,12.3728 -37.093,16.9139 -11.722,-36.6024 -2.495,8.7037 17.219,0.3312 1.599,70.944 32.371,7.9598 -37.493,-12.562 14.597,-31.9294 -23.381,31.6737 -5.702,-10.8466 3.862,11.1418 -5.849,21.8865 21.53,-77.3479 14.286,45.666 -18.221,-3.8984 1.082,0.4543 -17.817,-24.3681 3.565,18.0659 18.019,-29.6095 0.705,-10.7338 12.57,10.9541 20.851,4.3643 2.564,25.0724 30.434,-5.7659 -17.831,36.6136 -18.173,-17.7756 -28.026,1.3153 -38.357,37.4153 -4.474,-26.316 32.785,18.955 29.629,-37.2916 44.112,28.8276 32.152,-15.7328 19.786,-70.6159 7.686,54.1846 -35.294,-4.8544 27.805,-0.3298 14.453,7.1484 5.317,-1.087 -15.487,32.3579 -42.796,-12.8372 11.502,-11.1516 -61.966,5.9116 -55.653,-44.2651 -20.142,-25.1576 -34.013,11.508 -26.603,25.5937 23.796,-4.0916 -12.375,-16.0596 -38.027,-0.3338 -36.485,-8.9691 7.271,-16.7228 8.017,14.8905 -34.427,5.2498 -4.8129,34.2016 -4.2614,2.3368 66.6363,-13.9323 -16.332,5.4507 4.191,19.763 34.977,5.3974 -45.924,21.6376 -54.2248,3.19 30.3638,-7.742 -32.0618,-42.2453 0.5576,-33.1618 22.7266,10.6698 41.0556,28.0965 0.529,-17.9238 -24.293,25.0268 -40.5125,13.2126 12.9967,-22.1162 3.3103,5.4934 10.1809,-48.3015 6.2766,18.5208 20.076,7.3024 -17.227,28.981 6.253,-47.0706 40.164,14.4249 5.116,27.2387 L 118.164,87.1871 138.268,123.32 80.2103,74.6235 103.142,123.101 78.6565,80.3392 86.0861,44.72 66.3983,64.775 69.8753,42.2337 100.777,16.5452 81.7431,35.7845 104.308,83.4787 121.453,89.4449 107.915,84.8787 118.276,56.8644 90.5302,19.8804 102.862,27.1585 95.0074,21.6569 76.4932,56.5588 93.6222,85.1447 93.6581,72.6724 54.3516,62.5554 63.025,92.2472 116.428,60.0943 93.0314,52.3737 98.6092,51.7267 111.062,93.9383 47.3315,88.4203 51.6283,70.7403 67.821,99.1589 63.496,117.751 47.3945,73.1894 44.5622,83.6125 56.2808,38.5614 65.4518,50.1574 53.7819,53.2105 46.3103,83.2637 78.3888,87.1481 50.2475,66.0204 87.9469,103.5 86.7364,123.834 52.9751,54.7851 l 12.7287,13.0063 6.8407,-6.8707 -22.7406,5.2105 2.1793,6.0743 12.577,5.5012 -1.4656,-7.0006 41.0404,39.1949 -50.2426,-22.6628 34.0497,-4.0696 58.3659,6.5606 11.593,-2.4766 22.755,13.3874 -51.436,-38.3627 1.844,9.2514 32.612,10.0148 34.893,3.2135 -3.44,21.904 -39.082,-32.1169 -25.315,-47.6149 -21.899,42.8921 -6.158,-0.1516 -15.066,20.5039 5.9316,4.6608 -44.0985,-9.0784 22.5149,37.511 -8.0714,-8.883 21.6278,2.103 -16.4458,-25.336 8.7968,-15.7695 -5.7543,-16.8514 50.1719,22.8913 -16.846,37.8696 -4.001,-50.3703 6.419,-22.4562 22.968,23.0482 -6.113,33.8833 -13.807,24.877 39.204,-8.009 -67.1233,10.2 17.3413,-19.899 -15.5438,0.677 L 83.3937,89.1504 142.53,122.687 90.1246,62.9715 112.191,31.3659 l 13.811,2.7134 -20.903,84.2807 0.659,12.564 26.885,-9.561 -1.707,-2.574 2.375,-29.546 -56.8927,15.249 5.2427,-45.1126 62.942,40.2407 -9.832,-9.8469 33.2,19.7168 19.442,23.151 41.295,-31.592 26.409,20.748 7.837,-2.941 -14.842,-10.27 14.845,18.301 -10.9,-17.123 -4.964,2.172 -32.831,-7.629 -5.201,18.226 -17.968,3.768 -14.675,-10.125 7.28,-13.833 38.981,23.97 -37.033,-57.7493 49.819,-25.4882 -31.522,20.4171 0.189,-9.4419 11.668,22.0677 38.146,12.5308 -46.39,8.9575 -45.725,-5.3833 42.959,-0.3938 -50.73,4.5616 25.838,6.3418 -32.131,14.574 72.579,-21.2217 -29.161,-54.0977 -24.297,21.7922 51.717,-10.5351 8.33,-8.8395 -70.334,50.3658 41.233,-20.9713 3.59,25.0369 -40.271,-10.2354 10.716,42.1188 -1.152,1.201 11.009,-10.229 -16.45,-4.259 -13.036,-1.357 -56.3778,-29.218 15.2038,0.2885 -2.979,-31.0967 13.388,-27.6123 55.793,12.5119 26.61,24.1037 26.223,10.8825 52.993,-11.8881 46.566,21.9906 19.365,34.5149 -67.026,-22.2258 -16.016,-5.5484 19.462,24.9182 7.662,-27.4614 13.291,38.3914 -25.31,-29.3364 -56.878,-11.7489 3.906,22.8893 15.541,-6.745 -4.429,-21.8896 -5.072,40.4566 -17.749,-9.45 -32.491,7.643 9.635,5.661 54.952,7.094 26.733,-23.653 34.398,6.023 66.248,-9.061 3.014,19.766 -23.699,-36.8534 33.917,-9.1079 7.545,-3.8048 23.914,-16.1822 -43.296,47.5843 56.566,-4.394 -16.297,11.387 13.178,-27.9947 -7.444,-4.4698 -2.886,-24.2109 4.726,-35.2898 -19.305,28.076 -30.944,41.5401 0.698,-37.6438 40.034,-11.2655 16.831,43.0475 23.736,-25.9198 -27.797,-15.7959 -22.616,4.3999 19.733,16.9348 -22.518,25.8319 -25.622,4.1007 -42.556,-14.7878 17.131,-31.1092 -6.044,47.2478 25.621,9.1075 -8.958,21.629 -45.466,0.923 43.884,-19.54 -30.1,-35.9908 41.867,43.9878 2.879,14.791 32.386,-11.771 -61.879,-10.138 30.221,23.932 38.555,-15.739 -35.32,6.651 46.201,-7.786 13.56,-9.591 -30.172,19.472 48.367,-30.4576 -63.929,-2.0848 -13.791,36.0884 44.307,-64.0284 -5.546,35.3144 -42.833,27.862 20.881,-30.214 43.353,-9.72 -59.787,0.3248 30.364,35.3682 10.41,-22.618 19.634,19.044 0.854,-6.907 -4.052,-28.3628 -18.493,13.5928 -0.239,19.248 -12.982,5.023 -46.602,-36.604 3.272,14.7 60.37,-43.1026 -22.113,41.5836 5.656,5.069 -11.034,12.665 -22.308,-13.045 -11.932,-19.3289 5.169,-39.5741 -38.875,-24.2185 0.372,3.7783 -32.946,26.4643 1.746,18.0621 39.421,45.4568 -70.23,-56.1546 38.281,21.1783 0.175,-18.5841 5.645,13.8412 -20.782,1.2622 -14.404,-46.4478 6.915,2.6419 3.472,23.0209 11.812,19.3406 17.598,-31.2775 8.836,6.1503 -22.841,-18.0199 -13.02,-5.249 -16.178,18.5862 -16.388,3.0924 -5.514,-2.4865 24.897,5.2562 -22.276,-15.7182 24.95,4.1566 14.544,13.2823 88.757,0.5517 19.328,24.9361 10.856,-47.1886 0.296,5.3948 -4.845,16.0583 5.295,-36.7118 -5.219,22.7351 0.075,18.2491 14.022,-16.9591 -27.509,37.9856 -16.31,4.7376 -10.181,-54.7948 1.77,1.4669 51.973,66.6517 38.109,-22.1364 -21.446,-14.1915 -26.502,35.3494 -26.787,-40.6971 -33.285,24.3765 4.536,-8.1992 0,0 0,0 -11.409,20.724 -27.058,-34.2771 28.826,14.2908 17.811,36.1515 -2.316,6.755 16.724,-46.5133 32.644,-12.0267 -14.486,10.3671 43.797,36.3969 24.151,-16.5893 -4.407,-36.0182 -6.248,2.9942 -16.904,2.4752 -26.399,27.1082 -19.054,-11.82 -23.801,-8.567 48.813,-28.4385 -24.245,40.946 -27.665,12.3671 10.009,8.8667 -15.391,-11.0395 1.626,-2.6741 55.959,-26.6814 -0.535,21.1546 -19.3,43.423 -36.023,-31.3649 16.408,15.2909 -12.399,6.435 45.837,-11.157 -2.139,3.351 29.51,-7.1689 -12.592,-8.6445 2.296,6.1045 13.722,-14.1044 -7.972,-8.65 -42.788,23.2594 -54.797,-23.125 -46.66,6.9276 -25.812,-16.3861 12.938,47.1014 -28.416,-13.2536 6.71,14.4496 -36.606,18.723 -41.001,-43.2129 1.44,14.4449 30.058,11.984 5.2,-18.8208 -20.771,-22.3091 -22.556,9.2981 23.64,36.1448 -30.727,-26.1679 14.68,-20.2717 17.343,34.9886 22.944,-7.9121 -0.165,25.0321 -18.634,-21.423 -34.44,-5.7081 11.124,12.3981 14.472,13.182 15.134,-27.0409 62.527,32.0769 2.38,-2.08 -7.651,-25.1525 13.334,-19.7486 -13.931,31.1071 -12.344,11.835 21.79,-57.0318 19.023,23.6657 29.739,4.8478 2.541,13.8573 18.982,15.567 -13.099,-28.194 31.384,25.728 45.966,-4.626 32.922,6.352 24.156,-33.8519 -7.442,23.9759 -30.241,-10.905 -27.891,23.679 1.742,-27.7382 -28.709,-10.1517 87.272,-10.0705 -13.489,30.6314 -44.994,-2.66 21.053,-17.7588 10.657,-2.3861 -19.766,-30.0974 -39.49,-17.6327 -35.323,-5.4889 45.423,1.6712 1.347,32.5391 -2.122,24.5353 13.279,-1.0711 44.369,-2.7516 -36.963,11.9736 -26.389,-42.711 56.867,-23.3052 -18.996,5.4135 8.14,7.9892 6.231,-16.4634 10.087,48.0755 -67.801,16.3183 0.132,-4.4054 -10.579,-38.5882 16.304,-30.1982 1.961,-6.4231 -35.656,33.687 26.339,2.1566 -49.479,30.8599 44.271,-10.604 -21.874,10.0725 26.386,-40.2377 -36.691,-22.5531 30.32,6.4721 34.377,32.5771 -1.931,3.2456 -46.1,35.5897 9.516,13.1817 34.806,-27.7084 28.422,18.5201 24.617,6.0063 -29.064,17.546 43.311,-16.255 -0.711,-60.9731 -39.375,-7.5485 -39.765,10.6942 -0.871,42.6055 45.821,37.4789 -23.415,-54.6438 43.011,-16.2451 -1.201,13.8952 -19.796,-18.0911 -5.219,10.7395 29.376,-18.3178 -32.086,4.4701 -45.325,-1.4945 58.342,-1.5487 -24.857,48.589 -62.218,20.1762 8.226,-25.2622 -1.489,-1.4044 18.331,-13.9162 -23.065,13.9891 -39.593,-27.3625 -18.957,13.9439 67.112,-9.2903 5.836,0.0891 -3.283,-23.9074 11.441,-17.6324 17.768,39.1854 -1.458,15.7825 -34.702,29.5194 12.304,5.08 -18.679,9.507 -6.781,-42.3439 -31.511,25.7219 -16.416,3.698 0.203,1.214 7.711,-47.8534 -18.971,10.4884 -3.578,-4.9319 37.64,-5.9762 -2.658,-10.0945 -59.157,29.6659 41.715,-7.8731 -29.249,32.2688 10.194,11.531 -31.477,-25.9404 8.564,32.8674 13.389,-7.864 -9.561,-43.6268 -8.17,-21.7751 11.624,-2.1986 -3.028,16.5079 -13.134,-10.6251 -6.581,7.4067 -20.168,0.4902 -49.879,11.5025 -27.203,0.2492 -8.475,22.0493 -18.271,16.1218 46.287,-12.584 24.45,0.774 -7.52,11.606 -2.122,-78.9508 58.761,-18.1315 13.485,10.6225 8.247,28.2729 26.774,11.1654 27.948,-44.5307 -35.637,31.1336 45.202,-8.1331 34.103,-16.0925 -35.941,-2.5176 22.119,13.343 -2.316,-5.0716 7.326,33.8385 35.329,11.4836 -7.209,3.6687 29.197,-29.3285 -15.276,-18.3224 24.934,17.7722 -28.559,-20.1001 -20.229,16.7664 10.612,53.169 -13.993,16.883 -78.322,-1.502 12.621,5.185 16.549,-20.195 10.389,-33.2265 -18.674,-9.5493 6.546,26.7145 12.846,24.5773 -0.817,6.903 -28.411,-24.4072 -14.912,-10.326 -18.73,-9.2303 10.59,23.4205 13.759,-45.3166 16.17,-9.9434 -4.602,36.7799 -4.371,-15.2593 -8.651,19.1052 -43.466,-7.93 -23.317,31.8922 0.852,-1.004 -10.928,-25.3198 60.102,11.2622 7.786,17.4786 -14.672,-3.022 -41.034,-25.8599 -42.739,-29.552 18.79,-19.7763 36.211,21.3793 -12.135,-19.6257 1.387,12.865 19.805,-1.3647 -26.979,-5.9439 -10.919,-21.8805 44.304,29.7384 50.844,37.2229 -18.069,35.6864 -15.182,-17.593 -24.032,-1.143 3.124,-25.8397 -22.217,38.6487 -8.161,-39.8147 -24.931,-1.5844 -33.126,4.0717 2.578,44.6564 9.982,-15.82 -64.8475,-6.312 1.7865,-16.4367 5.975,-9.7241 -48.4987,30.2498 16.3116,-9.4814 33.4041,-26.8051 -14.6092,35.9755 8.815,8.212 60.8762,10.086 7.536,-10.413 41.988,-72.6904 53.03,-9.2749 -34.632,41.3596 -23.764,29.7587 20.799,3.551 -8.533,-10.7761 -0.907,-2.2632 21.775,8.3683 9.988,22.059 -32.116,-8.814 32.881,-0.559 11.372,11.616 13.818,-27.7061 25.011,-0.6955 2.635,-24.1276 34.415,-37.8771 11.265,4.1884 46.17,4.1903 44.469,-9.1442 24.6,16.9535 -0.666,-8.9345 -16.07,46.1651 -13.537,-11.9488 -30.678,46.9265 -25.624,1.945 -17.509,-23.873 -3.686,14.607 81.482,1.6 -77.08,7.977 -7.566,-17.344 15.842,10.4 -44.672,-7.444 -0.894,5.415 -20.846,11.93 -38.708,-12.928 -38.882,-50.8375 -13.246,-42.365 -48.511,32.3472 18.165,9.2642 55.757,47.8191 0.949,-10.158 15.37,-7.6417 -11.135,-14.9095 -1.59,-44.4173 -60.29,6.2656 12.374,22.2023 9.798,51.3416 27.562,-13.605 23.093,15.052 -14.555,-22.2193 -20.943,13.7513 35.823,-34.4403 39.745,25.4693 4.808,-45.6192 -3.28,-23.1695 -0.269,10.4699 -33.709,4.6152 -9.758,41.4958 -1.807,-25.6518 35.985,9.792 36.007,52.3796 -7.292,-53.932 -14.747,7.8253 35.346,35.7867 3.766,7.452 6.014,4.746 42.336,-1.852 -24.086,-14.534 6.599,7.971 22.192,-19.7557 20.395,20.1217 -5.726,-0.083 -35.644,-30.7044 0.213,5.2314 23.022,-6.1807 -37.083,38.5687 9.155,1.29 31.478,-16.025 -24.7,0.875 -26.095,-14.1857 -53.625,-19.0165 -10.757,23.0782 25.055,30.128 -11.813,-12.695 15.111,-43.5183 -31.064,4.1821 51.744,-63.0413 -46.473,39.1478 6.564,24.7793 41.277,-47.4211 37.639,14.6925 -52.624,28.1416 -62.122,0.2541 -11.196,24.6901 -41.778,0.0051 -3.291,32.8631 -6.922,-8.682 32.261,-21.139 -35.423,-9.6766 56.908,7.2736 21.565,-44.0277 -17.225,8.4619 -8.993,13.8684 26.226,21.1662 -16.476,-17.9637 21.526,-15.8176 -7.974,40.2305 -22.764,-10.398 43.185,28.944 31.005,-35.074 -41.151,-12.1953 22.496,13.7597 42.587,-18.2007 16.32,44.3383 -27.793,-8.436 -38.584,-18.0414 11.773,36.8864 -56.257,-47.8018 -44.732,-29.7058 -0.182,-2.1753 26.01,-20.4731 3.219,33.2161 -36.671,-12.2117 -22.993,12.835 -34.44,-47.0695 32.996,24.4722 14.295,7.2446 -7.226,2.0622 L 156.846,64.1108 138.82,82.072 115.971,105.12 78.6499,105.204 70.5273,95.0497 79.3709,105.718 71.5308,53.9739 98.8778,23.2911 60.6606,57.4802 65.4198,73.5615 91.4109,21.1366 70.3062,80.4604 66.5329,77.3931 80.7925,56.024 l 0.6388,3.8632 -2.5964,40.2308 8.7933,26.809 -11.7492,-16.586 34.481,-13.8747 23.027,-0.567 -4.963,1.6476 16.445,0.2584 36.965,20.3207 -4.99,14.122 25.233,-4.357 -26.251,-10.049 4.495,-33.7674 -21.875,-20.1842 -12.7,18.2334 -19.024,-25.2255 -19.329,-33.8935 -18.6968,-4.9857 40.5958,4.8275 -12.161,13.8267 0.474,-1.0645 21.403,38.4313 22.909,28.8099 4.079,-16.9298 13.533,14.6078 L 192.546,77.6037 167.715,121.676 151.089,89.6271 126.606,58.5763 87.4242,77.3519 89.8346,40.0053 91.2266,68.5563 81.999,76.0127 95.5177,27.3974 83.4885,35.4259 80.4407,69.2719 46.7648,82.2995 70.59,41.9327 75.1524,84.1325 62.7356,76.9665 71.5239,83.178 62.6222,35.4348 88.925,72.7745 122.697,71.3362 78.1217,49.1459 l 6.165,41.8214 -6.3298,10.4447 1.3639,20.946 -11.252,-20.72 L 54.092,84.2119 69.5002,86.293 72.468,107.155 69.0478,103.314 93.929,65.2783 72.8335,113.221 106.144,79.5226 84.6493,105.724 91.897,119.052 94.1209,87.8506 88.2278,51.8648 114.857,28.5134 132.09,23.6708 90.5369,73.5171 108.634,44.3661 97.3384,48.7853 59.4416,65.9845 47.3376,86.1742 76.5366,56.8631 70.453,39.2507 56.3477,51.1098 96.9849,28.0421 87.4065,69.7817 106.586,86.0412 92.0354,68.5168 76.246,45.7803 l 46.083,17.2616 40.823,-30.4482 -19.149,-12.2672 -21.1,12.1283 21.64,3.933 16.3,0.1353 -11.275,1.6594 65.764,5.5023 -37.216,21.1065 27.298,29.6927 12.238,6.487 32.797,-9.1849 -34.366,-13.3748 22.288,26.3517 -69.236,-10.3092 8.997,10.9172 -43.04,4.591 7.56,7.173 -37.242,6.036 -0.878,8.119 30.075,-24.219 -48.6532,-23.6128 -9.7173,-5.8454 17.9493,25.6282 13.9522,-2.058 14.933,19.074 28.181,-4.59 10.326,11.696 1.374,5.132 10.897,-31.466 -41.735,2.9 -16.887,-1.574 3.609,-16.4853 4.312,23.3873 -14.602,-44.9619 6.453,7.406 46.286,-3.7562 18.152,18.5531 22.274,-12.5414 -56.796,-19.6488 42.072,-20.4048 -10.141,30.9768 58.405,-3.3318 21.317,46.646 -28.016,-15.2887 -49.133,4.7237 15.063,-34.3103 -4.397,35.985 19.242,8.4283 69.286,-0.609 5.95,-35.6349 85.563,-3.3428 24.206,24.6087 -21.243,-1.2233 -9.649,30.1493 12.059,-19.053 -26.412,14.768 27.644,3.824 28.54,13.023 -22.618,-22.864 -96.855,17.273 -5.284,-14.608 31.345,-46.8242 61.024,-36.2008 -39.305,-1.6741 -2.917,-6.9192 -8.241,32.4001 -8.218,-8.5843 2.611,39.9806 -60.118,3.0627 50.993,21.8352 -27.066,-2.173 -15.862,-24.2805 25.748,2.854 -24.497,-5.335 -56.933,1.7456 51.003,-18.1247 31.726,17.8862 18.611,-20.0157 -39.375,18.3404 14.63,-32.3579 16.701,-10.5353 27.402,-1.3224 -13.893,-7.0143 25.893,3.9395 25.596,28.9994 -6.008,43.0717 4.674,-36.4085 27.866,-46.5021 -16.77,33.8877 -2.275,-28.9623 -15.503,39.0209 -62.435,-9.7318 -8.822,-29.2172 -6.513,-8.3058 -8.826,22.85 3.359,27.4407 -2.963,-13.6861 23.749,18.6894 38.406,-3.3016 14.192,-16.3848 -31.024,-0.937 -44.933,-21.5848 28.792,-15.9506 13.394,9.664 27.941,-3.5608 -53.232,14.8825 -15.534,22.4585 -16.696,7.6213 37.022,11.1213 -33.472,32.0691 -1.737,3.088 34.716,10.514 -30.972,-6.141 47.901,-2.424 -72.909,5.681 -35.144,-49.8298 -38.86,2.6076 -28,-8.9658 -53.9677,14.2557 12.0647,-24.2409 12.283,14.8426 46.501,23.0079 28.126,7.2417 -4.511,-23.0523 63.784,-29.582 6.903,-6.1357 -28.071,19.0345 -8.509,9.8601 -29.42,-4.8786 -5.152,-18.9876 19.482,4.9699 32.323,-9.0434 19.866,15.3831 11.899,-27.5236 -21.036,6.5105 -14.166,9.0225 -27.996,-18.343 3.173,16.8334 -8.554,2.9753 -5.388,38.089 -57.031,3.732 L 108.49,73.4227 117.883,113.464 97.4742,87.2886 122.102,99.3023 137.473,87.7898 152.519,39.775 122.948,70.7699 87.8189,34.5794 l 24.6551,19.9719 -11.513,57.6537 -47.4817,-7.188 23.6954,4.039 35.0093,-5.531 9.16,-2.718 -25.335,-0.164 45.465,-1.7847 -30.616,8.2607 L 149.314,94 97.6037,64.7777 128.128,116.315 108.393,84.547 95.4362,82.1712 59.0911,71.3897 l 6.195,-5.825 21.3895,45.6603 17.5464,-21.7014 4.037,-5.4395 -45.3315,21.3699 10.6678,2.223 0.9534,-3.448 -27.9599,-23.6544 11.7859,0.4585 0.8459,8.7416 L 98.0011,87.7622 76.5048,120.704 65.9733,89.34 87.0695,92.0771 72.1543,74.8352 74.8068,66.0938 91.4629,86.554 84.2008,98.2773 96.8029,110.799 87.0145,93.7995 59.0459,100.788 50.4021,57.1765 86.5148,19.3909 97.4756,32.3352 118.966,43.6535 109.768,37.6594 107.203,14.2402 89.819,36.6726 60.5486,58.6888 76.5247,44.659 127.489,48.0492 74.6069,44.1024 104.745,58.8236 78.4361,22.0945 107.401,46.9318 110.04,41.6653 78.3558,36.5649 86.9467,64.4952 62.8822,45.7906 62.7863,110.5 49.4318,66.9966 l 11.598,23.3683 -3.019,16.2071 10.0502,-19.3626 44.095,-2.6563 -9.486,-38.4062 4.812,-0.8937 17.986,2.0149 76.256,-0.9058 8.901,4.2353 -16.623,10.7225 0.073,-39.0732 20.179,8.9618 60.212,9.9497 52.914,6.9521 34.43,29.8031 -35.949,-1.7813 -12.037,-55.6982 2.23,37.7418 -17.038,22.4937 11.052,8.8764 -45.072,18.572 8.258,-8.4268 39.179,6.7598 18.582,-37.0026 -18.621,-37.4639 12.946,-0.2223 1.773,-5.9766 7.827,-4.2706 5.937,31.8903 -3.497,4.0436 -24.093,26.6084 -18.442,-0.1063 29.231,46.11 -35.211,-35.8539 21.212,14.7519 30.454,-49.712 -28.396,15.7803 -4.794,-19.7205 -2.304,15.5211 -21.325,-24.9815 -41.15,23.5523 -23.923,7.9496 16.688,-14.7353 8.472,40.382 63.639,16.755 L 295.302,88.9358 262.36,55.4463 216.916,40.4449 180.464,29.4648 167.493,24.7954 130.717,27.7633 118.522,24.9739 118.597,55.6932 90.3945,44.6341 106.12,30.7212 56.9177,41.8698 l 23.6529,-5.2973 37.1454,7.5758 0.198,2.5122 50.831,-26.684 11.7,36.1052 -11.952,-30.5021 20.963,56.2215 20.701,22.4409 26.33,-7.7222 24.225,18.3252 -4.49,-19.3889 16.176,-14.6035 26.505,28.9344 8.547,4.442 46.36,-8.353 20.978,10.717 44.67,-6.424 -40.907,-23.9771 27.359,-16.4861 -4.827,-0.3315 -2.162,12.6329 42.774,0.9751 -13.77,41.8257 -5.746,-5.156 10.662,-10.982 36.134,-20.5945 -35.746,16.7875 6.821,14.227 -15.779,-3.574 7.974,-35.9461 -0.791,46.3861 3.374,-61.4784 -20.356,-14.3543 -34.783,-34.4118 2.302,8.0835 17.426,1.53 -17.034,23.6166 20.168,-19.3048 41.435,17.4746 10.858,56.2706 -36.372,-3.5379 15.034,3.3599 -11.236,-44.5915 -45.197,23.0249 -6.793,-57.3429 -4.93,-0.2932 16.34,6.5149 25.292,-10.3828 -39.507,7.3796 36.983,0.5504 53.061,27.2981 -54.648,-13.5291 1.053,9.8765 35.434,-1.5533 -5.928,46.5631 -17.827,-0.4988 -16.268,24.1311 39.55,-6.533 -16.024,7.374 33.969,-26.8811 -28.672,-29.1083 23.198,-8.194 0,0"
         clip-path="url(#pb0f9773547)" />
    </g>
  </g>
  <defs
     id="defs25">
    <clipPath
       id="pb0f9773547"
       style="stroke-linecap:butt;stroke-linejoin:round">
      <rect
         height="133.77917"
         width="446.39999"
         x="33.862499"
         y="7.1999998"
         id="rect28"
         style="stroke-linecap:butt;stroke-linejoin:round" />
    </clipPath>
  </defs>
</svg>
