<?xml version="1.0" encoding="utf-8" standalone="no"?>
<!DOCTYPE svg PUBLIC "-//W3C//DTD SVG 1.1//EN"
  "http://www.w3.org/Graphics/SVG/1.1/DTD/svg11.dtd">
<!-- Created with matplotlib (http://matplotlib.org/) -->
<svg height="216pt" version="1.1" viewBox="0 0 272 216" width="272pt" xmlns="http://www.w3.org/2000/svg" xmlns:xlink="http://www.w3.org/1999/xlink">
 <defs>
  <style type="text/css">
*{stroke-linecap:butt;stroke-linejoin:round;stroke-miterlimit:100000;}
  </style>
 </defs>
 <g id="figure_1">
  <g id="patch_1">
   <path d="M 0 216.578125 
L 272.18125 216.578125 
L 272.18125 0 
L 0 0 
z
" style="fill:#ffffff;"/>
  </g>
  <g id="axes_1">
   <g id="patch_2">
    <path d="M 41.78125 180 
L 264.98125 180 
L 264.98125 7.2 
L 41.78125 7.2 
z
" style="fill:#ffffff;"/>
   </g>
   <g id="line2d_1">
    <path clip-path="url(#p102dfa6db0)" d="M 41.78125 7.895637 
L 67.603059 62.102397 
L 82.707848 72.049981 
L 93.424867 73.174484 
L 101.737633 75.983839 
L 108.529657 81.278145 
L 114.272231 80.13059 
L 119.246676 83.533228 
L 123.634447 84.18591 
L 127.559441 87.147338 
L 131.110031 88.354869 
L 134.351465 86.49531 
L 137.333296 86.044126 
L 140.09404 86.916403 
L 142.664231 88.013594 
L 145.068484 88.497047 
L 149.456255 90.575655 
L 151.470421 91.909466 
L 153.38125 93.778905 
L 156.93184 95.991132 
L 158.587801 98.089942 
L 160.173274 100.34515 
L 161.694016 101.730028 
L 163.155105 101.645135 
L 164.561045 101.836586 
L 165.915849 102.799568 
L 167.223105 102.793572 
L 168.48604 102.933258 
L 169.707559 103.808169 
L 170.890293 104.306675 
L 172.036629 104.023219 
L 173.148742 104.490371 
L 174.228614 104.736065 
L 175.278064 104.543478 
L 176.298758 103.820794 
L 177.29223 102.868346 
L 178.259894 102.96674 
L 179.203059 101.910213 
L 180.122932 101.768038 
L 181.020638 102.141858 
L 181.89722 101.80708 
L 182.753648 100.89301 
L 184.40961 100.127925 
L 185.995083 99.130201 
L 187.515824 98.592298 
L 188.253531 98.183154 
L 188.976913 98.605528 
L 189.686516 98.794692 
L 190.382854 98.773085 
L 191.066414 99.267078 
L 191.737657 99.008682 
L 192.397019 99.37093 
L 193.044914 98.630747 
L 193.681733 98.078936 
L 194.307848 98.204648 
L 194.923614 97.424555 
L 195.529367 97.318221 
L 196.125428 97.087878 
L 196.712102 97.532859 
L 197.289679 97.283385 
L 197.858438 97.201711 
L 198.418644 95.648813 
L 198.97055 95.653503 
L 199.514399 95.219268 
L 200.050423 94.577565 
L 200.578843 94.92017 
L 201.099872 93.108954 
L 201.613715 92.375371 
L 202.120566 91.056907 
L 203.114038 89.342905 
L 203.601013 89.469358 
L 204.081703 87.909086 
L 204.55627 88.000702 
L 205.024867 87.943971 
L 205.487643 86.540967 
L 205.944741 86.190018 
L 206.396298 84.696392 
L 206.842447 84.318757 
L 207.283316 84.606198 
L 207.719028 83.458623 
L 208.149704 82.712269 
L 208.575457 83.482385 
L 208.996399 83.346551 
L 209.412638 82.231644 
L 209.824278 82.34502 
L 210.231418 82.716218 
L 210.634157 81.649662 
L 211.032589 82.006807 
L 211.426804 81.946724 
L 211.816891 83.395722 
L 212.585021 82.311677 
L 212.963228 83.02509 
L 213.337633 82.863632 
L 213.708312 81.69653 
L 214.07534 81.216186 
L 214.438787 82.014129 
L 214.798722 81.186335 
L 215.155213 81.574472 
L 215.508324 82.509035 
L 215.85812 82.266571 
L 216.204662 81.812339 
L 216.54801 81.906173 
L 217.225356 81.654159 
L 217.890606 80.216448 
L 218.544184 78.521495 
L 218.866723 78.390364 
L 219.186493 79.249791 
L 219.817915 77.325667 
L 220.129657 76.284446 
L 220.745423 75.290104 
L 221.049531 75.363024 
L 221.650398 73.822866 
L 221.947237 73.908123 
L 222.241728 73.802272 
L 222.823818 73.072324 
L 223.111488 72.944257 
L 223.396952 71.938278 
L 223.680247 71.572428 
L 223.961403 70.763858 
L 224.240453 71.051942 
L 224.517428 71.114448 
L 224.792359 70.518948 
L 225.065276 71.274856 
L 225.336208 71.323944 
L 225.605184 69.795123 
L 225.872231 69.456795 
L 226.137378 69.581434 
L 226.400652 68.962591 
L 226.921681 65.992408 
L 227.179488 66.179568 
L 227.435524 66.102215 
L 227.689811 66.589769 
L 228.193238 69.099061 
L 228.689952 66.242383 
L 229.18013 65.280649 
L 229.663942 66.491564 
L 229.903512 66.550335 
L 230.141551 66.855822 
L 230.613114 64.364343 
L 230.846676 65.697701 
L 231.078782 65.044073 
L 231.309452 64.926457 
L 231.538702 65.050249 
L 231.76655 65.506608 
L 231.993012 66.795559 
L 232.218107 66.422561 
L 232.441849 64.247807 
L 232.664256 65.898077 
L 232.885342 64.006765 
L 233.105125 63.503141 
L 233.323618 64.454582 
L 233.540837 64.653081 
L 233.756797 65.660401 
L 233.971512 64.646512 
L 234.184997 62.275979 
L 234.397265 61.982277 
L 234.608331 63.244529 
L 234.818208 63.476596 
L 235.026909 64.656646 
L 235.234447 64.481927 
L 235.440835 61.901713 
L 235.646086 63.138422 
L 236.053227 61.013559 
L 236.25514 63.967927 
L 236.455966 62.242185 
L 236.854397 62.188564 
L 237.052026 61.750305 
L 237.248613 60.886789 
L 237.444167 61.989481 
L 237.6387 60.03594 
L 237.832222 61.19481 
L 238.024745 63.528399 
L 238.216277 60.507119 
L 238.596413 63.4288 
L 238.972709 58.000243 
L 239.159441 58.550994 
L 239.345242 57.57986 
L 239.714087 58.526604 
L 239.897149 57.397706 
L 240.079315 57.500861 
L 240.260595 57.125259 
L 240.440998 54.179559 
L 240.62053 56.340597 
L 240.799202 56.049306 
L 240.977021 53.734049 
L 241.153995 55.271634 
L 241.330133 55.065906 
L 241.505441 52.096777 
L 241.679929 53.221648 
L 241.853603 55.160956 
L 242.026471 53.213357 
L 242.19854 53.875953 
L 242.540313 51.318427 
L 242.710031 51.448785 
L 243.047165 49.131889 
L 243.214594 48.63799 
L 243.381274 46.805056 
L 243.547212 46.565941 
L 243.712414 48.585102 
L 244.040637 46.75943 
L 244.20367 48.734316 
L 244.365992 49.174678 
L 244.527611 49.118023 
L 244.688531 50.642886 
L 244.848759 50.531425 
L 245.008301 53.045349 
L 245.167163 51.978545 
L 245.482868 52.48561 
L 245.639723 53.382386 
L 245.79592 52.832256 
L 245.951465 53.5562 
L 246.106364 52.90443 
L 246.260621 52.911014 
L 246.414242 53.308235 
L 246.719596 53.448444 
L 246.871339 53.487836 
L 247.022467 52.630144 
L 247.172985 52.454421 
L 247.322896 52.646307 
L 247.472207 51.547073 
L 247.769045 52.069896 
L 248.063537 52.47478 
L 248.209914 53.78768 
L 248.355719 53.072839 
L 248.500955 53.808595 
L 248.645627 53.314742 
L 248.933296 55.77168 
L 249.218761 55.376376 
L 249.642898 59.008775 
L 249.922997 60.009725 
L 250.062261 59.167585 
L 250.201006 59.101496 
L 250.476956 57.949049 
L 250.614167 57.716701 
L 250.750876 58.018897 
L 250.887084 57.952065 
L 251.022797 58.652802 
L 251.158016 58.67685 
L 251.292747 59.142162 
L 251.426992 58.415591 
L 251.560755 58.989973 
L 251.69404 59.011387 
L 251.826849 58.150074 
L 251.959187 58.168981 
L 252.091056 58.584327 
L 252.22246 58.410414 
L 252.872616 60.619829 
L 253.001297 60.301005 
L 253.129534 61.00017 
L 253.257332 60.724643 
L 253.384693 60.982163 
L 253.764183 62.762196 
L 254.139847 65.466222 
L 254.51176 67.268535 
L 254.634911 68.662867 
L 254.879997 68.909984 
L 255.001938 68.396455 
L 255.123482 68.907229 
L 255.365385 67.998439 
L 255.48575 68.106514 
L 255.72532 69.506242 
L 255.84453 69.719501 
L 256.081811 68.360094 
L 256.31759 69.020099 
L 256.434922 69.057708 
L 256.668484 68.508648 
L 256.784718 69.109599 
L 257.016104 68.879618 
L 257.13126 69.312461 
L 257.36051 68.581323 
L 257.701762 69.319608 
L 257.927538 67.53606 
L 258.039915 68.670298 
L 258.263658 67.188747 
L 258.486064 68.15596 
L 258.596771 67.420893 
L 259.03634 69.736522 
L 259.145426 68.272781 
L 259.254194 68.582955 
L 259.362646 68.254029 
L 259.470782 66.798713 
L 259.578606 66.936397 
L 259.900216 68.20688 
L 260.006806 69.666708 
L 260.113091 69.531769 
L 260.219074 69.187688 
L 260.744513 71.699027 
L 260.848717 71.541885 
L 261.056255 72.391957 
L 261.159592 72.447988 
L 261.262644 73.248378 
L 261.467895 72.806188 
L 261.773667 73.121895 
L 261.976129 74.222252 
L 262.076949 75.11802 
L 262.177497 77.19074 
L 262.277774 77.128539 
L 262.477523 78.254428 
L 262.676206 77.544927 
L 262.873835 79.364817 
L 262.972258 79.627953 
L 263.168327 80.490003 
L 263.363369 81.486383 
L 263.460508 80.144076 
L 263.654031 82.655321 
L 263.750416 82.97018 
L 263.942443 84.261023 
L 264.038086 83.689918 
L 264.228639 85.417311 
L 264.323551 85.045198 
L 264.512653 86.218613 
L 264.606845 84.905749 
L 264.7008 85.327198 
L 264.888001 85.017151 
L 264.98125 85.665932 
L 264.98125 85.665932 
" style="fill:none;stroke:#e41a1c;stroke-linecap:square;stroke-width:2.0;"/>
   </g>
   <g id="line2d_2">
    <path clip-path="url(#p102dfa6db0)" d="M 243.547212 180 
L 243.547212 7.2 
" style="fill:none;stroke:#000000;stroke-dasharray:1.000000,3.000000;stroke-dashoffset:0.0;"/>
   </g>
   <g id="patch_3">
    <path d="M 41.78125 180 
L 264.98125 180 
" style="fill:none;stroke:#000000;stroke-linecap:square;stroke-linejoin:miter;"/>
   </g>
   <g id="patch_4">
    <path d="M 41.78125 180 
L 41.78125 7.2 
" style="fill:none;stroke:#000000;stroke-linecap:square;stroke-linejoin:miter;"/>
   </g>
   <g id="patch_5">
    <path d="M 41.78125 7.2 
L 264.98125 7.2 
" style="fill:none;stroke:#000000;stroke-linecap:square;stroke-linejoin:miter;"/>
   </g>
   <g id="patch_6">
    <path d="M 264.98125 180 
L 264.98125 7.2 
" style="fill:none;stroke:#000000;stroke-linecap:square;stroke-linejoin:miter;"/>
   </g>
   <g id="matplotlib.axis_1">
    <g id="xtick_1">
     <g id="line2d_3">
      <defs>
       <path d="M 0 0 
L 0 -4 
" id="md2d8ae62a0" style="stroke:#000000;stroke-width:0.5;"/>
      </defs>
      <g>
       <use style="stroke:#000000;stroke-width:0.5;" x="67.6030585886" xlink:href="#md2d8ae62a0" y="180.0"/>
      </g>
     </g>
     <g id="line2d_4">
      <defs>
       <path d="M 0 0 
L 0 4 
" id="mbdc850ed4a" style="stroke:#000000;stroke-width:0.5;"/>
      </defs>
      <g>
       <use style="stroke:#000000;stroke-width:0.5;" x="67.6030585886" xlink:href="#mbdc850ed4a" y="7.2"/>
      </g>
     </g>
     <g id="text_1">
      <!-- $\mathdefault{10^{-1}}$ -->
      <defs>
       <path d="M 12.40625 8.296875 
L 28.515625 8.296875 
L 28.515625 63.921875 
L 10.984375 60.40625 
L 10.984375 69.390625 
L 28.421875 72.90625 
L 38.28125 72.90625 
L 38.28125 8.296875 
L 54.390625 8.296875 
L 54.390625 0 
L 12.40625 0 
z
" id="BitstreamVeraSans-Roman-31"/>
       <path d="M 4.890625 31.390625 
L 31.203125 31.390625 
L 31.203125 23.390625 
L 4.890625 23.390625 
z
" id="BitstreamVeraSans-Roman-2d"/>
       <path d="M 31.78125 66.40625 
Q 24.171875 66.40625 20.328125 58.90625 
Q 16.5 51.421875 16.5 36.375 
Q 16.5 21.390625 20.328125 13.890625 
Q 24.171875 6.390625 31.78125 6.390625 
Q 39.453125 6.390625 43.28125 13.890625 
Q 47.125 21.390625 47.125 36.375 
Q 47.125 51.421875 43.28125 58.90625 
Q 39.453125 66.40625 31.78125 66.40625 
M 31.78125 74.21875 
Q 44.046875 74.21875 50.515625 64.515625 
Q 56.984375 54.828125 56.984375 36.375 
Q 56.984375 17.96875 50.515625 8.265625 
Q 44.046875 -1.421875 31.78125 -1.421875 
Q 19.53125 -1.421875 13.0625 8.265625 
Q 6.59375 17.96875 6.59375 36.375 
Q 6.59375 54.828125 13.0625 64.515625 
Q 19.53125 74.21875 31.78125 74.21875 
" id="BitstreamVeraSans-Roman-30"/>
      </defs>
      <g transform="translate(57.7030585886 192.5203125)scale(0.1 -0.1)">
       <use transform="translate(0.0 0.46562500000000284)" xlink:href="#BitstreamVeraSans-Roman-31"/>
       <use transform="translate(63.623046875 0.46562500000000284)" xlink:href="#BitstreamVeraSans-Roman-30"/>
       <use transform="translate(127.24609375 52.965625)scale(0.7)" xlink:href="#BitstreamVeraSans-Roman-2d"/>
       <use transform="translate(152.5048828125 52.965625)scale(0.7)" xlink:href="#BitstreamVeraSans-Roman-31"/>
      </g>
     </g>
    </g>
    <g id="xtick_2">
     <g id="line2d_5">
      <g>
       <use style="stroke:#000000;stroke-width:0.5;" x="153.38125" xlink:href="#md2d8ae62a0" y="180.0"/>
      </g>
     </g>
     <g id="line2d_6">
      <g>
       <use style="stroke:#000000;stroke-width:0.5;" x="153.38125" xlink:href="#mbdc850ed4a" y="7.2"/>
      </g>
     </g>
     <g id="text_2">
      <!-- $\mathdefault{10^{0}}$ -->
      <g transform="translate(144.78125 192.6203125)scale(0.1 -0.1)">
       <use transform="translate(0.0 0.546875)" xlink:href="#BitstreamVeraSans-Roman-31"/>
       <use transform="translate(63.623046875 0.546875)" xlink:href="#BitstreamVeraSans-Roman-30"/>
       <use transform="translate(127.24609375 53.046875)scale(0.7)" xlink:href="#BitstreamVeraSans-Roman-30"/>
      </g>
     </g>
    </g>
    <g id="xtick_3">
     <g id="line2d_7">
      <g>
       <use style="stroke:#000000;stroke-width:0.5;" x="239.159441411" xlink:href="#md2d8ae62a0" y="180.0"/>
      </g>
     </g>
     <g id="line2d_8">
      <g>
       <use style="stroke:#000000;stroke-width:0.5;" x="239.159441411" xlink:href="#mbdc850ed4a" y="7.2"/>
      </g>
     </g>
     <g id="text_3">
      <!-- $\mathdefault{10^{1}}$ -->
      <g transform="translate(230.559441411 192.5203125)scale(0.1 -0.1)">
       <use transform="translate(0.0 0.46562500000000284)" xlink:href="#BitstreamVeraSans-Roman-31"/>
       <use transform="translate(63.623046875 0.46562500000000284)" xlink:href="#BitstreamVeraSans-Roman-30"/>
       <use transform="translate(127.24609375 52.965625)scale(0.7)" xlink:href="#BitstreamVeraSans-Roman-31"/>
      </g>
     </g>
    </g>
    <g id="xtick_4">
     <g id="line2d_9">
      <defs>
       <path d="M 0 0 
L 0 -2 
" id="m055cf1c9fc" style="stroke:#000000;stroke-width:0.5;"/>
      </defs>
      <g>
       <use style="stroke:#000000;stroke-width:0.5;" x="41.78125" xlink:href="#m055cf1c9fc" y="180.0"/>
      </g>
     </g>
     <g id="line2d_10">
      <defs>
       <path d="M 0 0 
L 0 2 
" id="m0f441c8ff1" style="stroke:#000000;stroke-width:0.5;"/>
      </defs>
      <g>
       <use style="stroke:#000000;stroke-width:0.5;" x="41.78125" xlink:href="#m0f441c8ff1" y="7.2"/>
      </g>
     </g>
    </g>
    <g id="xtick_5">
     <g id="line2d_11">
      <g>
       <use style="stroke:#000000;stroke-width:0.5;" x="48.5732740797" xlink:href="#m055cf1c9fc" y="180.0"/>
      </g>
     </g>
     <g id="line2d_12">
      <g>
       <use style="stroke:#000000;stroke-width:0.5;" x="48.5732740797" xlink:href="#m0f441c8ff1" y="7.2"/>
      </g>
     </g>
    </g>
    <g id="xtick_6">
     <g id="line2d_13">
      <g>
       <use style="stroke:#000000;stroke-width:0.5;" x="54.315848615" xlink:href="#m055cf1c9fc" y="180.0"/>
      </g>
     </g>
     <g id="line2d_14">
      <g>
       <use style="stroke:#000000;stroke-width:0.5;" x="54.315848615" xlink:href="#m0f441c8ff1" y="7.2"/>
      </g>
     </g>
    </g>
    <g id="xtick_7">
     <g id="line2d_15">
      <g>
       <use style="stroke:#000000;stroke-width:0.5;" x="59.2902929431" xlink:href="#m055cf1c9fc" y="180.0"/>
      </g>
     </g>
     <g id="line2d_16">
      <g>
       <use style="stroke:#000000;stroke-width:0.5;" x="59.2902929431" xlink:href="#m0f441c8ff1" y="7.2"/>
      </g>
     </g>
    </g>
    <g id="xtick_8">
     <g id="line2d_17">
      <g>
       <use style="stroke:#000000;stroke-width:0.5;" x="63.6780638048" xlink:href="#m055cf1c9fc" y="180.0"/>
      </g>
     </g>
     <g id="line2d_18">
      <g>
       <use style="stroke:#000000;stroke-width:0.5;" x="63.6780638048" xlink:href="#m0f441c8ff1" y="7.2"/>
      </g>
     </g>
    </g>
    <g id="xtick_9">
     <g id="line2d_19">
      <g>
       <use style="stroke:#000000;stroke-width:0.5;" x="93.4248671773" xlink:href="#m055cf1c9fc" y="180.0"/>
      </g>
     </g>
     <g id="line2d_20">
      <g>
       <use style="stroke:#000000;stroke-width:0.5;" x="93.4248671773" xlink:href="#m0f441c8ff1" y="7.2"/>
      </g>
     </g>
    </g>
    <g id="xtick_10">
     <g id="line2d_21">
      <g>
       <use style="stroke:#000000;stroke-width:0.5;" x="108.529656902" xlink:href="#m055cf1c9fc" y="180.0"/>
      </g>
     </g>
     <g id="line2d_22">
      <g>
       <use style="stroke:#000000;stroke-width:0.5;" x="108.529656902" xlink:href="#m0f441c8ff1" y="7.2"/>
      </g>
     </g>
    </g>
    <g id="xtick_11">
     <g id="line2d_23">
      <g>
       <use style="stroke:#000000;stroke-width:0.5;" x="119.246675766" xlink:href="#m055cf1c9fc" y="180.0"/>
      </g>
     </g>
     <g id="line2d_24">
      <g>
       <use style="stroke:#000000;stroke-width:0.5;" x="119.246675766" xlink:href="#m0f441c8ff1" y="7.2"/>
      </g>
     </g>
    </g>
    <g id="xtick_12">
     <g id="line2d_25">
      <g>
       <use style="stroke:#000000;stroke-width:0.5;" x="127.559441411" xlink:href="#m055cf1c9fc" y="180.0"/>
      </g>
     </g>
     <g id="line2d_26">
      <g>
       <use style="stroke:#000000;stroke-width:0.5;" x="127.559441411" xlink:href="#m0f441c8ff1" y="7.2"/>
      </g>
     </g>
    </g>
    <g id="xtick_13">
     <g id="line2d_27">
      <g>
       <use style="stroke:#000000;stroke-width:0.5;" x="134.351465491" xlink:href="#m055cf1c9fc" y="180.0"/>
      </g>
     </g>
     <g id="line2d_28">
      <g>
       <use style="stroke:#000000;stroke-width:0.5;" x="134.351465491" xlink:href="#m0f441c8ff1" y="7.2"/>
      </g>
     </g>
    </g>
    <g id="xtick_14">
     <g id="line2d_29">
      <g>
       <use style="stroke:#000000;stroke-width:0.5;" x="140.094040026" xlink:href="#m055cf1c9fc" y="180.0"/>
      </g>
     </g>
     <g id="line2d_30">
      <g>
       <use style="stroke:#000000;stroke-width:0.5;" x="140.094040026" xlink:href="#m0f441c8ff1" y="7.2"/>
      </g>
     </g>
    </g>
    <g id="xtick_15">
     <g id="line2d_31">
      <g>
       <use style="stroke:#000000;stroke-width:0.5;" x="145.068484355" xlink:href="#m055cf1c9fc" y="180.0"/>
      </g>
     </g>
     <g id="line2d_32">
      <g>
       <use style="stroke:#000000;stroke-width:0.5;" x="145.068484355" xlink:href="#m0f441c8ff1" y="7.2"/>
      </g>
     </g>
    </g>
    <g id="xtick_16">
     <g id="line2d_33">
      <g>
       <use style="stroke:#000000;stroke-width:0.5;" x="149.456255216" xlink:href="#m055cf1c9fc" y="180.0"/>
      </g>
     </g>
     <g id="line2d_34">
      <g>
       <use style="stroke:#000000;stroke-width:0.5;" x="149.456255216" xlink:href="#m0f441c8ff1" y="7.2"/>
      </g>
     </g>
    </g>
    <g id="xtick_17">
     <g id="line2d_35">
      <g>
       <use style="stroke:#000000;stroke-width:0.5;" x="179.203058589" xlink:href="#m055cf1c9fc" y="180.0"/>
      </g>
     </g>
     <g id="line2d_36">
      <g>
       <use style="stroke:#000000;stroke-width:0.5;" x="179.203058589" xlink:href="#m0f441c8ff1" y="7.2"/>
      </g>
     </g>
    </g>
    <g id="xtick_18">
     <g id="line2d_37">
      <g>
       <use style="stroke:#000000;stroke-width:0.5;" x="194.307848314" xlink:href="#m055cf1c9fc" y="180.0"/>
      </g>
     </g>
     <g id="line2d_38">
      <g>
       <use style="stroke:#000000;stroke-width:0.5;" x="194.307848314" xlink:href="#m0f441c8ff1" y="7.2"/>
      </g>
     </g>
    </g>
    <g id="xtick_19">
     <g id="line2d_39">
      <g>
       <use style="stroke:#000000;stroke-width:0.5;" x="205.024867177" xlink:href="#m055cf1c9fc" y="180.0"/>
      </g>
     </g>
     <g id="line2d_40">
      <g>
       <use style="stroke:#000000;stroke-width:0.5;" x="205.024867177" xlink:href="#m0f441c8ff1" y="7.2"/>
      </g>
     </g>
    </g>
    <g id="xtick_20">
     <g id="line2d_41">
      <g>
       <use style="stroke:#000000;stroke-width:0.5;" x="213.337632823" xlink:href="#m055cf1c9fc" y="180.0"/>
      </g>
     </g>
     <g id="line2d_42">
      <g>
       <use style="stroke:#000000;stroke-width:0.5;" x="213.337632823" xlink:href="#m0f441c8ff1" y="7.2"/>
      </g>
     </g>
    </g>
    <g id="xtick_21">
     <g id="line2d_43">
      <g>
       <use style="stroke:#000000;stroke-width:0.5;" x="220.129656902" xlink:href="#m055cf1c9fc" y="180.0"/>
      </g>
     </g>
     <g id="line2d_44">
      <g>
       <use style="stroke:#000000;stroke-width:0.5;" x="220.129656902" xlink:href="#m0f441c8ff1" y="7.2"/>
      </g>
     </g>
    </g>
    <g id="xtick_22">
     <g id="line2d_45">
      <g>
       <use style="stroke:#000000;stroke-width:0.5;" x="225.872231438" xlink:href="#m055cf1c9fc" y="180.0"/>
      </g>
     </g>
     <g id="line2d_46">
      <g>
       <use style="stroke:#000000;stroke-width:0.5;" x="225.872231438" xlink:href="#m0f441c8ff1" y="7.2"/>
      </g>
     </g>
    </g>
    <g id="xtick_23">
     <g id="line2d_47">
      <g>
       <use style="stroke:#000000;stroke-width:0.5;" x="230.846675766" xlink:href="#m055cf1c9fc" y="180.0"/>
      </g>
     </g>
     <g id="line2d_48">
      <g>
       <use style="stroke:#000000;stroke-width:0.5;" x="230.846675766" xlink:href="#m0f441c8ff1" y="7.2"/>
      </g>
     </g>
    </g>
    <g id="xtick_24">
     <g id="line2d_49">
      <g>
       <use style="stroke:#000000;stroke-width:0.5;" x="235.234446628" xlink:href="#m055cf1c9fc" y="180.0"/>
      </g>
     </g>
     <g id="line2d_50">
      <g>
       <use style="stroke:#000000;stroke-width:0.5;" x="235.234446628" xlink:href="#m0f441c8ff1" y="7.2"/>
      </g>
     </g>
    </g>
    <g id="xtick_25">
     <g id="line2d_51">
      <g>
       <use style="stroke:#000000;stroke-width:0.5;" x="264.98125" xlink:href="#m055cf1c9fc" y="180.0"/>
      </g>
     </g>
     <g id="line2d_52">
      <g>
       <use style="stroke:#000000;stroke-width:0.5;" x="264.98125" xlink:href="#m0f441c8ff1" y="7.2"/>
      </g>
     </g>
    </g>
    <g id="text_4">
     <!-- Time (s) -->
     <defs>
      <path d="M 8.015625 75.875 
L 15.828125 75.875 
Q 23.140625 64.359375 26.78125 53.3125 
Q 30.421875 42.28125 30.421875 31.390625 
Q 30.421875 20.453125 26.78125 9.375 
Q 23.140625 -1.703125 15.828125 -13.1875 
L 8.015625 -13.1875 
Q 14.5 -2 17.703125 9.0625 
Q 20.90625 20.125 20.90625 31.390625 
Q 20.90625 42.671875 17.703125 53.65625 
Q 14.5 64.65625 8.015625 75.875 
" id="BitstreamVeraSans-Roman-29"/>
      <path id="BitstreamVeraSans-Roman-20"/>
      <path d="M 52 44.1875 
Q 55.375 50.25 60.0625 53.125 
Q 64.75 56 71.09375 56 
Q 79.640625 56 84.28125 50.015625 
Q 88.921875 44.046875 88.921875 33.015625 
L 88.921875 0 
L 79.890625 0 
L 79.890625 32.71875 
Q 79.890625 40.578125 77.09375 44.375 
Q 74.3125 48.1875 68.609375 48.1875 
Q 61.625 48.1875 57.5625 43.546875 
Q 53.515625 38.921875 53.515625 30.90625 
L 53.515625 0 
L 44.484375 0 
L 44.484375 32.71875 
Q 44.484375 40.625 41.703125 44.40625 
Q 38.921875 48.1875 33.109375 48.1875 
Q 26.21875 48.1875 22.15625 43.53125 
Q 18.109375 38.875 18.109375 30.90625 
L 18.109375 0 
L 9.078125 0 
L 9.078125 54.6875 
L 18.109375 54.6875 
L 18.109375 46.1875 
Q 21.1875 51.21875 25.484375 53.609375 
Q 29.78125 56 35.6875 56 
Q 41.65625 56 45.828125 52.96875 
Q 50 49.953125 52 44.1875 
" id="BitstreamVeraSans-Roman-6d"/>
      <path d="M 9.421875 54.6875 
L 18.40625 54.6875 
L 18.40625 0 
L 9.421875 0 
z
M 9.421875 75.984375 
L 18.40625 75.984375 
L 18.40625 64.59375 
L 9.421875 64.59375 
z
" id="BitstreamVeraSans-Roman-69"/>
      <path d="M -0.296875 72.90625 
L 61.375 72.90625 
L 61.375 64.59375 
L 35.5 64.59375 
L 35.5 0 
L 25.59375 0 
L 25.59375 64.59375 
L -0.296875 64.59375 
z
" id="BitstreamVeraSans-Roman-54"/>
      <path d="M 44.28125 53.078125 
L 44.28125 44.578125 
Q 40.484375 46.53125 36.375 47.5 
Q 32.28125 48.484375 27.875 48.484375 
Q 21.1875 48.484375 17.84375 46.4375 
Q 14.5 44.390625 14.5 40.28125 
Q 14.5 37.15625 16.890625 35.375 
Q 19.28125 33.59375 26.515625 31.984375 
L 29.59375 31.296875 
Q 39.15625 29.25 43.1875 25.515625 
Q 47.21875 21.78125 47.21875 15.09375 
Q 47.21875 7.46875 41.1875 3.015625 
Q 35.15625 -1.421875 24.609375 -1.421875 
Q 20.21875 -1.421875 15.453125 -0.5625 
Q 10.6875 0.296875 5.421875 2 
L 5.421875 11.28125 
Q 10.40625 8.6875 15.234375 7.390625 
Q 20.0625 6.109375 24.8125 6.109375 
Q 31.15625 6.109375 34.5625 8.28125 
Q 37.984375 10.453125 37.984375 14.40625 
Q 37.984375 18.0625 35.515625 20.015625 
Q 33.0625 21.96875 24.703125 23.78125 
L 21.578125 24.515625 
Q 13.234375 26.265625 9.515625 29.90625 
Q 5.8125 33.546875 5.8125 39.890625 
Q 5.8125 47.609375 11.28125 51.796875 
Q 16.75 56 26.8125 56 
Q 31.78125 56 36.171875 55.265625 
Q 40.578125 54.546875 44.28125 53.078125 
" id="BitstreamVeraSans-Roman-73"/>
      <path d="M 56.203125 29.59375 
L 56.203125 25.203125 
L 14.890625 25.203125 
Q 15.484375 15.921875 20.484375 11.0625 
Q 25.484375 6.203125 34.421875 6.203125 
Q 39.59375 6.203125 44.453125 7.46875 
Q 49.3125 8.734375 54.109375 11.28125 
L 54.109375 2.78125 
Q 49.265625 0.734375 44.1875 -0.34375 
Q 39.109375 -1.421875 33.890625 -1.421875 
Q 20.796875 -1.421875 13.15625 6.1875 
Q 5.515625 13.8125 5.515625 26.8125 
Q 5.515625 40.234375 12.765625 48.109375 
Q 20.015625 56 32.328125 56 
Q 43.359375 56 49.78125 48.890625 
Q 56.203125 41.796875 56.203125 29.59375 
M 47.21875 32.234375 
Q 47.125 39.59375 43.09375 43.984375 
Q 39.0625 48.390625 32.421875 48.390625 
Q 24.90625 48.390625 20.390625 44.140625 
Q 15.875 39.890625 15.1875 32.171875 
z
" id="BitstreamVeraSans-Roman-65"/>
      <path d="M 31 75.875 
Q 24.46875 64.65625 21.28125 53.65625 
Q 18.109375 42.671875 18.109375 31.390625 
Q 18.109375 20.125 21.3125 9.0625 
Q 24.515625 -2 31 -13.1875 
L 23.1875 -13.1875 
Q 15.875 -1.703125 12.234375 9.375 
Q 8.59375 20.453125 8.59375 31.390625 
Q 8.59375 42.28125 12.203125 53.3125 
Q 15.828125 64.359375 23.1875 75.875 
z
" id="BitstreamVeraSans-Roman-28"/>
     </defs>
     <g transform="translate(132.8984375 207.2984375)scale(0.1 -0.1)">
      <use xlink:href="#BitstreamVeraSans-Roman-54"/>
      <use x="61.037109375" xlink:href="#BitstreamVeraSans-Roman-69"/>
      <use x="88.8203125" xlink:href="#BitstreamVeraSans-Roman-6d"/>
      <use x="186.232421875" xlink:href="#BitstreamVeraSans-Roman-65"/>
      <use x="247.755859375" xlink:href="#BitstreamVeraSans-Roman-20"/>
      <use x="279.54296875" xlink:href="#BitstreamVeraSans-Roman-28"/>
      <use x="318.556640625" xlink:href="#BitstreamVeraSans-Roman-73"/>
      <use x="370.65625" xlink:href="#BitstreamVeraSans-Roman-29"/>
     </g>
    </g>
   </g>
   <g id="matplotlib.axis_2">
    <g id="ytick_1">
     <g id="line2d_53">
      <defs>
       <path d="M 0 0 
L 4 0 
" id="mf92fea101e" style="stroke:#000000;stroke-width:0.5;"/>
      </defs>
      <g>
       <use style="stroke:#000000;stroke-width:0.5;" x="41.78125" xlink:href="#mf92fea101e" y="180.0"/>
      </g>
     </g>
     <g id="line2d_54">
      <defs>
       <path d="M 0 0 
L -4 0 
" id="m78a0a2a0a9" style="stroke:#000000;stroke-width:0.5;"/>
      </defs>
      <g>
       <use style="stroke:#000000;stroke-width:0.5;" x="264.98125" xlink:href="#m78a0a2a0a9" y="180.0"/>
      </g>
     </g>
     <g id="text_5">
      <!-- 0.0 -->
      <defs>
       <path d="M 10.6875 12.40625 
L 21 12.40625 
L 21 0 
L 10.6875 0 
z
" id="BitstreamVeraSans-Roman-2e"/>
      </defs>
      <g transform="translate(21.878125 182.759375)scale(0.1 -0.1)">
       <use xlink:href="#BitstreamVeraSans-Roman-30"/>
       <use x="63.623046875" xlink:href="#BitstreamVeraSans-Roman-2e"/>
       <use x="95.41015625" xlink:href="#BitstreamVeraSans-Roman-30"/>
      </g>
     </g>
    </g>
    <g id="ytick_2">
     <g id="line2d_55">
      <g>
       <use style="stroke:#000000;stroke-width:0.5;" x="41.78125" xlink:href="#mf92fea101e" y="140.727272727"/>
      </g>
     </g>
     <g id="line2d_56">
      <g>
       <use style="stroke:#000000;stroke-width:0.5;" x="264.98125" xlink:href="#m78a0a2a0a9" y="140.727272727"/>
      </g>
     </g>
     <g id="text_6">
      <!-- 0.5 -->
      <defs>
       <path d="M 10.796875 72.90625 
L 49.515625 72.90625 
L 49.515625 64.59375 
L 19.828125 64.59375 
L 19.828125 46.734375 
Q 21.96875 47.46875 24.109375 47.828125 
Q 26.265625 48.1875 28.421875 48.1875 
Q 40.625 48.1875 47.75 41.5 
Q 54.890625 34.8125 54.890625 23.390625 
Q 54.890625 11.625 47.5625 5.09375 
Q 40.234375 -1.421875 26.90625 -1.421875 
Q 22.3125 -1.421875 17.546875 -0.640625 
Q 12.796875 0.140625 7.71875 1.703125 
L 7.71875 11.625 
Q 12.109375 9.234375 16.796875 8.0625 
Q 21.484375 6.890625 26.703125 6.890625 
Q 35.15625 6.890625 40.078125 11.328125 
Q 45.015625 15.765625 45.015625 23.390625 
Q 45.015625 31 40.078125 35.4375 
Q 35.15625 39.890625 26.703125 39.890625 
Q 22.75 39.890625 18.8125 39.015625 
Q 14.890625 38.140625 10.796875 36.28125 
z
" id="BitstreamVeraSans-Roman-35"/>
      </defs>
      <g transform="translate(21.878125 143.486647727)scale(0.1 -0.1)">
       <use xlink:href="#BitstreamVeraSans-Roman-30"/>
       <use x="63.623046875" xlink:href="#BitstreamVeraSans-Roman-2e"/>
       <use x="95.41015625" xlink:href="#BitstreamVeraSans-Roman-35"/>
      </g>
     </g>
    </g>
    <g id="ytick_3">
     <g id="line2d_57">
      <g>
       <use style="stroke:#000000;stroke-width:0.5;" x="41.78125" xlink:href="#mf92fea101e" y="101.454545455"/>
      </g>
     </g>
     <g id="line2d_58">
      <g>
       <use style="stroke:#000000;stroke-width:0.5;" x="264.98125" xlink:href="#m78a0a2a0a9" y="101.454545455"/>
      </g>
     </g>
     <g id="text_7">
      <!-- 1.0 -->
      <g transform="translate(21.878125 104.213920455)scale(0.1 -0.1)">
       <use xlink:href="#BitstreamVeraSans-Roman-31"/>
       <use x="63.623046875" xlink:href="#BitstreamVeraSans-Roman-2e"/>
       <use x="95.41015625" xlink:href="#BitstreamVeraSans-Roman-30"/>
      </g>
     </g>
    </g>
    <g id="ytick_4">
     <g id="line2d_59">
      <g>
       <use style="stroke:#000000;stroke-width:0.5;" x="41.78125" xlink:href="#mf92fea101e" y="62.1818181818"/>
      </g>
     </g>
     <g id="line2d_60">
      <g>
       <use style="stroke:#000000;stroke-width:0.5;" x="264.98125" xlink:href="#m78a0a2a0a9" y="62.1818181818"/>
      </g>
     </g>
     <g id="text_8">
      <!-- 1.5 -->
      <g transform="translate(21.878125 64.9411931818)scale(0.1 -0.1)">
       <use xlink:href="#BitstreamVeraSans-Roman-31"/>
       <use x="63.623046875" xlink:href="#BitstreamVeraSans-Roman-2e"/>
       <use x="95.41015625" xlink:href="#BitstreamVeraSans-Roman-35"/>
      </g>
     </g>
    </g>
    <g id="ytick_5">
     <g id="line2d_61">
      <g>
       <use style="stroke:#000000;stroke-width:0.5;" x="41.78125" xlink:href="#mf92fea101e" y="22.9090909091"/>
      </g>
     </g>
     <g id="line2d_62">
      <g>
       <use style="stroke:#000000;stroke-width:0.5;" x="264.98125" xlink:href="#m78a0a2a0a9" y="22.9090909091"/>
      </g>
     </g>
     <g id="text_9">
      <!-- 2.0 -->
      <defs>
       <path d="M 19.1875 8.296875 
L 53.609375 8.296875 
L 53.609375 0 
L 7.328125 0 
L 7.328125 8.296875 
Q 12.9375 14.109375 22.625 23.890625 
Q 32.328125 33.6875 34.8125 36.53125 
Q 39.546875 41.84375 41.421875 45.53125 
Q 43.3125 49.21875 43.3125 52.78125 
Q 43.3125 58.59375 39.234375 62.25 
Q 35.15625 65.921875 28.609375 65.921875 
Q 23.96875 65.921875 18.8125 64.3125 
Q 13.671875 62.703125 7.8125 59.421875 
L 7.8125 69.390625 
Q 13.765625 71.78125 18.9375 73 
Q 24.125 74.21875 28.421875 74.21875 
Q 39.75 74.21875 46.484375 68.546875 
Q 53.21875 62.890625 53.21875 53.421875 
Q 53.21875 48.921875 51.53125 44.890625 
Q 49.859375 40.875 45.40625 35.40625 
Q 44.1875 33.984375 37.640625 27.21875 
Q 31.109375 20.453125 19.1875 8.296875 
" id="BitstreamVeraSans-Roman-32"/>
      </defs>
      <g transform="translate(21.878125 25.6684659091)scale(0.1 -0.1)">
       <use xlink:href="#BitstreamVeraSans-Roman-32"/>
       <use x="63.623046875" xlink:href="#BitstreamVeraSans-Roman-2e"/>
       <use x="95.41015625" xlink:href="#BitstreamVeraSans-Roman-30"/>
      </g>
     </g>
    </g>
    <g id="text_10">
     <!-- $\alpha_2$ -->
     <defs>
      <path d="M 20.125 -1.125 
Q 15.375 -1.125 11.6875 1.125 
Q 8.015625 3.375 6 7.171875 
Q 4 10.984375 4 15.828125 
Q 4 22.609375 7.78125 29.25 
Q 11.578125 35.890625 17.84375 40.03125 
Q 24.125 44.1875 31 44.1875 
Q 36.078125 44.1875 39.9375 41.53125 
Q 43.796875 38.875 45.796875 34.453125 
Q 47.796875 30.03125 47.796875 25 
L 47.90625 18.3125 
Q 51.3125 23.046875 53.6875 28.140625 
Q 56.0625 33.25 57.328125 38.71875 
Q 57.515625 39.3125 58.109375 39.3125 
L 59.28125 39.3125 
Q 60.203125 39.3125 60.203125 38.375 
Q 60.203125 38.28125 60.109375 38.09375 
Q 58.9375 33.5 57.171875 29.265625 
Q 55.421875 25.046875 53.046875 21.09375 
Q 50.6875 17.140625 47.90625 13.921875 
Q 47.90625 1.515625 50.78125 1.515625 
Q 52.640625 1.515625 53.828125 2.609375 
Q 55.03125 3.71875 55.9375 5.328125 
Q 56.84375 6.9375 57.078125 6.984375 
L 58.296875 6.984375 
Q 59.078125 6.984375 59.078125 6 
Q 59.078125 3.515625 56.21875 1.1875 
Q 53.375 -1.125 50.59375 -1.125 
Q 46.96875 -1.125 44.578125 1.21875 
Q 42.1875 3.5625 41.3125 7.328125 
Q 36.625 3.328125 31.15625 1.09375 
Q 25.6875 -1.125 20.125 -1.125 
M 20.3125 1.515625 
Q 31 1.515625 40.828125 10.296875 
Q 40.765625 10.890625 40.671875 11.734375 
Q 40.578125 12.59375 40.578125 12.703125 
L 40.578125 23.484375 
Q 40.578125 41.609375 30.8125 41.609375 
Q 24.953125 41.609375 20.546875 36.59375 
Q 16.15625 31.59375 13.9375 24.625 
Q 11.71875 17.671875 11.71875 11.921875 
Q 11.71875 7.5625 13.9375 4.53125 
Q 16.15625 1.515625 20.3125 1.515625 
" id="Cmmi10-ae"/>
      <path d="M 4.984375 0 
L 4.984375 2.6875 
Q 4.984375 2.9375 5.171875 3.21875 
L 20.703125 20.40625 
Q 24.21875 24.21875 26.40625 26.796875 
Q 28.609375 29.390625 30.75 32.765625 
Q 32.90625 36.140625 34.15625 39.625 
Q 35.40625 43.109375 35.40625 47.015625 
Q 35.40625 51.125 33.890625 54.859375 
Q 32.375 58.59375 29.375 60.84375 
Q 26.375 63.09375 22.125 63.09375 
Q 17.78125 63.09375 14.3125 60.46875 
Q 10.84375 57.859375 9.421875 53.71875 
Q 9.8125 53.8125 10.5 53.8125 
Q 12.75 53.8125 14.328125 52.296875 
Q 15.921875 50.78125 15.921875 48.390625 
Q 15.921875 46.09375 14.328125 44.5 
Q 12.75 42.921875 10.5 42.921875 
Q 8.15625 42.921875 6.5625 44.546875 
Q 4.984375 46.1875 4.984375 48.390625 
Q 4.984375 52.15625 6.390625 55.4375 
Q 7.8125 58.734375 10.46875 61.296875 
Q 13.140625 63.875 16.484375 65.234375 
Q 19.828125 66.609375 23.578125 66.609375 
Q 29.296875 66.609375 34.21875 64.1875 
Q 39.15625 61.765625 42.03125 57.34375 
Q 44.921875 52.9375 44.921875 47.015625 
Q 44.921875 42.671875 43.015625 38.765625 
Q 41.109375 34.859375 38.125 31.65625 
Q 35.15625 28.46875 30.515625 24.40625 
Q 25.875 20.359375 24.421875 19 
L 13.09375 8.109375 
L 22.703125 8.109375 
Q 29.78125 8.109375 34.546875 8.21875 
Q 39.3125 8.34375 39.59375 8.59375 
Q 40.765625 9.859375 42 17.828125 
L 44.921875 17.828125 
L 42.09375 0 
z
" id="Cmr10-32"/>
     </defs>
     <g transform="translate(14.278125 99.3)rotate(-90.0)scale(0.1 -0.1)">
      <use transform="translate(0.0 0.8125)" xlink:href="#Cmmi10-ae"/>
      <use transform="translate(63.916015625 -24.696875000000006)scale(0.7)" xlink:href="#Cmr10-32"/>
     </g>
    </g>
   </g>
  </g>
 </g>
 <defs>
  <clipPath id="p102dfa6db0">
   <rect height="172.8" width="223.2" x="41.78125" y="7.2"/>
  </clipPath>
 </defs>
</svg>
