<?xml version="1.0" encoding="utf-8" standalone="no"?>
<!DOCTYPE svg PUBLIC "-//W3C//DTD SVG 1.1//EN"
  "http://www.w3.org/Graphics/SVG/1.1/DTD/svg11.dtd">
<!-- Created with matplotlib (http://matplotlib.org/) -->
<svg height="232pt" version="1.1" viewBox="0 0 282 232" width="282pt" xmlns="http://www.w3.org/2000/svg" xmlns:xlink="http://www.w3.org/1999/xlink">
 <defs>
  <style type="text/css">
*{stroke-linecap:butt;stroke-linejoin:round;stroke-miterlimit:100000;}
  </style>
 </defs>
 <g id="figure_1">
  <g id="patch_1">
   <path d="M 0 232.63375 
L 282.716875 232.63375 
L 282.716875 0 
L 0 0 
z
" style="fill:#ffffff;"/>
  </g>
  <g id="axes_1">
   <g id="patch_2">
    <path d="M 43.716875 194.12 
L 266.916875 194.12 
L 266.916875 21.32 
L 43.716875 21.32 
z
" style="fill:#ffffff;"/>
   </g>
   <g id="line2d_1">
    <path clip-path="url(#pe815ea7e25)" d="M 43.716875 194.12 
L 47.499926 194.12 
L 51.282977 194.12 
L 55.066028 194.12 
L 58.849078 194.12 
L 62.632129 194.12 
L 66.41518 194.12 
L 70.198231 194.12 
L 73.981282 194.12 
L 77.764333 194.12 
L 81.547383 194.12 
L 85.330434 194.12 
L 89.113485 194.12 
L 92.896536 193.99256 
L 96.679587 193.86512 
L 100.462638 193.73768 
L 104.245689 193.35536 
L 108.028739 193.73768 
L 111.81179 193.22792 
L 115.594841 192.97304 
L 119.377892 193.4828 
L 123.160943 192.8456 
L 126.943994 191.69864 
L 130.727044 190.2968 
L 134.510095 191.44376 
L 138.293146 189.0224 
L 142.076197 189.6596 
L 145.859248 186.72848 
L 149.642299 180.22904 
L 153.42535 176.9156 
L 157.2084 165.06368 
L 160.991451 151.80992 
L 164.774502 137.15432 
L 168.557553 117.27368 
L 172.340604 87.7076 
L 176.123655 59.6708 
L 179.906706 37.11392 
L 183.689756 25.13456 
L 187.472807 44.50544 
L 191.255858 67.06232 
L 195.038909 106.31384 
L 198.82196 145.31048 
L 202.605011 175.13144 
L 206.388061 188.00288 
L 210.171112 192.97304 
L 213.954163 194.12 
L 217.737214 194.12 
L 221.520265 194.12 
L 225.303316 194.12 
L 229.086367 194.12 
L 232.869417 194.12 
L 236.652468 194.12 
L 240.435519 194.12 
L 244.21857 194.12 
L 248.001621 194.12 
L 251.784672 194.12 
L 255.567722 194.12 
L 259.350773 194.12 
L 263.133824 194.12 
L 266.916875 194.12 
L 266.916875 194.12 
" style="fill:none;stroke:#4daf4a;stroke-linecap:square;stroke-width:2.0;"/>
   </g>
   <g id="line2d_2">
    <path clip-path="url(#pe815ea7e25)" d="M 43.716875 194.12 
L 47.499926 194.12 
L 51.282977 194.12 
L 55.066028 194.12 
L 58.849078 194.12 
L 62.632129 194.12 
L 66.41518 194.12 
L 70.198231 194.12 
L 73.981282 194.12 
L 77.764333 194.030254 
L 81.547383 193.940507 
L 85.330434 194.030254 
L 89.113485 194.12 
L 92.896536 193.940507 
L 96.679587 193.581521 
L 100.462638 193.940507 
L 104.245689 192.773803 
L 108.028739 193.312282 
L 111.81179 192.953296 
L 115.594841 192.504563 
L 119.377892 191.248113 
L 123.160943 190.978873 
L 126.943994 191.158366 
L 130.727044 189.363437 
L 134.510095 188.645465 
L 138.293146 187.299268 
L 142.076197 183.978648 
L 145.859248 180.568282 
L 149.642299 174.016789 
L 153.42535 160.73431 
L 157.2084 147.451831 
L 160.991451 130.4 
L 164.774502 108.412113 
L 168.557553 87.501183 
L 172.340604 64.88507 
L 176.123655 39.127831 
L 179.906706 40.743268 
L 183.689756 46.397296 
L 187.472807 65.15431 
L 191.255858 112.80969 
L 195.038909 151.490423 
L 198.82196 177.247662 
L 202.605011 188.286479 
L 206.388061 192.863549 
L 210.171112 194.030254 
L 213.954163 194.12 
L 217.737214 194.12 
L 221.520265 194.12 
L 225.303316 194.12 
L 229.086367 194.12 
L 232.869417 194.12 
L 236.652468 194.12 
L 240.435519 194.12 
L 244.21857 194.12 
L 248.001621 194.12 
L 251.784672 194.12 
L 255.567722 194.12 
L 259.350773 194.12 
L 263.133824 194.12 
L 266.916875 194.12 
L 266.916875 194.12 
" style="fill:none;stroke:#429681;stroke-linecap:square;stroke-width:2.0;"/>
   </g>
   <g id="line2d_3">
    <path clip-path="url(#pe815ea7e25)" d="M 43.716875 194.12 
L 47.499926 194.12 
L 51.282977 194.12 
L 55.066028 194.12 
L 58.849078 194.12 
L 62.632129 194.12 
L 66.41518 194.05628 
L 70.198231 194.12 
L 73.981282 194.12 
L 77.764333 194.05628 
L 81.547383 193.99256 
L 85.330434 194.05628 
L 89.113485 194.12 
L 92.896536 193.8014 
L 96.679587 193.67396 
L 100.462638 193.73768 
L 104.245689 193.61024 
L 108.028739 193.41908 
L 111.81179 192.78188 
L 115.594841 192.14468 
L 119.377892 191.5712 
L 123.160943 189.85076 
L 126.943994 187.93916 
L 130.727044 187.748 
L 134.510095 184.94432 
L 138.293146 181.24856 
L 142.076197 177.29792 
L 145.859248 170.73476 
L 149.642299 157.35356 
L 153.42535 146.33 
L 157.2084 130.20884 
L 160.991451 109.56356 
L 164.774502 81.46304 
L 168.557553 64.64096 
L 172.340604 41.25572 
L 176.123655 36.92276 
L 179.906706 56.10248 
L 183.689756 81.52676 
L 187.472807 116.3816 
L 191.255858 148.17788 
L 195.038909 174.74912 
L 198.82196 187.68428 
L 202.605011 192.78188 
L 206.388061 193.99256 
L 210.171112 194.12 
L 213.954163 194.12 
L 217.737214 194.12 
L 221.520265 194.12 
L 225.303316 194.12 
L 229.086367 194.12 
L 232.869417 194.12 
L 236.652468 194.12 
L 240.435519 194.12 
L 244.21857 194.12 
L 248.001621 194.12 
L 251.784672 194.12 
L 255.567722 194.12 
L 259.350773 194.12 
L 263.133824 194.12 
L 266.916875 194.12 
L 266.916875 194.12 
" style="fill:none;stroke:#377eb8;stroke-linecap:square;stroke-width:2.0;"/>
   </g>
   <g id="line2d_4">
    <path clip-path="url(#pe815ea7e25)" d="M 43.716875 194.12 
L 47.499926 194.12 
L 51.282977 194.12 
L 55.066028 194.12 
L 58.849078 194.043229 
L 62.632129 194.081614 
L 66.41518 194.12 
L 70.198231 194.12 
L 73.981282 194.043229 
L 77.764333 194.081614 
L 81.547383 194.004843 
L 85.330434 193.966458 
L 89.113485 193.812916 
L 92.896536 193.620988 
L 96.679587 193.313904 
L 100.462638 192.891663 
L 104.245689 192.699735 
L 108.028739 191.548169 
L 111.81179 190.281446 
L 115.594841 188.976337 
L 119.377892 187.479301 
L 123.160943 183.832675 
L 126.943994 182.258867 
L 130.727044 177.921301 
L 134.510095 173.084723 
L 138.293146 166.060169 
L 142.076197 160.916506 
L 145.859248 148.249277 
L 149.642299 134.96788 
L 153.42535 117.387301 
L 157.2084 98.578386 
L 160.991451 76.775398 
L 164.774502 60.346386 
L 168.557553 52.55412 
L 172.340604 55.74012 
L 176.123655 73.627783 
L 179.906706 101.802771 
L 183.689756 133.509229 
L 187.472807 162.221614 
L 191.255858 181.683084 
L 195.038909 190.358217 
L 198.82196 193.237133 
L 202.605011 194.081614 
L 206.388061 194.12 
L 210.171112 194.12 
L 213.954163 194.12 
L 217.737214 194.12 
L 221.520265 194.12 
L 225.303316 194.12 
L 229.086367 194.12 
L 232.869417 194.12 
L 236.652468 194.12 
L 240.435519 194.12 
L 244.21857 194.12 
L 248.001621 194.12 
L 251.784672 194.12 
L 255.567722 194.12 
L 259.350773 194.12 
L 263.133824 194.12 
L 266.916875 194.12 
L 266.916875 194.12 
" style="fill:none;stroke:#6866ad;stroke-linecap:square;stroke-width:2.0;"/>
   </g>
   <g id="line2d_5">
    <path clip-path="url(#pe815ea7e25)" d="M 43.716875 194.12 
L 47.499926 194.12 
L 51.282977 194.12 
L 55.066028 194.12 
L 58.849078 194.12 
L 62.632129 194.12 
L 66.41518 194.12 
L 70.198231 194.094512 
L 73.981282 194.069024 
L 77.764333 193.967072 
L 81.547383 194.018048 
L 85.330434 193.839632 
L 89.113485 193.788656 
L 92.896536 193.533776 
L 96.679587 193.049504 
L 100.462638 192.616208 
L 104.245689 191.265344 
L 108.028739 189.812528 
L 111.81179 187.748 
L 115.594841 184.995296 
L 119.377892 182.166128 
L 123.160943 176.813648 
L 126.943994 172.20032 
L 130.727044 167.000768 
L 134.510095 159.864128 
L 138.293146 149.592464 
L 142.076197 140.620688 
L 145.859248 130.119632 
L 149.642299 114.291584 
L 153.42535 96.24608 
L 157.2084 78.1496 
L 160.991451 64.844864 
L 164.774502 61.378496 
L 168.557553 66.654512 
L 172.340604 86.866496 
L 176.123655 110.0096 
L 179.906706 142.175456 
L 183.689756 164.961728 
L 187.472807 181.325024 
L 191.255858 190.42424 
L 195.038909 193.253408 
L 198.82196 194.043536 
L 202.605011 194.12 
L 206.388061 194.12 
L 210.171112 194.12 
L 213.954163 194.12 
L 217.737214 194.12 
L 221.520265 194.12 
L 225.303316 194.12 
L 229.086367 194.12 
L 232.869417 194.12 
L 236.652468 194.12 
L 240.435519 194.12 
L 244.21857 194.12 
L 248.001621 194.12 
L 251.784672 194.12 
L 255.567722 194.12 
L 259.350773 194.12 
L 263.133824 194.12 
L 266.916875 194.12 
L 266.916875 194.12 
" style="fill:none;stroke:#994ea2;stroke-linecap:square;stroke-width:2.0;"/>
   </g>
   <g id="line2d_6">
    <path clip-path="url(#pe815ea7e25)" d="M 43.716875 194.12 
L 47.499926 194.12 
L 51.282977 194.107256 
L 55.066028 194.094512 
L 58.849078 194.069023 
L 62.632129 194.094512 
L 66.41518 194.018047 
L 70.198231 194.069023 
L 73.981282 193.954326 
L 77.764333 193.75042 
L 81.547383 193.406329 
L 85.330434 193.431817 
L 89.113485 193.011261 
L 92.896536 192.08094 
L 96.679587 190.972201 
L 100.462638 189.213511 
L 104.245689 187.238171 
L 108.028739 184.230557 
L 111.81179 179.821089 
L 115.594841 172.862795 
L 119.377892 166.312314 
L 123.160943 155.390597 
L 126.943994 147.795097 
L 130.727044 137.816445 
L 134.510095 128.806347 
L 138.293146 119.898202 
L 142.076197 111.321404 
L 145.859248 101.572147 
L 149.642299 95.709848 
L 153.42535 88.15258 
L 157.2084 77.179887 
L 160.991451 79.53755 
L 164.774502 90.956288 
L 168.557553 116.100452 
L 172.340604 140.454479 
L 176.123655 161.673452 
L 179.906706 179.400533 
L 183.689756 188.958628 
L 187.472807 192.845587 
L 191.255858 193.877862 
L 195.038909 194.094512 
L 198.82196 194.12 
L 202.605011 194.12 
L 206.388061 194.12 
L 210.171112 194.12 
L 213.954163 194.12 
L 217.737214 194.12 
L 221.520265 194.12 
L 225.303316 194.12 
L 229.086367 194.12 
L 232.869417 194.12 
L 236.652468 194.12 
L 240.435519 194.12 
L 244.21857 194.12 
L 248.001621 194.12 
L 251.784672 194.12 
L 255.567722 194.12 
L 259.350773 194.12 
L 263.133824 194.12 
L 266.916875 194.12 
L 266.916875 194.12 
" style="fill:none;stroke:#bf335e;stroke-linecap:square;stroke-width:2.0;"/>
   </g>
   <g id="line2d_7">
    <path clip-path="url(#pe815ea7e25)" d="M 43.716875 194.12 
L 47.499926 194.111076 
L 51.282977 194.084303 
L 55.066028 194.102151 
L 58.849078 194.075378 
L 62.632129 194.012908 
L 66.41518 194.030756 
L 70.198231 193.923664 
L 73.981282 193.77195 
L 77.764333 193.673782 
L 81.547383 193.504218 
L 85.330434 193.040151 
L 89.113485 192.192336 
L 92.896536 191.174958 
L 96.679587 189.38116 
L 100.462638 187.373176 
L 104.245689 183.865899 
L 108.028739 179.39479 
L 111.81179 173.210202 
L 115.594841 164.214437 
L 119.377892 153.47842 
L 123.160943 143.117227 
L 126.943994 132.720336 
L 130.727044 121.636269 
L 134.510095 110.944874 
L 138.293146 105.911529 
L 142.076197 101.136992 
L 145.859248 97.834975 
L 149.642299 95.951933 
L 153.42535 93.551277 
L 157.2084 89.69595 
L 160.991451 96.817597 
L 164.774502 114.693109 
L 168.557553 139.770588 
L 172.340604 160.573294 
L 176.123655 177.467126 
L 179.906706 187.881866 
L 183.689756 192.13879 
L 187.472807 193.780874 
L 191.255858 194.039681 
L 195.038909 194.12 
L 198.82196 194.12 
L 202.605011 194.12 
L 206.388061 194.12 
L 210.171112 194.12 
L 213.954163 194.12 
L 217.737214 194.12 
L 221.520265 194.12 
L 225.303316 194.12 
L 229.086367 194.12 
L 232.869417 194.12 
L 236.652468 194.12 
L 240.435519 194.12 
L 244.21857 194.12 
L 248.001621 194.12 
L 251.784672 194.12 
L 255.567722 194.12 
L 259.350773 194.12 
L 263.133824 194.12 
L 266.916875 194.12 
L 266.916875 194.12 
" style="fill:none;stroke:#e41b1c;stroke-linecap:square;stroke-width:2.0;"/>
   </g>
   <g id="line2d_8">
    <path clip-path="url(#pe815ea7e25)" d="M 43.716875 194.12 
L 47.499926 194.113628 
L 51.282977 194.094512 
L 55.066028 194.056279 
L 58.849078 194.024419 
L 62.632129 193.979814 
L 66.41518 193.99893 
L 70.198231 193.865116 
L 73.981282 193.788651 
L 77.764333 193.489163 
L 81.547383 193.119581 
L 85.330434 192.705395 
L 89.113485 191.520185 
L 92.896536 190.328603 
L 96.679587 188.308649 
L 100.462638 184.988787 
L 104.245689 180.298925 
L 108.028739 174.876271 
L 111.81179 165.834268 
L 115.594841 156.148682 
L 119.377892 144.468631 
L 123.160943 129.583416 
L 126.943994 116.27848 
L 130.727044 106.439965 
L 134.510095 98.67238 
L 138.293146 96.085309 
L 142.076197 94.77903 
L 145.859248 97.340612 
L 149.642299 99.940427 
L 153.42535 101.189358 
L 157.2084 105.821872 
L 160.991451 113.939921 
L 164.774502 136.337837 
L 168.557553 157.69073 
L 172.340604 174.850783 
L 176.123655 186.212229 
L 179.906706 191.379999 
L 183.689756 193.578372 
L 187.472807 194.043535 
L 191.255858 194.107256 
L 195.038909 194.12 
L 198.82196 194.12 
L 202.605011 194.12 
L 206.388061 194.12 
L 210.171112 194.12 
L 213.954163 194.12 
L 217.737214 194.12 
L 221.520265 194.12 
L 225.303316 194.12 
L 229.086367 194.12 
L 232.869417 194.12 
L 236.652468 194.12 
L 240.435519 194.12 
L 244.21857 194.12 
L 248.001621 194.12 
L 251.784672 194.12 
L 255.567722 194.12 
L 259.350773 194.12 
L 263.133824 194.12 
L 266.916875 194.12 
L 266.916875 194.12 
" style="fill:none;stroke:#f24e0e;stroke-linecap:square;stroke-width:2.0;"/>
   </g>
   <g id="line2d_9">
    <path clip-path="url(#pe815ea7e25)" d="M 43.716875 194.12 
L 47.499926 194.097051 
L 51.282977 194.077926 
L 55.066028 194.039678 
L 58.849078 194.035853 
L 62.632129 194.009079 
L 66.41518 193.917281 
L 70.198231 193.703088 
L 73.981282 193.527144 
L 77.764333 193.217329 
L 81.547383 192.773643 
L 85.330434 191.943644 
L 89.113485 190.314245 
L 92.896536 188.677197 
L 96.679587 185.73204 
L 100.462638 181.536148 
L 104.245689 175.152424 
L 108.028739 166.883036 
L 111.81179 154.895865 
L 115.594841 141.508788 
L 119.377892 126.151898 
L 123.160943 109.670494 
L 126.943994 96.088348 
L 130.727044 86.713569 
L 134.510095 83.049335 
L 138.293146 87.069283 
L 142.076197 94.604295 
L 145.859248 102.284652 
L 149.642299 111.674731 
L 153.42535 120.07799 
L 157.2084 129.315073 
L 160.991451 143.119062 
L 164.774502 161.06922 
L 168.557553 177.003666 
L 172.340604 186.84508 
L 176.123655 191.679727 
L 179.906706 193.569217 
L 183.689756 194.012903 
L 187.472807 194.12 
L 191.255858 194.12 
L 195.038909 194.12 
L 198.82196 194.12 
L 202.605011 194.12 
L 206.388061 194.12 
L 210.171112 194.12 
L 213.954163 194.12 
L 217.737214 194.12 
L 221.520265 194.12 
L 225.303316 194.12 
L 229.086367 194.12 
L 232.869417 194.12 
L 236.652468 194.12 
L 240.435519 194.12 
L 244.21857 194.12 
L 248.001621 194.12 
L 251.784672 194.12 
L 255.567722 194.12 
L 259.350773 194.12 
L 263.133824 194.12 
L 266.916875 194.12 
L 266.916875 194.12 
" style="fill:none;stroke:#ff7f00;stroke-linecap:square;stroke-width:2.0;"/>
   </g>
   <g id="patch_3">
    <path d="M 266.916875 194.12 
L 266.916875 21.32 
" style="fill:none;stroke:#000000;stroke-linecap:square;stroke-linejoin:miter;"/>
   </g>
   <g id="patch_4">
    <path d="M 43.716875 194.12 
L 43.716875 21.32 
" style="fill:none;stroke:#000000;stroke-linecap:square;stroke-linejoin:miter;"/>
   </g>
   <g id="patch_5">
    <path d="M 43.716875 21.32 
L 266.916875 21.32 
" style="fill:none;stroke:#000000;stroke-linecap:square;stroke-linejoin:miter;"/>
   </g>
   <g id="patch_6">
    <path d="M 43.716875 194.12 
L 266.916875 194.12 
" style="fill:none;stroke:#000000;stroke-linecap:square;stroke-linejoin:miter;"/>
   </g>
   <g id="matplotlib.axis_1">
    <g id="xtick_1">
     <g id="line2d_10">
      <defs>
       <path d="M 0 0 
L 0 -4 
" id="mf54d3e9c84" style="stroke:#000000;stroke-width:0.5;"/>
      </defs>
      <g>
       <use style="stroke:#000000;stroke-width:0.5;" x="43.716875" xlink:href="#mf54d3e9c84" y="194.12"/>
      </g>
     </g>
     <g id="line2d_11">
      <defs>
       <path d="M 0 0 
L 0 4 
" id="m179a124b21" style="stroke:#000000;stroke-width:0.5;"/>
      </defs>
      <g>
       <use style="stroke:#000000;stroke-width:0.5;" x="43.716875" xlink:href="#m179a124b21" y="21.32"/>
      </g>
     </g>
     <g id="text_1">
      <!-- $\mathdefault{10^{-2}}$ -->
      <defs>
       <path d="M 4.890625 31.390625 
L 31.203125 31.390625 
L 31.203125 23.390625 
L 4.890625 23.390625 
z
" id="BitstreamVeraSans-Roman-2d"/>
       <path d="M 19.1875 8.296875 
L 53.609375 8.296875 
L 53.609375 0 
L 7.328125 0 
L 7.328125 8.296875 
Q 12.9375 14.109375 22.625 23.890625 
Q 32.328125 33.6875 34.8125 36.53125 
Q 39.546875 41.84375 41.421875 45.53125 
Q 43.3125 49.21875 43.3125 52.78125 
Q 43.3125 58.59375 39.234375 62.25 
Q 35.15625 65.921875 28.609375 65.921875 
Q 23.96875 65.921875 18.8125 64.3125 
Q 13.671875 62.703125 7.8125 59.421875 
L 7.8125 69.390625 
Q 13.765625 71.78125 18.9375 73 
Q 24.125 74.21875 28.421875 74.21875 
Q 39.75 74.21875 46.484375 68.546875 
Q 53.21875 62.890625 53.21875 53.421875 
Q 53.21875 48.921875 51.53125 44.890625 
Q 49.859375 40.875 45.40625 35.40625 
Q 44.1875 33.984375 37.640625 27.21875 
Q 31.109375 20.453125 19.1875 8.296875 
" id="BitstreamVeraSans-Roman-32"/>
       <path d="M 31.78125 66.40625 
Q 24.171875 66.40625 20.328125 58.90625 
Q 16.5 51.421875 16.5 36.375 
Q 16.5 21.390625 20.328125 13.890625 
Q 24.171875 6.390625 31.78125 6.390625 
Q 39.453125 6.390625 43.28125 13.890625 
Q 47.125 21.390625 47.125 36.375 
Q 47.125 51.421875 43.28125 58.90625 
Q 39.453125 66.40625 31.78125 66.40625 
M 31.78125 74.21875 
Q 44.046875 74.21875 50.515625 64.515625 
Q 56.984375 54.828125 56.984375 36.375 
Q 56.984375 17.96875 50.515625 8.265625 
Q 44.046875 -1.421875 31.78125 -1.421875 
Q 19.53125 -1.421875 13.0625 8.265625 
Q 6.59375 17.96875 6.59375 36.375 
Q 6.59375 54.828125 13.0625 64.515625 
Q 19.53125 74.21875 31.78125 74.21875 
" id="BitstreamVeraSans-Roman-30"/>
       <path d="M 12.40625 8.296875 
L 28.515625 8.296875 
L 28.515625 63.921875 
L 10.984375 60.40625 
L 10.984375 69.390625 
L 28.421875 72.90625 
L 38.28125 72.90625 
L 38.28125 8.296875 
L 54.390625 8.296875 
L 54.390625 0 
L 12.40625 0 
z
" id="BitstreamVeraSans-Roman-31"/>
      </defs>
      <g transform="translate(33.816875 206.7403125)scale(0.1 -0.1)">
       <use transform="translate(0.0 0.546875)" xlink:href="#BitstreamVeraSans-Roman-31"/>
       <use transform="translate(63.623046875 0.546875)" xlink:href="#BitstreamVeraSans-Roman-30"/>
       <use transform="translate(127.24609375 53.046875)scale(0.7)" xlink:href="#BitstreamVeraSans-Roman-2d"/>
       <use transform="translate(152.5048828125 53.046875)scale(0.7)" xlink:href="#BitstreamVeraSans-Roman-32"/>
      </g>
     </g>
    </g>
    <g id="xtick_2">
     <g id="line2d_12">
      <g>
       <use style="stroke:#000000;stroke-width:0.5;" x="99.516875" xlink:href="#mf54d3e9c84" y="194.12"/>
      </g>
     </g>
     <g id="line2d_13">
      <g>
       <use style="stroke:#000000;stroke-width:0.5;" x="99.516875" xlink:href="#m179a124b21" y="21.32"/>
      </g>
     </g>
     <g id="text_2">
      <!-- $\mathdefault{10^{-1}}$ -->
      <g transform="translate(89.616875 206.6403125)scale(0.1 -0.1)">
       <use transform="translate(0.0 0.46562500000000284)" xlink:href="#BitstreamVeraSans-Roman-31"/>
       <use transform="translate(63.623046875 0.46562500000000284)" xlink:href="#BitstreamVeraSans-Roman-30"/>
       <use transform="translate(127.24609375 52.965625)scale(0.7)" xlink:href="#BitstreamVeraSans-Roman-2d"/>
       <use transform="translate(152.5048828125 52.965625)scale(0.7)" xlink:href="#BitstreamVeraSans-Roman-31"/>
      </g>
     </g>
    </g>
    <g id="xtick_3">
     <g id="line2d_14">
      <g>
       <use style="stroke:#000000;stroke-width:0.5;" x="155.316875" xlink:href="#mf54d3e9c84" y="194.12"/>
      </g>
     </g>
     <g id="line2d_15">
      <g>
       <use style="stroke:#000000;stroke-width:0.5;" x="155.316875" xlink:href="#m179a124b21" y="21.32"/>
      </g>
     </g>
     <g id="text_3">
      <!-- $\mathdefault{10^{0}}$ -->
      <g transform="translate(146.716875 206.7403125)scale(0.1 -0.1)">
       <use transform="translate(0.0 0.546875)" xlink:href="#BitstreamVeraSans-Roman-31"/>
       <use transform="translate(63.623046875 0.546875)" xlink:href="#BitstreamVeraSans-Roman-30"/>
       <use transform="translate(127.24609375 53.046875)scale(0.7)" xlink:href="#BitstreamVeraSans-Roman-30"/>
      </g>
     </g>
    </g>
    <g id="xtick_4">
     <g id="line2d_16">
      <g>
       <use style="stroke:#000000;stroke-width:0.5;" x="211.116875" xlink:href="#mf54d3e9c84" y="194.12"/>
      </g>
     </g>
     <g id="line2d_17">
      <g>
       <use style="stroke:#000000;stroke-width:0.5;" x="211.116875" xlink:href="#m179a124b21" y="21.32"/>
      </g>
     </g>
     <g id="text_4">
      <!-- $\mathdefault{10^{1}}$ -->
      <g transform="translate(202.516875 206.6403125)scale(0.1 -0.1)">
       <use transform="translate(0.0 0.46562500000000284)" xlink:href="#BitstreamVeraSans-Roman-31"/>
       <use transform="translate(63.623046875 0.46562500000000284)" xlink:href="#BitstreamVeraSans-Roman-30"/>
       <use transform="translate(127.24609375 52.965625)scale(0.7)" xlink:href="#BitstreamVeraSans-Roman-31"/>
      </g>
     </g>
    </g>
    <g id="xtick_5">
     <g id="line2d_18">
      <g>
       <use style="stroke:#000000;stroke-width:0.5;" x="266.916875" xlink:href="#mf54d3e9c84" y="194.12"/>
      </g>
     </g>
     <g id="line2d_19">
      <g>
       <use style="stroke:#000000;stroke-width:0.5;" x="266.916875" xlink:href="#m179a124b21" y="21.32"/>
      </g>
     </g>
     <g id="text_5">
      <!-- $\mathdefault{10^{2}}$ -->
      <g transform="translate(258.316875 206.7403125)scale(0.1 -0.1)">
       <use transform="translate(0.0 0.546875)" xlink:href="#BitstreamVeraSans-Roman-31"/>
       <use transform="translate(63.623046875 0.546875)" xlink:href="#BitstreamVeraSans-Roman-30"/>
       <use transform="translate(127.24609375 53.046875)scale(0.7)" xlink:href="#BitstreamVeraSans-Roman-32"/>
      </g>
     </g>
    </g>
    <g id="xtick_6">
     <g id="line2d_20">
      <defs>
       <path d="M 0 0 
L 0 -2 
" id="m6ce50195d6" style="stroke:#000000;stroke-width:0.5;"/>
      </defs>
      <g>
       <use style="stroke:#000000;stroke-width:0.5;" x="60.5143487581" xlink:href="#m6ce50195d6" y="194.12"/>
      </g>
     </g>
     <g id="line2d_21">
      <defs>
       <path d="M 0 0 
L 0 2 
" id="m018c757e21" style="stroke:#000000;stroke-width:0.5;"/>
      </defs>
      <g>
       <use style="stroke:#000000;stroke-width:0.5;" x="60.5143487581" xlink:href="#m018c757e21" y="21.32"/>
      </g>
     </g>
    </g>
    <g id="xtick_7">
     <g id="line2d_22">
      <g>
       <use style="stroke:#000000;stroke-width:0.5;" x="70.3402410134" xlink:href="#m6ce50195d6" y="194.12"/>
      </g>
     </g>
     <g id="line2d_23">
      <g>
       <use style="stroke:#000000;stroke-width:0.5;" x="70.3402410134" xlink:href="#m018c757e21" y="21.32"/>
      </g>
     </g>
    </g>
    <g id="xtick_8">
     <g id="line2d_24">
      <g>
       <use style="stroke:#000000;stroke-width:0.5;" x="77.3118225161" xlink:href="#m6ce50195d6" y="194.12"/>
      </g>
     </g>
     <g id="line2d_25">
      <g>
       <use style="stroke:#000000;stroke-width:0.5;" x="77.3118225161" xlink:href="#m018c757e21" y="21.32"/>
      </g>
     </g>
    </g>
    <g id="xtick_9">
     <g id="line2d_26">
      <g>
       <use style="stroke:#000000;stroke-width:0.5;" x="82.7194012419" xlink:href="#m6ce50195d6" y="194.12"/>
      </g>
     </g>
     <g id="line2d_27">
      <g>
       <use style="stroke:#000000;stroke-width:0.5;" x="82.7194012419" xlink:href="#m018c757e21" y="21.32"/>
      </g>
     </g>
    </g>
    <g id="xtick_10">
     <g id="line2d_28">
      <g>
       <use style="stroke:#000000;stroke-width:0.5;" x="87.1377147714" xlink:href="#m6ce50195d6" y="194.12"/>
      </g>
     </g>
     <g id="line2d_29">
      <g>
       <use style="stroke:#000000;stroke-width:0.5;" x="87.1377147714" xlink:href="#m018c757e21" y="21.32"/>
      </g>
     </g>
    </g>
    <g id="xtick_11">
     <g id="line2d_30">
      <g>
       <use style="stroke:#000000;stroke-width:0.5;" x="90.8733456328" xlink:href="#m6ce50195d6" y="194.12"/>
      </g>
     </g>
     <g id="line2d_31">
      <g>
       <use style="stroke:#000000;stroke-width:0.5;" x="90.8733456328" xlink:href="#m018c757e21" y="21.32"/>
      </g>
     </g>
    </g>
    <g id="xtick_12">
     <g id="line2d_32">
      <g>
       <use style="stroke:#000000;stroke-width:0.5;" x="94.1092962742" xlink:href="#m6ce50195d6" y="194.12"/>
      </g>
     </g>
     <g id="line2d_33">
      <g>
       <use style="stroke:#000000;stroke-width:0.5;" x="94.1092962742" xlink:href="#m018c757e21" y="21.32"/>
      </g>
     </g>
    </g>
    <g id="xtick_13">
     <g id="line2d_34">
      <g>
       <use style="stroke:#000000;stroke-width:0.5;" x="96.9636070267" xlink:href="#m6ce50195d6" y="194.12"/>
      </g>
     </g>
     <g id="line2d_35">
      <g>
       <use style="stroke:#000000;stroke-width:0.5;" x="96.9636070267" xlink:href="#m018c757e21" y="21.32"/>
      </g>
     </g>
    </g>
    <g id="xtick_14">
     <g id="line2d_36">
      <g>
       <use style="stroke:#000000;stroke-width:0.5;" x="116.314348758" xlink:href="#m6ce50195d6" y="194.12"/>
      </g>
     </g>
     <g id="line2d_37">
      <g>
       <use style="stroke:#000000;stroke-width:0.5;" x="116.314348758" xlink:href="#m018c757e21" y="21.32"/>
      </g>
     </g>
    </g>
    <g id="xtick_15">
     <g id="line2d_38">
      <g>
       <use style="stroke:#000000;stroke-width:0.5;" x="126.140241013" xlink:href="#m6ce50195d6" y="194.12"/>
      </g>
     </g>
     <g id="line2d_39">
      <g>
       <use style="stroke:#000000;stroke-width:0.5;" x="126.140241013" xlink:href="#m018c757e21" y="21.32"/>
      </g>
     </g>
    </g>
    <g id="xtick_16">
     <g id="line2d_40">
      <g>
       <use style="stroke:#000000;stroke-width:0.5;" x="133.111822516" xlink:href="#m6ce50195d6" y="194.12"/>
      </g>
     </g>
     <g id="line2d_41">
      <g>
       <use style="stroke:#000000;stroke-width:0.5;" x="133.111822516" xlink:href="#m018c757e21" y="21.32"/>
      </g>
     </g>
    </g>
    <g id="xtick_17">
     <g id="line2d_42">
      <g>
       <use style="stroke:#000000;stroke-width:0.5;" x="138.519401242" xlink:href="#m6ce50195d6" y="194.12"/>
      </g>
     </g>
     <g id="line2d_43">
      <g>
       <use style="stroke:#000000;stroke-width:0.5;" x="138.519401242" xlink:href="#m018c757e21" y="21.32"/>
      </g>
     </g>
    </g>
    <g id="xtick_18">
     <g id="line2d_44">
      <g>
       <use style="stroke:#000000;stroke-width:0.5;" x="142.937714771" xlink:href="#m6ce50195d6" y="194.12"/>
      </g>
     </g>
     <g id="line2d_45">
      <g>
       <use style="stroke:#000000;stroke-width:0.5;" x="142.937714771" xlink:href="#m018c757e21" y="21.32"/>
      </g>
     </g>
    </g>
    <g id="xtick_19">
     <g id="line2d_46">
      <g>
       <use style="stroke:#000000;stroke-width:0.5;" x="146.673345633" xlink:href="#m6ce50195d6" y="194.12"/>
      </g>
     </g>
     <g id="line2d_47">
      <g>
       <use style="stroke:#000000;stroke-width:0.5;" x="146.673345633" xlink:href="#m018c757e21" y="21.32"/>
      </g>
     </g>
    </g>
    <g id="xtick_20">
     <g id="line2d_48">
      <g>
       <use style="stroke:#000000;stroke-width:0.5;" x="149.909296274" xlink:href="#m6ce50195d6" y="194.12"/>
      </g>
     </g>
     <g id="line2d_49">
      <g>
       <use style="stroke:#000000;stroke-width:0.5;" x="149.909296274" xlink:href="#m018c757e21" y="21.32"/>
      </g>
     </g>
    </g>
    <g id="xtick_21">
     <g id="line2d_50">
      <g>
       <use style="stroke:#000000;stroke-width:0.5;" x="152.763607027" xlink:href="#m6ce50195d6" y="194.12"/>
      </g>
     </g>
     <g id="line2d_51">
      <g>
       <use style="stroke:#000000;stroke-width:0.5;" x="152.763607027" xlink:href="#m018c757e21" y="21.32"/>
      </g>
     </g>
    </g>
    <g id="xtick_22">
     <g id="line2d_52">
      <g>
       <use style="stroke:#000000;stroke-width:0.5;" x="172.114348758" xlink:href="#m6ce50195d6" y="194.12"/>
      </g>
     </g>
     <g id="line2d_53">
      <g>
       <use style="stroke:#000000;stroke-width:0.5;" x="172.114348758" xlink:href="#m018c757e21" y="21.32"/>
      </g>
     </g>
    </g>
    <g id="xtick_23">
     <g id="line2d_54">
      <g>
       <use style="stroke:#000000;stroke-width:0.5;" x="181.940241013" xlink:href="#m6ce50195d6" y="194.12"/>
      </g>
     </g>
     <g id="line2d_55">
      <g>
       <use style="stroke:#000000;stroke-width:0.5;" x="181.940241013" xlink:href="#m018c757e21" y="21.32"/>
      </g>
     </g>
    </g>
    <g id="xtick_24">
     <g id="line2d_56">
      <g>
       <use style="stroke:#000000;stroke-width:0.5;" x="188.911822516" xlink:href="#m6ce50195d6" y="194.12"/>
      </g>
     </g>
     <g id="line2d_57">
      <g>
       <use style="stroke:#000000;stroke-width:0.5;" x="188.911822516" xlink:href="#m018c757e21" y="21.32"/>
      </g>
     </g>
    </g>
    <g id="xtick_25">
     <g id="line2d_58">
      <g>
       <use style="stroke:#000000;stroke-width:0.5;" x="194.319401242" xlink:href="#m6ce50195d6" y="194.12"/>
      </g>
     </g>
     <g id="line2d_59">
      <g>
       <use style="stroke:#000000;stroke-width:0.5;" x="194.319401242" xlink:href="#m018c757e21" y="21.32"/>
      </g>
     </g>
    </g>
    <g id="xtick_26">
     <g id="line2d_60">
      <g>
       <use style="stroke:#000000;stroke-width:0.5;" x="198.737714771" xlink:href="#m6ce50195d6" y="194.12"/>
      </g>
     </g>
     <g id="line2d_61">
      <g>
       <use style="stroke:#000000;stroke-width:0.5;" x="198.737714771" xlink:href="#m018c757e21" y="21.32"/>
      </g>
     </g>
    </g>
    <g id="xtick_27">
     <g id="line2d_62">
      <g>
       <use style="stroke:#000000;stroke-width:0.5;" x="202.473345633" xlink:href="#m6ce50195d6" y="194.12"/>
      </g>
     </g>
     <g id="line2d_63">
      <g>
       <use style="stroke:#000000;stroke-width:0.5;" x="202.473345633" xlink:href="#m018c757e21" y="21.32"/>
      </g>
     </g>
    </g>
    <g id="xtick_28">
     <g id="line2d_64">
      <g>
       <use style="stroke:#000000;stroke-width:0.5;" x="205.709296274" xlink:href="#m6ce50195d6" y="194.12"/>
      </g>
     </g>
     <g id="line2d_65">
      <g>
       <use style="stroke:#000000;stroke-width:0.5;" x="205.709296274" xlink:href="#m018c757e21" y="21.32"/>
      </g>
     </g>
    </g>
    <g id="xtick_29">
     <g id="line2d_66">
      <g>
       <use style="stroke:#000000;stroke-width:0.5;" x="208.563607027" xlink:href="#m6ce50195d6" y="194.12"/>
      </g>
     </g>
     <g id="line2d_67">
      <g>
       <use style="stroke:#000000;stroke-width:0.5;" x="208.563607027" xlink:href="#m018c757e21" y="21.32"/>
      </g>
     </g>
    </g>
    <g id="xtick_30">
     <g id="line2d_68">
      <g>
       <use style="stroke:#000000;stroke-width:0.5;" x="227.914348758" xlink:href="#m6ce50195d6" y="194.12"/>
      </g>
     </g>
     <g id="line2d_69">
      <g>
       <use style="stroke:#000000;stroke-width:0.5;" x="227.914348758" xlink:href="#m018c757e21" y="21.32"/>
      </g>
     </g>
    </g>
    <g id="xtick_31">
     <g id="line2d_70">
      <g>
       <use style="stroke:#000000;stroke-width:0.5;" x="237.740241013" xlink:href="#m6ce50195d6" y="194.12"/>
      </g>
     </g>
     <g id="line2d_71">
      <g>
       <use style="stroke:#000000;stroke-width:0.5;" x="237.740241013" xlink:href="#m018c757e21" y="21.32"/>
      </g>
     </g>
    </g>
    <g id="xtick_32">
     <g id="line2d_72">
      <g>
       <use style="stroke:#000000;stroke-width:0.5;" x="244.711822516" xlink:href="#m6ce50195d6" y="194.12"/>
      </g>
     </g>
     <g id="line2d_73">
      <g>
       <use style="stroke:#000000;stroke-width:0.5;" x="244.711822516" xlink:href="#m018c757e21" y="21.32"/>
      </g>
     </g>
    </g>
    <g id="xtick_33">
     <g id="line2d_74">
      <g>
       <use style="stroke:#000000;stroke-width:0.5;" x="250.119401242" xlink:href="#m6ce50195d6" y="194.12"/>
      </g>
     </g>
     <g id="line2d_75">
      <g>
       <use style="stroke:#000000;stroke-width:0.5;" x="250.119401242" xlink:href="#m018c757e21" y="21.32"/>
      </g>
     </g>
    </g>
    <g id="xtick_34">
     <g id="line2d_76">
      <g>
       <use style="stroke:#000000;stroke-width:0.5;" x="254.537714771" xlink:href="#m6ce50195d6" y="194.12"/>
      </g>
     </g>
     <g id="line2d_77">
      <g>
       <use style="stroke:#000000;stroke-width:0.5;" x="254.537714771" xlink:href="#m018c757e21" y="21.32"/>
      </g>
     </g>
    </g>
    <g id="xtick_35">
     <g id="line2d_78">
      <g>
       <use style="stroke:#000000;stroke-width:0.5;" x="258.273345633" xlink:href="#m6ce50195d6" y="194.12"/>
      </g>
     </g>
     <g id="line2d_79">
      <g>
       <use style="stroke:#000000;stroke-width:0.5;" x="258.273345633" xlink:href="#m018c757e21" y="21.32"/>
      </g>
     </g>
    </g>
    <g id="xtick_36">
     <g id="line2d_80">
      <g>
       <use style="stroke:#000000;stroke-width:0.5;" x="261.509296274" xlink:href="#m6ce50195d6" y="194.12"/>
      </g>
     </g>
     <g id="line2d_81">
      <g>
       <use style="stroke:#000000;stroke-width:0.5;" x="261.509296274" xlink:href="#m018c757e21" y="21.32"/>
      </g>
     </g>
    </g>
    <g id="xtick_37">
     <g id="line2d_82">
      <g>
       <use style="stroke:#000000;stroke-width:0.5;" x="264.363607027" xlink:href="#m6ce50195d6" y="194.12"/>
      </g>
     </g>
     <g id="line2d_83">
      <g>
       <use style="stroke:#000000;stroke-width:0.5;" x="264.363607027" xlink:href="#m018c757e21" y="21.32"/>
      </g>
     </g>
    </g>
    <g id="text_6">
     <!-- $\Delta r$ -->
     <defs>
      <path d="M 5.421875 0 
Q 4.59375 0 4.59375 0.78125 
Q 4.640625 0.875 4.65625 0.921875 
Q 4.6875 0.984375 4.6875 1.125 
L 39.109375 70.515625 
Q 39.546875 71.578125 40.921875 71.578125 
L 42.28125 71.578125 
Q 43.65625 71.578125 44.09375 70.515625 
L 78.515625 1.125 
Q 78.5625 1.03125 78.578125 0.953125 
Q 78.609375 0.875 78.609375 0.78125 
Q 78.609375 0 77.78125 0 
z
M 12.015625 8.015625 
L 64.703125 8.015625 
L 38.375 61.078125 
z
" id="Cmr10-a2"/>
      <path d="M 7.71875 1.703125 
Q 7.71875 2.296875 7.8125 2.59375 
L 15.28125 32.421875 
Q 16.015625 35.203125 16.015625 37.3125 
Q 16.015625 41.609375 13.09375 41.609375 
Q 9.96875 41.609375 8.453125 37.859375 
Q 6.9375 34.125 5.515625 28.421875 
Q 5.515625 28.125 5.21875 27.953125 
Q 4.9375 27.78125 4.6875 27.78125 
L 3.515625 27.78125 
Q 3.171875 27.78125 2.921875 28.140625 
Q 2.6875 28.515625 2.6875 28.8125 
Q 3.765625 33.15625 4.765625 36.171875 
Q 5.765625 39.203125 7.890625 41.6875 
Q 10.015625 44.1875 13.1875 44.1875 
Q 16.65625 44.1875 19.265625 42.1875 
Q 21.875 40.1875 22.515625 36.921875 
Q 25.046875 40.234375 28.296875 42.203125 
Q 31.546875 44.1875 35.40625 44.1875 
Q 38.578125 44.1875 40.984375 42.328125 
Q 43.40625 40.484375 43.40625 37.3125 
Q 43.40625 34.765625 41.8125 32.875 
Q 40.234375 31 37.59375 31 
Q 35.984375 31 34.890625 32 
Q 33.796875 33.015625 33.796875 34.625 
Q 33.796875 36.8125 35.40625 38.546875 
Q 37.015625 40.28125 39.109375 40.28125 
Q 37.5 41.609375 35.203125 41.609375 
Q 30.90625 41.609375 27.734375 38.546875 
Q 24.5625 35.5 22.015625 30.8125 
L 14.890625 2.203125 
Q 14.546875 0.828125 13.34375 -0.140625 
Q 12.15625 -1.125 10.6875 -1.125 
Q 9.46875 -1.125 8.59375 -0.34375 
Q 7.71875 0.4375 7.71875 1.703125 
" id="Cmmi10-72"/>
     </defs>
     <g transform="translate(147.576875 222.938125)scale(0.12 -0.12)">
      <use transform="translate(0.0 0.421875)" xlink:href="#Cmr10-a2"/>
      <use transform="translate(83.30078125 0.421875)" xlink:href="#Cmmi10-72"/>
     </g>
    </g>
   </g>
   <g id="matplotlib.axis_2">
    <g id="ytick_1">
     <g id="line2d_84">
      <defs>
       <path d="M 0 0 
L 4 0 
" id="m832e4cdcec" style="stroke:#000000;stroke-width:0.5;"/>
      </defs>
      <g>
       <use style="stroke:#000000;stroke-width:0.5;" x="43.716875" xlink:href="#m832e4cdcec" y="194.12"/>
      </g>
     </g>
     <g id="line2d_85">
      <defs>
       <path d="M 0 0 
L -4 0 
" id="ma923d94049" style="stroke:#000000;stroke-width:0.5;"/>
      </defs>
      <g>
       <use style="stroke:#000000;stroke-width:0.5;" x="266.916875" xlink:href="#ma923d94049" y="194.12"/>
      </g>
     </g>
     <g id="text_7">
      <!-- 0.0 -->
      <defs>
       <path d="M 10.6875 12.40625 
L 21 12.40625 
L 21 0 
L 10.6875 0 
z
" id="BitstreamVeraSans-Roman-2e"/>
      </defs>
      <g transform="translate(23.81375 196.879375)scale(0.1 -0.1)">
       <use xlink:href="#BitstreamVeraSans-Roman-30"/>
       <use x="63.623046875" xlink:href="#BitstreamVeraSans-Roman-2e"/>
       <use x="95.41015625" xlink:href="#BitstreamVeraSans-Roman-30"/>
      </g>
     </g>
    </g>
    <g id="ytick_2">
     <g id="line2d_86">
      <g>
       <use style="stroke:#000000;stroke-width:0.5;" x="43.716875" xlink:href="#m832e4cdcec" y="150.92"/>
      </g>
     </g>
     <g id="line2d_87">
      <g>
       <use style="stroke:#000000;stroke-width:0.5;" x="266.916875" xlink:href="#ma923d94049" y="150.92"/>
      </g>
     </g>
     <g id="text_8">
      <!-- 0.5 -->
      <defs>
       <path d="M 10.796875 72.90625 
L 49.515625 72.90625 
L 49.515625 64.59375 
L 19.828125 64.59375 
L 19.828125 46.734375 
Q 21.96875 47.46875 24.109375 47.828125 
Q 26.265625 48.1875 28.421875 48.1875 
Q 40.625 48.1875 47.75 41.5 
Q 54.890625 34.8125 54.890625 23.390625 
Q 54.890625 11.625 47.5625 5.09375 
Q 40.234375 -1.421875 26.90625 -1.421875 
Q 22.3125 -1.421875 17.546875 -0.640625 
Q 12.796875 0.140625 7.71875 1.703125 
L 7.71875 11.625 
Q 12.109375 9.234375 16.796875 8.0625 
Q 21.484375 6.890625 26.703125 6.890625 
Q 35.15625 6.890625 40.078125 11.328125 
Q 45.015625 15.765625 45.015625 23.390625 
Q 45.015625 31 40.078125 35.4375 
Q 35.15625 39.890625 26.703125 39.890625 
Q 22.75 39.890625 18.8125 39.015625 
Q 14.890625 38.140625 10.796875 36.28125 
z
" id="BitstreamVeraSans-Roman-35"/>
      </defs>
      <g transform="translate(23.81375 153.679375)scale(0.1 -0.1)">
       <use xlink:href="#BitstreamVeraSans-Roman-30"/>
       <use x="63.623046875" xlink:href="#BitstreamVeraSans-Roman-2e"/>
       <use x="95.41015625" xlink:href="#BitstreamVeraSans-Roman-35"/>
      </g>
     </g>
    </g>
    <g id="ytick_3">
     <g id="line2d_88">
      <g>
       <use style="stroke:#000000;stroke-width:0.5;" x="43.716875" xlink:href="#m832e4cdcec" y="107.72"/>
      </g>
     </g>
     <g id="line2d_89">
      <g>
       <use style="stroke:#000000;stroke-width:0.5;" x="266.916875" xlink:href="#ma923d94049" y="107.72"/>
      </g>
     </g>
     <g id="text_9">
      <!-- 1.0 -->
      <g transform="translate(23.81375 110.479375)scale(0.1 -0.1)">
       <use xlink:href="#BitstreamVeraSans-Roman-31"/>
       <use x="63.623046875" xlink:href="#BitstreamVeraSans-Roman-2e"/>
       <use x="95.41015625" xlink:href="#BitstreamVeraSans-Roman-30"/>
      </g>
     </g>
    </g>
    <g id="ytick_4">
     <g id="line2d_90">
      <g>
       <use style="stroke:#000000;stroke-width:0.5;" x="43.716875" xlink:href="#m832e4cdcec" y="64.52"/>
      </g>
     </g>
     <g id="line2d_91">
      <g>
       <use style="stroke:#000000;stroke-width:0.5;" x="266.916875" xlink:href="#ma923d94049" y="64.52"/>
      </g>
     </g>
     <g id="text_10">
      <!-- 1.5 -->
      <g transform="translate(23.81375 67.279375)scale(0.1 -0.1)">
       <use xlink:href="#BitstreamVeraSans-Roman-31"/>
       <use x="63.623046875" xlink:href="#BitstreamVeraSans-Roman-2e"/>
       <use x="95.41015625" xlink:href="#BitstreamVeraSans-Roman-35"/>
      </g>
     </g>
    </g>
    <g id="ytick_5">
     <g id="line2d_92">
      <g>
       <use style="stroke:#000000;stroke-width:0.5;" x="43.716875" xlink:href="#m832e4cdcec" y="21.32"/>
      </g>
     </g>
     <g id="line2d_93">
      <g>
       <use style="stroke:#000000;stroke-width:0.5;" x="266.916875" xlink:href="#ma923d94049" y="21.32"/>
      </g>
     </g>
     <g id="text_11">
      <!-- 2.0 -->
      <g transform="translate(23.81375 24.079375)scale(0.1 -0.1)">
       <use xlink:href="#BitstreamVeraSans-Roman-32"/>
       <use x="63.623046875" xlink:href="#BitstreamVeraSans-Roman-2e"/>
       <use x="95.41015625" xlink:href="#BitstreamVeraSans-Roman-30"/>
      </g>
     </g>
    </g>
    <g id="text_12">
     <!-- $P\left(\log\left(\Delta r\right)\right)$ -->
     <defs>
      <path d="M 2.78125 -7.8125 
Q 2.78125 -4.25 5.359375 -1.578125 
Q 7.953125 1.078125 11.53125 2.203125 
Q 9.515625 3.71875 8.46875 6 
Q 7.421875 8.296875 7.421875 10.890625 
Q 7.421875 15.578125 10.40625 19.1875 
Q 5.8125 23.6875 5.8125 29.5 
Q 5.8125 32.625 7.15625 35.359375 
Q 8.5 38.09375 10.890625 40.09375 
Q 13.28125 42.09375 16.203125 43.140625 
Q 19.140625 44.1875 22.21875 44.1875 
Q 28.171875 44.1875 32.90625 40.71875 
Q 34.96875 42.921875 37.765625 44.109375 
Q 40.578125 45.3125 43.609375 45.3125 
Q 45.75 45.3125 47.109375 43.765625 
Q 48.484375 42.234375 48.484375 40.09375 
Q 48.484375 38.875 47.546875 37.9375 
Q 46.625 37.015625 45.40625 37.015625 
Q 44.140625 37.015625 43.203125 37.9375 
Q 42.28125 38.875 42.28125 40.09375 
Q 42.28125 41.9375 43.5 42.671875 
Q 38.328125 42.671875 34.625 39.109375 
Q 36.421875 37.3125 37.515625 34.6875 
Q 38.625 32.078125 38.625 29.5 
Q 38.625 25.25 36.28125 21.84375 
Q 33.9375 18.453125 30.09375 16.578125 
Q 26.265625 14.703125 22.21875 14.703125 
Q 16.75 14.703125 12.203125 17.671875 
Q 10.796875 15.71875 10.796875 13.28125 
Q 10.796875 10.640625 12.53125 8.65625 
Q 14.265625 6.6875 16.890625 6.6875 
L 25.09375 6.6875 
Q 31.0625 6.6875 35.84375 5.609375 
Q 40.625 4.546875 43.875 1.3125 
Q 47.125 -1.90625 47.125 -7.8125 
Q 47.125 -12.203125 43.40625 -15.109375 
Q 39.703125 -18.015625 34.546875 -19.3125 
Q 29.390625 -20.609375 25 -20.609375 
Q 20.5625 -20.609375 15.375 -19.3125 
Q 10.203125 -18.015625 6.484375 -15.109375 
Q 2.78125 -12.203125 2.78125 -7.8125 
M 8.40625 -7.8125 
Q 8.40625 -11.1875 11.140625 -13.453125 
Q 13.875 -15.71875 17.71875 -16.8125 
Q 21.578125 -17.921875 25 -17.921875 
Q 28.375 -17.921875 32.21875 -16.8125 
Q 36.078125 -15.71875 38.78125 -13.453125 
Q 41.5 -11.1875 41.5 -7.8125 
Q 41.5 -2.59375 36.71875 -1.046875 
Q 31.9375 0.484375 25.09375 0.484375 
L 16.890625 0.484375 
Q 14.59375 0.484375 12.671875 -0.609375 
Q 10.75 -1.703125 9.578125 -3.6875 
Q 8.40625 -5.671875 8.40625 -7.8125 
M 22.21875 17.390625 
Q 30.71875 17.390625 30.71875 29.5 
Q 30.71875 34.71875 28.90625 38.109375 
Q 27.09375 41.5 22.21875 41.5 
Q 17.328125 41.5 15.515625 38.109375 
Q 13.71875 34.71875 13.71875 29.5 
Q 13.71875 26.171875 14.40625 23.484375 
Q 15.09375 20.796875 16.9375 19.09375 
Q 18.796875 17.390625 22.21875 17.390625 
" id="Cmr10-67"/>
      <path d="M 6.5 -25 
Q 5.609375 -25 5.609375 -24.125 
Q 5.609375 -23.6875 5.8125 -23.484375 
Q 22.90625 -6.78125 22.90625 25 
Q 22.90625 56.78125 6 73.296875 
Q 5.609375 73.53125 5.609375 74.125 
Q 5.609375 74.46875 5.875 74.734375 
Q 6.15625 75 6.5 75 
L 7.421875 75 
Q 7.71875 75 7.90625 74.8125 
Q 15.09375 69.140625 19.875 61.03125 
Q 24.65625 52.9375 26.875 43.75 
Q 29.109375 34.578125 29.109375 25 
Q 29.109375 17.921875 27.90625 11.0625 
Q 26.703125 4.203125 24.09375 -2.453125 
Q 21.484375 -9.125 17.484375 -14.765625 
Q 13.484375 -20.40625 7.90625 -24.8125 
Q 7.71875 -25 7.421875 -25 
z
" id="Cmr10-29"/>
      <path d="M 3.078125 0 
L 3.078125 3.515625 
Q 6.5 3.515625 8.6875 4.046875 
Q 10.890625 4.59375 10.890625 6.6875 
L 10.890625 59.1875 
Q 10.890625 61.859375 10.078125 63.0625 
Q 9.28125 64.265625 7.765625 64.53125 
Q 6.25 64.796875 3.078125 64.796875 
L 3.078125 68.3125 
L 17.921875 69.390625 
L 17.921875 6.6875 
Q 17.921875 4.59375 20.109375 4.046875 
Q 22.3125 3.515625 25.6875 3.515625 
L 25.6875 0 
z
" id="Cmr10-6c"/>
      <path d="M 25 -1.125 
Q 19 -1.125 13.859375 1.921875 
Q 8.734375 4.984375 5.75 10.109375 
Q 2.78125 15.234375 2.78125 21.296875 
Q 2.78125 25.875 4.421875 30.125 
Q 6.0625 34.375 9.109375 37.71875 
Q 12.15625 41.0625 16.203125 42.9375 
Q 20.265625 44.828125 25 44.828125 
Q 31.15625 44.828125 36.203125 41.578125 
Q 41.265625 38.328125 44.1875 32.875 
Q 47.125 27.4375 47.125 21.296875 
Q 47.125 15.28125 44.140625 10.125 
Q 41.15625 4.984375 36.046875 1.921875 
Q 30.953125 -1.125 25 -1.125 
M 25 1.8125 
Q 33.015625 1.8125 35.6875 7.609375 
Q 38.375 13.421875 38.375 22.40625 
Q 38.375 27.4375 37.84375 30.734375 
Q 37.3125 34.03125 35.5 36.71875 
Q 34.375 38.375 32.640625 39.625 
Q 30.90625 40.875 28.96875 41.53125 
Q 27.046875 42.1875 25 42.1875 
Q 21.875 42.1875 19.0625 40.765625 
Q 16.265625 39.359375 14.40625 36.71875 
Q 12.546875 33.890625 12.03125 30.484375 
Q 11.53125 27.09375 11.53125 22.40625 
Q 11.53125 16.796875 12.5 12.328125 
Q 13.484375 7.859375 16.4375 4.828125 
Q 19.390625 1.8125 25 1.8125 
" id="Cmr10-6f"/>
      <path d="M 31 -24.8125 
Q 25.4375 -20.40625 21.40625 -14.71875 
Q 17.390625 -9.03125 14.8125 -2.578125 
Q 12.25 3.859375 10.984375 10.890625 
Q 9.71875 17.921875 9.71875 25 
Q 9.71875 32.171875 10.984375 39.203125 
Q 12.25 46.234375 14.859375 52.734375 
Q 17.484375 59.234375 21.53125 64.890625 
Q 25.59375 70.5625 31 74.8125 
Q 31 75 31.5 75 
L 32.421875 75 
Q 32.71875 75 32.953125 74.734375 
Q 33.203125 74.46875 33.203125 74.125 
Q 33.203125 73.6875 33.015625 73.484375 
Q 28.125 68.703125 24.875 63.234375 
Q 21.625 57.765625 19.640625 51.578125 
Q 17.671875 45.40625 16.796875 38.78125 
Q 15.921875 32.171875 15.921875 25 
Q 15.921875 -6.78125 32.90625 -23.296875 
Q 33.203125 -23.578125 33.203125 -24.125 
Q 33.203125 -24.359375 32.9375 -24.671875 
Q 32.671875 -25 32.421875 -25 
L 31.5 -25 
Q 31 -25 31 -24.8125 
" id="Cmr10-28"/>
      <path d="M 4.890625 0 
Q 3.90625 0 3.90625 1.3125 
Q 3.953125 1.5625 4.09375 2.171875 
Q 4.25 2.78125 4.515625 3.140625 
Q 4.78125 3.515625 5.171875 3.515625 
Q 11.28125 3.515625 13.71875 4.203125 
Q 14.984375 4.640625 15.578125 6.890625 
L 29.296875 61.8125 
Q 29.5 62.796875 29.5 63.1875 
Q 29.5 64.265625 28.328125 64.40625 
Q 26.421875 64.796875 21.09375 64.796875 
Q 20.125 64.796875 20.125 66.109375 
Q 20.171875 66.359375 20.3125 66.96875 
Q 20.453125 67.578125 20.71875 67.9375 
Q 21 68.3125 21.390625 68.3125 
L 55.90625 68.3125 
Q 60.640625 68.3125 65.078125 66.625 
Q 69.53125 64.9375 72.359375 61.46875 
Q 75.203125 58.015625 75.203125 53.078125 
Q 75.203125 46.734375 70.734375 41.75 
Q 66.265625 36.765625 59.59375 33.984375 
Q 52.9375 31.203125 46.6875 31.203125 
L 30.421875 31.203125 
L 24.3125 6.5 
Q 24.125 5.515625 24.125 5.078125 
Q 24.125 4.6875 24.234375 4.421875 
Q 24.359375 4.15625 24.578125 4.078125 
Q 24.8125 4 25.296875 3.90625 
Q 27.203125 3.515625 32.515625 3.515625 
Q 33.5 3.515625 33.5 2.203125 
Q 33.15625 0.78125 32.953125 0.390625 
Q 32.765625 0 31.78125 0 
z
M 30.90625 34.1875 
L 44.921875 34.1875 
Q 54.640625 34.1875 59.71875 39.40625 
Q 62.3125 42 63.9375 46.875 
Q 65.578125 51.765625 65.578125 55.71875 
Q 65.578125 60.640625 61.8125 62.71875 
Q 58.0625 64.796875 52.484375 64.796875 
L 42.921875 64.796875 
Q 40.1875 64.796875 39.296875 64.328125 
Q 38.421875 63.875 37.703125 61.375 
z
" id="Cmmi10-50"/>
     </defs>
     <g transform="translate(16.29375 134.66)rotate(-90.0)scale(0.12 -0.12)">
      <use transform="translate(0.0 0.421875)" xlink:href="#Cmmi10-50"/>
      <use transform="translate(64.208984375 2.859375)scale(0.921875)" xlink:href="#Cmr10-28"/>
      <use transform="translate(99.99465942382812 0.421875)" xlink:href="#Cmr10-6c"/>
      <use transform="translate(127.68020629882812 0.421875)" xlink:href="#Cmr10-6f"/>
      <use transform="translate(177.68020629882812 0.421875)" xlink:href="#Cmr10-67"/>
      <use transform="translate(227.68020629882812 17.46875)scale(0.72703125)" xlink:href="#Cmr10-28"/>
      <use transform="translate(255.90235900878906 0.421875)" xlink:href="#Cmr10-a2"/>
      <use transform="translate(339.20314025878906 0.421875)" xlink:href="#Cmmi10-72"/>
      <use transform="translate(384.32032775878906 17.46875)scale(0.72703125)" xlink:href="#Cmr10-29"/>
      <use transform="translate(412.54248046875 2.859375)scale(0.921875)" xlink:href="#Cmr10-29"/>
     </g>
    </g>
   </g>
   <g id="text_13">
    <!-- Hard Spheres, at $\phi = 0.57$ -->
    <defs>
     <path d="M 9.8125 72.90625 
L 19.671875 72.90625 
L 19.671875 43.015625 
L 55.515625 43.015625 
L 55.515625 72.90625 
L 65.375 72.90625 
L 65.375 0 
L 55.515625 0 
L 55.515625 34.71875 
L 19.671875 34.71875 
L 19.671875 0 
L 9.8125 0 
z
" id="BitstreamVeraSans-Roman-48"/>
     <path d="M 19.390625 -19.484375 
L 23.875 -1.421875 
Q 18.796875 -1.421875 14.40625 0.953125 
Q 10.015625 3.328125 7.34375 7.5625 
Q 4.6875 11.8125 4.6875 16.796875 
Q 4.6875 22.21875 7.375 27.140625 
Q 10.0625 32.078125 14.71875 36.109375 
Q 19.390625 40.140625 24.75 42.3125 
Q 30.125 44.484375 35.40625 44.484375 
L 41.40625 68.796875 
Q 41.609375 69.390625 42.1875 69.390625 
L 43.40625 69.390625 
Q 43.796875 69.390625 44.03125 69.046875 
Q 44.28125 68.703125 44.28125 68.40625 
L 38.28125 44.484375 
Q 42.046875 44.484375 45.5625 43.109375 
Q 49.078125 41.75 51.78125 39.28125 
Q 54.5 36.8125 56 33.46875 
Q 57.515625 30.125 57.515625 26.3125 
Q 57.515625 20.90625 54.828125 15.96875 
Q 52.15625 11.03125 47.609375 7.078125 
Q 43.0625 3.125 37.46875 0.84375 
Q 31.890625 -1.421875 26.8125 -1.421875 
L 22.21875 -19.921875 
Q 22.015625 -20.515625 21.390625 -20.515625 
L 20.21875 -20.515625 
Q 19.828125 -20.515625 19.609375 -20.140625 
Q 19.390625 -19.78125 19.390625 -19.484375 
M 24.515625 1.21875 
L 34.71875 41.890625 
Q 32.171875 41.890625 29.390625 40.859375 
Q 26.609375 39.84375 24.140625 38.28125 
Q 21.6875 36.71875 19.671875 34.71875 
Q 17.234375 32.28125 15.375 28.953125 
Q 13.53125 25.640625 12.578125 21.953125 
Q 11.625 18.265625 11.625 14.703125 
Q 11.625 10.9375 13.234375 7.859375 
Q 14.84375 4.78125 17.765625 3 
Q 20.703125 1.21875 24.515625 1.21875 
M 27.484375 1.21875 
Q 31.25 1.21875 35.5 3.359375 
Q 39.75 5.515625 42.484375 8.40625 
Q 46.234375 12.109375 48.40625 17.5 
Q 50.59375 22.90625 50.59375 28.421875 
Q 50.59375 32.125 48.96875 35.21875 
Q 47.359375 38.328125 44.421875 40.109375 
Q 41.5 41.890625 37.703125 41.890625 
z
" id="Cmmi10-c1"/>
     <path d="M 17.390625 2.59375 
Q 17.390625 8.15625 18.359375 13.46875 
Q 19.34375 18.796875 21.21875 24 
Q 23.09375 29.203125 25.75 34.203125 
Q 28.421875 39.203125 31.59375 43.609375 
L 40.71875 56.296875 
L 29.296875 56.296875 
Q 11.53125 56.296875 10.984375 55.8125 
Q 9.671875 54.203125 8.5 46.578125 
L 5.609375 46.578125 
L 8.890625 67.578125 
L 11.8125 67.578125 
L 11.8125 67.28125 
Q 11.8125 65.484375 17.921875 64.9375 
Q 24.03125 64.40625 29.890625 64.40625 
L 48.484375 64.40625 
L 48.484375 61.8125 
Q 48.484375 61.71875 48.453125 61.671875 
Q 48.4375 61.625 48.390625 61.53125 
L 34.625 42.1875 
Q 29.546875 34.671875 28.265625 25.484375 
Q 27 16.3125 27 2.59375 
Q 27 0.640625 25.578125 -0.78125 
Q 24.171875 -2.203125 22.21875 -2.203125 
Q 20.21875 -2.203125 18.796875 -0.78125 
Q 17.390625 0.640625 17.390625 2.59375 
" id="Cmr10-37"/>
     <path d="M 54.890625 33.015625 
L 54.890625 0 
L 45.90625 0 
L 45.90625 32.71875 
Q 45.90625 40.484375 42.875 44.328125 
Q 39.84375 48.1875 33.796875 48.1875 
Q 26.515625 48.1875 22.3125 43.546875 
Q 18.109375 38.921875 18.109375 30.90625 
L 18.109375 0 
L 9.078125 0 
L 9.078125 75.984375 
L 18.109375 75.984375 
L 18.109375 46.1875 
Q 21.34375 51.125 25.703125 53.5625 
Q 30.078125 56 35.796875 56 
Q 45.21875 56 50.046875 50.171875 
Q 54.890625 44.34375 54.890625 33.015625 
" id="BitstreamVeraSans-Roman-68"/>
     <path d="M 18.109375 8.203125 
L 18.109375 -20.796875 
L 9.078125 -20.796875 
L 9.078125 54.6875 
L 18.109375 54.6875 
L 18.109375 46.390625 
Q 20.953125 51.265625 25.265625 53.625 
Q 29.59375 56 35.59375 56 
Q 45.5625 56 51.78125 48.09375 
Q 58.015625 40.1875 58.015625 27.296875 
Q 58.015625 14.40625 51.78125 6.484375 
Q 45.5625 -1.421875 35.59375 -1.421875 
Q 29.59375 -1.421875 25.265625 0.953125 
Q 20.953125 3.328125 18.109375 8.203125 
M 48.6875 27.296875 
Q 48.6875 37.203125 44.609375 42.84375 
Q 40.53125 48.484375 33.40625 48.484375 
Q 26.265625 48.484375 22.1875 42.84375 
Q 18.109375 37.203125 18.109375 27.296875 
Q 18.109375 17.390625 22.1875 11.75 
Q 26.265625 6.109375 33.40625 6.109375 
Q 40.53125 6.109375 44.609375 11.75 
Q 48.6875 17.390625 48.6875 27.296875 
" id="BitstreamVeraSans-Roman-70"/>
     <path d="M 25 -2.203125 
Q 12.75 -2.203125 8.328125 7.875 
Q 3.90625 17.96875 3.90625 31.890625 
Q 3.90625 40.578125 5.484375 48.234375 
Q 7.078125 55.90625 11.78125 61.25 
Q 16.5 66.609375 25 66.609375 
Q 31.59375 66.609375 35.78125 63.375 
Q 39.984375 60.15625 42.1875 55.046875 
Q 44.390625 49.953125 45.1875 44.109375 
Q 46 38.28125 46 31.890625 
Q 46 23.296875 44.40625 15.796875 
Q 42.828125 8.296875 38.1875 3.046875 
Q 33.546875 -2.203125 25 -2.203125 
M 25 0.390625 
Q 30.5625 0.390625 33.296875 6.09375 
Q 36.03125 11.8125 36.671875 18.75 
Q 37.3125 25.6875 37.3125 33.5 
Q 37.3125 41.015625 36.671875 47.359375 
Q 36.03125 53.71875 33.3125 58.859375 
Q 30.609375 64.015625 25 64.015625 
Q 19.34375 64.015625 16.609375 58.828125 
Q 13.875 53.65625 13.234375 47.328125 
Q 12.59375 41.015625 12.59375 33.5 
Q 12.59375 27.9375 12.859375 23 
Q 13.140625 18.0625 14.3125 12.8125 
Q 15.484375 7.5625 18.09375 3.96875 
Q 20.703125 0.390625 25 0.390625 
" id="Cmr10-30"/>
     <path d="M 45.40625 46.390625 
L 45.40625 75.984375 
L 54.390625 75.984375 
L 54.390625 0 
L 45.40625 0 
L 45.40625 8.203125 
Q 42.578125 3.328125 38.25 0.953125 
Q 33.9375 -1.421875 27.875 -1.421875 
Q 17.96875 -1.421875 11.734375 6.484375 
Q 5.515625 14.40625 5.515625 27.296875 
Q 5.515625 40.1875 11.734375 48.09375 
Q 17.96875 56 27.875 56 
Q 33.9375 56 38.25 53.625 
Q 42.578125 51.265625 45.40625 46.390625 
M 14.796875 27.296875 
Q 14.796875 17.390625 18.875 11.75 
Q 22.953125 6.109375 30.078125 6.109375 
Q 37.203125 6.109375 41.296875 11.75 
Q 45.40625 17.390625 45.40625 27.296875 
Q 45.40625 37.203125 41.296875 42.84375 
Q 37.203125 48.484375 30.078125 48.484375 
Q 22.953125 48.484375 18.875 42.84375 
Q 14.796875 37.203125 14.796875 27.296875 
" id="BitstreamVeraSans-Roman-64"/>
     <path d="M 8.6875 11.375 
Q 9.71875 8.453125 11.84375 6.046875 
Q 13.96875 3.65625 16.875 2.3125 
Q 19.78125 0.984375 22.90625 0.984375 
Q 30.125 0.984375 32.859375 6.59375 
Q 35.59375 12.203125 35.59375 20.21875 
Q 35.59375 23.6875 35.46875 26.046875 
Q 35.359375 28.421875 34.8125 30.609375 
Q 33.890625 34.125 31.5625 36.765625 
Q 29.25 39.40625 25.875 39.40625 
Q 22.515625 39.40625 20.09375 38.375 
Q 17.671875 37.359375 16.15625 35.984375 
Q 14.65625 34.625 13.484375 33.109375 
Q 12.3125 31.59375 12.015625 31.5 
L 10.890625 31.5 
Q 10.640625 31.5 10.265625 31.8125 
Q 9.90625 32.125 9.90625 32.421875 
L 9.90625 65.828125 
Q 9.90625 66.0625 10.21875 66.328125 
Q 10.546875 66.609375 10.890625 66.609375 
L 11.1875 66.609375 
Q 17.921875 63.375 25.484375 63.375 
Q 32.90625 63.375 39.796875 66.609375 
L 40.09375 66.609375 
Q 40.4375 66.609375 40.71875 66.359375 
Q 41.015625 66.109375 41.015625 65.828125 
L 41.015625 64.890625 
Q 41.015625 64.40625 40.828125 64.40625 
Q 37.40625 59.859375 32.25 57.3125 
Q 27.09375 54.78125 21.578125 54.78125 
Q 17.578125 54.78125 13.375 55.90625 
L 13.375 37.015625 
Q 16.703125 39.703125 19.3125 40.84375 
Q 21.921875 42 25.984375 42 
Q 31.5 42 35.859375 38.8125 
Q 40.234375 35.640625 42.578125 30.53125 
Q 44.921875 25.4375 44.921875 20.125 
Q 44.921875 14.109375 41.96875 8.984375 
Q 39.015625 3.859375 33.9375 0.828125 
Q 28.859375 -2.203125 22.90625 -2.203125 
Q 17.96875 -2.203125 13.84375 0.328125 
Q 9.71875 2.875 7.34375 7.171875 
Q 4.984375 11.46875 4.984375 16.3125 
Q 4.984375 18.5625 6.4375 19.96875 
Q 7.90625 21.390625 10.109375 21.390625 
Q 12.3125 21.390625 13.796875 19.9375 
Q 15.28125 18.5 15.28125 16.3125 
Q 15.28125 14.15625 13.796875 12.671875 
Q 12.3125 11.1875 10.109375 11.1875 
Q 9.765625 11.1875 9.328125 11.25 
Q 8.890625 11.328125 8.6875 11.375 
" id="Cmr10-35"/>
     <path d="M 18.3125 70.21875 
L 18.3125 54.6875 
L 36.8125 54.6875 
L 36.8125 47.703125 
L 18.3125 47.703125 
L 18.3125 18.015625 
Q 18.3125 11.328125 20.140625 9.421875 
Q 21.96875 7.515625 27.59375 7.515625 
L 36.8125 7.515625 
L 36.8125 0 
L 27.59375 0 
Q 17.1875 0 13.234375 3.875 
Q 9.28125 7.765625 9.28125 18.015625 
L 9.28125 47.703125 
L 2.6875 47.703125 
L 2.6875 54.6875 
L 9.28125 54.6875 
L 9.28125 70.21875 
z
" id="BitstreamVeraSans-Roman-74"/>
     <path d="M 44.28125 53.078125 
L 44.28125 44.578125 
Q 40.484375 46.53125 36.375 47.5 
Q 32.28125 48.484375 27.875 48.484375 
Q 21.1875 48.484375 17.84375 46.4375 
Q 14.5 44.390625 14.5 40.28125 
Q 14.5 37.15625 16.890625 35.375 
Q 19.28125 33.59375 26.515625 31.984375 
L 29.59375 31.296875 
Q 39.15625 29.25 43.1875 25.515625 
Q 47.21875 21.78125 47.21875 15.09375 
Q 47.21875 7.46875 41.1875 3.015625 
Q 35.15625 -1.421875 24.609375 -1.421875 
Q 20.21875 -1.421875 15.453125 -0.5625 
Q 10.6875 0.296875 5.421875 2 
L 5.421875 11.28125 
Q 10.40625 8.6875 15.234375 7.390625 
Q 20.0625 6.109375 24.8125 6.109375 
Q 31.15625 6.109375 34.5625 8.28125 
Q 37.984375 10.453125 37.984375 14.40625 
Q 37.984375 18.0625 35.515625 20.015625 
Q 33.0625 21.96875 24.703125 23.78125 
L 21.578125 24.515625 
Q 13.234375 26.265625 9.515625 29.90625 
Q 5.8125 33.546875 5.8125 39.890625 
Q 5.8125 47.609375 11.28125 51.796875 
Q 16.75 56 26.8125 56 
Q 31.78125 56 36.171875 55.265625 
Q 40.578125 54.546875 44.28125 53.078125 
" id="BitstreamVeraSans-Roman-73"/>
     <path d="M 8.40625 5.515625 
Q 8.40625 7.765625 10.0625 9.375 
Q 11.71875 10.984375 13.921875 10.984375 
Q 15.28125 10.984375 16.59375 10.25 
Q 17.921875 9.515625 18.65625 8.203125 
Q 19.390625 6.890625 19.390625 5.515625 
Q 19.390625 3.328125 17.765625 1.65625 
Q 16.15625 0 13.921875 0 
Q 11.71875 0 10.0625 1.65625 
Q 8.40625 3.328125 8.40625 5.515625 
" id="Cmmi10-3a"/>
     <path d="M 7.515625 13.28125 
Q 6.6875 13.28125 6.140625 13.90625 
Q 5.609375 14.546875 5.609375 15.28125 
Q 5.609375 16.109375 6.140625 16.6875 
Q 6.6875 17.28125 7.515625 17.28125 
L 70.3125 17.28125 
Q 71.046875 17.28125 71.578125 16.6875 
Q 72.125 16.109375 72.125 15.28125 
Q 72.125 14.546875 71.578125 13.90625 
Q 71.046875 13.28125 70.3125 13.28125 
z
M 7.515625 32.71875 
Q 6.6875 32.71875 6.140625 33.296875 
Q 5.609375 33.890625 5.609375 34.71875 
Q 5.609375 35.453125 6.140625 36.078125 
Q 6.6875 36.71875 7.515625 36.71875 
L 70.3125 36.71875 
Q 71.046875 36.71875 71.578125 36.078125 
Q 72.125 35.453125 72.125 34.71875 
Q 72.125 33.890625 71.578125 33.296875 
Q 71.046875 32.71875 70.3125 32.71875 
z
" id="Cmr10-3d"/>
     <path d="M 53.515625 70.515625 
L 53.515625 60.890625 
Q 47.90625 63.578125 42.921875 64.890625 
Q 37.9375 66.21875 33.296875 66.21875 
Q 25.25 66.21875 20.875 63.09375 
Q 16.5 59.96875 16.5 54.203125 
Q 16.5 49.359375 19.40625 46.890625 
Q 22.3125 44.4375 30.421875 42.921875 
L 36.375 41.703125 
Q 47.40625 39.59375 52.65625 34.296875 
Q 57.90625 29 57.90625 20.125 
Q 57.90625 9.515625 50.796875 4.046875 
Q 43.703125 -1.421875 29.984375 -1.421875 
Q 24.8125 -1.421875 18.96875 -0.25 
Q 13.140625 0.921875 6.890625 3.21875 
L 6.890625 13.375 
Q 12.890625 10.015625 18.65625 8.296875 
Q 24.421875 6.59375 29.984375 6.59375 
Q 38.421875 6.59375 43.015625 9.90625 
Q 47.609375 13.234375 47.609375 19.390625 
Q 47.609375 24.75 44.3125 27.78125 
Q 41.015625 30.8125 33.5 32.328125 
L 27.484375 33.5 
Q 16.453125 35.6875 11.515625 40.375 
Q 6.59375 45.0625 6.59375 53.421875 
Q 6.59375 63.09375 13.40625 68.65625 
Q 20.21875 74.21875 32.171875 74.21875 
Q 37.3125 74.21875 42.625 73.28125 
Q 47.953125 72.359375 53.515625 70.515625 
" id="BitstreamVeraSans-Roman-53"/>
     <path d="M 41.109375 46.296875 
Q 39.59375 47.171875 37.8125 47.578125 
Q 36.03125 48 33.890625 48 
Q 26.265625 48 22.1875 43.046875 
Q 18.109375 38.09375 18.109375 28.8125 
L 18.109375 0 
L 9.078125 0 
L 9.078125 54.6875 
L 18.109375 54.6875 
L 18.109375 46.1875 
Q 20.953125 51.171875 25.484375 53.578125 
Q 30.03125 56 36.53125 56 
Q 37.453125 56 38.578125 55.875 
Q 39.703125 55.765625 41.0625 55.515625 
z
" id="BitstreamVeraSans-Roman-72"/>
     <path d="M 11.71875 12.40625 
L 22.015625 12.40625 
L 22.015625 4 
L 14.015625 -11.625 
L 7.71875 -11.625 
L 11.71875 4 
z
" id="BitstreamVeraSans-Roman-2c"/>
     <path d="M 34.28125 27.484375 
Q 23.390625 27.484375 19.1875 25 
Q 14.984375 22.515625 14.984375 16.5 
Q 14.984375 11.71875 18.140625 8.90625 
Q 21.296875 6.109375 26.703125 6.109375 
Q 34.1875 6.109375 38.703125 11.40625 
Q 43.21875 16.703125 43.21875 25.484375 
L 43.21875 27.484375 
z
M 52.203125 31.203125 
L 52.203125 0 
L 43.21875 0 
L 43.21875 8.296875 
Q 40.140625 3.328125 35.546875 0.953125 
Q 30.953125 -1.421875 24.3125 -1.421875 
Q 15.921875 -1.421875 10.953125 3.296875 
Q 6 8.015625 6 15.921875 
Q 6 25.140625 12.171875 29.828125 
Q 18.359375 34.515625 30.609375 34.515625 
L 43.21875 34.515625 
L 43.21875 35.40625 
Q 43.21875 41.609375 39.140625 45 
Q 35.0625 48.390625 27.6875 48.390625 
Q 23 48.390625 18.546875 47.265625 
Q 14.109375 46.140625 10.015625 43.890625 
L 10.015625 52.203125 
Q 14.9375 54.109375 19.578125 55.046875 
Q 24.21875 56 28.609375 56 
Q 40.484375 56 46.34375 49.84375 
Q 52.203125 43.703125 52.203125 31.203125 
" id="BitstreamVeraSans-Roman-61"/>
     <path id="BitstreamVeraSans-Roman-20"/>
     <path d="M 56.203125 29.59375 
L 56.203125 25.203125 
L 14.890625 25.203125 
Q 15.484375 15.921875 20.484375 11.0625 
Q 25.484375 6.203125 34.421875 6.203125 
Q 39.59375 6.203125 44.453125 7.46875 
Q 49.3125 8.734375 54.109375 11.28125 
L 54.109375 2.78125 
Q 49.265625 0.734375 44.1875 -0.34375 
Q 39.109375 -1.421875 33.890625 -1.421875 
Q 20.796875 -1.421875 13.15625 6.1875 
Q 5.515625 13.8125 5.515625 26.8125 
Q 5.515625 40.234375 12.765625 48.109375 
Q 20.015625 56 32.328125 56 
Q 43.359375 56 49.78125 48.890625 
Q 56.203125 41.796875 56.203125 29.59375 
M 47.21875 32.234375 
Q 47.125 39.59375 43.09375 43.984375 
Q 39.0625 48.390625 32.421875 48.390625 
Q 24.90625 48.390625 20.390625 44.140625 
Q 15.875 39.890625 15.1875 32.171875 
z
" id="BitstreamVeraSans-Roman-65"/>
    </defs>
    <g transform="translate(82.416875 16.32)scale(0.12 -0.12)">
     <use transform="translate(0.0 0.015625)" xlink:href="#BitstreamVeraSans-Roman-48"/>
     <use transform="translate(75.1953125 0.015625)" xlink:href="#BitstreamVeraSans-Roman-61"/>
     <use transform="translate(136.474609375 0.015625)" xlink:href="#BitstreamVeraSans-Roman-72"/>
     <use transform="translate(177.587890625 0.015625)" xlink:href="#BitstreamVeraSans-Roman-64"/>
     <use transform="translate(241.064453125 0.015625)" xlink:href="#BitstreamVeraSans-Roman-20"/>
     <use transform="translate(272.8515625 0.015625)" xlink:href="#BitstreamVeraSans-Roman-53"/>
     <use transform="translate(336.328125 0.015625)" xlink:href="#BitstreamVeraSans-Roman-70"/>
     <use transform="translate(399.8046875 0.015625)" xlink:href="#BitstreamVeraSans-Roman-68"/>
     <use transform="translate(463.18359375 0.015625)" xlink:href="#BitstreamVeraSans-Roman-65"/>
     <use transform="translate(524.70703125 0.015625)" xlink:href="#BitstreamVeraSans-Roman-72"/>
     <use transform="translate(565.8203125 0.015625)" xlink:href="#BitstreamVeraSans-Roman-65"/>
     <use transform="translate(627.34375 0.015625)" xlink:href="#BitstreamVeraSans-Roman-73"/>
     <use transform="translate(679.443359375 0.015625)" xlink:href="#BitstreamVeraSans-Roman-2c"/>
     <use transform="translate(711.23046875 0.015625)" xlink:href="#BitstreamVeraSans-Roman-20"/>
     <use transform="translate(743.017578125 0.015625)" xlink:href="#BitstreamVeraSans-Roman-61"/>
     <use transform="translate(804.296875 0.015625)" xlink:href="#BitstreamVeraSans-Roman-74"/>
     <use transform="translate(843.505859375 0.015625)" xlink:href="#BitstreamVeraSans-Roman-20"/>
     <use transform="translate(875.29296875 0.015625)" xlink:href="#Cmmi10-c1"/>
     <use transform="translate(952.373046875 0.015625)" xlink:href="#Cmr10-3d"/>
     <use transform="translate(1036.431640625 0.015625)" xlink:href="#Cmr10-30"/>
     <use transform="translate(1086.431640625 0.015625)" xlink:href="#Cmmi10-3a"/>
     <use transform="translate(1114.974609375 0.015625)" xlink:href="#Cmr10-35"/>
     <use transform="translate(1164.974609375 0.015625)" xlink:href="#Cmr10-37"/>
    </g>
   </g>
   <g id="legend_1">
    <g id="patch_7">
     <path d="M 47.881875 151.869028 
L 99.069725 151.869028 
L 99.069725 25.485 
L 47.881875 25.485 
z
" style="fill:#ffffff;stroke:#000000;stroke-linejoin:miter;"/>
    </g>
    <g id="text_14">
     <!-- $\Delta t$ -->
     <defs>
      <path d="M 6.203125 8.109375 
Q 6.203125 9.578125 6.5 10.890625 
L 13.71875 39.59375 
L 3.21875 39.59375 
Q 2.203125 39.59375 2.203125 40.921875 
Q 2.59375 43.109375 3.515625 43.109375 
L 14.59375 43.109375 
L 18.609375 59.421875 
Q 19 60.75 20.171875 61.671875 
Q 21.34375 62.59375 22.796875 62.59375 
Q 24.078125 62.59375 24.921875 61.828125 
Q 25.78125 61.078125 25.78125 59.8125 
Q 25.78125 59.515625 25.75 59.34375 
Q 25.734375 59.1875 25.6875 58.984375 
L 21.6875 43.109375 
L 31.984375 43.109375 
Q 33.015625 43.109375 33.015625 41.796875 
Q 32.953125 41.546875 32.8125 40.953125 
Q 32.671875 40.375 32.421875 39.984375 
Q 32.171875 39.59375 31.6875 39.59375 
L 20.796875 39.59375 
L 13.625 10.6875 
Q 12.890625 7.859375 12.890625 5.8125 
Q 12.890625 1.515625 15.828125 1.515625 
Q 20.21875 1.515625 23.609375 5.640625 
Q 27 9.765625 28.8125 14.703125 
Q 29.203125 15.28125 29.59375 15.28125 
L 30.8125 15.28125 
Q 31.203125 15.28125 31.4375 15.015625 
Q 31.6875 14.75 31.6875 14.40625 
Q 31.6875 14.203125 31.59375 14.109375 
Q 29.390625 8.0625 25.1875 3.46875 
Q 21 -1.125 15.578125 -1.125 
Q 11.625 -1.125 8.90625 1.453125 
Q 6.203125 4.046875 6.203125 8.109375 
" id="Cmmi10-74"/>
     </defs>
     <g transform="translate(67.4758 36.4154375)scale(0.1 -0.1)">
      <use transform="translate(0.0 0.421875)" xlink:href="#Cmr10-a2"/>
      <use transform="translate(83.30078125 0.421875)" xlink:href="#Cmmi10-74"/>
     </g>
    </g>
    <g id="line2d_94">
     <path d="M 53.712875 46.074123 
L 65.374875 46.074123 
" style="fill:none;stroke:#4daf4a;stroke-linecap:square;stroke-width:2.0;"/>
    </g>
    <g id="line2d_95"/>
    <g id="text_15">
     <!-- 1000 -->
     <g transform="translate(74.537875 48.9896234375)scale(0.0833 -0.0833)">
      <use xlink:href="#BitstreamVeraSans-Roman-31"/>
      <use x="63.623046875" xlink:href="#BitstreamVeraSans-Roman-30"/>
      <use x="127.24609375" xlink:href="#BitstreamVeraSans-Roman-30"/>
      <use x="190.869140625" xlink:href="#BitstreamVeraSans-Roman-30"/>
     </g>
    </g>
    <g id="line2d_96">
     <path d="M 53.712875 58.301002 
L 65.374875 58.301002 
" style="fill:none;stroke:#429681;stroke-linecap:square;stroke-width:2.0;"/>
    </g>
    <g id="line2d_97"/>
    <g id="text_16">
     <!-- 700 -->
     <defs>
      <path d="M 8.203125 72.90625 
L 55.078125 72.90625 
L 55.078125 68.703125 
L 28.609375 0 
L 18.3125 0 
L 43.21875 64.59375 
L 8.203125 64.59375 
z
" id="BitstreamVeraSans-Roman-37"/>
     </defs>
     <g transform="translate(74.537875 61.2165015625)scale(0.0833 -0.0833)">
      <use xlink:href="#BitstreamVeraSans-Roman-37"/>
      <use x="63.623046875" xlink:href="#BitstreamVeraSans-Roman-30"/>
      <use x="127.24609375" xlink:href="#BitstreamVeraSans-Roman-30"/>
     </g>
    </g>
    <g id="line2d_98">
     <path d="M 53.712875 70.52788 
L 65.374875 70.52788 
" style="fill:none;stroke:#377eb8;stroke-linecap:square;stroke-width:2.0;"/>
    </g>
    <g id="line2d_99"/>
    <g id="text_17">
     <!-- 500 -->
     <g transform="translate(74.537875 73.4433796875)scale(0.0833 -0.0833)">
      <use xlink:href="#BitstreamVeraSans-Roman-35"/>
      <use x="63.623046875" xlink:href="#BitstreamVeraSans-Roman-30"/>
      <use x="127.24609375" xlink:href="#BitstreamVeraSans-Roman-30"/>
     </g>
    </g>
    <g id="line2d_100">
     <path d="M 53.712875 82.754758 
L 65.374875 82.754758 
" style="fill:none;stroke:#6866ad;stroke-linecap:square;stroke-width:2.0;"/>
    </g>
    <g id="line2d_101"/>
    <g id="text_18">
     <!-- 300 -->
     <defs>
      <path d="M 40.578125 39.3125 
Q 47.65625 37.796875 51.625 33 
Q 55.609375 28.21875 55.609375 21.1875 
Q 55.609375 10.40625 48.1875 4.484375 
Q 40.765625 -1.421875 27.09375 -1.421875 
Q 22.515625 -1.421875 17.65625 -0.515625 
Q 12.796875 0.390625 7.625 2.203125 
L 7.625 11.71875 
Q 11.71875 9.328125 16.59375 8.109375 
Q 21.484375 6.890625 26.8125 6.890625 
Q 36.078125 6.890625 40.9375 10.546875 
Q 45.796875 14.203125 45.796875 21.1875 
Q 45.796875 27.640625 41.28125 31.265625 
Q 36.765625 34.90625 28.71875 34.90625 
L 20.21875 34.90625 
L 20.21875 43.015625 
L 29.109375 43.015625 
Q 36.375 43.015625 40.234375 45.921875 
Q 44.09375 48.828125 44.09375 54.296875 
Q 44.09375 59.90625 40.109375 62.90625 
Q 36.140625 65.921875 28.71875 65.921875 
Q 24.65625 65.921875 20.015625 65.03125 
Q 15.375 64.15625 9.8125 62.3125 
L 9.8125 71.09375 
Q 15.4375 72.65625 20.34375 73.4375 
Q 25.25 74.21875 29.59375 74.21875 
Q 40.828125 74.21875 47.359375 69.109375 
Q 53.90625 64.015625 53.90625 55.328125 
Q 53.90625 49.265625 50.4375 45.09375 
Q 46.96875 40.921875 40.578125 39.3125 
" id="BitstreamVeraSans-Roman-33"/>
     </defs>
     <g transform="translate(74.537875 85.6702578125)scale(0.0833 -0.0833)">
      <use xlink:href="#BitstreamVeraSans-Roman-33"/>
      <use x="63.623046875" xlink:href="#BitstreamVeraSans-Roman-30"/>
      <use x="127.24609375" xlink:href="#BitstreamVeraSans-Roman-30"/>
     </g>
    </g>
    <g id="line2d_102">
     <path d="M 53.712875 94.981636 
L 65.374875 94.981636 
" style="fill:none;stroke:#994ea2;stroke-linecap:square;stroke-width:2.0;"/>
    </g>
    <g id="line2d_103"/>
    <g id="text_19">
     <!-- 200 -->
     <g transform="translate(74.537875 97.8971359375)scale(0.0833 -0.0833)">
      <use xlink:href="#BitstreamVeraSans-Roman-32"/>
      <use x="63.623046875" xlink:href="#BitstreamVeraSans-Roman-30"/>
      <use x="127.24609375" xlink:href="#BitstreamVeraSans-Roman-30"/>
     </g>
    </g>
    <g id="line2d_104">
     <path d="M 53.712875 107.208514 
L 65.374875 107.208514 
" style="fill:none;stroke:#bf335e;stroke-linecap:square;stroke-width:2.0;"/>
    </g>
    <g id="line2d_105"/>
    <g id="text_20">
     <!-- 100 -->
     <g transform="translate(74.537875 110.124014063)scale(0.0833 -0.0833)">
      <use xlink:href="#BitstreamVeraSans-Roman-31"/>
      <use x="63.623046875" xlink:href="#BitstreamVeraSans-Roman-30"/>
      <use x="127.24609375" xlink:href="#BitstreamVeraSans-Roman-30"/>
     </g>
    </g>
    <g id="line2d_106">
     <path d="M 53.712875 119.435392 
L 65.374875 119.435392 
" style="fill:none;stroke:#e41b1c;stroke-linecap:square;stroke-width:2.0;"/>
    </g>
    <g id="line2d_107"/>
    <g id="text_21">
     <!-- 70 -->
     <g transform="translate(74.537875 122.350892188)scale(0.0833 -0.0833)">
      <use xlink:href="#BitstreamVeraSans-Roman-37"/>
      <use x="63.623046875" xlink:href="#BitstreamVeraSans-Roman-30"/>
     </g>
    </g>
    <g id="line2d_108">
     <path d="M 53.712875 131.66227 
L 65.374875 131.66227 
" style="fill:none;stroke:#f24e0e;stroke-linecap:square;stroke-width:2.0;"/>
    </g>
    <g id="line2d_109"/>
    <g id="text_22">
     <!-- 50 -->
     <g transform="translate(74.537875 134.577770313)scale(0.0833 -0.0833)">
      <use xlink:href="#BitstreamVeraSans-Roman-35"/>
      <use x="63.623046875" xlink:href="#BitstreamVeraSans-Roman-30"/>
     </g>
    </g>
    <g id="line2d_110">
     <path d="M 53.712875 143.889148 
L 65.374875 143.889148 
" style="fill:none;stroke:#ff7f00;stroke-linecap:square;stroke-width:2.0;"/>
    </g>
    <g id="line2d_111"/>
    <g id="text_23">
     <!-- 30 -->
     <g transform="translate(74.537875 146.804648438)scale(0.0833 -0.0833)">
      <use xlink:href="#BitstreamVeraSans-Roman-33"/>
      <use x="63.623046875" xlink:href="#BitstreamVeraSans-Roman-30"/>
     </g>
    </g>
   </g>
  </g>
 </g>
 <defs>
  <clipPath id="pe815ea7e25">
   <rect height="172.8" width="223.2" x="43.716875" y="21.32"/>
  </clipPath>
 </defs>
</svg>
