<?xml version="1.0" encoding="utf-8" standalone="no"?>
<!DOCTYPE svg PUBLIC "-//W3C//DTD SVG 1.1//EN"
  "http://www.w3.org/Graphics/SVG/1.1/DTD/svg11.dtd">
<!-- Created with matplotlib (http://matplotlib.org/) -->
<svg height="228pt" version="1.1" viewBox="0 0 504 228" width="504pt" xmlns="http://www.w3.org/2000/svg" xmlns:xlink="http://www.w3.org/1999/xlink">
 <defs>
  <style type="text/css">
*{stroke-linecap:butt;stroke-linejoin:round;stroke-miterlimit:100000;}
  </style>
 </defs>
 <g id="figure_1">
  <g id="patch_1">
   <path d="M 0 228.49285 
L 504.801325 228.49285 
L 504.801325 0 
L 0 0 
z
" style="fill:#ffffff;"/>
  </g>
  <g id="text_10">
    <!-- Small Particles -->
    <defs>
     <path d="M 34.28125 27.484375 
Q 23.390625 27.484375 19.1875 25 
Q 14.984375 22.515625 14.984375 16.5 
Q 14.984375 11.71875 18.140625 8.90625 
Q 21.296875 6.109375 26.703125 6.109375 
Q 34.1875 6.109375 38.703125 11.40625 
Q 43.21875 16.703125 43.21875 25.484375 
L 43.21875 27.484375 
z
M 52.203125 31.203125 
L 52.203125 0 
L 43.21875 0 
L 43.21875 8.296875 
Q 40.140625 3.328125 35.546875 0.953125 
Q 30.953125 -1.421875 24.3125 -1.421875 
Q 15.921875 -1.421875 10.953125 3.296875 
Q 6 8.015625 6 15.921875 
Q 6 25.140625 12.171875 29.828125 
Q 18.359375 34.515625 30.609375 34.515625 
L 43.21875 34.515625 
L 43.21875 35.40625 
Q 43.21875 41.609375 39.140625 45 
Q 35.0625 48.390625 27.6875 48.390625 
Q 23 48.390625 18.546875 47.265625 
Q 14.109375 46.140625 10.015625 43.890625 
L 10.015625 52.203125 
Q 14.9375 54.109375 19.578125 55.046875 
Q 24.21875 56 28.609375 56 
Q 40.484375 56 46.34375 49.84375 
Q 52.203125 43.703125 52.203125 31.203125 
" id="BitstreamVeraSans-Roman-61"/>
     <path id="BitstreamVeraSans-Roman-20"/>
     <path d="M 48.78125 52.59375 
L 48.78125 44.1875 
Q 44.96875 46.296875 41.140625 47.34375 
Q 37.3125 48.390625 33.40625 48.390625 
Q 24.65625 48.390625 19.8125 42.84375 
Q 14.984375 37.3125 14.984375 27.296875 
Q 14.984375 17.28125 19.8125 11.734375 
Q 24.65625 6.203125 33.40625 6.203125 
Q 37.3125 6.203125 41.140625 7.25 
Q 44.96875 8.296875 48.78125 10.40625 
L 48.78125 2.09375 
Q 45.015625 0.34375 40.984375 -0.53125 
Q 36.96875 -1.421875 32.421875 -1.421875 
Q 20.0625 -1.421875 12.78125 6.34375 
Q 5.515625 14.109375 5.515625 27.296875 
Q 5.515625 40.671875 12.859375 48.328125 
Q 20.21875 56 33.015625 56 
Q 37.15625 56 41.109375 55.140625 
Q 45.0625 54.296875 48.78125 52.59375 
" id="BitstreamVeraSans-Roman-63"/>
     <path d="M 19.671875 64.796875 
L 19.671875 37.40625 
L 32.078125 37.40625 
Q 38.96875 37.40625 42.71875 40.96875 
Q 46.484375 44.53125 46.484375 51.125 
Q 46.484375 57.671875 42.71875 61.234375 
Q 38.96875 64.796875 32.078125 64.796875 
z
M 9.8125 72.90625 
L 32.078125 72.90625 
Q 44.34375 72.90625 50.609375 67.359375 
Q 56.890625 61.8125 56.890625 51.125 
Q 56.890625 40.328125 50.609375 34.8125 
Q 44.34375 29.296875 32.078125 29.296875 
L 19.671875 29.296875 
L 19.671875 0 
L 9.8125 0 
z
" id="BitstreamVeraSans-Roman-50"/>
     <path d="M 44.28125 53.078125 
L 44.28125 44.578125 
Q 40.484375 46.53125 36.375 47.5 
Q 32.28125 48.484375 27.875 48.484375 
Q 21.1875 48.484375 17.84375 46.4375 
Q 14.5 44.390625 14.5 40.28125 
Q 14.5 37.15625 16.890625 35.375 
Q 19.28125 33.59375 26.515625 31.984375 
L 29.59375 31.296875 
Q 39.15625 29.25 43.1875 25.515625 
Q 47.21875 21.78125 47.21875 15.09375 
Q 47.21875 7.46875 41.1875 3.015625 
Q 35.15625 -1.421875 24.609375 -1.421875 
Q 20.21875 -1.421875 15.453125 -0.5625 
Q 10.6875 0.296875 5.421875 2 
L 5.421875 11.28125 
Q 10.40625 8.6875 15.234375 7.390625 
Q 20.0625 6.109375 24.8125 6.109375 
Q 31.15625 6.109375 34.5625 8.28125 
Q 37.984375 10.453125 37.984375 14.40625 
Q 37.984375 18.0625 35.515625 20.015625 
Q 33.0625 21.96875 24.703125 23.78125 
L 21.578125 24.515625 
Q 13.234375 26.265625 9.515625 29.90625 
Q 5.8125 33.546875 5.8125 39.890625 
Q 5.8125 47.609375 11.28125 51.796875 
Q 16.75 56 26.8125 56 
Q 31.78125 56 36.171875 55.265625 
Q 40.578125 54.546875 44.28125 53.078125 
" id="BitstreamVeraSans-Roman-73"/>
     <path d="M 41.109375 46.296875 
Q 39.59375 47.171875 37.8125 47.578125 
Q 36.03125 48 33.890625 48 
Q 26.265625 48 22.1875 43.046875 
Q 18.109375 38.09375 18.109375 28.8125 
L 18.109375 0 
L 9.078125 0 
L 9.078125 54.6875 
L 18.109375 54.6875 
L 18.109375 46.1875 
Q 20.953125 51.171875 25.484375 53.578125 
Q 30.03125 56 36.53125 56 
Q 37.453125 56 38.578125 55.875 
Q 39.703125 55.765625 41.0625 55.515625 
z
" id="BitstreamVeraSans-Roman-72"/>
     <path d="M 18.3125 70.21875 
L 18.3125 54.6875 
L 36.8125 54.6875 
L 36.8125 47.703125 
L 18.3125 47.703125 
L 18.3125 18.015625 
Q 18.3125 11.328125 20.140625 9.421875 
Q 21.96875 7.515625 27.59375 7.515625 
L 36.8125 7.515625 
L 36.8125 0 
L 27.59375 0 
Q 17.1875 0 13.234375 3.875 
Q 9.28125 7.765625 9.28125 18.015625 
L 9.28125 47.703125 
L 2.6875 47.703125 
L 2.6875 54.6875 
L 9.28125 54.6875 
L 9.28125 70.21875 
z
" id="BitstreamVeraSans-Roman-74"/>
     <path d="M 9.421875 75.984375 
L 18.40625 75.984375 
L 18.40625 0 
L 9.421875 0 
z
" id="BitstreamVeraSans-Roman-6c"/>
    </defs>
    <g transform="translate(100.778032955 16.318125)scale(0.12 -0.12)">
     <use xlink:href="#BitstreamVeraSans-Roman-53"/>
     <use x="63.4765625" xlink:href="#BitstreamVeraSans-Roman-6d"/>
     <use x="160.888671875" xlink:href="#BitstreamVeraSans-Roman-61"/>
     <use x="222.16796875" xlink:href="#BitstreamVeraSans-Roman-6c"/>
     <use x="249.951171875" xlink:href="#BitstreamVeraSans-Roman-6c"/>
     <use x="277.734375" xlink:href="#BitstreamVeraSans-Roman-20"/>
     <use x="309.521484375" xlink:href="#BitstreamVeraSans-Roman-50"/>
     <use x="369.76171875" xlink:href="#BitstreamVeraSans-Roman-61"/>
     <use x="431.041015625" xlink:href="#BitstreamVeraSans-Roman-72"/>
     <use x="472.154296875" xlink:href="#BitstreamVeraSans-Roman-74"/>
     <use x="511.36328125" xlink:href="#BitstreamVeraSans-Roman-69"/>
     <use x="539.146484375" xlink:href="#BitstreamVeraSans-Roman-63"/>
     <use x="594.126953125" xlink:href="#BitstreamVeraSans-Roman-6c"/>
     <use x="621.91015625" xlink:href="#BitstreamVeraSans-Roman-65"/>
     <use x="683.43359375" xlink:href="#BitstreamVeraSans-Roman-73"/>
    </g>
   </g>
   <g id="legend_1">
    <g id="text_11">
     <!-- Activity $f$ $\left(\sqrt{\frac{m \sigma^2}{k_B T}}\right)$ -->
     <defs>
      <path d="M 9.71875 -16.5 
Q 11.578125 -17.921875 14.203125 -17.921875 
Q 17.78125 -17.921875 20.015625 -10.015625 
Q 20.953125 -6.203125 25.09375 15.09375 
L 29.6875 39.59375 
L 21.09375 39.59375 
Q 20.125 39.59375 20.125 40.921875 
Q 20.515625 43.109375 21.390625 43.109375 
L 30.328125 43.109375 
L 31.5 49.609375 
Q 32.078125 52.640625 32.5625 54.8125 
Q 33.0625 56.984375 33.625 58.828125 
Q 34.1875 60.6875 35.296875 62.984375 
Q 37.015625 66.265625 39.921875 68.390625 
Q 42.828125 70.515625 46.1875 70.515625 
Q 48.390625 70.515625 50.46875 69.703125 
Q 52.546875 68.890625 53.859375 67.28125 
Q 55.171875 65.671875 55.171875 63.484375 
Q 55.171875 60.9375 53.484375 59.046875 
Q 51.8125 57.171875 49.421875 57.171875 
Q 47.796875 57.171875 46.65625 58.171875 
Q 45.515625 59.1875 45.515625 60.796875 
Q 45.515625 62.984375 47 64.625 
Q 48.484375 66.265625 50.6875 66.5 
Q 48.828125 67.921875 46.09375 67.921875 
Q 44.578125 67.921875 43.234375 66.5 
Q 41.890625 65.09375 41.5 63.484375 
Q 40.875 60.9375 38.71875 49.703125 
L 37.5 43.109375 
L 47.796875 43.109375 
Q 48.78125 43.109375 48.78125 41.796875 
Q 48.734375 41.546875 48.578125 40.9375 
Q 48.4375 40.328125 48.171875 39.953125 
Q 47.90625 39.59375 47.515625 39.59375 
L 36.8125 39.59375 
L 32.171875 15.1875 
Q 31.296875 9.859375 30.140625 4.359375 
Q 29 -1.125 26.921875 -6.90625 
Q 24.859375 -12.703125 21.625 -16.609375 
Q 18.40625 -20.515625 14.015625 -20.515625 
Q 10.640625 -20.515625 7.984375 -18.578125 
Q 5.328125 -16.65625 5.328125 -13.484375 
Q 5.328125 -10.9375 6.953125 -9.046875 
Q 8.59375 -7.171875 11.078125 -7.171875 
Q 12.75 -7.171875 13.859375 -8.171875 
Q 14.984375 -9.1875 14.984375 -10.796875 
Q 14.984375 -12.9375 13.390625 -14.71875 
Q 11.8125 -16.5 9.71875 -16.5 
" id="Cmmi10-66"/>
      <path d="M 32.171875 -5.078125 
Q 28.375 -14.84375 24.75 -17.8125 
Q 21.140625 -20.796875 15.09375 -20.796875 
L 7.90625 -20.796875 
L 7.90625 -13.28125 
L 13.1875 -13.28125 
Q 16.890625 -13.28125 18.9375 -11.515625 
Q 21 -9.765625 23.484375 -3.21875 
L 25.09375 0.875 
L 2.984375 54.6875 
L 12.5 54.6875 
L 29.59375 11.921875 
L 46.6875 54.6875 
L 56.203125 54.6875 
z
" id="BitstreamVeraSans-Roman-79"/>
      <path d="M 4.59375 1.3125 
Q 4.640625 1.5625 4.8125 2.1875 
Q 4.984375 2.828125 5.25 3.171875 
Q 5.515625 3.515625 6 3.515625 
Q 14.59375 3.515625 17.390625 4 
Q 20.0625 4.6875 20.609375 6.890625 
L 34.28125 61.8125 
Q 34.71875 63.03125 34.71875 64.015625 
Q 34.71875 64.796875 31.203125 64.796875 
L 25.390625 64.796875 
Q 18.703125 64.796875 15.0625 62.734375 
Q 11.421875 60.6875 9.71875 57.3125 
Q 8.015625 53.953125 5.328125 46.296875 
Q 4.984375 45.40625 4.296875 45.40625 
L 3.421875 45.40625 
Q 2.390625 45.40625 2.390625 46.6875 
L 9.515625 67.390625 
Q 9.71875 68.3125 10.5 68.3125 
L 69.578125 68.3125 
Q 70.609375 68.3125 70.609375 67 
L 67.28125 46.296875 
Q 67.28125 46 66.9375 45.703125 
Q 66.609375 45.40625 66.3125 45.40625 
L 65.375 45.40625 
Q 64.40625 45.40625 64.40625 46.6875 
Q 65.484375 53.765625 65.484375 56.6875 
Q 65.484375 60.203125 64.015625 62 
Q 62.546875 63.8125 60.203125 64.296875 
Q 57.859375 64.796875 54.109375 64.796875 
L 48.1875 64.796875 
Q 45.515625 64.796875 44.578125 64.296875 
Q 43.65625 63.8125 43.015625 61.375 
L 29.296875 6.5 
Q 29.25 6.296875 29.21875 6.09375 
Q 29.203125 5.90625 29.109375 5.609375 
Q 29.109375 4.34375 30.609375 4 
Q 33.203125 3.515625 41.703125 3.515625 
Q 42.671875 3.515625 42.671875 2.203125 
Q 42.328125 0.78125 42.125 0.390625 
Q 41.9375 0 41.015625 0 
L 5.609375 0 
Q 4.59375 0 4.59375 1.3125 
" id="Cmmi10-54"/>
      <path d="M 34.1875 63.1875 
L 20.796875 26.90625 
L 47.609375 26.90625 
z
M 28.609375 72.90625 
L 39.796875 72.90625 
L 67.578125 0 
L 57.328125 0 
L 50.6875 18.703125 
L 17.828125 18.703125 
L 11.1875 0 
L 0.78125 0 
z
" id="BitstreamVeraSans-Roman-41"/>
      <path d="M 2.984375 54.6875 
L 12.5 54.6875 
L 29.59375 8.796875 
L 46.6875 54.6875 
L 56.203125 54.6875 
L 35.6875 0 
L 23.484375 0 
z
" id="BitstreamVeraSans-Roman-76"/>
      <path d="M 42.390625 -235.984375 
L 19.578125 -129.78125 
L 12.796875 -140.375 
L 10.984375 -138.625 
L 25.296875 -116.015625 
L 46.6875 -215.484375 
L 98.09375 2.484375 
Q 98.4375 4 100 4 
Q 100.828125 4 101.40625 3.40625 
Q 102 2.828125 102 2 
L 102 1.609375 
L 46.390625 -234.515625 
Q 45.953125 -235.984375 44.578125 -235.984375 
z
" id="Cmex10-72"/>
      <path d="M 4.984375 0 
Q 4 0 4 1.3125 
Q 4.046875 1.5625 4.1875 2.140625 
Q 4.34375 2.734375 4.578125 3.125 
Q 4.828125 3.515625 5.328125 3.515625 
Q 8.15625 3.515625 10.25 3.65625 
Q 12.359375 3.8125 13.8125 4.203125 
Q 14.984375 4.640625 15.71875 6.890625 
L 29.390625 61.8125 
Q 29.59375 62.796875 29.59375 63.1875 
Q 29.59375 64.265625 28.421875 64.40625 
Q 26.515625 64.796875 21.1875 64.796875 
Q 20.21875 64.796875 20.21875 66.109375 
Q 20.265625 66.359375 20.40625 66.96875 
Q 20.5625 67.578125 20.828125 67.9375 
Q 21.09375 68.3125 21.484375 68.3125 
L 57.328125 68.3125 
Q 60.59375 68.3125 63.796875 67.5 
Q 67 66.703125 69.703125 64.9375 
Q 72.40625 63.1875 74 60.5625 
Q 75.59375 57.953125 75.59375 54.5 
Q 75.59375 50.734375 73.65625 47.5 
Q 71.734375 44.28125 68.671875 41.890625 
Q 65.625 39.5 62.078125 37.953125 
Q 58.546875 36.421875 54.6875 35.6875 
Q 57.421875 35.6875 60.21875 34.609375 
Q 63.03125 33.546875 65.234375 31.6875 
Q 67.4375 29.828125 68.78125 27.234375 
Q 70.125 24.65625 70.125 21.6875 
Q 70.125 15.671875 65.921875 10.6875 
Q 61.71875 5.71875 55.34375 2.859375 
Q 48.96875 0 43.015625 0 
z
M 23.390625 4.296875 
Q 23.390625 3.515625 26.8125 3.515625 
L 41.109375 3.515625 
Q 46 3.515625 50.484375 6.21875 
Q 54.984375 8.9375 57.6875 13.421875 
Q 60.40625 17.921875 60.40625 22.796875 
Q 60.40625 25.78125 59.15625 28.4375 
Q 57.90625 31.109375 55.5625 32.640625 
Q 53.21875 34.1875 50.203125 34.1875 
L 30.71875 34.1875 
L 23.78125 6.5 
Q 23.390625 5.125 23.390625 4.296875 
M 31.390625 36.8125 
L 46.578125 36.8125 
Q 51.375 36.8125 55.890625 39.25 
Q 60.40625 41.703125 63.25 45.890625 
Q 66.109375 50.09375 66.109375 54.78125 
Q 66.109375 59.125 63.390625 61.953125 
Q 60.6875 64.796875 56.390625 64.796875 
L 42.671875 64.796875 
Q 39.984375 64.796875 39.0625 64.296875 
Q 38.140625 63.8125 37.5 61.375 
z
" id="Cmmi10-42"/>
      <path d="M 4.296875 -235.890625 
Q 3.421875 -235.890625 3.421875 -235.015625 
Q 3.421875 -234.625 3.609375 -234.421875 
Q 15.046875 -223.140625 22.90625 -209.296875 
Q 30.765625 -195.453125 35.40625 -180.1875 
Q 40.046875 -164.9375 42.015625 -149 
Q 44 -133.0625 44 -115.921875 
Q 44 -98.578125 42.015625 -82.75 
Q 40.046875 -66.9375 35.453125 -51.75 
Q 30.859375 -36.578125 22.890625 -22.625 
Q 14.9375 -8.6875 3.609375 2.484375 
Q 3.421875 2.6875 3.421875 3.078125 
Q 3.421875 4 4.296875 4 
L 6.890625 4 
Q 7.234375 4 7.421875 3.8125 
Q 19.78125 -7.125 28.5625 -21.0625 
Q 37.359375 -35.015625 42.625 -50.484375 
Q 47.90625 -65.96875 50.296875 -82.46875 
Q 52.6875 -98.96875 52.6875 -116.015625 
Q 52.6875 -132.953125 50.296875 -149.40625 
Q 47.90625 -165.875 42.625 -181.375 
Q 37.359375 -196.875 28.5625 -210.8125 
Q 19.78125 -224.75 7.421875 -235.6875 
Q 7.234375 -235.890625 6.890625 -235.890625 
z
" id="Cmex10-b6"/>
      <path d="M 18.703125 -1.125 
Q 14.265625 -1.125 10.8125 1 
Q 7.375 3.125 5.484375 6.734375 
Q 3.609375 10.359375 3.609375 14.703125 
Q 3.609375 19.34375 5.703125 24.46875 
Q 7.8125 29.59375 11.453125 33.84375 
Q 15.09375 38.09375 19.671875 40.59375 
Q 24.265625 43.109375 29.109375 43.109375 
L 54.296875 43.109375 
Q 55.328125 43.109375 56.046875 42.421875 
Q 56.78125 41.75 56.78125 40.578125 
Q 56.78125 39.109375 55.734375 38.015625 
Q 54.6875 36.921875 53.21875 36.921875 
L 41.015625 36.921875 
Q 43.890625 32.625 43.890625 26.515625 
Q 43.890625 21.484375 41.9375 16.59375 
Q 39.984375 11.71875 36.515625 7.6875 
Q 33.0625 3.65625 28.4375 1.265625 
Q 23.828125 -1.125 18.703125 -1.125 
M 18.796875 1.515625 
Q 24.265625 1.515625 28.484375 5.78125 
Q 32.71875 10.0625 34.953125 16.234375 
Q 37.203125 22.40625 37.203125 27.6875 
Q 37.203125 31.984375 34.828125 34.453125 
Q 32.46875 36.921875 28.21875 36.921875 
Q 22.40625 36.921875 18.328125 33.015625 
Q 14.265625 29.109375 12.234375 23.1875 
Q 10.203125 17.28125 10.203125 11.8125 
Q 10.203125 7.515625 12.46875 4.515625 
Q 14.75 1.515625 18.796875 1.515625 
" id="Cmmi10-be"/>
      <path d="M 66.21875 -235.6875 
Q 53.90625 -224.8125 45.109375 -210.890625 
Q 36.328125 -196.96875 31 -181.484375 
Q 25.6875 -166.015625 23.234375 -149.484375 
Q 20.796875 -132.953125 20.796875 -116.015625 
Q 20.796875 -98.96875 23.234375 -82.390625 
Q 25.6875 -65.828125 30.984375 -50.390625 
Q 36.28125 -34.96875 45.09375 -21.015625 
Q 53.90625 -7.078125 66.21875 3.8125 
Q 66.21875 4 66.703125 4 
L 69.28125 4 
Q 69.578125 4 69.84375 3.703125 
Q 70.125 3.421875 70.125 3.078125 
Q 70.125 2.6875 69.921875 2.484375 
Q 58.5 -8.796875 50.609375 -22.609375 
Q 42.71875 -36.421875 38.078125 -51.703125 
Q 33.453125 -67 31.46875 -83.109375 
Q 29.5 -99.21875 29.5 -116.015625 
Q 29.5 -132.765625 31.453125 -148.65625 
Q 33.40625 -164.546875 38.09375 -180.03125 
Q 42.78125 -195.515625 50.6875 -209.328125 
Q 58.59375 -223.140625 69.921875 -234.421875 
Q 70.125 -234.625 70.125 -235.015625 
Q 70.125 -235.296875 69.828125 -235.59375 
Q 69.53125 -235.890625 69.28125 -235.890625 
L 66.703125 -235.890625 
Q 66.21875 -235.890625 66.21875 -235.6875 
" id="Cmex10-b5"/>
      <path d="M 7.71875 1.703125 
Q 7.71875 2.296875 7.8125 2.59375 
L 15.28125 32.421875 
Q 16.015625 35.203125 16.015625 37.3125 
Q 16.015625 41.609375 13.09375 41.609375 
Q 9.96875 41.609375 8.453125 37.859375 
Q 6.9375 34.125 5.515625 28.421875 
Q 5.515625 28.125 5.21875 27.953125 
Q 4.9375 27.78125 4.6875 27.78125 
L 3.515625 27.78125 
Q 3.171875 27.78125 2.921875 28.140625 
Q 2.6875 28.515625 2.6875 28.8125 
Q 3.765625 33.15625 4.765625 36.171875 
Q 5.765625 39.203125 7.890625 41.6875 
Q 10.015625 44.1875 13.1875 44.1875 
Q 16.9375 44.1875 19.8125 41.8125 
Q 22.703125 39.453125 22.703125 35.796875 
Q 25.6875 39.703125 29.6875 41.9375 
Q 33.6875 44.1875 38.1875 44.1875 
Q 42.921875 44.1875 46.359375 41.765625 
Q 49.8125 39.359375 49.8125 34.90625 
Q 52.875 39.265625 57 41.71875 
Q 61.140625 44.1875 66.015625 44.1875 
Q 71.1875 44.1875 74.328125 41.375 
Q 77.484375 38.578125 77.484375 33.40625 
Q 77.484375 29.296875 75.65625 23.484375 
Q 73.828125 17.671875 71.09375 10.5 
Q 69.671875 7.03125 69.671875 4.5 
Q 69.671875 1.515625 72.015625 1.515625 
Q 75.921875 1.515625 78.515625 5.703125 
Q 81.109375 9.90625 82.171875 14.703125 
Q 82.46875 15.28125 83.015625 15.28125 
L 84.1875 15.28125 
Q 84.578125 15.28125 84.84375 15.015625 
Q 85.109375 14.75 85.109375 14.40625 
Q 85.109375 14.3125 85.015625 14.109375 
Q 83.640625 8.453125 80.25 3.65625 
Q 76.859375 -1.125 71.78125 -1.125 
Q 68.265625 -1.125 65.765625 1.296875 
Q 63.28125 3.71875 63.28125 7.171875 
Q 63.28125 8.9375 64.109375 11.078125 
Q 66.9375 18.609375 68.8125 24.515625 
Q 70.703125 30.421875 70.703125 34.90625 
Q 70.703125 37.703125 69.578125 39.65625 
Q 68.453125 41.609375 65.828125 41.609375 
Q 60.359375 41.609375 56.34375 38.25 
Q 52.34375 34.90625 49.421875 29.390625 
Q 49.21875 28.421875 49.125 27.875 
L 42.671875 2.203125 
Q 42.328125 0.828125 41.125 -0.140625 
Q 39.9375 -1.125 38.484375 -1.125 
Q 37.3125 -1.125 36.40625 -0.34375 
Q 35.5 0.4375 35.5 1.703125 
Q 35.5 2.296875 35.59375 2.59375 
L 42 28.078125 
Q 43.015625 32.171875 43.015625 34.90625 
Q 43.015625 37.703125 41.859375 39.65625 
Q 40.71875 41.609375 37.984375 41.609375 
Q 34.328125 41.609375 31.25 39.984375 
Q 28.171875 38.375 25.875 35.71875 
Q 23.578125 33.0625 21.6875 29.390625 
L 14.890625 2.203125 
Q 14.546875 0.828125 13.34375 -0.140625 
Q 12.15625 -1.125 10.6875 -1.125 
Q 9.46875 -1.125 8.59375 -0.34375 
Q 7.71875 0.4375 7.71875 1.703125 
" id="Cmmi10-6d"/>
      <path d="M 5.328125 1.8125 
Q 5.328125 2.390625 5.421875 2.6875 
L 19.921875 60.5 
Q 20.3125 62.203125 20.40625 63.1875 
Q 20.40625 64.796875 13.921875 64.796875 
Q 12.890625 64.796875 12.890625 66.109375 
Q 12.9375 66.359375 13.109375 66.984375 
Q 13.28125 67.625 13.546875 67.96875 
Q 13.8125 68.3125 14.3125 68.3125 
L 27.78125 69.390625 
L 28.078125 69.390625 
Q 28.078125 69.28125 28.421875 69.109375 
Q 28.765625 68.953125 28.8125 68.890625 
Q 29 68.40625 29 68.109375 
L 18.5 26.3125 
Q 22.125 27.828125 27.609375 33.515625 
Q 33.109375 39.203125 36.203125 41.6875 
Q 39.3125 44.1875 44 44.1875 
Q 46.78125 44.1875 48.734375 42.28125 
Q 50.6875 40.375 50.6875 37.59375 
Q 50.6875 35.84375 49.953125 34.34375 
Q 49.21875 32.859375 47.890625 31.921875 
Q 46.578125 31 44.828125 31 
Q 43.21875 31 42.109375 32 
Q 41.015625 33.015625 41.015625 34.625 
Q 41.015625 37.015625 42.703125 38.640625 
Q 44.390625 40.28125 46.78125 40.28125 
Q 45.796875 41.609375 43.796875 41.609375 
Q 40.828125 41.609375 38.0625 39.890625 
Q 35.296875 38.1875 32.09375 34.984375 
Q 28.90625 31.78125 26.265625 29.125 
Q 23.640625 26.46875 21.390625 25.09375 
Q 27.296875 24.421875 31.640625 22 
Q 35.984375 19.578125 35.984375 14.59375 
Q 35.984375 13.578125 35.59375 12.015625 
Q 34.71875 8.25 34.71875 6 
Q 34.71875 1.515625 37.796875 1.515625 
Q 41.40625 1.515625 43.28125 5.46875 
Q 45.171875 9.421875 46.390625 14.703125 
Q 46.578125 15.28125 47.21875 15.28125 
L 48.390625 15.28125 
Q 48.78125 15.28125 49.046875 15.03125 
Q 49.3125 14.796875 49.3125 14.40625 
Q 49.3125 14.3125 49.21875 14.109375 
Q 45.453125 -1.125 37.59375 -1.125 
Q 34.765625 -1.125 32.59375 0.1875 
Q 30.421875 1.515625 29.25 3.78125 
Q 28.078125 6.0625 28.078125 8.890625 
Q 28.078125 10.5 28.515625 12.203125 
Q 28.8125 13.375 28.8125 14.40625 
Q 28.8125 18.265625 25.390625 20.265625 
Q 21.96875 22.265625 17.578125 22.703125 
L 12.5 2.296875 
Q 12.109375 0.78125 10.984375 -0.171875 
Q 9.859375 -1.125 8.40625 -1.125 
Q 7.125 -1.125 6.21875 -0.265625 
Q 5.328125 0.59375 5.328125 1.8125 
" id="Cmmi10-6b"/>
      <path d="M 4.984375 0 
L 4.984375 2.6875 
Q 4.984375 2.9375 5.171875 3.21875 
L 20.703125 20.40625 
Q 24.21875 24.21875 26.40625 26.796875 
Q 28.609375 29.390625 30.75 32.765625 
Q 32.90625 36.140625 34.15625 39.625 
Q 35.40625 43.109375 35.40625 47.015625 
Q 35.40625 51.125 33.890625 54.859375 
Q 32.375 58.59375 29.375 60.84375 
Q 26.375 63.09375 22.125 63.09375 
Q 17.78125 63.09375 14.3125 60.46875 
Q 10.84375 57.859375 9.421875 53.71875 
Q 9.8125 53.8125 10.5 53.8125 
Q 12.75 53.8125 14.328125 52.296875 
Q 15.921875 50.78125 15.921875 48.390625 
Q 15.921875 46.09375 14.328125 44.5 
Q 12.75 42.921875 10.5 42.921875 
Q 8.15625 42.921875 6.5625 44.546875 
Q 4.984375 46.1875 4.984375 48.390625 
Q 4.984375 52.15625 6.390625 55.4375 
Q 7.8125 58.734375 10.46875 61.296875 
Q 13.140625 63.875 16.484375 65.234375 
Q 19.828125 66.609375 23.578125 66.609375 
Q 29.296875 66.609375 34.21875 64.1875 
Q 39.15625 61.765625 42.03125 57.34375 
Q 44.921875 52.9375 44.921875 47.015625 
Q 44.921875 42.671875 43.015625 38.765625 
Q 41.109375 34.859375 38.125 31.65625 
Q 35.15625 28.46875 30.515625 24.40625 
Q 25.875 20.359375 24.421875 19 
L 13.09375 8.109375 
L 22.703125 8.109375 
Q 29.78125 8.109375 34.546875 8.21875 
Q 39.3125 8.34375 39.59375 8.59375 
Q 40.765625 9.859375 42 17.828125 
L 44.921875 17.828125 
L 42.09375 0 
z
" id="Cmr10-32"/>
     </defs>
     <g transform="translate(60.447225 42.315125)scale(0.1 -0.1)">
      <use transform="translate(0.0 0.04031249999999886)" xlink:href="#BitstreamVeraSans-Roman-41"/>
      <use transform="translate(68.408203125 0.04031249999999886)" xlink:href="#BitstreamVeraSans-Roman-63"/>
      <use transform="translate(123.388671875 0.04031249999999886)" xlink:href="#BitstreamVeraSans-Roman-74"/>
      <use transform="translate(162.59765625 0.04031249999999886)" xlink:href="#BitstreamVeraSans-Roman-69"/>
      <use transform="translate(190.380859375 0.04031249999999886)" xlink:href="#BitstreamVeraSans-Roman-76"/>
      <use transform="translate(249.560546875 0.04031249999999886)" xlink:href="#BitstreamVeraSans-Roman-69"/>
      <use transform="translate(277.34375 0.04031249999999886)" xlink:href="#BitstreamVeraSans-Roman-74"/>
      <use transform="translate(316.552734375 0.04031249999999886)" xlink:href="#BitstreamVeraSans-Roman-79"/>
      <use transform="translate(375.732421875 0.04031249999999886)" xlink:href="#BitstreamVeraSans-Roman-20"/>
      <use transform="translate(407.51953125 0.04031249999999886)" xlink:href="#Cmmi10-66"/>
      <use transform="translate(456.396484375 0.04031249999999886)" xlink:href="#BitstreamVeraSans-Roman-20"/>
      <use transform="translate(488.18359375 131.828125)scale(0.7886406565492087)" xlink:href="#Cmex10-b5"/>
      <use transform="translate(546.2114562988281 125.9375)scale(0.7633361546975714)" xlink:href="#Cmex10-72"/>
      <use transform="translate(635.0395812988281 38.326562499999994)scale(0.7)" xlink:href="#Cmmi10-6d"/>
      <use transform="translate(696.4946594238281 38.326562499999994)scale(0.7)" xlink:href="#Cmmi10-be"/>
      <use transform="translate(740.7045266113281 65.11140625)scale(0.49)" xlink:href="#Cmr10-32"/>
      <use transform="translate(643.0395812988281 -42.28437500000001)scale(0.7)" xlink:href="#Cmmi10-6b"/>
      <use transform="translate(679.4409484863281 -54.18875)scale(0.49)" xlink:href="#Cmmi10-42"/>
      <use transform="translate(721.0379016113282 -42.28437500000001)scale(0.7)" xlink:href="#Cmmi10-54"/>
      <use transform="translate(794.6686672363281 131.828125)scale(0.7886406565492087)" xlink:href="#Cmex10-b6"/>
      <path d="M 622.539581 122.5 
L 622.539581 128.75 
L 794.668667 128.75 
L 794.668667 122.5 
L 622.539581 122.5 
z
"/>
      <path d="M 635.039581 12.539062 
L 635.039581 18.789062 
L 769.668667 18.789062 
L 769.668667 12.539062 
L 635.039581 12.539062 
z
"/>
     </g>
    </g>
    <g id="line2d_144">
     <path d="M 53.450425 55.394123 
L 65.112425 55.394123 
" style="fill:none;stroke:#ff7f00;stroke-dasharray:6.000000,6.000000;stroke-dashoffset:0.0;stroke-width:2.0;"/>
    </g>
    <g id="line2d_145"/>
    <g id="text_12">
     <!-- $0.200$ -->
     <defs>
      <path d="M 8.40625 5.515625 
Q 8.40625 7.765625 10.0625 9.375 
Q 11.71875 10.984375 13.921875 10.984375 
Q 15.28125 10.984375 16.59375 10.25 
Q 17.921875 9.515625 18.65625 8.203125 
Q 19.390625 6.890625 19.390625 5.515625 
Q 19.390625 3.328125 17.765625 1.65625 
Q 16.15625 0 13.921875 0 
Q 11.71875 0 10.0625 1.65625 
Q 8.40625 3.328125 8.40625 5.515625 
" id="Cmmi10-3a"/>
      <path d="M 25 -2.203125 
Q 12.75 -2.203125 8.328125 7.875 
Q 3.90625 17.96875 3.90625 31.890625 
Q 3.90625 40.578125 5.484375 48.234375 
Q 7.078125 55.90625 11.78125 61.25 
Q 16.5 66.609375 25 66.609375 
Q 31.59375 66.609375 35.78125 63.375 
Q 39.984375 60.15625 42.1875 55.046875 
Q 44.390625 49.953125 45.1875 44.109375 
Q 46 38.28125 46 31.890625 
Q 46 23.296875 44.40625 15.796875 
Q 42.828125 8.296875 38.1875 3.046875 
Q 33.546875 -2.203125 25 -2.203125 
M 25 0.390625 
Q 30.5625 0.390625 33.296875 6.09375 
Q 36.03125 11.8125 36.671875 18.75 
Q 37.3125 25.6875 37.3125 33.5 
Q 37.3125 41.015625 36.671875 47.359375 
Q 36.03125 53.71875 33.3125 58.859375 
Q 30.609375 64.015625 25 64.015625 
Q 19.34375 64.015625 16.609375 58.828125 
Q 13.875 53.65625 13.234375 47.328125 
Q 12.59375 41.015625 12.59375 33.5 
Q 12.59375 27.9375 12.859375 23 
Q 13.140625 18.0625 14.3125 12.8125 
Q 15.484375 7.5625 18.09375 3.96875 
Q 20.703125 0.390625 25 0.390625 
" id="Cmr10-30"/>
     </defs>
     <g transform="translate(74.275425 58.3096234375)scale(0.0833 -0.0833)">
      <use transform="translate(0.0 0.390625)" xlink:href="#Cmr10-30"/>
      <use transform="translate(50.0 0.390625)" xlink:href="#Cmmi10-3a"/>
      <use transform="translate(95.244140625 0.390625)" xlink:href="#Cmr10-32"/>
      <use transform="translate(145.244140625 0.390625)" xlink:href="#Cmr10-30"/>
      <use transform="translate(195.244140625 0.390625)" xlink:href="#Cmr10-30"/>
     </g>
    </g>
    <g id="line2d_146">
     <path d="M 53.450425 67.621002 
L 65.112425 67.621002 
" style="fill:none;stroke:#f4540c;stroke-dasharray:6.000000,6.000000;stroke-dashoffset:0.0;stroke-width:2.0;"/>
    </g>
    <g id="line2d_147"/>
    <g id="text_13">
     <!-- $0.100$ -->
     <defs>
      <path d="M 9.28125 0 
L 9.28125 3.515625 
Q 21.78125 3.515625 21.78125 6.6875 
L 21.78125 59.1875 
Q 16.609375 56.6875 8.6875 56.6875 
L 8.6875 60.203125 
Q 20.953125 60.203125 27.203125 66.609375 
L 28.609375 66.609375 
Q 28.953125 66.609375 29.265625 66.328125 
Q 29.59375 66.0625 29.59375 65.71875 
L 29.59375 6.6875 
Q 29.59375 3.515625 42.09375 3.515625 
L 42.09375 0 
z
" id="Cmr10-31"/>
     </defs>
     <g transform="translate(74.275425 70.5365015625)scale(0.0833 -0.0833)">
      <use transform="translate(0.0 0.390625)" xlink:href="#Cmr10-30"/>
      <use transform="translate(50.0 0.390625)" xlink:href="#Cmmi10-3a"/>
      <use transform="translate(95.244140625 0.390625)" xlink:href="#Cmr10-31"/>
      <use transform="translate(145.244140625 0.390625)" xlink:href="#Cmr10-30"/>
      <use transform="translate(195.244140625 0.390625)" xlink:href="#Cmr10-30"/>
     </g>
    </g>
    <g id="line2d_148">
     <path d="M 53.450425 79.84788 
L 65.112425 79.84788 
" style="fill:none;stroke:#e82818;stroke-dasharray:6.000000,6.000000;stroke-dashoffset:0.0;stroke-width:2.0;"/>
    </g>
    <g id="line2d_149"/>
    <g id="text_14">
     <!-- $0.050$ -->
     <defs>
      <path d="M 8.6875 11.375 
Q 9.71875 8.453125 11.84375 6.046875 
Q 13.96875 3.65625 16.875 2.3125 
Q 19.78125 0.984375 22.90625 0.984375 
Q 30.125 0.984375 32.859375 6.59375 
Q 35.59375 12.203125 35.59375 20.21875 
Q 35.59375 23.6875 35.46875 26.046875 
Q 35.359375 28.421875 34.8125 30.609375 
Q 33.890625 34.125 31.5625 36.765625 
Q 29.25 39.40625 25.875 39.40625 
Q 22.515625 39.40625 20.09375 38.375 
Q 17.671875 37.359375 16.15625 35.984375 
Q 14.65625 34.625 13.484375 33.109375 
Q 12.3125 31.59375 12.015625 31.5 
L 10.890625 31.5 
Q 10.640625 31.5 10.265625 31.8125 
Q 9.90625 32.125 9.90625 32.421875 
L 9.90625 65.828125 
Q 9.90625 66.0625 10.21875 66.328125 
Q 10.546875 66.609375 10.890625 66.609375 
L 11.1875 66.609375 
Q 17.921875 63.375 25.484375 63.375 
Q 32.90625 63.375 39.796875 66.609375 
L 40.09375 66.609375 
Q 40.4375 66.609375 40.71875 66.359375 
Q 41.015625 66.109375 41.015625 65.828125 
L 41.015625 64.890625 
Q 41.015625 64.40625 40.828125 64.40625 
Q 37.40625 59.859375 32.25 57.3125 
Q 27.09375 54.78125 21.578125 54.78125 
Q 17.578125 54.78125 13.375 55.90625 
L 13.375 37.015625 
Q 16.703125 39.703125 19.3125 40.84375 
Q 21.921875 42 25.984375 42 
Q 31.5 42 35.859375 38.8125 
Q 40.234375 35.640625 42.578125 30.53125 
Q 44.921875 25.4375 44.921875 20.125 
Q 44.921875 14.109375 41.96875 8.984375 
Q 39.015625 3.859375 33.9375 0.828125 
Q 28.859375 -2.203125 22.90625 -2.203125 
Q 17.96875 -2.203125 13.84375 0.328125 
Q 9.71875 2.875 7.34375 7.171875 
Q 4.984375 11.46875 4.984375 16.3125 
Q 4.984375 18.5625 6.4375 19.96875 
Q 7.90625 21.390625 10.109375 21.390625 
Q 12.3125 21.390625 13.796875 19.9375 
Q 15.28125 18.5 15.28125 16.3125 
Q 15.28125 14.15625 13.796875 12.671875 
Q 12.3125 11.1875 10.109375 11.1875 
Q 9.765625 11.1875 9.328125 11.25 
Q 8.890625 11.328125 8.6875 11.375 
" id="Cmr10-35"/>
     </defs>
     <g transform="translate(74.275425 82.7633796875)scale(0.0833 -0.0833)">
      <use transform="translate(0.0 0.390625)" xlink:href="#Cmr10-30"/>
      <use transform="translate(50.0 0.390625)" xlink:href="#Cmmi10-3a"/>
      <use transform="translate(95.244140625 0.390625)" xlink:href="#Cmr10-30"/>
      <use transform="translate(145.244140625 0.390625)" xlink:href="#Cmr10-35"/>
      <use transform="translate(195.244140625 0.390625)" xlink:href="#Cmr10-30"/>
     </g>
    </g>
    <g id="line2d_150">
     <path d="M 53.450425 92.074758 
L 65.112425 92.074758 
" style="fill:none;stroke:#cf3e3f;stroke-dasharray:6.000000,6.000000;stroke-dashoffset:0.0;stroke-width:2.0;"/>
    </g>
    <g id="line2d_151"/>
    <g id="text_15">
     <!-- $0.020$ -->
     <g transform="translate(74.275425 94.9902578125)scale(0.0833 -0.0833)">
      <use transform="translate(0.0 0.390625)" xlink:href="#Cmr10-30"/>
      <use transform="translate(50.0 0.390625)" xlink:href="#Cmmi10-3a"/>
      <use transform="translate(95.244140625 0.390625)" xlink:href="#Cmr10-30"/>
      <use transform="translate(145.244140625 0.390625)" xlink:href="#Cmr10-32"/>
      <use transform="translate(195.244140625 0.390625)" xlink:href="#Cmr10-30"/>
     </g>
    </g>
    <g id="line2d_152">
     <path d="M 113.926225 55.394123 
L 125.588225 55.394123 
" style="fill:none;stroke:#ae7576;stroke-dasharray:6.000000,6.000000;stroke-dashoffset:0.0;stroke-width:2.0;"/>
    </g>
    <g id="line2d_153"/>
    <g id="text_16">
     <!-- $0.010$ -->
     <g transform="translate(134.751225 58.3096234375)scale(0.0833 -0.0833)">
      <use transform="translate(0.0 0.390625)" xlink:href="#Cmr10-30"/>
      <use transform="translate(50.0 0.390625)" xlink:href="#Cmmi10-3a"/>
      <use transform="translate(95.244140625 0.390625)" xlink:href="#Cmr10-30"/>
      <use transform="translate(145.244140625 0.390625)" xlink:href="#Cmr10-31"/>
      <use transform="translate(195.244140625 0.390625)" xlink:href="#Cmr10-30"/>
     </g>
    </g>
    <g id="line2d_154">
     <path d="M 113.926225 67.621002 
L 125.588225 67.621002 
" style="fill:none;stroke:#838383;stroke-dasharray:6.000000,6.000000;stroke-dashoffset:0.0;stroke-width:2.0;"/>
    </g>
    <g id="line2d_155"/>
    <g id="text_17">
     <!-- $0.005$ -->
     <g transform="translate(134.751225 70.5365015625)scale(0.0833 -0.0833)">
      <use transform="translate(0.0 0.390625)" xlink:href="#Cmr10-30"/>
      <use transform="translate(50.0 0.390625)" xlink:href="#Cmmi10-3a"/>
      <use transform="translate(95.244140625 0.390625)" xlink:href="#Cmr10-30"/>
      <use transform="translate(145.244140625 0.390625)" xlink:href="#Cmr10-30"/>
      <use transform="translate(195.244140625 0.390625)" xlink:href="#Cmr10-35"/>
     </g>
    </g>
    <g id="line2d_156">
     <path d="M 113.926225 79.84788 
L 125.588225 79.84788 
" style="fill:none;stroke:#414141;stroke-dasharray:6.000000,6.000000;stroke-dashoffset:0.0;stroke-width:2.0;"/>
    </g>
    <g id="line2d_157"/>
    <g id="text_18">
     <!-- $0.002$ -->
     <g transform="translate(134.751225 82.7633796875)scale(0.0833 -0.0833)">
      <use transform="translate(0.0 0.390625)" xlink:href="#Cmr10-30"/>
      <use transform="translate(50.0 0.390625)" xlink:href="#Cmmi10-3a"/>
      <use transform="translate(95.244140625 0.390625)" xlink:href="#Cmr10-30"/>
      <use transform="translate(145.244140625 0.390625)" xlink:href="#Cmr10-30"/>
      <use transform="translate(195.244140625 0.390625)" xlink:href="#Cmr10-32"/>
     </g>
    </g>
    <g id="line2d_158">
     <path d="M 113.926225 92.074758 
L 125.588225 92.074758 
" style="fill:none;stroke:#000000;stroke-dasharray:6.000000,6.000000;stroke-dashoffset:0.0;stroke-width:2.0;"/>
    </g>
    <g id="line2d_159"/>
    <g id="text_19">
     <!-- $0.001$ -->
     <g transform="translate(134.751225 94.9902578125)scale(0.0833 -0.0833)">
      <use transform="translate(0.0 0.390625)" xlink:href="#Cmr10-30"/>
      <use transform="translate(50.0 0.390625)" xlink:href="#Cmmi10-3a"/>
      <use transform="translate(95.244140625 0.390625)" xlink:href="#Cmr10-30"/>
      <use transform="translate(145.244140625 0.390625)" xlink:href="#Cmr10-30"/>
      <use transform="translate(195.244140625 0.390625)" xlink:href="#Cmr10-31"/>
     </g>
    </g>
   </g>
  </g>
  <g id="axes_2">
   <g id="patch_7">
    <path d="M 286.945334 194.118125 
L 489.854425 194.118125 
L 489.854425 21.318125 
L 286.945334 21.318125 
z
" style="fill:#ffffff;"/>
   </g>
   <g id="line2d_160">
    <path clip-path="url(#p3d46c3bc75)" d="M 286.945334 196.489703 
L 293.704418 193.702833 
L 298.163656 192.057188 
L 307.031357 189.023547 
L 322.597005 184.247082 
L 338.229134 179.398735 
L 347.1434 176.390819 
L 353.845312 173.994399 
L 360.553729 171.48361 
L 371.681292 167.029708 
L 382.840807 162.224029 
L 393.994483 157.028636 
L 400.679268 153.876875 
L 414.061215 147.131685 
L 422.983324 142.49761 
L 449.744443 128.072617 
L 451.975216 126.781438 
L 456.435429 124.381681 
L 458.665528 123.037875 
L 463.12473 120.595003 
L 465.355153 119.293365 
L 469.81545 116.854272 
L 472.04637 115.670631 
L 476.506615 113.050578 
L 478.736316 111.920861 
L 480.966062 110.505119 
L 483.196863 109.367611 
L 505.801325 96.395867 
L 505.801325 96.395867 
" style="fill:none;stroke:#ff7f00;stroke-dasharray:6.000000,6.000000;stroke-dashoffset:0.0;stroke-width:2.0;"/>
   </g>
   <g id="line2d_161">
    <path clip-path="url(#p3d46c3bc75)" d="M 286.945334 198.161064 
L 293.704418 195.399028 
L 300.400856 193.01144 
L 307.031357 190.829657 
L 313.711427 188.817481 
L 344.953431 179.648365 
L 351.625713 177.481769 
L 364.999114 172.794668 
L 380.601765 166.649501 
L 389.532544 162.787959 
L 400.679268 157.738705 
L 405.141705 155.606734 
L 407.372187 154.605432 
L 414.061215 151.226578 
L 418.525691 149.034005 
L 429.675369 143.251747 
L 440.824699 137.361872 
L 480.966062 115.130162 
L 483.196863 113.829909 
L 485.426596 112.673946 
L 487.656544 111.339274 
L 492.117164 108.915 
L 498.807698 105.080176 
L 501.03753 103.771828 
L 503.267539 102.662005 
L 505.801325 101.237123 
L 505.801325 101.237123 
" style="fill:none;stroke:#f4540c;stroke-dasharray:6.000000,6.000000;stroke-dashoffset:0.0;stroke-width:2.0;"/>
   </g>
   <g id="line2d_162">
    <path clip-path="url(#p3d46c3bc75)" d="M 286.945334 199.030287 
L 293.704418 196.28011 
L 300.400856 193.901731 
L 309.248681 191.060484 
L 324.820416 186.670761 
L 335.981341 183.563253 
L 347.1434 180.249919 
L 358.32066 176.641513 
L 367.223837 173.508014 
L 378.376924 169.279517 
L 387.300045 165.63262 
L 405.141705 157.674639 
L 414.061215 153.374127 
L 416.292113 152.215433 
L 418.525691 151.196821 
L 425.214018 147.765979 
L 434.133028 143.182522 
L 454.205627 132.541095 
L 456.435429 131.235393 
L 460.895982 128.873879 
L 467.585291 125.100949 
L 472.04637 122.662358 
L 474.275869 121.32046 
L 476.506615 120.24084 
L 483.196863 116.439831 
L 485.426596 115.259205 
L 489.887059 112.728731 
L 494.347213 110.235 
L 498.807698 107.607253 
L 503.267539 105.130281 
L 505.801325 103.701836 
L 505.801325 103.701836 
" style="fill:none;stroke:#e82818;stroke-dasharray:6.000000,6.000000;stroke-dashoffset:0.0;stroke-width:2.0;"/>
   </g>
   <g id="line2d_163">
    <path clip-path="url(#p3d46c3bc75)" d="M 286.945334 199.595372 
L 293.704418 196.851616 
L 298.163656 195.250698 
L 307.031357 192.367929 
L 313.711427 190.402799 
L 344.953431 181.783257 
L 353.845312 179.096674 
L 369.463441 173.797114 
L 378.376924 170.515324 
L 391.767315 165.05232 
L 398.449533 162.133224 
L 400.679268 161.222148 
L 418.525691 152.804091 
L 434.133028 144.910247 
L 447.515216 137.932748 
L 485.426596 117.01863 
L 489.887059 114.486493 
L 496.577388 110.819725 
L 498.807698 109.389623 
L 501.03753 108.283331 
L 503.267539 106.897671 
L 505.801325 105.509915 
L 505.801325 105.509915 
" style="fill:none;stroke:#cf3e3f;stroke-dasharray:6.000000,6.000000;stroke-dashoffset:0.0;stroke-width:2.0;"/>
   </g>
   <g id="line2d_164">
    <path clip-path="url(#p3d46c3bc75)" d="M 286.945334 199.761184 
L 293.704418 197.007288 
L 300.400856 194.65449 
L 309.248681 191.847404 
L 318.143111 189.344005 
L 338.229134 183.912921 
L 349.389152 180.667311 
L 360.553729 177.120683 
L 364.999114 175.644112 
L 371.681292 173.254126 
L 385.065737 168.111767 
L 393.994483 164.43146 
L 407.372187 158.435018 
L 422.983324 150.996185 
L 429.675369 147.55473 
L 431.903253 146.555754 
L 434.133028 145.274305 
L 440.824699 141.818227 
L 447.515216 138.276542 
L 449.744443 137.128609 
L 454.205627 134.614514 
L 487.656544 116.188813 
L 492.117164 113.472969 
L 494.347213 112.339946 
L 505.801325 105.830707 
L 505.801325 105.830707 
" style="fill:none;stroke:#ae7576;stroke-dasharray:6.000000,6.000000;stroke-dashoffset:0.0;stroke-width:2.0;"/>
   </g>
   <g id="line2d_165">
    <path clip-path="url(#p3d46c3bc75)" d="M 286.945334 199.865638 
L 293.704418 197.118721 
L 300.400856 194.764215 
L 307.031357 192.635874 
L 315.935289 190.081097 
L 329.307952 186.493771 
L 338.229134 184.077095 
L 356.081118 178.790788 
L 367.223837 175.069667 
L 376.159707 171.880994 
L 389.532544 166.599213 
L 402.916534 160.884842 
L 425.214018 150.249839 
L 447.515216 138.733292 
L 451.975216 136.388639 
L 476.506615 122.929537 
L 480.966062 120.404373 
L 483.196863 119.269148 
L 485.426596 117.927847 
L 492.117164 114.287921 
L 494.347213 112.814799 
L 501.03753 109.254837 
L 503.267539 107.788373 
L 505.801325 106.447662 
L 505.801325 106.447662 
" style="fill:none;stroke:#838383;stroke-dasharray:6.000000,6.000000;stroke-dashoffset:0.0;stroke-width:2.0;"/>
   </g>
   <g id="line2d_166">
    <path clip-path="url(#p3d46c3bc75)" d="M 286.945334 199.918728 
L 293.704418 197.188645 
L 298.163656 195.585688 
L 307.031357 192.703891 
L 313.711427 190.766022 
L 327.093521 187.170527 
L 342.724459 182.910394 
L 356.081118 178.934113 
L 371.681292 173.692917 
L 380.601765 170.345037 
L 389.532544 166.818338 
L 405.141705 160.034879 
L 416.292113 154.871953 
L 436.365032 144.778895 
L 460.895982 131.843891 
L 465.355153 129.291693 
L 472.04637 125.598673 
L 480.966062 120.601707 
L 483.196863 119.424165 
L 485.426596 118.042773 
L 489.887059 115.803823 
L 492.117164 114.404069 
L 494.347213 113.271774 
L 496.577388 111.804417 
L 498.807698 110.654371 
L 505.801325 106.663084 
L 505.801325 106.663084 
" style="fill:none;stroke:#414141;stroke-dasharray:6.000000,6.000000;stroke-dashoffset:0.0;stroke-width:2.0;"/>
   </g>
   <g id="line2d_167">
    <path clip-path="url(#p3d46c3bc75)" d="M 286.945334 199.949434 
L 293.704418 197.21274 
L 300.400856 194.855076 
L 307.031357 192.726901 
L 313.711427 190.78909 
L 327.093521 187.18716 
L 340.45914 183.561149 
L 356.081118 178.903048 
L 367.223837 175.174976 
L 380.601765 170.267709 
L 387.300045 167.606182 
L 400.679268 161.92101 
L 409.605222 157.916661 
L 416.292113 154.648566 
L 418.525691 153.645872 
L 420.752012 152.49763 
L 422.983324 151.471869 
L 429.675369 148.041984 
L 431.903253 147.000295 
L 436.365032 144.629987 
L 449.744443 137.599033 
L 467.585291 127.925403 
L 469.81545 126.643092 
L 472.04637 125.534841 
L 474.275869 124.165553 
L 483.196863 119.319103 
L 485.426596 117.947256 
L 494.347213 112.950864 
L 505.801325 106.520197 
L 505.801325 106.520197 
" style="fill:none;stroke:#000000;stroke-dasharray:6.000000,6.000000;stroke-dashoffset:0.0;stroke-width:2.0;"/>
   </g>
   <g id="line2d_168">
    <path clip-path="url(#p3d46c3bc75)" d="M 286.945334 229.501674 
M 286.96069 229.49285 
L 505.801325 103.742771 
" style="fill:none;stroke:#000000;stroke-dasharray:1.000000,3.000000;stroke-dashoffset:0.0;"/>
   </g>
   <g id="line2d_169">
    <path clip-path="url(#p3d46c3bc75)" d="M 286.945334 196.82189 
L 293.704418 194.041224 
L 300.400856 191.616112 
L 307.031357 189.38521 
L 318.143111 185.96533 
L 333.801337 181.263553 
L 344.953431 177.661979 
L 358.32066 172.92471 
L 371.681292 167.693278 
L 387.300045 160.917663 
L 391.767315 158.949598 
L 396.217585 156.821734 
L 407.372187 151.383104 
L 416.292113 146.897327 
L 434.133028 137.518321 
L 451.975216 127.887137 
L 454.205627 126.574998 
L 458.665528 124.186126 
L 472.04637 116.670887 
L 480.966062 111.604749 
L 483.196863 110.45739 
L 485.426596 109.089495 
L 496.577388 102.917971 
L 498.807698 101.520262 
L 501.03753 100.430308 
L 505.801325 97.65132 
L 505.801325 97.65132 
" style="fill:none;stroke:#ff7f00;stroke-linecap:square;"/>
   </g>
   <g id="line2d_170">
    <path clip-path="url(#p3d46c3bc75)" d="M 286.945334 198.348368 
L 293.704418 195.587332 
L 300.400856 193.199869 
L 309.248681 190.341696 
L 318.143111 187.751955 
L 342.724459 180.646788 
L 362.772092 173.944682 
L 376.159707 168.894721 
L 391.767315 162.286662 
L 405.141705 156.154382 
L 416.292113 150.726104 
L 420.752012 148.454517 
L 422.983324 147.366082 
L 425.214018 146.113 
L 431.903253 142.697231 
L 463.12473 125.825721 
L 465.355153 124.446823 
L 472.04637 120.907591 
L 474.275869 119.55986 
L 480.966062 115.874768 
L 483.196863 114.503256 
L 485.426596 113.316353 
L 489.887059 110.746724 
L 494.347213 108.27629 
L 505.801325 101.802228 
L 505.801325 101.802228 
" style="fill:none;stroke:#f4540c;stroke-linecap:square;"/>
   </g>
   <g id="line2d_171">
    <path clip-path="url(#p3d46c3bc75)" d="M 286.945334 198.972612 
L 293.704418 196.221702 
L 298.163656 194.613515 
L 304.841687 192.376419 
L 313.711427 189.718981 
L 347.1434 180.201114 
L 356.081118 177.315842 
L 367.223837 173.431429 
L 373.917685 170.96382 
L 385.065737 166.501728 
L 391.767315 163.677779 
L 400.679268 159.726884 
L 405.141705 157.645125 
L 422.983324 149.022949 
L 425.214018 147.757211 
L 429.675369 145.537914 
L 434.133028 143.159476 
L 436.365032 142.059513 
L 438.592572 140.759619 
L 440.824699 139.768166 
L 449.744443 134.846813 
L 451.975216 133.798318 
L 456.435429 131.309357 
L 469.81545 123.900781 
L 478.736316 118.920497 
L 480.966062 117.785352 
L 483.196863 116.379918 
L 487.656544 113.907102 
L 489.887059 112.55606 
L 492.117164 111.357525 
L 494.347213 109.966402 
L 503.267539 105.041935 
L 505.801325 103.441064 
L 505.801325 103.441064 
" style="fill:none;stroke:#e82818;stroke-linecap:square;"/>
   </g>
   <g id="line2d_172">
    <path clip-path="url(#p3d46c3bc75)" d="M 286.945334 199.644346 
L 293.704418 196.901036 
L 300.400856 194.542405 
L 309.248681 191.736529 
L 318.143111 189.228741 
L 347.1434 181.184974 
L 358.32066 177.673337 
L 364.999114 175.43795 
L 376.159707 171.412285 
L 391.767315 165.177225 
L 411.830904 156.134781 
L 422.983324 150.718637 
L 434.133028 145.063405 
L 438.592572 142.709666 
L 458.665528 132.103485 
L 467.585291 127.162 
L 469.81545 125.99959 
L 474.275869 123.425158 
L 476.506615 122.308227 
L 492.117164 113.512334 
L 498.807698 109.803222 
L 501.03753 108.310004 
L 503.267539 107.406648 
L 505.801325 105.849058 
L 505.801325 105.849058 
" style="fill:none;stroke:#cf3e3f;stroke-linecap:square;"/>
   </g>
   <g id="line2d_173">
    <path clip-path="url(#p3d46c3bc75)" d="M 286.945334 199.777409 
L 291.50861 197.885058 
L 295.761813 196.275594 
L 302.494544 193.981425 
L 311.479328 191.243524 
L 324.820416 187.624948 
L 335.981341 184.636213 
L 351.625713 180.121258 
L 360.553729 177.297585 
L 367.223837 175.029332 
L 371.681292 173.436285 
L 380.601765 170.125001 
L 391.767315 165.661933 
L 409.605222 157.751774 
L 420.752012 152.407599 
L 425.214018 150.184428 
L 434.133028 145.702766 
L 445.284062 139.879492 
L 449.744443 137.42752 
L 454.205627 135.144814 
L 460.895982 131.421507 
L 465.355153 129.089315 
L 467.585291 127.744266 
L 472.04637 125.436596 
L 480.966062 120.295924 
L 483.196863 119.220795 
L 501.03753 109.091666 
L 505.801325 106.407253 
L 505.801325 106.407253 
" style="fill:none;stroke:#838383;stroke-linecap:square;"/>
   </g>
   <g id="line2d_174">
    <path clip-path="url(#p3d46c3bc75)" d="M 286.945334 199.963414 
L 293.704418 197.231262 
L 300.400856 194.874823 
L 307.031357 192.752024 
L 313.711427 190.820011 
L 322.597005 188.418929 
L 344.953431 182.318234 
L 358.32066 178.284648 
L 378.376924 171.259455 
L 387.300045 167.73066 
L 393.994483 164.982694 
L 416.292113 154.889746 
L 425.214018 150.534614 
L 429.675369 148.182725 
L 434.133028 145.971535 
L 458.665528 133.010367 
L 460.895982 131.638708 
L 463.12473 130.510792 
L 467.585291 128.07035 
L 498.807698 110.532265 
L 501.03753 109.357318 
L 505.801325 106.653487 
L 505.801325 106.653487 
" style="fill:none;stroke:#000000;stroke-linecap:square;"/>
   </g>
   <g id="patch_8">
    <path d="M 489.854425 194.118125 
L 489.854425 21.318125 
" style="fill:none;stroke:#000000;stroke-linecap:square;stroke-linejoin:miter;"/>
   </g>
   <g id="patch_9">
    <path d="M 286.945334 194.118125 
L 286.945334 21.318125 
" style="fill:none;stroke:#000000;stroke-linecap:square;stroke-linejoin:miter;"/>
   </g>
   <g id="patch_10">
    <path d="M 286.945334 21.318125 
L 489.854425 21.318125 
" style="fill:none;stroke:#000000;stroke-linecap:square;stroke-linejoin:miter;"/>
   </g>
   <g id="patch_11">
    <path d="M 286.945334 194.118125 
L 489.854425 194.118125 
" style="fill:none;stroke:#000000;stroke-linecap:square;stroke-linejoin:miter;"/>
   </g>
   <g id="matplotlib.axis_3">
    <g id="xtick_28">
     <g id="line2d_175">
      <g>
       <use style="stroke:#000000;stroke-width:0.5;" x="339.494035234" xlink:href="#mfbe977d105" y="194.118125"/>
      </g>
     </g>
     <g id="line2d_176">
      <g>
       <use style="stroke:#000000;stroke-width:0.5;" x="339.494035234" xlink:href="#m1b5164550d" y="21.318125"/>
      </g>
     </g>
     <g id="text_20">
      <!-- $\mathdefault{10^{0}}$ -->
      <g transform="translate(331.747135234 204.882345313)scale(0.0833 -0.0833)">
       <use transform="translate(0.0 0.796875)" xlink:href="#BitstreamVeraSans-Roman-31"/>
       <use transform="translate(63.623046875 0.796875)" xlink:href="#BitstreamVeraSans-Roman-30"/>
       <use transform="translate(132.75859375 48.046875)scale(0.7)" xlink:href="#BitstreamVeraSans-Roman-30"/>
      </g>
     </g>
    </g>
    <g id="xtick_29">
     <g id="line2d_177">
      <g>
       <use style="stroke:#000000;stroke-width:0.5;" x="414.674230117" xlink:href="#mfbe977d105" y="194.118125"/>
      </g>
     </g>
     <g id="line2d_178">
      <g>
       <use style="stroke:#000000;stroke-width:0.5;" x="414.674230117" xlink:href="#m1b5164550d" y="21.318125"/>
      </g>
     </g>
     <g id="text_21">
      <!-- $\mathdefault{10^{1}}$ -->
      <g transform="translate(406.927330117 204.799045312)scale(0.0833 -0.0833)">
       <use transform="translate(0.0 0.7156250000000028)" xlink:href="#BitstreamVeraSans-Roman-31"/>
       <use transform="translate(63.623046875 0.7156250000000028)" xlink:href="#BitstreamVeraSans-Roman-30"/>
       <use transform="translate(132.75859375 47.965625)scale(0.7)" xlink:href="#BitstreamVeraSans-Roman-31"/>
      </g>
     </g>
    </g>
    <g id="xtick_30">
     <g id="line2d_179">
      <g>
       <use style="stroke:#000000;stroke-width:0.5;" x="489.854425" xlink:href="#mfbe977d105" y="194.118125"/>
      </g>
     </g>
     <g id="line2d_180">
      <g>
       <use style="stroke:#000000;stroke-width:0.5;" x="489.854425" xlink:href="#m1b5164550d" y="21.318125"/>
      </g>
     </g>
     <g id="text_22">
      <!-- $\mathdefault{10^{2}}$ -->
      <g transform="translate(482.107525 204.882345313)scale(0.0833 -0.0833)">
       <use transform="translate(0.0 0.796875)" xlink:href="#BitstreamVeraSans-Roman-31"/>
       <use transform="translate(63.623046875 0.796875)" xlink:href="#BitstreamVeraSans-Roman-30"/>
       <use transform="translate(132.75859375 48.046875)scale(0.7)" xlink:href="#BitstreamVeraSans-Roman-32"/>
      </g>
     </g>
    </g>
    <g id="xtick_31">
     <g id="line2d_181">
      <g>
       <use style="stroke:#000000;stroke-width:0.5;" x="286.945334091" xlink:href="#m6a8bbbdb46" y="194.118125"/>
      </g>
     </g>
     <g id="line2d_182">
      <g>
       <use style="stroke:#000000;stroke-width:0.5;" x="286.945334091" xlink:href="#m94402c1adf" y="21.318125"/>
      </g>
     </g>
    </g>
    <g id="xtick_32">
     <g id="line2d_183">
      <g>
       <use style="stroke:#000000;stroke-width:0.5;" x="300.183909264" xlink:href="#m6a8bbbdb46" y="194.118125"/>
      </g>
     </g>
     <g id="line2d_184">
      <g>
       <use style="stroke:#000000;stroke-width:0.5;" x="300.183909264" xlink:href="#m94402c1adf" y="21.318125"/>
      </g>
     </g>
    </g>
    <g id="xtick_33">
     <g id="line2d_185">
      <g>
       <use style="stroke:#000000;stroke-width:0.5;" x="309.576827831" xlink:href="#m6a8bbbdb46" y="194.118125"/>
      </g>
     </g>
     <g id="line2d_186">
      <g>
       <use style="stroke:#000000;stroke-width:0.5;" x="309.576827831" xlink:href="#m94402c1adf" y="21.318125"/>
      </g>
     </g>
    </g>
    <g id="xtick_34">
     <g id="line2d_187">
      <g>
       <use style="stroke:#000000;stroke-width:0.5;" x="316.862541495" xlink:href="#m6a8bbbdb46" y="194.118125"/>
      </g>
     </g>
     <g id="line2d_188">
      <g>
       <use style="stroke:#000000;stroke-width:0.5;" x="316.862541495" xlink:href="#m94402c1adf" y="21.318125"/>
      </g>
     </g>
    </g>
    <g id="xtick_35">
     <g id="line2d_189">
      <g>
       <use style="stroke:#000000;stroke-width:0.5;" x="322.815403004" xlink:href="#m6a8bbbdb46" y="194.118125"/>
      </g>
     </g>
     <g id="line2d_190">
      <g>
       <use style="stroke:#000000;stroke-width:0.5;" x="322.815403004" xlink:href="#m94402c1adf" y="21.318125"/>
      </g>
     </g>
    </g>
    <g id="xtick_36">
     <g id="line2d_191">
      <g>
       <use style="stroke:#000000;stroke-width:0.5;" x="327.848475695" xlink:href="#m6a8bbbdb46" y="194.118125"/>
      </g>
     </g>
     <g id="line2d_192">
      <g>
       <use style="stroke:#000000;stroke-width:0.5;" x="327.848475695" xlink:href="#m94402c1adf" y="21.318125"/>
      </g>
     </g>
    </g>
    <g id="xtick_37">
     <g id="line2d_193">
      <g>
       <use style="stroke:#000000;stroke-width:0.5;" x="332.20832157" xlink:href="#m6a8bbbdb46" y="194.118125"/>
      </g>
     </g>
     <g id="line2d_194">
      <g>
       <use style="stroke:#000000;stroke-width:0.5;" x="332.20832157" xlink:href="#m94402c1adf" y="21.318125"/>
      </g>
     </g>
    </g>
    <g id="xtick_38">
     <g id="line2d_195">
      <g>
       <use style="stroke:#000000;stroke-width:0.5;" x="336.053978176" xlink:href="#m6a8bbbdb46" y="194.118125"/>
      </g>
     </g>
     <g id="line2d_196">
      <g>
       <use style="stroke:#000000;stroke-width:0.5;" x="336.053978176" xlink:href="#m94402c1adf" y="21.318125"/>
      </g>
     </g>
    </g>
    <g id="xtick_39">
     <g id="line2d_197">
      <g>
       <use style="stroke:#000000;stroke-width:0.5;" x="362.125528974" xlink:href="#m6a8bbbdb46" y="194.118125"/>
      </g>
     </g>
     <g id="line2d_198">
      <g>
       <use style="stroke:#000000;stroke-width:0.5;" x="362.125528974" xlink:href="#m94402c1adf" y="21.318125"/>
      </g>
     </g>
    </g>
    <g id="xtick_40">
     <g id="line2d_199">
      <g>
       <use style="stroke:#000000;stroke-width:0.5;" x="375.364104147" xlink:href="#m6a8bbbdb46" y="194.118125"/>
      </g>
     </g>
     <g id="line2d_200">
      <g>
       <use style="stroke:#000000;stroke-width:0.5;" x="375.364104147" xlink:href="#m94402c1adf" y="21.318125"/>
      </g>
     </g>
    </g>
    <g id="xtick_41">
     <g id="line2d_201">
      <g>
       <use style="stroke:#000000;stroke-width:0.5;" x="384.757022713" xlink:href="#m6a8bbbdb46" y="194.118125"/>
      </g>
     </g>
     <g id="line2d_202">
      <g>
       <use style="stroke:#000000;stroke-width:0.5;" x="384.757022713" xlink:href="#m94402c1adf" y="21.318125"/>
      </g>
     </g>
    </g>
    <g id="xtick_42">
     <g id="line2d_203">
      <g>
       <use style="stroke:#000000;stroke-width:0.5;" x="392.042736377" xlink:href="#m6a8bbbdb46" y="194.118125"/>
      </g>
     </g>
     <g id="line2d_204">
      <g>
       <use style="stroke:#000000;stroke-width:0.5;" x="392.042736377" xlink:href="#m94402c1adf" y="21.318125"/>
      </g>
     </g>
    </g>
    <g id="xtick_43">
     <g id="line2d_205">
      <g>
       <use style="stroke:#000000;stroke-width:0.5;" x="397.995597886" xlink:href="#m6a8bbbdb46" y="194.118125"/>
      </g>
     </g>
     <g id="line2d_206">
      <g>
       <use style="stroke:#000000;stroke-width:0.5;" x="397.995597886" xlink:href="#m94402c1adf" y="21.318125"/>
      </g>
     </g>
    </g>
    <g id="xtick_44">
     <g id="line2d_207">
      <g>
       <use style="stroke:#000000;stroke-width:0.5;" x="403.028670578" xlink:href="#m6a8bbbdb46" y="194.118125"/>
      </g>
     </g>
     <g id="line2d_208">
      <g>
       <use style="stroke:#000000;stroke-width:0.5;" x="403.028670578" xlink:href="#m94402c1adf" y="21.318125"/>
      </g>
     </g>
    </g>
    <g id="xtick_45">
     <g id="line2d_209">
      <g>
       <use style="stroke:#000000;stroke-width:0.5;" x="407.388516453" xlink:href="#m6a8bbbdb46" y="194.118125"/>
      </g>
     </g>
     <g id="line2d_210">
      <g>
       <use style="stroke:#000000;stroke-width:0.5;" x="407.388516453" xlink:href="#m94402c1adf" y="21.318125"/>
      </g>
     </g>
    </g>
    <g id="xtick_46">
     <g id="line2d_211">
      <g>
       <use style="stroke:#000000;stroke-width:0.5;" x="411.234173059" xlink:href="#m6a8bbbdb46" y="194.118125"/>
      </g>
     </g>
     <g id="line2d_212">
      <g>
       <use style="stroke:#000000;stroke-width:0.5;" x="411.234173059" xlink:href="#m94402c1adf" y="21.318125"/>
      </g>
     </g>
    </g>
    <g id="xtick_47">
     <g id="line2d_213">
      <g>
       <use style="stroke:#000000;stroke-width:0.5;" x="437.305723857" xlink:href="#m6a8bbbdb46" y="194.118125"/>
      </g>
     </g>
     <g id="line2d_214">
      <g>
       <use style="stroke:#000000;stroke-width:0.5;" x="437.305723857" xlink:href="#m94402c1adf" y="21.318125"/>
      </g>
     </g>
    </g>
    <g id="xtick_48">
     <g id="line2d_215">
      <g>
       <use style="stroke:#000000;stroke-width:0.5;" x="450.54429903" xlink:href="#m6a8bbbdb46" y="194.118125"/>
      </g>
     </g>
     <g id="line2d_216">
      <g>
       <use style="stroke:#000000;stroke-width:0.5;" x="450.54429903" xlink:href="#m94402c1adf" y="21.318125"/>
      </g>
     </g>
    </g>
    <g id="xtick_49">
     <g id="line2d_217">
      <g>
       <use style="stroke:#000000;stroke-width:0.5;" x="459.937217596" xlink:href="#m6a8bbbdb46" y="194.118125"/>
      </g>
     </g>
     <g id="line2d_218">
      <g>
       <use style="stroke:#000000;stroke-width:0.5;" x="459.937217596" xlink:href="#m94402c1adf" y="21.318125"/>
      </g>
     </g>
    </g>
    <g id="xtick_50">
     <g id="line2d_219">
      <g>
       <use style="stroke:#000000;stroke-width:0.5;" x="467.22293126" xlink:href="#m6a8bbbdb46" y="194.118125"/>
      </g>
     </g>
     <g id="line2d_220">
      <g>
       <use style="stroke:#000000;stroke-width:0.5;" x="467.22293126" xlink:href="#m94402c1adf" y="21.318125"/>
      </g>
     </g>
    </g>
    <g id="xtick_51">
     <g id="line2d_221">
      <g>
       <use style="stroke:#000000;stroke-width:0.5;" x="473.175792769" xlink:href="#m6a8bbbdb46" y="194.118125"/>
      </g>
     </g>
     <g id="line2d_222">
      <g>
       <use style="stroke:#000000;stroke-width:0.5;" x="473.175792769" xlink:href="#m94402c1adf" y="21.318125"/>
      </g>
     </g>
    </g>
    <g id="xtick_52">
     <g id="line2d_223">
      <g>
       <use style="stroke:#000000;stroke-width:0.5;" x="478.208865461" xlink:href="#m6a8bbbdb46" y="194.118125"/>
      </g>
     </g>
     <g id="line2d_224">
      <g>
       <use style="stroke:#000000;stroke-width:0.5;" x="478.208865461" xlink:href="#m94402c1adf" y="21.318125"/>
      </g>
     </g>
    </g>
    <g id="xtick_53">
     <g id="line2d_225">
      <g>
       <use style="stroke:#000000;stroke-width:0.5;" x="482.568711336" xlink:href="#m6a8bbbdb46" y="194.118125"/>
      </g>
     </g>
     <g id="line2d_226">
      <g>
       <use style="stroke:#000000;stroke-width:0.5;" x="482.568711336" xlink:href="#m94402c1adf" y="21.318125"/>
      </g>
     </g>
    </g>
    <g id="xtick_54">
     <g id="line2d_227">
      <g>
       <use style="stroke:#000000;stroke-width:0.5;" x="486.414367942" xlink:href="#m6a8bbbdb46" y="194.118125"/>
      </g>
     </g>
     <g id="line2d_228">
      <g>
       <use style="stroke:#000000;stroke-width:0.5;" x="486.414367942" xlink:href="#m94402c1adf" y="21.318125"/>
      </g>
     </g>
    </g>
    <g id="text_23">
     <!-- Time -->
     <g transform="translate(376.012379545 219.2131625)scale(0.1 -0.1)">
      <use xlink:href="#BitstreamVeraSans-Roman-54"/>
      <use x="61.037109375" xlink:href="#BitstreamVeraSans-Roman-69"/>
      <use x="88.8203125" xlink:href="#BitstreamVeraSans-Roman-6d"/>
      <use x="186.232421875" xlink:href="#BitstreamVeraSans-Roman-65"/>
     </g>
    </g>
   </g>
   <g id="matplotlib.axis_4">
    <g id="ytick_38">
     <g id="line2d_229">
      <g>
       <use style="stroke:#000000;stroke-width:0.5;" x="286.945334091" xlink:href="#m4e9c110cdf" y="176.927116625"/>
      </g>
     </g>
     <g id="line2d_230">
      <g>
       <use style="stroke:#000000;stroke-width:0.5;" x="489.854425" xlink:href="#m24f33af941" y="176.927116625"/>
      </g>
     </g>
    </g>
    <g id="ytick_39">
     <g id="line2d_231">
      <g>
       <use style="stroke:#000000;stroke-width:0.5;" x="286.945334091" xlink:href="#m4e9c110cdf" y="133.727116625"/>
      </g>
     </g>
     <g id="line2d_232">
      <g>
       <use style="stroke:#000000;stroke-width:0.5;" x="489.854425" xlink:href="#m24f33af941" y="133.727116625"/>
      </g>
     </g>
    </g>
    <g id="ytick_40">
     <g id="line2d_233">
      <g>
       <use style="stroke:#000000;stroke-width:0.5;" x="286.945334091" xlink:href="#m4e9c110cdf" y="90.5271166254"/>
      </g>
     </g>
     <g id="line2d_234">
      <g>
       <use style="stroke:#000000;stroke-width:0.5;" x="489.854425" xlink:href="#m24f33af941" y="90.5271166254"/>
      </g>
     </g>
    </g>
    <g id="ytick_41">
     <g id="line2d_235">
      <g>
       <use style="stroke:#000000;stroke-width:0.5;" x="286.945334091" xlink:href="#m4e9c110cdf" y="47.3271166254"/>
      </g>
     </g>
     <g id="line2d_236">
      <g>
       <use style="stroke:#000000;stroke-width:0.5;" x="489.854425" xlink:href="#m24f33af941" y="47.3271166254"/>
      </g>
     </g>
    </g>
    <g id="ytick_42">
     <g id="line2d_237">
      <g>
       <use style="stroke:#000000;stroke-width:0.5;" x="286.945334091" xlink:href="#md754317b81" y="194.118125"/>
      </g>
     </g>
     <g id="line2d_238">
      <g>
       <use style="stroke:#000000;stroke-width:0.5;" x="489.854425" xlink:href="#m3af7c8af94" y="194.118125"/>
      </g>
     </g>
    </g>
    <g id="ytick_43">
     <g id="line2d_239">
      <g>
       <use style="stroke:#000000;stroke-width:0.5;" x="286.945334091" xlink:href="#md754317b81" y="189.931612438"/>
      </g>
     </g>
     <g id="line2d_240">
      <g>
       <use style="stroke:#000000;stroke-width:0.5;" x="489.854425" xlink:href="#m3af7c8af94" y="189.931612438"/>
      </g>
     </g>
    </g>
    <g id="ytick_44">
     <g id="line2d_241">
      <g>
       <use style="stroke:#000000;stroke-width:0.5;" x="286.945334091" xlink:href="#md754317b81" y="186.510982609"/>
      </g>
     </g>
     <g id="line2d_242">
      <g>
       <use style="stroke:#000000;stroke-width:0.5;" x="489.854425" xlink:href="#m3af7c8af94" y="186.510982609"/>
      </g>
     </g>
    </g>
    <g id="ytick_45">
     <g id="line2d_243">
      <g>
       <use style="stroke:#000000;stroke-width:0.5;" x="286.945334091" xlink:href="#md754317b81" y="183.618881297"/>
      </g>
     </g>
     <g id="line2d_244">
      <g>
       <use style="stroke:#000000;stroke-width:0.5;" x="489.854425" xlink:href="#m3af7c8af94" y="183.618881297"/>
      </g>
     </g>
    </g>
    <g id="ytick_46">
     <g id="line2d_245">
      <g>
       <use style="stroke:#000000;stroke-width:0.5;" x="286.945334091" xlink:href="#md754317b81" y="181.113629187"/>
      </g>
     </g>
     <g id="line2d_246">
      <g>
       <use style="stroke:#000000;stroke-width:0.5;" x="489.854425" xlink:href="#m3af7c8af94" y="181.113629187"/>
      </g>
     </g>
    </g>
    <g id="ytick_47">
     <g id="line2d_247">
      <g>
       <use style="stroke:#000000;stroke-width:0.5;" x="286.945334091" xlink:href="#md754317b81" y="178.903840218"/>
      </g>
     </g>
     <g id="line2d_248">
      <g>
       <use style="stroke:#000000;stroke-width:0.5;" x="489.854425" xlink:href="#m3af7c8af94" y="178.903840218"/>
      </g>
     </g>
    </g>
    <g id="ytick_48">
     <g id="line2d_249">
      <g>
       <use style="stroke:#000000;stroke-width:0.5;" x="286.945334091" xlink:href="#md754317b81" y="163.922620813"/>
      </g>
     </g>
     <g id="line2d_250">
      <g>
       <use style="stroke:#000000;stroke-width:0.5;" x="489.854425" xlink:href="#m3af7c8af94" y="163.922620813"/>
      </g>
     </g>
    </g>
    <g id="ytick_49">
     <g id="line2d_251">
      <g>
       <use style="stroke:#000000;stroke-width:0.5;" x="286.945334091" xlink:href="#md754317b81" y="156.315478421"/>
      </g>
     </g>
     <g id="line2d_252">
      <g>
       <use style="stroke:#000000;stroke-width:0.5;" x="489.854425" xlink:href="#m3af7c8af94" y="156.315478421"/>
      </g>
     </g>
    </g>
    <g id="ytick_50">
     <g id="line2d_253">
      <g>
       <use style="stroke:#000000;stroke-width:0.5;" x="286.945334091" xlink:href="#md754317b81" y="150.918125"/>
      </g>
     </g>
     <g id="line2d_254">
      <g>
       <use style="stroke:#000000;stroke-width:0.5;" x="489.854425" xlink:href="#m3af7c8af94" y="150.918125"/>
      </g>
     </g>
    </g>
    <g id="ytick_51">
     <g id="line2d_255">
      <g>
       <use style="stroke:#000000;stroke-width:0.5;" x="286.945334091" xlink:href="#md754317b81" y="146.731612438"/>
      </g>
     </g>
     <g id="line2d_256">
      <g>
       <use style="stroke:#000000;stroke-width:0.5;" x="489.854425" xlink:href="#m3af7c8af94" y="146.731612438"/>
      </g>
     </g>
    </g>
    <g id="ytick_52">
     <g id="line2d_257">
      <g>
       <use style="stroke:#000000;stroke-width:0.5;" x="286.945334091" xlink:href="#md754317b81" y="143.310982609"/>
      </g>
     </g>
     <g id="line2d_258">
      <g>
       <use style="stroke:#000000;stroke-width:0.5;" x="489.854425" xlink:href="#m3af7c8af94" y="143.310982609"/>
      </g>
     </g>
    </g>
    <g id="ytick_53">
     <g id="line2d_259">
      <g>
       <use style="stroke:#000000;stroke-width:0.5;" x="286.945334091" xlink:href="#md754317b81" y="140.418881297"/>
      </g>
     </g>
     <g id="line2d_260">
      <g>
       <use style="stroke:#000000;stroke-width:0.5;" x="489.854425" xlink:href="#m3af7c8af94" y="140.418881297"/>
      </g>
     </g>
    </g>
    <g id="ytick_54">
     <g id="line2d_261">
      <g>
       <use style="stroke:#000000;stroke-width:0.5;" x="286.945334091" xlink:href="#md754317b81" y="137.913629187"/>
      </g>
     </g>
     <g id="line2d_262">
      <g>
       <use style="stroke:#000000;stroke-width:0.5;" x="489.854425" xlink:href="#m3af7c8af94" y="137.913629187"/>
      </g>
     </g>
    </g>
    <g id="ytick_55">
     <g id="line2d_263">
      <g>
       <use style="stroke:#000000;stroke-width:0.5;" x="286.945334091" xlink:href="#md754317b81" y="135.703840218"/>
      </g>
     </g>
     <g id="line2d_264">
      <g>
       <use style="stroke:#000000;stroke-width:0.5;" x="489.854425" xlink:href="#m3af7c8af94" y="135.703840218"/>
      </g>
     </g>
    </g>
    <g id="ytick_56">
     <g id="line2d_265">
      <g>
       <use style="stroke:#000000;stroke-width:0.5;" x="286.945334091" xlink:href="#md754317b81" y="120.722620813"/>
      </g>
     </g>
     <g id="line2d_266">
      <g>
       <use style="stroke:#000000;stroke-width:0.5;" x="489.854425" xlink:href="#m3af7c8af94" y="120.722620813"/>
      </g>
     </g>
    </g>
    <g id="ytick_57">
     <g id="line2d_267">
      <g>
       <use style="stroke:#000000;stroke-width:0.5;" x="286.945334091" xlink:href="#md754317b81" y="113.115478421"/>
      </g>
     </g>
     <g id="line2d_268">
      <g>
       <use style="stroke:#000000;stroke-width:0.5;" x="489.854425" xlink:href="#m3af7c8af94" y="113.115478421"/>
      </g>
     </g>
    </g>
    <g id="ytick_58">
     <g id="line2d_269">
      <g>
       <use style="stroke:#000000;stroke-width:0.5;" x="286.945334091" xlink:href="#md754317b81" y="107.718125"/>
      </g>
     </g>
     <g id="line2d_270">
      <g>
       <use style="stroke:#000000;stroke-width:0.5;" x="489.854425" xlink:href="#m3af7c8af94" y="107.718125"/>
      </g>
     </g>
    </g>
    <g id="ytick_59">
     <g id="line2d_271">
      <g>
       <use style="stroke:#000000;stroke-width:0.5;" x="286.945334091" xlink:href="#md754317b81" y="103.531612438"/>
      </g>
     </g>
     <g id="line2d_272">
      <g>
       <use style="stroke:#000000;stroke-width:0.5;" x="489.854425" xlink:href="#m3af7c8af94" y="103.531612438"/>
      </g>
     </g>
    </g>
    <g id="ytick_60">
     <g id="line2d_273">
      <g>
       <use style="stroke:#000000;stroke-width:0.5;" x="286.945334091" xlink:href="#md754317b81" y="100.110982609"/>
      </g>
     </g>
     <g id="line2d_274">
      <g>
       <use style="stroke:#000000;stroke-width:0.5;" x="489.854425" xlink:href="#m3af7c8af94" y="100.110982609"/>
      </g>
     </g>
    </g>
    <g id="ytick_61">
     <g id="line2d_275">
      <g>
       <use style="stroke:#000000;stroke-width:0.5;" x="286.945334091" xlink:href="#md754317b81" y="97.2188812968"/>
      </g>
     </g>
     <g id="line2d_276">
      <g>
       <use style="stroke:#000000;stroke-width:0.5;" x="489.854425" xlink:href="#m3af7c8af94" y="97.2188812968"/>
      </g>
     </g>
    </g>
    <g id="ytick_62">
     <g id="line2d_277">
      <g>
       <use style="stroke:#000000;stroke-width:0.5;" x="286.945334091" xlink:href="#md754317b81" y="94.7136291873"/>
      </g>
     </g>
     <g id="line2d_278">
      <g>
       <use style="stroke:#000000;stroke-width:0.5;" x="489.854425" xlink:href="#m3af7c8af94" y="94.7136291873"/>
      </g>
     </g>
    </g>
    <g id="ytick_63">
     <g id="line2d_279">
      <g>
       <use style="stroke:#000000;stroke-width:0.5;" x="286.945334091" xlink:href="#md754317b81" y="92.5038402176"/>
      </g>
     </g>
     <g id="line2d_280">
      <g>
       <use style="stroke:#000000;stroke-width:0.5;" x="489.854425" xlink:href="#m3af7c8af94" y="92.5038402176"/>
      </g>
     </g>
    </g>
    <g id="ytick_64">
     <g id="line2d_281">
      <g>
       <use style="stroke:#000000;stroke-width:0.5;" x="286.945334091" xlink:href="#md754317b81" y="77.5226208127"/>
      </g>
     </g>
     <g id="line2d_282">
      <g>
       <use style="stroke:#000000;stroke-width:0.5;" x="489.854425" xlink:href="#m3af7c8af94" y="77.5226208127"/>
      </g>
     </g>
    </g>
    <g id="ytick_65">
     <g id="line2d_283">
      <g>
       <use style="stroke:#000000;stroke-width:0.5;" x="286.945334091" xlink:href="#md754317b81" y="69.9154784215"/>
      </g>
     </g>
     <g id="line2d_284">
      <g>
       <use style="stroke:#000000;stroke-width:0.5;" x="489.854425" xlink:href="#m3af7c8af94" y="69.9154784215"/>
      </g>
     </g>
    </g>
    <g id="ytick_66">
     <g id="line2d_285">
      <g>
       <use style="stroke:#000000;stroke-width:0.5;" x="286.945334091" xlink:href="#md754317b81" y="64.518125"/>
      </g>
     </g>
     <g id="line2d_286">
      <g>
       <use style="stroke:#000000;stroke-width:0.5;" x="489.854425" xlink:href="#m3af7c8af94" y="64.518125"/>
      </g>
     </g>
    </g>
    <g id="ytick_67">
     <g id="line2d_287">
      <g>
       <use style="stroke:#000000;stroke-width:0.5;" x="286.945334091" xlink:href="#md754317b81" y="60.3316124381"/>
      </g>
     </g>
     <g id="line2d_288">
      <g>
       <use style="stroke:#000000;stroke-width:0.5;" x="489.854425" xlink:href="#m3af7c8af94" y="60.3316124381"/>
      </g>
     </g>
    </g>
    <g id="ytick_68">
     <g id="line2d_289">
      <g>
       <use style="stroke:#000000;stroke-width:0.5;" x="286.945334091" xlink:href="#md754317b81" y="56.9109826088"/>
      </g>
     </g>
     <g id="line2d_290">
      <g>
       <use style="stroke:#000000;stroke-width:0.5;" x="489.854425" xlink:href="#m3af7c8af94" y="56.9109826088"/>
      </g>
     </g>
    </g>
    <g id="ytick_69">
     <g id="line2d_291">
      <g>
       <use style="stroke:#000000;stroke-width:0.5;" x="286.945334091" xlink:href="#md754317b81" y="54.0188812968"/>
      </g>
     </g>
     <g id="line2d_292">
      <g>
       <use style="stroke:#000000;stroke-width:0.5;" x="489.854425" xlink:href="#m3af7c8af94" y="54.0188812968"/>
      </g>
     </g>
    </g>
    <g id="ytick_70">
     <g id="line2d_293">
      <g>
       <use style="stroke:#000000;stroke-width:0.5;" x="286.945334091" xlink:href="#md754317b81" y="51.5136291873"/>
      </g>
     </g>
     <g id="line2d_294">
      <g>
       <use style="stroke:#000000;stroke-width:0.5;" x="489.854425" xlink:href="#m3af7c8af94" y="51.5136291873"/>
      </g>
     </g>
    </g>
    <g id="ytick_71">
     <g id="line2d_295">
      <g>
       <use style="stroke:#000000;stroke-width:0.5;" x="286.945334091" xlink:href="#md754317b81" y="49.3038402176"/>
      </g>
     </g>
     <g id="line2d_296">
      <g>
       <use style="stroke:#000000;stroke-width:0.5;" x="489.854425" xlink:href="#m3af7c8af94" y="49.3038402176"/>
      </g>
     </g>
    </g>
    <g id="ytick_72">
     <g id="line2d_297">
      <g>
       <use style="stroke:#000000;stroke-width:0.5;" x="286.945334091" xlink:href="#md754317b81" y="34.3226208127"/>
      </g>
     </g>
     <g id="line2d_298">
      <g>
       <use style="stroke:#000000;stroke-width:0.5;" x="489.854425" xlink:href="#m3af7c8af94" y="34.3226208127"/>
      </g>
     </g>
    </g>
    <g id="ytick_73">
     <g id="line2d_299">
      <g>
       <use style="stroke:#000000;stroke-width:0.5;" x="286.945334091" xlink:href="#md754317b81" y="26.7154784215"/>
      </g>
     </g>
     <g id="line2d_300">
      <g>
       <use style="stroke:#000000;stroke-width:0.5;" x="489.854425" xlink:href="#m3af7c8af94" y="26.7154784215"/>
      </g>
     </g>
    </g>
    <g id="ytick_74">
     <g id="line2d_301">
      <g>
       <use style="stroke:#000000;stroke-width:0.5;" x="286.945334091" xlink:href="#md754317b81" y="21.318125"/>
      </g>
     </g>
     <g id="line2d_302">
      <g>
       <use style="stroke:#000000;stroke-width:0.5;" x="489.854425" xlink:href="#m3af7c8af94" y="21.318125"/>
      </g>
     </g>
    </g>
   </g>
   <g id="text_24">
    <!-- Large Particles -->
    <defs>
     <path d="M 45.40625 27.984375 
Q 45.40625 37.75 41.375 43.109375 
Q 37.359375 48.484375 30.078125 48.484375 
Q 22.859375 48.484375 18.828125 43.109375 
Q 14.796875 37.75 14.796875 27.984375 
Q 14.796875 18.265625 18.828125 12.890625 
Q 22.859375 7.515625 30.078125 7.515625 
Q 37.359375 7.515625 41.375 12.890625 
Q 45.40625 18.265625 45.40625 27.984375 
M 54.390625 6.78125 
Q 54.390625 -7.171875 48.1875 -13.984375 
Q 42 -20.796875 29.203125 -20.796875 
Q 24.46875 -20.796875 20.265625 -20.09375 
Q 16.0625 -19.390625 12.109375 -17.921875 
L 12.109375 -9.1875 
Q 16.0625 -11.328125 19.921875 -12.34375 
Q 23.78125 -13.375 27.78125 -13.375 
Q 36.625 -13.375 41.015625 -8.765625 
Q 45.40625 -4.15625 45.40625 5.171875 
L 45.40625 9.625 
Q 42.625 4.78125 38.28125 2.390625 
Q 33.9375 0 27.875 0 
Q 17.828125 0 11.671875 7.65625 
Q 5.515625 15.328125 5.515625 27.984375 
Q 5.515625 40.671875 11.671875 48.328125 
Q 17.828125 56 27.875 56 
Q 33.9375 56 38.28125 53.609375 
Q 42.625 51.21875 45.40625 46.390625 
L 45.40625 54.6875 
L 54.390625 54.6875 
z
" id="BitstreamVeraSans-Roman-67"/>
     <path d="M 9.8125 72.90625 
L 19.671875 72.90625 
L 19.671875 8.296875 
L 55.171875 8.296875 
L 55.171875 0 
L 9.8125 0 
z
" id="BitstreamVeraSans-Roman-4c"/>
    </defs>
    <g transform="translate(343.946442045 16.318125)scale(0.12 -0.12)">
     <use xlink:href="#BitstreamVeraSans-Roman-4c"/>
     <use x="55.712890625" xlink:href="#BitstreamVeraSans-Roman-61"/>
     <use x="116.9921875" xlink:href="#BitstreamVeraSans-Roman-72"/>
     <use x="158.08984375" xlink:href="#BitstreamVeraSans-Roman-67"/>
     <use x="221.56640625" xlink:href="#BitstreamVeraSans-Roman-65"/>
     <use x="283.08984375" xlink:href="#BitstreamVeraSans-Roman-20"/>
     <use x="314.876953125" xlink:href="#BitstreamVeraSans-Roman-50"/>
     <use x="375.1171875" xlink:href="#BitstreamVeraSans-Roman-61"/>
     <use x="436.396484375" xlink:href="#BitstreamVeraSans-Roman-72"/>
     <use x="477.509765625" xlink:href="#BitstreamVeraSans-Roman-74"/>
     <use x="516.71875" xlink:href="#BitstreamVeraSans-Roman-69"/>
     <use x="544.501953125" xlink:href="#BitstreamVeraSans-Roman-63"/>
     <use x="599.482421875" xlink:href="#BitstreamVeraSans-Roman-6c"/>
     <use x="627.265625" xlink:href="#BitstreamVeraSans-Roman-65"/>
     <use x="688.7890625" xlink:href="#BitstreamVeraSans-Roman-73"/>
    </g>
   </g>
  </g>
 </g>
 <defs>
  <clipPath id="p21836cde58">
   <rect height="172.8" width="202.909090909" x="43.454425" y="21.318125"/>
  </clipPath>
  <clipPath id="p3d46c3bc75">
   <rect height="172.8" width="202.909090909" x="286.945334091" y="21.318125"/>
  </clipPath>
 </defs>
</svg>
