<?xml version="1.0" encoding="utf-8" standalone="no"?>
<!DOCTYPE svg PUBLIC "-//W3C//DTD SVG 1.1//EN"
  "http://www.w3.org/Graphics/SVG/1.1/DTD/svg11.dtd">
<!-- Created with matplotlib (http://matplotlib.org/) -->
<svg height="144pt" version="1.1" viewBox="0 0 196 144" width="196pt" xmlns="http://www.w3.org/2000/svg" xmlns:xlink="http://www.w3.org/1999/xlink">
 <defs>
  <style type="text/css">
*{stroke-linecap:butt;stroke-linejoin:round;}
  </style>
 </defs>
 <g id="figure_1">
  <g id="patch_1">
   <path d="
M0 144.278
L196.478 144.278
L196.478 0
L0 0
z
" style="fill:#ffffff;"/>
  </g>
  <g id="axes_1">
   <g id="patch_2">
    <path d="
M21.8781 122.4
L189.278 122.4
L189.278 7.2
L21.8781 7.2
z
" style="fill:#ffffff;"/>
   </g>
   <g id="line2d_1">
    <path clip-path="url(#p8738ea6d24)" d="
M21.8781 122.4
L69.7067 122.289
L73.0631 122.04
L75.1608 121.691
L76.839 121.219
L78.5172 120.49
L79.7759 119.711
L81.0345 118.676
L82.2932 117.326
L83.5518 115.599
L84.8105 113.43
L86.0691 110.76
L87.3277 107.541
L88.5864 103.737
L89.845 99.3372
L91.5232 92.5823
L93.621 82.9315
L99.9142 52.6199
L101.173 47.9242
L102.432 44.1962
L103.271 42.3352
L104.11 41.021
L104.949 40.2816
L105.368 40.1329
L105.788 40.1329
L106.207 40.2816
L106.627 40.5782
L107.466 41.6078
L108.305 43.1996
L109.144 45.3198
L110.403 49.3916
L111.662 54.365
L113.34 62.0219
L120.053 94.361
L121.731 100.869
L123.409 106.339
L124.668 109.75
L125.926 112.598
L127.185 114.928
L128.444 116.796
L129.702 118.264
L130.961 119.398
L132.219 120.255
L133.478 120.893
L135.156 121.482
L137.254 121.926
L139.771 122.198
L143.547 122.35
L152.358 122.399
L189.278 122.4
L189.278 122.4" style="fill:none;stroke:#377eb8;stroke-linecap:square;stroke-width:2.0;"/>
   </g>
   <g id="line2d_2">
    <path clip-path="url(#p8738ea6d24)" d="
M21.8781 122.4
L55.8616 122.298
L60.8962 122.056
L64.2526 121.677
L66.7699 121.186
L68.8676 120.576
L70.9653 119.721
L72.6435 118.815
L74.3217 117.672
L75.9999 116.254
L77.6781 114.526
L79.3563 112.456
L81.0345 110.022
L82.7127 107.215
L84.8105 103.189
L86.9082 98.6392
L89.4255 92.6371
L96.5578 75.1918
L98.236 71.7409
L99.9142 68.8187
L101.173 67.0453
L102.432 65.6767
L103.271 65.0058
L104.11 64.5367
L104.949 64.2744
L105.788 64.2218
L106.627 64.3794
L107.466 64.7457
L108.305 65.3164
L109.564 66.5423
L110.822 68.185
L112.081 70.2059
L113.759 73.4082
L115.857 78.0481
L118.794 85.2535
L123.829 97.6744
L126.346 103.189
L128.444 107.215
L130.122 110.022
L131.8 112.456
L133.478 114.526
L135.156 116.254
L136.835 117.672
L138.513 118.815
L140.191 119.721
L142.289 120.576
L144.386 121.186
L146.904 121.677
L149.841 122.021
L154.036 122.26
L160.749 122.377
L182.146 122.4
L189.278 122.4
L189.278 122.4" style="fill:none;stroke:#785eaa;stroke-linecap:square;stroke-width:2.0;"/>
   </g>
   <g id="line2d_3">
    <path clip-path="url(#p8738ea6d24)" d="
M21.8781 122.395
L38.6601 122.269
L45.3729 122.009
L49.9879 121.623
L53.7638 121.093
L57.1202 120.385
L60.0571 119.528
L62.5744 118.576
L65.0917 117.391
L67.609 115.944
L70.1262 114.214
L72.6435 112.188
L75.1608 109.866
L78.0977 106.806
L81.4541 102.92
L86.0691 97.1683
L91.1037 90.9657
L94.0405 87.7243
L96.1383 85.7075
L98.236 84.01
L99.9142 82.9183
L101.592 82.0883
L103.271 81.5376
L104.949 81.2781
L106.207 81.2781
L107.886 81.5376
L109.564 82.0883
L111.242 82.9183
L112.92 84.01
L114.598 85.3406
L116.696 87.2982
L119.213 89.9986
L122.57 94.007
L132.219 105.869
L135.156 109.028
L137.674 111.446
L140.191 113.572
L142.708 115.4
L145.225 116.939
L147.743 118.208
L150.26 119.235
L153.197 120.166
L156.134 120.857
L159.49 121.417
L163.686 121.862
L168.72 122.155
L175.853 122.328
L189.278 122.395
L189.278 122.395" style="fill:none;stroke:#b13d76;stroke-linecap:square;stroke-width:2.0;"/>
   </g>
   <g id="line2d_4">
    <path clip-path="url(#p8738ea6d24)" d="
M21.8781 122.077
L29.43 121.698
L35.3037 121.181
L40.3383 120.51
L44.5338 119.744
L48.7293 118.751
L52.5052 117.636
L56.2811 116.293
L60.0571 114.714
L63.833 112.902
L68.0285 110.639
L73.0631 107.648
L87.7473 98.6815
L91.1037 96.9707
L94.0405 95.6918
L96.9774 94.6576
L99.4947 93.991
L102.012 93.5443
L104.529 93.3282
L107.047 93.3479
L109.564 93.603
L112.081 94.0872
L114.598 94.789
L117.535 95.8603
L120.472 97.1712
L123.829 98.911
L128.024 101.351
L135.576 106.079
L141.869 109.915
L146.484 112.469
L150.68 114.524
L154.456 116.129
L158.232 117.498
L162.007 118.637
L166.203 119.655
L170.398 120.443
L175.013 121.085
L180.468 121.607
L186.761 121.978
L189.278 122.077
L189.278 122.077" style="fill:none;stroke:#e41a1c;stroke-linecap:square;stroke-width:2.0;"/>
   </g>
   <g id="patch_3">
    <path d="
M21.8781 7.2
L189.278 7.2" style="fill:none;stroke:#000000;stroke-linecap:square;stroke-linejoin:miter;"/>
   </g>
   <g id="patch_4">
    <path d="
M21.8781 122.4
L189.278 122.4" style="fill:none;stroke:#000000;stroke-linecap:square;stroke-linejoin:miter;"/>
   </g>
   <g id="patch_5">
    <path d="
M21.8781 122.4
L21.8781 7.2" style="fill:none;stroke:#000000;stroke-linecap:square;stroke-linejoin:miter;"/>
   </g>
   <g id="patch_6">
    <path d="
M189.278 122.4
L189.278 7.2" style="fill:none;stroke:#000000;stroke-linecap:square;stroke-linejoin:miter;"/>
   </g>
   <g id="matplotlib.axis_1">
    <g id="text_1">
     <!-- $\left&lt; x^2 \right&gt;$ -->
     <defs>
      <path d="
M29.3906 -23.7812
L11.1875 24.3125
Q10.9844 24.7031 10.9844 25
Q10.9844 25.2031 11.1875 25.7812
L29.3906 73.7812
Q29.7344 75 31.2031 75
Q32.0781 75 32.6406 74.4531
Q33.2031 73.9219 33.2031 73
Q33.2031 72.75 33.1719 72.6094
Q33.1562 72.4688 33.1094 72.3125
L15.0938 25
L33.1094 -22.3125
Q33.1562 -22.4688 33.1719 -22.5781
Q33.2031 -22.7031 33.2031 -23
Q33.2031 -23.875 32.6094 -24.4375
Q32.0312 -25 31.2031 -25
Q29.7344 -25 29.3906 -23.7812" id="Cmsy10-68"/>
      <path d="
M5.60938 -23
Q5.60938 -22.7031 5.8125 -22.3125
L23.6875 25
L5.8125 72.3125
Q5.60938 72.7031 5.60938 73
Q5.60938 73.8281 6.14062 74.4062
Q6.6875 75 7.625 75
Q8.9375 75 9.51562 73.7812
L27.6875 25.7812
Q27.7344 25.5938 27.75 25.4375
Q27.7812 25.2969 27.7812 25
Q27.7812 24.75 27.75 24.6094
Q27.7344 24.4688 27.6875 24.3125
L9.51562 -23.7812
Q8.9375 -25 7.625 -25
Q6.78125 -25 6.1875 -24.4062
Q5.60938 -23.8281 5.60938 -23" id="Cmsy10-69"/>
      <path d="
M4.98438 0
L4.98438 2.6875
Q4.98438 2.9375 5.17188 3.21875
L20.7031 20.4062
Q24.2188 24.2188 26.4062 26.7969
Q28.6094 29.3906 30.75 32.7656
Q32.9062 36.1406 34.1562 39.625
Q35.4062 43.1094 35.4062 47.0156
Q35.4062 51.125 33.8906 54.8594
Q32.375 58.5938 29.375 60.8438
Q26.375 63.0938 22.125 63.0938
Q17.7812 63.0938 14.3125 60.4688
Q10.8438 57.8594 9.42188 53.7188
Q9.8125 53.8125 10.5 53.8125
Q12.75 53.8125 14.3281 52.2969
Q15.9219 50.7812 15.9219 48.3906
Q15.9219 46.0938 14.3281 44.5
Q12.75 42.9219 10.5 42.9219
Q8.15625 42.9219 6.5625 44.5469
Q4.98438 46.1875 4.98438 48.3906
Q4.98438 52.1562 6.39062 55.4375
Q7.8125 58.7344 10.4688 61.2969
Q13.1406 63.875 16.4844 65.2344
Q19.8281 66.6094 23.5781 66.6094
Q29.2969 66.6094 34.2188 64.1875
Q39.1562 61.7656 42.0312 57.3438
Q44.9219 52.9375 44.9219 47.0156
Q44.9219 42.6719 43.0156 38.7656
Q41.1094 34.8594 38.125 31.6562
Q35.1562 28.4688 30.5156 24.4062
Q25.875 20.3594 24.4219 19
L13.0938 8.10938
L22.7031 8.10938
Q29.7812 8.10938 34.5469 8.21875
Q39.3125 8.34375 39.5938 8.59375
Q40.7656 9.85938 42 17.8281
L44.9219 17.8281
L42.0938 0
z
" id="Cmr10-32"/>
      <path d="
M7.8125 2.875
Q9.57812 1.51562 12.7969 1.51562
Q15.9219 1.51562 18.3125 4.51562
Q20.7031 7.51562 21.5781 11.0781
L26.125 28.8125
Q27.2031 33.6406 27.2031 35.4062
Q27.2031 37.8906 25.8125 39.75
Q24.4219 41.6094 21.9219 41.6094
Q18.75 41.6094 15.9688 39.625
Q13.1875 37.6406 11.2812 34.5938
Q9.375 31.5469 8.59375 28.4219
Q8.40625 27.7812 7.8125 27.7812
L6.59375 27.7812
Q5.8125 27.7812 5.8125 28.7188
L5.8125 29
Q6.78125 32.7188 9.125 36.25
Q11.4688 39.7969 14.8594 41.9844
Q18.2656 44.1875 22.125 44.1875
Q25.7812 44.1875 28.7344 42.2344
Q31.6875 40.2812 32.9062 36.9219
Q34.625 39.9844 37.2812 42.0781
Q39.9375 44.1875 43.1094 44.1875
Q45.2656 44.1875 47.5 43.4219
Q49.75 42.6719 51.1719 41.1094
Q52.5938 39.5469 52.5938 37.2031
Q52.5938 34.6719 50.9531 32.8281
Q49.3125 31 46.7812 31
Q45.1719 31 44.0938 32.0312
Q43.0156 33.0625 43.0156 34.625
Q43.0156 36.7188 44.4531 38.2969
Q45.9062 39.8906 47.9062 40.1875
Q46.0938 41.6094 42.9219 41.6094
Q39.7031 41.6094 37.3281 38.625
Q34.9688 35.6406 33.9844 31.9844
L29.5938 14.3125
Q28.5156 10.2969 28.5156 7.71875
Q28.5156 5.17188 29.9531 3.34375
Q31.3906 1.51562 33.7969 1.51562
Q38.4844 1.51562 42.1562 5.64062
Q45.8438 9.76562 47.0156 14.7031
Q47.2188 15.2812 47.7969 15.2812
L49.0312 15.2812
Q49.4219 15.2812 49.6562 15.0156
Q49.9062 14.75 49.9062 14.4062
Q49.9062 14.3125 49.8125 14.1094
Q48.3906 8.15625 43.8438 3.51562
Q39.3125 -1.125 33.5938 -1.125
Q29.9375 -1.125 26.9844 0.84375
Q24.0312 2.82812 22.7969 6.20312
Q21.2344 3.26562 18.4688 1.0625
Q15.7188 -1.125 12.5938 -1.125
Q10.4531 -1.125 8.17188 -0.359375
Q5.90625 0.390625 4.48438 1.95312
Q3.07812 3.51562 3.07812 5.90625
Q3.07812 8.25 4.70312 10.1719
Q6.34375 12.1094 8.79688 12.1094
Q10.4531 12.1094 11.5781 11.1094
Q12.7031 10.1094 12.7031 8.5
Q12.7031 6.39062 11.2969 4.82812
Q9.90625 3.26562 7.8125 2.875" id="Cmmi10-78"/>
     </defs>
     <g transform="translate(95.828125 134.9984375)scale(0.1 -0.1)">
      <use transform="translate(0.0 22.295312499999994)scale(0.902671875)" xlink:href="#Cmsy10-68"/>
      <use transform="translate(35.03962707519531 0.8578124999999943)" xlink:href="#Cmmi10-78"/>
      <use transform="translate(92.11970520019531 43.373437499999994)scale(0.7)" xlink:href="#Cmr10-32"/>
      <use transform="translate(159.1259552001953 22.295312499999994)scale(0.902671875)" xlink:href="#Cmsy10-69"/>
     </g>
    </g>
   </g>
   <g id="matplotlib.axis_2">
    <g id="text_2">
     <!-- $P \left( \left&lt; x^2 \right&gt; \right)$ -->
     <defs>
      <path d="
M6.5 -25
Q5.60938 -25 5.60938 -24.125
Q5.60938 -23.6875 5.8125 -23.4844
Q22.9062 -6.78125 22.9062 25
Q22.9062 56.7812 6 73.2969
Q5.60938 73.5312 5.60938 74.125
Q5.60938 74.4688 5.875 74.7344
Q6.15625 75 6.5 75
L7.42188 75
Q7.71875 75 7.90625 74.8125
Q15.0938 69.1406 19.875 61.0312
Q24.6562 52.9375 26.875 43.75
Q29.1094 34.5781 29.1094 25
Q29.1094 17.9219 27.9062 11.0625
Q26.7031 4.20312 24.0938 -2.45312
Q21.4844 -9.125 17.4844 -14.7656
Q13.4844 -20.4062 7.90625 -24.8125
Q7.71875 -25 7.42188 -25
z
" id="Cmr10-29"/>
      <path d="
M4.89062 0
Q3.90625 0 3.90625 1.3125
Q3.95312 1.5625 4.09375 2.17188
Q4.25 2.78125 4.51562 3.14062
Q4.78125 3.51562 5.17188 3.51562
Q11.2812 3.51562 13.7188 4.20312
Q14.9844 4.64062 15.5781 6.89062
L29.2969 61.8125
Q29.5 62.7969 29.5 63.1875
Q29.5 64.2656 28.3281 64.4062
Q26.4219 64.7969 21.0938 64.7969
Q20.125 64.7969 20.125 66.1094
Q20.1719 66.3594 20.3125 66.9688
Q20.4531 67.5781 20.7188 67.9375
Q21 68.3125 21.3906 68.3125
L55.9062 68.3125
Q60.6406 68.3125 65.0781 66.625
Q69.5312 64.9375 72.3594 61.4688
Q75.2031 58.0156 75.2031 53.0781
Q75.2031 46.7344 70.7344 41.75
Q66.2656 36.7656 59.5938 33.9844
Q52.9375 31.2031 46.6875 31.2031
L30.4219 31.2031
L24.3125 6.5
Q24.125 5.51562 24.125 5.07812
Q24.125 4.6875 24.2344 4.42188
Q24.3594 4.15625 24.5781 4.07812
Q24.8125 4 25.2969 3.90625
Q27.2031 3.51562 32.5156 3.51562
Q33.5 3.51562 33.5 2.20312
Q33.1562 0.78125 32.9531 0.390625
Q32.7656 0 31.7812 0
z

M30.9062 34.1875
L44.9219 34.1875
Q54.6406 34.1875 59.7188 39.4062
Q62.3125 42 63.9375 46.875
Q65.5781 51.7656 65.5781 55.7188
Q65.5781 60.6406 61.8125 62.7188
Q58.0625 64.7969 52.4844 64.7969
L42.9219 64.7969
Q40.1875 64.7969 39.2969 64.3281
Q38.4219 63.875 37.7031 61.375
z
" id="Cmmi10-50"/>
      <path d="
M31 -24.8125
Q25.4375 -20.4062 21.4062 -14.7188
Q17.3906 -9.03125 14.8125 -2.57812
Q12.25 3.85938 10.9844 10.8906
Q9.71875 17.9219 9.71875 25
Q9.71875 32.1719 10.9844 39.2031
Q12.25 46.2344 14.8594 52.7344
Q17.4844 59.2344 21.5312 64.8906
Q25.5938 70.5625 31 74.8125
Q31 75 31.5 75
L32.4219 75
Q32.7188 75 32.9531 74.7344
Q33.2031 74.4688 33.2031 74.125
Q33.2031 73.6875 33.0156 73.4844
Q28.125 68.7031 24.875 63.2344
Q21.625 57.7656 19.6406 51.5781
Q17.6719 45.4062 16.7969 38.7812
Q15.9219 32.1719 15.9219 25
Q15.9219 -6.78125 32.9062 -23.2969
Q33.2031 -23.5781 33.2031 -24.125
Q33.2031 -24.3594 32.9375 -24.6719
Q32.6719 -25 32.4219 -25
L31.5 -25
Q31 -25 31 -24.8125" id="Cmr10-28"/>
     </defs>
     <g transform="translate(14.7984375 81.25)rotate(-90.0)scale(0.1 -0.1)">
      <use transform="translate(0.0 0.8578124999999943)" xlink:href="#Cmmi10-50"/>
      <use transform="translate(64.208984375 22.295312499999994)scale(0.902671875)" xlink:href="#Cmr10-28"/>
      <use transform="translate(99.24861145019531 22.295312499999994)scale(0.902671875)" xlink:href="#Cmsy10-68"/>
      <use transform="translate(134.28823852539062 0.8578124999999943)" xlink:href="#Cmmi10-78"/>
      <use transform="translate(191.36831665039062 43.373437499999994)scale(0.7)" xlink:href="#Cmr10-32"/>
      <use transform="translate(258.37456665039065 22.295312499999994)scale(0.902671875)" xlink:href="#Cmsy10-69"/>
      <use transform="translate(293.41419372558596 22.295312499999994)scale(0.902671875)" xlink:href="#Cmr10-29"/>
     </g>
    </g>
   </g>
   <g id="legend_1">
    <g id="line2d_5">
     <path d="
M125.918 22.9181
L142.718 22.9181" style="fill:none;stroke:#377eb8;stroke-linecap:square;stroke-width:2.0;"/>
    </g>
    <g id="line2d_6"/>
    <g id="text_3">
     <!-- $t=1$ -->
     <defs>
      <path d="
M9.28125 0
L9.28125 3.51562
Q21.7812 3.51562 21.7812 6.6875
L21.7812 59.1875
Q16.6094 56.6875 8.6875 56.6875
L8.6875 60.2031
Q20.9531 60.2031 27.2031 66.6094
L28.6094 66.6094
Q28.9531 66.6094 29.2656 66.3281
Q29.5938 66.0625 29.5938 65.7188
L29.5938 6.6875
Q29.5938 3.51562 42.0938 3.51562
L42.0938 0
z
" id="Cmr10-31"/>
      <path d="
M6.20312 8.10938
Q6.20312 9.57812 6.5 10.8906
L13.7188 39.5938
L3.21875 39.5938
Q2.20312 39.5938 2.20312 40.9219
Q2.59375 43.1094 3.51562 43.1094
L14.5938 43.1094
L18.6094 59.4219
Q19 60.75 20.1719 61.6719
Q21.3438 62.5938 22.7969 62.5938
Q24.0781 62.5938 24.9219 61.8281
Q25.7812 61.0781 25.7812 59.8125
Q25.7812 59.5156 25.75 59.3438
Q25.7344 59.1875 25.6875 58.9844
L21.6875 43.1094
L31.9844 43.1094
Q33.0156 43.1094 33.0156 41.7969
Q32.9531 41.5469 32.8125 40.9531
Q32.6719 40.375 32.4219 39.9844
Q32.1719 39.5938 31.6875 39.5938
L20.7969 39.5938
L13.625 10.6875
Q12.8906 7.85938 12.8906 5.8125
Q12.8906 1.51562 15.8281 1.51562
Q20.2188 1.51562 23.6094 5.64062
Q27 9.76562 28.8125 14.7031
Q29.2031 15.2812 29.5938 15.2812
L30.8125 15.2812
Q31.2031 15.2812 31.4375 15.0156
Q31.6875 14.75 31.6875 14.4062
Q31.6875 14.2031 31.5938 14.1094
Q29.3906 8.0625 25.1875 3.46875
Q21 -1.125 15.5781 -1.125
Q11.625 -1.125 8.90625 1.45312
Q6.20312 4.04688 6.20312 8.10938" id="Cmmi10-74"/>
      <path d="
M7.51562 13.2812
Q6.6875 13.2812 6.14062 13.9062
Q5.60938 14.5469 5.60938 15.2812
Q5.60938 16.1094 6.14062 16.6875
Q6.6875 17.2812 7.51562 17.2812
L70.3125 17.2812
Q71.0469 17.2812 71.5781 16.6875
Q72.125 16.1094 72.125 15.2812
Q72.125 14.5469 71.5781 13.9062
Q71.0469 13.2812 70.3125 13.2812
z

M7.51562 32.7188
Q6.6875 32.7188 6.14062 33.2969
Q5.60938 33.8906 5.60938 34.7188
Q5.60938 35.4531 6.14062 36.0781
Q6.6875 36.7188 7.51562 36.7188
L70.3125 36.7188
Q71.0469 36.7188 71.5781 36.0781
Q72.125 35.4531 72.125 34.7188
Q72.125 33.8906 71.5781 33.2969
Q71.0469 32.7188 70.3125 32.7188
z
" id="Cmr10-3d"/>
     </defs>
     <g transform="translate(155.918125 27.118125)scale(0.12 -0.12)">
      <use transform="translate(0.0 0.390625)" xlink:href="#Cmmi10-74"/>
      <use transform="translate(53.642578125 0.390625)" xlink:href="#Cmr10-3d"/>
      <use transform="translate(137.951171875 0.390625)" xlink:href="#Cmr10-31"/>
     </g>
    </g>
    <g id="line2d_7">
     <path d="
M125.918 40.5319
L142.718 40.5319" style="fill:none;stroke:#785eaa;stroke-linecap:square;stroke-width:2.0;"/>
    </g>
    <g id="line2d_8"/>
    <g id="text_4">
     <!-- $t=2$ -->
     <g transform="translate(155.918125 44.731875)scale(0.12 -0.12)">
      <use transform="translate(0.0 0.390625)" xlink:href="#Cmmi10-74"/>
      <use transform="translate(53.642578125 0.390625)" xlink:href="#Cmr10-3d"/>
      <use transform="translate(137.951171875 0.390625)" xlink:href="#Cmr10-32"/>
     </g>
    </g>
    <g id="line2d_9">
     <path d="
M125.918 58.1456
L142.718 58.1456" style="fill:none;stroke:#b13d76;stroke-linecap:square;stroke-width:2.0;"/>
    </g>
    <g id="line2d_10"/>
    <g id="text_5">
     <!-- $t=4$ -->
     <defs>
      <path d="
M2.78125 16.5
L2.78125 20.0156
L33.6875 66.1094
Q34.0312 66.6094 34.7188 66.6094
L36.1875 66.6094
Q37.3125 66.6094 37.3125 65.4844
L37.3125 20.0156
L47.125 20.0156
L47.125 16.5
L37.3125 16.5
L37.3125 6.6875
Q37.3125 4.64062 40.2344 4.07812
Q43.1719 3.51562 47.0156 3.51562
L47.0156 0
L19.4844 0
L19.4844 3.51562
Q23.3438 3.51562 26.2656 4.07812
Q29.2031 4.64062 29.2031 6.6875
L29.2031 16.5
z

M6.10938 20.0156
L29.7812 20.0156
L29.7812 55.4219
z
" id="Cmr10-34"/>
     </defs>
     <g transform="translate(155.918125 62.345625)scale(0.12 -0.12)">
      <use transform="translate(0.0 0.390625)" xlink:href="#Cmmi10-74"/>
      <use transform="translate(53.642578125 0.390625)" xlink:href="#Cmr10-3d"/>
      <use transform="translate(137.951171875 0.390625)" xlink:href="#Cmr10-34"/>
     </g>
    </g>
    <g id="line2d_11">
     <path d="
M125.918 75.7594
L142.718 75.7594" style="fill:none;stroke:#e41a1c;stroke-linecap:square;stroke-width:2.0;"/>
    </g>
    <g id="line2d_12"/>
    <g id="text_6">
     <!-- $t=8$ -->
     <defs>
      <path d="
M4.20312 15.1875
Q4.20312 21.1875 8.15625 25.7969
Q12.1094 30.4219 18.3125 33.5
L14.5938 35.8906
Q11.1875 38.1406 9.03125 41.875
Q6.89062 45.6094 6.89062 49.7031
Q6.89062 54.5 9.40625 58.3438
Q11.9219 62.2031 16.0938 64.4062
Q20.2656 66.6094 25 66.6094
Q29.4375 66.6094 33.5625 64.7969
Q37.7031 62.9844 40.3594 59.6094
Q43.0156 56.25 43.0156 51.6094
Q43.0156 48.25 41.4219 45.3594
Q39.8438 42.4844 37.0781 40.1875
Q34.3281 37.8906 31.2031 36.2812
L36.9219 32.625
Q40.875 30.0312 43.2812 25.8281
Q45.7031 21.625 45.7031 17
Q45.7031 11.5781 42.7969 7.125
Q39.8906 2.6875 35.1094 0.234375
Q30.3281 -2.20312 25 -2.20312
Q19.8281 -2.20312 15.0156 -0.09375
Q10.2031 2 7.20312 5.98438
Q4.20312 9.96875 4.20312 15.1875
M9.625 15.1875
Q9.625 11.2344 11.7969 7.95312
Q13.9688 4.6875 17.5312 2.82812
Q21.0938 0.984375 25 0.984375
Q30.8125 0.984375 35.5469 4.375
Q40.2812 7.76562 40.2812 13.375
Q40.2812 15.2812 39.5156 17.1562
Q38.7656 19.0469 37.4219 20.5781
Q36.0781 22.125 34.4219 23.0938
L21 31.7812
Q17.875 30.125 15.25 27.5781
Q12.6406 25.0469 11.125 21.875
Q9.625 18.7031 9.625 15.1875
M16.5 45.7031
L28.6094 37.8906
Q32.8125 40.3281 35.5 43.7969
Q38.1875 47.2656 38.1875 51.6094
Q38.1875 54.9844 36.2969 57.7812
Q34.4219 60.5938 31.3906 62.1562
Q28.375 63.7188 24.9062 63.7188
Q21.875 63.7188 18.7969 62.5469
Q15.7188 61.375 13.7188 59.0469
Q11.7188 56.7344 11.7188 53.6094
Q11.7188 48.9219 16.5 45.7031" id="Cmr10-38"/>
     </defs>
     <g transform="translate(155.918125 79.959375)scale(0.12 -0.12)">
      <use transform="translate(0.0 0.390625)" xlink:href="#Cmmi10-74"/>
      <use transform="translate(53.642578125 0.390625)" xlink:href="#Cmr10-3d"/>
      <use transform="translate(137.951171875 0.390625)" xlink:href="#Cmr10-38"/>
     </g>
    </g>
   </g>
  </g>
 </g>
 <defs>
  <clipPath id="p8738ea6d24">
   <rect height="115.2" width="167.4" x="21.878125" y="7.2"/>
  </clipPath>
 </defs>
</svg>
