<?xml version="1.0" encoding="utf-8" standalone="no"?>
<!DOCTYPE svg PUBLIC "-//W3C//DTD SVG 1.1//EN"
  "http://www.w3.org/Graphics/SVG/1.1/DTD/svg11.dtd">
<!-- Created with matplotlib (http://matplotlib.org/) -->
<svg height="158pt" version="1.1" viewBox="0 0 422 158" width="422pt" xmlns="http://www.w3.org/2000/svg" xmlns:xlink="http://www.w3.org/1999/xlink">
 <defs>
  <style type="text/css">
*{stroke-linecap:butt;stroke-linejoin:round;stroke-miterlimit:100000;}
  </style>
 </defs>
 <g id="figure_1">
  <g id="patch_1">
   <path d="M 0 158.691614 
L 422.425822 158.691614 
L 422.425822 0 
L 0 0 
z
" style="fill:#ffffff;"/>
  </g>
  <g id="axes_1">
   <g id="patch_2">
    <path d="M 50.247228 124.295014 
L 197.886525 124.295014 
L 197.886525 11.230939 
L 50.247228 11.230939 
z
" style="fill:#ffffff;"/>
   </g>
   <g id="LineCollection_1">
    <path clip-path="url(#p54bf52537f)" d="M 104.390366 98.586866 
L 104.390366 76.557219 
" style="fill:none;stroke:#e41a1c;stroke-width:2.0;"/>
    <path clip-path="url(#p54bf52537f)" d="M 118.568262 109.574042 
L 118.568262 73.939453 
" style="fill:none;stroke:#e41a1c;stroke-width:2.0;"/>
    <path clip-path="url(#p54bf52537f)" d="M 138.550883 37.356821 
L 138.550883 14.165011 
" style="fill:none;stroke:#e41a1c;stroke-width:2.0;"/>
    <path clip-path="url(#p54bf52537f)" d="M 152.728778 33.567314 
L 152.728778 14.173616 
" style="fill:none;stroke:#e41a1c;stroke-width:2.0;"/>
    <path clip-path="url(#p54bf52537f)" d="M 163.726008 37.925508 
L 163.726008 14.918716 
" style="fill:none;stroke:#e41a1c;stroke-width:2.0;"/>
    <path clip-path="url(#p54bf52537f)" d="M 186.889295 37.638007 
L 186.889295 16.638207 
" style="fill:none;stroke:#e41a1c;stroke-width:2.0;"/>
   </g>
   <g id="line2d_1">
    <defs>
     <path d="M 3 0 
L -3 -0 
" id="m36a01df9bb" style="stroke:#e41a1c;stroke-width:0.5;"/>
    </defs>
    <g clip-path="url(#p54bf52537f)">
     <use style="fill:#e41a1c;stroke:#e41a1c;stroke-width:0.5;" x="104.390366105" xlink:href="#m36a01df9bb" y="98.5868663578"/>
     <use style="fill:#e41a1c;stroke:#e41a1c;stroke-width:0.5;" x="118.568261531" xlink:href="#m36a01df9bb" y="109.574041867"/>
     <use style="fill:#e41a1c;stroke:#e41a1c;stroke-width:0.5;" x="138.550882808" xlink:href="#m36a01df9bb" y="37.3568212917"/>
     <use style="fill:#e41a1c;stroke:#e41a1c;stroke-width:0.5;" x="152.728778234" xlink:href="#m36a01df9bb" y="33.567314086"/>
     <use style="fill:#e41a1c;stroke:#e41a1c;stroke-width:0.5;" x="163.726008297" xlink:href="#m36a01df9bb" y="37.9255076371"/>
     <use style="fill:#e41a1c;stroke:#e41a1c;stroke-width:0.5;" x="186.889294937" xlink:href="#m36a01df9bb" y="37.6380068441"/>
    </g>
   </g>
   <g id="line2d_2">
    <g clip-path="url(#p54bf52537f)">
     <use style="fill:#e41a1c;stroke:#e41a1c;stroke-width:0.5;" x="104.390366105" xlink:href="#m36a01df9bb" y="76.5572185151"/>
     <use style="fill:#e41a1c;stroke:#e41a1c;stroke-width:0.5;" x="118.568261531" xlink:href="#m36a01df9bb" y="73.9394527478"/>
     <use style="fill:#e41a1c;stroke:#e41a1c;stroke-width:0.5;" x="138.550882808" xlink:href="#m36a01df9bb" y="14.1650110697"/>
     <use style="fill:#e41a1c;stroke:#e41a1c;stroke-width:0.5;" x="152.728778234" xlink:href="#m36a01df9bb" y="14.1736163525"/>
     <use style="fill:#e41a1c;stroke:#e41a1c;stroke-width:0.5;" x="163.726008297" xlink:href="#m36a01df9bb" y="14.9187156674"/>
     <use style="fill:#e41a1c;stroke:#e41a1c;stroke-width:0.5;" x="186.889294937" xlink:href="#m36a01df9bb" y="16.6382066522"/>
    </g>
   </g>
   <g id="line2d_3">
    <path clip-path="url(#p54bf52537f)" d="M 104.390366 87.572042 
L 118.568262 91.756747 
L 138.550883 25.760916 
L 152.728778 23.870465 
L 163.726008 26.422112 
L 186.889295 27.138107 
" style="fill:none;stroke:#e41a1c;stroke-linecap:square;stroke-width:2.0;"/>
    <defs>
     <path d="M 0 1.5 
C 0.397805 1.5 0.77937 1.341951 1.06066 1.06066 
C 1.341951 0.77937 1.5 0.397805 1.5 0 
C 1.5 -0.397805 1.341951 -0.77937 1.06066 -1.06066 
C 0.77937 -1.341951 0.397805 -1.5 0 -1.5 
C -0.397805 -1.5 -0.77937 -1.341951 -1.06066 -1.06066 
C -1.341951 -0.77937 -1.5 -0.397805 -1.5 0 
C -1.5 0.397805 -1.341951 0.77937 -1.06066 1.06066 
C -0.77937 1.341951 -0.397805 1.5 0 1.5 
z
" id="mddebc73899" style="stroke:#e41a1c;stroke-width:0.5;"/>
    </defs>
    <g clip-path="url(#p54bf52537f)">
     <use style="fill:#e41a1c;stroke:#e41a1c;stroke-width:0.5;" x="104.390366105" xlink:href="#mddebc73899" y="87.5720424365"/>
     <use style="fill:#e41a1c;stroke:#e41a1c;stroke-width:0.5;" x="118.568261531" xlink:href="#mddebc73899" y="91.7567473073"/>
     <use style="fill:#e41a1c;stroke:#e41a1c;stroke-width:0.5;" x="138.550882808" xlink:href="#mddebc73899" y="25.7609161807"/>
     <use style="fill:#e41a1c;stroke:#e41a1c;stroke-width:0.5;" x="152.728778234" xlink:href="#mddebc73899" y="23.8704652192"/>
     <use style="fill:#e41a1c;stroke:#e41a1c;stroke-width:0.5;" x="163.726008297" xlink:href="#mddebc73899" y="26.4221116523"/>
     <use style="fill:#e41a1c;stroke:#e41a1c;stroke-width:0.5;" x="186.889294937" xlink:href="#mddebc73899" y="27.1381067482"/>
    </g>
   </g>
   <g id="patch_3">
    <path d="M 50.247228 11.230939 
L 197.886525 11.230939 
" style="fill:none;stroke:#000000;stroke-linecap:square;stroke-linejoin:miter;"/>
   </g>
   <g id="patch_4">
    <path d="M 50.247228 124.295014 
L 197.886525 124.295014 
" style="fill:none;stroke:#000000;stroke-linecap:square;stroke-linejoin:miter;"/>
   </g>
   <g id="patch_5">
    <path d="M 50.247228 124.295014 
L 50.247228 11.230939 
" style="fill:none;stroke:#000000;stroke-linecap:square;stroke-linejoin:miter;"/>
   </g>
   <g id="patch_6">
    <path d="M 197.886525 124.295014 
L 197.886525 11.230939 
" style="fill:none;stroke:#000000;stroke-linecap:square;stroke-linejoin:miter;"/>
   </g>
   <g id="matplotlib.axis_1">
    <g id="xtick_1">
     <g id="line2d_4">
      <defs>
       <path d="M 0 0 
L 0 -4 
" id="m8d9d39dd13" style="stroke:#000000;stroke-width:0.5;"/>
      </defs>
      <g>
       <use style="stroke:#000000;stroke-width:0.5;" x="50.247228125" xlink:href="#m8d9d39dd13" y="124.295014063"/>
      </g>
     </g>
     <g id="line2d_5">
      <defs>
       <path d="M 0 0 
L 0 4 
" id="m409f994fe7" style="stroke:#000000;stroke-width:0.5;"/>
      </defs>
      <g>
       <use style="stroke:#000000;stroke-width:0.5;" x="50.247228125" xlink:href="#m409f994fe7" y="11.2309390625"/>
      </g>
     </g>
     <g id="text_1">
      <!-- $\mathdefault{10^{1}}$ -->
      <defs>
       <path d="M 31.78125 66.40625 
Q 24.171875 66.40625 20.328125 58.90625 
Q 16.5 51.421875 16.5 36.375 
Q 16.5 21.390625 20.328125 13.890625 
Q 24.171875 6.390625 31.78125 6.390625 
Q 39.453125 6.390625 43.28125 13.890625 
Q 47.125 21.390625 47.125 36.375 
Q 47.125 51.421875 43.28125 58.90625 
Q 39.453125 66.40625 31.78125 66.40625 
M 31.78125 74.21875 
Q 44.046875 74.21875 50.515625 64.515625 
Q 56.984375 54.828125 56.984375 36.375 
Q 56.984375 17.96875 50.515625 8.265625 
Q 44.046875 -1.421875 31.78125 -1.421875 
Q 19.53125 -1.421875 13.0625 8.265625 
Q 6.59375 17.96875 6.59375 36.375 
Q 6.59375 54.828125 13.0625 64.515625 
Q 19.53125 74.21875 31.78125 74.21875 
" id="BitstreamVeraSans-Roman-30"/>
       <path d="M 12.40625 8.296875 
L 28.515625 8.296875 
L 28.515625 63.921875 
L 10.984375 60.40625 
L 10.984375 69.390625 
L 28.421875 72.90625 
L 38.28125 72.90625 
L 38.28125 8.296875 
L 54.390625 8.296875 
L 54.390625 0 
L 12.40625 0 
z
" id="BitstreamVeraSans-Roman-31"/>
      </defs>
      <g transform="translate(42.500328125 134.975934375)scale(0.0833 -0.0833)">
       <use transform="translate(0.0 0.7156250000000028)" xlink:href="#BitstreamVeraSans-Roman-31"/>
       <use transform="translate(63.623046875 0.7156250000000028)" xlink:href="#BitstreamVeraSans-Roman-30"/>
       <use transform="translate(132.75859375 47.965625)scale(0.7)" xlink:href="#BitstreamVeraSans-Roman-31"/>
      </g>
     </g>
    </g>
    <g id="xtick_2">
     <g id="line2d_6">
      <g>
       <use style="stroke:#000000;stroke-width:0.5;" x="163.726008297" xlink:href="#m8d9d39dd13" y="124.295014063"/>
      </g>
     </g>
     <g id="line2d_7">
      <g>
       <use style="stroke:#000000;stroke-width:0.5;" x="163.726008297" xlink:href="#m409f994fe7" y="11.2309390625"/>
      </g>
     </g>
     <g id="text_2">
      <!-- $\mathdefault{10^{2}}$ -->
      <defs>
       <path d="M 19.1875 8.296875 
L 53.609375 8.296875 
L 53.609375 0 
L 7.328125 0 
L 7.328125 8.296875 
Q 12.9375 14.109375 22.625 23.890625 
Q 32.328125 33.6875 34.8125 36.53125 
Q 39.546875 41.84375 41.421875 45.53125 
Q 43.3125 49.21875 43.3125 52.78125 
Q 43.3125 58.59375 39.234375 62.25 
Q 35.15625 65.921875 28.609375 65.921875 
Q 23.96875 65.921875 18.8125 64.3125 
Q 13.671875 62.703125 7.8125 59.421875 
L 7.8125 69.390625 
Q 13.765625 71.78125 18.9375 73 
Q 24.125 74.21875 28.421875 74.21875 
Q 39.75 74.21875 46.484375 68.546875 
Q 53.21875 62.890625 53.21875 53.421875 
Q 53.21875 48.921875 51.53125 44.890625 
Q 49.859375 40.875 45.40625 35.40625 
Q 44.1875 33.984375 37.640625 27.21875 
Q 31.109375 20.453125 19.1875 8.296875 
" id="BitstreamVeraSans-Roman-32"/>
      </defs>
      <g transform="translate(155.979108297 135.059234375)scale(0.0833 -0.0833)">
       <use transform="translate(0.0 0.796875)" xlink:href="#BitstreamVeraSans-Roman-31"/>
       <use transform="translate(63.623046875 0.796875)" xlink:href="#BitstreamVeraSans-Roman-30"/>
       <use transform="translate(132.75859375 48.046875)scale(0.7)" xlink:href="#BitstreamVeraSans-Roman-32"/>
      </g>
     </g>
    </g>
    <g id="xtick_3">
     <g id="line2d_8">
      <defs>
       <path d="M 0 0 
L 0 -2 
" id="mb0e9fcc477" style="stroke:#000000;stroke-width:0.5;"/>
      </defs>
      <g>
       <use style="stroke:#000000;stroke-width:0.5;" x="84.4077448281" xlink:href="#mb0e9fcc477" y="124.295014063"/>
      </g>
     </g>
     <g id="line2d_9">
      <defs>
       <path d="M 0 0 
L 0 2 
" id="m36a45397dd" style="stroke:#000000;stroke-width:0.5;"/>
      </defs>
      <g>
       <use style="stroke:#000000;stroke-width:0.5;" x="84.4077448281" xlink:href="#m36a45397dd" y="11.2309390625"/>
      </g>
     </g>
    </g>
    <g id="xtick_4">
     <g id="line2d_10">
      <g>
       <use style="stroke:#000000;stroke-width:0.5;" x="104.390366105" xlink:href="#mb0e9fcc477" y="124.295014063"/>
      </g>
     </g>
     <g id="line2d_11">
      <g>
       <use style="stroke:#000000;stroke-width:0.5;" x="104.390366105" xlink:href="#m36a45397dd" y="11.2309390625"/>
      </g>
     </g>
    </g>
    <g id="xtick_5">
     <g id="line2d_12">
      <g>
       <use style="stroke:#000000;stroke-width:0.5;" x="118.568261531" xlink:href="#mb0e9fcc477" y="124.295014063"/>
      </g>
     </g>
     <g id="line2d_13">
      <g>
       <use style="stroke:#000000;stroke-width:0.5;" x="118.568261531" xlink:href="#m36a45397dd" y="11.2309390625"/>
      </g>
     </g>
    </g>
    <g id="xtick_6">
     <g id="line2d_14">
      <g>
       <use style="stroke:#000000;stroke-width:0.5;" x="129.565491594" xlink:href="#mb0e9fcc477" y="124.295014063"/>
      </g>
     </g>
     <g id="line2d_15">
      <g>
       <use style="stroke:#000000;stroke-width:0.5;" x="129.565491594" xlink:href="#m36a45397dd" y="11.2309390625"/>
      </g>
     </g>
    </g>
    <g id="xtick_7">
     <g id="line2d_16">
      <g>
       <use style="stroke:#000000;stroke-width:0.5;" x="138.550882808" xlink:href="#mb0e9fcc477" y="124.295014063"/>
      </g>
     </g>
     <g id="line2d_17">
      <g>
       <use style="stroke:#000000;stroke-width:0.5;" x="138.550882808" xlink:href="#m36a45397dd" y="11.2309390625"/>
      </g>
     </g>
    </g>
    <g id="xtick_8">
     <g id="line2d_18">
      <g>
       <use style="stroke:#000000;stroke-width:0.5;" x="146.147922831" xlink:href="#mb0e9fcc477" y="124.295014063"/>
      </g>
     </g>
     <g id="line2d_19">
      <g>
       <use style="stroke:#000000;stroke-width:0.5;" x="146.147922831" xlink:href="#m36a45397dd" y="11.2309390625"/>
      </g>
     </g>
    </g>
    <g id="xtick_9">
     <g id="line2d_20">
      <g>
       <use style="stroke:#000000;stroke-width:0.5;" x="152.728778234" xlink:href="#mb0e9fcc477" y="124.295014063"/>
      </g>
     </g>
     <g id="line2d_21">
      <g>
       <use style="stroke:#000000;stroke-width:0.5;" x="152.728778234" xlink:href="#m36a45397dd" y="11.2309390625"/>
      </g>
     </g>
    </g>
    <g id="xtick_10">
     <g id="line2d_22">
      <g>
       <use style="stroke:#000000;stroke-width:0.5;" x="158.533504084" xlink:href="#mb0e9fcc477" y="124.295014063"/>
      </g>
     </g>
     <g id="line2d_23">
      <g>
       <use style="stroke:#000000;stroke-width:0.5;" x="158.533504084" xlink:href="#m36a45397dd" y="11.2309390625"/>
      </g>
     </g>
    </g>
    <g id="xtick_11">
     <g id="line2d_24">
      <g>
       <use style="stroke:#000000;stroke-width:0.5;" x="197.886525" xlink:href="#mb0e9fcc477" y="124.295014063"/>
      </g>
     </g>
     <g id="line2d_25">
      <g>
       <use style="stroke:#000000;stroke-width:0.5;" x="197.886525" xlink:href="#m36a45397dd" y="11.2309390625"/>
      </g>
     </g>
    </g>
    <g id="text_3">
     <!-- $N$ (system size) -->
     <defs>
      <path id="BitstreamVeraSans-Roman-20"/>
      <path d="M 8.015625 75.875 
L 15.828125 75.875 
Q 23.140625 64.359375 26.78125 53.3125 
Q 30.421875 42.28125 30.421875 31.390625 
Q 30.421875 20.453125 26.78125 9.375 
Q 23.140625 -1.703125 15.828125 -13.1875 
L 8.015625 -13.1875 
Q 14.5 -2 17.703125 9.0625 
Q 20.90625 20.125 20.90625 31.390625 
Q 20.90625 42.671875 17.703125 53.65625 
Q 14.5 64.65625 8.015625 75.875 
" id="BitstreamVeraSans-Roman-29"/>
      <path d="M 4.6875 0 
Q 3.71875 0 3.71875 1.3125 
Q 3.765625 1.5625 3.90625 2.171875 
Q 4.046875 2.78125 4.3125 3.140625 
Q 4.59375 3.515625 4.984375 3.515625 
Q 14.546875 3.515625 16.109375 9.625 
L 29.6875 64.3125 
Q 26.90625 64.796875 20.90625 64.796875 
Q 19.921875 64.796875 19.921875 66.109375 
Q 19.96875 66.359375 20.109375 66.96875 
Q 20.265625 67.578125 20.53125 67.9375 
Q 20.796875 68.3125 21.1875 68.3125 
L 38.484375 68.3125 
Q 39.203125 68.3125 39.40625 67.671875 
L 61.625 14.796875 
L 72.703125 59.078125 
Q 72.90625 60.15625 72.90625 60.59375 
Q 72.90625 64.796875 65.1875 64.796875 
Q 64.203125 64.796875 64.203125 66.109375 
Q 64.546875 67.390625 64.734375 67.84375 
Q 64.9375 68.3125 65.921875 68.3125 
L 87.3125 68.3125 
Q 88.28125 68.3125 88.28125 67 
Q 88.234375 66.75 88.078125 66.140625 
Q 87.9375 65.53125 87.671875 65.15625 
Q 87.40625 64.796875 87.015625 64.796875 
Q 77.4375 64.796875 75.875 58.6875 
L 61.53125 0.875 
Q 61.1875 0 60.5 0 
L 59.28125 0 
Q 58.59375 0 58.40625 0.6875 
L 32.90625 61.1875 
L 32.71875 61.8125 
Q 32.515625 62.015625 32.515625 62.109375 
L 19.28125 9.1875 
Q 19.1875 8.9375 19.140625 8.5625 
Q 19.09375 8.203125 19 7.71875 
Q 19 5.125 21.234375 4.3125 
Q 23.484375 3.515625 26.8125 3.515625 
Q 27.78125 3.515625 27.78125 2.203125 
Q 27.4375 0.828125 27.1875 0.40625 
Q 26.953125 0 26.125 0 
z
" id="Cmmi10-4e"/>
      <path d="M 56.203125 29.59375 
L 56.203125 25.203125 
L 14.890625 25.203125 
Q 15.484375 15.921875 20.484375 11.0625 
Q 25.484375 6.203125 34.421875 6.203125 
Q 39.59375 6.203125 44.453125 7.46875 
Q 49.3125 8.734375 54.109375 11.28125 
L 54.109375 2.78125 
Q 49.265625 0.734375 44.1875 -0.34375 
Q 39.109375 -1.421875 33.890625 -1.421875 
Q 20.796875 -1.421875 13.15625 6.1875 
Q 5.515625 13.8125 5.515625 26.8125 
Q 5.515625 40.234375 12.765625 48.109375 
Q 20.015625 56 32.328125 56 
Q 43.359375 56 49.78125 48.890625 
Q 56.203125 41.796875 56.203125 29.59375 
M 47.21875 32.234375 
Q 47.125 39.59375 43.09375 43.984375 
Q 39.0625 48.390625 32.421875 48.390625 
Q 24.90625 48.390625 20.390625 44.140625 
Q 15.875 39.890625 15.1875 32.171875 
z
" id="BitstreamVeraSans-Roman-65"/>
      <path d="M 9.421875 54.6875 
L 18.40625 54.6875 
L 18.40625 0 
L 9.421875 0 
z
M 9.421875 75.984375 
L 18.40625 75.984375 
L 18.40625 64.59375 
L 9.421875 64.59375 
z
" id="BitstreamVeraSans-Roman-69"/>
      <path d="M 18.3125 70.21875 
L 18.3125 54.6875 
L 36.8125 54.6875 
L 36.8125 47.703125 
L 18.3125 47.703125 
L 18.3125 18.015625 
Q 18.3125 11.328125 20.140625 9.421875 
Q 21.96875 7.515625 27.59375 7.515625 
L 36.8125 7.515625 
L 36.8125 0 
L 27.59375 0 
Q 17.1875 0 13.234375 3.875 
Q 9.28125 7.765625 9.28125 18.015625 
L 9.28125 47.703125 
L 2.6875 47.703125 
L 2.6875 54.6875 
L 9.28125 54.6875 
L 9.28125 70.21875 
z
" id="BitstreamVeraSans-Roman-74"/>
      <path d="M 44.28125 53.078125 
L 44.28125 44.578125 
Q 40.484375 46.53125 36.375 47.5 
Q 32.28125 48.484375 27.875 48.484375 
Q 21.1875 48.484375 17.84375 46.4375 
Q 14.5 44.390625 14.5 40.28125 
Q 14.5 37.15625 16.890625 35.375 
Q 19.28125 33.59375 26.515625 31.984375 
L 29.59375 31.296875 
Q 39.15625 29.25 43.1875 25.515625 
Q 47.21875 21.78125 47.21875 15.09375 
Q 47.21875 7.46875 41.1875 3.015625 
Q 35.15625 -1.421875 24.609375 -1.421875 
Q 20.21875 -1.421875 15.453125 -0.5625 
Q 10.6875 0.296875 5.421875 2 
L 5.421875 11.28125 
Q 10.40625 8.6875 15.234375 7.390625 
Q 20.0625 6.109375 24.8125 6.109375 
Q 31.15625 6.109375 34.5625 8.28125 
Q 37.984375 10.453125 37.984375 14.40625 
Q 37.984375 18.0625 35.515625 20.015625 
Q 33.0625 21.96875 24.703125 23.78125 
L 21.578125 24.515625 
Q 13.234375 26.265625 9.515625 29.90625 
Q 5.8125 33.546875 5.8125 39.890625 
Q 5.8125 47.609375 11.28125 51.796875 
Q 16.75 56 26.8125 56 
Q 31.78125 56 36.171875 55.265625 
Q 40.578125 54.546875 44.28125 53.078125 
" id="BitstreamVeraSans-Roman-73"/>
      <path d="M 5.515625 54.6875 
L 48.1875 54.6875 
L 48.1875 46.484375 
L 14.40625 7.171875 
L 48.1875 7.171875 
L 48.1875 0 
L 4.296875 0 
L 4.296875 8.203125 
L 38.09375 47.515625 
L 5.515625 47.515625 
z
" id="BitstreamVeraSans-Roman-7a"/>
      <path d="M 32.171875 -5.078125 
Q 28.375 -14.84375 24.75 -17.8125 
Q 21.140625 -20.796875 15.09375 -20.796875 
L 7.90625 -20.796875 
L 7.90625 -13.28125 
L 13.1875 -13.28125 
Q 16.890625 -13.28125 18.9375 -11.515625 
Q 21 -9.765625 23.484375 -3.21875 
L 25.09375 0.875 
L 2.984375 54.6875 
L 12.5 54.6875 
L 29.59375 11.921875 
L 46.6875 54.6875 
L 56.203125 54.6875 
z
" id="BitstreamVeraSans-Roman-79"/>
      <path d="M 52 44.1875 
Q 55.375 50.25 60.0625 53.125 
Q 64.75 56 71.09375 56 
Q 79.640625 56 84.28125 50.015625 
Q 88.921875 44.046875 88.921875 33.015625 
L 88.921875 0 
L 79.890625 0 
L 79.890625 32.71875 
Q 79.890625 40.578125 77.09375 44.375 
Q 74.3125 48.1875 68.609375 48.1875 
Q 61.625 48.1875 57.5625 43.546875 
Q 53.515625 38.921875 53.515625 30.90625 
L 53.515625 0 
L 44.484375 0 
L 44.484375 32.71875 
Q 44.484375 40.625 41.703125 44.40625 
Q 38.921875 48.1875 33.109375 48.1875 
Q 26.21875 48.1875 22.15625 43.53125 
Q 18.109375 38.875 18.109375 30.90625 
L 18.109375 0 
L 9.078125 0 
L 9.078125 54.6875 
L 18.109375 54.6875 
L 18.109375 46.1875 
Q 21.1875 51.21875 25.484375 53.609375 
Q 29.78125 56 35.6875 56 
Q 41.65625 56 45.828125 52.96875 
Q 50 49.953125 52 44.1875 
" id="BitstreamVeraSans-Roman-6d"/>
      <path d="M 31 75.875 
Q 24.46875 64.65625 21.28125 53.65625 
Q 18.109375 42.671875 18.109375 31.390625 
Q 18.109375 20.125 21.3125 9.0625 
Q 24.515625 -2 31 -13.1875 
L 23.1875 -13.1875 
Q 15.875 -1.703125 12.234375 9.375 
Q 8.59375 20.453125 8.59375 31.390625 
Q 8.59375 42.28125 12.203125 53.3125 
Q 15.828125 64.359375 23.1875 75.875 
z
" id="BitstreamVeraSans-Roman-28"/>
     </defs>
     <g transform="translate(85.1668765625 149.391614063)scale(0.1 -0.1)">
      <use transform="translate(0.0 0.015625)" xlink:href="#Cmmi10-4e"/>
      <use transform="translate(80.322265625 0.015625)" xlink:href="#BitstreamVeraSans-Roman-20"/>
      <use transform="translate(112.109375 0.015625)" xlink:href="#BitstreamVeraSans-Roman-28"/>
      <use transform="translate(151.123046875 0.015625)" xlink:href="#BitstreamVeraSans-Roman-73"/>
      <use transform="translate(203.22265625 0.015625)" xlink:href="#BitstreamVeraSans-Roman-79"/>
      <use transform="translate(262.40234375 0.015625)" xlink:href="#BitstreamVeraSans-Roman-73"/>
      <use transform="translate(314.501953125 0.015625)" xlink:href="#BitstreamVeraSans-Roman-74"/>
      <use transform="translate(353.7109375 0.015625)" xlink:href="#BitstreamVeraSans-Roman-65"/>
      <use transform="translate(415.234375 0.015625)" xlink:href="#BitstreamVeraSans-Roman-6d"/>
      <use transform="translate(512.646484375 0.015625)" xlink:href="#BitstreamVeraSans-Roman-20"/>
      <use transform="translate(544.43359375 0.015625)" xlink:href="#BitstreamVeraSans-Roman-73"/>
      <use transform="translate(596.533203125 0.015625)" xlink:href="#BitstreamVeraSans-Roman-69"/>
      <use transform="translate(624.31640625 0.015625)" xlink:href="#BitstreamVeraSans-Roman-7a"/>
      <use transform="translate(676.806640625 0.015625)" xlink:href="#BitstreamVeraSans-Roman-65"/>
      <use transform="translate(738.330078125 0.015625)" xlink:href="#BitstreamVeraSans-Roman-29"/>
     </g>
    </g>
   </g>
   <g id="matplotlib.axis_2">
    <g id="ytick_1">
     <g id="line2d_26">
      <defs>
       <path d="M 0 0 
L 4 0 
" id="m1600fd992c" style="stroke:#000000;stroke-width:0.5;"/>
      </defs>
      <g>
       <use style="stroke:#000000;stroke-width:0.5;" x="50.247228125" xlink:href="#m1600fd992c" y="124.295014062"/>
      </g>
     </g>
     <g id="line2d_27">
      <defs>
       <path d="M 0 0 
L -4 0 
" id="mc4734371fe" style="stroke:#000000;stroke-width:0.5;"/>
      </defs>
      <g>
       <use style="stroke:#000000;stroke-width:0.5;" x="197.886525" xlink:href="#mc4734371fe" y="124.295014062"/>
      </g>
     </g>
     <g id="text_4">
      <!-- 0.590 -->
      <defs>
       <path d="M 10.796875 72.90625 
L 49.515625 72.90625 
L 49.515625 64.59375 
L 19.828125 64.59375 
L 19.828125 46.734375 
Q 21.96875 47.46875 24.109375 47.828125 
Q 26.265625 48.1875 28.421875 48.1875 
Q 40.625 48.1875 47.75 41.5 
Q 54.890625 34.8125 54.890625 23.390625 
Q 54.890625 11.625 47.5625 5.09375 
Q 40.234375 -1.421875 26.90625 -1.421875 
Q 22.3125 -1.421875 17.546875 -0.640625 
Q 12.796875 0.140625 7.71875 1.703125 
L 7.71875 11.625 
Q 12.109375 9.234375 16.796875 8.0625 
Q 21.484375 6.890625 26.703125 6.890625 
Q 35.15625 6.890625 40.078125 11.328125 
Q 45.015625 15.765625 45.015625 23.390625 
Q 45.015625 31 40.078125 35.4375 
Q 35.15625 39.890625 26.703125 39.890625 
Q 22.75 39.890625 18.8125 39.015625 
Q 14.890625 38.140625 10.796875 36.28125 
z
" id="BitstreamVeraSans-Roman-35"/>
       <path d="M 10.984375 1.515625 
L 10.984375 10.5 
Q 14.703125 8.734375 18.5 7.8125 
Q 22.3125 6.890625 25.984375 6.890625 
Q 35.75 6.890625 40.890625 13.453125 
Q 46.046875 20.015625 46.78125 33.40625 
Q 43.953125 29.203125 39.59375 26.953125 
Q 35.25 24.703125 29.984375 24.703125 
Q 19.046875 24.703125 12.671875 31.3125 
Q 6.296875 37.9375 6.296875 49.421875 
Q 6.296875 60.640625 12.9375 67.421875 
Q 19.578125 74.21875 30.609375 74.21875 
Q 43.265625 74.21875 49.921875 64.515625 
Q 56.59375 54.828125 56.59375 36.375 
Q 56.59375 19.140625 48.40625 8.859375 
Q 40.234375 -1.421875 26.421875 -1.421875 
Q 22.703125 -1.421875 18.890625 -0.6875 
Q 15.09375 0.046875 10.984375 1.515625 
M 30.609375 32.421875 
Q 37.25 32.421875 41.125 36.953125 
Q 45.015625 41.5 45.015625 49.421875 
Q 45.015625 57.28125 41.125 61.84375 
Q 37.25 66.40625 30.609375 66.40625 
Q 23.96875 66.40625 20.09375 61.84375 
Q 16.21875 57.28125 16.21875 49.421875 
Q 16.21875 41.5 20.09375 36.953125 
Q 23.96875 32.421875 30.609375 32.421875 
" id="BitstreamVeraSans-Roman-39"/>
       <path d="M 10.6875 12.40625 
L 21 12.40625 
L 21 0 
L 10.6875 0 
z
" id="BitstreamVeraSans-Roman-2e"/>
      </defs>
      <g transform="translate(22.4 126.593573437)scale(0.0833 -0.0833)">
       <use xlink:href="#BitstreamVeraSans-Roman-30"/>
       <use x="63.623046875" xlink:href="#BitstreamVeraSans-Roman-2e"/>
       <use x="95.41015625" xlink:href="#BitstreamVeraSans-Roman-35"/>
       <use x="159.033203125" xlink:href="#BitstreamVeraSans-Roman-39"/>
       <use x="222.65625" xlink:href="#BitstreamVeraSans-Roman-30"/>
      </g>
     </g>
    </g>
    <g id="ytick_2">
     <g id="line2d_28">
      <g>
       <use style="stroke:#000000;stroke-width:0.5;" x="50.247228125" xlink:href="#m1600fd992c" y="105.451001562"/>
      </g>
     </g>
     <g id="line2d_29">
      <g>
       <use style="stroke:#000000;stroke-width:0.5;" x="197.886525" xlink:href="#mc4734371fe" y="105.451001562"/>
      </g>
     </g>
     <g id="text_5">
      <!-- 0.592 -->
      <g transform="translate(22.4 107.749560937)scale(0.0833 -0.0833)">
       <use xlink:href="#BitstreamVeraSans-Roman-30"/>
       <use x="63.623046875" xlink:href="#BitstreamVeraSans-Roman-2e"/>
       <use x="95.41015625" xlink:href="#BitstreamVeraSans-Roman-35"/>
       <use x="159.033203125" xlink:href="#BitstreamVeraSans-Roman-39"/>
       <use x="222.65625" xlink:href="#BitstreamVeraSans-Roman-32"/>
      </g>
     </g>
    </g>
    <g id="ytick_3">
     <g id="line2d_30">
      <g>
       <use style="stroke:#000000;stroke-width:0.5;" x="50.247228125" xlink:href="#m1600fd992c" y="86.6069890625"/>
      </g>
     </g>
     <g id="line2d_31">
      <g>
       <use style="stroke:#000000;stroke-width:0.5;" x="197.886525" xlink:href="#mc4734371fe" y="86.6069890625"/>
      </g>
     </g>
     <g id="text_6">
      <!-- 0.594 -->
      <defs>
       <path d="M 37.796875 64.3125 
L 12.890625 25.390625 
L 37.796875 25.390625 
z
M 35.203125 72.90625 
L 47.609375 72.90625 
L 47.609375 25.390625 
L 58.015625 25.390625 
L 58.015625 17.1875 
L 47.609375 17.1875 
L 47.609375 0 
L 37.796875 0 
L 37.796875 17.1875 
L 4.890625 17.1875 
L 4.890625 26.703125 
z
" id="BitstreamVeraSans-Roman-34"/>
      </defs>
      <g transform="translate(22.4 88.9055484375)scale(0.0833 -0.0833)">
       <use xlink:href="#BitstreamVeraSans-Roman-30"/>
       <use x="63.623046875" xlink:href="#BitstreamVeraSans-Roman-2e"/>
       <use x="95.41015625" xlink:href="#BitstreamVeraSans-Roman-35"/>
       <use x="159.033203125" xlink:href="#BitstreamVeraSans-Roman-39"/>
       <use x="222.65625" xlink:href="#BitstreamVeraSans-Roman-34"/>
      </g>
     </g>
    </g>
    <g id="ytick_4">
     <g id="line2d_32">
      <g>
       <use style="stroke:#000000;stroke-width:0.5;" x="50.247228125" xlink:href="#m1600fd992c" y="67.7629765625"/>
      </g>
     </g>
     <g id="line2d_33">
      <g>
       <use style="stroke:#000000;stroke-width:0.5;" x="197.886525" xlink:href="#mc4734371fe" y="67.7629765625"/>
      </g>
     </g>
     <g id="text_7">
      <!-- 0.596 -->
      <defs>
       <path d="M 33.015625 40.375 
Q 26.375 40.375 22.484375 35.828125 
Q 18.609375 31.296875 18.609375 23.390625 
Q 18.609375 15.53125 22.484375 10.953125 
Q 26.375 6.390625 33.015625 6.390625 
Q 39.65625 6.390625 43.53125 10.953125 
Q 47.40625 15.53125 47.40625 23.390625 
Q 47.40625 31.296875 43.53125 35.828125 
Q 39.65625 40.375 33.015625 40.375 
M 52.59375 71.296875 
L 52.59375 62.3125 
Q 48.875 64.0625 45.09375 64.984375 
Q 41.3125 65.921875 37.59375 65.921875 
Q 27.828125 65.921875 22.671875 59.328125 
Q 17.53125 52.734375 16.796875 39.40625 
Q 19.671875 43.65625 24.015625 45.921875 
Q 28.375 48.1875 33.59375 48.1875 
Q 44.578125 48.1875 50.953125 41.515625 
Q 57.328125 34.859375 57.328125 23.390625 
Q 57.328125 12.15625 50.6875 5.359375 
Q 44.046875 -1.421875 33.015625 -1.421875 
Q 20.359375 -1.421875 13.671875 8.265625 
Q 6.984375 17.96875 6.984375 36.375 
Q 6.984375 53.65625 15.1875 63.9375 
Q 23.390625 74.21875 37.203125 74.21875 
Q 40.921875 74.21875 44.703125 73.484375 
Q 48.484375 72.75 52.59375 71.296875 
" id="BitstreamVeraSans-Roman-36"/>
      </defs>
      <g transform="translate(22.4 70.0615359375)scale(0.0833 -0.0833)">
       <use xlink:href="#BitstreamVeraSans-Roman-30"/>
       <use x="63.623046875" xlink:href="#BitstreamVeraSans-Roman-2e"/>
       <use x="95.41015625" xlink:href="#BitstreamVeraSans-Roman-35"/>
       <use x="159.033203125" xlink:href="#BitstreamVeraSans-Roman-39"/>
       <use x="222.65625" xlink:href="#BitstreamVeraSans-Roman-36"/>
      </g>
     </g>
    </g>
    <g id="ytick_5">
     <g id="line2d_34">
      <g>
       <use style="stroke:#000000;stroke-width:0.5;" x="50.247228125" xlink:href="#m1600fd992c" y="48.9189640625"/>
      </g>
     </g>
     <g id="line2d_35">
      <g>
       <use style="stroke:#000000;stroke-width:0.5;" x="197.886525" xlink:href="#mc4734371fe" y="48.9189640625"/>
      </g>
     </g>
     <g id="text_8">
      <!-- 0.598 -->
      <defs>
       <path d="M 31.78125 34.625 
Q 24.75 34.625 20.71875 30.859375 
Q 16.703125 27.09375 16.703125 20.515625 
Q 16.703125 13.921875 20.71875 10.15625 
Q 24.75 6.390625 31.78125 6.390625 
Q 38.8125 6.390625 42.859375 10.171875 
Q 46.921875 13.96875 46.921875 20.515625 
Q 46.921875 27.09375 42.890625 30.859375 
Q 38.875 34.625 31.78125 34.625 
M 21.921875 38.8125 
Q 15.578125 40.375 12.03125 44.71875 
Q 8.5 49.078125 8.5 55.328125 
Q 8.5 64.0625 14.71875 69.140625 
Q 20.953125 74.21875 31.78125 74.21875 
Q 42.671875 74.21875 48.875 69.140625 
Q 55.078125 64.0625 55.078125 55.328125 
Q 55.078125 49.078125 51.53125 44.71875 
Q 48 40.375 41.703125 38.8125 
Q 48.828125 37.15625 52.796875 32.3125 
Q 56.78125 27.484375 56.78125 20.515625 
Q 56.78125 9.90625 50.3125 4.234375 
Q 43.84375 -1.421875 31.78125 -1.421875 
Q 19.734375 -1.421875 13.25 4.234375 
Q 6.78125 9.90625 6.78125 20.515625 
Q 6.78125 27.484375 10.78125 32.3125 
Q 14.796875 37.15625 21.921875 38.8125 
M 18.3125 54.390625 
Q 18.3125 48.734375 21.84375 45.5625 
Q 25.390625 42.390625 31.78125 42.390625 
Q 38.140625 42.390625 41.71875 45.5625 
Q 45.3125 48.734375 45.3125 54.390625 
Q 45.3125 60.0625 41.71875 63.234375 
Q 38.140625 66.40625 31.78125 66.40625 
Q 25.390625 66.40625 21.84375 63.234375 
Q 18.3125 60.0625 18.3125 54.390625 
" id="BitstreamVeraSans-Roman-38"/>
      </defs>
      <g transform="translate(22.4 51.2175234375)scale(0.0833 -0.0833)">
       <use xlink:href="#BitstreamVeraSans-Roman-30"/>
       <use x="63.623046875" xlink:href="#BitstreamVeraSans-Roman-2e"/>
       <use x="95.41015625" xlink:href="#BitstreamVeraSans-Roman-35"/>
       <use x="159.033203125" xlink:href="#BitstreamVeraSans-Roman-39"/>
       <use x="222.65625" xlink:href="#BitstreamVeraSans-Roman-38"/>
      </g>
     </g>
    </g>
    <g id="ytick_6">
     <g id="line2d_36">
      <g>
       <use style="stroke:#000000;stroke-width:0.5;" x="50.247228125" xlink:href="#m1600fd992c" y="30.0749515625"/>
      </g>
     </g>
     <g id="line2d_37">
      <g>
       <use style="stroke:#000000;stroke-width:0.5;" x="197.886525" xlink:href="#mc4734371fe" y="30.0749515625"/>
      </g>
     </g>
     <g id="text_9">
      <!-- 0.600 -->
      <g transform="translate(22.4 32.3735109375)scale(0.0833 -0.0833)">
       <use xlink:href="#BitstreamVeraSans-Roman-30"/>
       <use x="63.623046875" xlink:href="#BitstreamVeraSans-Roman-2e"/>
       <use x="95.41015625" xlink:href="#BitstreamVeraSans-Roman-36"/>
       <use x="159.033203125" xlink:href="#BitstreamVeraSans-Roman-30"/>
       <use x="222.65625" xlink:href="#BitstreamVeraSans-Roman-30"/>
      </g>
     </g>
    </g>
    <g id="ytick_7">
     <g id="line2d_38">
      <g>
       <use style="stroke:#000000;stroke-width:0.5;" x="50.247228125" xlink:href="#m1600fd992c" y="11.2309390625"/>
      </g>
     </g>
     <g id="line2d_39">
      <g>
       <use style="stroke:#000000;stroke-width:0.5;" x="197.886525" xlink:href="#mc4734371fe" y="11.2309390625"/>
      </g>
     </g>
     <g id="text_10">
      <!-- 0.602 -->
      <g transform="translate(22.4 13.5294984375)scale(0.0833 -0.0833)">
       <use xlink:href="#BitstreamVeraSans-Roman-30"/>
       <use x="63.623046875" xlink:href="#BitstreamVeraSans-Roman-2e"/>
       <use x="95.41015625" xlink:href="#BitstreamVeraSans-Roman-36"/>
       <use x="159.033203125" xlink:href="#BitstreamVeraSans-Roman-30"/>
       <use x="222.65625" xlink:href="#BitstreamVeraSans-Roman-32"/>
      </g>
     </g>
    </g>
    <g id="text_11">
     <!-- $\phi^\star$ -->
     <defs>
      <path d="M 19.390625 -19.484375 
L 23.875 -1.421875 
Q 18.796875 -1.421875 14.40625 0.953125 
Q 10.015625 3.328125 7.34375 7.5625 
Q 4.6875 11.8125 4.6875 16.796875 
Q 4.6875 22.21875 7.375 27.140625 
Q 10.0625 32.078125 14.71875 36.109375 
Q 19.390625 40.140625 24.75 42.3125 
Q 30.125 44.484375 35.40625 44.484375 
L 41.40625 68.796875 
Q 41.609375 69.390625 42.1875 69.390625 
L 43.40625 69.390625 
Q 43.796875 69.390625 44.03125 69.046875 
Q 44.28125 68.703125 44.28125 68.40625 
L 38.28125 44.484375 
Q 42.046875 44.484375 45.5625 43.109375 
Q 49.078125 41.75 51.78125 39.28125 
Q 54.5 36.8125 56 33.46875 
Q 57.515625 30.125 57.515625 26.3125 
Q 57.515625 20.90625 54.828125 15.96875 
Q 52.15625 11.03125 47.609375 7.078125 
Q 43.0625 3.125 37.46875 0.84375 
Q 31.890625 -1.421875 26.8125 -1.421875 
L 22.21875 -19.921875 
Q 22.015625 -20.515625 21.390625 -20.515625 
L 20.21875 -20.515625 
Q 19.828125 -20.515625 19.609375 -20.140625 
Q 19.390625 -19.78125 19.390625 -19.484375 
M 24.515625 1.21875 
L 34.71875 41.890625 
Q 32.171875 41.890625 29.390625 40.859375 
Q 26.609375 39.84375 24.140625 38.28125 
Q 21.6875 36.71875 19.671875 34.71875 
Q 17.234375 32.28125 15.375 28.953125 
Q 13.53125 25.640625 12.578125 21.953125 
Q 11.625 18.265625 11.625 14.703125 
Q 11.625 10.9375 13.234375 7.859375 
Q 14.84375 4.78125 17.765625 3 
Q 20.703125 1.21875 24.515625 1.21875 
M 27.484375 1.21875 
Q 31.25 1.21875 35.5 3.359375 
Q 39.75 5.515625 42.484375 8.40625 
Q 46.234375 12.109375 48.40625 17.5 
Q 50.59375 22.90625 50.59375 28.421875 
Q 50.59375 32.125 48.96875 35.21875 
Q 47.359375 38.328125 44.421875 40.109375 
Q 41.5 41.890625 37.703125 41.890625 
z
" id="Cmmi10-c1"/>
      <path d="M 66.5 36.5 
L 43.90625 22.796875 
L 54.59375 -1.296875 
L 35 16.59375 
L 15.40625 -1.296875 
L 26.09375 22.796875 
L 3.5 36.5 
L 29.703125 33.5 
L 35 59.703125 
L 40.296875 33.5 
z
" id="STIXGeneral-Regular-22c6"/>
     </defs>
     <g transform="translate(15.3 75.3629765625)rotate(-90.0)scale(0.1 -0.1)">
      <use transform="translate(0.0 0.9437499999999943)" xlink:href="#Cmmi10-c1"/>
      <use transform="translate(83.40843749999999 39.207812499999996)scale(0.7)" xlink:href="#STIXGeneral-Regular-22c6"/>
     </g>
    </g>
   </g>
  </g>
  <g id="axes_2">
   <g id="patch_7">
    <path d="M 267.586525 124.295014 
L 415.225822 124.295014 
L 415.225822 11.230939 
L 267.586525 11.230939 
z
" style="fill:#ffffff;"/>
   </g>
   <g id="LineCollection_2">
    <path clip-path="url(#pbd1986a17b)" d="M 321.729663 69.739669 
L 321.729663 26.705386 
" style="fill:none;stroke:#e41a1c;stroke-width:2.0;"/>
    <path clip-path="url(#pbd1986a17b)" d="M 335.907558 111.77644 
L 335.907558 52.442988 
" style="fill:none;stroke:#e41a1c;stroke-width:2.0;"/>
    <path clip-path="url(#pbd1986a17b)" d="M 355.89018 107.594162 
L 355.89018 73.09981 
" style="fill:none;stroke:#e41a1c;stroke-width:2.0;"/>
    <path clip-path="url(#pbd1986a17b)" d="M 370.068075 89.365709 
L 370.068075 60.979984 
" style="fill:none;stroke:#e41a1c;stroke-width:2.0;"/>
    <path clip-path="url(#pbd1986a17b)" d="M 381.065305 89.014352 
L 381.065305 51.230719 
" style="fill:none;stroke:#e41a1c;stroke-width:2.0;"/>
    <path clip-path="url(#pbd1986a17b)" d="M 404.228592 71.392736 
L 404.228592 42.616624 
" style="fill:none;stroke:#e41a1c;stroke-width:2.0;"/>
   </g>
   <g id="line2d_40">
    <g clip-path="url(#pbd1986a17b)">
     <use style="fill:#e41a1c;stroke:#e41a1c;stroke-width:0.5;" x="321.72966298" xlink:href="#m36a01df9bb" y="69.7396689065"/>
     <use style="fill:#e41a1c;stroke:#e41a1c;stroke-width:0.5;" x="335.907558406" xlink:href="#m36a01df9bb" y="111.776440031"/>
     <use style="fill:#e41a1c;stroke:#e41a1c;stroke-width:0.5;" x="355.890179683" xlink:href="#m36a01df9bb" y="107.594161642"/>
     <use style="fill:#e41a1c;stroke:#e41a1c;stroke-width:0.5;" x="370.068075109" xlink:href="#m36a01df9bb" y="89.3657086127"/>
     <use style="fill:#e41a1c;stroke:#e41a1c;stroke-width:0.5;" x="381.065305172" xlink:href="#m36a01df9bb" y="89.0143516221"/>
     <use style="fill:#e41a1c;stroke:#e41a1c;stroke-width:0.5;" x="404.228591812" xlink:href="#m36a01df9bb" y="71.3927358872"/>
    </g>
   </g>
   <g id="line2d_41">
    <g clip-path="url(#pbd1986a17b)">
     <use style="fill:#e41a1c;stroke:#e41a1c;stroke-width:0.5;" x="321.72966298" xlink:href="#m36a01df9bb" y="26.7053860188"/>
     <use style="fill:#e41a1c;stroke:#e41a1c;stroke-width:0.5;" x="335.907558406" xlink:href="#m36a01df9bb" y="52.4429884491"/>
     <use style="fill:#e41a1c;stroke:#e41a1c;stroke-width:0.5;" x="355.890179683" xlink:href="#m36a01df9bb" y="73.0998097902"/>
     <use style="fill:#e41a1c;stroke:#e41a1c;stroke-width:0.5;" x="370.068075109" xlink:href="#m36a01df9bb" y="60.9799837476"/>
     <use style="fill:#e41a1c;stroke:#e41a1c;stroke-width:0.5;" x="381.065305172" xlink:href="#m36a01df9bb" y="51.2307187129"/>
     <use style="fill:#e41a1c;stroke:#e41a1c;stroke-width:0.5;" x="404.228591812" xlink:href="#m36a01df9bb" y="42.6166237951"/>
    </g>
   </g>
   <g id="line2d_42">
    <path clip-path="url(#pbd1986a17b)" d="M 321.729663 48.222527 
L 335.907558 82.109714 
L 355.89018 90.346986 
L 370.068075 75.172846 
L 381.065305 70.122535 
L 404.228592 57.00468 
" style="fill:none;stroke:#e41a1c;stroke-linecap:square;stroke-width:2.0;"/>
    <g clip-path="url(#pbd1986a17b)">
     <use style="fill:#e41a1c;stroke:#e41a1c;stroke-width:0.5;" x="321.72966298" xlink:href="#mddebc73899" y="48.2225274627"/>
     <use style="fill:#e41a1c;stroke:#e41a1c;stroke-width:0.5;" x="335.907558406" xlink:href="#mddebc73899" y="82.10971424"/>
     <use style="fill:#e41a1c;stroke:#e41a1c;stroke-width:0.5;" x="355.890179683" xlink:href="#mddebc73899" y="90.3469857163"/>
     <use style="fill:#e41a1c;stroke:#e41a1c;stroke-width:0.5;" x="370.068075109" xlink:href="#mddebc73899" y="75.1728461802"/>
     <use style="fill:#e41a1c;stroke:#e41a1c;stroke-width:0.5;" x="381.065305172" xlink:href="#mddebc73899" y="70.1225351675"/>
     <use style="fill:#e41a1c;stroke:#e41a1c;stroke-width:0.5;" x="404.228591812" xlink:href="#mddebc73899" y="57.0046798411"/>
    </g>
   </g>
   <g id="patch_8">
    <path d="M 267.586525 11.230939 
L 415.225822 11.230939 
" style="fill:none;stroke:#000000;stroke-linecap:square;stroke-linejoin:miter;"/>
   </g>
   <g id="patch_9">
    <path d="M 267.586525 124.295014 
L 415.225822 124.295014 
" style="fill:none;stroke:#000000;stroke-linecap:square;stroke-linejoin:miter;"/>
   </g>
   <g id="patch_10">
    <path d="M 267.586525 124.295014 
L 267.586525 11.230939 
" style="fill:none;stroke:#000000;stroke-linecap:square;stroke-linejoin:miter;"/>
   </g>
   <g id="patch_11">
    <path d="M 415.225822 124.295014 
L 415.225822 11.230939 
" style="fill:none;stroke:#000000;stroke-linecap:square;stroke-linejoin:miter;"/>
   </g>
   <g id="matplotlib.axis_3">
    <g id="xtick_12">
     <g id="line2d_43">
      <g>
       <use style="stroke:#000000;stroke-width:0.5;" x="267.586525" xlink:href="#m8d9d39dd13" y="124.295014063"/>
      </g>
     </g>
     <g id="line2d_44">
      <g>
       <use style="stroke:#000000;stroke-width:0.5;" x="267.586525" xlink:href="#m409f994fe7" y="11.2309390625"/>
      </g>
     </g>
     <g id="text_12">
      <!-- $\mathdefault{10^{1}}$ -->
      <g transform="translate(259.839625 134.975934375)scale(0.0833 -0.0833)">
       <use transform="translate(0.0 0.7156250000000028)" xlink:href="#BitstreamVeraSans-Roman-31"/>
       <use transform="translate(63.623046875 0.7156250000000028)" xlink:href="#BitstreamVeraSans-Roman-30"/>
       <use transform="translate(132.75859375 47.965625)scale(0.7)" xlink:href="#BitstreamVeraSans-Roman-31"/>
      </g>
     </g>
    </g>
    <g id="xtick_13">
     <g id="line2d_45">
      <g>
       <use style="stroke:#000000;stroke-width:0.5;" x="381.065305172" xlink:href="#m8d9d39dd13" y="124.295014063"/>
      </g>
     </g>
     <g id="line2d_46">
      <g>
       <use style="stroke:#000000;stroke-width:0.5;" x="381.065305172" xlink:href="#m409f994fe7" y="11.2309390625"/>
      </g>
     </g>
     <g id="text_13">
      <!-- $\mathdefault{10^{2}}$ -->
      <g transform="translate(373.318405172 135.059234375)scale(0.0833 -0.0833)">
       <use transform="translate(0.0 0.796875)" xlink:href="#BitstreamVeraSans-Roman-31"/>
       <use transform="translate(63.623046875 0.796875)" xlink:href="#BitstreamVeraSans-Roman-30"/>
       <use transform="translate(132.75859375 48.046875)scale(0.7)" xlink:href="#BitstreamVeraSans-Roman-32"/>
      </g>
     </g>
    </g>
    <g id="xtick_14">
     <g id="line2d_47">
      <g>
       <use style="stroke:#000000;stroke-width:0.5;" x="301.747041703" xlink:href="#mb0e9fcc477" y="124.295014063"/>
      </g>
     </g>
     <g id="line2d_48">
      <g>
       <use style="stroke:#000000;stroke-width:0.5;" x="301.747041703" xlink:href="#m36a45397dd" y="11.2309390625"/>
      </g>
     </g>
    </g>
    <g id="xtick_15">
     <g id="line2d_49">
      <g>
       <use style="stroke:#000000;stroke-width:0.5;" x="321.72966298" xlink:href="#mb0e9fcc477" y="124.295014063"/>
      </g>
     </g>
     <g id="line2d_50">
      <g>
       <use style="stroke:#000000;stroke-width:0.5;" x="321.72966298" xlink:href="#m36a45397dd" y="11.2309390625"/>
      </g>
     </g>
    </g>
    <g id="xtick_16">
     <g id="line2d_51">
      <g>
       <use style="stroke:#000000;stroke-width:0.5;" x="335.907558406" xlink:href="#mb0e9fcc477" y="124.295014063"/>
      </g>
     </g>
     <g id="line2d_52">
      <g>
       <use style="stroke:#000000;stroke-width:0.5;" x="335.907558406" xlink:href="#m36a45397dd" y="11.2309390625"/>
      </g>
     </g>
    </g>
    <g id="xtick_17">
     <g id="line2d_53">
      <g>
       <use style="stroke:#000000;stroke-width:0.5;" x="346.904788469" xlink:href="#mb0e9fcc477" y="124.295014063"/>
      </g>
     </g>
     <g id="line2d_54">
      <g>
       <use style="stroke:#000000;stroke-width:0.5;" x="346.904788469" xlink:href="#m36a45397dd" y="11.2309390625"/>
      </g>
     </g>
    </g>
    <g id="xtick_18">
     <g id="line2d_55">
      <g>
       <use style="stroke:#000000;stroke-width:0.5;" x="355.890179683" xlink:href="#mb0e9fcc477" y="124.295014063"/>
      </g>
     </g>
     <g id="line2d_56">
      <g>
       <use style="stroke:#000000;stroke-width:0.5;" x="355.890179683" xlink:href="#m36a45397dd" y="11.2309390625"/>
      </g>
     </g>
    </g>
    <g id="xtick_19">
     <g id="line2d_57">
      <g>
       <use style="stroke:#000000;stroke-width:0.5;" x="363.487219706" xlink:href="#mb0e9fcc477" y="124.295014063"/>
      </g>
     </g>
     <g id="line2d_58">
      <g>
       <use style="stroke:#000000;stroke-width:0.5;" x="363.487219706" xlink:href="#m36a45397dd" y="11.2309390625"/>
      </g>
     </g>
    </g>
    <g id="xtick_20">
     <g id="line2d_59">
      <g>
       <use style="stroke:#000000;stroke-width:0.5;" x="370.068075109" xlink:href="#mb0e9fcc477" y="124.295014063"/>
      </g>
     </g>
     <g id="line2d_60">
      <g>
       <use style="stroke:#000000;stroke-width:0.5;" x="370.068075109" xlink:href="#m36a45397dd" y="11.2309390625"/>
      </g>
     </g>
    </g>
    <g id="xtick_21">
     <g id="line2d_61">
      <g>
       <use style="stroke:#000000;stroke-width:0.5;" x="375.872800959" xlink:href="#mb0e9fcc477" y="124.295014063"/>
      </g>
     </g>
     <g id="line2d_62">
      <g>
       <use style="stroke:#000000;stroke-width:0.5;" x="375.872800959" xlink:href="#m36a45397dd" y="11.2309390625"/>
      </g>
     </g>
    </g>
    <g id="xtick_22">
     <g id="line2d_63">
      <g>
       <use style="stroke:#000000;stroke-width:0.5;" x="415.225821875" xlink:href="#mb0e9fcc477" y="124.295014063"/>
      </g>
     </g>
     <g id="line2d_64">
      <g>
       <use style="stroke:#000000;stroke-width:0.5;" x="415.225821875" xlink:href="#m36a45397dd" y="11.2309390625"/>
      </g>
     </g>
    </g>
    <g id="text_14">
     <!-- $N$ (system size) -->
     <g transform="translate(302.506173438 149.391614063)scale(0.1 -0.1)">
      <use transform="translate(0.0 0.015625)" xlink:href="#Cmmi10-4e"/>
      <use transform="translate(80.322265625 0.015625)" xlink:href="#BitstreamVeraSans-Roman-20"/>
      <use transform="translate(112.109375 0.015625)" xlink:href="#BitstreamVeraSans-Roman-28"/>
      <use transform="translate(151.123046875 0.015625)" xlink:href="#BitstreamVeraSans-Roman-73"/>
      <use transform="translate(203.22265625 0.015625)" xlink:href="#BitstreamVeraSans-Roman-79"/>
      <use transform="translate(262.40234375 0.015625)" xlink:href="#BitstreamVeraSans-Roman-73"/>
      <use transform="translate(314.501953125 0.015625)" xlink:href="#BitstreamVeraSans-Roman-74"/>
      <use transform="translate(353.7109375 0.015625)" xlink:href="#BitstreamVeraSans-Roman-65"/>
      <use transform="translate(415.234375 0.015625)" xlink:href="#BitstreamVeraSans-Roman-6d"/>
      <use transform="translate(512.646484375 0.015625)" xlink:href="#BitstreamVeraSans-Roman-20"/>
      <use transform="translate(544.43359375 0.015625)" xlink:href="#BitstreamVeraSans-Roman-73"/>
      <use transform="translate(596.533203125 0.015625)" xlink:href="#BitstreamVeraSans-Roman-69"/>
      <use transform="translate(624.31640625 0.015625)" xlink:href="#BitstreamVeraSans-Roman-7a"/>
      <use transform="translate(676.806640625 0.015625)" xlink:href="#BitstreamVeraSans-Roman-65"/>
      <use transform="translate(738.330078125 0.015625)" xlink:href="#BitstreamVeraSans-Roman-29"/>
     </g>
    </g>
   </g>
   <g id="matplotlib.axis_4">
    <g id="ytick_8">
     <g id="line2d_65">
      <g>
       <use style="stroke:#000000;stroke-width:0.5;" x="267.586525" xlink:href="#m1600fd992c" y="124.295014063"/>
      </g>
     </g>
     <g id="line2d_66">
      <g>
       <use style="stroke:#000000;stroke-width:0.5;" x="415.225821875" xlink:href="#mc4734371fe" y="124.295014063"/>
      </g>
     </g>
     <g id="text_15">
      <!-- −1.40 -->
      <defs>
       <path d="M 10.59375 35.5 
L 73.1875 35.5 
L 73.1875 27.203125 
L 10.59375 27.203125 
z
" id="BitstreamVeraSans-Roman-2212"/>
      </defs>
      <g transform="translate(238.058979688 126.593573438)scale(0.0833 -0.0833)">
       <use xlink:href="#BitstreamVeraSans-Roman-2212"/>
       <use x="83.7890625" xlink:href="#BitstreamVeraSans-Roman-31"/>
       <use x="147.412109375" xlink:href="#BitstreamVeraSans-Roman-2e"/>
       <use x="179.19921875" xlink:href="#BitstreamVeraSans-Roman-34"/>
       <use x="242.822265625" xlink:href="#BitstreamVeraSans-Roman-30"/>
      </g>
     </g>
    </g>
    <g id="ytick_9">
     <g id="line2d_67">
      <g>
       <use style="stroke:#000000;stroke-width:0.5;" x="267.586525" xlink:href="#m1600fd992c" y="108.143003348"/>
      </g>
     </g>
     <g id="line2d_68">
      <g>
       <use style="stroke:#000000;stroke-width:0.5;" x="415.225821875" xlink:href="#mc4734371fe" y="108.143003348"/>
      </g>
     </g>
     <g id="text_16">
      <!-- −1.35 -->
      <defs>
       <path d="M 40.578125 39.3125 
Q 47.65625 37.796875 51.625 33 
Q 55.609375 28.21875 55.609375 21.1875 
Q 55.609375 10.40625 48.1875 4.484375 
Q 40.765625 -1.421875 27.09375 -1.421875 
Q 22.515625 -1.421875 17.65625 -0.515625 
Q 12.796875 0.390625 7.625 2.203125 
L 7.625 11.71875 
Q 11.71875 9.328125 16.59375 8.109375 
Q 21.484375 6.890625 26.8125 6.890625 
Q 36.078125 6.890625 40.9375 10.546875 
Q 45.796875 14.203125 45.796875 21.1875 
Q 45.796875 27.640625 41.28125 31.265625 
Q 36.765625 34.90625 28.71875 34.90625 
L 20.21875 34.90625 
L 20.21875 43.015625 
L 29.109375 43.015625 
Q 36.375 43.015625 40.234375 45.921875 
Q 44.09375 48.828125 44.09375 54.296875 
Q 44.09375 59.90625 40.109375 62.90625 
Q 36.140625 65.921875 28.71875 65.921875 
Q 24.65625 65.921875 20.015625 65.03125 
Q 15.375 64.15625 9.8125 62.3125 
L 9.8125 71.09375 
Q 15.4375 72.65625 20.34375 73.4375 
Q 25.25 74.21875 29.59375 74.21875 
Q 40.828125 74.21875 47.359375 69.109375 
Q 53.90625 64.015625 53.90625 55.328125 
Q 53.90625 49.265625 50.4375 45.09375 
Q 46.96875 40.921875 40.578125 39.3125 
" id="BitstreamVeraSans-Roman-33"/>
      </defs>
      <g transform="translate(238.058979688 110.441562723)scale(0.0833 -0.0833)">
       <use xlink:href="#BitstreamVeraSans-Roman-2212"/>
       <use x="83.7890625" xlink:href="#BitstreamVeraSans-Roman-31"/>
       <use x="147.412109375" xlink:href="#BitstreamVeraSans-Roman-2e"/>
       <use x="179.19921875" xlink:href="#BitstreamVeraSans-Roman-33"/>
       <use x="242.822265625" xlink:href="#BitstreamVeraSans-Roman-35"/>
      </g>
     </g>
    </g>
    <g id="ytick_10">
     <g id="line2d_69">
      <g>
       <use style="stroke:#000000;stroke-width:0.5;" x="267.586525" xlink:href="#m1600fd992c" y="91.9909926339"/>
      </g>
     </g>
     <g id="line2d_70">
      <g>
       <use style="stroke:#000000;stroke-width:0.5;" x="415.225821875" xlink:href="#mc4734371fe" y="91.9909926339"/>
      </g>
     </g>
     <g id="text_17">
      <!-- −1.30 -->
      <g transform="translate(238.058979688 94.2895520089)scale(0.0833 -0.0833)">
       <use xlink:href="#BitstreamVeraSans-Roman-2212"/>
       <use x="83.7890625" xlink:href="#BitstreamVeraSans-Roman-31"/>
       <use x="147.412109375" xlink:href="#BitstreamVeraSans-Roman-2e"/>
       <use x="179.19921875" xlink:href="#BitstreamVeraSans-Roman-33"/>
       <use x="242.822265625" xlink:href="#BitstreamVeraSans-Roman-30"/>
      </g>
     </g>
    </g>
    <g id="ytick_11">
     <g id="line2d_71">
      <g>
       <use style="stroke:#000000;stroke-width:0.5;" x="267.586525" xlink:href="#m1600fd992c" y="75.8389819196"/>
      </g>
     </g>
     <g id="line2d_72">
      <g>
       <use style="stroke:#000000;stroke-width:0.5;" x="415.225821875" xlink:href="#mc4734371fe" y="75.8389819196"/>
      </g>
     </g>
     <g id="text_18">
      <!-- −1.25 -->
      <g transform="translate(238.058979688 78.1375412946)scale(0.0833 -0.0833)">
       <use xlink:href="#BitstreamVeraSans-Roman-2212"/>
       <use x="83.7890625" xlink:href="#BitstreamVeraSans-Roman-31"/>
       <use x="147.412109375" xlink:href="#BitstreamVeraSans-Roman-2e"/>
       <use x="179.19921875" xlink:href="#BitstreamVeraSans-Roman-32"/>
       <use x="242.822265625" xlink:href="#BitstreamVeraSans-Roman-35"/>
      </g>
     </g>
    </g>
    <g id="ytick_12">
     <g id="line2d_73">
      <g>
       <use style="stroke:#000000;stroke-width:0.5;" x="267.586525" xlink:href="#m1600fd992c" y="59.6869712054"/>
      </g>
     </g>
     <g id="line2d_74">
      <g>
       <use style="stroke:#000000;stroke-width:0.5;" x="415.225821875" xlink:href="#mc4734371fe" y="59.6869712054"/>
      </g>
     </g>
     <g id="text_19">
      <!-- −1.20 -->
      <g transform="translate(238.058979688 61.9855305804)scale(0.0833 -0.0833)">
       <use xlink:href="#BitstreamVeraSans-Roman-2212"/>
       <use x="83.7890625" xlink:href="#BitstreamVeraSans-Roman-31"/>
       <use x="147.412109375" xlink:href="#BitstreamVeraSans-Roman-2e"/>
       <use x="179.19921875" xlink:href="#BitstreamVeraSans-Roman-32"/>
       <use x="242.822265625" xlink:href="#BitstreamVeraSans-Roman-30"/>
      </g>
     </g>
    </g>
    <g id="ytick_13">
     <g id="line2d_75">
      <g>
       <use style="stroke:#000000;stroke-width:0.5;" x="267.586525" xlink:href="#m1600fd992c" y="43.5349604911"/>
      </g>
     </g>
     <g id="line2d_76">
      <g>
       <use style="stroke:#000000;stroke-width:0.5;" x="415.225821875" xlink:href="#mc4734371fe" y="43.5349604911"/>
      </g>
     </g>
     <g id="text_20">
      <!-- −1.15 -->
      <g transform="translate(238.058979688 45.8335198661)scale(0.0833 -0.0833)">
       <use xlink:href="#BitstreamVeraSans-Roman-2212"/>
       <use x="83.7890625" xlink:href="#BitstreamVeraSans-Roman-31"/>
       <use x="147.412109375" xlink:href="#BitstreamVeraSans-Roman-2e"/>
       <use x="179.19921875" xlink:href="#BitstreamVeraSans-Roman-31"/>
       <use x="242.822265625" xlink:href="#BitstreamVeraSans-Roman-35"/>
      </g>
     </g>
    </g>
    <g id="ytick_14">
     <g id="line2d_77">
      <g>
       <use style="stroke:#000000;stroke-width:0.5;" x="267.586525" xlink:href="#m1600fd992c" y="27.3829497768"/>
      </g>
     </g>
     <g id="line2d_78">
      <g>
       <use style="stroke:#000000;stroke-width:0.5;" x="415.225821875" xlink:href="#mc4734371fe" y="27.3829497768"/>
      </g>
     </g>
     <g id="text_21">
      <!-- −1.10 -->
      <g transform="translate(238.058979688 29.6815091518)scale(0.0833 -0.0833)">
       <use xlink:href="#BitstreamVeraSans-Roman-2212"/>
       <use x="83.7890625" xlink:href="#BitstreamVeraSans-Roman-31"/>
       <use x="147.412109375" xlink:href="#BitstreamVeraSans-Roman-2e"/>
       <use x="179.19921875" xlink:href="#BitstreamVeraSans-Roman-31"/>
       <use x="242.822265625" xlink:href="#BitstreamVeraSans-Roman-30"/>
      </g>
     </g>
    </g>
    <g id="ytick_15">
     <g id="line2d_79">
      <g>
       <use style="stroke:#000000;stroke-width:0.5;" x="267.586525" xlink:href="#m1600fd992c" y="11.2309390625"/>
      </g>
     </g>
     <g id="line2d_80">
      <g>
       <use style="stroke:#000000;stroke-width:0.5;" x="415.225821875" xlink:href="#mc4734371fe" y="11.2309390625"/>
      </g>
     </g>
     <g id="text_22">
      <!-- −1.05 -->
      <g transform="translate(238.058979688 13.5294984375)scale(0.0833 -0.0833)">
       <use xlink:href="#BitstreamVeraSans-Roman-2212"/>
       <use x="83.7890625" xlink:href="#BitstreamVeraSans-Roman-31"/>
       <use x="147.412109375" xlink:href="#BitstreamVeraSans-Roman-2e"/>
       <use x="179.19921875" xlink:href="#BitstreamVeraSans-Roman-30"/>
       <use x="242.822265625" xlink:href="#BitstreamVeraSans-Roman-35"/>
      </g>
     </g>
    </g>
    <g id="text_23">
     <!-- $n$ (exponent) -->
     <defs>
      <path d="M 30.609375 48.390625 
Q 23.390625 48.390625 19.1875 42.75 
Q 14.984375 37.109375 14.984375 27.296875 
Q 14.984375 17.484375 19.15625 11.84375 
Q 23.34375 6.203125 30.609375 6.203125 
Q 37.796875 6.203125 41.984375 11.859375 
Q 46.1875 17.53125 46.1875 27.296875 
Q 46.1875 37.015625 41.984375 42.703125 
Q 37.796875 48.390625 30.609375 48.390625 
M 30.609375 56 
Q 42.328125 56 49.015625 48.375 
Q 55.71875 40.765625 55.71875 27.296875 
Q 55.71875 13.875 49.015625 6.21875 
Q 42.328125 -1.421875 30.609375 -1.421875 
Q 18.84375 -1.421875 12.171875 6.21875 
Q 5.515625 13.875 5.515625 27.296875 
Q 5.515625 40.765625 12.171875 48.375 
Q 18.84375 56 30.609375 56 
" id="BitstreamVeraSans-Roman-6f"/>
      <path d="M 7.71875 1.703125 
Q 7.71875 2.296875 7.8125 2.59375 
L 15.28125 32.421875 
Q 16.015625 35.203125 16.015625 37.3125 
Q 16.015625 41.609375 13.09375 41.609375 
Q 9.96875 41.609375 8.453125 37.859375 
Q 6.9375 34.125 5.515625 28.421875 
Q 5.515625 28.125 5.21875 27.953125 
Q 4.9375 27.78125 4.6875 27.78125 
L 3.515625 27.78125 
Q 3.171875 27.78125 2.921875 28.140625 
Q 2.6875 28.515625 2.6875 28.8125 
Q 3.765625 33.15625 4.765625 36.171875 
Q 5.765625 39.203125 7.890625 41.6875 
Q 10.015625 44.1875 13.1875 44.1875 
Q 16.9375 44.1875 19.8125 41.8125 
Q 22.703125 39.453125 22.703125 35.796875 
Q 25.6875 39.703125 29.6875 41.9375 
Q 33.6875 44.1875 38.1875 44.1875 
Q 41.75 44.1875 44.328125 42.96875 
Q 46.921875 41.75 48.359375 39.28125 
Q 49.8125 36.8125 49.8125 33.40625 
Q 49.8125 29.296875 47.96875 23.484375 
Q 46.140625 17.671875 43.40625 10.5 
Q 42 7.234375 42 4.5 
Q 42 1.515625 44.28125 1.515625 
Q 48.1875 1.515625 50.796875 5.703125 
Q 53.421875 9.90625 54.5 14.703125 
Q 54.6875 15.28125 55.328125 15.28125 
L 56.5 15.28125 
Q 56.890625 15.28125 57.15625 15.03125 
Q 57.421875 14.796875 57.421875 14.40625 
Q 57.421875 14.3125 57.328125 14.109375 
Q 55.953125 8.453125 52.5625 3.65625 
Q 49.171875 -1.125 44.09375 -1.125 
Q 40.578125 -1.125 38.078125 1.296875 
Q 35.59375 3.71875 35.59375 7.171875 
Q 35.59375 9.03125 36.375 11.078125 
Q 37.640625 14.359375 39.28125 18.890625 
Q 40.921875 23.4375 41.96875 27.578125 
Q 43.015625 31.734375 43.015625 34.90625 
Q 43.015625 37.703125 41.859375 39.65625 
Q 40.71875 41.609375 37.984375 41.609375 
Q 34.328125 41.609375 31.25 39.984375 
Q 28.171875 38.375 25.875 35.71875 
Q 23.578125 33.0625 21.6875 29.390625 
L 14.890625 2.203125 
Q 14.546875 0.828125 13.34375 -0.140625 
Q 12.15625 -1.125 10.6875 -1.125 
Q 9.46875 -1.125 8.59375 -0.34375 
Q 7.71875 0.4375 7.71875 1.703125 
" id="Cmmi10-6e"/>
      <path d="M 18.109375 8.203125 
L 18.109375 -20.796875 
L 9.078125 -20.796875 
L 9.078125 54.6875 
L 18.109375 54.6875 
L 18.109375 46.390625 
Q 20.953125 51.265625 25.265625 53.625 
Q 29.59375 56 35.59375 56 
Q 45.5625 56 51.78125 48.09375 
Q 58.015625 40.1875 58.015625 27.296875 
Q 58.015625 14.40625 51.78125 6.484375 
Q 45.5625 -1.421875 35.59375 -1.421875 
Q 29.59375 -1.421875 25.265625 0.953125 
Q 20.953125 3.328125 18.109375 8.203125 
M 48.6875 27.296875 
Q 48.6875 37.203125 44.609375 42.84375 
Q 40.53125 48.484375 33.40625 48.484375 
Q 26.265625 48.484375 22.1875 42.84375 
Q 18.109375 37.203125 18.109375 27.296875 
Q 18.109375 17.390625 22.1875 11.75 
Q 26.265625 6.109375 33.40625 6.109375 
Q 40.53125 6.109375 44.609375 11.75 
Q 48.6875 17.390625 48.6875 27.296875 
" id="BitstreamVeraSans-Roman-70"/>
      <path d="M 54.890625 33.015625 
L 54.890625 0 
L 45.90625 0 
L 45.90625 32.71875 
Q 45.90625 40.484375 42.875 44.328125 
Q 39.84375 48.1875 33.796875 48.1875 
Q 26.515625 48.1875 22.3125 43.546875 
Q 18.109375 38.921875 18.109375 30.90625 
L 18.109375 0 
L 9.078125 0 
L 9.078125 54.6875 
L 18.109375 54.6875 
L 18.109375 46.1875 
Q 21.34375 51.125 25.703125 53.5625 
Q 30.078125 56 35.796875 56 
Q 45.21875 56 50.046875 50.171875 
Q 54.890625 44.34375 54.890625 33.015625 
" id="BitstreamVeraSans-Roman-6e"/>
      <path d="M 54.890625 54.6875 
L 35.109375 28.078125 
L 55.90625 0 
L 45.3125 0 
L 29.390625 21.484375 
L 13.484375 0 
L 2.875 0 
L 24.125 28.609375 
L 4.6875 54.6875 
L 15.28125 54.6875 
L 29.78125 35.203125 
L 44.28125 54.6875 
z
" id="BitstreamVeraSans-Roman-78"/>
     </defs>
     <g transform="translate(230.958979688 99.9129765625)rotate(-90.0)scale(0.1 -0.1)">
      <use transform="translate(0.0 0.125)" xlink:href="#Cmmi10-6e"/>
      <use transform="translate(60.009765625 0.125)" xlink:href="#BitstreamVeraSans-Roman-20"/>
      <use transform="translate(91.796875 0.125)" xlink:href="#BitstreamVeraSans-Roman-28"/>
      <use transform="translate(130.810546875 0.125)" xlink:href="#BitstreamVeraSans-Roman-65"/>
      <use transform="translate(192.333984375 0.125)" xlink:href="#BitstreamVeraSans-Roman-78"/>
      <use transform="translate(251.513671875 0.125)" xlink:href="#BitstreamVeraSans-Roman-70"/>
      <use transform="translate(314.990234375 0.125)" xlink:href="#BitstreamVeraSans-Roman-6f"/>
      <use transform="translate(376.171875 0.125)" xlink:href="#BitstreamVeraSans-Roman-6e"/>
      <use transform="translate(439.55078125 0.125)" xlink:href="#BitstreamVeraSans-Roman-65"/>
      <use transform="translate(501.07421875 0.125)" xlink:href="#BitstreamVeraSans-Roman-6e"/>
      <use transform="translate(564.453125 0.125)" xlink:href="#BitstreamVeraSans-Roman-74"/>
      <use transform="translate(603.662109375 0.125)" xlink:href="#BitstreamVeraSans-Roman-29"/>
     </g>
    </g>
   </g>
  </g>
 </g>
 <defs>
  <clipPath id="p54bf52537f">
   <rect height="113.064075" width="147.639296875" x="50.247228125" y="11.2309390625"/>
  </clipPath>
  <clipPath id="pbd1986a17b">
   <rect height="113.064075" width="147.639296875" x="267.586525" y="11.2309390625"/>
  </clipPath>
 </defs>
</svg>
