<?xml version="1.0" encoding="utf-8" standalone="no"?>
<!DOCTYPE svg PUBLIC "-//W3C//DTD SVG 1.1//EN"
  "http://www.w3.org/Graphics/SVG/1.1/DTD/svg11.dtd">
<!-- Created with matplotlib (http://matplotlib.org/) -->
<svg height="232pt" version="1.1" viewBox="0 0 282 232" width="282pt" xmlns="http://www.w3.org/2000/svg" xmlns:xlink="http://www.w3.org/1999/xlink">
 <defs>
  <style type="text/css">
*{stroke-linecap:butt;stroke-linejoin:round;}
  </style>
 </defs>
 <g id="figure_1">
  <g id="patch_1">
   <path d="
M0 232.634
L282.443 232.634
L282.443 0
L0 0
z
" style="fill:#ffffff;"/>
  </g>
  <g id="axes_1">
   <g id="patch_2">
    <path d="
M42.3934 194.12
L265.593 194.12
L265.593 21.32
L42.3934 21.32
z
" style="fill:#ffffff;"/>
   </g>
   <g id="line2d_1">
    <path clip-path="url(#p652fd3abf2)" d="
M42.3934 194.12
L44.648 194.12
L46.9025 194.013
L49.1571 194.12
L51.4116 193.907
L53.6662 193.8
L55.9207 194.013
L58.1753 193.8
L60.4298 193.694
L62.6843 193.694
L64.9389 193.268
L67.1934 193.161
L69.448 193.055
L71.7025 192.309
L73.9571 192.522
L76.2116 191.67
L78.4662 190.925
L80.7207 190.073
L82.9753 188.582
L85.2298 185.067
L87.4843 184.854
L89.7389 179.955
L91.9934 177.612
L94.248 175.162
L96.5025 168.239
L98.7571 160.571
L101.012 157.056
L103.266 147.684
L105.521 137.14
L107.775 124.679
L110.03 119.354
L112.284 101.141
L114.539 86.5503
L116.793 82.2901
L119.048 79.4145
L121.303 64.6104
L123.557 64.6104
L125.812 69.0836
L128.066 75.6868
L130.321 85.6983
L132.575 98.9049
L134.83 109.342
L137.084 119.78
L139.339 126.383
L141.593 141.187
L143.848 146.193
L146.103 150.986
L148.357 157.695
L150.612 157.908
L152.866 165.79
L155.121 167.068
L157.375 168.772
L159.63 175.375
L161.884 181.339
L164.139 187.197
L166.393 190.925
L168.648 192.416
L170.903 192.842
L173.157 193.481
L175.412 193.907
L177.666 194.12
L179.921 194.12
L182.175 194.12
L184.43 194.12
L186.684 194.12
L188.939 194.12
L191.193 194.12
L193.448 194.12
L195.703 194.12
L197.957 194.12
L200.212 194.12
L202.466 194.12
L204.721 194.12
L206.975 194.12
L209.23 194.12
L211.484 194.12
L213.739 194.12
L215.993 194.12
L218.248 194.12
L220.503 194.12
L222.757 194.12
L225.012 194.12
L227.266 194.12
L229.521 194.12
L231.775 194.12
L234.03 194.12
L236.284 194.12
L238.539 194.12
L240.793 194.12
L243.048 194.12
L245.303 194.12
L247.557 194.12
L249.812 194.12
L252.066 194.12
L254.321 194.12
L256.575 194.12
L258.83 194.12
L261.084 194.12
L263.339 194.12
L265.593 194.12
L265.593 194.12" style="fill:none;stroke:#4daf4a;stroke-linecap:square;stroke-width:2.0;"/>
   </g>
   <g id="line2d_2">
    <path clip-path="url(#p652fd3abf2)" d="
M42.3934 194.12
L44.648 194.12
L46.9025 194.12
L49.1571 193.906
L51.4116 194.12
L53.6662 194.12
L55.9207 194.12
L58.1753 193.799
L60.4298 193.799
L62.6843 193.692
L64.9389 193.692
L67.1934 193.265
L69.448 193.478
L71.7025 192.944
L73.9571 192.516
L76.2116 191.233
L78.4662 191.768
L80.7207 189.202
L82.9753 189.629
L85.2298 188.346
L87.4843 185.566
L89.7389 183.214
L91.9934 181.397
L94.248 176.264
L96.5025 174.019
L98.7571 166.855
L101.012 158.836
L103.266 150.497
L105.521 143.868
L107.775 130.289
L110.03 128.364
L112.284 114.678
L114.539 97.2505
L116.793 91.0491
L119.048 83.5647
L121.303 81.3194
L123.557 77.6841
L125.812 76.2942
L128.066 82.0678
L130.321 85.81
L132.575 97.3574
L134.83 106.873
L137.084 114.144
L139.339 122.27
L141.593 129.861
L143.848 139.591
L146.103 143.226
L148.357 143.654
L150.612 153.063
L152.866 154.987
L155.121 153.597
L157.375 155.736
L159.63 164.717
L161.884 172.736
L164.139 181.076
L166.393 184.818
L168.648 188.881
L170.903 191.661
L173.157 192.195
L175.412 193.585
L177.666 194.013
L179.921 194.12
L182.175 194.12
L184.43 194.12
L186.684 194.12
L188.939 194.12
L191.193 194.12
L193.448 194.12
L195.703 194.12
L197.957 194.12
L200.212 194.12
L202.466 194.12
L204.721 194.12
L206.975 194.12
L209.23 194.12
L211.484 194.12
L213.739 194.12
L215.993 194.12
L218.248 194.12
L220.503 194.12
L222.757 194.12
L225.012 194.12
L227.266 194.12
L229.521 194.12
L231.775 194.12
L234.03 194.12
L236.284 194.12
L238.539 194.12
L240.793 194.12
L243.048 194.12
L245.303 194.12
L247.557 194.12
L249.812 194.12
L252.066 194.12
L254.321 194.12
L256.575 194.12
L258.83 194.12
L261.084 194.12
L263.339 194.12
L265.593 194.12
L265.593 194.12" style="fill:none;stroke:#459d72;stroke-linecap:square;stroke-width:2.0;"/>
   </g>
   <g id="line2d_3">
    <path clip-path="url(#p652fd3abf2)" d="
M42.3934 194.12
L44.648 194.015
L46.9025 194.12
L49.1571 194.015
L51.4116 193.91
L53.6662 193.806
L55.9207 193.806
L58.1753 194.12
L60.4298 193.806
L62.6843 194.12
L64.9389 193.596
L67.1934 193.282
L69.448 193.177
L71.7025 192.862
L73.9571 192.129
L76.2116 192.024
L78.4662 190.871
L80.7207 189.928
L82.9753 189.195
L85.2298 186.889
L87.4843 186.784
L89.7389 185.212
L91.9934 180.915
L94.248 177.248
L96.5025 176.724
L98.7571 168.759
L101.012 162.995
L103.266 155.554
L105.521 146.961
L107.775 136.272
L110.03 131.765
L112.284 121.914
L114.539 104.727
L116.793 104.518
L119.048 94.9812
L121.303 88.5886
L123.557 83.9775
L125.812 91.5229
L128.066 86.4926
L130.321 88.4838
L132.575 95.086
L134.83 104.832
L137.084 114.578
L139.339 124.22
L141.593 124.953
L143.848 131.556
L146.103 138.787
L148.357 142.769
L150.612 144.131
L152.866 146.123
L155.121 144.551
L157.375 145.389
L159.63 151.991
L161.884 161.213
L164.139 172.008
L166.393 180.811
L168.648 186.365
L170.903 189.928
L173.157 190.557
L175.412 191.71
L177.666 193.282
L179.921 194.12
L182.175 194.015
L184.43 194.12
L186.684 194.12
L188.939 194.12
L191.193 194.12
L193.448 194.12
L195.703 194.12
L197.957 194.12
L200.212 194.12
L202.466 194.12
L204.721 194.12
L206.975 194.12
L209.23 194.12
L211.484 194.12
L213.739 194.12
L215.993 194.12
L218.248 194.12
L220.503 194.12
L222.757 194.12
L225.012 194.12
L227.266 194.12
L229.521 194.12
L231.775 194.12
L234.03 194.12
L236.284 194.12
L238.539 194.12
L240.793 194.12
L243.048 194.12
L245.303 194.12
L247.557 194.12
L249.812 194.12
L252.066 194.12
L254.321 194.12
L256.575 194.12
L258.83 194.12
L261.084 194.12
L263.339 194.12
L265.593 194.12
L265.593 194.12" style="fill:none;stroke:#3d8c99;stroke-linecap:square;stroke-width:2.0;"/>
   </g>
   <g id="line2d_4">
    <path clip-path="url(#p652fd3abf2)" d="
M42.3934 194.12
L44.648 194.013
L46.9025 193.906
L49.1571 193.906
L51.4116 194.12
L53.6662 194.013
L55.9207 194.12
L58.1753 194.013
L60.4298 193.906
L62.6843 193.692
L64.9389 193.906
L67.1934 193.585
L69.448 193.585
L71.7025 192.944
L73.9571 192.837
L76.2116 191.447
L78.4662 192.088
L80.7207 191.233
L82.9753 190.163
L85.2298 188.666
L87.4843 187.169
L89.7389 185.886
L91.9934 183.319
L94.248 180.218
L96.5025 176.903
L98.7571 171.984
L101.012 165.782
L103.266 162.895
L105.521 153.912
L107.775 145.571
L110.03 137.23
L112.284 132.739
L114.539 123.328
L116.793 112.421
L119.048 106.86
L121.303 96.7013
L123.557 95.525
L125.812 98.4122
L128.066 93.2793
L130.321 92.3169
L132.575 101.513
L134.83 104.828
L137.084 111.672
L139.339 116.271
L141.593 124.719
L143.848 129.638
L146.103 132.311
L148.357 133.487
L150.612 131.028
L152.866 130.386
L155.121 128.247
L157.375 131.669
L159.63 141.08
L161.884 153.698
L164.139 165.354
L166.393 171.343
L168.648 180.432
L170.903 183.319
L173.157 186.955
L175.412 190.805
L177.666 192.516
L179.921 193.265
L182.175 193.906
L184.43 194.12
L186.684 194.12
L188.939 194.12
L191.193 194.12
L193.448 194.12
L195.703 194.12
L197.957 194.12
L200.212 194.12
L202.466 194.12
L204.721 194.12
L206.975 194.12
L209.23 194.12
L211.484 194.12
L213.739 194.12
L215.993 194.12
L218.248 194.12
L220.503 194.12
L222.757 194.12
L225.012 194.12
L227.266 194.12
L229.521 194.12
L231.775 194.12
L234.03 194.12
L236.284 194.12
L238.539 194.12
L240.793 194.12
L243.048 194.12
L245.303 194.12
L247.557 194.12
L249.812 194.12
L252.066 194.12
L254.321 194.12
L256.575 194.12
L258.83 194.12
L261.084 194.12
L263.339 194.12
L265.593 194.12
L265.593 194.12" style="fill:none;stroke:#3f7ab6;stroke-linecap:square;stroke-width:2.0;"/>
   </g>
   <g id="line2d_5">
    <path clip-path="url(#p652fd3abf2)" d="
M42.3934 194.12
L44.648 194.017
L46.9025 194.12
L49.1571 194.12
L51.4116 194.12
L53.6662 194.017
L55.9207 193.915
L58.1753 194.12
L60.4298 193.915
L62.6843 194.017
L64.9389 194.017
L67.1934 193.812
L69.448 194.017
L71.7025 193.402
L73.9571 193.094
L76.2116 192.272
L78.4662 193.299
L80.7207 191.759
L82.9753 191.041
L85.2298 191.657
L87.4843 190.322
L89.7389 188.783
L91.9934 187.346
L94.248 186.422
L96.5025 181.598
L98.7571 177.492
L101.012 178.621
L103.266 173.181
L105.521 164.56
L107.775 157.478
L110.03 151.114
L112.284 145.263
L114.539 139.105
L116.793 136.95
L119.048 123.606
L121.303 122.375
L123.557 114.164
L125.812 114.061
L128.066 113.548
L130.321 118.269
L132.575 110.776
L134.83 121.451
L137.084 112.316
L139.339 119.603
L141.593 123.709
L143.848 128.533
L146.103 126.07
L148.357 124.222
L150.612 120.117
L152.866 115.498
L155.121 107.081
L157.375 109.853
L159.63 112.419
L161.884 117.961
L164.139 133.357
L166.393 144.134
L168.648 152.14
L170.903 165.278
L173.157 170.41
L175.412 180.777
L177.666 184.369
L179.921 189.091
L182.175 190.63
L184.43 192.991
L186.684 193.915
L188.939 193.812
L191.193 194.017
L193.448 194.12
L195.703 194.12
L197.957 194.12
L200.212 194.12
L202.466 194.12
L204.721 194.12
L206.975 194.12
L209.23 194.12
L211.484 194.12
L213.739 194.12
L215.993 194.12
L218.248 194.12
L220.503 194.12
L222.757 194.12
L225.012 194.12
L227.266 194.12
L229.521 194.12
L231.775 194.12
L234.03 194.12
L236.284 194.12
L238.539 194.12
L240.793 194.12
L243.048 194.12
L245.303 194.12
L247.557 194.12
L249.812 194.12
L252.066 194.12
L254.321 194.12
L256.575 194.12
L258.83 194.12
L261.084 194.12
L263.339 194.12
L265.593 194.12
L265.593 194.12" style="fill:none;stroke:#6468ae;stroke-linecap:square;stroke-width:2.0;"/>
   </g>
   <g id="line2d_6">
    <path clip-path="url(#p652fd3abf2)" d="
M42.3934 194.12
L44.648 194.017
L46.9025 194.12
L49.1571 194.017
L51.4116 194.12
L53.6662 194.017
L55.9207 193.915
L58.1753 194.12
L60.4298 194.12
L62.6843 193.812
L64.9389 194.017
L67.1934 193.812
L69.448 193.709
L71.7025 193.504
L73.9571 193.915
L76.2116 193.401
L78.4662 193.196
L80.7207 191.964
L82.9753 192.374
L85.2298 192.477
L87.4843 190.321
L89.7389 189.807
L91.9934 188.267
L94.248 187.959
L96.5025 185.597
L98.7571 183.338
L101.012 179.847
L103.266 176.458
L105.521 172.351
L107.775 167.422
L110.03 164.239
L112.284 157.564
L114.539 153.97
L116.793 151.198
L119.048 138.979
L121.303 134.255
L123.557 132.509
L125.812 125.527
L128.066 121.42
L130.321 126.143
L132.575 125.835
L134.83 124.5
L137.084 124.808
L139.339 125.322
L141.593 129.634
L143.848 126.759
L146.103 121.625
L148.357 119.469
L150.612 115.772
L152.866 105.093
L155.121 95.6458
L157.375 93.0787
L159.63 95.1324
L161.884 103.655
L164.139 114.745
L166.393 127.375
L168.648 136.001
L170.903 148.425
L173.157 153.149
L175.412 165.06
L177.666 174.713
L179.921 182.209
L182.175 188.164
L184.43 191.039
L186.684 192.785
L188.939 193.709
L191.193 194.017
L193.448 194.12
L195.703 194.12
L197.957 194.12
L200.212 194.12
L202.466 194.12
L204.721 194.12
L206.975 194.12
L209.23 194.12
L211.484 194.12
L213.739 194.12
L215.993 194.12
L218.248 194.12
L220.503 194.12
L222.757 194.12
L225.012 194.12
L227.266 194.12
L229.521 194.12
L231.775 194.12
L234.03 194.12
L236.284 194.12
L238.539 194.12
L240.793 194.12
L243.048 194.12
L245.303 194.12
L247.557 194.12
L249.812 194.12
L252.066 194.12
L254.321 194.12
L256.575 194.12
L258.83 194.12
L261.084 194.12
L263.339 194.12
L265.593 194.12
L265.593 194.12" style="fill:none;stroke:#8757a7;stroke-linecap:square;stroke-width:2.0;"/>
   </g>
   <g id="line2d_7">
    <path clip-path="url(#p652fd3abf2)" d="
M42.3934 194.12
L44.648 193.906
L46.9025 194.12
L49.1571 194.12
L51.4116 194.013
L53.6662 194.12
L55.9207 194.013
L58.1753 194.12
L60.4298 194.12
L62.6843 194.12
L64.9389 194.12
L67.1934 194.12
L69.448 193.799
L71.7025 193.906
L73.9571 193.692
L76.2116 193.906
L78.4662 193.692
L80.7207 192.837
L82.9753 193.051
L85.2298 192.623
L87.4843 191.661
L89.7389 191.233
L91.9934 190.592
L94.248 189.202
L96.5025 187.063
L98.7571 186.636
L101.012 186.101
L103.266 183
L105.521 181.29
L107.775 179.579
L110.03 172.308
L112.284 166.535
L114.539 166.214
L116.793 161.402
L119.048 158.836
L121.303 154.773
L123.557 153.063
L125.812 146.327
L128.066 146.541
L130.321 137.88
L132.575 141.302
L134.83 140.553
L137.084 140.66
L139.339 139.591
L141.593 132.32
L143.848 137.239
L146.103 132.32
L148.357 125.157
L150.612 111.257
L152.866 100.672
L155.121 90.6214
L157.375 82.8163
L159.63 75.7596
L161.884 80.0364
L164.139 89.4453
L166.393 96.7159
L168.648 108.156
L170.903 116.282
L173.157 124.622
L175.412 142.264
L177.666 155.736
L179.921 167.283
L182.175 175.088
L184.43 183.321
L186.684 188.132
L188.939 191.661
L191.193 192.623
L193.448 193.478
L195.703 194.12
L197.957 194.013
L200.212 194.12
L202.466 194.12
L204.721 194.12
L206.975 194.12
L209.23 194.12
L211.484 194.12
L213.739 194.12
L215.993 194.12
L218.248 194.12
L220.503 194.12
L222.757 194.12
L225.012 194.12
L227.266 194.12
L229.521 194.12
L231.775 194.12
L234.03 194.12
L236.284 194.12
L238.539 194.12
L240.793 194.12
L243.048 194.12
L245.303 194.12
L247.557 194.12
L249.812 194.12
L252.066 194.12
L254.321 194.12
L256.575 194.12
L258.83 194.12
L261.084 194.12
L263.339 194.12
L265.593 194.12
L265.593 194.12" style="fill:none;stroke:#a6458b;stroke-linecap:square;stroke-width:2.0;"/>
   </g>
   <g id="line2d_8">
    <path clip-path="url(#p652fd3abf2)" d="
M42.3934 194.12
L44.648 194.12
L46.9025 194.12
L49.1571 194.12
L51.4116 194.12
L53.6662 194.12
L55.9207 193.94
L58.1753 194.03
L60.4298 193.94
L62.6843 194.12
L64.9389 194.12
L67.1934 194.03
L69.448 193.94
L71.7025 193.94
L73.9571 193.761
L76.2116 193.491
L78.4662 193.581
L80.7207 193.491
L82.9753 193.222
L85.2298 193.401
L87.4843 192.772
L89.7389 192.233
L91.9934 192.413
L94.248 189.897
L96.5025 190.346
L98.7571 189.538
L101.012 186.752
L103.266 185.674
L105.521 184.955
L107.775 183.787
L110.03 178.936
L112.284 175.881
L114.539 176.33
L116.793 170.22
L119.048 168.693
L121.303 163.482
L123.557 160.067
L125.812 163.661
L128.066 155.755
L130.321 155.126
L132.575 154.317
L134.83 152.879
L137.084 152.7
L139.339 147.489
L141.593 142.816
L143.848 140.57
L146.103 137.965
L148.357 128.53
L150.612 118.827
L152.866 105.349
L155.121 93.2199
L157.375 83.1568
L159.63 74.4415
L161.884 78.1253
L164.139 75.6994
L166.393 81.0903
L168.648 90.3447
L170.903 92.3214
L173.157 101.666
L175.412 117.749
L177.666 131.406
L179.921 146.5
L182.175 160.876
L184.43 170.849
L186.684 180.643
L188.939 186.483
L191.193 190.077
L193.448 192.503
L195.703 193.401
L197.957 193.85
L200.212 194.12
L202.466 194.03
L204.721 194.12
L206.975 194.12
L209.23 194.12
L211.484 194.12
L213.739 194.12
L215.993 194.12
L218.248 194.12
L220.503 194.12
L222.757 194.12
L225.012 194.12
L227.266 194.12
L229.521 194.12
L231.775 194.12
L234.03 194.12
L236.284 194.12
L238.539 194.12
L240.793 194.12
L243.048 194.12
L245.303 194.12
L247.557 194.12
L249.812 194.12
L252.066 194.12
L254.321 194.12
L256.575 194.12
L258.83 194.12
L261.084 194.12
L263.339 194.12
L265.593 194.12
L265.593 194.12" style="fill:none;stroke:#c1325a;stroke-linecap:square;stroke-width:2.0;"/>
   </g>
   <g id="line2d_9">
    <path clip-path="url(#p652fd3abf2)" d="
M42.3934 194.12
L44.648 194.12
L46.9025 194.12
L49.1571 194.12
L51.4116 194.12
L53.6662 194.12
L55.9207 194.12
L58.1753 194.034
L60.4298 194.12
L62.6843 194.12
L64.9389 194.034
L67.1934 194.034
L69.448 194.12
L71.7025 194.12
L73.9571 194.12
L76.2116 193.949
L78.4662 194.034
L80.7207 193.863
L82.9753 193.607
L85.2298 193.179
L87.4843 193.094
L89.7389 192.666
L91.9934 192.409
L94.248 192.751
L96.5025 191.896
L98.7571 191.212
L101.012 190.527
L103.266 188.56
L105.521 188.047
L107.775 187.192
L110.03 184.283
L112.284 182.744
L114.539 180.947
L116.793 179.322
L119.048 177.184
L121.303 173.762
L123.557 174.361
L125.812 167.689
L128.066 168.459
L130.321 165.294
L132.575 165.722
L134.83 162.899
L137.084 162.814
L139.339 160.419
L141.593 151.78
L143.848 149.47
L146.103 142.285
L148.357 137.239
L150.612 129.369
L152.866 121.928
L155.121 109.439
L157.375 90.6214
L159.63 80.8703
L161.884 78.8175
L164.139 65.5594
L166.393 76.5935
L168.648 74.4551
L170.903 69.8362
L173.157 78.903
L175.412 94.385
L177.666 103.195
L179.921 117.138
L182.175 130.823
L184.43 154.688
L186.684 165.38
L188.939 176.329
L191.193 183.171
L193.448 188.988
L195.703 191.468
L197.957 193.179
L200.212 193.778
L202.466 194.12
L204.721 194.12
L206.975 194.12
L209.23 194.12
L211.484 194.12
L213.739 194.12
L215.993 194.12
L218.248 194.12
L220.503 194.12
L222.757 194.12
L225.012 194.12
L227.266 194.12
L229.521 194.12
L231.775 194.12
L234.03 194.12
L236.284 194.12
L238.539 194.12
L240.793 194.12
L243.048 194.12
L245.303 194.12
L247.557 194.12
L249.812 194.12
L252.066 194.12
L254.321 194.12
L256.575 194.12
L258.83 194.12
L261.084 194.12
L263.339 194.12
L265.593 194.12
L265.593 194.12" style="fill:none;stroke:#de1e27;stroke-linecap:square;stroke-width:2.0;"/>
   </g>
   <g id="line2d_10">
    <path clip-path="url(#p652fd3abf2)" d="
M42.3934 194.12
L44.648 194.12
L46.9025 194.12
L49.1571 194.12
L51.4116 194.12
L53.6662 194.12
L55.9207 194.12
L58.1753 194.12
L60.4298 194.12
L62.6843 194.12
L64.9389 194.12
L67.1934 194.12
L69.448 193.949
L71.7025 194.12
L73.9571 194.034
L76.2116 193.778
L78.4662 194.034
L80.7207 194.034
L82.9753 194.034
L85.2298 193.949
L87.4843 194.034
L89.7389 193.607
L91.9934 193.692
L94.248 193.521
L96.5025 193.778
L98.7571 193.265
L101.012 192.324
L103.266 192.238
L105.521 192.409
L107.775 191.041
L110.03 190.87
L112.284 191.041
L114.539 189.416
L116.793 189.244
L119.048 187.277
L121.303 186.849
L123.557 186.165
L125.812 185.566
L128.066 185.395
L130.321 184.454
L132.575 184.283
L134.83 180.092
L137.084 179.408
L139.339 177.013
L141.593 173.591
L143.848 167.176
L146.103 166.748
L148.357 162.899
L150.612 155.971
L152.866 151.01
L155.121 139.291
L157.375 124.75
L159.63 114.828
L161.884 102.511
L164.139 97.1222
L166.393 84.9761
L168.648 68.2965
L170.903 62.2235
L173.157 53.5844
L175.412 52.9856
L177.666 56.407
L179.921 59.1442
L182.175 68.9808
L184.43 91.3913
L186.684 103.794
L188.939 128.514
L191.193 145.963
L193.448 161.36
L195.703 171.966
L197.957 184.112
L200.212 188.988
L202.466 191.982
L204.721 193.692
L206.975 193.863
L209.23 194.12
L211.484 194.12
L213.739 194.12
L215.993 194.12
L218.248 194.12
L220.503 194.12
L222.757 194.12
L225.012 194.12
L227.266 194.12
L229.521 194.12
L231.775 194.12
L234.03 194.12
L236.284 194.12
L238.539 194.12
L240.793 194.12
L243.048 194.12
L245.303 194.12
L247.557 194.12
L249.812 194.12
L252.066 194.12
L254.321 194.12
L256.575 194.12
L258.83 194.12
L261.084 194.12
L263.339 194.12
L265.593 194.12
L265.593 194.12" style="fill:none;stroke:#ec3614;stroke-linecap:square;stroke-width:2.0;"/>
   </g>
   <g id="line2d_11">
    <path clip-path="url(#p652fd3abf2)" d="
M42.3934 194.12
L44.648 194.12
L46.9025 194.12
L49.1571 194.12
L51.4116 194.12
L53.6662 194.12
L55.9207 194.12
L58.1753 194.12
L60.4298 194.12
L62.6843 193.991
L64.9389 194.12
L67.1934 194.12
L69.448 194.12
L71.7025 194.12
L73.9571 194.12
L76.2116 194.12
L78.4662 194.12
L80.7207 194.12
L82.9753 194.12
L85.2298 194.12
L87.4843 193.991
L89.7389 193.991
L91.9934 193.862
L94.248 193.991
L96.5025 193.991
L98.7571 193.862
L101.012 193.862
L103.266 193.734
L105.521 193.218
L107.775 193.089
L110.03 192.832
L112.284 192.059
L114.539 192.703
L116.793 191.801
L119.048 191.415
L121.303 192.188
L123.557 191.544
L125.812 191.801
L128.066 189.483
L130.321 190.127
L132.575 189.096
L134.83 186.648
L137.084 186.004
L139.339 186.648
L141.593 183.686
L143.848 178.662
L146.103 174.797
L148.357 174.926
L150.612 169.644
L152.866 163.59
L155.121 155.217
L157.375 144.653
L159.63 142.592
L161.884 128.68
L164.139 112.964
L166.393 103.302
L168.648 94.0274
L170.903 75.8639
L173.157 74.5757
L175.412 58.6021
L177.666 51.5171
L179.921 40.9539
L182.175 48.0389
L184.43 45.2049
L186.684 60.4056
L188.939 84.8813
L191.193 104.333
L193.448 123.269
L195.703 141.562
L197.957 164.363
L200.212 176.085
L202.466 184.459
L204.721 189.869
L206.975 192.445
L209.23 193.347
L211.484 193.991
L213.739 194.12
L215.993 194.12
L218.248 194.12
L220.503 194.12
L222.757 194.12
L225.012 194.12
L227.266 194.12
L229.521 194.12
L231.775 194.12
L234.03 194.12
L236.284 194.12
L238.539 194.12
L240.793 194.12
L243.048 194.12
L245.303 194.12
L247.557 194.12
L249.812 194.12
L252.066 194.12
L254.321 194.12
L256.575 194.12
L258.83 194.12
L261.084 194.12
L263.339 194.12
L265.593 194.12
L265.593 194.12" style="fill:none;stroke:#f55b0a;stroke-linecap:square;stroke-width:2.0;"/>
   </g>
   <g id="line2d_12">
    <path clip-path="url(#p652fd3abf2)" d="
M42.3934 194.12
L44.648 194.12
L46.9025 194.12
L49.1571 194.12
L51.4116 194.12
L53.6662 194.12
L55.9207 194.12
L58.1753 194.12
L60.4298 194.12
L62.6843 194.12
L64.9389 194.12
L67.1934 194.12
L69.448 194.12
L71.7025 194.12
L73.9571 194.12
L76.2116 194.12
L78.4662 194.12
L80.7207 194.12
L82.9753 194.12
L85.2298 194.12
L87.4843 194.12
L89.7389 193.906
L91.9934 193.906
L94.248 194.12
L96.5025 194.12
L98.7571 194.12
L101.012 194.12
L103.266 194.12
L105.521 193.906
L107.775 194.12
L110.03 193.906
L112.284 194.12
L114.539 193.906
L116.793 193.692
L119.048 193.692
L121.303 193.692
L123.557 192.837
L125.812 192.409
L128.066 192.409
L130.321 192.837
L132.575 191.768
L134.83 192.195
L137.084 190.912
L139.339 190.271
L141.593 187.063
L143.848 188.346
L146.103 188.132
L148.357 184.283
L150.612 183
L152.866 178.51
L155.121 174.447
L157.375 171.667
L159.63 160.975
L161.884 155.201
L164.139 147.931
L166.393 134.245
L168.648 128.257
L170.903 115.855
L173.157 113.502
L175.412 79.0741
L177.666 79.7156
L179.921 51.061
L182.175 42.7213
L184.43 40.5829
L186.684 28.1802
L188.939 34.1677
L191.193 48.7088
L193.448 60.0423
L195.703 88.6969
L197.957 108.584
L200.212 132.748
L202.466 154.773
L204.721 171.239
L206.975 183.214
L209.23 187.919
L211.484 191.34
L213.739 193.478
L215.993 193.692
L218.248 194.12
L220.503 194.12
L222.757 194.12
L225.012 194.12
L227.266 194.12
L229.521 194.12
L231.775 194.12
L234.03 194.12
L236.284 194.12
L238.539 194.12
L240.793 194.12
L243.048 194.12
L245.303 194.12
L247.557 194.12
L249.812 194.12
L252.066 194.12
L254.321 194.12
L256.575 194.12
L258.83 194.12
L261.084 194.12
L263.339 194.12
L265.593 194.12
L265.593 194.12" style="fill:none;stroke:#ff7f00;stroke-linecap:square;stroke-width:2.0;"/>
   </g>
   <g id="patch_3">
    <path d="
M42.3934 194.12
L42.3934 21.32" style="fill:none;stroke:#000000;stroke-linecap:square;stroke-linejoin:miter;"/>
   </g>
   <g id="patch_4">
    <path d="
M42.3934 21.32
L265.593 21.32" style="fill:none;stroke:#000000;stroke-linecap:square;stroke-linejoin:miter;"/>
   </g>
   <g id="patch_5">
    <path d="
M42.3934 194.12
L265.593 194.12" style="fill:none;stroke:#000000;stroke-linecap:square;stroke-linejoin:miter;"/>
   </g>
   <g id="patch_6">
    <path d="
M265.593 194.12
L265.593 21.32" style="fill:none;stroke:#000000;stroke-linecap:square;stroke-linejoin:miter;"/>
   </g>
   <g id="matplotlib.axis_1">
    <g id="xtick_1">
     <g id="line2d_13">
      <defs>
       <path d="
M0 0
L0 -4" id="mc7db9fdffb" style="stroke:#000000;stroke-width:0.5;"/>
      </defs>
      <g>
       <use style="stroke:#000000;stroke-width:0.5;" x="42.3934375" xlink:href="#mc7db9fdffb" y="194.12"/>
      </g>
     </g>
     <g id="line2d_14">
      <defs>
       <path d="
M0 0
L0 4" id="m5a7d422ac3" style="stroke:#000000;stroke-width:0.5;"/>
      </defs>
      <g>
       <use style="stroke:#000000;stroke-width:0.5;" x="42.3934375" xlink:href="#m5a7d422ac3" y="21.32"/>
      </g>
     </g>
     <g id="text_1">
      <!-- $\mathdefault{10^{-2}}$ -->
      <defs>
       <path d="
M31.7812 66.4062
Q24.1719 66.4062 20.3281 58.9062
Q16.5 51.4219 16.5 36.375
Q16.5 21.3906 20.3281 13.8906
Q24.1719 6.39062 31.7812 6.39062
Q39.4531 6.39062 43.2812 13.8906
Q47.125 21.3906 47.125 36.375
Q47.125 51.4219 43.2812 58.9062
Q39.4531 66.4062 31.7812 66.4062
M31.7812 74.2188
Q44.0469 74.2188 50.5156 64.5156
Q56.9844 54.8281 56.9844 36.375
Q56.9844 17.9688 50.5156 8.26562
Q44.0469 -1.42188 31.7812 -1.42188
Q19.5312 -1.42188 13.0625 8.26562
Q6.59375 17.9688 6.59375 36.375
Q6.59375 54.8281 13.0625 64.5156
Q19.5312 74.2188 31.7812 74.2188" id="BitstreamVeraSans-Roman-30"/>
       <path d="
M12.4062 8.29688
L28.5156 8.29688
L28.5156 63.9219
L10.9844 60.4062
L10.9844 69.3906
L28.4219 72.9062
L38.2812 72.9062
L38.2812 8.29688
L54.3906 8.29688
L54.3906 0
L12.4062 0
z
" id="BitstreamVeraSans-Roman-31"/>
       <path d="
M4.89062 31.3906
L31.2031 31.3906
L31.2031 23.3906
L4.89062 23.3906
z
" id="BitstreamVeraSans-Roman-2d"/>
       <path d="
M19.1875 8.29688
L53.6094 8.29688
L53.6094 0
L7.32812 0
L7.32812 8.29688
Q12.9375 14.1094 22.625 23.8906
Q32.3281 33.6875 34.8125 36.5312
Q39.5469 41.8438 41.4219 45.5312
Q43.3125 49.2188 43.3125 52.7812
Q43.3125 58.5938 39.2344 62.25
Q35.1562 65.9219 28.6094 65.9219
Q23.9688 65.9219 18.8125 64.3125
Q13.6719 62.7031 7.8125 59.4219
L7.8125 69.3906
Q13.7656 71.7812 18.9375 73
Q24.125 74.2188 28.4219 74.2188
Q39.75 74.2188 46.4844 68.5469
Q53.2188 62.8906 53.2188 53.4219
Q53.2188 48.9219 51.5312 44.8906
Q49.8594 40.875 45.4062 35.4062
Q44.1875 33.9844 37.6406 27.2188
Q31.1094 20.4531 19.1875 8.29688" id="BitstreamVeraSans-Roman-32"/>
      </defs>
      <g transform="translate(31.4434375 206.7403125)scale(0.1 -0.1)">
       <use transform="translate(0.0 0.546875)" xlink:href="#BitstreamVeraSans-Roman-31"/>
       <use transform="translate(63.623046875 0.546875)" xlink:href="#BitstreamVeraSans-Roman-30"/>
       <use transform="translate(127.24609375 53.046875)scale(0.7)" xlink:href="#BitstreamVeraSans-Roman-2d"/>
       <use transform="translate(152.5048828125 53.046875)scale(0.7)" xlink:href="#BitstreamVeraSans-Roman-32"/>
      </g>
     </g>
    </g>
    <g id="xtick_2">
     <g id="line2d_15">
      <g>
       <use style="stroke:#000000;stroke-width:0.5;" x="98.1934375" xlink:href="#mc7db9fdffb" y="194.12"/>
      </g>
     </g>
     <g id="line2d_16">
      <g>
       <use style="stroke:#000000;stroke-width:0.5;" x="98.1934375" xlink:href="#m5a7d422ac3" y="21.32"/>
      </g>
     </g>
     <g id="text_2">
      <!-- $\mathdefault{10^{-1}}$ -->
      <g transform="translate(87.2434375 206.6403125)scale(0.1 -0.1)">
       <use transform="translate(0.0 0.46562500000000284)" xlink:href="#BitstreamVeraSans-Roman-31"/>
       <use transform="translate(63.623046875 0.46562500000000284)" xlink:href="#BitstreamVeraSans-Roman-30"/>
       <use transform="translate(127.24609375 52.965625)scale(0.7)" xlink:href="#BitstreamVeraSans-Roman-2d"/>
       <use transform="translate(152.5048828125 52.965625)scale(0.7)" xlink:href="#BitstreamVeraSans-Roman-31"/>
      </g>
     </g>
    </g>
    <g id="xtick_3">
     <g id="line2d_17">
      <g>
       <use style="stroke:#000000;stroke-width:0.5;" x="153.9934375" xlink:href="#mc7db9fdffb" y="194.12"/>
      </g>
     </g>
     <g id="line2d_18">
      <g>
       <use style="stroke:#000000;stroke-width:0.5;" x="153.9934375" xlink:href="#m5a7d422ac3" y="21.32"/>
      </g>
     </g>
     <g id="text_3">
      <!-- $\mathdefault{10^{0}}$ -->
      <g transform="translate(144.3434375 206.7403125)scale(0.1 -0.1)">
       <use transform="translate(0.0 0.546875)" xlink:href="#BitstreamVeraSans-Roman-31"/>
       <use transform="translate(63.623046875 0.546875)" xlink:href="#BitstreamVeraSans-Roman-30"/>
       <use transform="translate(127.24609375 53.046875)scale(0.7)" xlink:href="#BitstreamVeraSans-Roman-30"/>
      </g>
     </g>
    </g>
    <g id="xtick_4">
     <g id="line2d_19">
      <g>
       <use style="stroke:#000000;stroke-width:0.5;" x="209.7934375" xlink:href="#mc7db9fdffb" y="194.12"/>
      </g>
     </g>
     <g id="line2d_20">
      <g>
       <use style="stroke:#000000;stroke-width:0.5;" x="209.7934375" xlink:href="#m5a7d422ac3" y="21.32"/>
      </g>
     </g>
     <g id="text_4">
      <!-- $\mathdefault{10^{1}}$ -->
      <g transform="translate(200.1434375 206.6403125)scale(0.1 -0.1)">
       <use transform="translate(0.0 0.46562500000000284)" xlink:href="#BitstreamVeraSans-Roman-31"/>
       <use transform="translate(63.623046875 0.46562500000000284)" xlink:href="#BitstreamVeraSans-Roman-30"/>
       <use transform="translate(127.24609375 52.965625)scale(0.7)" xlink:href="#BitstreamVeraSans-Roman-31"/>
      </g>
     </g>
    </g>
    <g id="xtick_5">
     <g id="line2d_21">
      <g>
       <use style="stroke:#000000;stroke-width:0.5;" x="265.5934375" xlink:href="#mc7db9fdffb" y="194.12"/>
      </g>
     </g>
     <g id="line2d_22">
      <g>
       <use style="stroke:#000000;stroke-width:0.5;" x="265.5934375" xlink:href="#m5a7d422ac3" y="21.32"/>
      </g>
     </g>
     <g id="text_5">
      <!-- $\mathdefault{10^{2}}$ -->
      <g transform="translate(255.9434375 206.7403125)scale(0.1 -0.1)">
       <use transform="translate(0.0 0.546875)" xlink:href="#BitstreamVeraSans-Roman-31"/>
       <use transform="translate(63.623046875 0.546875)" xlink:href="#BitstreamVeraSans-Roman-30"/>
       <use transform="translate(127.24609375 53.046875)scale(0.7)" xlink:href="#BitstreamVeraSans-Roman-32"/>
      </g>
     </g>
    </g>
    <g id="xtick_6">
     <g id="line2d_23">
      <defs>
       <path d="
M0 0
L0 -2" id="mc21db286a6" style="stroke:#000000;stroke-width:0.5;"/>
      </defs>
      <g>
       <use style="stroke:#000000;stroke-width:0.5;" x="59.1909112581" xlink:href="#mc21db286a6" y="194.12"/>
      </g>
     </g>
     <g id="line2d_24">
      <defs>
       <path d="
M0 0
L0 2" id="ma9c915e141" style="stroke:#000000;stroke-width:0.5;"/>
      </defs>
      <g>
       <use style="stroke:#000000;stroke-width:0.5;" x="59.1909112581" xlink:href="#ma9c915e141" y="21.32"/>
      </g>
     </g>
    </g>
    <g id="xtick_7">
     <g id="line2d_25">
      <g>
       <use style="stroke:#000000;stroke-width:0.5;" x="69.0168035134" xlink:href="#mc21db286a6" y="194.12"/>
      </g>
     </g>
     <g id="line2d_26">
      <g>
       <use style="stroke:#000000;stroke-width:0.5;" x="69.0168035134" xlink:href="#ma9c915e141" y="21.32"/>
      </g>
     </g>
    </g>
    <g id="xtick_8">
     <g id="line2d_27">
      <g>
       <use style="stroke:#000000;stroke-width:0.5;" x="75.9883850161" xlink:href="#mc21db286a6" y="194.12"/>
      </g>
     </g>
     <g id="line2d_28">
      <g>
       <use style="stroke:#000000;stroke-width:0.5;" x="75.9883850161" xlink:href="#ma9c915e141" y="21.32"/>
      </g>
     </g>
    </g>
    <g id="xtick_9">
     <g id="line2d_29">
      <g>
       <use style="stroke:#000000;stroke-width:0.5;" x="81.3959637419" xlink:href="#mc21db286a6" y="194.12"/>
      </g>
     </g>
     <g id="line2d_30">
      <g>
       <use style="stroke:#000000;stroke-width:0.5;" x="81.3959637419" xlink:href="#ma9c915e141" y="21.32"/>
      </g>
     </g>
    </g>
    <g id="xtick_10">
     <g id="line2d_31">
      <g>
       <use style="stroke:#000000;stroke-width:0.5;" x="85.8142772714" xlink:href="#mc21db286a6" y="194.12"/>
      </g>
     </g>
     <g id="line2d_32">
      <g>
       <use style="stroke:#000000;stroke-width:0.5;" x="85.8142772714" xlink:href="#ma9c915e141" y="21.32"/>
      </g>
     </g>
    </g>
    <g id="xtick_11">
     <g id="line2d_33">
      <g>
       <use style="stroke:#000000;stroke-width:0.5;" x="89.5499081328" xlink:href="#mc21db286a6" y="194.12"/>
      </g>
     </g>
     <g id="line2d_34">
      <g>
       <use style="stroke:#000000;stroke-width:0.5;" x="89.5499081328" xlink:href="#ma9c915e141" y="21.32"/>
      </g>
     </g>
    </g>
    <g id="xtick_12">
     <g id="line2d_35">
      <g>
       <use style="stroke:#000000;stroke-width:0.5;" x="92.7858587742" xlink:href="#mc21db286a6" y="194.12"/>
      </g>
     </g>
     <g id="line2d_36">
      <g>
       <use style="stroke:#000000;stroke-width:0.5;" x="92.7858587742" xlink:href="#ma9c915e141" y="21.32"/>
      </g>
     </g>
    </g>
    <g id="xtick_13">
     <g id="line2d_37">
      <g>
       <use style="stroke:#000000;stroke-width:0.5;" x="95.6401695267" xlink:href="#mc21db286a6" y="194.12"/>
      </g>
     </g>
     <g id="line2d_38">
      <g>
       <use style="stroke:#000000;stroke-width:0.5;" x="95.6401695267" xlink:href="#ma9c915e141" y="21.32"/>
      </g>
     </g>
    </g>
    <g id="xtick_14">
     <g id="line2d_39">
      <g>
       <use style="stroke:#000000;stroke-width:0.5;" x="114.990911258" xlink:href="#mc21db286a6" y="194.12"/>
      </g>
     </g>
     <g id="line2d_40">
      <g>
       <use style="stroke:#000000;stroke-width:0.5;" x="114.990911258" xlink:href="#ma9c915e141" y="21.32"/>
      </g>
     </g>
    </g>
    <g id="xtick_15">
     <g id="line2d_41">
      <g>
       <use style="stroke:#000000;stroke-width:0.5;" x="124.816803513" xlink:href="#mc21db286a6" y="194.12"/>
      </g>
     </g>
     <g id="line2d_42">
      <g>
       <use style="stroke:#000000;stroke-width:0.5;" x="124.816803513" xlink:href="#ma9c915e141" y="21.32"/>
      </g>
     </g>
    </g>
    <g id="xtick_16">
     <g id="line2d_43">
      <g>
       <use style="stroke:#000000;stroke-width:0.5;" x="131.788385016" xlink:href="#mc21db286a6" y="194.12"/>
      </g>
     </g>
     <g id="line2d_44">
      <g>
       <use style="stroke:#000000;stroke-width:0.5;" x="131.788385016" xlink:href="#ma9c915e141" y="21.32"/>
      </g>
     </g>
    </g>
    <g id="xtick_17">
     <g id="line2d_45">
      <g>
       <use style="stroke:#000000;stroke-width:0.5;" x="137.195963742" xlink:href="#mc21db286a6" y="194.12"/>
      </g>
     </g>
     <g id="line2d_46">
      <g>
       <use style="stroke:#000000;stroke-width:0.5;" x="137.195963742" xlink:href="#ma9c915e141" y="21.32"/>
      </g>
     </g>
    </g>
    <g id="xtick_18">
     <g id="line2d_47">
      <g>
       <use style="stroke:#000000;stroke-width:0.5;" x="141.614277271" xlink:href="#mc21db286a6" y="194.12"/>
      </g>
     </g>
     <g id="line2d_48">
      <g>
       <use style="stroke:#000000;stroke-width:0.5;" x="141.614277271" xlink:href="#ma9c915e141" y="21.32"/>
      </g>
     </g>
    </g>
    <g id="xtick_19">
     <g id="line2d_49">
      <g>
       <use style="stroke:#000000;stroke-width:0.5;" x="145.349908133" xlink:href="#mc21db286a6" y="194.12"/>
      </g>
     </g>
     <g id="line2d_50">
      <g>
       <use style="stroke:#000000;stroke-width:0.5;" x="145.349908133" xlink:href="#ma9c915e141" y="21.32"/>
      </g>
     </g>
    </g>
    <g id="xtick_20">
     <g id="line2d_51">
      <g>
       <use style="stroke:#000000;stroke-width:0.5;" x="148.585858774" xlink:href="#mc21db286a6" y="194.12"/>
      </g>
     </g>
     <g id="line2d_52">
      <g>
       <use style="stroke:#000000;stroke-width:0.5;" x="148.585858774" xlink:href="#ma9c915e141" y="21.32"/>
      </g>
     </g>
    </g>
    <g id="xtick_21">
     <g id="line2d_53">
      <g>
       <use style="stroke:#000000;stroke-width:0.5;" x="151.440169527" xlink:href="#mc21db286a6" y="194.12"/>
      </g>
     </g>
     <g id="line2d_54">
      <g>
       <use style="stroke:#000000;stroke-width:0.5;" x="151.440169527" xlink:href="#ma9c915e141" y="21.32"/>
      </g>
     </g>
    </g>
    <g id="xtick_22">
     <g id="line2d_55">
      <g>
       <use style="stroke:#000000;stroke-width:0.5;" x="170.790911258" xlink:href="#mc21db286a6" y="194.12"/>
      </g>
     </g>
     <g id="line2d_56">
      <g>
       <use style="stroke:#000000;stroke-width:0.5;" x="170.790911258" xlink:href="#ma9c915e141" y="21.32"/>
      </g>
     </g>
    </g>
    <g id="xtick_23">
     <g id="line2d_57">
      <g>
       <use style="stroke:#000000;stroke-width:0.5;" x="180.616803513" xlink:href="#mc21db286a6" y="194.12"/>
      </g>
     </g>
     <g id="line2d_58">
      <g>
       <use style="stroke:#000000;stroke-width:0.5;" x="180.616803513" xlink:href="#ma9c915e141" y="21.32"/>
      </g>
     </g>
    </g>
    <g id="xtick_24">
     <g id="line2d_59">
      <g>
       <use style="stroke:#000000;stroke-width:0.5;" x="187.588385016" xlink:href="#mc21db286a6" y="194.12"/>
      </g>
     </g>
     <g id="line2d_60">
      <g>
       <use style="stroke:#000000;stroke-width:0.5;" x="187.588385016" xlink:href="#ma9c915e141" y="21.32"/>
      </g>
     </g>
    </g>
    <g id="xtick_25">
     <g id="line2d_61">
      <g>
       <use style="stroke:#000000;stroke-width:0.5;" x="192.995963742" xlink:href="#mc21db286a6" y="194.12"/>
      </g>
     </g>
     <g id="line2d_62">
      <g>
       <use style="stroke:#000000;stroke-width:0.5;" x="192.995963742" xlink:href="#ma9c915e141" y="21.32"/>
      </g>
     </g>
    </g>
    <g id="xtick_26">
     <g id="line2d_63">
      <g>
       <use style="stroke:#000000;stroke-width:0.5;" x="197.414277271" xlink:href="#mc21db286a6" y="194.12"/>
      </g>
     </g>
     <g id="line2d_64">
      <g>
       <use style="stroke:#000000;stroke-width:0.5;" x="197.414277271" xlink:href="#ma9c915e141" y="21.32"/>
      </g>
     </g>
    </g>
    <g id="xtick_27">
     <g id="line2d_65">
      <g>
       <use style="stroke:#000000;stroke-width:0.5;" x="201.149908133" xlink:href="#mc21db286a6" y="194.12"/>
      </g>
     </g>
     <g id="line2d_66">
      <g>
       <use style="stroke:#000000;stroke-width:0.5;" x="201.149908133" xlink:href="#ma9c915e141" y="21.32"/>
      </g>
     </g>
    </g>
    <g id="xtick_28">
     <g id="line2d_67">
      <g>
       <use style="stroke:#000000;stroke-width:0.5;" x="204.385858774" xlink:href="#mc21db286a6" y="194.12"/>
      </g>
     </g>
     <g id="line2d_68">
      <g>
       <use style="stroke:#000000;stroke-width:0.5;" x="204.385858774" xlink:href="#ma9c915e141" y="21.32"/>
      </g>
     </g>
    </g>
    <g id="xtick_29">
     <g id="line2d_69">
      <g>
       <use style="stroke:#000000;stroke-width:0.5;" x="207.240169527" xlink:href="#mc21db286a6" y="194.12"/>
      </g>
     </g>
     <g id="line2d_70">
      <g>
       <use style="stroke:#000000;stroke-width:0.5;" x="207.240169527" xlink:href="#ma9c915e141" y="21.32"/>
      </g>
     </g>
    </g>
    <g id="xtick_30">
     <g id="line2d_71">
      <g>
       <use style="stroke:#000000;stroke-width:0.5;" x="226.590911258" xlink:href="#mc21db286a6" y="194.12"/>
      </g>
     </g>
     <g id="line2d_72">
      <g>
       <use style="stroke:#000000;stroke-width:0.5;" x="226.590911258" xlink:href="#ma9c915e141" y="21.32"/>
      </g>
     </g>
    </g>
    <g id="xtick_31">
     <g id="line2d_73">
      <g>
       <use style="stroke:#000000;stroke-width:0.5;" x="236.416803513" xlink:href="#mc21db286a6" y="194.12"/>
      </g>
     </g>
     <g id="line2d_74">
      <g>
       <use style="stroke:#000000;stroke-width:0.5;" x="236.416803513" xlink:href="#ma9c915e141" y="21.32"/>
      </g>
     </g>
    </g>
    <g id="xtick_32">
     <g id="line2d_75">
      <g>
       <use style="stroke:#000000;stroke-width:0.5;" x="243.388385016" xlink:href="#mc21db286a6" y="194.12"/>
      </g>
     </g>
     <g id="line2d_76">
      <g>
       <use style="stroke:#000000;stroke-width:0.5;" x="243.388385016" xlink:href="#ma9c915e141" y="21.32"/>
      </g>
     </g>
    </g>
    <g id="xtick_33">
     <g id="line2d_77">
      <g>
       <use style="stroke:#000000;stroke-width:0.5;" x="248.795963742" xlink:href="#mc21db286a6" y="194.12"/>
      </g>
     </g>
     <g id="line2d_78">
      <g>
       <use style="stroke:#000000;stroke-width:0.5;" x="248.795963742" xlink:href="#ma9c915e141" y="21.32"/>
      </g>
     </g>
    </g>
    <g id="xtick_34">
     <g id="line2d_79">
      <g>
       <use style="stroke:#000000;stroke-width:0.5;" x="253.214277271" xlink:href="#mc21db286a6" y="194.12"/>
      </g>
     </g>
     <g id="line2d_80">
      <g>
       <use style="stroke:#000000;stroke-width:0.5;" x="253.214277271" xlink:href="#ma9c915e141" y="21.32"/>
      </g>
     </g>
    </g>
    <g id="xtick_35">
     <g id="line2d_81">
      <g>
       <use style="stroke:#000000;stroke-width:0.5;" x="256.949908133" xlink:href="#mc21db286a6" y="194.12"/>
      </g>
     </g>
     <g id="line2d_82">
      <g>
       <use style="stroke:#000000;stroke-width:0.5;" x="256.949908133" xlink:href="#ma9c915e141" y="21.32"/>
      </g>
     </g>
    </g>
    <g id="xtick_36">
     <g id="line2d_83">
      <g>
       <use style="stroke:#000000;stroke-width:0.5;" x="260.185858774" xlink:href="#mc21db286a6" y="194.12"/>
      </g>
     </g>
     <g id="line2d_84">
      <g>
       <use style="stroke:#000000;stroke-width:0.5;" x="260.185858774" xlink:href="#ma9c915e141" y="21.32"/>
      </g>
     </g>
    </g>
    <g id="xtick_37">
     <g id="line2d_85">
      <g>
       <use style="stroke:#000000;stroke-width:0.5;" x="263.040169527" xlink:href="#mc21db286a6" y="194.12"/>
      </g>
     </g>
     <g id="line2d_86">
      <g>
       <use style="stroke:#000000;stroke-width:0.5;" x="263.040169527" xlink:href="#ma9c915e141" y="21.32"/>
      </g>
     </g>
    </g>
    <g id="text_6">
     <!-- $\Delta r$ -->
     <defs>
      <path d="
M5.42188 0
Q4.59375 0 4.59375 0.78125
Q4.64062 0.875 4.65625 0.921875
Q4.6875 0.984375 4.6875 1.125
L39.1094 70.5156
Q39.5469 71.5781 40.9219 71.5781
L42.2812 71.5781
Q43.6562 71.5781 44.0938 70.5156
L78.5156 1.125
Q78.5625 1.03125 78.5781 0.953125
Q78.6094 0.875 78.6094 0.78125
Q78.6094 0 77.7812 0
z

M12.0156 8.01562
L64.7031 8.01562
L38.375 61.0781
z
" id="Cmr10-a2"/>
      <path d="
M7.71875 1.70312
Q7.71875 2.29688 7.8125 2.59375
L15.2812 32.4219
Q16.0156 35.2031 16.0156 37.3125
Q16.0156 41.6094 13.0938 41.6094
Q9.96875 41.6094 8.45312 37.8594
Q6.9375 34.125 5.51562 28.4219
Q5.51562 28.125 5.21875 27.9531
Q4.9375 27.7812 4.6875 27.7812
L3.51562 27.7812
Q3.17188 27.7812 2.92188 28.1406
Q2.6875 28.5156 2.6875 28.8125
Q3.76562 33.1562 4.76562 36.1719
Q5.76562 39.2031 7.89062 41.6875
Q10.0156 44.1875 13.1875 44.1875
Q16.6562 44.1875 19.2656 42.1875
Q21.875 40.1875 22.5156 36.9219
Q25.0469 40.2344 28.2969 42.2031
Q31.5469 44.1875 35.4062 44.1875
Q38.5781 44.1875 40.9844 42.3281
Q43.4062 40.4844 43.4062 37.3125
Q43.4062 34.7656 41.8125 32.875
Q40.2344 31 37.5938 31
Q35.9844 31 34.8906 32
Q33.7969 33.0156 33.7969 34.625
Q33.7969 36.8125 35.4062 38.5469
Q37.0156 40.2812 39.1094 40.2812
Q37.5 41.6094 35.2031 41.6094
Q30.9062 41.6094 27.7344 38.5469
Q24.5625 35.5 22.0156 30.8125
L14.8906 2.20312
Q14.5469 0.828125 13.3438 -0.140625
Q12.1562 -1.125 10.6875 -1.125
Q9.46875 -1.125 8.59375 -0.34375
Q7.71875 0.4375 7.71875 1.70312" id="Cmmi10-72"/>
     </defs>
     <g transform="translate(146.2534375 222.938125)scale(0.12 -0.12)">
      <use transform="translate(0.0 0.421875)" xlink:href="#Cmr10-a2"/>
      <use transform="translate(83.30078125 0.421875)" xlink:href="#Cmmi10-72"/>
     </g>
    </g>
   </g>
   <g id="matplotlib.axis_2">
    <g id="ytick_1">
     <g id="line2d_87">
      <defs>
       <path d="
M0 0
L4 0" id="md7965d1ba0" style="stroke:#000000;stroke-width:0.5;"/>
      </defs>
      <g>
       <use style="stroke:#000000;stroke-width:0.5;" x="42.3934375" xlink:href="#md7965d1ba0" y="194.12"/>
      </g>
     </g>
     <g id="line2d_88">
      <defs>
       <path d="
M0 0
L-4 0" id="md9a1c1a7cd" style="stroke:#000000;stroke-width:0.5;"/>
      </defs>
      <g>
       <use style="stroke:#000000;stroke-width:0.5;" x="265.5934375" xlink:href="#md9a1c1a7cd" y="194.12"/>
      </g>
     </g>
     <g id="text_7">
      <!-- 0.0 -->
      <defs>
       <path d="
M10.6875 12.4062
L21 12.4062
L21 0
L10.6875 0
z
" id="BitstreamVeraSans-Roman-2e"/>
      </defs>
      <g transform="translate(23.81375 196.879375)scale(0.1 -0.1)">
       <use xlink:href="#BitstreamVeraSans-Roman-30"/>
       <use x="63.623046875" xlink:href="#BitstreamVeraSans-Roman-2e"/>
       <use x="95.41015625" xlink:href="#BitstreamVeraSans-Roman-30"/>
      </g>
     </g>
    </g>
    <g id="ytick_2">
     <g id="line2d_89">
      <g>
       <use style="stroke:#000000;stroke-width:0.5;" x="42.3934375" xlink:href="#md7965d1ba0" y="150.92"/>
      </g>
     </g>
     <g id="line2d_90">
      <g>
       <use style="stroke:#000000;stroke-width:0.5;" x="265.5934375" xlink:href="#md9a1c1a7cd" y="150.92"/>
      </g>
     </g>
     <g id="text_8">
      <!-- 0.5 -->
      <defs>
       <path d="
M10.7969 72.9062
L49.5156 72.9062
L49.5156 64.5938
L19.8281 64.5938
L19.8281 46.7344
Q21.9688 47.4688 24.1094 47.8281
Q26.2656 48.1875 28.4219 48.1875
Q40.625 48.1875 47.75 41.5
Q54.8906 34.8125 54.8906 23.3906
Q54.8906 11.625 47.5625 5.09375
Q40.2344 -1.42188 26.9062 -1.42188
Q22.3125 -1.42188 17.5469 -0.640625
Q12.7969 0.140625 7.71875 1.70312
L7.71875 11.625
Q12.1094 9.23438 16.7969 8.0625
Q21.4844 6.89062 26.7031 6.89062
Q35.1562 6.89062 40.0781 11.3281
Q45.0156 15.7656 45.0156 23.3906
Q45.0156 31 40.0781 35.4375
Q35.1562 39.8906 26.7031 39.8906
Q22.75 39.8906 18.8125 39.0156
Q14.8906 38.1406 10.7969 36.2812
z
" id="BitstreamVeraSans-Roman-35"/>
      </defs>
      <g transform="translate(24.023125 153.679375)scale(0.1 -0.1)">
       <use xlink:href="#BitstreamVeraSans-Roman-30"/>
       <use x="63.623046875" xlink:href="#BitstreamVeraSans-Roman-2e"/>
       <use x="95.41015625" xlink:href="#BitstreamVeraSans-Roman-35"/>
      </g>
     </g>
    </g>
    <g id="ytick_3">
     <g id="line2d_91">
      <g>
       <use style="stroke:#000000;stroke-width:0.5;" x="42.3934375" xlink:href="#md7965d1ba0" y="107.72"/>
      </g>
     </g>
     <g id="line2d_92">
      <g>
       <use style="stroke:#000000;stroke-width:0.5;" x="265.5934375" xlink:href="#md9a1c1a7cd" y="107.72"/>
      </g>
     </g>
     <g id="text_9">
      <!-- 1.0 -->
      <g transform="translate(24.2528125 110.479375)scale(0.1 -0.1)">
       <use xlink:href="#BitstreamVeraSans-Roman-31"/>
       <use x="63.623046875" xlink:href="#BitstreamVeraSans-Roman-2e"/>
       <use x="95.41015625" xlink:href="#BitstreamVeraSans-Roman-30"/>
      </g>
     </g>
    </g>
    <g id="ytick_4">
     <g id="line2d_93">
      <g>
       <use style="stroke:#000000;stroke-width:0.5;" x="42.3934375" xlink:href="#md7965d1ba0" y="64.52"/>
      </g>
     </g>
     <g id="line2d_94">
      <g>
       <use style="stroke:#000000;stroke-width:0.5;" x="265.5934375" xlink:href="#md9a1c1a7cd" y="64.52"/>
      </g>
     </g>
     <g id="text_10">
      <!-- 1.5 -->
      <g transform="translate(24.4621875 67.279375)scale(0.1 -0.1)">
       <use xlink:href="#BitstreamVeraSans-Roman-31"/>
       <use x="63.623046875" xlink:href="#BitstreamVeraSans-Roman-2e"/>
       <use x="95.41015625" xlink:href="#BitstreamVeraSans-Roman-35"/>
      </g>
     </g>
    </g>
    <g id="ytick_5">
     <g id="line2d_95">
      <g>
       <use style="stroke:#000000;stroke-width:0.5;" x="42.3934375" xlink:href="#md7965d1ba0" y="21.32"/>
      </g>
     </g>
     <g id="line2d_96">
      <g>
       <use style="stroke:#000000;stroke-width:0.5;" x="265.5934375" xlink:href="#md9a1c1a7cd" y="21.32"/>
      </g>
     </g>
     <g id="text_11">
      <!-- 2.0 -->
      <g transform="translate(23.8871875 24.079375)scale(0.1 -0.1)">
       <use xlink:href="#BitstreamVeraSans-Roman-32"/>
       <use x="63.623046875" xlink:href="#BitstreamVeraSans-Roman-2e"/>
       <use x="95.41015625" xlink:href="#BitstreamVeraSans-Roman-30"/>
      </g>
     </g>
    </g>
    <g id="text_12">
     <!-- $P\left(\log\left(\Delta r\right)\right)$ -->
     <defs>
      <path d="
M2.78125 -7.8125
Q2.78125 -4.25 5.35938 -1.57812
Q7.95312 1.07812 11.5312 2.20312
Q9.51562 3.71875 8.46875 6
Q7.42188 8.29688 7.42188 10.8906
Q7.42188 15.5781 10.4062 19.1875
Q5.8125 23.6875 5.8125 29.5
Q5.8125 32.625 7.15625 35.3594
Q8.5 38.0938 10.8906 40.0938
Q13.2812 42.0938 16.2031 43.1406
Q19.1406 44.1875 22.2188 44.1875
Q28.1719 44.1875 32.9062 40.7188
Q34.9688 42.9219 37.7656 44.1094
Q40.5781 45.3125 43.6094 45.3125
Q45.75 45.3125 47.1094 43.7656
Q48.4844 42.2344 48.4844 40.0938
Q48.4844 38.875 47.5469 37.9375
Q46.625 37.0156 45.4062 37.0156
Q44.1406 37.0156 43.2031 37.9375
Q42.2812 38.875 42.2812 40.0938
Q42.2812 41.9375 43.5 42.6719
Q38.3281 42.6719 34.625 39.1094
Q36.4219 37.3125 37.5156 34.6875
Q38.625 32.0781 38.625 29.5
Q38.625 25.25 36.2812 21.8438
Q33.9375 18.4531 30.0938 16.5781
Q26.2656 14.7031 22.2188 14.7031
Q16.75 14.7031 12.2031 17.6719
Q10.7969 15.7188 10.7969 13.2812
Q10.7969 10.6406 12.5312 8.65625
Q14.2656 6.6875 16.8906 6.6875
L25.0938 6.6875
Q31.0625 6.6875 35.8438 5.60938
Q40.625 4.54688 43.875 1.3125
Q47.125 -1.90625 47.125 -7.8125
Q47.125 -12.2031 43.4062 -15.1094
Q39.7031 -18.0156 34.5469 -19.3125
Q29.3906 -20.6094 25 -20.6094
Q20.5625 -20.6094 15.375 -19.3125
Q10.2031 -18.0156 6.48438 -15.1094
Q2.78125 -12.2031 2.78125 -7.8125
M8.40625 -7.8125
Q8.40625 -11.1875 11.1406 -13.4531
Q13.875 -15.7188 17.7188 -16.8125
Q21.5781 -17.9219 25 -17.9219
Q28.375 -17.9219 32.2188 -16.8125
Q36.0781 -15.7188 38.7812 -13.4531
Q41.5 -11.1875 41.5 -7.8125
Q41.5 -2.59375 36.7188 -1.04688
Q31.9375 0.484375 25.0938 0.484375
L16.8906 0.484375
Q14.5938 0.484375 12.6719 -0.609375
Q10.75 -1.70312 9.57812 -3.6875
Q8.40625 -5.67188 8.40625 -7.8125
M22.2188 17.3906
Q30.7188 17.3906 30.7188 29.5
Q30.7188 34.7188 28.9062 38.1094
Q27.0938 41.5 22.2188 41.5
Q17.3281 41.5 15.5156 38.1094
Q13.7188 34.7188 13.7188 29.5
Q13.7188 26.1719 14.4062 23.4844
Q15.0938 20.7969 16.9375 19.0938
Q18.7969 17.3906 22.2188 17.3906" id="Cmr10-67"/>
      <path d="
M25 -1.125
Q19 -1.125 13.8594 1.92188
Q8.73438 4.98438 5.75 10.1094
Q2.78125 15.2344 2.78125 21.2969
Q2.78125 25.875 4.42188 30.125
Q6.0625 34.375 9.10938 37.7188
Q12.1562 41.0625 16.2031 42.9375
Q20.2656 44.8281 25 44.8281
Q31.1562 44.8281 36.2031 41.5781
Q41.2656 38.3281 44.1875 32.875
Q47.125 27.4375 47.125 21.2969
Q47.125 15.2812 44.1406 10.125
Q41.1562 4.98438 36.0469 1.92188
Q30.9531 -1.125 25 -1.125
M25 1.8125
Q33.0156 1.8125 35.6875 7.60938
Q38.375 13.4219 38.375 22.4062
Q38.375 27.4375 37.8438 30.7344
Q37.3125 34.0312 35.5 36.7188
Q34.375 38.375 32.6406 39.625
Q30.9062 40.875 28.9688 41.5312
Q27.0469 42.1875 25 42.1875
Q21.875 42.1875 19.0625 40.7656
Q16.2656 39.3594 14.4062 36.7188
Q12.5469 33.8906 12.0312 30.4844
Q11.5312 27.0938 11.5312 22.4062
Q11.5312 16.7969 12.5 12.3281
Q13.4844 7.85938 16.4375 4.82812
Q19.3906 1.8125 25 1.8125" id="Cmr10-6f"/>
      <path d="
M3.07812 0
L3.07812 3.51562
Q6.5 3.51562 8.6875 4.04688
Q10.8906 4.59375 10.8906 6.6875
L10.8906 59.1875
Q10.8906 61.8594 10.0781 63.0625
Q9.28125 64.2656 7.76562 64.5312
Q6.25 64.7969 3.07812 64.7969
L3.07812 68.3125
L17.9219 69.3906
L17.9219 6.6875
Q17.9219 4.59375 20.1094 4.04688
Q22.3125 3.51562 25.6875 3.51562
L25.6875 0
z
" id="Cmr10-6c"/>
      <path d="
M31 -24.8125
Q25.4375 -20.4062 21.4062 -14.7188
Q17.3906 -9.03125 14.8125 -2.57812
Q12.25 3.85938 10.9844 10.8906
Q9.71875 17.9219 9.71875 25
Q9.71875 32.1719 10.9844 39.2031
Q12.25 46.2344 14.8594 52.7344
Q17.4844 59.2344 21.5312 64.8906
Q25.5938 70.5625 31 74.8125
Q31 75 31.5 75
L32.4219 75
Q32.7188 75 32.9531 74.7344
Q33.2031 74.4688 33.2031 74.125
Q33.2031 73.6875 33.0156 73.4844
Q28.125 68.7031 24.875 63.2344
Q21.625 57.7656 19.6406 51.5781
Q17.6719 45.4062 16.7969 38.7812
Q15.9219 32.1719 15.9219 25
Q15.9219 -6.78125 32.9062 -23.2969
Q33.2031 -23.5781 33.2031 -24.125
Q33.2031 -24.3594 32.9375 -24.6719
Q32.6719 -25 32.4219 -25
L31.5 -25
Q31 -25 31 -24.8125" id="Cmr10-28"/>
      <path d="
M6.5 -25
Q5.60938 -25 5.60938 -24.125
Q5.60938 -23.6875 5.8125 -23.4844
Q22.9062 -6.78125 22.9062 25
Q22.9062 56.7812 6 73.2969
Q5.60938 73.5312 5.60938 74.125
Q5.60938 74.4688 5.875 74.7344
Q6.15625 75 6.5 75
L7.42188 75
Q7.71875 75 7.90625 74.8125
Q15.0938 69.1406 19.875 61.0312
Q24.6562 52.9375 26.875 43.75
Q29.1094 34.5781 29.1094 25
Q29.1094 17.9219 27.9062 11.0625
Q26.7031 4.20312 24.0938 -2.45312
Q21.4844 -9.125 17.4844 -14.7656
Q13.4844 -20.4062 7.90625 -24.8125
Q7.71875 -25 7.42188 -25
z
" id="Cmr10-29"/>
      <path d="
M4.89062 0
Q3.90625 0 3.90625 1.3125
Q3.95312 1.5625 4.09375 2.17188
Q4.25 2.78125 4.51562 3.14062
Q4.78125 3.51562 5.17188 3.51562
Q11.2812 3.51562 13.7188 4.20312
Q14.9844 4.64062 15.5781 6.89062
L29.2969 61.8125
Q29.5 62.7969 29.5 63.1875
Q29.5 64.2656 28.3281 64.4062
Q26.4219 64.7969 21.0938 64.7969
Q20.125 64.7969 20.125 66.1094
Q20.1719 66.3594 20.3125 66.9688
Q20.4531 67.5781 20.7188 67.9375
Q21 68.3125 21.3906 68.3125
L55.9062 68.3125
Q60.6406 68.3125 65.0781 66.625
Q69.5312 64.9375 72.3594 61.4688
Q75.2031 58.0156 75.2031 53.0781
Q75.2031 46.7344 70.7344 41.75
Q66.2656 36.7656 59.5938 33.9844
Q52.9375 31.2031 46.6875 31.2031
L30.4219 31.2031
L24.3125 6.5
Q24.125 5.51562 24.125 5.07812
Q24.125 4.6875 24.2344 4.42188
Q24.3594 4.15625 24.5781 4.07812
Q24.8125 4 25.2969 3.90625
Q27.2031 3.51562 32.5156 3.51562
Q33.5 3.51562 33.5 2.20312
Q33.1562 0.78125 32.9531 0.390625
Q32.7656 0 31.7812 0
z

M30.9062 34.1875
L44.9219 34.1875
Q54.6406 34.1875 59.7188 39.4062
Q62.3125 42 63.9375 46.875
Q65.5781 51.7656 65.5781 55.7188
Q65.5781 60.6406 61.8125 62.7188
Q58.0625 64.7969 52.4844 64.7969
L42.9219 64.7969
Q40.1875 64.7969 39.2969 64.3281
Q38.4219 63.875 37.7031 61.375
z
" id="Cmmi10-50"/>
     </defs>
     <g transform="translate(16.29375 134.66)rotate(-90.0)scale(0.12 -0.12)">
      <use transform="translate(0.0 0.421875)" xlink:href="#Cmmi10-50"/>
      <use transform="translate(64.208984375 2.859375)scale(0.921875)" xlink:href="#Cmr10-28"/>
      <use transform="translate(99.99465942382812 0.421875)" xlink:href="#Cmr10-6c"/>
      <use transform="translate(127.68020629882812 0.421875)" xlink:href="#Cmr10-6f"/>
      <use transform="translate(177.68020629882812 0.421875)" xlink:href="#Cmr10-67"/>
      <use transform="translate(227.68020629882812 17.46875)scale(0.72703125)" xlink:href="#Cmr10-28"/>
      <use transform="translate(255.90235900878906 0.421875)" xlink:href="#Cmr10-a2"/>
      <use transform="translate(339.20314025878906 0.421875)" xlink:href="#Cmmi10-72"/>
      <use transform="translate(384.32032775878906 17.46875)scale(0.72703125)" xlink:href="#Cmr10-29"/>
      <use transform="translate(412.54248046875 2.859375)scale(0.921875)" xlink:href="#Cmr10-29"/>
     </g>
    </g>
   </g>
   <g id="text_13">
    <!-- Hard Spheres, at $\phi = 0.58$ -->
    <defs>
     <path id="BitstreamVeraSans-Roman-20"/>
     <path d="
M8.6875 11.375
Q9.71875 8.45312 11.8438 6.04688
Q13.9688 3.65625 16.875 2.3125
Q19.7812 0.984375 22.9062 0.984375
Q30.125 0.984375 32.8594 6.59375
Q35.5938 12.2031 35.5938 20.2188
Q35.5938 23.6875 35.4688 26.0469
Q35.3594 28.4219 34.8125 30.6094
Q33.8906 34.125 31.5625 36.7656
Q29.25 39.4062 25.875 39.4062
Q22.5156 39.4062 20.0938 38.375
Q17.6719 37.3594 16.1562 35.9844
Q14.6562 34.625 13.4844 33.1094
Q12.3125 31.5938 12.0156 31.5
L10.8906 31.5
Q10.6406 31.5 10.2656 31.8125
Q9.90625 32.125 9.90625 32.4219
L9.90625 65.8281
Q9.90625 66.0625 10.2188 66.3281
Q10.5469 66.6094 10.8906 66.6094
L11.1875 66.6094
Q17.9219 63.375 25.4844 63.375
Q32.9062 63.375 39.7969 66.6094
L40.0938 66.6094
Q40.4375 66.6094 40.7188 66.3594
Q41.0156 66.1094 41.0156 65.8281
L41.0156 64.8906
Q41.0156 64.4062 40.8281 64.4062
Q37.4062 59.8594 32.25 57.3125
Q27.0938 54.7812 21.5781 54.7812
Q17.5781 54.7812 13.375 55.9062
L13.375 37.0156
Q16.7031 39.7031 19.3125 40.8438
Q21.9219 42 25.9844 42
Q31.5 42 35.8594 38.8125
Q40.2344 35.6406 42.5781 30.5312
Q44.9219 25.4375 44.9219 20.125
Q44.9219 14.1094 41.9688 8.98438
Q39.0156 3.85938 33.9375 0.828125
Q28.8594 -2.20312 22.9062 -2.20312
Q17.9688 -2.20312 13.8438 0.328125
Q9.71875 2.875 7.34375 7.17188
Q4.98438 11.4688 4.98438 16.3125
Q4.98438 18.5625 6.4375 19.9688
Q7.90625 21.3906 10.1094 21.3906
Q12.3125 21.3906 13.7969 19.9375
Q15.2812 18.5 15.2812 16.3125
Q15.2812 14.1562 13.7969 12.6719
Q12.3125 11.1875 10.1094 11.1875
Q9.76562 11.1875 9.32812 11.25
Q8.89062 11.3281 8.6875 11.375" id="Cmr10-35"/>
     <path d="
M19.3906 -19.4844
L23.875 -1.42188
Q18.7969 -1.42188 14.4062 0.953125
Q10.0156 3.32812 7.34375 7.5625
Q4.6875 11.8125 4.6875 16.7969
Q4.6875 22.2188 7.375 27.1406
Q10.0625 32.0781 14.7188 36.1094
Q19.3906 40.1406 24.75 42.3125
Q30.125 44.4844 35.4062 44.4844
L41.4062 68.7969
Q41.6094 69.3906 42.1875 69.3906
L43.4062 69.3906
Q43.7969 69.3906 44.0312 69.0469
Q44.2812 68.7031 44.2812 68.4062
L38.2812 44.4844
Q42.0469 44.4844 45.5625 43.1094
Q49.0781 41.75 51.7812 39.2812
Q54.5 36.8125 56 33.4688
Q57.5156 30.125 57.5156 26.3125
Q57.5156 20.9062 54.8281 15.9688
Q52.1562 11.0312 47.6094 7.07812
Q43.0625 3.125 37.4688 0.84375
Q31.8906 -1.42188 26.8125 -1.42188
L22.2188 -19.9219
Q22.0156 -20.5156 21.3906 -20.5156
L20.2188 -20.5156
Q19.8281 -20.5156 19.6094 -20.1406
Q19.3906 -19.7812 19.3906 -19.4844
M24.5156 1.21875
L34.7188 41.8906
Q32.1719 41.8906 29.3906 40.8594
Q26.6094 39.8438 24.1406 38.2812
Q21.6875 36.7188 19.6719 34.7188
Q17.2344 32.2812 15.375 28.9531
Q13.5312 25.6406 12.5781 21.9531
Q11.625 18.2656 11.625 14.7031
Q11.625 10.9375 13.2344 7.85938
Q14.8438 4.78125 17.7656 3
Q20.7031 1.21875 24.5156 1.21875
M27.4844 1.21875
Q31.25 1.21875 35.5 3.35938
Q39.75 5.51562 42.4844 8.40625
Q46.2344 12.1094 48.4062 17.5
Q50.5938 22.9062 50.5938 28.4219
Q50.5938 32.125 48.9688 35.2188
Q47.3594 38.3281 44.4219 40.1094
Q41.5 41.8906 37.7031 41.8906
z
" id="Cmmi10-c1"/>
     <path d="
M8.40625 5.51562
Q8.40625 7.76562 10.0625 9.375
Q11.7188 10.9844 13.9219 10.9844
Q15.2812 10.9844 16.5938 10.25
Q17.9219 9.51562 18.6562 8.20312
Q19.3906 6.89062 19.3906 5.51562
Q19.3906 3.32812 17.7656 1.65625
Q16.1562 0 13.9219 0
Q11.7188 0 10.0625 1.65625
Q8.40625 3.32812 8.40625 5.51562" id="Cmmi10-3a"/>
     <path d="
M18.3125 70.2188
L18.3125 54.6875
L36.8125 54.6875
L36.8125 47.7031
L18.3125 47.7031
L18.3125 18.0156
Q18.3125 11.3281 20.1406 9.42188
Q21.9688 7.51562 27.5938 7.51562
L36.8125 7.51562
L36.8125 0
L27.5938 0
Q17.1875 0 13.2344 3.875
Q9.28125 7.76562 9.28125 18.0156
L9.28125 47.7031
L2.6875 47.7031
L2.6875 54.6875
L9.28125 54.6875
L9.28125 70.2188
z
" id="BitstreamVeraSans-Roman-74"/>
     <path d="
M25 -2.20312
Q12.75 -2.20312 8.32812 7.875
Q3.90625 17.9688 3.90625 31.8906
Q3.90625 40.5781 5.48438 48.2344
Q7.07812 55.9062 11.7812 61.25
Q16.5 66.6094 25 66.6094
Q31.5938 66.6094 35.7812 63.375
Q39.9844 60.1562 42.1875 55.0469
Q44.3906 49.9531 45.1875 44.1094
Q46 38.2812 46 31.8906
Q46 23.2969 44.4062 15.7969
Q42.8281 8.29688 38.1875 3.04688
Q33.5469 -2.20312 25 -2.20312
M25 0.390625
Q30.5625 0.390625 33.2969 6.09375
Q36.0312 11.8125 36.6719 18.75
Q37.3125 25.6875 37.3125 33.5
Q37.3125 41.0156 36.6719 47.3594
Q36.0312 53.7188 33.3125 58.8594
Q30.6094 64.0156 25 64.0156
Q19.3438 64.0156 16.6094 58.8281
Q13.875 53.6562 13.2344 47.3281
Q12.5938 41.0156 12.5938 33.5
Q12.5938 27.9375 12.8594 23
Q13.1406 18.0625 14.3125 12.8125
Q15.4844 7.5625 18.0938 3.96875
Q20.7031 0.390625 25 0.390625" id="Cmr10-30"/>
     <path d="
M45.4062 46.3906
L45.4062 75.9844
L54.3906 75.9844
L54.3906 0
L45.4062 0
L45.4062 8.20312
Q42.5781 3.32812 38.25 0.953125
Q33.9375 -1.42188 27.875 -1.42188
Q17.9688 -1.42188 11.7344 6.48438
Q5.51562 14.4062 5.51562 27.2969
Q5.51562 40.1875 11.7344 48.0938
Q17.9688 56 27.875 56
Q33.9375 56 38.25 53.625
Q42.5781 51.2656 45.4062 46.3906
M14.7969 27.2969
Q14.7969 17.3906 18.875 11.75
Q22.9531 6.10938 30.0781 6.10938
Q37.2031 6.10938 41.2969 11.75
Q45.4062 17.3906 45.4062 27.2969
Q45.4062 37.2031 41.2969 42.8438
Q37.2031 48.4844 30.0781 48.4844
Q22.9531 48.4844 18.875 42.8438
Q14.7969 37.2031 14.7969 27.2969" id="BitstreamVeraSans-Roman-64"/>
     <path d="
M44.2812 53.0781
L44.2812 44.5781
Q40.4844 46.5312 36.375 47.5
Q32.2812 48.4844 27.875 48.4844
Q21.1875 48.4844 17.8438 46.4375
Q14.5 44.3906 14.5 40.2812
Q14.5 37.1562 16.8906 35.375
Q19.2812 33.5938 26.5156 31.9844
L29.5938 31.2969
Q39.1562 29.25 43.1875 25.5156
Q47.2188 21.7812 47.2188 15.0938
Q47.2188 7.46875 41.1875 3.01562
Q35.1562 -1.42188 24.6094 -1.42188
Q20.2188 -1.42188 15.4531 -0.5625
Q10.6875 0.296875 5.42188 2
L5.42188 11.2812
Q10.4062 8.6875 15.2344 7.39062
Q20.0625 6.10938 24.8125 6.10938
Q31.1562 6.10938 34.5625 8.28125
Q37.9844 10.4531 37.9844 14.4062
Q37.9844 18.0625 35.5156 20.0156
Q33.0625 21.9688 24.7031 23.7812
L21.5781 24.5156
Q13.2344 26.2656 9.51562 29.9062
Q5.8125 33.5469 5.8125 39.8906
Q5.8125 47.6094 11.2812 51.7969
Q16.75 56 26.8125 56
Q31.7812 56 36.1719 55.2656
Q40.5781 54.5469 44.2812 53.0781" id="BitstreamVeraSans-Roman-73"/>
     <path d="
M7.51562 13.2812
Q6.6875 13.2812 6.14062 13.9062
Q5.60938 14.5469 5.60938 15.2812
Q5.60938 16.1094 6.14062 16.6875
Q6.6875 17.2812 7.51562 17.2812
L70.3125 17.2812
Q71.0469 17.2812 71.5781 16.6875
Q72.125 16.1094 72.125 15.2812
Q72.125 14.5469 71.5781 13.9062
Q71.0469 13.2812 70.3125 13.2812
z

M7.51562 32.7188
Q6.6875 32.7188 6.14062 33.2969
Q5.60938 33.8906 5.60938 34.7188
Q5.60938 35.4531 6.14062 36.0781
Q6.6875 36.7188 7.51562 36.7188
L70.3125 36.7188
Q71.0469 36.7188 71.5781 36.0781
Q72.125 35.4531 72.125 34.7188
Q72.125 33.8906 71.5781 33.2969
Q71.0469 32.7188 70.3125 32.7188
z
" id="Cmr10-3d"/>
     <path d="
M56.2031 29.5938
L56.2031 25.2031
L14.8906 25.2031
Q15.4844 15.9219 20.4844 11.0625
Q25.4844 6.20312 34.4219 6.20312
Q39.5938 6.20312 44.4531 7.46875
Q49.3125 8.73438 54.1094 11.2812
L54.1094 2.78125
Q49.2656 0.734375 44.1875 -0.34375
Q39.1094 -1.42188 33.8906 -1.42188
Q20.7969 -1.42188 13.1562 6.1875
Q5.51562 13.8125 5.51562 26.8125
Q5.51562 40.2344 12.7656 48.1094
Q20.0156 56 32.3281 56
Q43.3594 56 49.7812 48.8906
Q56.2031 41.7969 56.2031 29.5938
M47.2188 32.2344
Q47.125 39.5938 43.0938 43.9844
Q39.0625 48.3906 32.4219 48.3906
Q24.9062 48.3906 20.3906 44.1406
Q15.875 39.8906 15.1875 32.1719
z
" id="BitstreamVeraSans-Roman-65"/>
     <path d="
M54.8906 33.0156
L54.8906 0
L45.9062 0
L45.9062 32.7188
Q45.9062 40.4844 42.875 44.3281
Q39.8438 48.1875 33.7969 48.1875
Q26.5156 48.1875 22.3125 43.5469
Q18.1094 38.9219 18.1094 30.9062
L18.1094 0
L9.07812 0
L9.07812 75.9844
L18.1094 75.9844
L18.1094 46.1875
Q21.3438 51.125 25.7031 53.5625
Q30.0781 56 35.7969 56
Q45.2188 56 50.0469 50.1719
Q54.8906 44.3438 54.8906 33.0156" id="BitstreamVeraSans-Roman-68"/>
     <path d="
M18.1094 8.20312
L18.1094 -20.7969
L9.07812 -20.7969
L9.07812 54.6875
L18.1094 54.6875
L18.1094 46.3906
Q20.9531 51.2656 25.2656 53.625
Q29.5938 56 35.5938 56
Q45.5625 56 51.7812 48.0938
Q58.0156 40.1875 58.0156 27.2969
Q58.0156 14.4062 51.7812 6.48438
Q45.5625 -1.42188 35.5938 -1.42188
Q29.5938 -1.42188 25.2656 0.953125
Q20.9531 3.32812 18.1094 8.20312
M48.6875 27.2969
Q48.6875 37.2031 44.6094 42.8438
Q40.5312 48.4844 33.4062 48.4844
Q26.2656 48.4844 22.1875 42.8438
Q18.1094 37.2031 18.1094 27.2969
Q18.1094 17.3906 22.1875 11.75
Q26.2656 6.10938 33.4062 6.10938
Q40.5312 6.10938 44.6094 11.75
Q48.6875 17.3906 48.6875 27.2969" id="BitstreamVeraSans-Roman-70"/>
     <path d="
M9.8125 72.9062
L19.6719 72.9062
L19.6719 43.0156
L55.5156 43.0156
L55.5156 72.9062
L65.375 72.9062
L65.375 0
L55.5156 0
L55.5156 34.7188
L19.6719 34.7188
L19.6719 0
L9.8125 0
z
" id="BitstreamVeraSans-Roman-48"/>
     <path d="
M41.1094 46.2969
Q39.5938 47.1719 37.8125 47.5781
Q36.0312 48 33.8906 48
Q26.2656 48 22.1875 43.0469
Q18.1094 38.0938 18.1094 28.8125
L18.1094 0
L9.07812 0
L9.07812 54.6875
L18.1094 54.6875
L18.1094 46.1875
Q20.9531 51.1719 25.4844 53.5781
Q30.0312 56 36.5312 56
Q37.4531 56 38.5781 55.875
Q39.7031 55.7656 41.0625 55.5156
z
" id="BitstreamVeraSans-Roman-72"/>
     <path d="
M34.2812 27.4844
Q23.3906 27.4844 19.1875 25
Q14.9844 22.5156 14.9844 16.5
Q14.9844 11.7188 18.1406 8.90625
Q21.2969 6.10938 26.7031 6.10938
Q34.1875 6.10938 38.7031 11.4062
Q43.2188 16.7031 43.2188 25.4844
L43.2188 27.4844
z

M52.2031 31.2031
L52.2031 0
L43.2188 0
L43.2188 8.29688
Q40.1406 3.32812 35.5469 0.953125
Q30.9531 -1.42188 24.3125 -1.42188
Q15.9219 -1.42188 10.9531 3.29688
Q6 8.01562 6 15.9219
Q6 25.1406 12.1719 29.8281
Q18.3594 34.5156 30.6094 34.5156
L43.2188 34.5156
L43.2188 35.4062
Q43.2188 41.6094 39.1406 45
Q35.0625 48.3906 27.6875 48.3906
Q23 48.3906 18.5469 47.2656
Q14.1094 46.1406 10.0156 43.8906
L10.0156 52.2031
Q14.9375 54.1094 19.5781 55.0469
Q24.2188 56 28.6094 56
Q40.4844 56 46.3438 49.8438
Q52.2031 43.7031 52.2031 31.2031" id="BitstreamVeraSans-Roman-61"/>
     <path d="
M53.5156 70.5156
L53.5156 60.8906
Q47.9062 63.5781 42.9219 64.8906
Q37.9375 66.2188 33.2969 66.2188
Q25.25 66.2188 20.875 63.0938
Q16.5 59.9688 16.5 54.2031
Q16.5 49.3594 19.4062 46.8906
Q22.3125 44.4375 30.4219 42.9219
L36.375 41.7031
Q47.4062 39.5938 52.6562 34.2969
Q57.9062 29 57.9062 20.125
Q57.9062 9.51562 50.7969 4.04688
Q43.7031 -1.42188 29.9844 -1.42188
Q24.8125 -1.42188 18.9688 -0.25
Q13.1406 0.921875 6.89062 3.21875
L6.89062 13.375
Q12.8906 10.0156 18.6562 8.29688
Q24.4219 6.59375 29.9844 6.59375
Q38.4219 6.59375 43.0156 9.90625
Q47.6094 13.2344 47.6094 19.3906
Q47.6094 24.75 44.3125 27.7812
Q41.0156 30.8125 33.5 32.3281
L27.4844 33.5
Q16.4531 35.6875 11.5156 40.375
Q6.59375 45.0625 6.59375 53.4219
Q6.59375 63.0938 13.4062 68.6562
Q20.2188 74.2188 32.1719 74.2188
Q37.3125 74.2188 42.625 73.2812
Q47.9531 72.3594 53.5156 70.5156" id="BitstreamVeraSans-Roman-53"/>
     <path d="
M11.7188 12.4062
L22.0156 12.4062
L22.0156 4
L14.0156 -11.625
L7.71875 -11.625
L11.7188 4
z
" id="BitstreamVeraSans-Roman-2c"/>
     <path d="
M4.20312 15.1875
Q4.20312 21.1875 8.15625 25.7969
Q12.1094 30.4219 18.3125 33.5
L14.5938 35.8906
Q11.1875 38.1406 9.03125 41.875
Q6.89062 45.6094 6.89062 49.7031
Q6.89062 54.5 9.40625 58.3438
Q11.9219 62.2031 16.0938 64.4062
Q20.2656 66.6094 25 66.6094
Q29.4375 66.6094 33.5625 64.7969
Q37.7031 62.9844 40.3594 59.6094
Q43.0156 56.25 43.0156 51.6094
Q43.0156 48.25 41.4219 45.3594
Q39.8438 42.4844 37.0781 40.1875
Q34.3281 37.8906 31.2031 36.2812
L36.9219 32.625
Q40.875 30.0312 43.2812 25.8281
Q45.7031 21.625 45.7031 17
Q45.7031 11.5781 42.7969 7.125
Q39.8906 2.6875 35.1094 0.234375
Q30.3281 -2.20312 25 -2.20312
Q19.8281 -2.20312 15.0156 -0.09375
Q10.2031 2 7.20312 5.98438
Q4.20312 9.96875 4.20312 15.1875
M9.625 15.1875
Q9.625 11.2344 11.7969 7.95312
Q13.9688 4.6875 17.5312 2.82812
Q21.0938 0.984375 25 0.984375
Q30.8125 0.984375 35.5469 4.375
Q40.2812 7.76562 40.2812 13.375
Q40.2812 15.2812 39.5156 17.1562
Q38.7656 19.0469 37.4219 20.5781
Q36.0781 22.125 34.4219 23.0938
L21 31.7812
Q17.875 30.125 15.25 27.5781
Q12.6406 25.0469 11.125 21.875
Q9.625 18.7031 9.625 15.1875
M16.5 45.7031
L28.6094 37.8906
Q32.8125 40.3281 35.5 43.7969
Q38.1875 47.2656 38.1875 51.6094
Q38.1875 54.9844 36.2969 57.7812
Q34.4219 60.5938 31.3906 62.1562
Q28.375 63.7188 24.9062 63.7188
Q21.875 63.7188 18.7969 62.5469
Q15.7188 61.375 13.7188 59.0469
Q11.7188 56.7344 11.7188 53.6094
Q11.7188 48.9219 16.5 45.7031" id="Cmr10-38"/>
    </defs>
    <g transform="translate(81.0934375 16.32)scale(0.12 -0.12)">
     <use transform="translate(0.0 0.015625)" xlink:href="#BitstreamVeraSans-Roman-48"/>
     <use transform="translate(75.1953125 0.015625)" xlink:href="#BitstreamVeraSans-Roman-61"/>
     <use transform="translate(136.474609375 0.015625)" xlink:href="#BitstreamVeraSans-Roman-72"/>
     <use transform="translate(177.587890625 0.015625)" xlink:href="#BitstreamVeraSans-Roman-64"/>
     <use transform="translate(241.064453125 0.015625)" xlink:href="#BitstreamVeraSans-Roman-20"/>
     <use transform="translate(272.8515625 0.015625)" xlink:href="#BitstreamVeraSans-Roman-53"/>
     <use transform="translate(336.328125 0.015625)" xlink:href="#BitstreamVeraSans-Roman-70"/>
     <use transform="translate(399.8046875 0.015625)" xlink:href="#BitstreamVeraSans-Roman-68"/>
     <use transform="translate(463.18359375 0.015625)" xlink:href="#BitstreamVeraSans-Roman-65"/>
     <use transform="translate(524.70703125 0.015625)" xlink:href="#BitstreamVeraSans-Roman-72"/>
     <use transform="translate(565.8203125 0.015625)" xlink:href="#BitstreamVeraSans-Roman-65"/>
     <use transform="translate(627.34375 0.015625)" xlink:href="#BitstreamVeraSans-Roman-73"/>
     <use transform="translate(679.443359375 0.015625)" xlink:href="#BitstreamVeraSans-Roman-2c"/>
     <use transform="translate(711.23046875 0.015625)" xlink:href="#BitstreamVeraSans-Roman-20"/>
     <use transform="translate(743.017578125 0.015625)" xlink:href="#BitstreamVeraSans-Roman-61"/>
     <use transform="translate(804.296875 0.015625)" xlink:href="#BitstreamVeraSans-Roman-74"/>
     <use transform="translate(843.505859375 0.015625)" xlink:href="#BitstreamVeraSans-Roman-20"/>
     <use transform="translate(875.29296875 0.015625)" xlink:href="#Cmmi10-c1"/>
     <use transform="translate(952.373046875 0.015625)" xlink:href="#Cmr10-3d"/>
     <use transform="translate(1036.431640625 0.015625)" xlink:href="#Cmr10-30"/>
     <use transform="translate(1086.431640625 0.015625)" xlink:href="#Cmmi10-3a"/>
     <use transform="translate(1114.974609375 0.015625)" xlink:href="#Cmr10-35"/>
     <use transform="translate(1164.974609375 0.015625)" xlink:href="#Cmr10-38"/>
    </g>
   </g>
   <g id="legend_1">
    <g id="patch_7">
     <path d="
M211.404 188.55
L261.428 188.55
L261.428 25.485
L211.404 25.485
z
" style="fill:#ffffff;stroke:#000000;stroke-linejoin:miter;"/>
    </g>
    <g id="text_14">
     <!-- $\Delta t$ -->
     <defs>
      <path d="
M6.20312 8.10938
Q6.20312 9.57812 6.5 10.8906
L13.7188 39.5938
L3.21875 39.5938
Q2.20312 39.5938 2.20312 40.9219
Q2.59375 43.1094 3.51562 43.1094
L14.5938 43.1094
L18.6094 59.4219
Q19 60.75 20.1719 61.6719
Q21.3438 62.5938 22.7969 62.5938
Q24.0781 62.5938 24.9219 61.8281
Q25.7812 61.0781 25.7812 59.8125
Q25.7812 59.5156 25.75 59.3438
Q25.7344 59.1875 25.6875 58.9844
L21.6875 43.1094
L31.9844 43.1094
Q33.0156 43.1094 33.0156 41.7969
Q32.9531 41.5469 32.8125 40.9531
Q32.6719 40.375 32.4219 39.9844
Q32.1719 39.5938 31.6875 39.5938
L20.7969 39.5938
L13.625 10.6875
Q12.8906 7.85938 12.8906 5.8125
Q12.8906 1.51562 15.8281 1.51562
Q20.2188 1.51562 23.6094 5.64062
Q27 9.76562 28.8125 14.7031
Q29.2031 15.2812 29.5938 15.2812
L30.8125 15.2812
Q31.2031 15.2812 31.4375 15.0156
Q31.6875 14.75 31.6875 14.4062
Q31.6875 14.2031 31.5938 14.1094
Q29.3906 8.0625 25.1875 3.46875
Q21 -1.125 15.5781 -1.125
Q11.625 -1.125 8.90625 1.45312
Q6.20312 4.04688 6.20312 8.10938" id="Cmmi10-74"/>
     </defs>
     <g transform="translate(230.416310937 36.4154375)scale(0.1 -0.1)">
      <use transform="translate(0.0 0.421875)" xlink:href="#Cmr10-a2"/>
      <use transform="translate(83.30078125 0.421875)" xlink:href="#Cmmi10-74"/>
     </g>
    </g>
    <g id="line2d_97">
     <path d="
M217.235 46.0741
L228.897 46.0741" style="fill:none;stroke:#4daf4a;stroke-linecap:square;stroke-width:2.0;"/>
    </g>
    <g id="line2d_98"/>
    <g id="text_15">
     <!-- 30 -->
     <defs>
      <path d="
M40.5781 39.3125
Q47.6562 37.7969 51.625 33
Q55.6094 28.2188 55.6094 21.1875
Q55.6094 10.4062 48.1875 4.48438
Q40.7656 -1.42188 27.0938 -1.42188
Q22.5156 -1.42188 17.6562 -0.515625
Q12.7969 0.390625 7.625 2.20312
L7.625 11.7188
Q11.7188 9.32812 16.5938 8.10938
Q21.4844 6.89062 26.8125 6.89062
Q36.0781 6.89062 40.9375 10.5469
Q45.7969 14.2031 45.7969 21.1875
Q45.7969 27.6406 41.2812 31.2656
Q36.7656 34.9062 28.7188 34.9062
L20.2188 34.9062
L20.2188 43.0156
L29.1094 43.0156
Q36.375 43.0156 40.2344 45.9219
Q44.0938 48.8281 44.0938 54.2969
Q44.0938 59.9062 40.1094 62.9062
Q36.1406 65.9219 28.7188 65.9219
Q24.6562 65.9219 20.0156 65.0312
Q15.375 64.1562 9.8125 62.3125
L9.8125 71.0938
Q15.4375 72.6562 20.3438 73.4375
Q25.25 74.2188 29.5938 74.2188
Q40.8281 74.2188 47.3594 69.1094
Q53.9062 64.0156 53.9062 55.3281
Q53.9062 49.2656 50.4375 45.0938
Q46.9688 40.9219 40.5781 39.3125" id="BitstreamVeraSans-Roman-33"/>
     </defs>
     <g transform="translate(238.060184375 48.9896234375)scale(0.0833 -0.0833)">
      <use xlink:href="#BitstreamVeraSans-Roman-33"/>
      <use x="63.623046875" xlink:href="#BitstreamVeraSans-Roman-30"/>
     </g>
    </g>
    <g id="line2d_99">
     <path d="
M217.235 58.301
L228.897 58.301" style="fill:none;stroke:#459d72;stroke-linecap:square;stroke-width:2.0;"/>
    </g>
    <g id="line2d_100"/>
    <g id="text_16">
     <!-- 50 -->
     <g transform="translate(238.060184375 61.2165015625)scale(0.0833 -0.0833)">
      <use xlink:href="#BitstreamVeraSans-Roman-35"/>
      <use x="63.623046875" xlink:href="#BitstreamVeraSans-Roman-30"/>
     </g>
    </g>
    <g id="line2d_101">
     <path d="
M217.235 70.5279
L228.897 70.5279" style="fill:none;stroke:#3d8c99;stroke-linecap:square;stroke-width:2.0;"/>
    </g>
    <g id="line2d_102"/>
    <g id="text_17">
     <!-- 70 -->
     <defs>
      <path d="
M8.20312 72.9062
L55.0781 72.9062
L55.0781 68.7031
L28.6094 0
L18.3125 0
L43.2188 64.5938
L8.20312 64.5938
z
" id="BitstreamVeraSans-Roman-37"/>
     </defs>
     <g transform="translate(238.060184375 73.4433796875)scale(0.0833 -0.0833)">
      <use xlink:href="#BitstreamVeraSans-Roman-37"/>
      <use x="63.623046875" xlink:href="#BitstreamVeraSans-Roman-30"/>
     </g>
    </g>
    <g id="line2d_103">
     <path d="
M217.235 82.7548
L228.897 82.7548" style="fill:none;stroke:#3f7ab6;stroke-linecap:square;stroke-width:2.0;"/>
    </g>
    <g id="line2d_104"/>
    <g id="text_18">
     <!-- 100 -->
     <g transform="translate(238.060184375 85.6702578125)scale(0.0833 -0.0833)">
      <use xlink:href="#BitstreamVeraSans-Roman-31"/>
      <use x="63.623046875" xlink:href="#BitstreamVeraSans-Roman-30"/>
      <use x="127.24609375" xlink:href="#BitstreamVeraSans-Roman-30"/>
     </g>
    </g>
    <g id="line2d_105">
     <path d="
M217.235 94.9816
L228.897 94.9816" style="fill:none;stroke:#6468ae;stroke-linecap:square;stroke-width:2.0;"/>
    </g>
    <g id="line2d_106"/>
    <g id="text_19">
     <!-- 200 -->
     <g transform="translate(238.060184375 97.8971359375)scale(0.0833 -0.0833)">
      <use xlink:href="#BitstreamVeraSans-Roman-32"/>
      <use x="63.623046875" xlink:href="#BitstreamVeraSans-Roman-30"/>
      <use x="127.24609375" xlink:href="#BitstreamVeraSans-Roman-30"/>
     </g>
    </g>
    <g id="line2d_107">
     <path d="
M217.235 107.209
L228.897 107.209" style="fill:none;stroke:#8757a7;stroke-linecap:square;stroke-width:2.0;"/>
    </g>
    <g id="line2d_108"/>
    <g id="text_20">
     <!-- 300 -->
     <g transform="translate(238.060184375 110.124014062)scale(0.0833 -0.0833)">
      <use xlink:href="#BitstreamVeraSans-Roman-33"/>
      <use x="63.623046875" xlink:href="#BitstreamVeraSans-Roman-30"/>
      <use x="127.24609375" xlink:href="#BitstreamVeraSans-Roman-30"/>
     </g>
    </g>
    <g id="line2d_109">
     <path d="
M217.235 119.435
L228.897 119.435" style="fill:none;stroke:#a6458b;stroke-linecap:square;stroke-width:2.0;"/>
    </g>
    <g id="line2d_110"/>
    <g id="text_21">
     <!-- 500 -->
     <g transform="translate(238.060184375 122.350892187)scale(0.0833 -0.0833)">
      <use xlink:href="#BitstreamVeraSans-Roman-35"/>
      <use x="63.623046875" xlink:href="#BitstreamVeraSans-Roman-30"/>
      <use x="127.24609375" xlink:href="#BitstreamVeraSans-Roman-30"/>
     </g>
    </g>
    <g id="line2d_111">
     <path d="
M217.235 131.662
L228.897 131.662" style="fill:none;stroke:#c1325a;stroke-linecap:square;stroke-width:2.0;"/>
    </g>
    <g id="line2d_112"/>
    <g id="text_22">
     <!-- 700 -->
     <g transform="translate(238.060184375 134.577770312)scale(0.0833 -0.0833)">
      <use xlink:href="#BitstreamVeraSans-Roman-37"/>
      <use x="63.623046875" xlink:href="#BitstreamVeraSans-Roman-30"/>
      <use x="127.24609375" xlink:href="#BitstreamVeraSans-Roman-30"/>
     </g>
    </g>
    <g id="line2d_113">
     <path d="
M217.235 143.889
L228.897 143.889" style="fill:none;stroke:#de1e27;stroke-linecap:square;stroke-width:2.0;"/>
    </g>
    <g id="line2d_114"/>
    <g id="text_23">
     <!-- 1000 -->
     <g transform="translate(238.060184375 146.804648437)scale(0.0833 -0.0833)">
      <use xlink:href="#BitstreamVeraSans-Roman-31"/>
      <use x="63.623046875" xlink:href="#BitstreamVeraSans-Roman-30"/>
      <use x="127.24609375" xlink:href="#BitstreamVeraSans-Roman-30"/>
      <use x="190.869140625" xlink:href="#BitstreamVeraSans-Roman-30"/>
     </g>
    </g>
    <g id="line2d_115">
     <path d="
M217.235 156.116
L228.897 156.116" style="fill:none;stroke:#ec3614;stroke-linecap:square;stroke-width:2.0;"/>
    </g>
    <g id="line2d_116"/>
    <g id="text_24">
     <!-- 2000 -->
     <g transform="translate(238.060184375 159.031526562)scale(0.0833 -0.0833)">
      <use xlink:href="#BitstreamVeraSans-Roman-32"/>
      <use x="63.623046875" xlink:href="#BitstreamVeraSans-Roman-30"/>
      <use x="127.24609375" xlink:href="#BitstreamVeraSans-Roman-30"/>
      <use x="190.869140625" xlink:href="#BitstreamVeraSans-Roman-30"/>
     </g>
    </g>
    <g id="line2d_117">
     <path d="
M217.235 168.343
L228.897 168.343" style="fill:none;stroke:#f55b0a;stroke-linecap:square;stroke-width:2.0;"/>
    </g>
    <g id="line2d_118"/>
    <g id="text_25">
     <!-- 3000 -->
     <g transform="translate(238.060184375 171.258404687)scale(0.0833 -0.0833)">
      <use xlink:href="#BitstreamVeraSans-Roman-33"/>
      <use x="63.623046875" xlink:href="#BitstreamVeraSans-Roman-30"/>
      <use x="127.24609375" xlink:href="#BitstreamVeraSans-Roman-30"/>
      <use x="190.869140625" xlink:href="#BitstreamVeraSans-Roman-30"/>
     </g>
    </g>
    <g id="line2d_119">
     <path d="
M217.235 180.57
L228.897 180.57" style="fill:none;stroke:#ff7f00;stroke-linecap:square;stroke-width:2.0;"/>
    </g>
    <g id="line2d_120"/>
    <g id="text_26">
     <!-- 5000 -->
     <g transform="translate(238.060184375 183.485282813)scale(0.0833 -0.0833)">
      <use xlink:href="#BitstreamVeraSans-Roman-35"/>
      <use x="63.623046875" xlink:href="#BitstreamVeraSans-Roman-30"/>
      <use x="127.24609375" xlink:href="#BitstreamVeraSans-Roman-30"/>
      <use x="190.869140625" xlink:href="#BitstreamVeraSans-Roman-30"/>
     </g>
    </g>
   </g>
  </g>
 </g>
 <defs>
  <clipPath id="p652fd3abf2">
   <rect height="172.8" width="223.2" x="42.3934375" y="21.32"/>
  </clipPath>
 </defs>
</svg>
