<?xml version="1.0" encoding="utf-8" standalone="no"?>
<!DOCTYPE svg PUBLIC "-//W3C//DTD SVG 1.1//EN"
  "http://www.w3.org/Graphics/SVG/1.1/DTD/svg11.dtd">
<!-- Created with matplotlib (http://matplotlib.org/) -->
<svg height="230pt" version="1.1" viewBox="0 0 261 230" width="261pt" xmlns="http://www.w3.org/2000/svg" xmlns:xlink="http://www.w3.org/1999/xlink">
 <defs>
  <style type="text/css">
*{stroke-linecap:butt;stroke-linejoin:round;}
  </style>
 </defs>
 <g id="figure_1">
  <g id="patch_1">
   <path d="
M0 230.578
L261.591 230.578
L261.591 0
L0 0
z
" style="fill:#ffffff;"/>
  </g>
  <g id="axes_1">
   <g id="patch_2">
    <path d="
M31.1906 194
L254.391 194
L254.391 21.2
L31.1906 21.2
z
" style="fill:#ffffff;"/>
   </g>
   <g id="line2d_1">
    <path clip-path="url(#p2b44c23dda)" d="
M31.1906 174.385
L42.9805 174.791
L49.8771 174.74
L54.7703 174.839
L58.5658 175.119
L61.6669 175.08
L64.2889 175.301
L66.5601 174.909
L68.5635 174.406
L70.3556 174.203
L71.9767 173.985
L74.8182 174.316
L76.0787 174.627
L78.35 174.916
L80.3533 174.239
L82.9753 173.961
L85.2466 173.229
L87.2499 172.885
L89.042 173.857
L91.171 174.066
L93.0628 173.975
L95.1654 173.552
L97.3871 173.8
L99.3519 172.99
L101.39 172.996
L103.454 173.266
L105.511 174.172
L107.728 172.725
L109.69 172.648
L111.749 171.982
L113.852 173.371
L115.957 172.468
L118.038 172.093
L120.076 170.554
L122.14 170.607
L124.198 171.975
L126.288 171.226
L128.32 173.4
L130.386 172.322
L132.45 171.781
L134.527 174.462
L136.587 173.357
L138.671 173.322
L140.718 172.074
L142.788 171.475
L144.847 173.312
L146.931 173.553
L148.989 173.633
L151.063 174.817
L153.122 172.932
L155.192 174.531
L157.255 174.418
L159.323 175.115
L161.394 174.613
L163.456 173.825
L165.523 172.514
L167.592 175.186
L169.655 173.933
L171.725 172.014
L173.789 173.85
L175.859 171.912
L177.924 173.385
L179.992 174.468
L182.056 173.561
L184.123 172.312
L186.19 172.344
L188.257 175.203
L190.324 174.108
L192.39 175.4
L194.458 172.57
L196.524 172.085
L198.591 172.574
L200.657 171.533
L202.724 173.365
L204.791 174.012
L206.857 174.155
L208.924 175.327
L210.991 172.986
L213.057 173.515
L215.124 173.686
L217.191 173.661
L219.257 173.956
L221.324 175.505
L223.391 172.002
L225.457 175.117
L227.524 174.369
L229.591 175.309
L231.657 172.765
L233.724 171.813
L235.791 174.446
L237.857 172.479
L239.924 174.335
L241.991 171.847
L244.057 175.551
L246.124 174.738
L248.191 173.91
L250.257 173.466
L252.324 173.159
L254.391 173.081" style="fill:none;stroke:#4daf4a;stroke-linecap:square;stroke-width:2.0;"/>
   </g>
   <g id="line2d_2">
    <path clip-path="url(#p2b44c23dda)" d="
M31.1906 172.674
L42.9805 172.091
L49.8771 171.886
L54.7703 171.946
L58.5658 171.85
L61.6669 172.241
L64.2889 172.147
L66.5601 172.449
L68.5635 172.212
L70.3556 172.091
L71.9767 172.316
L74.8182 172.142
L76.0787 172.37
L78.35 172.312
L80.3533 171.694
L82.9753 171.499
L85.2466 171.405
L87.2499 171.141
L89.042 172.286
L91.171 171.528
L93.0628 170.818
L95.1654 171.5
L97.3871 170.569
L99.3519 170.336
L101.39 170.503
L103.454 169.275
L105.511 169.429
L107.728 169.727
L109.69 170.842
L111.749 171.426
L113.852 170.389
L115.957 169.73
L118.038 167.106
L120.076 169.008
L122.14 169.91
L124.198 168.525
L126.288 170.98
L128.32 170.134
L130.386 169.875
L132.45 169.309
L134.527 169.562
L136.587 166.867
L138.671 168.127
L140.718 167.472
L142.788 168.353
L144.847 168.267
L146.931 166.449
L148.989 165.741
L151.063 166.22
L153.122 168.374
L155.192 168.995
L157.255 168.084
L159.323 168.256
L161.394 167.623
L163.456 169.426
L165.523 168.168
L167.592 170.505
L169.655 168.521
L171.725 169.573
L173.789 168.494
L175.859 171.286
L177.924 168.001
L179.992 165.231
L182.056 167.59
L184.123 170.57
L186.19 168.824
L188.257 168.233
L190.324 167.67
L192.39 168.158
L194.458 168.215
L196.524 170.072
L198.591 169.08
L200.657 166.404
L202.724 170.762
L204.791 169.184
L206.857 169.403
L208.924 165.739
L210.991 169.106
L213.057 168.309
L215.124 166.923
L217.191 164.257
L219.257 163.912
L221.324 167.783
L223.391 164.719
L225.457 168.889
L227.524 168.675
L229.591 166.626
L231.657 166.752
L233.724 165.881
L235.791 167.168
L237.857 167.783
L239.924 168.029
L241.991 169.524
L244.057 166.346
L246.124 166.945
L248.191 168.994
L250.257 167.56
L252.324 166.166
L254.391 166.405" style="fill:none;stroke:#49a560;stroke-linecap:square;stroke-width:2.0;"/>
   </g>
   <g id="line2d_3">
    <path clip-path="url(#p2b44c23dda)" d="
M31.1906 171.992
L42.9805 171.163
L49.8771 171.13
L54.7703 171.01
L58.5658 171.314
L61.6669 171.03
L64.2889 170.729
L66.5601 170.313
L68.5635 170.96
L70.3556 171.536
L71.9767 171.259
L74.8182 170.701
L76.0787 170.552
L78.35 171.05
L80.3533 171.449
L82.9753 171.213
L85.2466 171.327
L87.2499 171.089
L89.042 170.849
L91.171 169.9
L93.0628 170.834
L95.1654 170.646
L97.3871 169.69
L99.3519 170.277
L101.39 170.592
L103.454 169.055
L105.511 168.047
L107.728 167.364
L109.69 166.815
L111.749 166.592
L113.852 167.976
L115.957 167.643
L118.038 167.398
L120.076 168.137
L122.14 167.656
L124.198 166.005
L126.288 165.248
L128.32 165.035
L130.386 165.939
L132.45 162.586
L134.527 163.462
L136.587 164.456
L138.671 166.045
L140.718 168.019
L142.788 165.804
L144.847 166.021
L146.931 164.483
L148.989 164.695
L151.063 164.013
L153.122 159.307
L155.192 165.692
L157.255 164.107
L159.323 162.197
L161.394 164.675
L163.456 162.45
L165.523 163.244
L167.592 162.598
L169.655 163.59
L171.725 163.573
L173.789 158.017
L175.859 162.579
L177.924 160.826
L179.992 162.153
L182.056 161.484
L184.123 161.529
L186.19 160.565
L188.257 159.666
L190.324 157.413
L192.39 158.743
L194.458 161.146
L196.524 163.257
L198.591 157.533
L200.657 158.175
L202.724 155.283
L204.791 158.844
L206.857 160.363
L208.924 159.454
L210.991 155.242
L213.057 158.382
L215.124 154.615
L217.191 158.854
L219.257 158.558
L221.324 154.899
L223.391 159.901
L225.457 157.034
L227.524 159.448
L229.591 161.326
L231.657 158.683
L233.724 162.318
L235.791 155.72
L237.857 156.444
L239.924 157.737
L241.991 160.588
L244.057 158.924
L246.124 161.089
L248.191 158.036
L250.257 160.44
L252.324 162.654
L254.391 158.794" style="fill:none;stroke:#449b77;stroke-linecap:square;stroke-width:2.0;"/>
   </g>
   <g id="line2d_4">
    <path clip-path="url(#p2b44c23dda)" d="
M31.1906 169.2
L42.9805 168.556
L49.8771 168.404
L54.7703 167.862
L58.5658 168.153
L61.6669 168.147
L64.2889 168.176
L66.5601 168.049
L68.5635 168.329
L70.3556 168.662
L71.9767 169.094
L74.8182 168.286
L76.0787 169.286
L78.35 169.692
L80.3533 169.358
L82.9753 168.04
L85.2466 167.233
L87.2499 166.55
L89.042 165.179
L91.171 166.608
L93.0628 167.743
L95.1654 166.824
L97.3871 167.917
L99.3519 166.302
L101.39 166.732
L103.454 166.799
L105.511 165.121
L107.728 166.226
L109.69 166.091
L111.749 166.177
L113.852 166.081
L115.957 165.906
L118.038 165.463
L120.076 163.368
L122.14 163.905
L124.198 163.108
L126.288 160.738
L128.32 161.84
L130.386 161.44
L132.45 159.716
L134.527 158.484
L136.587 157.2
L138.671 157.892
L140.718 158.985
L142.788 159.465
L144.847 160.016
L146.931 161.347
L148.989 159.811
L151.063 159.067
L153.122 156.042
L155.192 160.715
L157.255 156.523
L159.323 154.034
L161.394 153.696
L163.456 149.323
L165.523 154.951
L167.592 154.796
L169.655 153.219
L171.725 156.551
L173.789 155.618
L175.859 156.78
L177.924 149.483
L179.992 149.332
L182.056 151.786
L184.123 152.373
L186.19 147.884
L188.257 151.58
L190.324 153.255
L192.39 152.714
L194.458 152.391
L196.524 149.025
L198.591 150.766
L200.657 144.765
L202.724 143.109
L204.791 146.622
L206.857 141.938
L208.924 142.301
L210.991 143.294
L213.057 148.309
L215.124 146.075
L217.191 146.694
L219.257 145.407
L221.324 144.867
L223.391 149.279
L225.457 140.882
L227.524 143.482
L229.591 144.566
L231.657 140.671
L233.724 144.86
L235.791 144.858
L237.857 149.047
L239.924 144.463
L241.991 145.713
L244.057 144.798
L246.124 143.884
L248.191 146.488
L250.257 141.754
L252.324 146.921
L254.391 137.885" style="fill:none;stroke:#3b86a5;stroke-linecap:square;stroke-width:2.0;"/>
   </g>
   <g id="line2d_5">
    <path clip-path="url(#p2b44c23dda)" d="
M31.1906 167.439
L42.9805 166.347
L49.8771 165.57
L54.7703 165.47
L58.5658 165.237
L61.6669 165.413
L64.2889 165.309
L66.5601 165.144
L68.5635 165.257
L70.3556 165.173
L71.9767 164.711
L74.8182 163.544
L76.0787 164.065
L78.35 164.5
L80.3533 164.727
L82.9753 164.335
L85.2466 164.175
L87.2499 164.809
L89.042 165.476
L91.171 164.63
L93.0628 163.807
L95.1654 163.043
L97.3871 162.079
L99.3519 162.084
L101.39 160.872
L103.454 161.041
L105.511 159.988
L107.728 160.752
L109.69 157.698
L111.749 159.233
L113.852 158.213
L115.957 157.264
L118.038 155.986
L120.076 155.511
L122.14 155.265
L124.198 154.315
L126.288 159.25
L128.32 159.929
L130.386 158.314
L132.45 157.3
L134.527 156.432
L136.587 156.353
L138.671 154.148
L140.718 154.693
L142.788 151.593
L144.847 148.705
L146.931 147.457
L148.989 151.389
L151.063 149.579
L153.122 150.266
L155.192 153.366
L157.255 155.677
L159.323 153.71
L161.394 151.55
L163.456 147.85
L165.523 152.126
L167.592 148.189
L169.655 148.731
L171.725 141.671
L173.789 150.181
L175.859 146.506
L177.924 143.403
L179.992 146.788
L182.056 137.767
L184.123 143.316
L186.19 140.268
L188.257 142.341
L190.324 144.386
L192.39 144.108
L194.458 142.591
L196.524 142.395
L198.591 136.752
L200.657 140.138
L202.724 131.981
L204.791 132.306
L206.857 131.729
L208.924 137.707
L210.991 133.429
L213.057 126.102
L215.124 130.298
L217.191 134.239
L219.257 132.55
L221.324 129.122
L223.391 135.047
L225.457 118.685
L227.524 127.801
L229.591 129.084
L231.657 112.386
L233.724 122.222
L235.791 119.766
L237.857 120.685
L239.924 117.222
L241.991 126.195
L244.057 122.83
L246.124 127.072
L248.191 111.517
L250.257 115.467
L252.324 95.8462
L254.391 122.668" style="fill:none;stroke:#8e53a5;stroke-linecap:square;stroke-width:2.0;"/>
   </g>
   <g id="line2d_6">
    <path clip-path="url(#p2b44c23dda)" d="
M31.1906 166.832
L42.9805 165.939
L49.8771 165.107
L54.7703 165.05
L58.5658 164.757
L61.6669 164.039
L64.2889 164.645
L66.5601 165.168
L68.5635 165.293
L70.3556 165.201
L71.9767 164.86
L74.8182 163.743
L76.0787 163.668
L78.35 163.518
L80.3533 163.649
L82.9753 163.71
L85.2466 162.574
L87.2499 162.323
L89.042 161.913
L91.171 160.647
L93.0628 161.01
L95.1654 163.226
L97.3871 161.012
L99.3519 162.862
L101.39 161.828
L103.454 158.893
L105.511 158.594
L107.728 158.815
L109.69 157.545
L111.749 159.206
L113.852 159.759
L115.957 160.1
L118.038 157.846
L120.076 158.058
L122.14 157.04
L124.198 155.935
L126.288 157.153
L128.32 156.538
L130.386 157.198
L132.45 155.982
L134.527 153.987
L136.587 153.088
L138.671 151.864
L140.718 152.728
L142.788 153.8
L144.847 152.544
L146.931 151.408
L148.989 152.336
L151.063 146.893
L153.122 142.961
L155.192 144.697
L157.255 144.296
L159.323 150.555
L161.394 149.479
L163.456 146.848
L165.523 144.595
L167.592 141.346
L169.655 138.72
L171.725 136.486
L173.789 139.416
L175.859 140.531
L177.924 131.857
L179.992 132.068
L182.056 129.858
L184.123 137.098
L186.19 131.969
L188.257 134.308
L190.324 133.208
L192.39 136.363
L194.458 130.072
L196.524 130.066
L198.591 131.784
L200.657 129.488
L202.724 119.766
L204.791 127.229
L206.857 131.505
L208.924 123.035
L210.991 125.704
L213.057 120.49
L215.124 115.919
L217.191 115.299
L219.257 108.957
L221.324 113.152
L223.391 113.903
L225.457 121.544
L227.524 104.621
L229.591 110.161
L231.657 115.526
L233.724 98.0139
L235.791 106.511
L237.857 106.271
L239.924 109.315
L241.991 110.963
L244.057 112.501
L246.124 105.257
L248.191 40.2579
L250.257 89.7435
L252.324 75.8953
L254.391 87.5334" style="fill:none;stroke:#e01d23;stroke-linecap:square;stroke-width:2.0;"/>
   </g>
   <g id="line2d_7">
    <path clip-path="url(#p2b44c23dda)" d="
M31.1906 161.823
L42.9805 161.816
L49.8771 161.091
L54.7703 160.801
L58.5658 160.245
L61.6669 160.18
L64.2889 159.713
L66.5601 159.249
L68.5635 159.63
L70.3556 159.237
L71.9767 159.085
L74.8182 159.236
L76.0787 159.19
L78.35 159.37
L80.3533 158.053
L82.9753 158.31
L85.2466 157.121
L87.2499 157.756
L89.042 158.033
L91.171 157.356
L93.0628 157.813
L95.1654 156.693
L97.3871 158.017
L99.3519 157.885
L101.39 157.385
L103.454 156.115
L105.511 155.975
L107.728 153.705
L109.69 152.364
L111.749 153.05
L113.852 152.834
L115.957 150.944
L118.038 153.27
L120.076 149.466
L122.14 151.131
L124.198 150.914
L126.288 152.341
L128.32 150.14
L130.386 150.467
L132.45 149.467
L134.527 147.401
L136.587 146.597
L138.671 147.299
L140.718 145.349
L142.788 145.161
L144.847 143.111
L146.931 144.949
L148.989 132.359
L151.063 133.11
L153.122 136.272
L155.192 128.481
L157.255 135.382
L159.323 133.826
L161.394 138.225
L163.456 125.856
L165.523 134.533
L167.592 135.614
L169.655 133.507
L171.725 131.726
L173.789 130.964
L175.859 122.184
L177.924 129.226
L179.992 127.709
L182.056 136.391
L184.123 133.896
L186.19 131.068
L188.257 126.388
L190.324 123.813
L192.39 125.437
L194.458 130.049
L196.524 118.097
L198.591 111.021
L200.657 106.237
L202.724 109.534
L204.791 116.132
L206.857 101.017
L208.924 98.1623
L210.991 103.215
L213.057 103.091
L215.124 106.648
L217.191 99.0098
L219.257 100.215
L221.324 107.351
L223.391 112.55
L225.457 103.127
L227.524 98.3671
L229.591 83.8318
L231.657 112.937
L233.724 95.5967
L235.791 99.8151
L237.857 63.1479
L239.924 100.057
L241.991 93.205
L244.057 93.9776
L246.124 104.229
L248.191 82.4173
L250.257 66.6899
L252.324 60.3855
L254.391 76.5078" style="fill:none;stroke:#ff7f00;stroke-linecap:square;stroke-width:2.0;"/>
   </g>
   <g id="patch_3">
    <path d="
M254.391 194
L254.391 21.2" style="fill:none;stroke:#000000;stroke-linecap:square;stroke-linejoin:miter;"/>
   </g>
   <g id="patch_4">
    <path d="
M31.1906 194
L31.1906 21.2" style="fill:none;stroke:#000000;stroke-linecap:square;stroke-linejoin:miter;"/>
   </g>
   <g id="patch_5">
    <path d="
M31.1906 21.2
L254.391 21.2" style="fill:none;stroke:#000000;stroke-linecap:square;stroke-linejoin:miter;"/>
   </g>
   <g id="patch_6">
    <path d="
M31.1906 194
L254.391 194" style="fill:none;stroke:#000000;stroke-linecap:square;stroke-linejoin:miter;"/>
   </g>
   <g id="matplotlib.axis_1">
    <g id="xtick_1">
     <g id="line2d_8">
      <defs>
       <path d="
M0 0
L0 -4" id="mc7db9fdffb" style="stroke:#000000;stroke-width:0.5;"/>
      </defs>
      <g>
       <use style="stroke:#000000;stroke-width:0.5;" x="31.190625" xlink:href="#mc7db9fdffb" y="194.0"/>
      </g>
     </g>
     <g id="line2d_9">
      <defs>
       <path d="
M0 0
L0 4" id="m5a7d422ac3" style="stroke:#000000;stroke-width:0.5;"/>
      </defs>
      <g>
       <use style="stroke:#000000;stroke-width:0.5;" x="31.190625" xlink:href="#m5a7d422ac3" y="21.2"/>
      </g>
     </g>
     <g id="text_1">
      <!-- $\mathdefault{10^{-1}}$ -->
      <defs>
       <path d="
M12.4062 8.29688
L28.5156 8.29688
L28.5156 63.9219
L10.9844 60.4062
L10.9844 69.3906
L28.4219 72.9062
L38.2812 72.9062
L38.2812 8.29688
L54.3906 8.29688
L54.3906 0
L12.4062 0
z
" id="BitstreamVeraSans-Roman-31"/>
       <path d="
M31.7812 66.4062
Q24.1719 66.4062 20.3281 58.9062
Q16.5 51.4219 16.5 36.375
Q16.5 21.3906 20.3281 13.8906
Q24.1719 6.39062 31.7812 6.39062
Q39.4531 6.39062 43.2812 13.8906
Q47.125 21.3906 47.125 36.375
Q47.125 51.4219 43.2812 58.9062
Q39.4531 66.4062 31.7812 66.4062
M31.7812 74.2188
Q44.0469 74.2188 50.5156 64.5156
Q56.9844 54.8281 56.9844 36.375
Q56.9844 17.9688 50.5156 8.26562
Q44.0469 -1.42188 31.7812 -1.42188
Q19.5312 -1.42188 13.0625 8.26562
Q6.59375 17.9688 6.59375 36.375
Q6.59375 54.8281 13.0625 64.5156
Q19.5312 74.2188 31.7812 74.2188" id="BitstreamVeraSans-Roman-30"/>
       <path d="
M4.89062 31.3906
L31.2031 31.3906
L31.2031 23.3906
L4.89062 23.3906
z
" id="BitstreamVeraSans-Roman-2d"/>
      </defs>
      <g transform="translate(20.240625 206.5203125)scale(0.1 -0.1)">
       <use transform="translate(0.0 0.46562500000000284)" xlink:href="#BitstreamVeraSans-Roman-31"/>
       <use transform="translate(63.623046875 0.46562500000000284)" xlink:href="#BitstreamVeraSans-Roman-30"/>
       <use transform="translate(127.24609375 52.965625)scale(0.7)" xlink:href="#BitstreamVeraSans-Roman-2d"/>
       <use transform="translate(152.5048828125 52.965625)scale(0.7)" xlink:href="#BitstreamVeraSans-Roman-31"/>
      </g>
     </g>
    </g>
    <g id="xtick_2">
     <g id="line2d_10">
      <g>
       <use style="stroke:#000000;stroke-width:0.5;" x="70.3555968862" xlink:href="#mc7db9fdffb" y="194.0"/>
      </g>
     </g>
     <g id="line2d_11">
      <g>
       <use style="stroke:#000000;stroke-width:0.5;" x="70.3555968862" xlink:href="#m5a7d422ac3" y="21.2"/>
      </g>
     </g>
     <g id="text_2">
      <!-- $\mathdefault{10^{0}}$ -->
      <g transform="translate(60.7055968862 206.6203125)scale(0.1 -0.1)">
       <use transform="translate(0.0 0.546875)" xlink:href="#BitstreamVeraSans-Roman-31"/>
       <use transform="translate(63.623046875 0.546875)" xlink:href="#BitstreamVeraSans-Roman-30"/>
       <use transform="translate(127.24609375 53.046875)scale(0.7)" xlink:href="#BitstreamVeraSans-Roman-30"/>
      </g>
     </g>
    </g>
    <g id="xtick_3">
     <g id="line2d_12">
      <g>
       <use style="stroke:#000000;stroke-width:0.5;" x="109.520568772" xlink:href="#mc7db9fdffb" y="194.0"/>
      </g>
     </g>
     <g id="line2d_13">
      <g>
       <use style="stroke:#000000;stroke-width:0.5;" x="109.520568772" xlink:href="#m5a7d422ac3" y="21.2"/>
      </g>
     </g>
     <g id="text_3">
      <!-- $\mathdefault{10^{1}}$ -->
      <g transform="translate(99.8705687724 206.5203125)scale(0.1 -0.1)">
       <use transform="translate(0.0 0.46562500000000284)" xlink:href="#BitstreamVeraSans-Roman-31"/>
       <use transform="translate(63.623046875 0.46562500000000284)" xlink:href="#BitstreamVeraSans-Roman-30"/>
       <use transform="translate(127.24609375 52.965625)scale(0.7)" xlink:href="#BitstreamVeraSans-Roman-31"/>
      </g>
     </g>
    </g>
    <g id="xtick_4">
     <g id="line2d_14">
      <g>
       <use style="stroke:#000000;stroke-width:0.5;" x="148.685540659" xlink:href="#mc7db9fdffb" y="194.0"/>
      </g>
     </g>
     <g id="line2d_15">
      <g>
       <use style="stroke:#000000;stroke-width:0.5;" x="148.685540659" xlink:href="#m5a7d422ac3" y="21.2"/>
      </g>
     </g>
     <g id="text_4">
      <!-- $\mathdefault{10^{2}}$ -->
      <defs>
       <path d="
M19.1875 8.29688
L53.6094 8.29688
L53.6094 0
L7.32812 0
L7.32812 8.29688
Q12.9375 14.1094 22.625 23.8906
Q32.3281 33.6875 34.8125 36.5312
Q39.5469 41.8438 41.4219 45.5312
Q43.3125 49.2188 43.3125 52.7812
Q43.3125 58.5938 39.2344 62.25
Q35.1562 65.9219 28.6094 65.9219
Q23.9688 65.9219 18.8125 64.3125
Q13.6719 62.7031 7.8125 59.4219
L7.8125 69.3906
Q13.7656 71.7812 18.9375 73
Q24.125 74.2188 28.4219 74.2188
Q39.75 74.2188 46.4844 68.5469
Q53.2188 62.8906 53.2188 53.4219
Q53.2188 48.9219 51.5312 44.8906
Q49.8594 40.875 45.4062 35.4062
Q44.1875 33.9844 37.6406 27.2188
Q31.1094 20.4531 19.1875 8.29688" id="BitstreamVeraSans-Roman-32"/>
      </defs>
      <g transform="translate(139.035540659 206.6203125)scale(0.1 -0.1)">
       <use transform="translate(0.0 0.546875)" xlink:href="#BitstreamVeraSans-Roman-31"/>
       <use transform="translate(63.623046875 0.546875)" xlink:href="#BitstreamVeraSans-Roman-30"/>
       <use transform="translate(127.24609375 53.046875)scale(0.7)" xlink:href="#BitstreamVeraSans-Roman-32"/>
      </g>
     </g>
    </g>
    <g id="xtick_5">
     <g id="line2d_16">
      <g>
       <use style="stroke:#000000;stroke-width:0.5;" x="187.850512545" xlink:href="#mc7db9fdffb" y="194.0"/>
      </g>
     </g>
     <g id="line2d_17">
      <g>
       <use style="stroke:#000000;stroke-width:0.5;" x="187.850512545" xlink:href="#m5a7d422ac3" y="21.2"/>
      </g>
     </g>
     <g id="text_5">
      <!-- $\mathdefault{10^{3}}$ -->
      <defs>
       <path d="
M40.5781 39.3125
Q47.6562 37.7969 51.625 33
Q55.6094 28.2188 55.6094 21.1875
Q55.6094 10.4062 48.1875 4.48438
Q40.7656 -1.42188 27.0938 -1.42188
Q22.5156 -1.42188 17.6562 -0.515625
Q12.7969 0.390625 7.625 2.20312
L7.625 11.7188
Q11.7188 9.32812 16.5938 8.10938
Q21.4844 6.89062 26.8125 6.89062
Q36.0781 6.89062 40.9375 10.5469
Q45.7969 14.2031 45.7969 21.1875
Q45.7969 27.6406 41.2812 31.2656
Q36.7656 34.9062 28.7188 34.9062
L20.2188 34.9062
L20.2188 43.0156
L29.1094 43.0156
Q36.375 43.0156 40.2344 45.9219
Q44.0938 48.8281 44.0938 54.2969
Q44.0938 59.9062 40.1094 62.9062
Q36.1406 65.9219 28.7188 65.9219
Q24.6562 65.9219 20.0156 65.0312
Q15.375 64.1562 9.8125 62.3125
L9.8125 71.0938
Q15.4375 72.6562 20.3438 73.4375
Q25.25 74.2188 29.5938 74.2188
Q40.8281 74.2188 47.3594 69.1094
Q53.9062 64.0156 53.9062 55.3281
Q53.9062 49.2656 50.4375 45.0938
Q46.9688 40.9219 40.5781 39.3125" id="BitstreamVeraSans-Roman-33"/>
      </defs>
      <g transform="translate(178.200512545 206.6203125)scale(0.1 -0.1)">
       <use transform="translate(0.0 0.546875)" xlink:href="#BitstreamVeraSans-Roman-31"/>
       <use transform="translate(63.623046875 0.546875)" xlink:href="#BitstreamVeraSans-Roman-30"/>
       <use transform="translate(127.24609375 53.046875)scale(0.7)" xlink:href="#BitstreamVeraSans-Roman-33"/>
      </g>
     </g>
    </g>
    <g id="xtick_6">
     <g id="line2d_18">
      <g>
       <use style="stroke:#000000;stroke-width:0.5;" x="227.015484431" xlink:href="#mc7db9fdffb" y="194.0"/>
      </g>
     </g>
     <g id="line2d_19">
      <g>
       <use style="stroke:#000000;stroke-width:0.5;" x="227.015484431" xlink:href="#m5a7d422ac3" y="21.2"/>
      </g>
     </g>
     <g id="text_6">
      <!-- $\mathdefault{10^{4}}$ -->
      <defs>
       <path d="
M37.7969 64.3125
L12.8906 25.3906
L37.7969 25.3906
z

M35.2031 72.9062
L47.6094 72.9062
L47.6094 25.3906
L58.0156 25.3906
L58.0156 17.1875
L47.6094 17.1875
L47.6094 0
L37.7969 0
L37.7969 17.1875
L4.89062 17.1875
L4.89062 26.7031
z
" id="BitstreamVeraSans-Roman-34"/>
      </defs>
      <g transform="translate(217.365484431 206.5203125)scale(0.1 -0.1)">
       <use transform="translate(0.0 0.46562500000000284)" xlink:href="#BitstreamVeraSans-Roman-31"/>
       <use transform="translate(63.623046875 0.46562500000000284)" xlink:href="#BitstreamVeraSans-Roman-30"/>
       <use transform="translate(127.24609375 52.965625)scale(0.7)" xlink:href="#BitstreamVeraSans-Roman-34"/>
      </g>
     </g>
    </g>
    <g id="xtick_7">
     <g id="line2d_20">
      <defs>
       <path d="
M0 0
L0 -2" id="mc21db286a6" style="stroke:#000000;stroke-width:0.5;"/>
      </defs>
      <g>
       <use style="stroke:#000000;stroke-width:0.5;" x="42.9804563171" xlink:href="#mc21db286a6" y="194.0"/>
      </g>
     </g>
     <g id="line2d_21">
      <defs>
       <path d="
M0 0
L0 2" id="ma9c915e141" style="stroke:#000000;stroke-width:0.5;"/>
      </defs>
      <g>
       <use style="stroke:#000000;stroke-width:0.5;" x="42.9804563171" xlink:href="#ma9c915e141" y="21.2"/>
      </g>
     </g>
    </g>
    <g id="xtick_8">
     <g id="line2d_22">
      <g>
       <use style="stroke:#000000;stroke-width:0.5;" x="49.8770655274" xlink:href="#mc21db286a6" y="194.0"/>
      </g>
     </g>
     <g id="line2d_23">
      <g>
       <use style="stroke:#000000;stroke-width:0.5;" x="49.8770655274" xlink:href="#ma9c915e141" y="21.2"/>
      </g>
     </g>
    </g>
    <g id="xtick_9">
     <g id="line2d_24">
      <g>
       <use style="stroke:#000000;stroke-width:0.5;" x="54.7702876342" xlink:href="#mc21db286a6" y="194.0"/>
      </g>
     </g>
     <g id="line2d_25">
      <g>
       <use style="stroke:#000000;stroke-width:0.5;" x="54.7702876342" xlink:href="#ma9c915e141" y="21.2"/>
      </g>
     </g>
    </g>
    <g id="xtick_10">
     <g id="line2d_26">
      <g>
       <use style="stroke:#000000;stroke-width:0.5;" x="58.5657655691" xlink:href="#mc21db286a6" y="194.0"/>
      </g>
     </g>
     <g id="line2d_27">
      <g>
       <use style="stroke:#000000;stroke-width:0.5;" x="58.5657655691" xlink:href="#ma9c915e141" y="21.2"/>
      </g>
     </g>
    </g>
    <g id="xtick_11">
     <g id="line2d_28">
      <g>
       <use style="stroke:#000000;stroke-width:0.5;" x="61.6668968445" xlink:href="#mc21db286a6" y="194.0"/>
      </g>
     </g>
     <g id="line2d_29">
      <g>
       <use style="stroke:#000000;stroke-width:0.5;" x="61.6668968445" xlink:href="#ma9c915e141" y="21.2"/>
      </g>
     </g>
    </g>
    <g id="xtick_12">
     <g id="line2d_30">
      <g>
       <use style="stroke:#000000;stroke-width:0.5;" x="64.2888659782" xlink:href="#mc21db286a6" y="194.0"/>
      </g>
     </g>
     <g id="line2d_31">
      <g>
       <use style="stroke:#000000;stroke-width:0.5;" x="64.2888659782" xlink:href="#ma9c915e141" y="21.2"/>
      </g>
     </g>
    </g>
    <g id="xtick_13">
     <g id="line2d_32">
      <g>
       <use style="stroke:#000000;stroke-width:0.5;" x="66.5601189512" xlink:href="#mc21db286a6" y="194.0"/>
      </g>
     </g>
     <g id="line2d_33">
      <g>
       <use style="stroke:#000000;stroke-width:0.5;" x="66.5601189512" xlink:href="#ma9c915e141" y="21.2"/>
      </g>
     </g>
    </g>
    <g id="xtick_14">
     <g id="line2d_34">
      <g>
       <use style="stroke:#000000;stroke-width:0.5;" x="68.5635060548" xlink:href="#mc21db286a6" y="194.0"/>
      </g>
     </g>
     <g id="line2d_35">
      <g>
       <use style="stroke:#000000;stroke-width:0.5;" x="68.5635060548" xlink:href="#ma9c915e141" y="21.2"/>
      </g>
     </g>
    </g>
    <g id="xtick_15">
     <g id="line2d_36">
      <g>
       <use style="stroke:#000000;stroke-width:0.5;" x="82.1454282033" xlink:href="#mc21db286a6" y="194.0"/>
      </g>
     </g>
     <g id="line2d_37">
      <g>
       <use style="stroke:#000000;stroke-width:0.5;" x="82.1454282033" xlink:href="#ma9c915e141" y="21.2"/>
      </g>
     </g>
    </g>
    <g id="xtick_16">
     <g id="line2d_38">
      <g>
       <use style="stroke:#000000;stroke-width:0.5;" x="89.0420374136" xlink:href="#mc21db286a6" y="194.0"/>
      </g>
     </g>
     <g id="line2d_39">
      <g>
       <use style="stroke:#000000;stroke-width:0.5;" x="89.0420374136" xlink:href="#ma9c915e141" y="21.2"/>
      </g>
     </g>
    </g>
    <g id="xtick_17">
     <g id="line2d_40">
      <g>
       <use style="stroke:#000000;stroke-width:0.5;" x="93.9352595203" xlink:href="#mc21db286a6" y="194.0"/>
      </g>
     </g>
     <g id="line2d_41">
      <g>
       <use style="stroke:#000000;stroke-width:0.5;" x="93.9352595203" xlink:href="#ma9c915e141" y="21.2"/>
      </g>
     </g>
    </g>
    <g id="xtick_18">
     <g id="line2d_42">
      <g>
       <use style="stroke:#000000;stroke-width:0.5;" x="97.7307374553" xlink:href="#mc21db286a6" y="194.0"/>
      </g>
     </g>
     <g id="line2d_43">
      <g>
       <use style="stroke:#000000;stroke-width:0.5;" x="97.7307374553" xlink:href="#ma9c915e141" y="21.2"/>
      </g>
     </g>
    </g>
    <g id="xtick_19">
     <g id="line2d_44">
      <g>
       <use style="stroke:#000000;stroke-width:0.5;" x="100.831868731" xlink:href="#mc21db286a6" y="194.0"/>
      </g>
     </g>
     <g id="line2d_45">
      <g>
       <use style="stroke:#000000;stroke-width:0.5;" x="100.831868731" xlink:href="#ma9c915e141" y="21.2"/>
      </g>
     </g>
    </g>
    <g id="xtick_20">
     <g id="line2d_46">
      <g>
       <use style="stroke:#000000;stroke-width:0.5;" x="103.453837864" xlink:href="#mc21db286a6" y="194.0"/>
      </g>
     </g>
     <g id="line2d_47">
      <g>
       <use style="stroke:#000000;stroke-width:0.5;" x="103.453837864" xlink:href="#ma9c915e141" y="21.2"/>
      </g>
     </g>
    </g>
    <g id="xtick_21">
     <g id="line2d_48">
      <g>
       <use style="stroke:#000000;stroke-width:0.5;" x="105.725090837" xlink:href="#mc21db286a6" y="194.0"/>
      </g>
     </g>
     <g id="line2d_49">
      <g>
       <use style="stroke:#000000;stroke-width:0.5;" x="105.725090837" xlink:href="#ma9c915e141" y="21.2"/>
      </g>
     </g>
    </g>
    <g id="xtick_22">
     <g id="line2d_50">
      <g>
       <use style="stroke:#000000;stroke-width:0.5;" x="107.728477941" xlink:href="#mc21db286a6" y="194.0"/>
      </g>
     </g>
     <g id="line2d_51">
      <g>
       <use style="stroke:#000000;stroke-width:0.5;" x="107.728477941" xlink:href="#ma9c915e141" y="21.2"/>
      </g>
     </g>
    </g>
    <g id="xtick_23">
     <g id="line2d_52">
      <g>
       <use style="stroke:#000000;stroke-width:0.5;" x="121.310400089" xlink:href="#mc21db286a6" y="194.0"/>
      </g>
     </g>
     <g id="line2d_53">
      <g>
       <use style="stroke:#000000;stroke-width:0.5;" x="121.310400089" xlink:href="#ma9c915e141" y="21.2"/>
      </g>
     </g>
    </g>
    <g id="xtick_24">
     <g id="line2d_54">
      <g>
       <use style="stroke:#000000;stroke-width:0.5;" x="128.2070093" xlink:href="#mc21db286a6" y="194.0"/>
      </g>
     </g>
     <g id="line2d_55">
      <g>
       <use style="stroke:#000000;stroke-width:0.5;" x="128.2070093" xlink:href="#ma9c915e141" y="21.2"/>
      </g>
     </g>
    </g>
    <g id="xtick_25">
     <g id="line2d_56">
      <g>
       <use style="stroke:#000000;stroke-width:0.5;" x="133.100231407" xlink:href="#mc21db286a6" y="194.0"/>
      </g>
     </g>
     <g id="line2d_57">
      <g>
       <use style="stroke:#000000;stroke-width:0.5;" x="133.100231407" xlink:href="#ma9c915e141" y="21.2"/>
      </g>
     </g>
    </g>
    <g id="xtick_26">
     <g id="line2d_58">
      <g>
       <use style="stroke:#000000;stroke-width:0.5;" x="136.895709341" xlink:href="#mc21db286a6" y="194.0"/>
      </g>
     </g>
     <g id="line2d_59">
      <g>
       <use style="stroke:#000000;stroke-width:0.5;" x="136.895709341" xlink:href="#ma9c915e141" y="21.2"/>
      </g>
     </g>
    </g>
    <g id="xtick_27">
     <g id="line2d_60">
      <g>
       <use style="stroke:#000000;stroke-width:0.5;" x="139.996840617" xlink:href="#mc21db286a6" y="194.0"/>
      </g>
     </g>
     <g id="line2d_61">
      <g>
       <use style="stroke:#000000;stroke-width:0.5;" x="139.996840617" xlink:href="#ma9c915e141" y="21.2"/>
      </g>
     </g>
    </g>
    <g id="xtick_28">
     <g id="line2d_62">
      <g>
       <use style="stroke:#000000;stroke-width:0.5;" x="142.618809751" xlink:href="#mc21db286a6" y="194.0"/>
      </g>
     </g>
     <g id="line2d_63">
      <g>
       <use style="stroke:#000000;stroke-width:0.5;" x="142.618809751" xlink:href="#ma9c915e141" y="21.2"/>
      </g>
     </g>
    </g>
    <g id="xtick_29">
     <g id="line2d_64">
      <g>
       <use style="stroke:#000000;stroke-width:0.5;" x="144.890062724" xlink:href="#mc21db286a6" y="194.0"/>
      </g>
     </g>
     <g id="line2d_65">
      <g>
       <use style="stroke:#000000;stroke-width:0.5;" x="144.890062724" xlink:href="#ma9c915e141" y="21.2"/>
      </g>
     </g>
    </g>
    <g id="xtick_30">
     <g id="line2d_66">
      <g>
       <use style="stroke:#000000;stroke-width:0.5;" x="146.893449827" xlink:href="#mc21db286a6" y="194.0"/>
      </g>
     </g>
     <g id="line2d_67">
      <g>
       <use style="stroke:#000000;stroke-width:0.5;" x="146.893449827" xlink:href="#ma9c915e141" y="21.2"/>
      </g>
     </g>
    </g>
    <g id="xtick_31">
     <g id="line2d_68">
      <g>
       <use style="stroke:#000000;stroke-width:0.5;" x="160.475371976" xlink:href="#mc21db286a6" y="194.0"/>
      </g>
     </g>
     <g id="line2d_69">
      <g>
       <use style="stroke:#000000;stroke-width:0.5;" x="160.475371976" xlink:href="#ma9c915e141" y="21.2"/>
      </g>
     </g>
    </g>
    <g id="xtick_32">
     <g id="line2d_70">
      <g>
       <use style="stroke:#000000;stroke-width:0.5;" x="167.371981186" xlink:href="#mc21db286a6" y="194.0"/>
      </g>
     </g>
     <g id="line2d_71">
      <g>
       <use style="stroke:#000000;stroke-width:0.5;" x="167.371981186" xlink:href="#ma9c915e141" y="21.2"/>
      </g>
     </g>
    </g>
    <g id="xtick_33">
     <g id="line2d_72">
      <g>
       <use style="stroke:#000000;stroke-width:0.5;" x="172.265203293" xlink:href="#mc21db286a6" y="194.0"/>
      </g>
     </g>
     <g id="line2d_73">
      <g>
       <use style="stroke:#000000;stroke-width:0.5;" x="172.265203293" xlink:href="#ma9c915e141" y="21.2"/>
      </g>
     </g>
    </g>
    <g id="xtick_34">
     <g id="line2d_74">
      <g>
       <use style="stroke:#000000;stroke-width:0.5;" x="176.060681228" xlink:href="#mc21db286a6" y="194.0"/>
      </g>
     </g>
     <g id="line2d_75">
      <g>
       <use style="stroke:#000000;stroke-width:0.5;" x="176.060681228" xlink:href="#ma9c915e141" y="21.2"/>
      </g>
     </g>
    </g>
    <g id="xtick_35">
     <g id="line2d_76">
      <g>
       <use style="stroke:#000000;stroke-width:0.5;" x="179.161812503" xlink:href="#mc21db286a6" y="194.0"/>
      </g>
     </g>
     <g id="line2d_77">
      <g>
       <use style="stroke:#000000;stroke-width:0.5;" x="179.161812503" xlink:href="#ma9c915e141" y="21.2"/>
      </g>
     </g>
    </g>
    <g id="xtick_36">
     <g id="line2d_78">
      <g>
       <use style="stroke:#000000;stroke-width:0.5;" x="181.783781637" xlink:href="#mc21db286a6" y="194.0"/>
      </g>
     </g>
     <g id="line2d_79">
      <g>
       <use style="stroke:#000000;stroke-width:0.5;" x="181.783781637" xlink:href="#ma9c915e141" y="21.2"/>
      </g>
     </g>
    </g>
    <g id="xtick_37">
     <g id="line2d_80">
      <g>
       <use style="stroke:#000000;stroke-width:0.5;" x="184.05503461" xlink:href="#mc21db286a6" y="194.0"/>
      </g>
     </g>
     <g id="line2d_81">
      <g>
       <use style="stroke:#000000;stroke-width:0.5;" x="184.05503461" xlink:href="#ma9c915e141" y="21.2"/>
      </g>
     </g>
    </g>
    <g id="xtick_38">
     <g id="line2d_82">
      <g>
       <use style="stroke:#000000;stroke-width:0.5;" x="186.058421713" xlink:href="#mc21db286a6" y="194.0"/>
      </g>
     </g>
     <g id="line2d_83">
      <g>
       <use style="stroke:#000000;stroke-width:0.5;" x="186.058421713" xlink:href="#ma9c915e141" y="21.2"/>
      </g>
     </g>
    </g>
    <g id="xtick_39">
     <g id="line2d_84">
      <g>
       <use style="stroke:#000000;stroke-width:0.5;" x="199.640343862" xlink:href="#mc21db286a6" y="194.0"/>
      </g>
     </g>
     <g id="line2d_85">
      <g>
       <use style="stroke:#000000;stroke-width:0.5;" x="199.640343862" xlink:href="#ma9c915e141" y="21.2"/>
      </g>
     </g>
    </g>
    <g id="xtick_40">
     <g id="line2d_86">
      <g>
       <use style="stroke:#000000;stroke-width:0.5;" x="206.536953072" xlink:href="#mc21db286a6" y="194.0"/>
      </g>
     </g>
     <g id="line2d_87">
      <g>
       <use style="stroke:#000000;stroke-width:0.5;" x="206.536953072" xlink:href="#ma9c915e141" y="21.2"/>
      </g>
     </g>
    </g>
    <g id="xtick_41">
     <g id="line2d_88">
      <g>
       <use style="stroke:#000000;stroke-width:0.5;" x="211.430175179" xlink:href="#mc21db286a6" y="194.0"/>
      </g>
     </g>
     <g id="line2d_89">
      <g>
       <use style="stroke:#000000;stroke-width:0.5;" x="211.430175179" xlink:href="#ma9c915e141" y="21.2"/>
      </g>
     </g>
    </g>
    <g id="xtick_42">
     <g id="line2d_90">
      <g>
       <use style="stroke:#000000;stroke-width:0.5;" x="215.225653114" xlink:href="#mc21db286a6" y="194.0"/>
      </g>
     </g>
     <g id="line2d_91">
      <g>
       <use style="stroke:#000000;stroke-width:0.5;" x="215.225653114" xlink:href="#ma9c915e141" y="21.2"/>
      </g>
     </g>
    </g>
    <g id="xtick_43">
     <g id="line2d_92">
      <g>
       <use style="stroke:#000000;stroke-width:0.5;" x="218.326784389" xlink:href="#mc21db286a6" y="194.0"/>
      </g>
     </g>
     <g id="line2d_93">
      <g>
       <use style="stroke:#000000;stroke-width:0.5;" x="218.326784389" xlink:href="#ma9c915e141" y="21.2"/>
      </g>
     </g>
    </g>
    <g id="xtick_44">
     <g id="line2d_94">
      <g>
       <use style="stroke:#000000;stroke-width:0.5;" x="220.948753523" xlink:href="#mc21db286a6" y="194.0"/>
      </g>
     </g>
     <g id="line2d_95">
      <g>
       <use style="stroke:#000000;stroke-width:0.5;" x="220.948753523" xlink:href="#ma9c915e141" y="21.2"/>
      </g>
     </g>
    </g>
    <g id="xtick_45">
     <g id="line2d_96">
      <g>
       <use style="stroke:#000000;stroke-width:0.5;" x="223.220006496" xlink:href="#mc21db286a6" y="194.0"/>
      </g>
     </g>
     <g id="line2d_97">
      <g>
       <use style="stroke:#000000;stroke-width:0.5;" x="223.220006496" xlink:href="#ma9c915e141" y="21.2"/>
      </g>
     </g>
    </g>
    <g id="xtick_46">
     <g id="line2d_98">
      <g>
       <use style="stroke:#000000;stroke-width:0.5;" x="225.2233936" xlink:href="#mc21db286a6" y="194.0"/>
      </g>
     </g>
     <g id="line2d_99">
      <g>
       <use style="stroke:#000000;stroke-width:0.5;" x="225.2233936" xlink:href="#ma9c915e141" y="21.2"/>
      </g>
     </g>
    </g>
    <g id="xtick_47">
     <g id="line2d_100">
      <g>
       <use style="stroke:#000000;stroke-width:0.5;" x="238.805315748" xlink:href="#mc21db286a6" y="194.0"/>
      </g>
     </g>
     <g id="line2d_101">
      <g>
       <use style="stroke:#000000;stroke-width:0.5;" x="238.805315748" xlink:href="#ma9c915e141" y="21.2"/>
      </g>
     </g>
    </g>
    <g id="xtick_48">
     <g id="line2d_102">
      <g>
       <use style="stroke:#000000;stroke-width:0.5;" x="245.701924958" xlink:href="#mc21db286a6" y="194.0"/>
      </g>
     </g>
     <g id="line2d_103">
      <g>
       <use style="stroke:#000000;stroke-width:0.5;" x="245.701924958" xlink:href="#ma9c915e141" y="21.2"/>
      </g>
     </g>
    </g>
    <g id="xtick_49">
     <g id="line2d_104">
      <g>
       <use style="stroke:#000000;stroke-width:0.5;" x="250.595147065" xlink:href="#mc21db286a6" y="194.0"/>
      </g>
     </g>
     <g id="line2d_105">
      <g>
       <use style="stroke:#000000;stroke-width:0.5;" x="250.595147065" xlink:href="#ma9c915e141" y="21.2"/>
      </g>
     </g>
    </g>
    <g id="xtick_50">
     <g id="line2d_106">
      <g>
       <use style="stroke:#000000;stroke-width:0.5;" x="254.390625" xlink:href="#mc21db286a6" y="194.0"/>
      </g>
     </g>
     <g id="line2d_107">
      <g>
       <use style="stroke:#000000;stroke-width:0.5;" x="254.390625" xlink:href="#ma9c915e141" y="21.2"/>
      </g>
     </g>
    </g>
    <g id="text_7">
     <!-- Equilibration time -->
     <defs>
      <path d="
M56.2031 29.5938
L56.2031 25.2031
L14.8906 25.2031
Q15.4844 15.9219 20.4844 11.0625
Q25.4844 6.20312 34.4219 6.20312
Q39.5938 6.20312 44.4531 7.46875
Q49.3125 8.73438 54.1094 11.2812
L54.1094 2.78125
Q49.2656 0.734375 44.1875 -0.34375
Q39.1094 -1.42188 33.8906 -1.42188
Q20.7969 -1.42188 13.1562 6.1875
Q5.51562 13.8125 5.51562 26.8125
Q5.51562 40.2344 12.7656 48.1094
Q20.0156 56 32.3281 56
Q43.3594 56 49.7812 48.8906
Q56.2031 41.7969 56.2031 29.5938
M47.2188 32.2344
Q47.125 39.5938 43.0938 43.9844
Q39.0625 48.3906 32.4219 48.3906
Q24.9062 48.3906 20.3906 44.1406
Q15.875 39.8906 15.1875 32.1719
z
" id="BitstreamVeraSans-Roman-65"/>
      <path d="
M41.1094 46.2969
Q39.5938 47.1719 37.8125 47.5781
Q36.0312 48 33.8906 48
Q26.2656 48 22.1875 43.0469
Q18.1094 38.0938 18.1094 28.8125
L18.1094 0
L9.07812 0
L9.07812 54.6875
L18.1094 54.6875
L18.1094 46.1875
Q20.9531 51.1719 25.4844 53.5781
Q30.0312 56 36.5312 56
Q37.4531 56 38.5781 55.875
Q39.7031 55.7656 41.0625 55.5156
z
" id="BitstreamVeraSans-Roman-72"/>
      <path d="
M9.42188 75.9844
L18.4062 75.9844
L18.4062 0
L9.42188 0
z
" id="BitstreamVeraSans-Roman-6c"/>
      <path id="BitstreamVeraSans-Roman-20"/>
      <path d="
M9.42188 54.6875
L18.4062 54.6875
L18.4062 0
L9.42188 0
z

M9.42188 75.9844
L18.4062 75.9844
L18.4062 64.5938
L9.42188 64.5938
z
" id="BitstreamVeraSans-Roman-69"/>
      <path d="
M9.8125 72.9062
L55.9062 72.9062
L55.9062 64.5938
L19.6719 64.5938
L19.6719 43.0156
L54.3906 43.0156
L54.3906 34.7188
L19.6719 34.7188
L19.6719 8.29688
L56.7812 8.29688
L56.7812 0
L9.8125 0
z
" id="BitstreamVeraSans-Roman-45"/>
      <path d="
M52 44.1875
Q55.375 50.25 60.0625 53.125
Q64.75 56 71.0938 56
Q79.6406 56 84.2812 50.0156
Q88.9219 44.0469 88.9219 33.0156
L88.9219 0
L79.8906 0
L79.8906 32.7188
Q79.8906 40.5781 77.0938 44.375
Q74.3125 48.1875 68.6094 48.1875
Q61.625 48.1875 57.5625 43.5469
Q53.5156 38.9219 53.5156 30.9062
L53.5156 0
L44.4844 0
L44.4844 32.7188
Q44.4844 40.625 41.7031 44.4062
Q38.9219 48.1875 33.1094 48.1875
Q26.2188 48.1875 22.1562 43.5312
Q18.1094 38.875 18.1094 30.9062
L18.1094 0
L9.07812 0
L9.07812 54.6875
L18.1094 54.6875
L18.1094 46.1875
Q21.1875 51.2188 25.4844 53.6094
Q29.7812 56 35.6875 56
Q41.6562 56 45.8281 52.9688
Q50 49.9531 52 44.1875" id="BitstreamVeraSans-Roman-6d"/>
      <path d="
M14.7969 27.2969
Q14.7969 17.3906 18.875 11.75
Q22.9531 6.10938 30.0781 6.10938
Q37.2031 6.10938 41.2969 11.75
Q45.4062 17.3906 45.4062 27.2969
Q45.4062 37.2031 41.2969 42.8438
Q37.2031 48.4844 30.0781 48.4844
Q22.9531 48.4844 18.875 42.8438
Q14.7969 37.2031 14.7969 27.2969
M45.4062 8.20312
Q42.5781 3.32812 38.25 0.953125
Q33.9375 -1.42188 27.875 -1.42188
Q17.9688 -1.42188 11.7344 6.48438
Q5.51562 14.4062 5.51562 27.2969
Q5.51562 40.1875 11.7344 48.0938
Q17.9688 56 27.875 56
Q33.9375 56 38.25 53.625
Q42.5781 51.2656 45.4062 46.3906
L45.4062 54.6875
L54.3906 54.6875
L54.3906 -20.7969
L45.4062 -20.7969
z
" id="BitstreamVeraSans-Roman-71"/>
      <path d="
M8.5 21.5781
L8.5 54.6875
L17.4844 54.6875
L17.4844 21.9219
Q17.4844 14.1562 20.5 10.2656
Q23.5312 6.39062 29.5938 6.39062
Q36.8594 6.39062 41.0781 11.0312
Q45.3125 15.6719 45.3125 23.6875
L45.3125 54.6875
L54.2969 54.6875
L54.2969 0
L45.3125 0
L45.3125 8.40625
Q42.0469 3.42188 37.7188 1
Q33.4062 -1.42188 27.6875 -1.42188
Q18.2656 -1.42188 13.375 4.4375
Q8.5 10.2969 8.5 21.5781" id="BitstreamVeraSans-Roman-75"/>
      <path d="
M54.8906 33.0156
L54.8906 0
L45.9062 0
L45.9062 32.7188
Q45.9062 40.4844 42.875 44.3281
Q39.8438 48.1875 33.7969 48.1875
Q26.5156 48.1875 22.3125 43.5469
Q18.1094 38.9219 18.1094 30.9062
L18.1094 0
L9.07812 0
L9.07812 54.6875
L18.1094 54.6875
L18.1094 46.1875
Q21.3438 51.125 25.7031 53.5625
Q30.0781 56 35.7969 56
Q45.2188 56 50.0469 50.1719
Q54.8906 44.3438 54.8906 33.0156" id="BitstreamVeraSans-Roman-6e"/>
      <path d="
M48.6875 27.2969
Q48.6875 37.2031 44.6094 42.8438
Q40.5312 48.4844 33.4062 48.4844
Q26.2656 48.4844 22.1875 42.8438
Q18.1094 37.2031 18.1094 27.2969
Q18.1094 17.3906 22.1875 11.75
Q26.2656 6.10938 33.4062 6.10938
Q40.5312 6.10938 44.6094 11.75
Q48.6875 17.3906 48.6875 27.2969
M18.1094 46.3906
Q20.9531 51.2656 25.2656 53.625
Q29.5938 56 35.5938 56
Q45.5625 56 51.7812 48.0938
Q58.0156 40.1875 58.0156 27.2969
Q58.0156 14.4062 51.7812 6.48438
Q45.5625 -1.42188 35.5938 -1.42188
Q29.5938 -1.42188 25.2656 0.953125
Q20.9531 3.32812 18.1094 8.20312
L18.1094 0
L9.07812 0
L9.07812 75.9844
L18.1094 75.9844
z
" id="BitstreamVeraSans-Roman-62"/>
      <path d="
M18.3125 70.2188
L18.3125 54.6875
L36.8125 54.6875
L36.8125 47.7031
L18.3125 47.7031
L18.3125 18.0156
Q18.3125 11.3281 20.1406 9.42188
Q21.9688 7.51562 27.5938 7.51562
L36.8125 7.51562
L36.8125 0
L27.5938 0
Q17.1875 0 13.2344 3.875
Q9.28125 7.76562 9.28125 18.0156
L9.28125 47.7031
L2.6875 47.7031
L2.6875 54.6875
L9.28125 54.6875
L9.28125 70.2188
z
" id="BitstreamVeraSans-Roman-74"/>
      <path d="
M30.6094 48.3906
Q23.3906 48.3906 19.1875 42.75
Q14.9844 37.1094 14.9844 27.2969
Q14.9844 17.4844 19.1562 11.8438
Q23.3438 6.20312 30.6094 6.20312
Q37.7969 6.20312 41.9844 11.8594
Q46.1875 17.5312 46.1875 27.2969
Q46.1875 37.0156 41.9844 42.7031
Q37.7969 48.3906 30.6094 48.3906
M30.6094 56
Q42.3281 56 49.0156 48.375
Q55.7188 40.7656 55.7188 27.2969
Q55.7188 13.875 49.0156 6.21875
Q42.3281 -1.42188 30.6094 -1.42188
Q18.8438 -1.42188 12.1719 6.21875
Q5.51562 13.875 5.51562 27.2969
Q5.51562 40.7656 12.1719 48.375
Q18.8438 56 30.6094 56" id="BitstreamVeraSans-Roman-6f"/>
      <path d="
M34.2812 27.4844
Q23.3906 27.4844 19.1875 25
Q14.9844 22.5156 14.9844 16.5
Q14.9844 11.7188 18.1406 8.90625
Q21.2969 6.10938 26.7031 6.10938
Q34.1875 6.10938 38.7031 11.4062
Q43.2188 16.7031 43.2188 25.4844
L43.2188 27.4844
z

M52.2031 31.2031
L52.2031 0
L43.2188 0
L43.2188 8.29688
Q40.1406 3.32812 35.5469 0.953125
Q30.9531 -1.42188 24.3125 -1.42188
Q15.9219 -1.42188 10.9531 3.29688
Q6 8.01562 6 15.9219
Q6 25.1406 12.1719 29.8281
Q18.3594 34.5156 30.6094 34.5156
L43.2188 34.5156
L43.2188 35.4062
Q43.2188 41.6094 39.1406 45
Q35.0625 48.3906 27.6875 48.3906
Q23 48.3906 18.5469 47.2656
Q14.1094 46.1406 10.0156 43.8906
L10.0156 52.2031
Q14.9375 54.1094 19.5781 55.0469
Q24.2188 56 28.6094 56
Q40.4844 56 46.3438 49.8438
Q52.2031 43.7031 52.2031 31.2031" id="BitstreamVeraSans-Roman-61"/>
     </defs>
     <g transform="translate(98.63125 221.2984375)scale(0.1 -0.1)">
      <use xlink:href="#BitstreamVeraSans-Roman-45"/>
      <use x="63.18359375" xlink:href="#BitstreamVeraSans-Roman-71"/>
      <use x="126.66015625" xlink:href="#BitstreamVeraSans-Roman-75"/>
      <use x="190.0390625" xlink:href="#BitstreamVeraSans-Roman-69"/>
      <use x="217.822265625" xlink:href="#BitstreamVeraSans-Roman-6c"/>
      <use x="245.60546875" xlink:href="#BitstreamVeraSans-Roman-69"/>
      <use x="273.388671875" xlink:href="#BitstreamVeraSans-Roman-62"/>
      <use x="336.865234375" xlink:href="#BitstreamVeraSans-Roman-72"/>
      <use x="377.978515625" xlink:href="#BitstreamVeraSans-Roman-61"/>
      <use x="439.2578125" xlink:href="#BitstreamVeraSans-Roman-74"/>
      <use x="478.466796875" xlink:href="#BitstreamVeraSans-Roman-69"/>
      <use x="506.25" xlink:href="#BitstreamVeraSans-Roman-6f"/>
      <use x="567.431640625" xlink:href="#BitstreamVeraSans-Roman-6e"/>
      <use x="630.810546875" xlink:href="#BitstreamVeraSans-Roman-20"/>
      <use x="662.59765625" xlink:href="#BitstreamVeraSans-Roman-74"/>
      <use x="701.806640625" xlink:href="#BitstreamVeraSans-Roman-69"/>
      <use x="729.58984375" xlink:href="#BitstreamVeraSans-Roman-6d"/>
      <use x="827.001953125" xlink:href="#BitstreamVeraSans-Roman-65"/>
     </g>
    </g>
   </g>
   <g id="matplotlib.axis_2">
    <g id="ytick_1">
     <g id="line2d_108">
      <defs>
       <path d="
M0 0
L4 0" id="md7965d1ba0" style="stroke:#000000;stroke-width:0.5;"/>
      </defs>
      <g>
       <use style="stroke:#000000;stroke-width:0.5;" x="31.190625" xlink:href="#md7965d1ba0" y="194.0"/>
      </g>
     </g>
     <g id="line2d_109">
      <defs>
       <path d="
M0 0
L-4 0" id="md9a1c1a7cd" style="stroke:#000000;stroke-width:0.5;"/>
      </defs>
      <g>
       <use style="stroke:#000000;stroke-width:0.5;" x="254.390625" xlink:href="#md9a1c1a7cd" y="194.0"/>
      </g>
     </g>
     <g id="text_8">
      <!-- 0 -->
      <g transform="translate(22.1515625 196.759375)scale(0.1 -0.1)">
       <use xlink:href="#BitstreamVeraSans-Roman-30"/>
      </g>
     </g>
    </g>
    <g id="ytick_2">
     <g id="line2d_110">
      <g>
       <use style="stroke:#000000;stroke-width:0.5;" x="31.190625" xlink:href="#md7965d1ba0" y="172.4"/>
      </g>
     </g>
     <g id="line2d_111">
      <g>
       <use style="stroke:#000000;stroke-width:0.5;" x="254.390625" xlink:href="#md9a1c1a7cd" y="172.4"/>
      </g>
     </g>
     <g id="text_9">
      <!-- 1 -->
      <g transform="translate(22.85 175.159375)scale(0.1 -0.1)">
       <use xlink:href="#BitstreamVeraSans-Roman-31"/>
      </g>
     </g>
    </g>
    <g id="ytick_3">
     <g id="line2d_112">
      <g>
       <use style="stroke:#000000;stroke-width:0.5;" x="31.190625" xlink:href="#md7965d1ba0" y="150.8"/>
      </g>
     </g>
     <g id="line2d_113">
      <g>
       <use style="stroke:#000000;stroke-width:0.5;" x="254.390625" xlink:href="#md9a1c1a7cd" y="150.8"/>
      </g>
     </g>
     <g id="text_10">
      <!-- 2 -->
      <g transform="translate(22.5625 153.559375)scale(0.1 -0.1)">
       <use xlink:href="#BitstreamVeraSans-Roman-32"/>
      </g>
     </g>
    </g>
    <g id="ytick_4">
     <g id="line2d_114">
      <g>
       <use style="stroke:#000000;stroke-width:0.5;" x="31.190625" xlink:href="#md7965d1ba0" y="129.2"/>
      </g>
     </g>
     <g id="line2d_115">
      <g>
       <use style="stroke:#000000;stroke-width:0.5;" x="254.390625" xlink:href="#md9a1c1a7cd" y="129.2"/>
      </g>
     </g>
     <g id="text_11">
      <!-- 3 -->
      <g transform="translate(22.3921875 131.959375)scale(0.1 -0.1)">
       <use xlink:href="#BitstreamVeraSans-Roman-33"/>
      </g>
     </g>
    </g>
    <g id="ytick_5">
     <g id="line2d_116">
      <g>
       <use style="stroke:#000000;stroke-width:0.5;" x="31.190625" xlink:href="#md7965d1ba0" y="107.6"/>
      </g>
     </g>
     <g id="line2d_117">
      <g>
       <use style="stroke:#000000;stroke-width:0.5;" x="254.390625" xlink:href="#md9a1c1a7cd" y="107.6"/>
      </g>
     </g>
     <g id="text_12">
      <!-- 4 -->
      <g transform="translate(21.878125 110.359375)scale(0.1 -0.1)">
       <use xlink:href="#BitstreamVeraSans-Roman-34"/>
      </g>
     </g>
    </g>
    <g id="ytick_6">
     <g id="line2d_118">
      <g>
       <use style="stroke:#000000;stroke-width:0.5;" x="31.190625" xlink:href="#md7965d1ba0" y="86.0"/>
      </g>
     </g>
     <g id="line2d_119">
      <g>
       <use style="stroke:#000000;stroke-width:0.5;" x="254.390625" xlink:href="#md9a1c1a7cd" y="86.0"/>
      </g>
     </g>
     <g id="text_13">
      <!-- 5 -->
      <defs>
       <path d="
M10.7969 72.9062
L49.5156 72.9062
L49.5156 64.5938
L19.8281 64.5938
L19.8281 46.7344
Q21.9688 47.4688 24.1094 47.8281
Q26.2656 48.1875 28.4219 48.1875
Q40.625 48.1875 47.75 41.5
Q54.8906 34.8125 54.8906 23.3906
Q54.8906 11.625 47.5625 5.09375
Q40.2344 -1.42188 26.9062 -1.42188
Q22.3125 -1.42188 17.5469 -0.640625
Q12.7969 0.140625 7.71875 1.70312
L7.71875 11.625
Q12.1094 9.23438 16.7969 8.0625
Q21.4844 6.89062 26.7031 6.89062
Q35.1562 6.89062 40.0781 11.3281
Q45.0156 15.7656 45.0156 23.3906
Q45.0156 31 40.0781 35.4375
Q35.1562 39.8906 26.7031 39.8906
Q22.75 39.8906 18.8125 39.0156
Q14.8906 38.1406 10.7969 36.2812
z
" id="BitstreamVeraSans-Roman-35"/>
      </defs>
      <g transform="translate(22.4734375 88.759375)scale(0.1 -0.1)">
       <use xlink:href="#BitstreamVeraSans-Roman-35"/>
      </g>
     </g>
    </g>
    <g id="ytick_7">
     <g id="line2d_120">
      <g>
       <use style="stroke:#000000;stroke-width:0.5;" x="31.190625" xlink:href="#md7965d1ba0" y="64.4"/>
      </g>
     </g>
     <g id="line2d_121">
      <g>
       <use style="stroke:#000000;stroke-width:0.5;" x="254.390625" xlink:href="#md9a1c1a7cd" y="64.4"/>
      </g>
     </g>
     <g id="text_14">
      <!-- 6 -->
      <defs>
       <path d="
M33.0156 40.375
Q26.375 40.375 22.4844 35.8281
Q18.6094 31.2969 18.6094 23.3906
Q18.6094 15.5312 22.4844 10.9531
Q26.375 6.39062 33.0156 6.39062
Q39.6562 6.39062 43.5312 10.9531
Q47.4062 15.5312 47.4062 23.3906
Q47.4062 31.2969 43.5312 35.8281
Q39.6562 40.375 33.0156 40.375
M52.5938 71.2969
L52.5938 62.3125
Q48.875 64.0625 45.0938 64.9844
Q41.3125 65.9219 37.5938 65.9219
Q27.8281 65.9219 22.6719 59.3281
Q17.5312 52.7344 16.7969 39.4062
Q19.6719 43.6562 24.0156 45.9219
Q28.375 48.1875 33.5938 48.1875
Q44.5781 48.1875 50.9531 41.5156
Q57.3281 34.8594 57.3281 23.3906
Q57.3281 12.1562 50.6875 5.35938
Q44.0469 -1.42188 33.0156 -1.42188
Q20.3594 -1.42188 13.6719 8.26562
Q6.98438 17.9688 6.98438 36.375
Q6.98438 53.6562 15.1875 63.9375
Q23.3906 74.2188 37.2031 74.2188
Q40.9219 74.2188 44.7031 73.4844
Q48.4844 72.75 52.5938 71.2969" id="BitstreamVeraSans-Roman-36"/>
      </defs>
      <g transform="translate(22.15625 67.159375)scale(0.1 -0.1)">
       <use xlink:href="#BitstreamVeraSans-Roman-36"/>
      </g>
     </g>
    </g>
    <g id="ytick_8">
     <g id="line2d_122">
      <g>
       <use style="stroke:#000000;stroke-width:0.5;" x="31.190625" xlink:href="#md7965d1ba0" y="42.8"/>
      </g>
     </g>
     <g id="line2d_123">
      <g>
       <use style="stroke:#000000;stroke-width:0.5;" x="254.390625" xlink:href="#md9a1c1a7cd" y="42.8"/>
      </g>
     </g>
     <g id="text_15">
      <!-- 7 -->
      <defs>
       <path d="
M8.20312 72.9062
L55.0781 72.9062
L55.0781 68.7031
L28.6094 0
L18.3125 0
L43.2188 64.5938
L8.20312 64.5938
z
" id="BitstreamVeraSans-Roman-37"/>
      </defs>
      <g transform="translate(22.503125 45.559375)scale(0.1 -0.1)">
       <use xlink:href="#BitstreamVeraSans-Roman-37"/>
      </g>
     </g>
    </g>
    <g id="ytick_9">
     <g id="line2d_124">
      <g>
       <use style="stroke:#000000;stroke-width:0.5;" x="31.190625" xlink:href="#md7965d1ba0" y="21.2"/>
      </g>
     </g>
     <g id="line2d_125">
      <g>
       <use style="stroke:#000000;stroke-width:0.5;" x="254.390625" xlink:href="#md9a1c1a7cd" y="21.2"/>
      </g>
     </g>
     <g id="text_16">
      <!-- 8 -->
      <defs>
       <path d="
M31.7812 34.625
Q24.75 34.625 20.7188 30.8594
Q16.7031 27.0938 16.7031 20.5156
Q16.7031 13.9219 20.7188 10.1562
Q24.75 6.39062 31.7812 6.39062
Q38.8125 6.39062 42.8594 10.1719
Q46.9219 13.9688 46.9219 20.5156
Q46.9219 27.0938 42.8906 30.8594
Q38.875 34.625 31.7812 34.625
M21.9219 38.8125
Q15.5781 40.375 12.0312 44.7188
Q8.5 49.0781 8.5 55.3281
Q8.5 64.0625 14.7188 69.1406
Q20.9531 74.2188 31.7812 74.2188
Q42.6719 74.2188 48.875 69.1406
Q55.0781 64.0625 55.0781 55.3281
Q55.0781 49.0781 51.5312 44.7188
Q48 40.375 41.7031 38.8125
Q48.8281 37.1562 52.7969 32.3125
Q56.7812 27.4844 56.7812 20.5156
Q56.7812 9.90625 50.3125 4.23438
Q43.8438 -1.42188 31.7812 -1.42188
Q19.7344 -1.42188 13.25 4.23438
Q6.78125 9.90625 6.78125 20.5156
Q6.78125 27.4844 10.7812 32.3125
Q14.7969 37.1562 21.9219 38.8125
M18.3125 54.3906
Q18.3125 48.7344 21.8438 45.5625
Q25.3906 42.3906 31.7812 42.3906
Q38.1406 42.3906 41.7188 45.5625
Q45.3125 48.7344 45.3125 54.3906
Q45.3125 60.0625 41.7188 63.2344
Q38.1406 66.4062 31.7812 66.4062
Q25.3906 66.4062 21.8438 63.2344
Q18.3125 60.0625 18.3125 54.3906" id="BitstreamVeraSans-Roman-38"/>
      </defs>
      <g transform="translate(22.190625 23.959375)scale(0.1 -0.1)">
       <use xlink:href="#BitstreamVeraSans-Roman-38"/>
      </g>
     </g>
    </g>
    <g id="text_17">
     <!-- max $\alpha_2$ -->
     <defs>
      <path d="
M54.8906 54.6875
L35.1094 28.0781
L55.9062 0
L45.3125 0
L29.3906 21.4844
L13.4844 0
L2.875 0
L24.125 28.6094
L4.6875 54.6875
L15.2812 54.6875
L29.7812 35.2031
L44.2812 54.6875
z
" id="BitstreamVeraSans-Roman-78"/>
      <path d="
M51.4062 12.9062
L52.9062 12.9062
Q52.9062 7 50.75 3
Q48.5938 -1 45 -1
Q39.4062 -1 37 10
Q34 4.59375 30.5 1.79688
Q27 -1 21.5938 -1
Q13.5 -1 8.20312 5.54688
Q2.90625 12.0938 2.90625 22.2969
Q2.90625 32.2031 8.25 39.0938
Q13.5938 46 22.5 46
Q28.5 46 32.4531 41.75
Q36.4062 37.5 37.9062 31.4062
L42.4062 45
L52.0938 45
L41.2031 18.7031
Q42.2031 14.0938 44.1406 9.64062
Q46.0938 5.20312 48.0938 5.20312
Q50.5 5.20312 51.4062 12.9062
M33.0938 20.7969
Q29.7969 43.2031 22 43.2031
Q17.7969 43.2031 14.8438 39.25
Q11.9062 35.2969 11.9062 27.2969
Q11.9062 23.9062 12.3438 20.0938
Q12.7969 16.2969 13.8438 11.8906
Q14.9062 7.5 17.1562 4.64062
Q19.4062 1.79688 22.5 1.79688
Q29.5 1.79688 33.0938 20.7969" id="STIXGeneral-Regular-3b1"/>
     </defs>
     <g transform="translate(13.678125 126.0)rotate(-90.0)scale(0.1 -0.1)">
      <use xlink:href="#BitstreamVeraSans-Roman-6d"/>
      <use transform="translate(97.412109375 0.0)" xlink:href="#BitstreamVeraSans-Roman-61"/>
      <use transform="translate(158.69140625 0.0)" xlink:href="#BitstreamVeraSans-Roman-78"/>
      <use transform="translate(217.87109375 0.0)" xlink:href="#BitstreamVeraSans-Roman-20"/>
      <use transform="translate(249.658203125 0.0)" xlink:href="#STIXGeneral-Regular-3b1"/>
      <use transform="translate(303.95819091796875 -31.5)scale(0.7)" xlink:href="#BitstreamVeraSans-Roman-32"/>
     </g>
    </g>
   </g>
   <g id="text_18">
    <!-- $\phi_0 = 0.57$ -->
    <defs>
     <path d="
M35.2969 68.2969
L35.2969 46
Q42.2969 46 46.0938 44.4062
Q52.5 41.7969 55.8906 36.0469
Q59.2969 30.2969 59.2969 23.0938
Q59.2969 18.5938 58 14.5
Q56.7031 10.4062 54.0469 6.79688
Q51.4062 3.20312 46.5469 1.09375
Q41.7031 -1 35.2969 -1
L35.2969 -21.7031
L26.9062 -21.7031
L26.9062 -1
L24.5 -1
Q14.7031 -1 8.79688 6.14062
Q2.90625 13.2969 2.90625 22.7969
Q2.90625 32.4062 8.79688 39.2031
Q14.7031 46 25.2031 46
L26.9062 46
L26.9062 68.2969
z

M35.2031 1.79688
L38.2969 1.79688
Q44.2969 1.79688 47.2969 7.04688
Q50.2969 12.2969 50.2969 20.4062
Q50.2969 29.9062 46.3438 36.5469
Q42.4062 43.2031 35.2031 43.2031
z

M27 1.79688
L27 43.2031
L24 43.2031
Q18.2031 43.2031 15.0469 39
Q11.9062 34.7969 11.9062 27.4062
Q11.9062 14.4062 17.2969 6.79688
Q20.7969 1.79688 27 1.79688" id="STIXGeneral-Regular-3d5"/>
     <path d="
M10.5938 45.4062
L73.1875 45.4062
L73.1875 37.2031
L10.5938 37.2031
z

M10.5938 25.4844
L73.1875 25.4844
L73.1875 17.1875
L10.5938 17.1875
z
" id="BitstreamVeraSans-Roman-3d"/>
     <path d="
M10.6875 12.4062
L21 12.4062
L21 0
L10.6875 0
z
" id="BitstreamVeraSans-Roman-2e"/>
    </defs>
    <g transform="translate(116.330625 16.2)scale(0.12 -0.12)">
     <use transform="translate(0.0 0.78125)" xlink:href="#STIXGeneral-Regular-3d5"/>
     <use transform="translate(62.29998779296875 -30.71875)scale(0.7)" xlink:href="#BitstreamVeraSans-Roman-30"/>
     <use transform="translate(145.40545654296875 0.78125)" xlink:href="#BitstreamVeraSans-Roman-3d"/>
     <use transform="translate(227.48162841796875 0.78125)" xlink:href="#BitstreamVeraSans-Roman-30"/>
     <use transform="translate(291.10467529296875 0.78125)" xlink:href="#BitstreamVeraSans-Roman-2e"/>
     <use transform="translate(320.88397216796875 0.78125)" xlink:href="#BitstreamVeraSans-Roman-35"/>
     <use transform="translate(377.25701904296875 0.78125)" xlink:href="#BitstreamVeraSans-Roman-37"/>
    </g>
   </g>
   <g id="legend_1">
    <g id="patch_7">
     <path d="
M35.3556 127.417
L87.914 127.417
L87.914 25.365
L35.3556 25.365
z
" style="fill:#ffffff;stroke:#000000;stroke-linejoin:miter;"/>
    </g>
    <g id="text_19">
     <!-- Final $\phi$ -->
     <defs>
      <path d="
M9.8125 72.9062
L51.7031 72.9062
L51.7031 64.5938
L19.6719 64.5938
L19.6719 43.1094
L48.5781 43.1094
L48.5781 34.8125
L19.6719 34.8125
L19.6719 0
L9.8125 0
z
" id="BitstreamVeraSans-Roman-46"/>
     </defs>
     <g transform="translate(45.0348226563 36.297)scale(0.1 -0.1)">
      <use transform="translate(0.0 0.015625)" xlink:href="#BitstreamVeraSans-Roman-46"/>
      <use transform="translate(57.51953125 0.015625)" xlink:href="#BitstreamVeraSans-Roman-69"/>
      <use transform="translate(85.302734375 0.015625)" xlink:href="#BitstreamVeraSans-Roman-6e"/>
      <use transform="translate(148.681640625 0.015625)" xlink:href="#BitstreamVeraSans-Roman-61"/>
      <use transform="translate(209.9609375 0.015625)" xlink:href="#BitstreamVeraSans-Roman-6c"/>
      <use transform="translate(237.744140625 0.015625)" xlink:href="#BitstreamVeraSans-Roman-20"/>
      <use transform="translate(269.53125 0.015625)" xlink:href="#STIXGeneral-Regular-3d5"/>
     </g>
    </g>
    <g id="line2d_126">
     <path d="
M41.1866 46.076
L52.8486 46.076" style="fill:none;stroke:#4daf4a;stroke-linecap:square;stroke-width:2.0;"/>
    </g>
    <g id="line2d_127"/>
    <g id="text_20">
     <!-- 0.57 -->
     <g transform="translate(62.011625 48.9914984375)scale(0.0833 -0.0833)">
      <use xlink:href="#BitstreamVeraSans-Roman-30"/>
      <use x="63.623046875" xlink:href="#BitstreamVeraSans-Roman-2e"/>
      <use x="95.41015625" xlink:href="#BitstreamVeraSans-Roman-35"/>
      <use x="159.033203125" xlink:href="#BitstreamVeraSans-Roman-37"/>
     </g>
    </g>
    <g id="line2d_128">
     <path d="
M41.1866 58.3029
L52.8486 58.3029" style="fill:none;stroke:#49a560;stroke-linecap:square;stroke-width:2.0;"/>
    </g>
    <g id="line2d_129"/>
    <g id="text_21">
     <!-- 0.575 -->
     <g transform="translate(62.011625 61.2183765625)scale(0.0833 -0.0833)">
      <use xlink:href="#BitstreamVeraSans-Roman-30"/>
      <use x="63.623046875" xlink:href="#BitstreamVeraSans-Roman-2e"/>
      <use x="95.41015625" xlink:href="#BitstreamVeraSans-Roman-35"/>
      <use x="159.033203125" xlink:href="#BitstreamVeraSans-Roman-37"/>
      <use x="222.65625" xlink:href="#BitstreamVeraSans-Roman-35"/>
     </g>
    </g>
    <g id="line2d_130">
     <path d="
M41.1866 70.5298
L52.8486 70.5298" style="fill:none;stroke:#449b77;stroke-linecap:square;stroke-width:2.0;"/>
    </g>
    <g id="line2d_131"/>
    <g id="text_22">
     <!-- 0.58 -->
     <g transform="translate(62.011625 73.4452546875)scale(0.0833 -0.0833)">
      <use xlink:href="#BitstreamVeraSans-Roman-30"/>
      <use x="63.623046875" xlink:href="#BitstreamVeraSans-Roman-2e"/>
      <use x="95.41015625" xlink:href="#BitstreamVeraSans-Roman-35"/>
      <use x="159.033203125" xlink:href="#BitstreamVeraSans-Roman-38"/>
     </g>
    </g>
    <g id="line2d_132">
     <path d="
M41.1866 82.7566
L52.8486 82.7566" style="fill:none;stroke:#3b86a5;stroke-linecap:square;stroke-width:2.0;"/>
    </g>
    <g id="line2d_133"/>
    <g id="text_23">
     <!-- 0.585 -->
     <g transform="translate(62.011625 85.6721328125)scale(0.0833 -0.0833)">
      <use xlink:href="#BitstreamVeraSans-Roman-30"/>
      <use x="63.623046875" xlink:href="#BitstreamVeraSans-Roman-2e"/>
      <use x="95.41015625" xlink:href="#BitstreamVeraSans-Roman-35"/>
      <use x="159.033203125" xlink:href="#BitstreamVeraSans-Roman-38"/>
      <use x="222.65625" xlink:href="#BitstreamVeraSans-Roman-35"/>
     </g>
    </g>
    <g id="line2d_134">
     <path d="
M41.1866 94.9835
L52.8486 94.9835" style="fill:none;stroke:#8e53a5;stroke-linecap:square;stroke-width:2.0;"/>
    </g>
    <g id="line2d_135"/>
    <g id="text_24">
     <!-- 0.59 -->
     <defs>
      <path d="
M10.9844 1.51562
L10.9844 10.5
Q14.7031 8.73438 18.5 7.8125
Q22.3125 6.89062 25.9844 6.89062
Q35.75 6.89062 40.8906 13.4531
Q46.0469 20.0156 46.7812 33.4062
Q43.9531 29.2031 39.5938 26.9531
Q35.25 24.7031 29.9844 24.7031
Q19.0469 24.7031 12.6719 31.3125
Q6.29688 37.9375 6.29688 49.4219
Q6.29688 60.6406 12.9375 67.4219
Q19.5781 74.2188 30.6094 74.2188
Q43.2656 74.2188 49.9219 64.5156
Q56.5938 54.8281 56.5938 36.375
Q56.5938 19.1406 48.4062 8.85938
Q40.2344 -1.42188 26.4219 -1.42188
Q22.7031 -1.42188 18.8906 -0.6875
Q15.0938 0.046875 10.9844 1.51562
M30.6094 32.4219
Q37.25 32.4219 41.125 36.9531
Q45.0156 41.5 45.0156 49.4219
Q45.0156 57.2812 41.125 61.8438
Q37.25 66.4062 30.6094 66.4062
Q23.9688 66.4062 20.0938 61.8438
Q16.2188 57.2812 16.2188 49.4219
Q16.2188 41.5 20.0938 36.9531
Q23.9688 32.4219 30.6094 32.4219" id="BitstreamVeraSans-Roman-39"/>
     </defs>
     <g transform="translate(62.011625 97.8990109375)scale(0.0833 -0.0833)">
      <use xlink:href="#BitstreamVeraSans-Roman-30"/>
      <use x="63.623046875" xlink:href="#BitstreamVeraSans-Roman-2e"/>
      <use x="95.41015625" xlink:href="#BitstreamVeraSans-Roman-35"/>
      <use x="159.033203125" xlink:href="#BitstreamVeraSans-Roman-39"/>
     </g>
    </g>
    <g id="line2d_136">
     <path d="
M41.1866 107.21
L52.8486 107.21" style="fill:none;stroke:#e01d23;stroke-linecap:square;stroke-width:2.0;"/>
    </g>
    <g id="line2d_137"/>
    <g id="text_25">
     <!-- 0.595 -->
     <g transform="translate(62.011625 110.125889062)scale(0.0833 -0.0833)">
      <use xlink:href="#BitstreamVeraSans-Roman-30"/>
      <use x="63.623046875" xlink:href="#BitstreamVeraSans-Roman-2e"/>
      <use x="95.41015625" xlink:href="#BitstreamVeraSans-Roman-35"/>
      <use x="159.033203125" xlink:href="#BitstreamVeraSans-Roman-39"/>
      <use x="222.65625" xlink:href="#BitstreamVeraSans-Roman-35"/>
     </g>
    </g>
    <g id="line2d_138">
     <path d="
M41.1866 119.437
L52.8486 119.437" style="fill:none;stroke:#ff7f00;stroke-linecap:square;stroke-width:2.0;"/>
    </g>
    <g id="line2d_139"/>
    <g id="text_26">
     <!-- 0.6 -->
     <g transform="translate(62.011625 122.352767187)scale(0.0833 -0.0833)">
      <use xlink:href="#BitstreamVeraSans-Roman-30"/>
      <use x="63.623046875" xlink:href="#BitstreamVeraSans-Roman-2e"/>
      <use x="95.41015625" xlink:href="#BitstreamVeraSans-Roman-36"/>
     </g>
    </g>
   </g>
  </g>
 </g>
 <defs>
  <clipPath id="p2b44c23dda">
   <rect height="172.8" width="223.2" x="31.190625" y="21.2"/>
  </clipPath>
 </defs>
</svg>
