<?xml version="1.0" encoding="utf-8" standalone="no"?>
<!DOCTYPE svg PUBLIC "-//W3C//DTD SVG 1.1//EN"
  "http://www.w3.org/Graphics/SVG/1.1/DTD/svg11.dtd">
<!-- Created with matplotlib (http://matplotlib.org/) -->
<svg height="230pt" version="1.1" viewBox="0 0 261 230" width="261pt" xmlns="http://www.w3.org/2000/svg" xmlns:xlink="http://www.w3.org/1999/xlink">
 <defs>
  <style type="text/css">
*{stroke-linecap:butt;stroke-linejoin:round;}
  </style>
 </defs>
 <g id="figure_1">
  <g id="patch_1">
   <path d="
M0 230.578
L261.591 230.578
L261.591 0
L0 0
z
" style="fill:#ffffff;"/>
  </g>
  <g id="axes_1">
   <g id="patch_2">
    <path d="
M31.1906 194
L254.391 194
L254.391 21.2
L31.1906 21.2
z
" style="fill:#ffffff;"/>
   </g>
   <g id="line2d_1">
    <path clip-path="url(#p2b44c23dda)" d="
M31.1906 184.096
L42.9805 184.342
L49.8771 184.485
L54.7703 184.525
L58.5658 184.425
L61.6669 184.287
L64.2889 184.489
L66.5601 184.543
L68.5635 184.566
L70.3556 184.381
L71.9767 184.255
L74.8182 183.802
L76.0787 183.863
L78.35 183.957
L80.3533 183.824
L82.9753 183.9
L85.2466 183.602
L87.2499 183.883
L89.042 183.789
L91.171 183.299
L93.0628 183.851
L95.1654 183.303
L97.3871 183.294
L99.3519 183.17
L101.39 182.437
L103.454 183.376
L105.511 183.717
L107.728 183.385
L109.69 184.106
L111.749 184.127
L113.852 184.36
L115.957 184.149
L118.038 183.786
L120.076 184.866
L122.14 184.025
L124.198 183.993
L126.288 184.629
L128.32 184.328
L130.386 183.633
L132.45 182.496
L134.527 182.512
L136.587 183.696
L138.671 182.772
L140.718 183.262
L142.788 183.422
L144.847 183.278
L146.931 182.88
L148.989 182.85
L151.063 183.801
L153.122 183.911
L155.192 183.677
L157.255 183.361
L159.323 183.575
L161.394 182.953
L163.456 182.394
L165.523 182.501
L167.592 184.45
L169.655 183.164
L171.725 184.048
L173.789 183.983
L175.859 183.62
L177.924 184.374
L179.992 183.302
L182.056 182.759
L184.123 183.776
L186.19 184.633
L188.257 182.859
L190.324 184.527
L192.39 183.831
L194.458 183.839
L196.524 182.693
L198.591 182.832
L200.657 184.243
L202.724 183.553
L204.791 183.929
L206.857 184.303
L208.924 183.744
L210.991 184.293
L213.057 184.362
L215.124 183.478
L217.191 183.426
L219.257 183.615
L221.324 183.307
L223.391 183.764
L225.457 183.468
L227.524 183.742
L229.591 184.063
L231.657 184.292
L233.724 183.732
L235.791 183.9
L237.857 183.296
L239.924 184.073
L241.991 183.194
L244.057 182.875
L246.124 184.989
L248.191 184.658
L250.257 183.89
L252.324 184.039
L254.391 184.685" style="fill:none;stroke:#4daf4a;stroke-linecap:square;stroke-width:2.0;"/>
   </g>
   <g id="line2d_2">
    <path clip-path="url(#p2b44c23dda)" d="
M31.1906 182.736
L42.9805 182.832
L49.8771 182.478
L54.7703 182.59
L58.5658 182.587
L61.6669 182.403
L64.2889 182.173
L66.5601 181.933
L68.5635 181.593
L70.3556 181.613
L71.9767 181.718
L74.8182 182.02
L76.0787 182.036
L78.35 181.945
L80.3533 181.995
L82.9753 182.207
L85.2466 181.613
L87.2499 181.604
L89.042 181.731
L91.171 181.723
L93.0628 181.61
L95.1654 181.614
L97.3871 181.51
L99.3519 180.893
L101.39 181.454
L103.454 180.706
L105.511 180.745
L107.728 180.617
L109.69 181.554
L111.749 181.568
L113.852 181.303
L115.957 182.706
L118.038 182.041
L120.076 180.573
L122.14 181.239
L124.198 180.86
L126.288 181.528
L128.32 180.539
L130.386 181.16
L132.45 181.245
L134.527 180.035
L136.587 180.783
L138.671 180.771
L140.718 179.793
L142.788 180.071
L144.847 179.466
L146.931 180.165
L148.989 180.811
L151.063 180.319
L153.122 180.134
L155.192 179.847
L157.255 179.237
L159.323 182.054
L161.394 180.471
L163.456 178.977
L165.523 179.132
L167.592 181.422
L169.655 180.692
L171.725 181.632
L173.789 179.823
L175.859 179.268
L177.924 180.321
L179.992 180.845
L182.056 179.994
L184.123 182.239
L186.19 179.409
L188.257 180.649
L190.324 179.782
L192.39 180.634
L194.458 179.805
L196.524 181.149
L198.591 180.616
L200.657 180.893
L202.724 179.686
L204.791 180.701
L206.857 179.48
L208.924 180.338
L210.991 181.38
L213.057 179.933
L215.124 180.495
L217.191 180.038
L219.257 180.338
L221.324 179.918
L223.391 179.464
L225.457 180.905
L227.524 180.824
L229.591 179.623
L231.657 179.856
L233.724 181.433
L235.791 180.714
L237.857 180.36
L239.924 180.736
L241.991 178.975
L244.057 181.202
L246.124 179.636
L248.191 179.772
L250.257 180.522
L252.324 180.244
L254.391 179.71" style="fill:none;stroke:#49a65f;stroke-linecap:square;stroke-width:2.0;"/>
   </g>
   <g id="line2d_3">
    <path clip-path="url(#p2b44c23dda)" d="
M31.1906 181.21
L42.9805 181.117
L49.8771 180.662
L54.7703 180.187
L58.5658 180.367
L61.6669 179.857
L64.2889 179.733
L66.5601 179.766
L68.5635 179.9
L70.3556 180.309
L71.9767 179.763
L74.8182 179.517
L76.0787 179.851
L78.35 178.924
L80.3533 178.737
L82.9753 178.477
L85.2466 178.611
L87.2499 178.818
L89.042 178.3
L91.171 178.881
L93.0628 178.971
L95.1654 178.745
L97.3871 178.317
L99.3519 178.146
L101.39 177.805
L103.454 178.192
L105.511 177.666
L107.728 178.455
L109.69 178.013
L111.749 177.778
L113.852 176.377
L115.957 176.766
L118.038 177.313
L120.076 178.665
L122.14 177.48
L124.198 176.514
L126.288 176.036
L128.32 175.302
L130.386 173.473
L132.45 175.886
L134.527 174.529
L136.587 174.019
L138.671 173.867
L140.718 174.362
L142.788 175.86
L144.847 174.661
L146.931 175.315
L148.989 175.268
L151.063 173.847
L153.122 174.303
L155.192 173.773
L157.255 174.431
L159.323 172.613
L161.394 173.296
L163.456 173.321
L165.523 174.378
L167.592 173.363
L169.655 173.43
L171.725 175.503
L173.789 173.742
L175.859 174.343
L177.924 174.254
L179.992 171.302
L182.056 172.763
L184.123 174.623
L186.19 173.719
L188.257 173.513
L190.324 171.877
L192.39 173.712
L194.458 174.488
L196.524 171.98
L198.591 173.711
L200.657 170.374
L202.724 173.603
L204.791 170.074
L206.857 173.405
L208.924 174.682
L210.991 174.755
L213.057 173.625
L215.124 173.77
L217.191 173.851
L219.257 173.889
L221.324 171.65
L223.391 173.812
L225.457 173.719
L227.524 173.964
L229.591 172.708
L231.657 175.607
L233.724 172.758
L235.791 175.481
L237.857 171.744
L239.924 174.487
L241.991 173.57
L244.057 172.535
L246.124 173.098
L248.191 173.232
L250.257 174.823
L252.324 172.742
L254.391 173.596" style="fill:none;stroke:#459d73;stroke-linecap:square;stroke-width:2.0;"/>
   </g>
   <g id="line2d_4">
    <path clip-path="url(#p2b44c23dda)" d="
M31.1906 180.76
L42.9805 180.896
L49.8771 180.475
L54.7703 180.223
L58.5658 180.253
L61.6669 180.143
L64.2889 179.452
L66.5601 179.032
L68.5635 178.851
L70.3556 179.036
L71.9767 178.597
L74.8182 177.925
L76.0787 178.122
L78.35 177.854
L80.3533 177.853
L82.9753 176.598
L85.2466 177.176
L87.2499 177.659
L89.042 177.379
L91.171 177.502
L93.0628 177.286
L95.1654 177.096
L97.3871 176.65
L99.3519 177.25
L101.39 177.206
L103.454 176.633
L105.511 176.231
L107.728 176.756
L109.69 176.38
L111.749 175.467
L113.852 175.032
L115.957 173.767
L118.038 173.599
L120.076 174.354
L122.14 173.379
L124.198 173.231
L126.288 171.19
L128.32 171.435
L130.386 170.736
L132.45 172.601
L134.527 173.055
L136.587 171.583
L138.671 172.232
L140.718 171.299
L142.788 170.675
L144.847 171.395
L146.931 170.608
L148.989 168.504
L151.063 168.737
L153.122 171.318
L155.192 170.39
L157.255 169.628
L159.323 169.595
L161.394 169.236
L163.456 169.423
L165.523 168.517
L167.592 170.618
L169.655 165.746
L171.725 168.16
L173.789 168.924
L175.859 166.965
L177.924 167.546
L179.992 168.336
L182.056 166.947
L184.123 167.398
L186.19 168.324
L188.257 168.128
L190.324 170.062
L192.39 166.988
L194.458 167.783
L196.524 167.318
L198.591 170.829
L200.657 170.056
L202.724 166.654
L204.791 164.434
L206.857 165.409
L208.924 166.798
L210.991 167.749
L213.057 167.443
L215.124 166.676
L217.191 163.773
L219.257 168.18
L221.324 166.386
L223.391 167.293
L225.457 168.749
L227.524 164.51
L229.591 167.524
L231.657 169.126
L233.724 168.077
L235.791 168.945
L237.857 167.28
L239.924 166.384
L241.991 168.382
L244.057 168.925
L246.124 168.337
L248.191 167.897
L250.257 166.386
L252.324 168.727
L254.391 171.211" style="fill:none;stroke:#419388;stroke-linecap:square;stroke-width:2.0;"/>
   </g>
   <g id="line2d_5">
    <path clip-path="url(#p2b44c23dda)" d="
M31.1906 180.802
L42.9805 180.488
L49.8771 180.427
L54.7703 180.6
L58.5658 180.664
L61.6669 180.31
L64.2889 180.064
L66.5601 179.821
L68.5635 179.812
L70.3556 179.766
L71.9767 179.838
L74.8182 179.278
L76.0787 179.322
L78.35 179.414
L80.3533 178.821
L82.9753 178.039
L85.2466 177.736
L87.2499 178.291
L89.042 177.437
L91.171 176.572
L93.0628 176.77
L95.1654 176.994
L97.3871 175.441
L99.3519 176.464
L101.39 176.132
L103.454 175.616
L105.511 175.299
L107.728 174.437
L109.69 175.229
L111.749 175.137
L113.852 173.287
L115.957 174.734
L118.038 173.674
L120.076 173.073
L122.14 172.487
L124.198 171.867
L126.288 170.848
L128.32 172.446
L130.386 170.493
L132.45 170.945
L134.527 170.103
L136.587 168.04
L138.671 165.573
L140.718 167.202
L142.788 164.342
L144.847 166.957
L146.931 169.375
L148.989 168.104
L151.063 165.821
L153.122 165.226
L155.192 165.293
L157.255 163.092
L159.323 164.613
L161.394 161.461
L163.456 165.158
L165.523 162.894
L167.592 162.53
L169.655 161.178
L171.725 160.319
L173.789 161.373
L175.859 160.257
L177.924 161.58
L179.992 155.486
L182.056 159.164
L184.123 160.064
L186.19 158.504
L188.257 158.674
L190.324 158.224
L192.39 160.4
L194.458 160.051
L196.524 157.725
L198.591 160.358
L200.657 158.362
L202.724 160.03
L204.791 159.165
L206.857 161.295
L208.924 156.822
L210.991 159.007
L213.057 155.451
L215.124 155.358
L217.191 158.838
L219.257 162.651
L221.324 152.632
L223.391 158.866
L225.457 163.978
L227.524 157.189
L229.591 157.148
L231.657 157.393
L233.724 157.157
L235.791 159.706
L237.857 158.563
L239.924 158.44
L241.991 159.619
L244.057 153.349
L246.124 156.347
L248.191 153.74
L250.257 157.052
L252.324 154.869
L254.391 161.676" style="fill:none;stroke:#3c8a9d;stroke-linecap:square;stroke-width:2.0;"/>
   </g>
   <g id="line2d_6">
    <path clip-path="url(#p2b44c23dda)" d="
M31.1906 179.206
L42.9805 178.812
L49.8771 178.433
L54.7703 178.42
L58.5658 178.345
L61.6669 177.797
L64.2889 177.128
L66.5601 176.958
L68.5635 176.787
L70.3556 176.756
L71.9767 176.698
L74.8182 177.053
L76.0787 176.899
L78.35 176.829
L80.3533 176.569
L82.9753 176.375
L85.2466 175.468
L87.2499 175.335
L89.042 175.4
L91.171 175.845
L93.0628 175.252
L95.1654 174.643
L97.3871 175.191
L99.3519 174.154
L101.39 174.27
L103.454 173.263
L105.511 173.474
L107.728 173.164
L109.69 173.957
L111.749 173.562
L113.852 172.787
L115.957 171.323
L118.038 170.531
L120.076 171.494
L122.14 171.007
L124.198 170.195
L126.288 169.394
L128.32 169.727
L130.386 167.362
L132.45 168.654
L134.527 168.532
L136.587 170.695
L138.671 169.927
L140.718 169.147
L142.788 167.076
L144.847 165.788
L146.931 163.87
L148.989 161.36
L151.063 162.248
L153.122 161.777
L155.192 159.912
L157.255 159.794
L159.323 161.293
L161.394 157.606
L163.456 162.822
L165.523 161.2
L167.592 155.514
L169.655 161.435
L171.725 155.467
L173.789 154.86
L175.859 149.081
L177.924 157.661
L179.992 157.379
L182.056 156.15
L184.123 155.663
L186.19 156.781
L188.257 148.691
L190.324 154.09
L192.39 150.152
L194.458 147.219
L196.524 151.768
L198.591 147.363
L200.657 148.663
L202.724 147.428
L204.791 150.016
L206.857 152.848
L208.924 147.31
L210.991 145.376
L213.057 146.077
L215.124 143.058
L217.191 146.637
L219.257 145.422
L221.324 149.246
L223.391 146.145
L225.457 146.767
L227.524 144.054
L229.591 149.591
L231.657 146.526
L233.724 143.948
L235.791 144.335
L237.857 141.829
L239.924 142.679
L241.991 144.733
L244.057 143.924
L246.124 138.32
L248.191 145.101
L250.257 140.542
L252.324 140.387
L254.391 145.775" style="fill:none;stroke:#4577b5;stroke-linecap:square;stroke-width:2.0;"/>
   </g>
   <g id="line2d_7">
    <path clip-path="url(#p2b44c23dda)" d="
M31.1906 180.511
L42.9805 179.909
L49.8771 179.191
L54.7703 178.593
L58.5658 178.354
L61.6669 177.975
L64.2889 177.666
L66.5601 177.408
L68.5635 176.831
L70.3556 177.322
L71.9767 177.357
L74.8182 177.15
L76.0787 177.281
L78.35 176.699
L80.3533 176.763
L82.9753 176.413
L85.2466 176.378
L87.2499 175.403
L89.042 174.617
L91.171 174.778
L93.0628 174.205
L95.1654 173.663
L97.3871 173.935
L99.3519 172.518
L101.39 172.387
L103.454 172.557
L105.511 172.212
L107.728 172.796
L109.69 172.049
L111.749 171.007
L113.852 168.754
L115.957 170.954
L118.038 169.063
L120.076 168.564
L122.14 167.336
L124.198 167.606
L126.288 166.063
L128.32 166.459
L130.386 164.7
L132.45 165.428
L134.527 165.207
L136.587 164.035
L138.671 162.746
L140.718 161.002
L142.788 163.676
L144.847 163.387
L146.931 162.67
L148.989 161.42
L151.063 164.145
L153.122 160.324
L155.192 160.325
L157.255 156.016
L159.323 156.401
L161.394 153.629
L163.456 155.862
L165.523 155.033
L167.592 155.119
L169.655 153.572
L171.725 153.134
L173.789 151.463
L175.859 144.207
L177.924 151.576
L179.992 148.417
L182.056 140.823
L184.123 148.061
L186.19 143.819
L188.257 140.456
L190.324 142.606
L192.39 143.471
L194.458 145.146
L196.524 137.656
L198.591 142
L200.657 139.769
L202.724 134.187
L204.791 134.313
L206.857 129.884
L208.924 137.088
L210.991 131.727
L213.057 128.738
L215.124 130.038
L217.191 126.358
L219.257 133.055
L221.324 126.368
L223.391 125.89
L225.457 132.528
L227.524 121.723
L229.591 129.663
L231.657 128.338
L233.724 126.525
L235.791 127.753
L237.857 127.926
L239.924 115.872
L241.991 124.936
L244.057 118.997
L246.124 120.182
L248.191 117.138
L250.257 125.366
L252.324 126.228
L254.391 121.236" style="fill:none;stroke:#a04995;stroke-linecap:square;stroke-width:2.0;"/>
   </g>
   <g id="line2d_8">
    <path clip-path="url(#p2b44c23dda)" d="
M31.1906 177.082
L42.9805 176.758
L49.8771 176.658
L54.7703 176.879
L58.5658 176.45
L61.6669 176.4
L64.2889 175.915
L66.5601 175.781
L68.5635 175.935
L70.3556 175.391
L71.9767 175.344
L74.8182 175.002
L76.0787 174.535
L78.35 174.191
L80.3533 173.598
L82.9753 173.386
L85.2466 173.436
L87.2499 174.072
L89.042 174.537
L91.171 172.628
L93.0628 172.582
L95.1654 172.587
L97.3871 171.881
L99.3519 171.764
L101.39 170.99
L103.454 170.221
L105.511 168.701
L107.728 169.005
L109.69 165.14
L111.749 167.667
L113.852 166.482
L115.957 166.665
L118.038 165.409
L120.076 164.453
L122.14 165.045
L124.198 163.588
L126.288 162.078
L128.32 160.88
L130.386 159.75
L132.45 160.572
L134.527 163.909
L136.587 162.002
L138.671 161.976
L140.718 164.231
L142.788 162.014
L144.847 162.636
L146.931 159.806
L148.989 154.848
L151.063 156.529
L153.122 154.416
L155.192 154.289
L157.255 151.522
L159.323 149.575
L161.394 147.661
L163.456 147.397
L165.523 147.534
L167.592 147.011
L169.655 149.788
L171.725 147.785
L173.789 142.355
L175.859 141.153
L177.924 137.723
L179.992 134.866
L182.056 140.757
L184.123 138.829
L186.19 131.985
L188.257 134.823
L190.324 134.245
L192.39 141.048
L194.458 131.413
L196.524 133.545
L198.591 128.292
L200.657 125.412
L202.724 120.338
L204.791 129.312
L206.857 134.33
L208.924 131.341
L210.991 130.403
L213.057 118.996
L215.124 124.141
L217.191 123.52
L219.257 124.88
L221.324 122.244
L223.391 117.638
L225.457 103.773
L227.524 111.433
L229.591 118.405
L231.657 108.959
L233.724 111.342
L235.791 118.039
L237.857 110.369
L239.924 111.273
L241.991 110.575
L244.057 98.0632
L246.124 102.216
L248.191 115.964
L250.257 113.017
L252.324 99.8304
L254.391 110.411" style="fill:none;stroke:#e6201a;stroke-linecap:square;stroke-width:2.0;"/>
   </g>
   <g id="line2d_9">
    <path clip-path="url(#p2b44c23dda)" d="
M31.1906 177.244
L42.9805 176.89
L49.8771 176.303
L54.7703 176.147
L58.5658 176.188
L61.6669 176.182
L64.2889 175.647
L66.5601 175.699
L68.5635 175.542
L70.3556 175.271
L71.9767 174.994
L74.8182 174.679
L76.0787 174.635
L78.35 173.936
L80.3533 173.696
L82.9753 174.419
L85.2466 174.027
L87.2499 173.697
L89.042 173.312
L91.171 173.028
L93.0628 172.951
L95.1654 171.422
L97.3871 170.875
L99.3519 169.699
L101.39 169.529
L103.454 169.928
L105.511 168.85
L107.728 167.396
L109.69 168.265
L111.749 167.76
L113.852 165.906
L115.957 166.085
L118.038 166.044
L120.076 166.35
L122.14 166.218
L124.198 163.907
L126.288 161.642
L128.32 162.173
L130.386 160.156
L132.45 157.89
L134.527 158.191
L136.587 157.974
L138.671 154.296
L140.718 156.141
L142.788 153.764
L144.847 152.395
L146.931 149.911
L148.989 147.443
L151.063 146.155
L153.122 149.69
L155.192 144.795
L157.255 146.261
L159.323 146.942
L161.394 148.039
L163.456 146.52
L165.523 141.521
L167.592 142.54
L169.655 141.73
L171.725 138.198
L173.789 137.135
L175.859 135.977
L177.924 129.877
L179.992 125.998
L182.056 126.895
L184.123 130.481
L186.19 122.581
L188.257 122.418
L190.324 109.543
L192.39 127.653
L194.458 97.6348
L196.524 132.832
L198.591 123.102
L200.657 125.492
L202.724 119.045
L204.791 110.704
L206.857 110.988
L208.924 104.119
L210.991 102.075
L213.057 106.107
L215.124 120.649
L217.191 104.488
L219.257 109.989
L221.324 117.901
L223.391 106.145
L225.457 90.7904
L227.524 89.6017
L229.591 87.5037
L231.657 102.42
L233.724 78.8123
L235.791 48.7132
L237.857 87.2178
L239.924 97.0038
L241.991 82.0031
L244.057 25.0054
L246.124 77.5227
L248.191 71.7285
L249.102 -1
M251.53 -1
L252.324 56.4827
L254.391 69.8034" style="fill:none;stroke:#ff7f00;stroke-linecap:square;stroke-width:2.0;"/>
   </g>
   <g id="patch_3">
    <path d="
M254.391 194
L254.391 21.2" style="fill:none;stroke:#000000;stroke-linecap:square;stroke-linejoin:miter;"/>
   </g>
   <g id="patch_4">
    <path d="
M31.1906 194
L31.1906 21.2" style="fill:none;stroke:#000000;stroke-linecap:square;stroke-linejoin:miter;"/>
   </g>
   <g id="patch_5">
    <path d="
M31.1906 21.2
L254.391 21.2" style="fill:none;stroke:#000000;stroke-linecap:square;stroke-linejoin:miter;"/>
   </g>
   <g id="patch_6">
    <path d="
M31.1906 194
L254.391 194" style="fill:none;stroke:#000000;stroke-linecap:square;stroke-linejoin:miter;"/>
   </g>
   <g id="matplotlib.axis_1">
    <g id="xtick_1">
     <g id="line2d_10">
      <defs>
       <path d="
M0 0
L0 -4" id="mc7db9fdffb" style="stroke:#000000;stroke-width:0.5;"/>
      </defs>
      <g>
       <use style="stroke:#000000;stroke-width:0.5;" x="31.190625" xlink:href="#mc7db9fdffb" y="194.0"/>
      </g>
     </g>
     <g id="line2d_11">
      <defs>
       <path d="
M0 0
L0 4" id="m5a7d422ac3" style="stroke:#000000;stroke-width:0.5;"/>
      </defs>
      <g>
       <use style="stroke:#000000;stroke-width:0.5;" x="31.190625" xlink:href="#m5a7d422ac3" y="21.2"/>
      </g>
     </g>
     <g id="text_1">
      <!-- $\mathdefault{10^{-1}}$ -->
      <defs>
       <path d="
M12.4062 8.29688
L28.5156 8.29688
L28.5156 63.9219
L10.9844 60.4062
L10.9844 69.3906
L28.4219 72.9062
L38.2812 72.9062
L38.2812 8.29688
L54.3906 8.29688
L54.3906 0
L12.4062 0
z
" id="BitstreamVeraSans-Roman-31"/>
       <path d="
M31.7812 66.4062
Q24.1719 66.4062 20.3281 58.9062
Q16.5 51.4219 16.5 36.375
Q16.5 21.3906 20.3281 13.8906
Q24.1719 6.39062 31.7812 6.39062
Q39.4531 6.39062 43.2812 13.8906
Q47.125 21.3906 47.125 36.375
Q47.125 51.4219 43.2812 58.9062
Q39.4531 66.4062 31.7812 66.4062
M31.7812 74.2188
Q44.0469 74.2188 50.5156 64.5156
Q56.9844 54.8281 56.9844 36.375
Q56.9844 17.9688 50.5156 8.26562
Q44.0469 -1.42188 31.7812 -1.42188
Q19.5312 -1.42188 13.0625 8.26562
Q6.59375 17.9688 6.59375 36.375
Q6.59375 54.8281 13.0625 64.5156
Q19.5312 74.2188 31.7812 74.2188" id="BitstreamVeraSans-Roman-30"/>
       <path d="
M4.89062 31.3906
L31.2031 31.3906
L31.2031 23.3906
L4.89062 23.3906
z
" id="BitstreamVeraSans-Roman-2d"/>
      </defs>
      <g transform="translate(20.240625 206.5203125)scale(0.1 -0.1)">
       <use transform="translate(0.0 0.46562500000000284)" xlink:href="#BitstreamVeraSans-Roman-31"/>
       <use transform="translate(63.623046875 0.46562500000000284)" xlink:href="#BitstreamVeraSans-Roman-30"/>
       <use transform="translate(127.24609375 52.965625)scale(0.7)" xlink:href="#BitstreamVeraSans-Roman-2d"/>
       <use transform="translate(152.5048828125 52.965625)scale(0.7)" xlink:href="#BitstreamVeraSans-Roman-31"/>
      </g>
     </g>
    </g>
    <g id="xtick_2">
     <g id="line2d_12">
      <g>
       <use style="stroke:#000000;stroke-width:0.5;" x="70.3555968862" xlink:href="#mc7db9fdffb" y="194.0"/>
      </g>
     </g>
     <g id="line2d_13">
      <g>
       <use style="stroke:#000000;stroke-width:0.5;" x="70.3555968862" xlink:href="#m5a7d422ac3" y="21.2"/>
      </g>
     </g>
     <g id="text_2">
      <!-- $\mathdefault{10^{0}}$ -->
      <g transform="translate(60.7055968862 206.6203125)scale(0.1 -0.1)">
       <use transform="translate(0.0 0.546875)" xlink:href="#BitstreamVeraSans-Roman-31"/>
       <use transform="translate(63.623046875 0.546875)" xlink:href="#BitstreamVeraSans-Roman-30"/>
       <use transform="translate(127.24609375 53.046875)scale(0.7)" xlink:href="#BitstreamVeraSans-Roman-30"/>
      </g>
     </g>
    </g>
    <g id="xtick_3">
     <g id="line2d_14">
      <g>
       <use style="stroke:#000000;stroke-width:0.5;" x="109.520568772" xlink:href="#mc7db9fdffb" y="194.0"/>
      </g>
     </g>
     <g id="line2d_15">
      <g>
       <use style="stroke:#000000;stroke-width:0.5;" x="109.520568772" xlink:href="#m5a7d422ac3" y="21.2"/>
      </g>
     </g>
     <g id="text_3">
      <!-- $\mathdefault{10^{1}}$ -->
      <g transform="translate(99.8705687724 206.5203125)scale(0.1 -0.1)">
       <use transform="translate(0.0 0.46562500000000284)" xlink:href="#BitstreamVeraSans-Roman-31"/>
       <use transform="translate(63.623046875 0.46562500000000284)" xlink:href="#BitstreamVeraSans-Roman-30"/>
       <use transform="translate(127.24609375 52.965625)scale(0.7)" xlink:href="#BitstreamVeraSans-Roman-31"/>
      </g>
     </g>
    </g>
    <g id="xtick_4">
     <g id="line2d_16">
      <g>
       <use style="stroke:#000000;stroke-width:0.5;" x="148.685540659" xlink:href="#mc7db9fdffb" y="194.0"/>
      </g>
     </g>
     <g id="line2d_17">
      <g>
       <use style="stroke:#000000;stroke-width:0.5;" x="148.685540659" xlink:href="#m5a7d422ac3" y="21.2"/>
      </g>
     </g>
     <g id="text_4">
      <!-- $\mathdefault{10^{2}}$ -->
      <defs>
       <path d="
M19.1875 8.29688
L53.6094 8.29688
L53.6094 0
L7.32812 0
L7.32812 8.29688
Q12.9375 14.1094 22.625 23.8906
Q32.3281 33.6875 34.8125 36.5312
Q39.5469 41.8438 41.4219 45.5312
Q43.3125 49.2188 43.3125 52.7812
Q43.3125 58.5938 39.2344 62.25
Q35.1562 65.9219 28.6094 65.9219
Q23.9688 65.9219 18.8125 64.3125
Q13.6719 62.7031 7.8125 59.4219
L7.8125 69.3906
Q13.7656 71.7812 18.9375 73
Q24.125 74.2188 28.4219 74.2188
Q39.75 74.2188 46.4844 68.5469
Q53.2188 62.8906 53.2188 53.4219
Q53.2188 48.9219 51.5312 44.8906
Q49.8594 40.875 45.4062 35.4062
Q44.1875 33.9844 37.6406 27.2188
Q31.1094 20.4531 19.1875 8.29688" id="BitstreamVeraSans-Roman-32"/>
      </defs>
      <g transform="translate(139.035540659 206.6203125)scale(0.1 -0.1)">
       <use transform="translate(0.0 0.546875)" xlink:href="#BitstreamVeraSans-Roman-31"/>
       <use transform="translate(63.623046875 0.546875)" xlink:href="#BitstreamVeraSans-Roman-30"/>
       <use transform="translate(127.24609375 53.046875)scale(0.7)" xlink:href="#BitstreamVeraSans-Roman-32"/>
      </g>
     </g>
    </g>
    <g id="xtick_5">
     <g id="line2d_18">
      <g>
       <use style="stroke:#000000;stroke-width:0.5;" x="187.850512545" xlink:href="#mc7db9fdffb" y="194.0"/>
      </g>
     </g>
     <g id="line2d_19">
      <g>
       <use style="stroke:#000000;stroke-width:0.5;" x="187.850512545" xlink:href="#m5a7d422ac3" y="21.2"/>
      </g>
     </g>
     <g id="text_5">
      <!-- $\mathdefault{10^{3}}$ -->
      <defs>
       <path d="
M40.5781 39.3125
Q47.6562 37.7969 51.625 33
Q55.6094 28.2188 55.6094 21.1875
Q55.6094 10.4062 48.1875 4.48438
Q40.7656 -1.42188 27.0938 -1.42188
Q22.5156 -1.42188 17.6562 -0.515625
Q12.7969 0.390625 7.625 2.20312
L7.625 11.7188
Q11.7188 9.32812 16.5938 8.10938
Q21.4844 6.89062 26.8125 6.89062
Q36.0781 6.89062 40.9375 10.5469
Q45.7969 14.2031 45.7969 21.1875
Q45.7969 27.6406 41.2812 31.2656
Q36.7656 34.9062 28.7188 34.9062
L20.2188 34.9062
L20.2188 43.0156
L29.1094 43.0156
Q36.375 43.0156 40.2344 45.9219
Q44.0938 48.8281 44.0938 54.2969
Q44.0938 59.9062 40.1094 62.9062
Q36.1406 65.9219 28.7188 65.9219
Q24.6562 65.9219 20.0156 65.0312
Q15.375 64.1562 9.8125 62.3125
L9.8125 71.0938
Q15.4375 72.6562 20.3438 73.4375
Q25.25 74.2188 29.5938 74.2188
Q40.8281 74.2188 47.3594 69.1094
Q53.9062 64.0156 53.9062 55.3281
Q53.9062 49.2656 50.4375 45.0938
Q46.9688 40.9219 40.5781 39.3125" id="BitstreamVeraSans-Roman-33"/>
      </defs>
      <g transform="translate(178.200512545 206.6203125)scale(0.1 -0.1)">
       <use transform="translate(0.0 0.546875)" xlink:href="#BitstreamVeraSans-Roman-31"/>
       <use transform="translate(63.623046875 0.546875)" xlink:href="#BitstreamVeraSans-Roman-30"/>
       <use transform="translate(127.24609375 53.046875)scale(0.7)" xlink:href="#BitstreamVeraSans-Roman-33"/>
      </g>
     </g>
    </g>
    <g id="xtick_6">
     <g id="line2d_20">
      <g>
       <use style="stroke:#000000;stroke-width:0.5;" x="227.015484431" xlink:href="#mc7db9fdffb" y="194.0"/>
      </g>
     </g>
     <g id="line2d_21">
      <g>
       <use style="stroke:#000000;stroke-width:0.5;" x="227.015484431" xlink:href="#m5a7d422ac3" y="21.2"/>
      </g>
     </g>
     <g id="text_6">
      <!-- $\mathdefault{10^{4}}$ -->
      <defs>
       <path d="
M37.7969 64.3125
L12.8906 25.3906
L37.7969 25.3906
z

M35.2031 72.9062
L47.6094 72.9062
L47.6094 25.3906
L58.0156 25.3906
L58.0156 17.1875
L47.6094 17.1875
L47.6094 0
L37.7969 0
L37.7969 17.1875
L4.89062 17.1875
L4.89062 26.7031
z
" id="BitstreamVeraSans-Roman-34"/>
      </defs>
      <g transform="translate(217.365484431 206.5203125)scale(0.1 -0.1)">
       <use transform="translate(0.0 0.46562500000000284)" xlink:href="#BitstreamVeraSans-Roman-31"/>
       <use transform="translate(63.623046875 0.46562500000000284)" xlink:href="#BitstreamVeraSans-Roman-30"/>
       <use transform="translate(127.24609375 52.965625)scale(0.7)" xlink:href="#BitstreamVeraSans-Roman-34"/>
      </g>
     </g>
    </g>
    <g id="xtick_7">
     <g id="line2d_22">
      <defs>
       <path d="
M0 0
L0 -2" id="mc21db286a6" style="stroke:#000000;stroke-width:0.5;"/>
      </defs>
      <g>
       <use style="stroke:#000000;stroke-width:0.5;" x="42.9804563171" xlink:href="#mc21db286a6" y="194.0"/>
      </g>
     </g>
     <g id="line2d_23">
      <defs>
       <path d="
M0 0
L0 2" id="ma9c915e141" style="stroke:#000000;stroke-width:0.5;"/>
      </defs>
      <g>
       <use style="stroke:#000000;stroke-width:0.5;" x="42.9804563171" xlink:href="#ma9c915e141" y="21.2"/>
      </g>
     </g>
    </g>
    <g id="xtick_8">
     <g id="line2d_24">
      <g>
       <use style="stroke:#000000;stroke-width:0.5;" x="49.8770655274" xlink:href="#mc21db286a6" y="194.0"/>
      </g>
     </g>
     <g id="line2d_25">
      <g>
       <use style="stroke:#000000;stroke-width:0.5;" x="49.8770655274" xlink:href="#ma9c915e141" y="21.2"/>
      </g>
     </g>
    </g>
    <g id="xtick_9">
     <g id="line2d_26">
      <g>
       <use style="stroke:#000000;stroke-width:0.5;" x="54.7702876342" xlink:href="#mc21db286a6" y="194.0"/>
      </g>
     </g>
     <g id="line2d_27">
      <g>
       <use style="stroke:#000000;stroke-width:0.5;" x="54.7702876342" xlink:href="#ma9c915e141" y="21.2"/>
      </g>
     </g>
    </g>
    <g id="xtick_10">
     <g id="line2d_28">
      <g>
       <use style="stroke:#000000;stroke-width:0.5;" x="58.5657655691" xlink:href="#mc21db286a6" y="194.0"/>
      </g>
     </g>
     <g id="line2d_29">
      <g>
       <use style="stroke:#000000;stroke-width:0.5;" x="58.5657655691" xlink:href="#ma9c915e141" y="21.2"/>
      </g>
     </g>
    </g>
    <g id="xtick_11">
     <g id="line2d_30">
      <g>
       <use style="stroke:#000000;stroke-width:0.5;" x="61.6668968445" xlink:href="#mc21db286a6" y="194.0"/>
      </g>
     </g>
     <g id="line2d_31">
      <g>
       <use style="stroke:#000000;stroke-width:0.5;" x="61.6668968445" xlink:href="#ma9c915e141" y="21.2"/>
      </g>
     </g>
    </g>
    <g id="xtick_12">
     <g id="line2d_32">
      <g>
       <use style="stroke:#000000;stroke-width:0.5;" x="64.2888659782" xlink:href="#mc21db286a6" y="194.0"/>
      </g>
     </g>
     <g id="line2d_33">
      <g>
       <use style="stroke:#000000;stroke-width:0.5;" x="64.2888659782" xlink:href="#ma9c915e141" y="21.2"/>
      </g>
     </g>
    </g>
    <g id="xtick_13">
     <g id="line2d_34">
      <g>
       <use style="stroke:#000000;stroke-width:0.5;" x="66.5601189512" xlink:href="#mc21db286a6" y="194.0"/>
      </g>
     </g>
     <g id="line2d_35">
      <g>
       <use style="stroke:#000000;stroke-width:0.5;" x="66.5601189512" xlink:href="#ma9c915e141" y="21.2"/>
      </g>
     </g>
    </g>
    <g id="xtick_14">
     <g id="line2d_36">
      <g>
       <use style="stroke:#000000;stroke-width:0.5;" x="68.5635060548" xlink:href="#mc21db286a6" y="194.0"/>
      </g>
     </g>
     <g id="line2d_37">
      <g>
       <use style="stroke:#000000;stroke-width:0.5;" x="68.5635060548" xlink:href="#ma9c915e141" y="21.2"/>
      </g>
     </g>
    </g>
    <g id="xtick_15">
     <g id="line2d_38">
      <g>
       <use style="stroke:#000000;stroke-width:0.5;" x="82.1454282033" xlink:href="#mc21db286a6" y="194.0"/>
      </g>
     </g>
     <g id="line2d_39">
      <g>
       <use style="stroke:#000000;stroke-width:0.5;" x="82.1454282033" xlink:href="#ma9c915e141" y="21.2"/>
      </g>
     </g>
    </g>
    <g id="xtick_16">
     <g id="line2d_40">
      <g>
       <use style="stroke:#000000;stroke-width:0.5;" x="89.0420374136" xlink:href="#mc21db286a6" y="194.0"/>
      </g>
     </g>
     <g id="line2d_41">
      <g>
       <use style="stroke:#000000;stroke-width:0.5;" x="89.0420374136" xlink:href="#ma9c915e141" y="21.2"/>
      </g>
     </g>
    </g>
    <g id="xtick_17">
     <g id="line2d_42">
      <g>
       <use style="stroke:#000000;stroke-width:0.5;" x="93.9352595203" xlink:href="#mc21db286a6" y="194.0"/>
      </g>
     </g>
     <g id="line2d_43">
      <g>
       <use style="stroke:#000000;stroke-width:0.5;" x="93.9352595203" xlink:href="#ma9c915e141" y="21.2"/>
      </g>
     </g>
    </g>
    <g id="xtick_18">
     <g id="line2d_44">
      <g>
       <use style="stroke:#000000;stroke-width:0.5;" x="97.7307374553" xlink:href="#mc21db286a6" y="194.0"/>
      </g>
     </g>
     <g id="line2d_45">
      <g>
       <use style="stroke:#000000;stroke-width:0.5;" x="97.7307374553" xlink:href="#ma9c915e141" y="21.2"/>
      </g>
     </g>
    </g>
    <g id="xtick_19">
     <g id="line2d_46">
      <g>
       <use style="stroke:#000000;stroke-width:0.5;" x="100.831868731" xlink:href="#mc21db286a6" y="194.0"/>
      </g>
     </g>
     <g id="line2d_47">
      <g>
       <use style="stroke:#000000;stroke-width:0.5;" x="100.831868731" xlink:href="#ma9c915e141" y="21.2"/>
      </g>
     </g>
    </g>
    <g id="xtick_20">
     <g id="line2d_48">
      <g>
       <use style="stroke:#000000;stroke-width:0.5;" x="103.453837864" xlink:href="#mc21db286a6" y="194.0"/>
      </g>
     </g>
     <g id="line2d_49">
      <g>
       <use style="stroke:#000000;stroke-width:0.5;" x="103.453837864" xlink:href="#ma9c915e141" y="21.2"/>
      </g>
     </g>
    </g>
    <g id="xtick_21">
     <g id="line2d_50">
      <g>
       <use style="stroke:#000000;stroke-width:0.5;" x="105.725090837" xlink:href="#mc21db286a6" y="194.0"/>
      </g>
     </g>
     <g id="line2d_51">
      <g>
       <use style="stroke:#000000;stroke-width:0.5;" x="105.725090837" xlink:href="#ma9c915e141" y="21.2"/>
      </g>
     </g>
    </g>
    <g id="xtick_22">
     <g id="line2d_52">
      <g>
       <use style="stroke:#000000;stroke-width:0.5;" x="107.728477941" xlink:href="#mc21db286a6" y="194.0"/>
      </g>
     </g>
     <g id="line2d_53">
      <g>
       <use style="stroke:#000000;stroke-width:0.5;" x="107.728477941" xlink:href="#ma9c915e141" y="21.2"/>
      </g>
     </g>
    </g>
    <g id="xtick_23">
     <g id="line2d_54">
      <g>
       <use style="stroke:#000000;stroke-width:0.5;" x="121.310400089" xlink:href="#mc21db286a6" y="194.0"/>
      </g>
     </g>
     <g id="line2d_55">
      <g>
       <use style="stroke:#000000;stroke-width:0.5;" x="121.310400089" xlink:href="#ma9c915e141" y="21.2"/>
      </g>
     </g>
    </g>
    <g id="xtick_24">
     <g id="line2d_56">
      <g>
       <use style="stroke:#000000;stroke-width:0.5;" x="128.2070093" xlink:href="#mc21db286a6" y="194.0"/>
      </g>
     </g>
     <g id="line2d_57">
      <g>
       <use style="stroke:#000000;stroke-width:0.5;" x="128.2070093" xlink:href="#ma9c915e141" y="21.2"/>
      </g>
     </g>
    </g>
    <g id="xtick_25">
     <g id="line2d_58">
      <g>
       <use style="stroke:#000000;stroke-width:0.5;" x="133.100231407" xlink:href="#mc21db286a6" y="194.0"/>
      </g>
     </g>
     <g id="line2d_59">
      <g>
       <use style="stroke:#000000;stroke-width:0.5;" x="133.100231407" xlink:href="#ma9c915e141" y="21.2"/>
      </g>
     </g>
    </g>
    <g id="xtick_26">
     <g id="line2d_60">
      <g>
       <use style="stroke:#000000;stroke-width:0.5;" x="136.895709341" xlink:href="#mc21db286a6" y="194.0"/>
      </g>
     </g>
     <g id="line2d_61">
      <g>
       <use style="stroke:#000000;stroke-width:0.5;" x="136.895709341" xlink:href="#ma9c915e141" y="21.2"/>
      </g>
     </g>
    </g>
    <g id="xtick_27">
     <g id="line2d_62">
      <g>
       <use style="stroke:#000000;stroke-width:0.5;" x="139.996840617" xlink:href="#mc21db286a6" y="194.0"/>
      </g>
     </g>
     <g id="line2d_63">
      <g>
       <use style="stroke:#000000;stroke-width:0.5;" x="139.996840617" xlink:href="#ma9c915e141" y="21.2"/>
      </g>
     </g>
    </g>
    <g id="xtick_28">
     <g id="line2d_64">
      <g>
       <use style="stroke:#000000;stroke-width:0.5;" x="142.618809751" xlink:href="#mc21db286a6" y="194.0"/>
      </g>
     </g>
     <g id="line2d_65">
      <g>
       <use style="stroke:#000000;stroke-width:0.5;" x="142.618809751" xlink:href="#ma9c915e141" y="21.2"/>
      </g>
     </g>
    </g>
    <g id="xtick_29">
     <g id="line2d_66">
      <g>
       <use style="stroke:#000000;stroke-width:0.5;" x="144.890062724" xlink:href="#mc21db286a6" y="194.0"/>
      </g>
     </g>
     <g id="line2d_67">
      <g>
       <use style="stroke:#000000;stroke-width:0.5;" x="144.890062724" xlink:href="#ma9c915e141" y="21.2"/>
      </g>
     </g>
    </g>
    <g id="xtick_30">
     <g id="line2d_68">
      <g>
       <use style="stroke:#000000;stroke-width:0.5;" x="146.893449827" xlink:href="#mc21db286a6" y="194.0"/>
      </g>
     </g>
     <g id="line2d_69">
      <g>
       <use style="stroke:#000000;stroke-width:0.5;" x="146.893449827" xlink:href="#ma9c915e141" y="21.2"/>
      </g>
     </g>
    </g>
    <g id="xtick_31">
     <g id="line2d_70">
      <g>
       <use style="stroke:#000000;stroke-width:0.5;" x="160.475371976" xlink:href="#mc21db286a6" y="194.0"/>
      </g>
     </g>
     <g id="line2d_71">
      <g>
       <use style="stroke:#000000;stroke-width:0.5;" x="160.475371976" xlink:href="#ma9c915e141" y="21.2"/>
      </g>
     </g>
    </g>
    <g id="xtick_32">
     <g id="line2d_72">
      <g>
       <use style="stroke:#000000;stroke-width:0.5;" x="167.371981186" xlink:href="#mc21db286a6" y="194.0"/>
      </g>
     </g>
     <g id="line2d_73">
      <g>
       <use style="stroke:#000000;stroke-width:0.5;" x="167.371981186" xlink:href="#ma9c915e141" y="21.2"/>
      </g>
     </g>
    </g>
    <g id="xtick_33">
     <g id="line2d_74">
      <g>
       <use style="stroke:#000000;stroke-width:0.5;" x="172.265203293" xlink:href="#mc21db286a6" y="194.0"/>
      </g>
     </g>
     <g id="line2d_75">
      <g>
       <use style="stroke:#000000;stroke-width:0.5;" x="172.265203293" xlink:href="#ma9c915e141" y="21.2"/>
      </g>
     </g>
    </g>
    <g id="xtick_34">
     <g id="line2d_76">
      <g>
       <use style="stroke:#000000;stroke-width:0.5;" x="176.060681228" xlink:href="#mc21db286a6" y="194.0"/>
      </g>
     </g>
     <g id="line2d_77">
      <g>
       <use style="stroke:#000000;stroke-width:0.5;" x="176.060681228" xlink:href="#ma9c915e141" y="21.2"/>
      </g>
     </g>
    </g>
    <g id="xtick_35">
     <g id="line2d_78">
      <g>
       <use style="stroke:#000000;stroke-width:0.5;" x="179.161812503" xlink:href="#mc21db286a6" y="194.0"/>
      </g>
     </g>
     <g id="line2d_79">
      <g>
       <use style="stroke:#000000;stroke-width:0.5;" x="179.161812503" xlink:href="#ma9c915e141" y="21.2"/>
      </g>
     </g>
    </g>
    <g id="xtick_36">
     <g id="line2d_80">
      <g>
       <use style="stroke:#000000;stroke-width:0.5;" x="181.783781637" xlink:href="#mc21db286a6" y="194.0"/>
      </g>
     </g>
     <g id="line2d_81">
      <g>
       <use style="stroke:#000000;stroke-width:0.5;" x="181.783781637" xlink:href="#ma9c915e141" y="21.2"/>
      </g>
     </g>
    </g>
    <g id="xtick_37">
     <g id="line2d_82">
      <g>
       <use style="stroke:#000000;stroke-width:0.5;" x="184.05503461" xlink:href="#mc21db286a6" y="194.0"/>
      </g>
     </g>
     <g id="line2d_83">
      <g>
       <use style="stroke:#000000;stroke-width:0.5;" x="184.05503461" xlink:href="#ma9c915e141" y="21.2"/>
      </g>
     </g>
    </g>
    <g id="xtick_38">
     <g id="line2d_84">
      <g>
       <use style="stroke:#000000;stroke-width:0.5;" x="186.058421713" xlink:href="#mc21db286a6" y="194.0"/>
      </g>
     </g>
     <g id="line2d_85">
      <g>
       <use style="stroke:#000000;stroke-width:0.5;" x="186.058421713" xlink:href="#ma9c915e141" y="21.2"/>
      </g>
     </g>
    </g>
    <g id="xtick_39">
     <g id="line2d_86">
      <g>
       <use style="stroke:#000000;stroke-width:0.5;" x="199.640343862" xlink:href="#mc21db286a6" y="194.0"/>
      </g>
     </g>
     <g id="line2d_87">
      <g>
       <use style="stroke:#000000;stroke-width:0.5;" x="199.640343862" xlink:href="#ma9c915e141" y="21.2"/>
      </g>
     </g>
    </g>
    <g id="xtick_40">
     <g id="line2d_88">
      <g>
       <use style="stroke:#000000;stroke-width:0.5;" x="206.536953072" xlink:href="#mc21db286a6" y="194.0"/>
      </g>
     </g>
     <g id="line2d_89">
      <g>
       <use style="stroke:#000000;stroke-width:0.5;" x="206.536953072" xlink:href="#ma9c915e141" y="21.2"/>
      </g>
     </g>
    </g>
    <g id="xtick_41">
     <g id="line2d_90">
      <g>
       <use style="stroke:#000000;stroke-width:0.5;" x="211.430175179" xlink:href="#mc21db286a6" y="194.0"/>
      </g>
     </g>
     <g id="line2d_91">
      <g>
       <use style="stroke:#000000;stroke-width:0.5;" x="211.430175179" xlink:href="#ma9c915e141" y="21.2"/>
      </g>
     </g>
    </g>
    <g id="xtick_42">
     <g id="line2d_92">
      <g>
       <use style="stroke:#000000;stroke-width:0.5;" x="215.225653114" xlink:href="#mc21db286a6" y="194.0"/>
      </g>
     </g>
     <g id="line2d_93">
      <g>
       <use style="stroke:#000000;stroke-width:0.5;" x="215.225653114" xlink:href="#ma9c915e141" y="21.2"/>
      </g>
     </g>
    </g>
    <g id="xtick_43">
     <g id="line2d_94">
      <g>
       <use style="stroke:#000000;stroke-width:0.5;" x="218.326784389" xlink:href="#mc21db286a6" y="194.0"/>
      </g>
     </g>
     <g id="line2d_95">
      <g>
       <use style="stroke:#000000;stroke-width:0.5;" x="218.326784389" xlink:href="#ma9c915e141" y="21.2"/>
      </g>
     </g>
    </g>
    <g id="xtick_44">
     <g id="line2d_96">
      <g>
       <use style="stroke:#000000;stroke-width:0.5;" x="220.948753523" xlink:href="#mc21db286a6" y="194.0"/>
      </g>
     </g>
     <g id="line2d_97">
      <g>
       <use style="stroke:#000000;stroke-width:0.5;" x="220.948753523" xlink:href="#ma9c915e141" y="21.2"/>
      </g>
     </g>
    </g>
    <g id="xtick_45">
     <g id="line2d_98">
      <g>
       <use style="stroke:#000000;stroke-width:0.5;" x="223.220006496" xlink:href="#mc21db286a6" y="194.0"/>
      </g>
     </g>
     <g id="line2d_99">
      <g>
       <use style="stroke:#000000;stroke-width:0.5;" x="223.220006496" xlink:href="#ma9c915e141" y="21.2"/>
      </g>
     </g>
    </g>
    <g id="xtick_46">
     <g id="line2d_100">
      <g>
       <use style="stroke:#000000;stroke-width:0.5;" x="225.2233936" xlink:href="#mc21db286a6" y="194.0"/>
      </g>
     </g>
     <g id="line2d_101">
      <g>
       <use style="stroke:#000000;stroke-width:0.5;" x="225.2233936" xlink:href="#ma9c915e141" y="21.2"/>
      </g>
     </g>
    </g>
    <g id="xtick_47">
     <g id="line2d_102">
      <g>
       <use style="stroke:#000000;stroke-width:0.5;" x="238.805315748" xlink:href="#mc21db286a6" y="194.0"/>
      </g>
     </g>
     <g id="line2d_103">
      <g>
       <use style="stroke:#000000;stroke-width:0.5;" x="238.805315748" xlink:href="#ma9c915e141" y="21.2"/>
      </g>
     </g>
    </g>
    <g id="xtick_48">
     <g id="line2d_104">
      <g>
       <use style="stroke:#000000;stroke-width:0.5;" x="245.701924958" xlink:href="#mc21db286a6" y="194.0"/>
      </g>
     </g>
     <g id="line2d_105">
      <g>
       <use style="stroke:#000000;stroke-width:0.5;" x="245.701924958" xlink:href="#ma9c915e141" y="21.2"/>
      </g>
     </g>
    </g>
    <g id="xtick_49">
     <g id="line2d_106">
      <g>
       <use style="stroke:#000000;stroke-width:0.5;" x="250.595147065" xlink:href="#mc21db286a6" y="194.0"/>
      </g>
     </g>
     <g id="line2d_107">
      <g>
       <use style="stroke:#000000;stroke-width:0.5;" x="250.595147065" xlink:href="#ma9c915e141" y="21.2"/>
      </g>
     </g>
    </g>
    <g id="xtick_50">
     <g id="line2d_108">
      <g>
       <use style="stroke:#000000;stroke-width:0.5;" x="254.390625" xlink:href="#mc21db286a6" y="194.0"/>
      </g>
     </g>
     <g id="line2d_109">
      <g>
       <use style="stroke:#000000;stroke-width:0.5;" x="254.390625" xlink:href="#ma9c915e141" y="21.2"/>
      </g>
     </g>
    </g>
    <g id="text_7">
     <!-- Equilibration time -->
     <defs>
      <path d="
M56.2031 29.5938
L56.2031 25.2031
L14.8906 25.2031
Q15.4844 15.9219 20.4844 11.0625
Q25.4844 6.20312 34.4219 6.20312
Q39.5938 6.20312 44.4531 7.46875
Q49.3125 8.73438 54.1094 11.2812
L54.1094 2.78125
Q49.2656 0.734375 44.1875 -0.34375
Q39.1094 -1.42188 33.8906 -1.42188
Q20.7969 -1.42188 13.1562 6.1875
Q5.51562 13.8125 5.51562 26.8125
Q5.51562 40.2344 12.7656 48.1094
Q20.0156 56 32.3281 56
Q43.3594 56 49.7812 48.8906
Q56.2031 41.7969 56.2031 29.5938
M47.2188 32.2344
Q47.125 39.5938 43.0938 43.9844
Q39.0625 48.3906 32.4219 48.3906
Q24.9062 48.3906 20.3906 44.1406
Q15.875 39.8906 15.1875 32.1719
z
" id="BitstreamVeraSans-Roman-65"/>
      <path d="
M41.1094 46.2969
Q39.5938 47.1719 37.8125 47.5781
Q36.0312 48 33.8906 48
Q26.2656 48 22.1875 43.0469
Q18.1094 38.0938 18.1094 28.8125
L18.1094 0
L9.07812 0
L9.07812 54.6875
L18.1094 54.6875
L18.1094 46.1875
Q20.9531 51.1719 25.4844 53.5781
Q30.0312 56 36.5312 56
Q37.4531 56 38.5781 55.875
Q39.7031 55.7656 41.0625 55.5156
z
" id="BitstreamVeraSans-Roman-72"/>
      <path d="
M9.42188 75.9844
L18.4062 75.9844
L18.4062 0
L9.42188 0
z
" id="BitstreamVeraSans-Roman-6c"/>
      <path id="BitstreamVeraSans-Roman-20"/>
      <path d="
M9.42188 54.6875
L18.4062 54.6875
L18.4062 0
L9.42188 0
z

M9.42188 75.9844
L18.4062 75.9844
L18.4062 64.5938
L9.42188 64.5938
z
" id="BitstreamVeraSans-Roman-69"/>
      <path d="
M9.8125 72.9062
L55.9062 72.9062
L55.9062 64.5938
L19.6719 64.5938
L19.6719 43.0156
L54.3906 43.0156
L54.3906 34.7188
L19.6719 34.7188
L19.6719 8.29688
L56.7812 8.29688
L56.7812 0
L9.8125 0
z
" id="BitstreamVeraSans-Roman-45"/>
      <path d="
M52 44.1875
Q55.375 50.25 60.0625 53.125
Q64.75 56 71.0938 56
Q79.6406 56 84.2812 50.0156
Q88.9219 44.0469 88.9219 33.0156
L88.9219 0
L79.8906 0
L79.8906 32.7188
Q79.8906 40.5781 77.0938 44.375
Q74.3125 48.1875 68.6094 48.1875
Q61.625 48.1875 57.5625 43.5469
Q53.5156 38.9219 53.5156 30.9062
L53.5156 0
L44.4844 0
L44.4844 32.7188
Q44.4844 40.625 41.7031 44.4062
Q38.9219 48.1875 33.1094 48.1875
Q26.2188 48.1875 22.1562 43.5312
Q18.1094 38.875 18.1094 30.9062
L18.1094 0
L9.07812 0
L9.07812 54.6875
L18.1094 54.6875
L18.1094 46.1875
Q21.1875 51.2188 25.4844 53.6094
Q29.7812 56 35.6875 56
Q41.6562 56 45.8281 52.9688
Q50 49.9531 52 44.1875" id="BitstreamVeraSans-Roman-6d"/>
      <path d="
M14.7969 27.2969
Q14.7969 17.3906 18.875 11.75
Q22.9531 6.10938 30.0781 6.10938
Q37.2031 6.10938 41.2969 11.75
Q45.4062 17.3906 45.4062 27.2969
Q45.4062 37.2031 41.2969 42.8438
Q37.2031 48.4844 30.0781 48.4844
Q22.9531 48.4844 18.875 42.8438
Q14.7969 37.2031 14.7969 27.2969
M45.4062 8.20312
Q42.5781 3.32812 38.25 0.953125
Q33.9375 -1.42188 27.875 -1.42188
Q17.9688 -1.42188 11.7344 6.48438
Q5.51562 14.4062 5.51562 27.2969
Q5.51562 40.1875 11.7344 48.0938
Q17.9688 56 27.875 56
Q33.9375 56 38.25 53.625
Q42.5781 51.2656 45.4062 46.3906
L45.4062 54.6875
L54.3906 54.6875
L54.3906 -20.7969
L45.4062 -20.7969
z
" id="BitstreamVeraSans-Roman-71"/>
      <path d="
M8.5 21.5781
L8.5 54.6875
L17.4844 54.6875
L17.4844 21.9219
Q17.4844 14.1562 20.5 10.2656
Q23.5312 6.39062 29.5938 6.39062
Q36.8594 6.39062 41.0781 11.0312
Q45.3125 15.6719 45.3125 23.6875
L45.3125 54.6875
L54.2969 54.6875
L54.2969 0
L45.3125 0
L45.3125 8.40625
Q42.0469 3.42188 37.7188 1
Q33.4062 -1.42188 27.6875 -1.42188
Q18.2656 -1.42188 13.375 4.4375
Q8.5 10.2969 8.5 21.5781" id="BitstreamVeraSans-Roman-75"/>
      <path d="
M54.8906 33.0156
L54.8906 0
L45.9062 0
L45.9062 32.7188
Q45.9062 40.4844 42.875 44.3281
Q39.8438 48.1875 33.7969 48.1875
Q26.5156 48.1875 22.3125 43.5469
Q18.1094 38.9219 18.1094 30.9062
L18.1094 0
L9.07812 0
L9.07812 54.6875
L18.1094 54.6875
L18.1094 46.1875
Q21.3438 51.125 25.7031 53.5625
Q30.0781 56 35.7969 56
Q45.2188 56 50.0469 50.1719
Q54.8906 44.3438 54.8906 33.0156" id="BitstreamVeraSans-Roman-6e"/>
      <path d="
M48.6875 27.2969
Q48.6875 37.2031 44.6094 42.8438
Q40.5312 48.4844 33.4062 48.4844
Q26.2656 48.4844 22.1875 42.8438
Q18.1094 37.2031 18.1094 27.2969
Q18.1094 17.3906 22.1875 11.75
Q26.2656 6.10938 33.4062 6.10938
Q40.5312 6.10938 44.6094 11.75
Q48.6875 17.3906 48.6875 27.2969
M18.1094 46.3906
Q20.9531 51.2656 25.2656 53.625
Q29.5938 56 35.5938 56
Q45.5625 56 51.7812 48.0938
Q58.0156 40.1875 58.0156 27.2969
Q58.0156 14.4062 51.7812 6.48438
Q45.5625 -1.42188 35.5938 -1.42188
Q29.5938 -1.42188 25.2656 0.953125
Q20.9531 3.32812 18.1094 8.20312
L18.1094 0
L9.07812 0
L9.07812 75.9844
L18.1094 75.9844
z
" id="BitstreamVeraSans-Roman-62"/>
      <path d="
M18.3125 70.2188
L18.3125 54.6875
L36.8125 54.6875
L36.8125 47.7031
L18.3125 47.7031
L18.3125 18.0156
Q18.3125 11.3281 20.1406 9.42188
Q21.9688 7.51562 27.5938 7.51562
L36.8125 7.51562
L36.8125 0
L27.5938 0
Q17.1875 0 13.2344 3.875
Q9.28125 7.76562 9.28125 18.0156
L9.28125 47.7031
L2.6875 47.7031
L2.6875 54.6875
L9.28125 54.6875
L9.28125 70.2188
z
" id="BitstreamVeraSans-Roman-74"/>
      <path d="
M30.6094 48.3906
Q23.3906 48.3906 19.1875 42.75
Q14.9844 37.1094 14.9844 27.2969
Q14.9844 17.4844 19.1562 11.8438
Q23.3438 6.20312 30.6094 6.20312
Q37.7969 6.20312 41.9844 11.8594
Q46.1875 17.5312 46.1875 27.2969
Q46.1875 37.0156 41.9844 42.7031
Q37.7969 48.3906 30.6094 48.3906
M30.6094 56
Q42.3281 56 49.0156 48.375
Q55.7188 40.7656 55.7188 27.2969
Q55.7188 13.875 49.0156 6.21875
Q42.3281 -1.42188 30.6094 -1.42188
Q18.8438 -1.42188 12.1719 6.21875
Q5.51562 13.875 5.51562 27.2969
Q5.51562 40.7656 12.1719 48.375
Q18.8438 56 30.6094 56" id="BitstreamVeraSans-Roman-6f"/>
      <path d="
M34.2812 27.4844
Q23.3906 27.4844 19.1875 25
Q14.9844 22.5156 14.9844 16.5
Q14.9844 11.7188 18.1406 8.90625
Q21.2969 6.10938 26.7031 6.10938
Q34.1875 6.10938 38.7031 11.4062
Q43.2188 16.7031 43.2188 25.4844
L43.2188 27.4844
z

M52.2031 31.2031
L52.2031 0
L43.2188 0
L43.2188 8.29688
Q40.1406 3.32812 35.5469 0.953125
Q30.9531 -1.42188 24.3125 -1.42188
Q15.9219 -1.42188 10.9531 3.29688
Q6 8.01562 6 15.9219
Q6 25.1406 12.1719 29.8281
Q18.3594 34.5156 30.6094 34.5156
L43.2188 34.5156
L43.2188 35.4062
Q43.2188 41.6094 39.1406 45
Q35.0625 48.3906 27.6875 48.3906
Q23 48.3906 18.5469 47.2656
Q14.1094 46.1406 10.0156 43.8906
L10.0156 52.2031
Q14.9375 54.1094 19.5781 55.0469
Q24.2188 56 28.6094 56
Q40.4844 56 46.3438 49.8438
Q52.2031 43.7031 52.2031 31.2031" id="BitstreamVeraSans-Roman-61"/>
     </defs>
     <g transform="translate(98.63125 221.2984375)scale(0.1 -0.1)">
      <use xlink:href="#BitstreamVeraSans-Roman-45"/>
      <use x="63.18359375" xlink:href="#BitstreamVeraSans-Roman-71"/>
      <use x="126.66015625" xlink:href="#BitstreamVeraSans-Roman-75"/>
      <use x="190.0390625" xlink:href="#BitstreamVeraSans-Roman-69"/>
      <use x="217.822265625" xlink:href="#BitstreamVeraSans-Roman-6c"/>
      <use x="245.60546875" xlink:href="#BitstreamVeraSans-Roman-69"/>
      <use x="273.388671875" xlink:href="#BitstreamVeraSans-Roman-62"/>
      <use x="336.865234375" xlink:href="#BitstreamVeraSans-Roman-72"/>
      <use x="377.978515625" xlink:href="#BitstreamVeraSans-Roman-61"/>
      <use x="439.2578125" xlink:href="#BitstreamVeraSans-Roman-74"/>
      <use x="478.466796875" xlink:href="#BitstreamVeraSans-Roman-69"/>
      <use x="506.25" xlink:href="#BitstreamVeraSans-Roman-6f"/>
      <use x="567.431640625" xlink:href="#BitstreamVeraSans-Roman-6e"/>
      <use x="630.810546875" xlink:href="#BitstreamVeraSans-Roman-20"/>
      <use x="662.59765625" xlink:href="#BitstreamVeraSans-Roman-74"/>
      <use x="701.806640625" xlink:href="#BitstreamVeraSans-Roman-69"/>
      <use x="729.58984375" xlink:href="#BitstreamVeraSans-Roman-6d"/>
      <use x="827.001953125" xlink:href="#BitstreamVeraSans-Roman-65"/>
     </g>
    </g>
   </g>
   <g id="matplotlib.axis_2">
    <g id="ytick_1">
     <g id="line2d_110">
      <defs>
       <path d="
M0 0
L4 0" id="md7965d1ba0" style="stroke:#000000;stroke-width:0.5;"/>
      </defs>
      <g>
       <use style="stroke:#000000;stroke-width:0.5;" x="31.190625" xlink:href="#md7965d1ba0" y="194.0"/>
      </g>
     </g>
     <g id="line2d_111">
      <defs>
       <path d="
M0 0
L-4 0" id="md9a1c1a7cd" style="stroke:#000000;stroke-width:0.5;"/>
      </defs>
      <g>
       <use style="stroke:#000000;stroke-width:0.5;" x="254.390625" xlink:href="#md9a1c1a7cd" y="194.0"/>
      </g>
     </g>
     <g id="text_8">
      <!-- 0 -->
      <g transform="translate(22.1515625 196.759375)scale(0.1 -0.1)">
       <use xlink:href="#BitstreamVeraSans-Roman-30"/>
      </g>
     </g>
    </g>
    <g id="ytick_2">
     <g id="line2d_112">
      <g>
       <use style="stroke:#000000;stroke-width:0.5;" x="31.190625" xlink:href="#md7965d1ba0" y="172.4"/>
      </g>
     </g>
     <g id="line2d_113">
      <g>
       <use style="stroke:#000000;stroke-width:0.5;" x="254.390625" xlink:href="#md9a1c1a7cd" y="172.4"/>
      </g>
     </g>
     <g id="text_9">
      <!-- 1 -->
      <g transform="translate(22.85 175.159375)scale(0.1 -0.1)">
       <use xlink:href="#BitstreamVeraSans-Roman-31"/>
      </g>
     </g>
    </g>
    <g id="ytick_3">
     <g id="line2d_114">
      <g>
       <use style="stroke:#000000;stroke-width:0.5;" x="31.190625" xlink:href="#md7965d1ba0" y="150.8"/>
      </g>
     </g>
     <g id="line2d_115">
      <g>
       <use style="stroke:#000000;stroke-width:0.5;" x="254.390625" xlink:href="#md9a1c1a7cd" y="150.8"/>
      </g>
     </g>
     <g id="text_10">
      <!-- 2 -->
      <g transform="translate(22.5625 153.559375)scale(0.1 -0.1)">
       <use xlink:href="#BitstreamVeraSans-Roman-32"/>
      </g>
     </g>
    </g>
    <g id="ytick_4">
     <g id="line2d_116">
      <g>
       <use style="stroke:#000000;stroke-width:0.5;" x="31.190625" xlink:href="#md7965d1ba0" y="129.2"/>
      </g>
     </g>
     <g id="line2d_117">
      <g>
       <use style="stroke:#000000;stroke-width:0.5;" x="254.390625" xlink:href="#md9a1c1a7cd" y="129.2"/>
      </g>
     </g>
     <g id="text_11">
      <!-- 3 -->
      <g transform="translate(22.3921875 131.959375)scale(0.1 -0.1)">
       <use xlink:href="#BitstreamVeraSans-Roman-33"/>
      </g>
     </g>
    </g>
    <g id="ytick_5">
     <g id="line2d_118">
      <g>
       <use style="stroke:#000000;stroke-width:0.5;" x="31.190625" xlink:href="#md7965d1ba0" y="107.6"/>
      </g>
     </g>
     <g id="line2d_119">
      <g>
       <use style="stroke:#000000;stroke-width:0.5;" x="254.390625" xlink:href="#md9a1c1a7cd" y="107.6"/>
      </g>
     </g>
     <g id="text_12">
      <!-- 4 -->
      <g transform="translate(21.878125 110.359375)scale(0.1 -0.1)">
       <use xlink:href="#BitstreamVeraSans-Roman-34"/>
      </g>
     </g>
    </g>
    <g id="ytick_6">
     <g id="line2d_120">
      <g>
       <use style="stroke:#000000;stroke-width:0.5;" x="31.190625" xlink:href="#md7965d1ba0" y="86.0"/>
      </g>
     </g>
     <g id="line2d_121">
      <g>
       <use style="stroke:#000000;stroke-width:0.5;" x="254.390625" xlink:href="#md9a1c1a7cd" y="86.0"/>
      </g>
     </g>
     <g id="text_13">
      <!-- 5 -->
      <defs>
       <path d="
M10.7969 72.9062
L49.5156 72.9062
L49.5156 64.5938
L19.8281 64.5938
L19.8281 46.7344
Q21.9688 47.4688 24.1094 47.8281
Q26.2656 48.1875 28.4219 48.1875
Q40.625 48.1875 47.75 41.5
Q54.8906 34.8125 54.8906 23.3906
Q54.8906 11.625 47.5625 5.09375
Q40.2344 -1.42188 26.9062 -1.42188
Q22.3125 -1.42188 17.5469 -0.640625
Q12.7969 0.140625 7.71875 1.70312
L7.71875 11.625
Q12.1094 9.23438 16.7969 8.0625
Q21.4844 6.89062 26.7031 6.89062
Q35.1562 6.89062 40.0781 11.3281
Q45.0156 15.7656 45.0156 23.3906
Q45.0156 31 40.0781 35.4375
Q35.1562 39.8906 26.7031 39.8906
Q22.75 39.8906 18.8125 39.0156
Q14.8906 38.1406 10.7969 36.2812
z
" id="BitstreamVeraSans-Roman-35"/>
      </defs>
      <g transform="translate(22.4734375 88.759375)scale(0.1 -0.1)">
       <use xlink:href="#BitstreamVeraSans-Roman-35"/>
      </g>
     </g>
    </g>
    <g id="ytick_7">
     <g id="line2d_122">
      <g>
       <use style="stroke:#000000;stroke-width:0.5;" x="31.190625" xlink:href="#md7965d1ba0" y="64.4"/>
      </g>
     </g>
     <g id="line2d_123">
      <g>
       <use style="stroke:#000000;stroke-width:0.5;" x="254.390625" xlink:href="#md9a1c1a7cd" y="64.4"/>
      </g>
     </g>
     <g id="text_14">
      <!-- 6 -->
      <defs>
       <path d="
M33.0156 40.375
Q26.375 40.375 22.4844 35.8281
Q18.6094 31.2969 18.6094 23.3906
Q18.6094 15.5312 22.4844 10.9531
Q26.375 6.39062 33.0156 6.39062
Q39.6562 6.39062 43.5312 10.9531
Q47.4062 15.5312 47.4062 23.3906
Q47.4062 31.2969 43.5312 35.8281
Q39.6562 40.375 33.0156 40.375
M52.5938 71.2969
L52.5938 62.3125
Q48.875 64.0625 45.0938 64.9844
Q41.3125 65.9219 37.5938 65.9219
Q27.8281 65.9219 22.6719 59.3281
Q17.5312 52.7344 16.7969 39.4062
Q19.6719 43.6562 24.0156 45.9219
Q28.375 48.1875 33.5938 48.1875
Q44.5781 48.1875 50.9531 41.5156
Q57.3281 34.8594 57.3281 23.3906
Q57.3281 12.1562 50.6875 5.35938
Q44.0469 -1.42188 33.0156 -1.42188
Q20.3594 -1.42188 13.6719 8.26562
Q6.98438 17.9688 6.98438 36.375
Q6.98438 53.6562 15.1875 63.9375
Q23.3906 74.2188 37.2031 74.2188
Q40.9219 74.2188 44.7031 73.4844
Q48.4844 72.75 52.5938 71.2969" id="BitstreamVeraSans-Roman-36"/>
      </defs>
      <g transform="translate(22.15625 67.159375)scale(0.1 -0.1)">
       <use xlink:href="#BitstreamVeraSans-Roman-36"/>
      </g>
     </g>
    </g>
    <g id="ytick_8">
     <g id="line2d_124">
      <g>
       <use style="stroke:#000000;stroke-width:0.5;" x="31.190625" xlink:href="#md7965d1ba0" y="42.8"/>
      </g>
     </g>
     <g id="line2d_125">
      <g>
       <use style="stroke:#000000;stroke-width:0.5;" x="254.390625" xlink:href="#md9a1c1a7cd" y="42.8"/>
      </g>
     </g>
     <g id="text_15">
      <!-- 7 -->
      <defs>
       <path d="
M8.20312 72.9062
L55.0781 72.9062
L55.0781 68.7031
L28.6094 0
L18.3125 0
L43.2188 64.5938
L8.20312 64.5938
z
" id="BitstreamVeraSans-Roman-37"/>
      </defs>
      <g transform="translate(22.503125 45.559375)scale(0.1 -0.1)">
       <use xlink:href="#BitstreamVeraSans-Roman-37"/>
      </g>
     </g>
    </g>
    <g id="ytick_9">
     <g id="line2d_126">
      <g>
       <use style="stroke:#000000;stroke-width:0.5;" x="31.190625" xlink:href="#md7965d1ba0" y="21.2"/>
      </g>
     </g>
     <g id="line2d_127">
      <g>
       <use style="stroke:#000000;stroke-width:0.5;" x="254.390625" xlink:href="#md9a1c1a7cd" y="21.2"/>
      </g>
     </g>
     <g id="text_16">
      <!-- 8 -->
      <defs>
       <path d="
M31.7812 34.625
Q24.75 34.625 20.7188 30.8594
Q16.7031 27.0938 16.7031 20.5156
Q16.7031 13.9219 20.7188 10.1562
Q24.75 6.39062 31.7812 6.39062
Q38.8125 6.39062 42.8594 10.1719
Q46.9219 13.9688 46.9219 20.5156
Q46.9219 27.0938 42.8906 30.8594
Q38.875 34.625 31.7812 34.625
M21.9219 38.8125
Q15.5781 40.375 12.0312 44.7188
Q8.5 49.0781 8.5 55.3281
Q8.5 64.0625 14.7188 69.1406
Q20.9531 74.2188 31.7812 74.2188
Q42.6719 74.2188 48.875 69.1406
Q55.0781 64.0625 55.0781 55.3281
Q55.0781 49.0781 51.5312 44.7188
Q48 40.375 41.7031 38.8125
Q48.8281 37.1562 52.7969 32.3125
Q56.7812 27.4844 56.7812 20.5156
Q56.7812 9.90625 50.3125 4.23438
Q43.8438 -1.42188 31.7812 -1.42188
Q19.7344 -1.42188 13.25 4.23438
Q6.78125 9.90625 6.78125 20.5156
Q6.78125 27.4844 10.7812 32.3125
Q14.7969 37.1562 21.9219 38.8125
M18.3125 54.3906
Q18.3125 48.7344 21.8438 45.5625
Q25.3906 42.3906 31.7812 42.3906
Q38.1406 42.3906 41.7188 45.5625
Q45.3125 48.7344 45.3125 54.3906
Q45.3125 60.0625 41.7188 63.2344
Q38.1406 66.4062 31.7812 66.4062
Q25.3906 66.4062 21.8438 63.2344
Q18.3125 60.0625 18.3125 54.3906" id="BitstreamVeraSans-Roman-38"/>
      </defs>
      <g transform="translate(22.190625 23.959375)scale(0.1 -0.1)">
       <use xlink:href="#BitstreamVeraSans-Roman-38"/>
      </g>
     </g>
    </g>
    <g id="text_17">
     <!-- max $\alpha_2$ -->
     <defs>
      <path d="
M54.8906 54.6875
L35.1094 28.0781
L55.9062 0
L45.3125 0
L29.3906 21.4844
L13.4844 0
L2.875 0
L24.125 28.6094
L4.6875 54.6875
L15.2812 54.6875
L29.7812 35.2031
L44.2812 54.6875
z
" id="BitstreamVeraSans-Roman-78"/>
      <path d="
M51.4062 12.9062
L52.9062 12.9062
Q52.9062 7 50.75 3
Q48.5938 -1 45 -1
Q39.4062 -1 37 10
Q34 4.59375 30.5 1.79688
Q27 -1 21.5938 -1
Q13.5 -1 8.20312 5.54688
Q2.90625 12.0938 2.90625 22.2969
Q2.90625 32.2031 8.25 39.0938
Q13.5938 46 22.5 46
Q28.5 46 32.4531 41.75
Q36.4062 37.5 37.9062 31.4062
L42.4062 45
L52.0938 45
L41.2031 18.7031
Q42.2031 14.0938 44.1406 9.64062
Q46.0938 5.20312 48.0938 5.20312
Q50.5 5.20312 51.4062 12.9062
M33.0938 20.7969
Q29.7969 43.2031 22 43.2031
Q17.7969 43.2031 14.8438 39.25
Q11.9062 35.2969 11.9062 27.2969
Q11.9062 23.9062 12.3438 20.0938
Q12.7969 16.2969 13.8438 11.8906
Q14.9062 7.5 17.1562 4.64062
Q19.4062 1.79688 22.5 1.79688
Q29.5 1.79688 33.0938 20.7969" id="STIXGeneral-Regular-3b1"/>
     </defs>
     <g transform="translate(13.678125 126.0)rotate(-90.0)scale(0.1 -0.1)">
      <use xlink:href="#BitstreamVeraSans-Roman-6d"/>
      <use transform="translate(97.412109375 0.0)" xlink:href="#BitstreamVeraSans-Roman-61"/>
      <use transform="translate(158.69140625 0.0)" xlink:href="#BitstreamVeraSans-Roman-78"/>
      <use transform="translate(217.87109375 0.0)" xlink:href="#BitstreamVeraSans-Roman-20"/>
      <use transform="translate(249.658203125 0.0)" xlink:href="#STIXGeneral-Regular-3b1"/>
      <use transform="translate(303.95819091796875 -31.5)scale(0.7)" xlink:href="#BitstreamVeraSans-Roman-32"/>
     </g>
    </g>
   </g>
   <g id="text_18">
    <!-- $\phi_0 = 0.55$ -->
    <defs>
     <path d="
M35.2969 68.2969
L35.2969 46
Q42.2969 46 46.0938 44.4062
Q52.5 41.7969 55.8906 36.0469
Q59.2969 30.2969 59.2969 23.0938
Q59.2969 18.5938 58 14.5
Q56.7031 10.4062 54.0469 6.79688
Q51.4062 3.20312 46.5469 1.09375
Q41.7031 -1 35.2969 -1
L35.2969 -21.7031
L26.9062 -21.7031
L26.9062 -1
L24.5 -1
Q14.7031 -1 8.79688 6.14062
Q2.90625 13.2969 2.90625 22.7969
Q2.90625 32.4062 8.79688 39.2031
Q14.7031 46 25.2031 46
L26.9062 46
L26.9062 68.2969
z

M35.2031 1.79688
L38.2969 1.79688
Q44.2969 1.79688 47.2969 7.04688
Q50.2969 12.2969 50.2969 20.4062
Q50.2969 29.9062 46.3438 36.5469
Q42.4062 43.2031 35.2031 43.2031
z

M27 1.79688
L27 43.2031
L24 43.2031
Q18.2031 43.2031 15.0469 39
Q11.9062 34.7969 11.9062 27.4062
Q11.9062 14.4062 17.2969 6.79688
Q20.7969 1.79688 27 1.79688" id="STIXGeneral-Regular-3d5"/>
     <path d="
M10.5938 45.4062
L73.1875 45.4062
L73.1875 37.2031
L10.5938 37.2031
z

M10.5938 25.4844
L73.1875 25.4844
L73.1875 17.1875
L10.5938 17.1875
z
" id="BitstreamVeraSans-Roman-3d"/>
     <path d="
M10.6875 12.4062
L21 12.4062
L21 0
L10.6875 0
z
" id="BitstreamVeraSans-Roman-2e"/>
    </defs>
    <g transform="translate(115.850625 16.2)scale(0.12 -0.12)">
     <use transform="translate(0.0 0.78125)" xlink:href="#STIXGeneral-Regular-3d5"/>
     <use transform="translate(62.29998779296875 -30.71875)scale(0.7)" xlink:href="#BitstreamVeraSans-Roman-30"/>
     <use transform="translate(145.40545654296875 0.78125)" xlink:href="#BitstreamVeraSans-Roman-3d"/>
     <use transform="translate(227.48162841796875 0.78125)" xlink:href="#BitstreamVeraSans-Roman-30"/>
     <use transform="translate(291.10467529296875 0.78125)" xlink:href="#BitstreamVeraSans-Roman-2e"/>
     <use transform="translate(320.88397216796875 0.78125)" xlink:href="#BitstreamVeraSans-Roman-35"/>
     <use transform="translate(384.50701904296875 0.78125)" xlink:href="#BitstreamVeraSans-Roman-35"/>
    </g>
   </g>
   <g id="legend_1">
    <g id="patch_7">
     <path d="
M35.3556 151.871
L87.914 151.871
L87.914 25.365
L35.3556 25.365
z
" style="fill:#ffffff;stroke:#000000;stroke-linejoin:miter;"/>
    </g>
    <g id="text_19">
     <!-- Final $\phi$ -->
     <defs>
      <path d="
M9.8125 72.9062
L51.7031 72.9062
L51.7031 64.5938
L19.6719 64.5938
L19.6719 43.1094
L48.5781 43.1094
L48.5781 34.8125
L19.6719 34.8125
L19.6719 0
L9.8125 0
z
" id="BitstreamVeraSans-Roman-46"/>
     </defs>
     <g transform="translate(45.0348226563 36.297)scale(0.1 -0.1)">
      <use transform="translate(0.0 0.015625)" xlink:href="#BitstreamVeraSans-Roman-46"/>
      <use transform="translate(57.51953125 0.015625)" xlink:href="#BitstreamVeraSans-Roman-69"/>
      <use transform="translate(85.302734375 0.015625)" xlink:href="#BitstreamVeraSans-Roman-6e"/>
      <use transform="translate(148.681640625 0.015625)" xlink:href="#BitstreamVeraSans-Roman-61"/>
      <use transform="translate(209.9609375 0.015625)" xlink:href="#BitstreamVeraSans-Roman-6c"/>
      <use transform="translate(237.744140625 0.015625)" xlink:href="#BitstreamVeraSans-Roman-20"/>
      <use transform="translate(269.53125 0.015625)" xlink:href="#STIXGeneral-Regular-3d5"/>
     </g>
    </g>
    <g id="line2d_128">
     <path d="
M41.1866 46.076
L52.8486 46.076" style="fill:none;stroke:#4daf4a;stroke-linecap:square;stroke-width:2.0;"/>
    </g>
    <g id="line2d_129"/>
    <g id="text_20">
     <!-- 0.55 -->
     <g transform="translate(62.011625 48.9914984375)scale(0.0833 -0.0833)">
      <use xlink:href="#BitstreamVeraSans-Roman-30"/>
      <use x="63.623046875" xlink:href="#BitstreamVeraSans-Roman-2e"/>
      <use x="95.41015625" xlink:href="#BitstreamVeraSans-Roman-35"/>
      <use x="159.033203125" xlink:href="#BitstreamVeraSans-Roman-35"/>
     </g>
    </g>
    <g id="line2d_130">
     <path d="
M41.1866 58.3029
L52.8486 58.3029" style="fill:none;stroke:#49a65f;stroke-linecap:square;stroke-width:2.0;"/>
    </g>
    <g id="line2d_131"/>
    <g id="text_21">
     <!-- 0.56 -->
     <g transform="translate(62.011625 61.2183765625)scale(0.0833 -0.0833)">
      <use xlink:href="#BitstreamVeraSans-Roman-30"/>
      <use x="63.623046875" xlink:href="#BitstreamVeraSans-Roman-2e"/>
      <use x="95.41015625" xlink:href="#BitstreamVeraSans-Roman-35"/>
      <use x="159.033203125" xlink:href="#BitstreamVeraSans-Roman-36"/>
     </g>
    </g>
    <g id="line2d_132">
     <path d="
M41.1866 70.5298
L52.8486 70.5298" style="fill:none;stroke:#459d73;stroke-linecap:square;stroke-width:2.0;"/>
    </g>
    <g id="line2d_133"/>
    <g id="text_22">
     <!-- 0.57 -->
     <g transform="translate(62.011625 73.4452546875)scale(0.0833 -0.0833)">
      <use xlink:href="#BitstreamVeraSans-Roman-30"/>
      <use x="63.623046875" xlink:href="#BitstreamVeraSans-Roman-2e"/>
      <use x="95.41015625" xlink:href="#BitstreamVeraSans-Roman-35"/>
      <use x="159.033203125" xlink:href="#BitstreamVeraSans-Roman-37"/>
     </g>
    </g>
    <g id="line2d_134">
     <path d="
M41.1866 82.7566
L52.8486 82.7566" style="fill:none;stroke:#419388;stroke-linecap:square;stroke-width:2.0;"/>
    </g>
    <g id="line2d_135"/>
    <g id="text_23">
     <!-- 0.575 -->
     <g transform="translate(62.011625 85.6721328125)scale(0.0833 -0.0833)">
      <use xlink:href="#BitstreamVeraSans-Roman-30"/>
      <use x="63.623046875" xlink:href="#BitstreamVeraSans-Roman-2e"/>
      <use x="95.41015625" xlink:href="#BitstreamVeraSans-Roman-35"/>
      <use x="159.033203125" xlink:href="#BitstreamVeraSans-Roman-37"/>
      <use x="222.65625" xlink:href="#BitstreamVeraSans-Roman-35"/>
     </g>
    </g>
    <g id="line2d_136">
     <path d="
M41.1866 94.9835
L52.8486 94.9835" style="fill:none;stroke:#3c8a9d;stroke-linecap:square;stroke-width:2.0;"/>
    </g>
    <g id="line2d_137"/>
    <g id="text_24">
     <!-- 0.58 -->
     <g transform="translate(62.011625 97.8990109375)scale(0.0833 -0.0833)">
      <use xlink:href="#BitstreamVeraSans-Roman-30"/>
      <use x="63.623046875" xlink:href="#BitstreamVeraSans-Roman-2e"/>
      <use x="95.41015625" xlink:href="#BitstreamVeraSans-Roman-35"/>
      <use x="159.033203125" xlink:href="#BitstreamVeraSans-Roman-38"/>
     </g>
    </g>
    <g id="line2d_138">
     <path d="
M41.1866 107.21
L52.8486 107.21" style="fill:none;stroke:#4577b5;stroke-linecap:square;stroke-width:2.0;"/>
    </g>
    <g id="line2d_139"/>
    <g id="text_25">
     <!-- 0.585 -->
     <g transform="translate(62.011625 110.125889062)scale(0.0833 -0.0833)">
      <use xlink:href="#BitstreamVeraSans-Roman-30"/>
      <use x="63.623046875" xlink:href="#BitstreamVeraSans-Roman-2e"/>
      <use x="95.41015625" xlink:href="#BitstreamVeraSans-Roman-35"/>
      <use x="159.033203125" xlink:href="#BitstreamVeraSans-Roman-38"/>
      <use x="222.65625" xlink:href="#BitstreamVeraSans-Roman-35"/>
     </g>
    </g>
    <g id="line2d_140">
     <path d="
M41.1866 119.437
L52.8486 119.437" style="fill:none;stroke:#a04995;stroke-linecap:square;stroke-width:2.0;"/>
    </g>
    <g id="line2d_141"/>
    <g id="text_26">
     <!-- 0.59 -->
     <defs>
      <path d="
M10.9844 1.51562
L10.9844 10.5
Q14.7031 8.73438 18.5 7.8125
Q22.3125 6.89062 25.9844 6.89062
Q35.75 6.89062 40.8906 13.4531
Q46.0469 20.0156 46.7812 33.4062
Q43.9531 29.2031 39.5938 26.9531
Q35.25 24.7031 29.9844 24.7031
Q19.0469 24.7031 12.6719 31.3125
Q6.29688 37.9375 6.29688 49.4219
Q6.29688 60.6406 12.9375 67.4219
Q19.5781 74.2188 30.6094 74.2188
Q43.2656 74.2188 49.9219 64.5156
Q56.5938 54.8281 56.5938 36.375
Q56.5938 19.1406 48.4062 8.85938
Q40.2344 -1.42188 26.4219 -1.42188
Q22.7031 -1.42188 18.8906 -0.6875
Q15.0938 0.046875 10.9844 1.51562
M30.6094 32.4219
Q37.25 32.4219 41.125 36.9531
Q45.0156 41.5 45.0156 49.4219
Q45.0156 57.2812 41.125 61.8438
Q37.25 66.4062 30.6094 66.4062
Q23.9688 66.4062 20.0938 61.8438
Q16.2188 57.2812 16.2188 49.4219
Q16.2188 41.5 20.0938 36.9531
Q23.9688 32.4219 30.6094 32.4219" id="BitstreamVeraSans-Roman-39"/>
     </defs>
     <g transform="translate(62.011625 122.352767187)scale(0.0833 -0.0833)">
      <use xlink:href="#BitstreamVeraSans-Roman-30"/>
      <use x="63.623046875" xlink:href="#BitstreamVeraSans-Roman-2e"/>
      <use x="95.41015625" xlink:href="#BitstreamVeraSans-Roman-35"/>
      <use x="159.033203125" xlink:href="#BitstreamVeraSans-Roman-39"/>
     </g>
    </g>
    <g id="line2d_142">
     <path d="
M41.1866 131.664
L52.8486 131.664" style="fill:none;stroke:#e6201a;stroke-linecap:square;stroke-width:2.0;"/>
    </g>
    <g id="line2d_143"/>
    <g id="text_27">
     <!-- 0.595 -->
     <g transform="translate(62.011625 134.579645312)scale(0.0833 -0.0833)">
      <use xlink:href="#BitstreamVeraSans-Roman-30"/>
      <use x="63.623046875" xlink:href="#BitstreamVeraSans-Roman-2e"/>
      <use x="95.41015625" xlink:href="#BitstreamVeraSans-Roman-35"/>
      <use x="159.033203125" xlink:href="#BitstreamVeraSans-Roman-39"/>
      <use x="222.65625" xlink:href="#BitstreamVeraSans-Roman-35"/>
     </g>
    </g>
    <g id="line2d_144">
     <path d="
M41.1866 143.891
L52.8486 143.891" style="fill:none;stroke:#ff7f00;stroke-linecap:square;stroke-width:2.0;"/>
    </g>
    <g id="line2d_145"/>
    <g id="text_28">
     <!-- 0.6 -->
     <g transform="translate(62.011625 146.806523437)scale(0.0833 -0.0833)">
      <use xlink:href="#BitstreamVeraSans-Roman-30"/>
      <use x="63.623046875" xlink:href="#BitstreamVeraSans-Roman-2e"/>
      <use x="95.41015625" xlink:href="#BitstreamVeraSans-Roman-36"/>
     </g>
    </g>
   </g>
  </g>
 </g>
 <defs>
  <clipPath id="p2b44c23dda">
   <rect height="172.8" width="223.2" x="31.190625" y="21.2"/>
  </clipPath>
 </defs>
</svg>
