<?xml version="1.0" encoding="utf-8" standalone="no"?>
<!DOCTYPE svg PUBLIC "-//W3C//DTD SVG 1.1//EN"
  "http://www.w3.org/Graphics/SVG/1.1/DTD/svg11.dtd">
<!-- Created with matplotlib (http://matplotlib.org/) -->
<svg height="230pt" version="1.1" viewBox="0 0 261 230" width="261pt" xmlns="http://www.w3.org/2000/svg" xmlns:xlink="http://www.w3.org/1999/xlink">
 <defs>
  <style type="text/css">
*{stroke-linecap:butt;stroke-linejoin:round;}
  </style>
 </defs>
 <g id="figure_1">
  <g id="patch_1">
   <path d="
M0 230.578
L261.591 230.578
L261.591 0
L0 0
z
" style="fill:#ffffff;"/>
  </g>
  <g id="axes_1">
   <g id="patch_2">
    <path d="
M31.1906 194
L254.391 194
L254.391 21.2
L31.1906 21.2
z
" style="fill:#ffffff;"/>
   </g>
   <g id="line2d_1">
    <path clip-path="url(#p2b44c23dda)" d="
M31.1906 158.192
L42.9805 158.845
L49.8771 159.003
L54.7703 158.809
L58.5658 158.707
L61.6669 158.334
L64.2889 158.25
L66.5601 158.253
L68.5635 157.567
L70.3556 157.44
L71.9767 158.036
L74.8182 158.776
L76.0787 159.351
L78.35 159.599
L80.3533 159.938
L82.9753 160.733
L85.2466 158.88
L87.2499 158.741
L89.042 158.153
L91.171 159.104
L93.0628 158.38
L95.1654 157.672
L97.3871 157.703
L99.3519 156.303
L101.39 157.268
L103.454 158.039
L105.511 158.229
L107.728 156.746
L109.69 157.182
L111.749 158.322
L113.852 159.328
L115.957 157.861
L118.038 159.616
L120.076 158.502
L122.14 159.216
L124.198 160.7
L126.288 159.59
L128.32 158.733
L130.386 157.949
L132.45 158.923
L134.527 161.191
L136.587 159.391
L138.671 160.067
L140.718 160.823
L142.788 160.749
L144.847 159.011
L146.931 157.77
L148.989 160.549
L151.063 161.092
L153.122 160.691
L155.192 160.064
L157.255 159.666
L159.323 156.341
L161.394 154.935
L163.456 158.929
L165.523 158.08
L167.592 161.187
L169.655 162.557
L171.725 161.017
L173.789 160.317
L175.859 157.481
L177.924 160.294
L179.992 160.207
L182.056 158.231
L184.123 155.016
L186.19 160.887
L188.257 157.76
L190.324 156.625
L192.39 157.203
L194.458 160.651
L196.524 156.476
L198.591 157.789
L200.657 161.063
L202.724 155.404
L204.791 154.908
L206.857 162.056
L208.924 157.5
L210.991 157.475
L213.057 154.811
L215.124 159.587
L217.191 159.241
L219.257 158.502
L221.324 161.123
L223.391 152.634
L225.457 163.177
L227.524 160.241
L229.591 159.138
L231.657 157.431
L233.724 156.792
L235.791 158.123
L237.857 161.924
L239.924 154.702
L241.991 154.906
L244.057 158.237
L246.124 155.155
L248.191 163.344
L250.257 154.874
L252.324 157.499
L254.391 158.432" style="fill:none;stroke:#4daf4a;stroke-linecap:square;stroke-width:2.0;"/>
   </g>
   <g id="line2d_2">
    <path clip-path="url(#p2b44c23dda)" d="
M31.1906 156.344
L42.9805 156.742
L49.8771 157.124
L54.7703 155.856
L58.5658 155.077
L61.6669 155.043
L64.2889 155.494
L66.5601 154.579
L68.5635 154.544
L70.3556 155.778
L71.9767 156.291
L74.8182 155.491
L76.0787 155.796
L78.35 157.396
L80.3533 157.098
L82.9753 155.999
L85.2466 155.99
L87.2499 156.857
L89.042 156.636
L91.171 156.208
L93.0628 156.249
L95.1654 155.143
L97.3871 154.858
L99.3519 154.709
L101.39 156.836
L103.454 155.686
L105.511 155.06
L107.728 155.818
L109.69 156.81
L111.749 155.17
L113.852 157.572
L115.957 156.952
L118.038 157.355
L120.076 153.2
L122.14 154.363
L124.198 154.751
L126.288 152.758
L128.32 154.815
L130.386 153.164
L132.45 153.376
L134.527 153.604
L136.587 154.592
L138.671 152.726
L140.718 151.843
L142.788 155.358
L144.847 152.769
L146.931 152.458
L148.989 150.591
L151.063 151.746
L153.122 146.986
L155.192 149.912
L157.255 146.535
L159.323 148.714
L161.394 149.182
L163.456 151.495
L165.523 152.165
L167.592 150.986
L169.655 151.172
L171.725 151.022
L173.789 147.194
L175.859 146.026
L177.924 150.111
L179.992 149.264
L182.056 147.17
L184.123 150.307
L186.19 150.201
L188.257 150.47
L190.324 149.041
L192.39 144.17
L194.458 142.126
L196.524 147.339
L198.591 140.782
L200.657 145.433
L202.724 148.691
L204.791 147.298
L206.857 147.984
L208.924 145.597
L210.991 148.506
L213.057 145.587
L215.124 147.985
L217.191 143.049
L219.257 140.377
L221.324 143.903
L223.391 145.72
L225.457 146.39
L227.524 143.8
L229.591 136.584
L231.657 139.544
L233.724 143.264
L235.791 148.823
L237.857 146.798
L239.924 143.452
L241.991 148.385
L244.057 145.9
L246.124 136.794
L248.191 144.763
L250.257 142.746
L252.324 142.361
L254.391 144.476" style="fill:none;stroke:#43987e;stroke-linecap:square;stroke-width:2.0;"/>
   </g>
   <g id="line2d_3">
    <path clip-path="url(#p2b44c23dda)" d="
M31.1906 154.254
L42.9805 154.22
L49.8771 154.124
L54.7703 154.074
L58.5658 154.099
L61.6669 153.226
L64.2889 153.2
L66.5601 152.951
L68.5635 152.434
L70.3556 151.543
L71.9767 152.338
L74.8182 150.595
L76.0787 151.709
L78.35 151.915
L80.3533 153.321
L82.9753 151.038
L85.2466 152.235
L87.2499 151.554
L89.042 151.809
L91.171 152.044
L93.0628 152.253
L95.1654 152.775
L97.3871 152.049
L99.3519 150.846
L101.39 151.033
L103.454 150.889
L105.511 150.16
L107.728 150.276
L109.69 148.976
L111.749 152.108
L113.852 148.274
L115.957 152.59
L118.038 153.096
L120.076 150.626
L122.14 149.373
L124.198 150.75
L126.288 149.267
L128.32 146.728
L130.386 149.226
L132.45 148.96
L134.527 146.513
L136.587 146.968
L138.671 147.293
L140.718 146.151
L142.788 144.547
L144.847 143.882
L146.931 145.642
L148.989 145.34
L151.063 142.032
L153.122 145.325
L155.192 146.342
L157.255 145.824
L159.323 144.602
L161.394 143.815
L163.456 145.802
L165.523 145.278
L167.592 140.716
L169.655 142.362
L171.725 146.615
L173.789 143.495
L175.859 146.288
L177.924 141.569
L179.992 138.877
L182.056 137.283
L184.123 133.723
L186.19 138.446
L188.257 138.409
L190.324 136.157
L192.39 140.102
L194.458 135.438
L196.524 131.918
L198.591 135.789
L200.657 125.216
L202.724 138.018
L204.791 132.632
L206.857 136.43
L208.924 125.341
L210.991 123.621
L213.057 131.247
L215.124 126.858
L217.191 129.622
L219.257 136.992
L221.324 133.501
L223.391 132.294
L225.457 131.824
L227.524 133.518
L229.591 136.061
L231.657 134.688
L233.724 125.643
L235.791 114.697
L237.857 133.516
L239.924 128.726
L241.991 130.67
L244.057 125.769
L246.124 125.837
L248.191 129.456
L250.257 122.041
L252.324 129.841
L254.391 120.423" style="fill:none;stroke:#765faa;stroke-linecap:square;stroke-width:2.0;"/>
   </g>
   <g id="line2d_4">
    <path clip-path="url(#p2b44c23dda)" d="
M31.1906 146.378
L42.9805 145.963
L49.8771 145.569
L54.7703 145.814
L58.5658 146.12
L61.6669 146.488
L64.2889 146.571
L66.5601 147.113
L68.5635 147.126
L70.3556 146.034
L71.9767 145.697
L74.8182 145.633
L76.0787 144.371
L78.35 143.268
L80.3533 143.241
L82.9753 144.508
L85.2466 143.638
L87.2499 142.911
L89.042 142.424
L91.171 143.208
L93.0628 142.762
L95.1654 144.191
L97.3871 142.718
L99.3519 142.574
L101.39 142.542
L103.454 143.245
L105.511 143.104
L107.728 144.399
L109.69 144.256
L111.749 145.199
L113.852 143.745
L115.957 144.381
L118.038 142.545
L120.076 141.223
L122.14 142.864
L124.198 142.39
L126.288 138.872
L128.32 140.011
L130.386 142.096
L132.45 140.325
L134.527 140.538
L136.587 139.795
L138.671 138.845
L140.718 136.949
L142.788 136.014
L144.847 135.874
L146.931 135.728
L148.989 130.465
L151.063 134.828
L153.122 134.769
L155.192 135.914
L157.255 129.518
L159.323 131.621
L161.394 127.368
L163.456 138.149
L165.523 128.454
L167.592 126.442
L169.655 133.771
L171.725 131.796
L173.789 130.989
L175.859 122.735
L177.924 119.113
L179.992 130.816
L182.056 127.681
L184.123 124.106
L186.19 133.569
L188.257 130.483
L190.324 126.216
L192.39 120.331
L194.458 123.581
L196.524 123.66
L198.591 121.969
L200.657 98.7816
L202.724 128.717
L204.791 124.671
L206.857 127.52
L208.924 129.162
L210.991 114.37
L213.057 123.674
L215.124 106.877
L217.191 118.081
L219.257 113.385
L221.324 114.746
L223.391 98.3796
L225.457 52.7869
L227.524 111.647
L229.591 30.9154
L231.657 113.599
L233.724 89.8699
L235.791 97.9496
L237.857 99.654
L239.924 112.913
L241.991 98.1889
L244.057 102.462
L246.124 100.336
L248.191 99.6332
L250.257 96.1019
L252.324 96.0527
L254.391 94.7374" style="fill:none;stroke:#d72334;stroke-linecap:square;stroke-width:2.0;"/>
   </g>
   <g id="line2d_5">
    <path clip-path="url(#p2b44c23dda)" d="
M31.1906 149.514
L42.9805 147.055
L49.8771 147.098
L54.7703 146.64
L58.5658 147.429
L61.6669 147.022
L64.2889 146.341
L66.5601 146.525
L68.5635 145.728
L70.3556 144.874
L71.9767 144.902
L74.8182 145.656
L76.0787 145.999
L78.35 144.351
L80.3533 144.732
L82.9753 144.486
L85.2466 144.327
L87.2499 145.238
L89.042 143.683
L91.171 144.19
L93.0628 143.801
L95.1654 142.833
L97.3871 140.188
L99.3519 141.568
L101.39 143.245
L103.454 141.007
L105.511 142.972
L107.728 140.907
L109.69 139.661
L111.749 137.743
L113.852 141.046
L115.957 139.843
L118.038 137.23
L120.076 139.406
L122.14 139.405
L124.198 133.71
L126.288 138.067
L128.32 135.48
L130.386 135.17
L132.45 138.081
L134.527 136.168
L136.587 137.829
L138.671 133.638
L140.718 134.476
L142.788 137.092
L144.847 127.585
L146.931 126.729
L148.989 128.282
L151.063 129.216
L153.122 126.78
L155.192 124.075
L157.255 126.635
L159.323 123.064
L161.394 119.747
L163.456 120.404
L165.523 126.266
L167.592 123.867
L169.655 123.831
L171.725 125.243
L173.789 124.252
L175.859 119.497
L177.924 116.025
L179.992 116.338
L182.056 107.85
L184.123 119.854
L186.19 105.251
L188.257 105.816
L190.324 119.43
L192.39 119.906
L194.458 107.453
L196.524 108.061
L198.591 107.661
L200.657 113.719
L202.724 110.855
L204.791 104.247
L206.857 112.086
L208.924 89.1644
L210.991 101.453
L213.057 109.33
L215.124 97.5286
L217.191 88.5962
L219.257 73.2298
L221.324 105.146
L223.391 108.024
L225.457 99.8788
L227.524 92.3832
L229.591 87.7836
L231.657 86.4348
L233.724 75.4205
L235.791 94.88
L237.857 93.3757
L239.097 -1
M240.74 -1
L241.991 95.5961
L244.057 85.3359
L246.124 82.8291
L248.191 55.9074
L250.257 82.6877
L252.324 84.5319
L254.391 83.9436" style="fill:none;stroke:#ff7f00;stroke-linecap:square;stroke-width:2.0;"/>
   </g>
   <g id="patch_3">
    <path d="
M254.391 194
L254.391 21.2" style="fill:none;stroke:#000000;stroke-linecap:square;stroke-linejoin:miter;"/>
   </g>
   <g id="patch_4">
    <path d="
M31.1906 194
L31.1906 21.2" style="fill:none;stroke:#000000;stroke-linecap:square;stroke-linejoin:miter;"/>
   </g>
   <g id="patch_5">
    <path d="
M31.1906 21.2
L254.391 21.2" style="fill:none;stroke:#000000;stroke-linecap:square;stroke-linejoin:miter;"/>
   </g>
   <g id="patch_6">
    <path d="
M31.1906 194
L254.391 194" style="fill:none;stroke:#000000;stroke-linecap:square;stroke-linejoin:miter;"/>
   </g>
   <g id="matplotlib.axis_1">
    <g id="xtick_1">
     <g id="line2d_6">
      <defs>
       <path d="
M0 0
L0 -4" id="mc7db9fdffb" style="stroke:#000000;stroke-width:0.5;"/>
      </defs>
      <g>
       <use style="stroke:#000000;stroke-width:0.5;" x="31.190625" xlink:href="#mc7db9fdffb" y="194.0"/>
      </g>
     </g>
     <g id="line2d_7">
      <defs>
       <path d="
M0 0
L0 4" id="m5a7d422ac3" style="stroke:#000000;stroke-width:0.5;"/>
      </defs>
      <g>
       <use style="stroke:#000000;stroke-width:0.5;" x="31.190625" xlink:href="#m5a7d422ac3" y="21.2"/>
      </g>
     </g>
     <g id="text_1">
      <!-- $\mathdefault{10^{-1}}$ -->
      <defs>
       <path d="
M12.4062 8.29688
L28.5156 8.29688
L28.5156 63.9219
L10.9844 60.4062
L10.9844 69.3906
L28.4219 72.9062
L38.2812 72.9062
L38.2812 8.29688
L54.3906 8.29688
L54.3906 0
L12.4062 0
z
" id="BitstreamVeraSans-Roman-31"/>
       <path d="
M31.7812 66.4062
Q24.1719 66.4062 20.3281 58.9062
Q16.5 51.4219 16.5 36.375
Q16.5 21.3906 20.3281 13.8906
Q24.1719 6.39062 31.7812 6.39062
Q39.4531 6.39062 43.2812 13.8906
Q47.125 21.3906 47.125 36.375
Q47.125 51.4219 43.2812 58.9062
Q39.4531 66.4062 31.7812 66.4062
M31.7812 74.2188
Q44.0469 74.2188 50.5156 64.5156
Q56.9844 54.8281 56.9844 36.375
Q56.9844 17.9688 50.5156 8.26562
Q44.0469 -1.42188 31.7812 -1.42188
Q19.5312 -1.42188 13.0625 8.26562
Q6.59375 17.9688 6.59375 36.375
Q6.59375 54.8281 13.0625 64.5156
Q19.5312 74.2188 31.7812 74.2188" id="BitstreamVeraSans-Roman-30"/>
       <path d="
M4.89062 31.3906
L31.2031 31.3906
L31.2031 23.3906
L4.89062 23.3906
z
" id="BitstreamVeraSans-Roman-2d"/>
      </defs>
      <g transform="translate(20.240625 206.5203125)scale(0.1 -0.1)">
       <use transform="translate(0.0 0.46562500000000284)" xlink:href="#BitstreamVeraSans-Roman-31"/>
       <use transform="translate(63.623046875 0.46562500000000284)" xlink:href="#BitstreamVeraSans-Roman-30"/>
       <use transform="translate(127.24609375 52.965625)scale(0.7)" xlink:href="#BitstreamVeraSans-Roman-2d"/>
       <use transform="translate(152.5048828125 52.965625)scale(0.7)" xlink:href="#BitstreamVeraSans-Roman-31"/>
      </g>
     </g>
    </g>
    <g id="xtick_2">
     <g id="line2d_8">
      <g>
       <use style="stroke:#000000;stroke-width:0.5;" x="70.3555968862" xlink:href="#mc7db9fdffb" y="194.0"/>
      </g>
     </g>
     <g id="line2d_9">
      <g>
       <use style="stroke:#000000;stroke-width:0.5;" x="70.3555968862" xlink:href="#m5a7d422ac3" y="21.2"/>
      </g>
     </g>
     <g id="text_2">
      <!-- $\mathdefault{10^{0}}$ -->
      <g transform="translate(60.7055968862 206.6203125)scale(0.1 -0.1)">
       <use transform="translate(0.0 0.546875)" xlink:href="#BitstreamVeraSans-Roman-31"/>
       <use transform="translate(63.623046875 0.546875)" xlink:href="#BitstreamVeraSans-Roman-30"/>
       <use transform="translate(127.24609375 53.046875)scale(0.7)" xlink:href="#BitstreamVeraSans-Roman-30"/>
      </g>
     </g>
    </g>
    <g id="xtick_3">
     <g id="line2d_10">
      <g>
       <use style="stroke:#000000;stroke-width:0.5;" x="109.520568772" xlink:href="#mc7db9fdffb" y="194.0"/>
      </g>
     </g>
     <g id="line2d_11">
      <g>
       <use style="stroke:#000000;stroke-width:0.5;" x="109.520568772" xlink:href="#m5a7d422ac3" y="21.2"/>
      </g>
     </g>
     <g id="text_3">
      <!-- $\mathdefault{10^{1}}$ -->
      <g transform="translate(99.8705687724 206.5203125)scale(0.1 -0.1)">
       <use transform="translate(0.0 0.46562500000000284)" xlink:href="#BitstreamVeraSans-Roman-31"/>
       <use transform="translate(63.623046875 0.46562500000000284)" xlink:href="#BitstreamVeraSans-Roman-30"/>
       <use transform="translate(127.24609375 52.965625)scale(0.7)" xlink:href="#BitstreamVeraSans-Roman-31"/>
      </g>
     </g>
    </g>
    <g id="xtick_4">
     <g id="line2d_12">
      <g>
       <use style="stroke:#000000;stroke-width:0.5;" x="148.685540659" xlink:href="#mc7db9fdffb" y="194.0"/>
      </g>
     </g>
     <g id="line2d_13">
      <g>
       <use style="stroke:#000000;stroke-width:0.5;" x="148.685540659" xlink:href="#m5a7d422ac3" y="21.2"/>
      </g>
     </g>
     <g id="text_4">
      <!-- $\mathdefault{10^{2}}$ -->
      <defs>
       <path d="
M19.1875 8.29688
L53.6094 8.29688
L53.6094 0
L7.32812 0
L7.32812 8.29688
Q12.9375 14.1094 22.625 23.8906
Q32.3281 33.6875 34.8125 36.5312
Q39.5469 41.8438 41.4219 45.5312
Q43.3125 49.2188 43.3125 52.7812
Q43.3125 58.5938 39.2344 62.25
Q35.1562 65.9219 28.6094 65.9219
Q23.9688 65.9219 18.8125 64.3125
Q13.6719 62.7031 7.8125 59.4219
L7.8125 69.3906
Q13.7656 71.7812 18.9375 73
Q24.125 74.2188 28.4219 74.2188
Q39.75 74.2188 46.4844 68.5469
Q53.2188 62.8906 53.2188 53.4219
Q53.2188 48.9219 51.5312 44.8906
Q49.8594 40.875 45.4062 35.4062
Q44.1875 33.9844 37.6406 27.2188
Q31.1094 20.4531 19.1875 8.29688" id="BitstreamVeraSans-Roman-32"/>
      </defs>
      <g transform="translate(139.035540659 206.6203125)scale(0.1 -0.1)">
       <use transform="translate(0.0 0.546875)" xlink:href="#BitstreamVeraSans-Roman-31"/>
       <use transform="translate(63.623046875 0.546875)" xlink:href="#BitstreamVeraSans-Roman-30"/>
       <use transform="translate(127.24609375 53.046875)scale(0.7)" xlink:href="#BitstreamVeraSans-Roman-32"/>
      </g>
     </g>
    </g>
    <g id="xtick_5">
     <g id="line2d_14">
      <g>
       <use style="stroke:#000000;stroke-width:0.5;" x="187.850512545" xlink:href="#mc7db9fdffb" y="194.0"/>
      </g>
     </g>
     <g id="line2d_15">
      <g>
       <use style="stroke:#000000;stroke-width:0.5;" x="187.850512545" xlink:href="#m5a7d422ac3" y="21.2"/>
      </g>
     </g>
     <g id="text_5">
      <!-- $\mathdefault{10^{3}}$ -->
      <defs>
       <path d="
M40.5781 39.3125
Q47.6562 37.7969 51.625 33
Q55.6094 28.2188 55.6094 21.1875
Q55.6094 10.4062 48.1875 4.48438
Q40.7656 -1.42188 27.0938 -1.42188
Q22.5156 -1.42188 17.6562 -0.515625
Q12.7969 0.390625 7.625 2.20312
L7.625 11.7188
Q11.7188 9.32812 16.5938 8.10938
Q21.4844 6.89062 26.8125 6.89062
Q36.0781 6.89062 40.9375 10.5469
Q45.7969 14.2031 45.7969 21.1875
Q45.7969 27.6406 41.2812 31.2656
Q36.7656 34.9062 28.7188 34.9062
L20.2188 34.9062
L20.2188 43.0156
L29.1094 43.0156
Q36.375 43.0156 40.2344 45.9219
Q44.0938 48.8281 44.0938 54.2969
Q44.0938 59.9062 40.1094 62.9062
Q36.1406 65.9219 28.7188 65.9219
Q24.6562 65.9219 20.0156 65.0312
Q15.375 64.1562 9.8125 62.3125
L9.8125 71.0938
Q15.4375 72.6562 20.3438 73.4375
Q25.25 74.2188 29.5938 74.2188
Q40.8281 74.2188 47.3594 69.1094
Q53.9062 64.0156 53.9062 55.3281
Q53.9062 49.2656 50.4375 45.0938
Q46.9688 40.9219 40.5781 39.3125" id="BitstreamVeraSans-Roman-33"/>
      </defs>
      <g transform="translate(178.200512545 206.6203125)scale(0.1 -0.1)">
       <use transform="translate(0.0 0.546875)" xlink:href="#BitstreamVeraSans-Roman-31"/>
       <use transform="translate(63.623046875 0.546875)" xlink:href="#BitstreamVeraSans-Roman-30"/>
       <use transform="translate(127.24609375 53.046875)scale(0.7)" xlink:href="#BitstreamVeraSans-Roman-33"/>
      </g>
     </g>
    </g>
    <g id="xtick_6">
     <g id="line2d_16">
      <g>
       <use style="stroke:#000000;stroke-width:0.5;" x="227.015484431" xlink:href="#mc7db9fdffb" y="194.0"/>
      </g>
     </g>
     <g id="line2d_17">
      <g>
       <use style="stroke:#000000;stroke-width:0.5;" x="227.015484431" xlink:href="#m5a7d422ac3" y="21.2"/>
      </g>
     </g>
     <g id="text_6">
      <!-- $\mathdefault{10^{4}}$ -->
      <defs>
       <path d="
M37.7969 64.3125
L12.8906 25.3906
L37.7969 25.3906
z

M35.2031 72.9062
L47.6094 72.9062
L47.6094 25.3906
L58.0156 25.3906
L58.0156 17.1875
L47.6094 17.1875
L47.6094 0
L37.7969 0
L37.7969 17.1875
L4.89062 17.1875
L4.89062 26.7031
z
" id="BitstreamVeraSans-Roman-34"/>
      </defs>
      <g transform="translate(217.365484431 206.5203125)scale(0.1 -0.1)">
       <use transform="translate(0.0 0.46562500000000284)" xlink:href="#BitstreamVeraSans-Roman-31"/>
       <use transform="translate(63.623046875 0.46562500000000284)" xlink:href="#BitstreamVeraSans-Roman-30"/>
       <use transform="translate(127.24609375 52.965625)scale(0.7)" xlink:href="#BitstreamVeraSans-Roman-34"/>
      </g>
     </g>
    </g>
    <g id="xtick_7">
     <g id="line2d_18">
      <defs>
       <path d="
M0 0
L0 -2" id="mc21db286a6" style="stroke:#000000;stroke-width:0.5;"/>
      </defs>
      <g>
       <use style="stroke:#000000;stroke-width:0.5;" x="42.9804563171" xlink:href="#mc21db286a6" y="194.0"/>
      </g>
     </g>
     <g id="line2d_19">
      <defs>
       <path d="
M0 0
L0 2" id="ma9c915e141" style="stroke:#000000;stroke-width:0.5;"/>
      </defs>
      <g>
       <use style="stroke:#000000;stroke-width:0.5;" x="42.9804563171" xlink:href="#ma9c915e141" y="21.2"/>
      </g>
     </g>
    </g>
    <g id="xtick_8">
     <g id="line2d_20">
      <g>
       <use style="stroke:#000000;stroke-width:0.5;" x="49.8770655274" xlink:href="#mc21db286a6" y="194.0"/>
      </g>
     </g>
     <g id="line2d_21">
      <g>
       <use style="stroke:#000000;stroke-width:0.5;" x="49.8770655274" xlink:href="#ma9c915e141" y="21.2"/>
      </g>
     </g>
    </g>
    <g id="xtick_9">
     <g id="line2d_22">
      <g>
       <use style="stroke:#000000;stroke-width:0.5;" x="54.7702876342" xlink:href="#mc21db286a6" y="194.0"/>
      </g>
     </g>
     <g id="line2d_23">
      <g>
       <use style="stroke:#000000;stroke-width:0.5;" x="54.7702876342" xlink:href="#ma9c915e141" y="21.2"/>
      </g>
     </g>
    </g>
    <g id="xtick_10">
     <g id="line2d_24">
      <g>
       <use style="stroke:#000000;stroke-width:0.5;" x="58.5657655691" xlink:href="#mc21db286a6" y="194.0"/>
      </g>
     </g>
     <g id="line2d_25">
      <g>
       <use style="stroke:#000000;stroke-width:0.5;" x="58.5657655691" xlink:href="#ma9c915e141" y="21.2"/>
      </g>
     </g>
    </g>
    <g id="xtick_11">
     <g id="line2d_26">
      <g>
       <use style="stroke:#000000;stroke-width:0.5;" x="61.6668968445" xlink:href="#mc21db286a6" y="194.0"/>
      </g>
     </g>
     <g id="line2d_27">
      <g>
       <use style="stroke:#000000;stroke-width:0.5;" x="61.6668968445" xlink:href="#ma9c915e141" y="21.2"/>
      </g>
     </g>
    </g>
    <g id="xtick_12">
     <g id="line2d_28">
      <g>
       <use style="stroke:#000000;stroke-width:0.5;" x="64.2888659782" xlink:href="#mc21db286a6" y="194.0"/>
      </g>
     </g>
     <g id="line2d_29">
      <g>
       <use style="stroke:#000000;stroke-width:0.5;" x="64.2888659782" xlink:href="#ma9c915e141" y="21.2"/>
      </g>
     </g>
    </g>
    <g id="xtick_13">
     <g id="line2d_30">
      <g>
       <use style="stroke:#000000;stroke-width:0.5;" x="66.5601189512" xlink:href="#mc21db286a6" y="194.0"/>
      </g>
     </g>
     <g id="line2d_31">
      <g>
       <use style="stroke:#000000;stroke-width:0.5;" x="66.5601189512" xlink:href="#ma9c915e141" y="21.2"/>
      </g>
     </g>
    </g>
    <g id="xtick_14">
     <g id="line2d_32">
      <g>
       <use style="stroke:#000000;stroke-width:0.5;" x="68.5635060548" xlink:href="#mc21db286a6" y="194.0"/>
      </g>
     </g>
     <g id="line2d_33">
      <g>
       <use style="stroke:#000000;stroke-width:0.5;" x="68.5635060548" xlink:href="#ma9c915e141" y="21.2"/>
      </g>
     </g>
    </g>
    <g id="xtick_15">
     <g id="line2d_34">
      <g>
       <use style="stroke:#000000;stroke-width:0.5;" x="82.1454282033" xlink:href="#mc21db286a6" y="194.0"/>
      </g>
     </g>
     <g id="line2d_35">
      <g>
       <use style="stroke:#000000;stroke-width:0.5;" x="82.1454282033" xlink:href="#ma9c915e141" y="21.2"/>
      </g>
     </g>
    </g>
    <g id="xtick_16">
     <g id="line2d_36">
      <g>
       <use style="stroke:#000000;stroke-width:0.5;" x="89.0420374136" xlink:href="#mc21db286a6" y="194.0"/>
      </g>
     </g>
     <g id="line2d_37">
      <g>
       <use style="stroke:#000000;stroke-width:0.5;" x="89.0420374136" xlink:href="#ma9c915e141" y="21.2"/>
      </g>
     </g>
    </g>
    <g id="xtick_17">
     <g id="line2d_38">
      <g>
       <use style="stroke:#000000;stroke-width:0.5;" x="93.9352595203" xlink:href="#mc21db286a6" y="194.0"/>
      </g>
     </g>
     <g id="line2d_39">
      <g>
       <use style="stroke:#000000;stroke-width:0.5;" x="93.9352595203" xlink:href="#ma9c915e141" y="21.2"/>
      </g>
     </g>
    </g>
    <g id="xtick_18">
     <g id="line2d_40">
      <g>
       <use style="stroke:#000000;stroke-width:0.5;" x="97.7307374553" xlink:href="#mc21db286a6" y="194.0"/>
      </g>
     </g>
     <g id="line2d_41">
      <g>
       <use style="stroke:#000000;stroke-width:0.5;" x="97.7307374553" xlink:href="#ma9c915e141" y="21.2"/>
      </g>
     </g>
    </g>
    <g id="xtick_19">
     <g id="line2d_42">
      <g>
       <use style="stroke:#000000;stroke-width:0.5;" x="100.831868731" xlink:href="#mc21db286a6" y="194.0"/>
      </g>
     </g>
     <g id="line2d_43">
      <g>
       <use style="stroke:#000000;stroke-width:0.5;" x="100.831868731" xlink:href="#ma9c915e141" y="21.2"/>
      </g>
     </g>
    </g>
    <g id="xtick_20">
     <g id="line2d_44">
      <g>
       <use style="stroke:#000000;stroke-width:0.5;" x="103.453837864" xlink:href="#mc21db286a6" y="194.0"/>
      </g>
     </g>
     <g id="line2d_45">
      <g>
       <use style="stroke:#000000;stroke-width:0.5;" x="103.453837864" xlink:href="#ma9c915e141" y="21.2"/>
      </g>
     </g>
    </g>
    <g id="xtick_21">
     <g id="line2d_46">
      <g>
       <use style="stroke:#000000;stroke-width:0.5;" x="105.725090837" xlink:href="#mc21db286a6" y="194.0"/>
      </g>
     </g>
     <g id="line2d_47">
      <g>
       <use style="stroke:#000000;stroke-width:0.5;" x="105.725090837" xlink:href="#ma9c915e141" y="21.2"/>
      </g>
     </g>
    </g>
    <g id="xtick_22">
     <g id="line2d_48">
      <g>
       <use style="stroke:#000000;stroke-width:0.5;" x="107.728477941" xlink:href="#mc21db286a6" y="194.0"/>
      </g>
     </g>
     <g id="line2d_49">
      <g>
       <use style="stroke:#000000;stroke-width:0.5;" x="107.728477941" xlink:href="#ma9c915e141" y="21.2"/>
      </g>
     </g>
    </g>
    <g id="xtick_23">
     <g id="line2d_50">
      <g>
       <use style="stroke:#000000;stroke-width:0.5;" x="121.310400089" xlink:href="#mc21db286a6" y="194.0"/>
      </g>
     </g>
     <g id="line2d_51">
      <g>
       <use style="stroke:#000000;stroke-width:0.5;" x="121.310400089" xlink:href="#ma9c915e141" y="21.2"/>
      </g>
     </g>
    </g>
    <g id="xtick_24">
     <g id="line2d_52">
      <g>
       <use style="stroke:#000000;stroke-width:0.5;" x="128.2070093" xlink:href="#mc21db286a6" y="194.0"/>
      </g>
     </g>
     <g id="line2d_53">
      <g>
       <use style="stroke:#000000;stroke-width:0.5;" x="128.2070093" xlink:href="#ma9c915e141" y="21.2"/>
      </g>
     </g>
    </g>
    <g id="xtick_25">
     <g id="line2d_54">
      <g>
       <use style="stroke:#000000;stroke-width:0.5;" x="133.100231407" xlink:href="#mc21db286a6" y="194.0"/>
      </g>
     </g>
     <g id="line2d_55">
      <g>
       <use style="stroke:#000000;stroke-width:0.5;" x="133.100231407" xlink:href="#ma9c915e141" y="21.2"/>
      </g>
     </g>
    </g>
    <g id="xtick_26">
     <g id="line2d_56">
      <g>
       <use style="stroke:#000000;stroke-width:0.5;" x="136.895709341" xlink:href="#mc21db286a6" y="194.0"/>
      </g>
     </g>
     <g id="line2d_57">
      <g>
       <use style="stroke:#000000;stroke-width:0.5;" x="136.895709341" xlink:href="#ma9c915e141" y="21.2"/>
      </g>
     </g>
    </g>
    <g id="xtick_27">
     <g id="line2d_58">
      <g>
       <use style="stroke:#000000;stroke-width:0.5;" x="139.996840617" xlink:href="#mc21db286a6" y="194.0"/>
      </g>
     </g>
     <g id="line2d_59">
      <g>
       <use style="stroke:#000000;stroke-width:0.5;" x="139.996840617" xlink:href="#ma9c915e141" y="21.2"/>
      </g>
     </g>
    </g>
    <g id="xtick_28">
     <g id="line2d_60">
      <g>
       <use style="stroke:#000000;stroke-width:0.5;" x="142.618809751" xlink:href="#mc21db286a6" y="194.0"/>
      </g>
     </g>
     <g id="line2d_61">
      <g>
       <use style="stroke:#000000;stroke-width:0.5;" x="142.618809751" xlink:href="#ma9c915e141" y="21.2"/>
      </g>
     </g>
    </g>
    <g id="xtick_29">
     <g id="line2d_62">
      <g>
       <use style="stroke:#000000;stroke-width:0.5;" x="144.890062724" xlink:href="#mc21db286a6" y="194.0"/>
      </g>
     </g>
     <g id="line2d_63">
      <g>
       <use style="stroke:#000000;stroke-width:0.5;" x="144.890062724" xlink:href="#ma9c915e141" y="21.2"/>
      </g>
     </g>
    </g>
    <g id="xtick_30">
     <g id="line2d_64">
      <g>
       <use style="stroke:#000000;stroke-width:0.5;" x="146.893449827" xlink:href="#mc21db286a6" y="194.0"/>
      </g>
     </g>
     <g id="line2d_65">
      <g>
       <use style="stroke:#000000;stroke-width:0.5;" x="146.893449827" xlink:href="#ma9c915e141" y="21.2"/>
      </g>
     </g>
    </g>
    <g id="xtick_31">
     <g id="line2d_66">
      <g>
       <use style="stroke:#000000;stroke-width:0.5;" x="160.475371976" xlink:href="#mc21db286a6" y="194.0"/>
      </g>
     </g>
     <g id="line2d_67">
      <g>
       <use style="stroke:#000000;stroke-width:0.5;" x="160.475371976" xlink:href="#ma9c915e141" y="21.2"/>
      </g>
     </g>
    </g>
    <g id="xtick_32">
     <g id="line2d_68">
      <g>
       <use style="stroke:#000000;stroke-width:0.5;" x="167.371981186" xlink:href="#mc21db286a6" y="194.0"/>
      </g>
     </g>
     <g id="line2d_69">
      <g>
       <use style="stroke:#000000;stroke-width:0.5;" x="167.371981186" xlink:href="#ma9c915e141" y="21.2"/>
      </g>
     </g>
    </g>
    <g id="xtick_33">
     <g id="line2d_70">
      <g>
       <use style="stroke:#000000;stroke-width:0.5;" x="172.265203293" xlink:href="#mc21db286a6" y="194.0"/>
      </g>
     </g>
     <g id="line2d_71">
      <g>
       <use style="stroke:#000000;stroke-width:0.5;" x="172.265203293" xlink:href="#ma9c915e141" y="21.2"/>
      </g>
     </g>
    </g>
    <g id="xtick_34">
     <g id="line2d_72">
      <g>
       <use style="stroke:#000000;stroke-width:0.5;" x="176.060681228" xlink:href="#mc21db286a6" y="194.0"/>
      </g>
     </g>
     <g id="line2d_73">
      <g>
       <use style="stroke:#000000;stroke-width:0.5;" x="176.060681228" xlink:href="#ma9c915e141" y="21.2"/>
      </g>
     </g>
    </g>
    <g id="xtick_35">
     <g id="line2d_74">
      <g>
       <use style="stroke:#000000;stroke-width:0.5;" x="179.161812503" xlink:href="#mc21db286a6" y="194.0"/>
      </g>
     </g>
     <g id="line2d_75">
      <g>
       <use style="stroke:#000000;stroke-width:0.5;" x="179.161812503" xlink:href="#ma9c915e141" y="21.2"/>
      </g>
     </g>
    </g>
    <g id="xtick_36">
     <g id="line2d_76">
      <g>
       <use style="stroke:#000000;stroke-width:0.5;" x="181.783781637" xlink:href="#mc21db286a6" y="194.0"/>
      </g>
     </g>
     <g id="line2d_77">
      <g>
       <use style="stroke:#000000;stroke-width:0.5;" x="181.783781637" xlink:href="#ma9c915e141" y="21.2"/>
      </g>
     </g>
    </g>
    <g id="xtick_37">
     <g id="line2d_78">
      <g>
       <use style="stroke:#000000;stroke-width:0.5;" x="184.05503461" xlink:href="#mc21db286a6" y="194.0"/>
      </g>
     </g>
     <g id="line2d_79">
      <g>
       <use style="stroke:#000000;stroke-width:0.5;" x="184.05503461" xlink:href="#ma9c915e141" y="21.2"/>
      </g>
     </g>
    </g>
    <g id="xtick_38">
     <g id="line2d_80">
      <g>
       <use style="stroke:#000000;stroke-width:0.5;" x="186.058421713" xlink:href="#mc21db286a6" y="194.0"/>
      </g>
     </g>
     <g id="line2d_81">
      <g>
       <use style="stroke:#000000;stroke-width:0.5;" x="186.058421713" xlink:href="#ma9c915e141" y="21.2"/>
      </g>
     </g>
    </g>
    <g id="xtick_39">
     <g id="line2d_82">
      <g>
       <use style="stroke:#000000;stroke-width:0.5;" x="199.640343862" xlink:href="#mc21db286a6" y="194.0"/>
      </g>
     </g>
     <g id="line2d_83">
      <g>
       <use style="stroke:#000000;stroke-width:0.5;" x="199.640343862" xlink:href="#ma9c915e141" y="21.2"/>
      </g>
     </g>
    </g>
    <g id="xtick_40">
     <g id="line2d_84">
      <g>
       <use style="stroke:#000000;stroke-width:0.5;" x="206.536953072" xlink:href="#mc21db286a6" y="194.0"/>
      </g>
     </g>
     <g id="line2d_85">
      <g>
       <use style="stroke:#000000;stroke-width:0.5;" x="206.536953072" xlink:href="#ma9c915e141" y="21.2"/>
      </g>
     </g>
    </g>
    <g id="xtick_41">
     <g id="line2d_86">
      <g>
       <use style="stroke:#000000;stroke-width:0.5;" x="211.430175179" xlink:href="#mc21db286a6" y="194.0"/>
      </g>
     </g>
     <g id="line2d_87">
      <g>
       <use style="stroke:#000000;stroke-width:0.5;" x="211.430175179" xlink:href="#ma9c915e141" y="21.2"/>
      </g>
     </g>
    </g>
    <g id="xtick_42">
     <g id="line2d_88">
      <g>
       <use style="stroke:#000000;stroke-width:0.5;" x="215.225653114" xlink:href="#mc21db286a6" y="194.0"/>
      </g>
     </g>
     <g id="line2d_89">
      <g>
       <use style="stroke:#000000;stroke-width:0.5;" x="215.225653114" xlink:href="#ma9c915e141" y="21.2"/>
      </g>
     </g>
    </g>
    <g id="xtick_43">
     <g id="line2d_90">
      <g>
       <use style="stroke:#000000;stroke-width:0.5;" x="218.326784389" xlink:href="#mc21db286a6" y="194.0"/>
      </g>
     </g>
     <g id="line2d_91">
      <g>
       <use style="stroke:#000000;stroke-width:0.5;" x="218.326784389" xlink:href="#ma9c915e141" y="21.2"/>
      </g>
     </g>
    </g>
    <g id="xtick_44">
     <g id="line2d_92">
      <g>
       <use style="stroke:#000000;stroke-width:0.5;" x="220.948753523" xlink:href="#mc21db286a6" y="194.0"/>
      </g>
     </g>
     <g id="line2d_93">
      <g>
       <use style="stroke:#000000;stroke-width:0.5;" x="220.948753523" xlink:href="#ma9c915e141" y="21.2"/>
      </g>
     </g>
    </g>
    <g id="xtick_45">
     <g id="line2d_94">
      <g>
       <use style="stroke:#000000;stroke-width:0.5;" x="223.220006496" xlink:href="#mc21db286a6" y="194.0"/>
      </g>
     </g>
     <g id="line2d_95">
      <g>
       <use style="stroke:#000000;stroke-width:0.5;" x="223.220006496" xlink:href="#ma9c915e141" y="21.2"/>
      </g>
     </g>
    </g>
    <g id="xtick_46">
     <g id="line2d_96">
      <g>
       <use style="stroke:#000000;stroke-width:0.5;" x="225.2233936" xlink:href="#mc21db286a6" y="194.0"/>
      </g>
     </g>
     <g id="line2d_97">
      <g>
       <use style="stroke:#000000;stroke-width:0.5;" x="225.2233936" xlink:href="#ma9c915e141" y="21.2"/>
      </g>
     </g>
    </g>
    <g id="xtick_47">
     <g id="line2d_98">
      <g>
       <use style="stroke:#000000;stroke-width:0.5;" x="238.805315748" xlink:href="#mc21db286a6" y="194.0"/>
      </g>
     </g>
     <g id="line2d_99">
      <g>
       <use style="stroke:#000000;stroke-width:0.5;" x="238.805315748" xlink:href="#ma9c915e141" y="21.2"/>
      </g>
     </g>
    </g>
    <g id="xtick_48">
     <g id="line2d_100">
      <g>
       <use style="stroke:#000000;stroke-width:0.5;" x="245.701924958" xlink:href="#mc21db286a6" y="194.0"/>
      </g>
     </g>
     <g id="line2d_101">
      <g>
       <use style="stroke:#000000;stroke-width:0.5;" x="245.701924958" xlink:href="#ma9c915e141" y="21.2"/>
      </g>
     </g>
    </g>
    <g id="xtick_49">
     <g id="line2d_102">
      <g>
       <use style="stroke:#000000;stroke-width:0.5;" x="250.595147065" xlink:href="#mc21db286a6" y="194.0"/>
      </g>
     </g>
     <g id="line2d_103">
      <g>
       <use style="stroke:#000000;stroke-width:0.5;" x="250.595147065" xlink:href="#ma9c915e141" y="21.2"/>
      </g>
     </g>
    </g>
    <g id="xtick_50">
     <g id="line2d_104">
      <g>
       <use style="stroke:#000000;stroke-width:0.5;" x="254.390625" xlink:href="#mc21db286a6" y="194.0"/>
      </g>
     </g>
     <g id="line2d_105">
      <g>
       <use style="stroke:#000000;stroke-width:0.5;" x="254.390625" xlink:href="#ma9c915e141" y="21.2"/>
      </g>
     </g>
    </g>
    <g id="text_7">
     <!-- Equilibration time -->
     <defs>
      <path d="
M56.2031 29.5938
L56.2031 25.2031
L14.8906 25.2031
Q15.4844 15.9219 20.4844 11.0625
Q25.4844 6.20312 34.4219 6.20312
Q39.5938 6.20312 44.4531 7.46875
Q49.3125 8.73438 54.1094 11.2812
L54.1094 2.78125
Q49.2656 0.734375 44.1875 -0.34375
Q39.1094 -1.42188 33.8906 -1.42188
Q20.7969 -1.42188 13.1562 6.1875
Q5.51562 13.8125 5.51562 26.8125
Q5.51562 40.2344 12.7656 48.1094
Q20.0156 56 32.3281 56
Q43.3594 56 49.7812 48.8906
Q56.2031 41.7969 56.2031 29.5938
M47.2188 32.2344
Q47.125 39.5938 43.0938 43.9844
Q39.0625 48.3906 32.4219 48.3906
Q24.9062 48.3906 20.3906 44.1406
Q15.875 39.8906 15.1875 32.1719
z
" id="BitstreamVeraSans-Roman-65"/>
      <path d="
M41.1094 46.2969
Q39.5938 47.1719 37.8125 47.5781
Q36.0312 48 33.8906 48
Q26.2656 48 22.1875 43.0469
Q18.1094 38.0938 18.1094 28.8125
L18.1094 0
L9.07812 0
L9.07812 54.6875
L18.1094 54.6875
L18.1094 46.1875
Q20.9531 51.1719 25.4844 53.5781
Q30.0312 56 36.5312 56
Q37.4531 56 38.5781 55.875
Q39.7031 55.7656 41.0625 55.5156
z
" id="BitstreamVeraSans-Roman-72"/>
      <path d="
M9.42188 75.9844
L18.4062 75.9844
L18.4062 0
L9.42188 0
z
" id="BitstreamVeraSans-Roman-6c"/>
      <path id="BitstreamVeraSans-Roman-20"/>
      <path d="
M9.42188 54.6875
L18.4062 54.6875
L18.4062 0
L9.42188 0
z

M9.42188 75.9844
L18.4062 75.9844
L18.4062 64.5938
L9.42188 64.5938
z
" id="BitstreamVeraSans-Roman-69"/>
      <path d="
M9.8125 72.9062
L55.9062 72.9062
L55.9062 64.5938
L19.6719 64.5938
L19.6719 43.0156
L54.3906 43.0156
L54.3906 34.7188
L19.6719 34.7188
L19.6719 8.29688
L56.7812 8.29688
L56.7812 0
L9.8125 0
z
" id="BitstreamVeraSans-Roman-45"/>
      <path d="
M52 44.1875
Q55.375 50.25 60.0625 53.125
Q64.75 56 71.0938 56
Q79.6406 56 84.2812 50.0156
Q88.9219 44.0469 88.9219 33.0156
L88.9219 0
L79.8906 0
L79.8906 32.7188
Q79.8906 40.5781 77.0938 44.375
Q74.3125 48.1875 68.6094 48.1875
Q61.625 48.1875 57.5625 43.5469
Q53.5156 38.9219 53.5156 30.9062
L53.5156 0
L44.4844 0
L44.4844 32.7188
Q44.4844 40.625 41.7031 44.4062
Q38.9219 48.1875 33.1094 48.1875
Q26.2188 48.1875 22.1562 43.5312
Q18.1094 38.875 18.1094 30.9062
L18.1094 0
L9.07812 0
L9.07812 54.6875
L18.1094 54.6875
L18.1094 46.1875
Q21.1875 51.2188 25.4844 53.6094
Q29.7812 56 35.6875 56
Q41.6562 56 45.8281 52.9688
Q50 49.9531 52 44.1875" id="BitstreamVeraSans-Roman-6d"/>
      <path d="
M14.7969 27.2969
Q14.7969 17.3906 18.875 11.75
Q22.9531 6.10938 30.0781 6.10938
Q37.2031 6.10938 41.2969 11.75
Q45.4062 17.3906 45.4062 27.2969
Q45.4062 37.2031 41.2969 42.8438
Q37.2031 48.4844 30.0781 48.4844
Q22.9531 48.4844 18.875 42.8438
Q14.7969 37.2031 14.7969 27.2969
M45.4062 8.20312
Q42.5781 3.32812 38.25 0.953125
Q33.9375 -1.42188 27.875 -1.42188
Q17.9688 -1.42188 11.7344 6.48438
Q5.51562 14.4062 5.51562 27.2969
Q5.51562 40.1875 11.7344 48.0938
Q17.9688 56 27.875 56
Q33.9375 56 38.25 53.625
Q42.5781 51.2656 45.4062 46.3906
L45.4062 54.6875
L54.3906 54.6875
L54.3906 -20.7969
L45.4062 -20.7969
z
" id="BitstreamVeraSans-Roman-71"/>
      <path d="
M8.5 21.5781
L8.5 54.6875
L17.4844 54.6875
L17.4844 21.9219
Q17.4844 14.1562 20.5 10.2656
Q23.5312 6.39062 29.5938 6.39062
Q36.8594 6.39062 41.0781 11.0312
Q45.3125 15.6719 45.3125 23.6875
L45.3125 54.6875
L54.2969 54.6875
L54.2969 0
L45.3125 0
L45.3125 8.40625
Q42.0469 3.42188 37.7188 1
Q33.4062 -1.42188 27.6875 -1.42188
Q18.2656 -1.42188 13.375 4.4375
Q8.5 10.2969 8.5 21.5781" id="BitstreamVeraSans-Roman-75"/>
      <path d="
M54.8906 33.0156
L54.8906 0
L45.9062 0
L45.9062 32.7188
Q45.9062 40.4844 42.875 44.3281
Q39.8438 48.1875 33.7969 48.1875
Q26.5156 48.1875 22.3125 43.5469
Q18.1094 38.9219 18.1094 30.9062
L18.1094 0
L9.07812 0
L9.07812 54.6875
L18.1094 54.6875
L18.1094 46.1875
Q21.3438 51.125 25.7031 53.5625
Q30.0781 56 35.7969 56
Q45.2188 56 50.0469 50.1719
Q54.8906 44.3438 54.8906 33.0156" id="BitstreamVeraSans-Roman-6e"/>
      <path d="
M48.6875 27.2969
Q48.6875 37.2031 44.6094 42.8438
Q40.5312 48.4844 33.4062 48.4844
Q26.2656 48.4844 22.1875 42.8438
Q18.1094 37.2031 18.1094 27.2969
Q18.1094 17.3906 22.1875 11.75
Q26.2656 6.10938 33.4062 6.10938
Q40.5312 6.10938 44.6094 11.75
Q48.6875 17.3906 48.6875 27.2969
M18.1094 46.3906
Q20.9531 51.2656 25.2656 53.625
Q29.5938 56 35.5938 56
Q45.5625 56 51.7812 48.0938
Q58.0156 40.1875 58.0156 27.2969
Q58.0156 14.4062 51.7812 6.48438
Q45.5625 -1.42188 35.5938 -1.42188
Q29.5938 -1.42188 25.2656 0.953125
Q20.9531 3.32812 18.1094 8.20312
L18.1094 0
L9.07812 0
L9.07812 75.9844
L18.1094 75.9844
z
" id="BitstreamVeraSans-Roman-62"/>
      <path d="
M18.3125 70.2188
L18.3125 54.6875
L36.8125 54.6875
L36.8125 47.7031
L18.3125 47.7031
L18.3125 18.0156
Q18.3125 11.3281 20.1406 9.42188
Q21.9688 7.51562 27.5938 7.51562
L36.8125 7.51562
L36.8125 0
L27.5938 0
Q17.1875 0 13.2344 3.875
Q9.28125 7.76562 9.28125 18.0156
L9.28125 47.7031
L2.6875 47.7031
L2.6875 54.6875
L9.28125 54.6875
L9.28125 70.2188
z
" id="BitstreamVeraSans-Roman-74"/>
      <path d="
M30.6094 48.3906
Q23.3906 48.3906 19.1875 42.75
Q14.9844 37.1094 14.9844 27.2969
Q14.9844 17.4844 19.1562 11.8438
Q23.3438 6.20312 30.6094 6.20312
Q37.7969 6.20312 41.9844 11.8594
Q46.1875 17.5312 46.1875 27.2969
Q46.1875 37.0156 41.9844 42.7031
Q37.7969 48.3906 30.6094 48.3906
M30.6094 56
Q42.3281 56 49.0156 48.375
Q55.7188 40.7656 55.7188 27.2969
Q55.7188 13.875 49.0156 6.21875
Q42.3281 -1.42188 30.6094 -1.42188
Q18.8438 -1.42188 12.1719 6.21875
Q5.51562 13.875 5.51562 27.2969
Q5.51562 40.7656 12.1719 48.375
Q18.8438 56 30.6094 56" id="BitstreamVeraSans-Roman-6f"/>
      <path d="
M34.2812 27.4844
Q23.3906 27.4844 19.1875 25
Q14.9844 22.5156 14.9844 16.5
Q14.9844 11.7188 18.1406 8.90625
Q21.2969 6.10938 26.7031 6.10938
Q34.1875 6.10938 38.7031 11.4062
Q43.2188 16.7031 43.2188 25.4844
L43.2188 27.4844
z

M52.2031 31.2031
L52.2031 0
L43.2188 0
L43.2188 8.29688
Q40.1406 3.32812 35.5469 0.953125
Q30.9531 -1.42188 24.3125 -1.42188
Q15.9219 -1.42188 10.9531 3.29688
Q6 8.01562 6 15.9219
Q6 25.1406 12.1719 29.8281
Q18.3594 34.5156 30.6094 34.5156
L43.2188 34.5156
L43.2188 35.4062
Q43.2188 41.6094 39.1406 45
Q35.0625 48.3906 27.6875 48.3906
Q23 48.3906 18.5469 47.2656
Q14.1094 46.1406 10.0156 43.8906
L10.0156 52.2031
Q14.9375 54.1094 19.5781 55.0469
Q24.2188 56 28.6094 56
Q40.4844 56 46.3438 49.8438
Q52.2031 43.7031 52.2031 31.2031" id="BitstreamVeraSans-Roman-61"/>
     </defs>
     <g transform="translate(98.63125 221.2984375)scale(0.1 -0.1)">
      <use xlink:href="#BitstreamVeraSans-Roman-45"/>
      <use x="63.18359375" xlink:href="#BitstreamVeraSans-Roman-71"/>
      <use x="126.66015625" xlink:href="#BitstreamVeraSans-Roman-75"/>
      <use x="190.0390625" xlink:href="#BitstreamVeraSans-Roman-69"/>
      <use x="217.822265625" xlink:href="#BitstreamVeraSans-Roman-6c"/>
      <use x="245.60546875" xlink:href="#BitstreamVeraSans-Roman-69"/>
      <use x="273.388671875" xlink:href="#BitstreamVeraSans-Roman-62"/>
      <use x="336.865234375" xlink:href="#BitstreamVeraSans-Roman-72"/>
      <use x="377.978515625" xlink:href="#BitstreamVeraSans-Roman-61"/>
      <use x="439.2578125" xlink:href="#BitstreamVeraSans-Roman-74"/>
      <use x="478.466796875" xlink:href="#BitstreamVeraSans-Roman-69"/>
      <use x="506.25" xlink:href="#BitstreamVeraSans-Roman-6f"/>
      <use x="567.431640625" xlink:href="#BitstreamVeraSans-Roman-6e"/>
      <use x="630.810546875" xlink:href="#BitstreamVeraSans-Roman-20"/>
      <use x="662.59765625" xlink:href="#BitstreamVeraSans-Roman-74"/>
      <use x="701.806640625" xlink:href="#BitstreamVeraSans-Roman-69"/>
      <use x="729.58984375" xlink:href="#BitstreamVeraSans-Roman-6d"/>
      <use x="827.001953125" xlink:href="#BitstreamVeraSans-Roman-65"/>
     </g>
    </g>
   </g>
   <g id="matplotlib.axis_2">
    <g id="ytick_1">
     <g id="line2d_106">
      <defs>
       <path d="
M0 0
L4 0" id="md7965d1ba0" style="stroke:#000000;stroke-width:0.5;"/>
      </defs>
      <g>
       <use style="stroke:#000000;stroke-width:0.5;" x="31.190625" xlink:href="#md7965d1ba0" y="194.0"/>
      </g>
     </g>
     <g id="line2d_107">
      <defs>
       <path d="
M0 0
L-4 0" id="md9a1c1a7cd" style="stroke:#000000;stroke-width:0.5;"/>
      </defs>
      <g>
       <use style="stroke:#000000;stroke-width:0.5;" x="254.390625" xlink:href="#md9a1c1a7cd" y="194.0"/>
      </g>
     </g>
     <g id="text_8">
      <!-- 0 -->
      <g transform="translate(22.1515625 196.759375)scale(0.1 -0.1)">
       <use xlink:href="#BitstreamVeraSans-Roman-30"/>
      </g>
     </g>
    </g>
    <g id="ytick_2">
     <g id="line2d_108">
      <g>
       <use style="stroke:#000000;stroke-width:0.5;" x="31.190625" xlink:href="#md7965d1ba0" y="172.4"/>
      </g>
     </g>
     <g id="line2d_109">
      <g>
       <use style="stroke:#000000;stroke-width:0.5;" x="254.390625" xlink:href="#md9a1c1a7cd" y="172.4"/>
      </g>
     </g>
     <g id="text_9">
      <!-- 1 -->
      <g transform="translate(22.85 175.159375)scale(0.1 -0.1)">
       <use xlink:href="#BitstreamVeraSans-Roman-31"/>
      </g>
     </g>
    </g>
    <g id="ytick_3">
     <g id="line2d_110">
      <g>
       <use style="stroke:#000000;stroke-width:0.5;" x="31.190625" xlink:href="#md7965d1ba0" y="150.8"/>
      </g>
     </g>
     <g id="line2d_111">
      <g>
       <use style="stroke:#000000;stroke-width:0.5;" x="254.390625" xlink:href="#md9a1c1a7cd" y="150.8"/>
      </g>
     </g>
     <g id="text_10">
      <!-- 2 -->
      <g transform="translate(22.5625 153.559375)scale(0.1 -0.1)">
       <use xlink:href="#BitstreamVeraSans-Roman-32"/>
      </g>
     </g>
    </g>
    <g id="ytick_4">
     <g id="line2d_112">
      <g>
       <use style="stroke:#000000;stroke-width:0.5;" x="31.190625" xlink:href="#md7965d1ba0" y="129.2"/>
      </g>
     </g>
     <g id="line2d_113">
      <g>
       <use style="stroke:#000000;stroke-width:0.5;" x="254.390625" xlink:href="#md9a1c1a7cd" y="129.2"/>
      </g>
     </g>
     <g id="text_11">
      <!-- 3 -->
      <g transform="translate(22.3921875 131.959375)scale(0.1 -0.1)">
       <use xlink:href="#BitstreamVeraSans-Roman-33"/>
      </g>
     </g>
    </g>
    <g id="ytick_5">
     <g id="line2d_114">
      <g>
       <use style="stroke:#000000;stroke-width:0.5;" x="31.190625" xlink:href="#md7965d1ba0" y="107.6"/>
      </g>
     </g>
     <g id="line2d_115">
      <g>
       <use style="stroke:#000000;stroke-width:0.5;" x="254.390625" xlink:href="#md9a1c1a7cd" y="107.6"/>
      </g>
     </g>
     <g id="text_12">
      <!-- 4 -->
      <g transform="translate(21.878125 110.359375)scale(0.1 -0.1)">
       <use xlink:href="#BitstreamVeraSans-Roman-34"/>
      </g>
     </g>
    </g>
    <g id="ytick_6">
     <g id="line2d_116">
      <g>
       <use style="stroke:#000000;stroke-width:0.5;" x="31.190625" xlink:href="#md7965d1ba0" y="86.0"/>
      </g>
     </g>
     <g id="line2d_117">
      <g>
       <use style="stroke:#000000;stroke-width:0.5;" x="254.390625" xlink:href="#md9a1c1a7cd" y="86.0"/>
      </g>
     </g>
     <g id="text_13">
      <!-- 5 -->
      <defs>
       <path d="
M10.7969 72.9062
L49.5156 72.9062
L49.5156 64.5938
L19.8281 64.5938
L19.8281 46.7344
Q21.9688 47.4688 24.1094 47.8281
Q26.2656 48.1875 28.4219 48.1875
Q40.625 48.1875 47.75 41.5
Q54.8906 34.8125 54.8906 23.3906
Q54.8906 11.625 47.5625 5.09375
Q40.2344 -1.42188 26.9062 -1.42188
Q22.3125 -1.42188 17.5469 -0.640625
Q12.7969 0.140625 7.71875 1.70312
L7.71875 11.625
Q12.1094 9.23438 16.7969 8.0625
Q21.4844 6.89062 26.7031 6.89062
Q35.1562 6.89062 40.0781 11.3281
Q45.0156 15.7656 45.0156 23.3906
Q45.0156 31 40.0781 35.4375
Q35.1562 39.8906 26.7031 39.8906
Q22.75 39.8906 18.8125 39.0156
Q14.8906 38.1406 10.7969 36.2812
z
" id="BitstreamVeraSans-Roman-35"/>
      </defs>
      <g transform="translate(22.4734375 88.759375)scale(0.1 -0.1)">
       <use xlink:href="#BitstreamVeraSans-Roman-35"/>
      </g>
     </g>
    </g>
    <g id="ytick_7">
     <g id="line2d_118">
      <g>
       <use style="stroke:#000000;stroke-width:0.5;" x="31.190625" xlink:href="#md7965d1ba0" y="64.4"/>
      </g>
     </g>
     <g id="line2d_119">
      <g>
       <use style="stroke:#000000;stroke-width:0.5;" x="254.390625" xlink:href="#md9a1c1a7cd" y="64.4"/>
      </g>
     </g>
     <g id="text_14">
      <!-- 6 -->
      <defs>
       <path d="
M33.0156 40.375
Q26.375 40.375 22.4844 35.8281
Q18.6094 31.2969 18.6094 23.3906
Q18.6094 15.5312 22.4844 10.9531
Q26.375 6.39062 33.0156 6.39062
Q39.6562 6.39062 43.5312 10.9531
Q47.4062 15.5312 47.4062 23.3906
Q47.4062 31.2969 43.5312 35.8281
Q39.6562 40.375 33.0156 40.375
M52.5938 71.2969
L52.5938 62.3125
Q48.875 64.0625 45.0938 64.9844
Q41.3125 65.9219 37.5938 65.9219
Q27.8281 65.9219 22.6719 59.3281
Q17.5312 52.7344 16.7969 39.4062
Q19.6719 43.6562 24.0156 45.9219
Q28.375 48.1875 33.5938 48.1875
Q44.5781 48.1875 50.9531 41.5156
Q57.3281 34.8594 57.3281 23.3906
Q57.3281 12.1562 50.6875 5.35938
Q44.0469 -1.42188 33.0156 -1.42188
Q20.3594 -1.42188 13.6719 8.26562
Q6.98438 17.9688 6.98438 36.375
Q6.98438 53.6562 15.1875 63.9375
Q23.3906 74.2188 37.2031 74.2188
Q40.9219 74.2188 44.7031 73.4844
Q48.4844 72.75 52.5938 71.2969" id="BitstreamVeraSans-Roman-36"/>
      </defs>
      <g transform="translate(22.15625 67.159375)scale(0.1 -0.1)">
       <use xlink:href="#BitstreamVeraSans-Roman-36"/>
      </g>
     </g>
    </g>
    <g id="ytick_8">
     <g id="line2d_120">
      <g>
       <use style="stroke:#000000;stroke-width:0.5;" x="31.190625" xlink:href="#md7965d1ba0" y="42.8"/>
      </g>
     </g>
     <g id="line2d_121">
      <g>
       <use style="stroke:#000000;stroke-width:0.5;" x="254.390625" xlink:href="#md9a1c1a7cd" y="42.8"/>
      </g>
     </g>
     <g id="text_15">
      <!-- 7 -->
      <defs>
       <path d="
M8.20312 72.9062
L55.0781 72.9062
L55.0781 68.7031
L28.6094 0
L18.3125 0
L43.2188 64.5938
L8.20312 64.5938
z
" id="BitstreamVeraSans-Roman-37"/>
      </defs>
      <g transform="translate(22.503125 45.559375)scale(0.1 -0.1)">
       <use xlink:href="#BitstreamVeraSans-Roman-37"/>
      </g>
     </g>
    </g>
    <g id="ytick_9">
     <g id="line2d_122">
      <g>
       <use style="stroke:#000000;stroke-width:0.5;" x="31.190625" xlink:href="#md7965d1ba0" y="21.2"/>
      </g>
     </g>
     <g id="line2d_123">
      <g>
       <use style="stroke:#000000;stroke-width:0.5;" x="254.390625" xlink:href="#md9a1c1a7cd" y="21.2"/>
      </g>
     </g>
     <g id="text_16">
      <!-- 8 -->
      <defs>
       <path d="
M31.7812 34.625
Q24.75 34.625 20.7188 30.8594
Q16.7031 27.0938 16.7031 20.5156
Q16.7031 13.9219 20.7188 10.1562
Q24.75 6.39062 31.7812 6.39062
Q38.8125 6.39062 42.8594 10.1719
Q46.9219 13.9688 46.9219 20.5156
Q46.9219 27.0938 42.8906 30.8594
Q38.875 34.625 31.7812 34.625
M21.9219 38.8125
Q15.5781 40.375 12.0312 44.7188
Q8.5 49.0781 8.5 55.3281
Q8.5 64.0625 14.7188 69.1406
Q20.9531 74.2188 31.7812 74.2188
Q42.6719 74.2188 48.875 69.1406
Q55.0781 64.0625 55.0781 55.3281
Q55.0781 49.0781 51.5312 44.7188
Q48 40.375 41.7031 38.8125
Q48.8281 37.1562 52.7969 32.3125
Q56.7812 27.4844 56.7812 20.5156
Q56.7812 9.90625 50.3125 4.23438
Q43.8438 -1.42188 31.7812 -1.42188
Q19.7344 -1.42188 13.25 4.23438
Q6.78125 9.90625 6.78125 20.5156
Q6.78125 27.4844 10.7812 32.3125
Q14.7969 37.1562 21.9219 38.8125
M18.3125 54.3906
Q18.3125 48.7344 21.8438 45.5625
Q25.3906 42.3906 31.7812 42.3906
Q38.1406 42.3906 41.7188 45.5625
Q45.3125 48.7344 45.3125 54.3906
Q45.3125 60.0625 41.7188 63.2344
Q38.1406 66.4062 31.7812 66.4062
Q25.3906 66.4062 21.8438 63.2344
Q18.3125 60.0625 18.3125 54.3906" id="BitstreamVeraSans-Roman-38"/>
      </defs>
      <g transform="translate(22.190625 23.959375)scale(0.1 -0.1)">
       <use xlink:href="#BitstreamVeraSans-Roman-38"/>
      </g>
     </g>
    </g>
    <g id="text_17">
     <!-- max $\alpha_2$ -->
     <defs>
      <path d="
M54.8906 54.6875
L35.1094 28.0781
L55.9062 0
L45.3125 0
L29.3906 21.4844
L13.4844 0
L2.875 0
L24.125 28.6094
L4.6875 54.6875
L15.2812 54.6875
L29.7812 35.2031
L44.2812 54.6875
z
" id="BitstreamVeraSans-Roman-78"/>
      <path d="
M51.4062 12.9062
L52.9062 12.9062
Q52.9062 7 50.75 3
Q48.5938 -1 45 -1
Q39.4062 -1 37 10
Q34 4.59375 30.5 1.79688
Q27 -1 21.5938 -1
Q13.5 -1 8.20312 5.54688
Q2.90625 12.0938 2.90625 22.2969
Q2.90625 32.2031 8.25 39.0938
Q13.5938 46 22.5 46
Q28.5 46 32.4531 41.75
Q36.4062 37.5 37.9062 31.4062
L42.4062 45
L52.0938 45
L41.2031 18.7031
Q42.2031 14.0938 44.1406 9.64062
Q46.0938 5.20312 48.0938 5.20312
Q50.5 5.20312 51.4062 12.9062
M33.0938 20.7969
Q29.7969 43.2031 22 43.2031
Q17.7969 43.2031 14.8438 39.25
Q11.9062 35.2969 11.9062 27.2969
Q11.9062 23.9062 12.3438 20.0938
Q12.7969 16.2969 13.8438 11.8906
Q14.9062 7.5 17.1562 4.64062
Q19.4062 1.79688 22.5 1.79688
Q29.5 1.79688 33.0938 20.7969" id="STIXGeneral-Regular-3b1"/>
     </defs>
     <g transform="translate(13.678125 126.0)rotate(-90.0)scale(0.1 -0.1)">
      <use xlink:href="#BitstreamVeraSans-Roman-6d"/>
      <use transform="translate(97.412109375 0.0)" xlink:href="#BitstreamVeraSans-Roman-61"/>
      <use transform="translate(158.69140625 0.0)" xlink:href="#BitstreamVeraSans-Roman-78"/>
      <use transform="translate(217.87109375 0.0)" xlink:href="#BitstreamVeraSans-Roman-20"/>
      <use transform="translate(249.658203125 0.0)" xlink:href="#STIXGeneral-Regular-3b1"/>
      <use transform="translate(303.95819091796875 -31.5)scale(0.7)" xlink:href="#BitstreamVeraSans-Roman-32"/>
     </g>
    </g>
   </g>
   <g id="text_18">
    <!-- $\phi_0 = 0.58$ -->
    <defs>
     <path d="
M35.2969 68.2969
L35.2969 46
Q42.2969 46 46.0938 44.4062
Q52.5 41.7969 55.8906 36.0469
Q59.2969 30.2969 59.2969 23.0938
Q59.2969 18.5938 58 14.5
Q56.7031 10.4062 54.0469 6.79688
Q51.4062 3.20312 46.5469 1.09375
Q41.7031 -1 35.2969 -1
L35.2969 -21.7031
L26.9062 -21.7031
L26.9062 -1
L24.5 -1
Q14.7031 -1 8.79688 6.14062
Q2.90625 13.2969 2.90625 22.7969
Q2.90625 32.4062 8.79688 39.2031
Q14.7031 46 25.2031 46
L26.9062 46
L26.9062 68.2969
z

M35.2031 1.79688
L38.2969 1.79688
Q44.2969 1.79688 47.2969 7.04688
Q50.2969 12.2969 50.2969 20.4062
Q50.2969 29.9062 46.3438 36.5469
Q42.4062 43.2031 35.2031 43.2031
z

M27 1.79688
L27 43.2031
L24 43.2031
Q18.2031 43.2031 15.0469 39
Q11.9062 34.7969 11.9062 27.4062
Q11.9062 14.4062 17.2969 6.79688
Q20.7969 1.79688 27 1.79688" id="STIXGeneral-Regular-3d5"/>
     <path d="
M10.5938 45.4062
L73.1875 45.4062
L73.1875 37.2031
L10.5938 37.2031
z

M10.5938 25.4844
L73.1875 25.4844
L73.1875 17.1875
L10.5938 17.1875
z
" id="BitstreamVeraSans-Roman-3d"/>
     <path d="
M10.6875 12.4062
L21 12.4062
L21 0
L10.6875 0
z
" id="BitstreamVeraSans-Roman-2e"/>
    </defs>
    <g transform="translate(115.850625 16.2)scale(0.12 -0.12)">
     <use transform="translate(0.0 0.78125)" xlink:href="#STIXGeneral-Regular-3d5"/>
     <use transform="translate(62.29998779296875 -30.71875)scale(0.7)" xlink:href="#BitstreamVeraSans-Roman-30"/>
     <use transform="translate(145.40545654296875 0.78125)" xlink:href="#BitstreamVeraSans-Roman-3d"/>
     <use transform="translate(227.48162841796875 0.78125)" xlink:href="#BitstreamVeraSans-Roman-30"/>
     <use transform="translate(291.10467529296875 0.78125)" xlink:href="#BitstreamVeraSans-Roman-2e"/>
     <use transform="translate(320.88397216796875 0.78125)" xlink:href="#BitstreamVeraSans-Roman-35"/>
     <use transform="translate(384.50701904296875 0.78125)" xlink:href="#BitstreamVeraSans-Roman-38"/>
    </g>
   </g>
   <g id="legend_1">
    <g id="patch_7">
     <path d="
M35.3556 102.963
L87.914 102.963
L87.914 25.365
L35.3556 25.365
z
" style="fill:#ffffff;stroke:#000000;stroke-linejoin:miter;"/>
    </g>
    <g id="text_19">
     <!-- Final $\phi$ -->
     <defs>
      <path d="
M9.8125 72.9062
L51.7031 72.9062
L51.7031 64.5938
L19.6719 64.5938
L19.6719 43.1094
L48.5781 43.1094
L48.5781 34.8125
L19.6719 34.8125
L19.6719 0
L9.8125 0
z
" id="BitstreamVeraSans-Roman-46"/>
     </defs>
     <g transform="translate(45.0348226563 36.297)scale(0.1 -0.1)">
      <use transform="translate(0.0 0.015625)" xlink:href="#BitstreamVeraSans-Roman-46"/>
      <use transform="translate(57.51953125 0.015625)" xlink:href="#BitstreamVeraSans-Roman-69"/>
      <use transform="translate(85.302734375 0.015625)" xlink:href="#BitstreamVeraSans-Roman-6e"/>
      <use transform="translate(148.681640625 0.015625)" xlink:href="#BitstreamVeraSans-Roman-61"/>
      <use transform="translate(209.9609375 0.015625)" xlink:href="#BitstreamVeraSans-Roman-6c"/>
      <use transform="translate(237.744140625 0.015625)" xlink:href="#BitstreamVeraSans-Roman-20"/>
      <use transform="translate(269.53125 0.015625)" xlink:href="#STIXGeneral-Regular-3d5"/>
     </g>
    </g>
    <g id="line2d_124">
     <path d="
M41.1866 46.076
L52.8486 46.076" style="fill:none;stroke:#4daf4a;stroke-linecap:square;stroke-width:2.0;"/>
    </g>
    <g id="line2d_125"/>
    <g id="text_20">
     <!-- 0.58 -->
     <g transform="translate(62.011625 48.9914984375)scale(0.0833 -0.0833)">
      <use xlink:href="#BitstreamVeraSans-Roman-30"/>
      <use x="63.623046875" xlink:href="#BitstreamVeraSans-Roman-2e"/>
      <use x="95.41015625" xlink:href="#BitstreamVeraSans-Roman-35"/>
      <use x="159.033203125" xlink:href="#BitstreamVeraSans-Roman-38"/>
     </g>
    </g>
    <g id="line2d_126">
     <path d="
M41.1866 58.3029
L52.8486 58.3029" style="fill:none;stroke:#43987e;stroke-linecap:square;stroke-width:2.0;"/>
    </g>
    <g id="line2d_127"/>
    <g id="text_21">
     <!-- 0.585 -->
     <g transform="translate(62.011625 61.2183765625)scale(0.0833 -0.0833)">
      <use xlink:href="#BitstreamVeraSans-Roman-30"/>
      <use x="63.623046875" xlink:href="#BitstreamVeraSans-Roman-2e"/>
      <use x="95.41015625" xlink:href="#BitstreamVeraSans-Roman-35"/>
      <use x="159.033203125" xlink:href="#BitstreamVeraSans-Roman-38"/>
      <use x="222.65625" xlink:href="#BitstreamVeraSans-Roman-35"/>
     </g>
    </g>
    <g id="line2d_128">
     <path d="
M41.1866 70.5298
L52.8486 70.5298" style="fill:none;stroke:#765faa;stroke-linecap:square;stroke-width:2.0;"/>
    </g>
    <g id="line2d_129"/>
    <g id="text_22">
     <!-- 0.59 -->
     <defs>
      <path d="
M10.9844 1.51562
L10.9844 10.5
Q14.7031 8.73438 18.5 7.8125
Q22.3125 6.89062 25.9844 6.89062
Q35.75 6.89062 40.8906 13.4531
Q46.0469 20.0156 46.7812 33.4062
Q43.9531 29.2031 39.5938 26.9531
Q35.25 24.7031 29.9844 24.7031
Q19.0469 24.7031 12.6719 31.3125
Q6.29688 37.9375 6.29688 49.4219
Q6.29688 60.6406 12.9375 67.4219
Q19.5781 74.2188 30.6094 74.2188
Q43.2656 74.2188 49.9219 64.5156
Q56.5938 54.8281 56.5938 36.375
Q56.5938 19.1406 48.4062 8.85938
Q40.2344 -1.42188 26.4219 -1.42188
Q22.7031 -1.42188 18.8906 -0.6875
Q15.0938 0.046875 10.9844 1.51562
M30.6094 32.4219
Q37.25 32.4219 41.125 36.9531
Q45.0156 41.5 45.0156 49.4219
Q45.0156 57.2812 41.125 61.8438
Q37.25 66.4062 30.6094 66.4062
Q23.9688 66.4062 20.0938 61.8438
Q16.2188 57.2812 16.2188 49.4219
Q16.2188 41.5 20.0938 36.9531
Q23.9688 32.4219 30.6094 32.4219" id="BitstreamVeraSans-Roman-39"/>
     </defs>
     <g transform="translate(62.011625 73.4452546875)scale(0.0833 -0.0833)">
      <use xlink:href="#BitstreamVeraSans-Roman-30"/>
      <use x="63.623046875" xlink:href="#BitstreamVeraSans-Roman-2e"/>
      <use x="95.41015625" xlink:href="#BitstreamVeraSans-Roman-35"/>
      <use x="159.033203125" xlink:href="#BitstreamVeraSans-Roman-39"/>
     </g>
    </g>
    <g id="line2d_130">
     <path d="
M41.1866 82.7566
L52.8486 82.7566" style="fill:none;stroke:#d72334;stroke-linecap:square;stroke-width:2.0;"/>
    </g>
    <g id="line2d_131"/>
    <g id="text_23">
     <!-- 0.595 -->
     <g transform="translate(62.011625 85.6721328125)scale(0.0833 -0.0833)">
      <use xlink:href="#BitstreamVeraSans-Roman-30"/>
      <use x="63.623046875" xlink:href="#BitstreamVeraSans-Roman-2e"/>
      <use x="95.41015625" xlink:href="#BitstreamVeraSans-Roman-35"/>
      <use x="159.033203125" xlink:href="#BitstreamVeraSans-Roman-39"/>
      <use x="222.65625" xlink:href="#BitstreamVeraSans-Roman-35"/>
     </g>
    </g>
    <g id="line2d_132">
     <path d="
M41.1866 94.9835
L52.8486 94.9835" style="fill:none;stroke:#ff7f00;stroke-linecap:square;stroke-width:2.0;"/>
    </g>
    <g id="line2d_133"/>
    <g id="text_24">
     <!-- 0.6 -->
     <g transform="translate(62.011625 97.8990109375)scale(0.0833 -0.0833)">
      <use xlink:href="#BitstreamVeraSans-Roman-30"/>
      <use x="63.623046875" xlink:href="#BitstreamVeraSans-Roman-2e"/>
      <use x="95.41015625" xlink:href="#BitstreamVeraSans-Roman-36"/>
     </g>
    </g>
   </g>
  </g>
 </g>
 <defs>
  <clipPath id="p2b44c23dda">
   <rect height="172.8" width="223.2" x="31.190625" y="21.2"/>
  </clipPath>
 </defs>
</svg>
