<?xml version="1.0" encoding="utf-8" standalone="no"?>
<!DOCTYPE svg PUBLIC "-//W3C//DTD SVG 1.1//EN"
  "http://www.w3.org/Graphics/SVG/1.1/DTD/svg11.dtd">
<!-- Created with matplotlib (http://matplotlib.org/) -->
<svg height="229pt" version="1.1" viewBox="0 0 343 229" width="343pt" xmlns="http://www.w3.org/2000/svg" xmlns:xlink="http://www.w3.org/1999/xlink">
 <defs>
  <style type="text/css">
*{stroke-linecap:butt;stroke-linejoin:round;}
  </style>
 </defs>
 <g id="figure_1">
  <g id="patch_1">
   <path d="
M0 229.978
L343.628 229.978
L343.628 0
L0 0
z
" style="fill:#ffffff;"/>
  </g>
  <g id="axes_1">
   <g id="patch_2">
    <path d="
M47.7781 193.4
L326.778 193.4
L326.778 20.6
L47.7781 20.6
z
" style="fill:#ffffff;"/>
   </g>
   <g id="line2d_1">
    <path clip-path="url(#pf1ab47c12d)" d="
M47.7781 185.003
L49.5228 184.043
L51.1568 183.253
L52.6935 182.599
L56.0834 181.506
L59.4096 180.83
L62.7912 180.579
L66.1623 180.711
L69.4789 181.119
L79.5611 183.008
L81.2347 183.248
L86.2163 183.434
L92.928 183.249
L96.2422 183.12
L101.27 183.088
L106.288 183.122
L109.611 183.099
L119.656 183.013
L124.663 182.905
L126.334 182.972
L128.006 182.892
L129.685 183.039
L131.352 182.945
L133.022 183.055
L134.696 182.909
L136.369 182.912
L138.041 182.784
L139.706 182.841
L143.054 182.782
L144.723 182.792
L148.065 182.603
L149.74 182.748
L151.41 182.498
L156.423 182.493
L158.096 182.664
L159.765 182.288
L163.108 182.517
L164.781 182.324
L174.809 181.954
L176.481 181.971
L178.152 181.503
L179.824 181.754
L181.494 181.556
L184.838 181.523
L186.51 180.959
L188.18 181.231
L189.852 180.858
L191.524 180.811
L193.195 181.069
L194.867 180.68
L196.538 180.916
L198.21 180.763
L199.881 180.389
L201.552 180.157
L204.895 180.208
L206.567 180.203
L208.238 179.801
L209.91 179.111
L211.581 179.943
L213.253 179.229
L214.924 178.804
L218.267 178.675
L219.939 178.237
L221.61 177.949
L223.282 177.393
L224.953 177.537
L226.624 176.292
L228.296 176.334
L229.967 176.054
L231.639 175.276
L233.31 174.124
L234.982 175.511
L236.653 174.382
L238.325 174.869
L239.996 173.492
L241.668 173.276
L243.339 172.3
L245.01 172.094
L246.682 170.873
L248.353 170.093
L250.025 171.013
L251.696 170.246
L253.368 169.22
L255.039 167.43
L256.711 168.598
L258.382 167.161
L261.725 165.951
L263.397 164.598
L265.068 164.353
L266.74 163.667
L268.411 162.402
L270.082 161.517
L271.754 161.532
L273.425 160.059
L275.097 158.958
L276.768 159.284
L278.44 158.28
L280.111 156.461
L281.783 156.656
L283.454 154.798
L285.126 152.537
L286.797 154.962
L290.14 149.631
L291.811 149.989
L293.483 148.417
L296.826 148.953
L298.497 147.844
L300.169 145.299
L301.84 143.22
L303.512 143.037
L305.183 140.339
L306.855 141.135
L308.526 137.852
L310.197 140.464
L311.869 135.2
L313.54 135.996
L315.212 133.431
L316.883 131.607
L318.555 130.219
L320.226 130.782
L321.898 127.35
L323.569 125.181
L325.241 127.559
L326.912 125.562
L328.584 121.527
L330.255 120.297
L331.926 121.419
L333.598 120.911
L335.269 114.895
L336.941 112.585
L338.612 115.73
L340.284 111.573
L341.955 112.554
L343.627 110.619
L344.628 107.458
L344.628 107.458" style="fill:none;stroke:#4daf4a;stroke-linecap:square;stroke-width:2.0;"/>
   </g>
   <g id="line2d_2">
    <path clip-path="url(#pf1ab47c12d)" d="
M47.7781 186.263
L49.5228 185.244
L51.1568 184.362
L54.5435 182.758
L57.8874 181.474
L61.1558 180.485
L66.1623 179.342
L71.1986 178.456
L81.2347 176.782
L92.928 174.425
L99.5967 172.933
L107.94 170.933
L119.656 167.606
L133.022 163
L141.38 159.785
L143.054 158.971
L144.723 158.331
L149.74 156.019
L153.079 154.524
L154.752 153.65
L156.423 152.915
L159.765 150.984
L168.122 146.553
L169.795 145.508
L171.466 144.602
L174.809 142.563
L181.494 138.551
L183.167 137.284
L188.18 134.083
L189.852 133.028
L191.524 131.729
L193.195 130.756
L196.538 128.282
L198.21 127.434
L199.881 125.886
L201.552 124.731
L203.224 123.76
L206.567 121.445
L208.238 120.185
L211.581 117.926
L216.596 113.749
L218.267 112.759
L219.939 111.317
L221.61 110.32
L223.282 108.697
L224.953 107.599
L229.967 103.645
L231.639 102.678
L233.31 101.078
L234.982 99.6424
L236.653 98.4867
L238.325 96.8688
L239.996 95.5865
L241.668 94.603
L245.01 91.785
L246.682 90.1661
L248.353 89.28
L250.025 87.6543
L251.696 86.1918
L253.368 84.9677
L255.039 84.1621
L258.382 80.2413
L260.054 79.4178
L261.725 77.9297
L263.397 77.285
L265.068 75.3061
L266.74 74.6605
L268.411 72.3707
L271.754 69.8635
L273.425 68.9561
L276.768 65.0698
L278.44 63.9997
L280.111 62.7105
L283.454 59.3682
L285.126 58.5509
L288.468 55.2447
L290.14 53.5257
L291.811 53.2402
L293.483 51.645
L295.154 49.7484
L296.826 48.0644
L298.497 46.1676
L300.169 45.8033
L301.84 45.0061
L305.183 40.4056
L306.855 40.3768
L308.526 39.452
L310.197 37.9155
L311.869 35.6446
L313.54 33.9533
L315.212 33.5301
L316.883 30.7778
L318.555 31.3884
L320.226 29.7624
L321.898 30.4368
L323.569 25.2421
L325.241 26.0031
L326.912 23.0308
L328.584 22.1444
L330.255 22.3334
L331.926 19.146
L333.598 19.6256
L335.269 18.0812
L336.941 15.9399
L338.612 14.2273
L340.284 12.7443
L341.955 12.0796
L343.627 13.2774
L344.628 9.80803
L344.628 9.80803" style="fill:none;stroke:#576eb1;stroke-linecap:square;stroke-width:2.0;"/>
   </g>
   <g id="line2d_3">
    <path clip-path="url(#pf1ab47c12d)" d="
M47.7781 185.089
L49.5228 184.061
L51.1568 183.148
L54.5435 181.49
L57.8874 180.095
L62.7912 178.532
L67.8739 177.247
L87.9023 172.605
L91.216 171.71
L99.5967 169.365
L106.288 167.318
L109.611 166.199
L111.289 165.686
L114.642 164.402
L117.984 163.257
L128.006 159.28
L133.022 156.986
L134.696 156.298
L138.041 154.634
L139.706 153.892
L141.38 152.93
L143.054 152.153
L153.079 146.732
L158.096 143.771
L163.108 140.851
L174.809 133.131
L176.481 132.269
L178.152 130.83
L179.824 129.925
L183.167 127.468
L186.51 125.208
L188.18 123.892
L189.852 122.828
L193.195 120.367
L194.867 118.926
L196.538 117.883
L203.224 112.906
L206.567 110.2
L208.238 109.127
L209.91 107.87
L211.581 106.317
L213.253 104.995
L214.924 103.937
L218.267 101.153
L219.939 99.997
L221.61 98.373
L223.282 97.3874
L224.953 95.8099
L228.296 93.4776
L229.967 91.6908
L231.639 90.9441
L234.982 88.0772
L241.668 82.6854
L243.339 81.5441
L245.01 79.8621
L246.682 78.5491
L248.353 77.3879
L250.025 76.5458
L251.696 74.9568
L253.368 73.5229
L255.039 71.7422
L256.711 70.8537
L258.382 69.4172
L260.054 67.5583
L261.725 66.8874
L263.397 65.7443
L266.74 62.6593
L268.411 61.4255
L270.082 59.7975
L271.754 58.8599
L273.425 57.7187
L278.44 53.8078
L280.111 51.9381
L281.783 50.5153
L283.454 50.2286
L285.126 47.1738
L286.797 46.6416
L288.468 44.9291
L290.14 43.3914
L291.811 42.2783
L293.483 40.9613
L295.154 40.4024
L296.826 38.6621
L298.497 37.1029
L300.169 35.1996
L301.84 34.622
L303.512 33.7917
L306.855 29.2193
L308.526 28.0566
L310.197 27.3681
L311.869 25.5849
L313.54 24.7453
L315.212 22.8714
L316.883 23.6151
L318.555 19.9542
L320.226 17.6106
L321.898 17.6154
L323.569 15.9592
L325.241 14.9723
L326.912 13.4431
L328.584 12.7911
L330.255 10.7941
L331.926 10.7557
L333.598 8.76979
L335.269 8.26771
L336.941 4.49748
L340.284 1.87782
L341.955 1.51234
L343.202 -1
L343.202 -1" style="fill:none;stroke:#cb2b49;stroke-linecap:square;stroke-width:2.0;"/>
   </g>
   <g id="line2d_4">
    <path clip-path="url(#pf1ab47c12d)" d="
M47.7781 181.16
L49.5228 180.063
L51.1568 179.086
L54.5435 177.24
L57.8874 175.636
L62.7912 173.616
L71.1986 170.59
L76.1929 168.826
L84.5366 165.635
L91.216 162.864
L94.5754 161.388
L102.932 157.435
L107.94 154.942
L116.304 150.518
L117.984 149.462
L121.317 147.61
L134.696 139.258
L139.706 135.929
L143.054 133.627
L149.74 128.96
L163.108 119.221
L164.781 117.816
L166.453 116.743
L176.481 108.949
L178.152 107.818
L179.824 106.36
L186.51 101.263
L189.852 98.5745
L191.524 97.3666
L193.195 95.8411
L194.867 94.4696
L196.538 93.3335
L198.21 91.8776
L199.881 90.5694
L201.552 89.0476
L206.567 85.1897
L208.238 83.7324
L209.91 82.4905
L216.596 76.9724
L218.267 75.868
L219.939 74.1848
L221.61 72.7597
L223.282 71.6025
L224.953 70.0608
L226.624 68.9097
L228.296 67.4147
L239.996 58.0039
L243.339 54.9775
L246.682 52.5766
L248.353 50.9788
L250.025 49.8772
L251.696 48.0746
L253.368 47.405
L255.039 45.4322
L258.382 43.0388
L263.397 38.877
L265.068 37.8359
L266.74 35.5977
L270.082 33.1631
L273.425 30.3691
L275.097 28.5387
L276.768 27.8686
L278.44 26.3232
L280.111 24.5958
L281.783 23.9956
L283.454 22.3301
L286.797 19.6983
L288.468 18.7329
L290.14 17.2345
L291.811 16.3346
L293.483 14.5072
L295.154 13.0588
L296.826 11.9337
L298.497 10.2691
L300.169 9.76058
L301.84 8.05408
L303.512 7.33262
L305.183 6.13434
L306.855 4.37391
L308.526 2.38218
L311.869 -0.331242
L313.54 -0.832956
L314.485 -1
L314.485 -1" style="fill:none;stroke:#ff7f00;stroke-linecap:square;stroke-width:2.0;"/>
   </g>
   <g id="patch_3">
    <path d="
M47.7781 20.6
L326.778 20.6" style="fill:none;stroke:#000000;stroke-linecap:square;stroke-linejoin:miter;"/>
   </g>
   <g id="patch_4">
    <path d="
M326.778 193.4
L326.778 20.6" style="fill:none;stroke:#000000;stroke-linecap:square;stroke-linejoin:miter;"/>
   </g>
   <g id="patch_5">
    <path d="
M47.7781 193.4
L326.778 193.4" style="fill:none;stroke:#000000;stroke-linecap:square;stroke-linejoin:miter;"/>
   </g>
   <g id="patch_6">
    <path d="
M47.7781 193.4
L47.7781 20.6" style="fill:none;stroke:#000000;stroke-linecap:square;stroke-linejoin:miter;"/>
   </g>
   <g id="matplotlib.axis_1">
    <g id="xtick_1">
     <g id="line2d_5">
      <defs>
       <path d="
M0 0
L0 -4" id="mc7db9fdffb" style="stroke:#000000;stroke-width:0.5;"/>
      </defs>
      <g>
       <use style="stroke:#000000;stroke-width:0.5;" x="89.2792690869" xlink:href="#mc7db9fdffb" y="193.4"/>
      </g>
     </g>
     <g id="line2d_6">
      <defs>
       <path d="
M0 0
L0 4" id="m5a7d422ac3" style="stroke:#000000;stroke-width:0.5;"/>
      </defs>
      <g>
       <use style="stroke:#000000;stroke-width:0.5;" x="89.2792690869" xlink:href="#m5a7d422ac3" y="20.6"/>
      </g>
     </g>
     <g id="text_1">
      <!-- $\mathdefault{10^{0}}$ -->
      <defs>
       <path d="
M31.7812 66.4062
Q24.1719 66.4062 20.3281 58.9062
Q16.5 51.4219 16.5 36.375
Q16.5 21.3906 20.3281 13.8906
Q24.1719 6.39062 31.7812 6.39062
Q39.4531 6.39062 43.2812 13.8906
Q47.125 21.3906 47.125 36.375
Q47.125 51.4219 43.2812 58.9062
Q39.4531 66.4062 31.7812 66.4062
M31.7812 74.2188
Q44.0469 74.2188 50.5156 64.5156
Q56.9844 54.8281 56.9844 36.375
Q56.9844 17.9688 50.5156 8.26562
Q44.0469 -1.42188 31.7812 -1.42188
Q19.5312 -1.42188 13.0625 8.26562
Q6.59375 17.9688 6.59375 36.375
Q6.59375 54.8281 13.0625 64.5156
Q19.5312 74.2188 31.7812 74.2188" id="BitstreamVeraSans-Roman-30"/>
       <path d="
M12.4062 8.29688
L28.5156 8.29688
L28.5156 63.9219
L10.9844 60.4062
L10.9844 69.3906
L28.4219 72.9062
L38.2812 72.9062
L38.2812 8.29688
L54.3906 8.29688
L54.3906 0
L12.4062 0
z
" id="BitstreamVeraSans-Roman-31"/>
      </defs>
      <g transform="translate(79.6292690869 206.0203125)scale(0.1 -0.1)">
       <use transform="translate(0.0 0.546875)" xlink:href="#BitstreamVeraSans-Roman-31"/>
       <use transform="translate(63.623046875 0.546875)" xlink:href="#BitstreamVeraSans-Roman-30"/>
       <use transform="translate(127.24609375 53.046875)scale(0.7)" xlink:href="#BitstreamVeraSans-Roman-30"/>
      </g>
     </g>
    </g>
    <g id="xtick_2">
     <g id="line2d_7">
      <g>
       <use style="stroke:#000000;stroke-width:0.5;" x="148.653983065" xlink:href="#mc7db9fdffb" y="193.4"/>
      </g>
     </g>
     <g id="line2d_8">
      <g>
       <use style="stroke:#000000;stroke-width:0.5;" x="148.653983065" xlink:href="#m5a7d422ac3" y="20.6"/>
      </g>
     </g>
     <g id="text_2">
      <!-- $\mathdefault{10^{1}}$ -->
      <g transform="translate(139.003983065 205.9203125)scale(0.1 -0.1)">
       <use transform="translate(0.0 0.46562500000000284)" xlink:href="#BitstreamVeraSans-Roman-31"/>
       <use transform="translate(63.623046875 0.46562500000000284)" xlink:href="#BitstreamVeraSans-Roman-30"/>
       <use transform="translate(127.24609375 52.965625)scale(0.7)" xlink:href="#BitstreamVeraSans-Roman-31"/>
      </g>
     </g>
    </g>
    <g id="xtick_3">
     <g id="line2d_9">
      <g>
       <use style="stroke:#000000;stroke-width:0.5;" x="208.028697043" xlink:href="#mc7db9fdffb" y="193.4"/>
      </g>
     </g>
     <g id="line2d_10">
      <g>
       <use style="stroke:#000000;stroke-width:0.5;" x="208.028697043" xlink:href="#m5a7d422ac3" y="20.6"/>
      </g>
     </g>
     <g id="text_3">
      <!-- $\mathdefault{10^{2}}$ -->
      <defs>
       <path d="
M19.1875 8.29688
L53.6094 8.29688
L53.6094 0
L7.32812 0
L7.32812 8.29688
Q12.9375 14.1094 22.625 23.8906
Q32.3281 33.6875 34.8125 36.5312
Q39.5469 41.8438 41.4219 45.5312
Q43.3125 49.2188 43.3125 52.7812
Q43.3125 58.5938 39.2344 62.25
Q35.1562 65.9219 28.6094 65.9219
Q23.9688 65.9219 18.8125 64.3125
Q13.6719 62.7031 7.8125 59.4219
L7.8125 69.3906
Q13.7656 71.7812 18.9375 73
Q24.125 74.2188 28.4219 74.2188
Q39.75 74.2188 46.4844 68.5469
Q53.2188 62.8906 53.2188 53.4219
Q53.2188 48.9219 51.5312 44.8906
Q49.8594 40.875 45.4062 35.4062
Q44.1875 33.9844 37.6406 27.2188
Q31.1094 20.4531 19.1875 8.29688" id="BitstreamVeraSans-Roman-32"/>
      </defs>
      <g transform="translate(198.378697043 206.0203125)scale(0.1 -0.1)">
       <use transform="translate(0.0 0.546875)" xlink:href="#BitstreamVeraSans-Roman-31"/>
       <use transform="translate(63.623046875 0.546875)" xlink:href="#BitstreamVeraSans-Roman-30"/>
       <use transform="translate(127.24609375 53.046875)scale(0.7)" xlink:href="#BitstreamVeraSans-Roman-32"/>
      </g>
     </g>
    </g>
    <g id="xtick_4">
     <g id="line2d_11">
      <g>
       <use style="stroke:#000000;stroke-width:0.5;" x="267.403411022" xlink:href="#mc7db9fdffb" y="193.4"/>
      </g>
     </g>
     <g id="line2d_12">
      <g>
       <use style="stroke:#000000;stroke-width:0.5;" x="267.403411022" xlink:href="#m5a7d422ac3" y="20.6"/>
      </g>
     </g>
     <g id="text_4">
      <!-- $\mathdefault{10^{3}}$ -->
      <defs>
       <path d="
M40.5781 39.3125
Q47.6562 37.7969 51.625 33
Q55.6094 28.2188 55.6094 21.1875
Q55.6094 10.4062 48.1875 4.48438
Q40.7656 -1.42188 27.0938 -1.42188
Q22.5156 -1.42188 17.6562 -0.515625
Q12.7969 0.390625 7.625 2.20312
L7.625 11.7188
Q11.7188 9.32812 16.5938 8.10938
Q21.4844 6.89062 26.8125 6.89062
Q36.0781 6.89062 40.9375 10.5469
Q45.7969 14.2031 45.7969 21.1875
Q45.7969 27.6406 41.2812 31.2656
Q36.7656 34.9062 28.7188 34.9062
L20.2188 34.9062
L20.2188 43.0156
L29.1094 43.0156
Q36.375 43.0156 40.2344 45.9219
Q44.0938 48.8281 44.0938 54.2969
Q44.0938 59.9062 40.1094 62.9062
Q36.1406 65.9219 28.7188 65.9219
Q24.6562 65.9219 20.0156 65.0312
Q15.375 64.1562 9.8125 62.3125
L9.8125 71.0938
Q15.4375 72.6562 20.3438 73.4375
Q25.25 74.2188 29.5938 74.2188
Q40.8281 74.2188 47.3594 69.1094
Q53.9062 64.0156 53.9062 55.3281
Q53.9062 49.2656 50.4375 45.0938
Q46.9688 40.9219 40.5781 39.3125" id="BitstreamVeraSans-Roman-33"/>
      </defs>
      <g transform="translate(257.753411022 206.0203125)scale(0.1 -0.1)">
       <use transform="translate(0.0 0.546875)" xlink:href="#BitstreamVeraSans-Roman-31"/>
       <use transform="translate(63.623046875 0.546875)" xlink:href="#BitstreamVeraSans-Roman-30"/>
       <use transform="translate(127.24609375 53.046875)scale(0.7)" xlink:href="#BitstreamVeraSans-Roman-33"/>
      </g>
     </g>
    </g>
    <g id="xtick_5">
     <g id="line2d_13">
      <g>
       <use style="stroke:#000000;stroke-width:0.5;" x="326.778125" xlink:href="#mc7db9fdffb" y="193.4"/>
      </g>
     </g>
     <g id="line2d_14">
      <g>
       <use style="stroke:#000000;stroke-width:0.5;" x="326.778125" xlink:href="#m5a7d422ac3" y="20.6"/>
      </g>
     </g>
     <g id="text_5">
      <!-- $\mathdefault{10^{4}}$ -->
      <defs>
       <path d="
M37.7969 64.3125
L12.8906 25.3906
L37.7969 25.3906
z

M35.2031 72.9062
L47.6094 72.9062
L47.6094 25.3906
L58.0156 25.3906
L58.0156 17.1875
L47.6094 17.1875
L47.6094 0
L37.7969 0
L37.7969 17.1875
L4.89062 17.1875
L4.89062 26.7031
z
" id="BitstreamVeraSans-Roman-34"/>
      </defs>
      <g transform="translate(317.128125 205.9203125)scale(0.1 -0.1)">
       <use transform="translate(0.0 0.46562500000000284)" xlink:href="#BitstreamVeraSans-Roman-31"/>
       <use transform="translate(63.623046875 0.46562500000000284)" xlink:href="#BitstreamVeraSans-Roman-30"/>
       <use transform="translate(127.24609375 52.965625)scale(0.7)" xlink:href="#BitstreamVeraSans-Roman-34"/>
      </g>
     </g>
    </g>
    <g id="xtick_6">
     <g id="line2d_15">
      <defs>
       <path d="
M0 0
L0 -2" id="mc21db286a6" style="stroke:#000000;stroke-width:0.5;"/>
      </defs>
      <g>
       <use style="stroke:#000000;stroke-width:0.5;" x="47.778125" xlink:href="#mc21db286a6" y="193.4"/>
      </g>
     </g>
     <g id="line2d_16">
      <defs>
       <path d="
M0 0
L0 2" id="ma9c915e141" style="stroke:#000000;stroke-width:0.5;"/>
      </defs>
      <g>
       <use style="stroke:#000000;stroke-width:0.5;" x="47.778125" xlink:href="#ma9c915e141" y="20.6"/>
      </g>
     </g>
    </g>
    <g id="xtick_7">
     <g id="line2d_17">
      <g>
       <use style="stroke:#000000;stroke-width:0.5;" x="58.2334931405" xlink:href="#mc21db286a6" y="193.4"/>
      </g>
     </g>
     <g id="line2d_18">
      <g>
       <use style="stroke:#000000;stroke-width:0.5;" x="58.2334931405" xlink:href="#ma9c915e141" y="20.6"/>
      </g>
     </g>
    </g>
    <g id="xtick_8">
     <g id="line2d_19">
      <g>
       <use style="stroke:#000000;stroke-width:0.5;" x="65.6516948914" xlink:href="#mc21db286a6" y="193.4"/>
      </g>
     </g>
     <g id="line2d_20">
      <g>
       <use style="stroke:#000000;stroke-width:0.5;" x="65.6516948914" xlink:href="#ma9c915e141" y="20.6"/>
      </g>
     </g>
    </g>
    <g id="xtick_9">
     <g id="line2d_21">
      <g>
       <use style="stroke:#000000;stroke-width:0.5;" x="71.4056991954" xlink:href="#mc21db286a6" y="193.4"/>
      </g>
     </g>
     <g id="line2d_22">
      <g>
       <use style="stroke:#000000;stroke-width:0.5;" x="71.4056991954" xlink:href="#ma9c915e141" y="20.6"/>
      </g>
     </g>
    </g>
    <g id="xtick_10">
     <g id="line2d_23">
      <g>
       <use style="stroke:#000000;stroke-width:0.5;" x="76.1070630319" xlink:href="#mc21db286a6" y="193.4"/>
      </g>
     </g>
     <g id="line2d_24">
      <g>
       <use style="stroke:#000000;stroke-width:0.5;" x="76.1070630319" xlink:href="#ma9c915e141" y="20.6"/>
      </g>
     </g>
    </g>
    <g id="xtick_11">
     <g id="line2d_25">
      <g>
       <use style="stroke:#000000;stroke-width:0.5;" x="80.082009518" xlink:href="#mc21db286a6" y="193.4"/>
      </g>
     </g>
     <g id="line2d_26">
      <g>
       <use style="stroke:#000000;stroke-width:0.5;" x="80.082009518" xlink:href="#ma9c915e141" y="20.6"/>
      </g>
     </g>
    </g>
    <g id="xtick_12">
     <g id="line2d_27">
      <g>
       <use style="stroke:#000000;stroke-width:0.5;" x="83.5252647829" xlink:href="#mc21db286a6" y="193.4"/>
      </g>
     </g>
     <g id="line2d_28">
      <g>
       <use style="stroke:#000000;stroke-width:0.5;" x="83.5252647829" xlink:href="#ma9c915e141" y="20.6"/>
      </g>
     </g>
    </g>
    <g id="xtick_13">
     <g id="line2d_29">
      <g>
       <use style="stroke:#000000;stroke-width:0.5;" x="86.5624311724" xlink:href="#mc21db286a6" y="193.4"/>
      </g>
     </g>
     <g id="line2d_30">
      <g>
       <use style="stroke:#000000;stroke-width:0.5;" x="86.5624311724" xlink:href="#ma9c915e141" y="20.6"/>
      </g>
     </g>
    </g>
    <g id="xtick_14">
     <g id="line2d_31">
      <g>
       <use style="stroke:#000000;stroke-width:0.5;" x="107.152838978" xlink:href="#mc21db286a6" y="193.4"/>
      </g>
     </g>
     <g id="line2d_32">
      <g>
       <use style="stroke:#000000;stroke-width:0.5;" x="107.152838978" xlink:href="#ma9c915e141" y="20.6"/>
      </g>
     </g>
    </g>
    <g id="xtick_15">
     <g id="line2d_33">
      <g>
       <use style="stroke:#000000;stroke-width:0.5;" x="117.608207119" xlink:href="#mc21db286a6" y="193.4"/>
      </g>
     </g>
     <g id="line2d_34">
      <g>
       <use style="stroke:#000000;stroke-width:0.5;" x="117.608207119" xlink:href="#ma9c915e141" y="20.6"/>
      </g>
     </g>
    </g>
    <g id="xtick_16">
     <g id="line2d_35">
      <g>
       <use style="stroke:#000000;stroke-width:0.5;" x="125.02640887" xlink:href="#mc21db286a6" y="193.4"/>
      </g>
     </g>
     <g id="line2d_36">
      <g>
       <use style="stroke:#000000;stroke-width:0.5;" x="125.02640887" xlink:href="#ma9c915e141" y="20.6"/>
      </g>
     </g>
    </g>
    <g id="xtick_17">
     <g id="line2d_37">
      <g>
       <use style="stroke:#000000;stroke-width:0.5;" x="130.780413174" xlink:href="#mc21db286a6" y="193.4"/>
      </g>
     </g>
     <g id="line2d_38">
      <g>
       <use style="stroke:#000000;stroke-width:0.5;" x="130.780413174" xlink:href="#ma9c915e141" y="20.6"/>
      </g>
     </g>
    </g>
    <g id="xtick_18">
     <g id="line2d_39">
      <g>
       <use style="stroke:#000000;stroke-width:0.5;" x="135.48177701" xlink:href="#mc21db286a6" y="193.4"/>
      </g>
     </g>
     <g id="line2d_40">
      <g>
       <use style="stroke:#000000;stroke-width:0.5;" x="135.48177701" xlink:href="#ma9c915e141" y="20.6"/>
      </g>
     </g>
    </g>
    <g id="xtick_19">
     <g id="line2d_41">
      <g>
       <use style="stroke:#000000;stroke-width:0.5;" x="139.456723496" xlink:href="#mc21db286a6" y="193.4"/>
      </g>
     </g>
     <g id="line2d_42">
      <g>
       <use style="stroke:#000000;stroke-width:0.5;" x="139.456723496" xlink:href="#ma9c915e141" y="20.6"/>
      </g>
     </g>
    </g>
    <g id="xtick_20">
     <g id="line2d_43">
      <g>
       <use style="stroke:#000000;stroke-width:0.5;" x="142.899978761" xlink:href="#mc21db286a6" y="193.4"/>
      </g>
     </g>
     <g id="line2d_44">
      <g>
       <use style="stroke:#000000;stroke-width:0.5;" x="142.899978761" xlink:href="#ma9c915e141" y="20.6"/>
      </g>
     </g>
    </g>
    <g id="xtick_21">
     <g id="line2d_45">
      <g>
       <use style="stroke:#000000;stroke-width:0.5;" x="145.937145151" xlink:href="#mc21db286a6" y="193.4"/>
      </g>
     </g>
     <g id="line2d_46">
      <g>
       <use style="stroke:#000000;stroke-width:0.5;" x="145.937145151" xlink:href="#ma9c915e141" y="20.6"/>
      </g>
     </g>
    </g>
    <g id="xtick_22">
     <g id="line2d_47">
      <g>
       <use style="stroke:#000000;stroke-width:0.5;" x="166.527552957" xlink:href="#mc21db286a6" y="193.4"/>
      </g>
     </g>
     <g id="line2d_48">
      <g>
       <use style="stroke:#000000;stroke-width:0.5;" x="166.527552957" xlink:href="#ma9c915e141" y="20.6"/>
      </g>
     </g>
    </g>
    <g id="xtick_23">
     <g id="line2d_49">
      <g>
       <use style="stroke:#000000;stroke-width:0.5;" x="176.982921097" xlink:href="#mc21db286a6" y="193.4"/>
      </g>
     </g>
     <g id="line2d_50">
      <g>
       <use style="stroke:#000000;stroke-width:0.5;" x="176.982921097" xlink:href="#ma9c915e141" y="20.6"/>
      </g>
     </g>
    </g>
    <g id="xtick_24">
     <g id="line2d_51">
      <g>
       <use style="stroke:#000000;stroke-width:0.5;" x="184.401122848" xlink:href="#mc21db286a6" y="193.4"/>
      </g>
     </g>
     <g id="line2d_52">
      <g>
       <use style="stroke:#000000;stroke-width:0.5;" x="184.401122848" xlink:href="#ma9c915e141" y="20.6"/>
      </g>
     </g>
    </g>
    <g id="xtick_25">
     <g id="line2d_53">
      <g>
       <use style="stroke:#000000;stroke-width:0.5;" x="190.155127152" xlink:href="#mc21db286a6" y="193.4"/>
      </g>
     </g>
     <g id="line2d_54">
      <g>
       <use style="stroke:#000000;stroke-width:0.5;" x="190.155127152" xlink:href="#ma9c915e141" y="20.6"/>
      </g>
     </g>
    </g>
    <g id="xtick_26">
     <g id="line2d_55">
      <g>
       <use style="stroke:#000000;stroke-width:0.5;" x="194.856490989" xlink:href="#mc21db286a6" y="193.4"/>
      </g>
     </g>
     <g id="line2d_56">
      <g>
       <use style="stroke:#000000;stroke-width:0.5;" x="194.856490989" xlink:href="#ma9c915e141" y="20.6"/>
      </g>
     </g>
    </g>
    <g id="xtick_27">
     <g id="line2d_57">
      <g>
       <use style="stroke:#000000;stroke-width:0.5;" x="198.831437475" xlink:href="#mc21db286a6" y="193.4"/>
      </g>
     </g>
     <g id="line2d_58">
      <g>
       <use style="stroke:#000000;stroke-width:0.5;" x="198.831437475" xlink:href="#ma9c915e141" y="20.6"/>
      </g>
     </g>
    </g>
    <g id="xtick_28">
     <g id="line2d_59">
      <g>
       <use style="stroke:#000000;stroke-width:0.5;" x="202.274692739" xlink:href="#mc21db286a6" y="193.4"/>
      </g>
     </g>
     <g id="line2d_60">
      <g>
       <use style="stroke:#000000;stroke-width:0.5;" x="202.274692739" xlink:href="#ma9c915e141" y="20.6"/>
      </g>
     </g>
    </g>
    <g id="xtick_29">
     <g id="line2d_61">
      <g>
       <use style="stroke:#000000;stroke-width:0.5;" x="205.311859129" xlink:href="#mc21db286a6" y="193.4"/>
      </g>
     </g>
     <g id="line2d_62">
      <g>
       <use style="stroke:#000000;stroke-width:0.5;" x="205.311859129" xlink:href="#ma9c915e141" y="20.6"/>
      </g>
     </g>
    </g>
    <g id="xtick_30">
     <g id="line2d_63">
      <g>
       <use style="stroke:#000000;stroke-width:0.5;" x="225.902266935" xlink:href="#mc21db286a6" y="193.4"/>
      </g>
     </g>
     <g id="line2d_64">
      <g>
       <use style="stroke:#000000;stroke-width:0.5;" x="225.902266935" xlink:href="#ma9c915e141" y="20.6"/>
      </g>
     </g>
    </g>
    <g id="xtick_31">
     <g id="line2d_65">
      <g>
       <use style="stroke:#000000;stroke-width:0.5;" x="236.357635075" xlink:href="#mc21db286a6" y="193.4"/>
      </g>
     </g>
     <g id="line2d_66">
      <g>
       <use style="stroke:#000000;stroke-width:0.5;" x="236.357635075" xlink:href="#ma9c915e141" y="20.6"/>
      </g>
     </g>
    </g>
    <g id="xtick_32">
     <g id="line2d_67">
      <g>
       <use style="stroke:#000000;stroke-width:0.5;" x="243.775836826" xlink:href="#mc21db286a6" y="193.4"/>
      </g>
     </g>
     <g id="line2d_68">
      <g>
       <use style="stroke:#000000;stroke-width:0.5;" x="243.775836826" xlink:href="#ma9c915e141" y="20.6"/>
      </g>
     </g>
    </g>
    <g id="xtick_33">
     <g id="line2d_69">
      <g>
       <use style="stroke:#000000;stroke-width:0.5;" x="249.52984113" xlink:href="#mc21db286a6" y="193.4"/>
      </g>
     </g>
     <g id="line2d_70">
      <g>
       <use style="stroke:#000000;stroke-width:0.5;" x="249.52984113" xlink:href="#ma9c915e141" y="20.6"/>
      </g>
     </g>
    </g>
    <g id="xtick_34">
     <g id="line2d_71">
      <g>
       <use style="stroke:#000000;stroke-width:0.5;" x="254.231204967" xlink:href="#mc21db286a6" y="193.4"/>
      </g>
     </g>
     <g id="line2d_72">
      <g>
       <use style="stroke:#000000;stroke-width:0.5;" x="254.231204967" xlink:href="#ma9c915e141" y="20.6"/>
      </g>
     </g>
    </g>
    <g id="xtick_35">
     <g id="line2d_73">
      <g>
       <use style="stroke:#000000;stroke-width:0.5;" x="258.206151453" xlink:href="#mc21db286a6" y="193.4"/>
      </g>
     </g>
     <g id="line2d_74">
      <g>
       <use style="stroke:#000000;stroke-width:0.5;" x="258.206151453" xlink:href="#ma9c915e141" y="20.6"/>
      </g>
     </g>
    </g>
    <g id="xtick_36">
     <g id="line2d_75">
      <g>
       <use style="stroke:#000000;stroke-width:0.5;" x="261.649406718" xlink:href="#mc21db286a6" y="193.4"/>
      </g>
     </g>
     <g id="line2d_76">
      <g>
       <use style="stroke:#000000;stroke-width:0.5;" x="261.649406718" xlink:href="#ma9c915e141" y="20.6"/>
      </g>
     </g>
    </g>
    <g id="xtick_37">
     <g id="line2d_77">
      <g>
       <use style="stroke:#000000;stroke-width:0.5;" x="264.686573107" xlink:href="#mc21db286a6" y="193.4"/>
      </g>
     </g>
     <g id="line2d_78">
      <g>
       <use style="stroke:#000000;stroke-width:0.5;" x="264.686573107" xlink:href="#ma9c915e141" y="20.6"/>
      </g>
     </g>
    </g>
    <g id="xtick_38">
     <g id="line2d_79">
      <g>
       <use style="stroke:#000000;stroke-width:0.5;" x="285.276980913" xlink:href="#mc21db286a6" y="193.4"/>
      </g>
     </g>
     <g id="line2d_80">
      <g>
       <use style="stroke:#000000;stroke-width:0.5;" x="285.276980913" xlink:href="#ma9c915e141" y="20.6"/>
      </g>
     </g>
    </g>
    <g id="xtick_39">
     <g id="line2d_81">
      <g>
       <use style="stroke:#000000;stroke-width:0.5;" x="295.732349054" xlink:href="#mc21db286a6" y="193.4"/>
      </g>
     </g>
     <g id="line2d_82">
      <g>
       <use style="stroke:#000000;stroke-width:0.5;" x="295.732349054" xlink:href="#ma9c915e141" y="20.6"/>
      </g>
     </g>
    </g>
    <g id="xtick_40">
     <g id="line2d_83">
      <g>
       <use style="stroke:#000000;stroke-width:0.5;" x="303.150550805" xlink:href="#mc21db286a6" y="193.4"/>
      </g>
     </g>
     <g id="line2d_84">
      <g>
       <use style="stroke:#000000;stroke-width:0.5;" x="303.150550805" xlink:href="#ma9c915e141" y="20.6"/>
      </g>
     </g>
    </g>
    <g id="xtick_41">
     <g id="line2d_85">
      <g>
       <use style="stroke:#000000;stroke-width:0.5;" x="308.904555109" xlink:href="#mc21db286a6" y="193.4"/>
      </g>
     </g>
     <g id="line2d_86">
      <g>
       <use style="stroke:#000000;stroke-width:0.5;" x="308.904555109" xlink:href="#ma9c915e141" y="20.6"/>
      </g>
     </g>
    </g>
    <g id="xtick_42">
     <g id="line2d_87">
      <g>
       <use style="stroke:#000000;stroke-width:0.5;" x="313.605918945" xlink:href="#mc21db286a6" y="193.4"/>
      </g>
     </g>
     <g id="line2d_88">
      <g>
       <use style="stroke:#000000;stroke-width:0.5;" x="313.605918945" xlink:href="#ma9c915e141" y="20.6"/>
      </g>
     </g>
    </g>
    <g id="xtick_43">
     <g id="line2d_89">
      <g>
       <use style="stroke:#000000;stroke-width:0.5;" x="317.580865431" xlink:href="#mc21db286a6" y="193.4"/>
      </g>
     </g>
     <g id="line2d_90">
      <g>
       <use style="stroke:#000000;stroke-width:0.5;" x="317.580865431" xlink:href="#ma9c915e141" y="20.6"/>
      </g>
     </g>
    </g>
    <g id="xtick_44">
     <g id="line2d_91">
      <g>
       <use style="stroke:#000000;stroke-width:0.5;" x="321.024120696" xlink:href="#mc21db286a6" y="193.4"/>
      </g>
     </g>
     <g id="line2d_92">
      <g>
       <use style="stroke:#000000;stroke-width:0.5;" x="321.024120696" xlink:href="#ma9c915e141" y="20.6"/>
      </g>
     </g>
    </g>
    <g id="xtick_45">
     <g id="line2d_93">
      <g>
       <use style="stroke:#000000;stroke-width:0.5;" x="324.061287086" xlink:href="#mc21db286a6" y="193.4"/>
      </g>
     </g>
     <g id="line2d_94">
      <g>
       <use style="stroke:#000000;stroke-width:0.5;" x="324.061287086" xlink:href="#ma9c915e141" y="20.6"/>
      </g>
     </g>
    </g>
    <g id="text_6">
     <!-- Time -->
     <defs>
      <path d="
M52 44.1875
Q55.375 50.25 60.0625 53.125
Q64.75 56 71.0938 56
Q79.6406 56 84.2812 50.0156
Q88.9219 44.0469 88.9219 33.0156
L88.9219 0
L79.8906 0
L79.8906 32.7188
Q79.8906 40.5781 77.0938 44.375
Q74.3125 48.1875 68.6094 48.1875
Q61.625 48.1875 57.5625 43.5469
Q53.5156 38.9219 53.5156 30.9062
L53.5156 0
L44.4844 0
L44.4844 32.7188
Q44.4844 40.625 41.7031 44.4062
Q38.9219 48.1875 33.1094 48.1875
Q26.2188 48.1875 22.1562 43.5312
Q18.1094 38.875 18.1094 30.9062
L18.1094 0
L9.07812 0
L9.07812 54.6875
L18.1094 54.6875
L18.1094 46.1875
Q21.1875 51.2188 25.4844 53.6094
Q29.7812 56 35.6875 56
Q41.6562 56 45.8281 52.9688
Q50 49.9531 52 44.1875" id="BitstreamVeraSans-Roman-6d"/>
      <path d="
M9.42188 54.6875
L18.4062 54.6875
L18.4062 0
L9.42188 0
z

M9.42188 75.9844
L18.4062 75.9844
L18.4062 64.5938
L9.42188 64.5938
z
" id="BitstreamVeraSans-Roman-69"/>
      <path d="
M-0.296875 72.9062
L61.375 72.9062
L61.375 64.5938
L35.5 64.5938
L35.5 0
L25.5938 0
L25.5938 64.5938
L-0.296875 64.5938
z
" id="BitstreamVeraSans-Roman-54"/>
      <path d="
M56.2031 29.5938
L56.2031 25.2031
L14.8906 25.2031
Q15.4844 15.9219 20.4844 11.0625
Q25.4844 6.20312 34.4219 6.20312
Q39.5938 6.20312 44.4531 7.46875
Q49.3125 8.73438 54.1094 11.2812
L54.1094 2.78125
Q49.2656 0.734375 44.1875 -0.34375
Q39.1094 -1.42188 33.8906 -1.42188
Q20.7969 -1.42188 13.1562 6.1875
Q5.51562 13.8125 5.51562 26.8125
Q5.51562 40.2344 12.7656 48.1094
Q20.0156 56 32.3281 56
Q43.3594 56 49.7812 48.8906
Q56.2031 41.7969 56.2031 29.5938
M47.2188 32.2344
Q47.125 39.5938 43.0938 43.9844
Q39.0625 48.3906 32.4219 48.3906
Q24.9062 48.3906 20.3906 44.1406
Q15.875 39.8906 15.1875 32.1719
z
" id="BitstreamVeraSans-Roman-65"/>
     </defs>
     <g transform="translate(175.29609375 220.6984375)scale(0.1 -0.1)">
      <use xlink:href="#BitstreamVeraSans-Roman-54"/>
      <use x="57.958984375" xlink:href="#BitstreamVeraSans-Roman-69"/>
      <use x="85.7421875" xlink:href="#BitstreamVeraSans-Roman-6d"/>
      <use x="183.154296875" xlink:href="#BitstreamVeraSans-Roman-65"/>
     </g>
    </g>
   </g>
   <g id="matplotlib.axis_2">
    <g id="ytick_1">
     <g id="line2d_95">
      <defs>
       <path d="
M0 0
L4 0" id="md7965d1ba0" style="stroke:#000000;stroke-width:0.5;"/>
      </defs>
      <g>
       <use style="stroke:#000000;stroke-width:0.5;" x="47.778125" xlink:href="#md7965d1ba0" y="167.752382322"/>
      </g>
     </g>
     <g id="line2d_96">
      <defs>
       <path d="
M0 0
L-4 0" id="md9a1c1a7cd" style="stroke:#000000;stroke-width:0.5;"/>
      </defs>
      <g>
       <use style="stroke:#000000;stroke-width:0.5;" x="326.778125" xlink:href="#md9a1c1a7cd" y="167.752382322"/>
      </g>
     </g>
     <g id="text_7">
      <!-- $\mathdefault{10^{-1}}$ -->
      <defs>
       <path d="
M4.89062 31.3906
L31.2031 31.3906
L31.2031 23.3906
L4.89062 23.3906
z
" id="BitstreamVeraSans-Roman-2d"/>
      </defs>
      <g transform="translate(21.878125 170.972694822)scale(0.1 -0.1)">
       <use transform="translate(0.0 0.46562500000000284)" xlink:href="#BitstreamVeraSans-Roman-31"/>
       <use transform="translate(63.623046875 0.46562500000000284)" xlink:href="#BitstreamVeraSans-Roman-30"/>
       <use transform="translate(127.24609375 52.965625)scale(0.7)" xlink:href="#BitstreamVeraSans-Roman-2d"/>
       <use transform="translate(152.5048828125 52.965625)scale(0.7)" xlink:href="#BitstreamVeraSans-Roman-31"/>
      </g>
     </g>
    </g>
    <g id="ytick_2">
     <g id="line2d_97">
      <g>
       <use style="stroke:#000000;stroke-width:0.5;" x="47.778125" xlink:href="#md7965d1ba0" y="118.701588215"/>
      </g>
     </g>
     <g id="line2d_98">
      <g>
       <use style="stroke:#000000;stroke-width:0.5;" x="326.778125" xlink:href="#md9a1c1a7cd" y="118.701588215"/>
      </g>
     </g>
     <g id="text_8">
      <!-- $\mathdefault{10^{0}}$ -->
      <g transform="translate(24.478125 121.971900715)scale(0.1 -0.1)">
       <use transform="translate(0.0 0.546875)" xlink:href="#BitstreamVeraSans-Roman-31"/>
       <use transform="translate(63.623046875 0.546875)" xlink:href="#BitstreamVeraSans-Roman-30"/>
       <use transform="translate(127.24609375 53.046875)scale(0.7)" xlink:href="#BitstreamVeraSans-Roman-30"/>
      </g>
     </g>
    </g>
    <g id="ytick_3">
     <g id="line2d_99">
      <g>
       <use style="stroke:#000000;stroke-width:0.5;" x="47.778125" xlink:href="#md7965d1ba0" y="69.6507941074"/>
      </g>
     </g>
     <g id="line2d_100">
      <g>
       <use style="stroke:#000000;stroke-width:0.5;" x="326.778125" xlink:href="#md9a1c1a7cd" y="69.6507941074"/>
      </g>
     </g>
     <g id="text_9">
      <!-- $\mathdefault{10^{1}}$ -->
      <g transform="translate(24.478125 72.8711066074)scale(0.1 -0.1)">
       <use transform="translate(0.0 0.46562500000000284)" xlink:href="#BitstreamVeraSans-Roman-31"/>
       <use transform="translate(63.623046875 0.46562500000000284)" xlink:href="#BitstreamVeraSans-Roman-30"/>
       <use transform="translate(127.24609375 52.965625)scale(0.7)" xlink:href="#BitstreamVeraSans-Roman-31"/>
      </g>
     </g>
    </g>
    <g id="ytick_4">
     <g id="line2d_101">
      <g>
       <use style="stroke:#000000;stroke-width:0.5;" x="47.778125" xlink:href="#md7965d1ba0" y="20.6"/>
      </g>
     </g>
     <g id="line2d_102">
      <g>
       <use style="stroke:#000000;stroke-width:0.5;" x="326.778125" xlink:href="#md9a1c1a7cd" y="20.6"/>
      </g>
     </g>
     <g id="text_10">
      <!-- $\mathdefault{10^{2}}$ -->
      <g transform="translate(24.478125 23.8703125)scale(0.1 -0.1)">
       <use transform="translate(0.0 0.546875)" xlink:href="#BitstreamVeraSans-Roman-31"/>
       <use transform="translate(63.623046875 0.546875)" xlink:href="#BitstreamVeraSans-Roman-30"/>
       <use transform="translate(127.24609375 53.046875)scale(0.7)" xlink:href="#BitstreamVeraSans-Roman-32"/>
      </g>
     </g>
    </g>
    <g id="ytick_5">
     <g id="line2d_103">
      <defs>
       <path d="
M0 0
L2 0" id="m8d45281ad4" style="stroke:#000000;stroke-width:0.5;"/>
      </defs>
      <g>
       <use style="stroke:#000000;stroke-width:0.5;" x="47.778125" xlink:href="#m8d45281ad4" y="193.4"/>
      </g>
     </g>
     <g id="line2d_104">
      <defs>
       <path d="
M0 0
L-2 0" id="me3f9b4022a" style="stroke:#000000;stroke-width:0.5;"/>
      </defs>
      <g>
       <use style="stroke:#000000;stroke-width:0.5;" x="326.778125" xlink:href="#me3f9b4022a" y="193.4"/>
      </g>
     </g>
    </g>
    <g id="ytick_6">
     <g id="line2d_105">
      <g>
       <use style="stroke:#000000;stroke-width:0.5;" x="47.778125" xlink:href="#m8d45281ad4" y="187.271655755"/>
      </g>
     </g>
     <g id="line2d_106">
      <g>
       <use style="stroke:#000000;stroke-width:0.5;" x="326.778125" xlink:href="#me3f9b4022a" y="187.271655755"/>
      </g>
     </g>
    </g>
    <g id="ytick_7">
     <g id="line2d_107">
      <g>
       <use style="stroke:#000000;stroke-width:0.5;" x="47.778125" xlink:href="#m8d45281ad4" y="182.51814266"/>
      </g>
     </g>
     <g id="line2d_108">
      <g>
       <use style="stroke:#000000;stroke-width:0.5;" x="326.778125" xlink:href="#me3f9b4022a" y="182.51814266"/>
      </g>
     </g>
    </g>
    <g id="ytick_8">
     <g id="line2d_109">
      <g>
       <use style="stroke:#000000;stroke-width:0.5;" x="47.778125" xlink:href="#m8d45281ad4" y="178.634239663"/>
      </g>
     </g>
     <g id="line2d_110">
      <g>
       <use style="stroke:#000000;stroke-width:0.5;" x="326.778125" xlink:href="#me3f9b4022a" y="178.634239663"/>
      </g>
     </g>
    </g>
    <g id="ytick_9">
     <g id="line2d_111">
      <g>
       <use style="stroke:#000000;stroke-width:0.5;" x="47.778125" xlink:href="#m8d45281ad4" y="175.350446468"/>
      </g>
     </g>
     <g id="line2d_112">
      <g>
       <use style="stroke:#000000;stroke-width:0.5;" x="326.778125" xlink:href="#me3f9b4022a" y="175.350446468"/>
      </g>
     </g>
    </g>
    <g id="ytick_10">
     <g id="line2d_113">
      <g>
       <use style="stroke:#000000;stroke-width:0.5;" x="47.778125" xlink:href="#m8d45281ad4" y="172.505895417"/>
      </g>
     </g>
     <g id="line2d_114">
      <g>
       <use style="stroke:#000000;stroke-width:0.5;" x="326.778125" xlink:href="#me3f9b4022a" y="172.505895417"/>
      </g>
     </g>
    </g>
    <g id="ytick_11">
     <g id="line2d_115">
      <g>
       <use style="stroke:#000000;stroke-width:0.5;" x="47.778125" xlink:href="#m8d45281ad4" y="169.99682357"/>
      </g>
     </g>
     <g id="line2d_116">
      <g>
       <use style="stroke:#000000;stroke-width:0.5;" x="326.778125" xlink:href="#me3f9b4022a" y="169.99682357"/>
      </g>
     </g>
    </g>
    <g id="ytick_12">
     <g id="line2d_117">
      <g>
       <use style="stroke:#000000;stroke-width:0.5;" x="47.778125" xlink:href="#m8d45281ad4" y="152.986621985"/>
      </g>
     </g>
     <g id="line2d_118">
      <g>
       <use style="stroke:#000000;stroke-width:0.5;" x="326.778125" xlink:href="#me3f9b4022a" y="152.986621985"/>
      </g>
     </g>
    </g>
    <g id="ytick_13">
     <g id="line2d_119">
      <g>
       <use style="stroke:#000000;stroke-width:0.5;" x="47.778125" xlink:href="#m8d45281ad4" y="144.349205893"/>
      </g>
     </g>
     <g id="line2d_120">
      <g>
       <use style="stroke:#000000;stroke-width:0.5;" x="326.778125" xlink:href="#me3f9b4022a" y="144.349205893"/>
      </g>
     </g>
    </g>
    <g id="ytick_14">
     <g id="line2d_121">
      <g>
       <use style="stroke:#000000;stroke-width:0.5;" x="47.778125" xlink:href="#m8d45281ad4" y="138.220861647"/>
      </g>
     </g>
     <g id="line2d_122">
      <g>
       <use style="stroke:#000000;stroke-width:0.5;" x="326.778125" xlink:href="#me3f9b4022a" y="138.220861647"/>
      </g>
     </g>
    </g>
    <g id="ytick_15">
     <g id="line2d_123">
      <g>
       <use style="stroke:#000000;stroke-width:0.5;" x="47.778125" xlink:href="#m8d45281ad4" y="133.467348552"/>
      </g>
     </g>
     <g id="line2d_124">
      <g>
       <use style="stroke:#000000;stroke-width:0.5;" x="326.778125" xlink:href="#me3f9b4022a" y="133.467348552"/>
      </g>
     </g>
    </g>
    <g id="ytick_16">
     <g id="line2d_125">
      <g>
       <use style="stroke:#000000;stroke-width:0.5;" x="47.778125" xlink:href="#m8d45281ad4" y="129.583445555"/>
      </g>
     </g>
     <g id="line2d_126">
      <g>
       <use style="stroke:#000000;stroke-width:0.5;" x="326.778125" xlink:href="#me3f9b4022a" y="129.583445555"/>
      </g>
     </g>
    </g>
    <g id="ytick_17">
     <g id="line2d_127">
      <g>
       <use style="stroke:#000000;stroke-width:0.5;" x="47.778125" xlink:href="#m8d45281ad4" y="126.299652361"/>
      </g>
     </g>
     <g id="line2d_128">
      <g>
       <use style="stroke:#000000;stroke-width:0.5;" x="326.778125" xlink:href="#me3f9b4022a" y="126.299652361"/>
      </g>
     </g>
    </g>
    <g id="ytick_18">
     <g id="line2d_129">
      <g>
       <use style="stroke:#000000;stroke-width:0.5;" x="47.778125" xlink:href="#m8d45281ad4" y="123.45510131"/>
      </g>
     </g>
     <g id="line2d_130">
      <g>
       <use style="stroke:#000000;stroke-width:0.5;" x="326.778125" xlink:href="#me3f9b4022a" y="123.45510131"/>
      </g>
     </g>
    </g>
    <g id="ytick_19">
     <g id="line2d_131">
      <g>
       <use style="stroke:#000000;stroke-width:0.5;" x="47.778125" xlink:href="#m8d45281ad4" y="120.946029463"/>
      </g>
     </g>
     <g id="line2d_132">
      <g>
       <use style="stroke:#000000;stroke-width:0.5;" x="326.778125" xlink:href="#me3f9b4022a" y="120.946029463"/>
      </g>
     </g>
    </g>
    <g id="ytick_20">
     <g id="line2d_133">
      <g>
       <use style="stroke:#000000;stroke-width:0.5;" x="47.778125" xlink:href="#m8d45281ad4" y="103.935827877"/>
      </g>
     </g>
     <g id="line2d_134">
      <g>
       <use style="stroke:#000000;stroke-width:0.5;" x="326.778125" xlink:href="#me3f9b4022a" y="103.935827877"/>
      </g>
     </g>
    </g>
    <g id="ytick_21">
     <g id="line2d_135">
      <g>
       <use style="stroke:#000000;stroke-width:0.5;" x="47.778125" xlink:href="#m8d45281ad4" y="95.2984117852"/>
      </g>
     </g>
     <g id="line2d_136">
      <g>
       <use style="stroke:#000000;stroke-width:0.5;" x="326.778125" xlink:href="#me3f9b4022a" y="95.2984117852"/>
      </g>
     </g>
    </g>
    <g id="ytick_22">
     <g id="line2d_137">
      <g>
       <use style="stroke:#000000;stroke-width:0.5;" x="47.778125" xlink:href="#m8d45281ad4" y="89.1700675398"/>
      </g>
     </g>
     <g id="line2d_138">
      <g>
       <use style="stroke:#000000;stroke-width:0.5;" x="326.778125" xlink:href="#me3f9b4022a" y="89.1700675398"/>
      </g>
     </g>
    </g>
    <g id="ytick_23">
     <g id="line2d_139">
      <g>
       <use style="stroke:#000000;stroke-width:0.5;" x="47.778125" xlink:href="#m8d45281ad4" y="84.4165544448"/>
      </g>
     </g>
     <g id="line2d_140">
      <g>
       <use style="stroke:#000000;stroke-width:0.5;" x="326.778125" xlink:href="#me3f9b4022a" y="84.4165544448"/>
      </g>
     </g>
    </g>
    <g id="ytick_24">
     <g id="line2d_141">
      <g>
       <use style="stroke:#000000;stroke-width:0.5;" x="47.778125" xlink:href="#m8d45281ad4" y="80.5326514478"/>
      </g>
     </g>
     <g id="line2d_142">
      <g>
       <use style="stroke:#000000;stroke-width:0.5;" x="326.778125" xlink:href="#me3f9b4022a" y="80.5326514478"/>
      </g>
     </g>
    </g>
    <g id="ytick_25">
     <g id="line2d_143">
      <g>
       <use style="stroke:#000000;stroke-width:0.5;" x="47.778125" xlink:href="#m8d45281ad4" y="77.2488582535"/>
      </g>
     </g>
     <g id="line2d_144">
      <g>
       <use style="stroke:#000000;stroke-width:0.5;" x="326.778125" xlink:href="#me3f9b4022a" y="77.2488582535"/>
      </g>
     </g>
    </g>
    <g id="ytick_26">
     <g id="line2d_145">
      <g>
       <use style="stroke:#000000;stroke-width:0.5;" x="47.778125" xlink:href="#m8d45281ad4" y="74.4043072024"/>
      </g>
     </g>
     <g id="line2d_146">
      <g>
       <use style="stroke:#000000;stroke-width:0.5;" x="326.778125" xlink:href="#me3f9b4022a" y="74.4043072024"/>
      </g>
     </g>
    </g>
    <g id="ytick_27">
     <g id="line2d_147">
      <g>
       <use style="stroke:#000000;stroke-width:0.5;" x="47.778125" xlink:href="#m8d45281ad4" y="71.8952353557"/>
      </g>
     </g>
     <g id="line2d_148">
      <g>
       <use style="stroke:#000000;stroke-width:0.5;" x="326.778125" xlink:href="#me3f9b4022a" y="71.8952353557"/>
      </g>
     </g>
    </g>
    <g id="ytick_28">
     <g id="line2d_149">
      <g>
       <use style="stroke:#000000;stroke-width:0.5;" x="47.778125" xlink:href="#m8d45281ad4" y="54.8850337699"/>
      </g>
     </g>
     <g id="line2d_150">
      <g>
       <use style="stroke:#000000;stroke-width:0.5;" x="326.778125" xlink:href="#me3f9b4022a" y="54.8850337699"/>
      </g>
     </g>
    </g>
    <g id="ytick_29">
     <g id="line2d_151">
      <g>
       <use style="stroke:#000000;stroke-width:0.5;" x="47.778125" xlink:href="#m8d45281ad4" y="46.2476176779"/>
      </g>
     </g>
     <g id="line2d_152">
      <g>
       <use style="stroke:#000000;stroke-width:0.5;" x="326.778125" xlink:href="#me3f9b4022a" y="46.2476176779"/>
      </g>
     </g>
    </g>
    <g id="ytick_30">
     <g id="line2d_153">
      <g>
       <use style="stroke:#000000;stroke-width:0.5;" x="47.778125" xlink:href="#m8d45281ad4" y="40.1192734325"/>
      </g>
     </g>
     <g id="line2d_154">
      <g>
       <use style="stroke:#000000;stroke-width:0.5;" x="326.778125" xlink:href="#me3f9b4022a" y="40.1192734325"/>
      </g>
     </g>
    </g>
    <g id="ytick_31">
     <g id="line2d_155">
      <g>
       <use style="stroke:#000000;stroke-width:0.5;" x="47.778125" xlink:href="#m8d45281ad4" y="35.3657603375"/>
      </g>
     </g>
     <g id="line2d_156">
      <g>
       <use style="stroke:#000000;stroke-width:0.5;" x="326.778125" xlink:href="#me3f9b4022a" y="35.3657603375"/>
      </g>
     </g>
    </g>
    <g id="ytick_32">
     <g id="line2d_157">
      <g>
       <use style="stroke:#000000;stroke-width:0.5;" x="47.778125" xlink:href="#m8d45281ad4" y="31.4818573404"/>
      </g>
     </g>
     <g id="line2d_158">
      <g>
       <use style="stroke:#000000;stroke-width:0.5;" x="326.778125" xlink:href="#me3f9b4022a" y="31.4818573404"/>
      </g>
     </g>
    </g>
    <g id="ytick_33">
     <g id="line2d_159">
      <g>
       <use style="stroke:#000000;stroke-width:0.5;" x="47.778125" xlink:href="#m8d45281ad4" y="28.1980641461"/>
      </g>
     </g>
     <g id="line2d_160">
      <g>
       <use style="stroke:#000000;stroke-width:0.5;" x="326.778125" xlink:href="#me3f9b4022a" y="28.1980641461"/>
      </g>
     </g>
    </g>
    <g id="ytick_34">
     <g id="line2d_161">
      <g>
       <use style="stroke:#000000;stroke-width:0.5;" x="47.778125" xlink:href="#m8d45281ad4" y="25.353513095"/>
      </g>
     </g>
     <g id="line2d_162">
      <g>
       <use style="stroke:#000000;stroke-width:0.5;" x="326.778125" xlink:href="#me3f9b4022a" y="25.353513095"/>
      </g>
     </g>
    </g>
    <g id="ytick_35">
     <g id="line2d_163">
      <g>
       <use style="stroke:#000000;stroke-width:0.5;" x="47.778125" xlink:href="#m8d45281ad4" y="22.8444412484"/>
      </g>
     </g>
     <g id="line2d_164">
      <g>
       <use style="stroke:#000000;stroke-width:0.5;" x="326.778125" xlink:href="#me3f9b4022a" y="22.8444412484"/>
      </g>
     </g>
    </g>
    <g id="text_11">
     <!-- MSD -->
     <defs>
      <path d="
M19.6719 64.7969
L19.6719 8.10938
L31.5938 8.10938
Q46.6875 8.10938 53.6875 14.9375
Q60.6875 21.7812 60.6875 36.5312
Q60.6875 51.1719 53.6875 57.9844
Q46.6875 64.7969 31.5938 64.7969
z

M9.8125 72.9062
L30.0781 72.9062
Q51.2656 72.9062 61.1719 64.0938
Q71.0938 55.2812 71.0938 36.5312
Q71.0938 17.6719 61.125 8.82812
Q51.1719 0 30.0781 0
L9.8125 0
z
" id="BitstreamVeraSans-Roman-44"/>
      <path d="
M9.8125 72.9062
L24.5156 72.9062
L43.1094 23.2969
L61.8125 72.9062
L76.5156 72.9062
L76.5156 0
L66.8906 0
L66.8906 64.0156
L48.0938 14.0156
L38.1875 14.0156
L19.3906 64.0156
L19.3906 0
L9.8125 0
z
" id="BitstreamVeraSans-Roman-4d"/>
      <path d="
M53.5156 70.5156
L53.5156 60.8906
Q47.9062 63.5781 42.9219 64.8906
Q37.9375 66.2188 33.2969 66.2188
Q25.25 66.2188 20.875 63.0938
Q16.5 59.9688 16.5 54.2031
Q16.5 49.3594 19.4062 46.8906
Q22.3125 44.4375 30.4219 42.9219
L36.375 41.7031
Q47.4062 39.5938 52.6562 34.2969
Q57.9062 29 57.9062 20.125
Q57.9062 9.51562 50.7969 4.04688
Q43.7031 -1.42188 29.9844 -1.42188
Q24.8125 -1.42188 18.9688 -0.25
Q13.1406 0.921875 6.89062 3.21875
L6.89062 13.375
Q12.8906 10.0156 18.6562 8.29688
Q24.4219 6.59375 29.9844 6.59375
Q38.4219 6.59375 43.0156 9.90625
Q47.6094 13.2344 47.6094 19.3906
Q47.6094 24.75 44.3125 27.7812
Q41.0156 30.8125 33.5 32.3281
L27.4844 33.5
Q16.4531 35.6875 11.5156 40.375
Q6.59375 45.0625 6.59375 53.4219
Q6.59375 63.0938 13.4062 68.6562
Q20.2188 74.2188 32.1719 74.2188
Q37.3125 74.2188 42.625 73.2812
Q47.9531 72.3594 53.5156 70.5156" id="BitstreamVeraSans-Roman-53"/>
     </defs>
     <g transform="translate(14.7984375 117.55234375)rotate(-90.0)scale(0.1 -0.1)">
      <use xlink:href="#BitstreamVeraSans-Roman-4d"/>
      <use x="86.279296875" xlink:href="#BitstreamVeraSans-Roman-53"/>
      <use x="149.755859375" xlink:href="#BitstreamVeraSans-Roman-44"/>
     </g>
    </g>
   </g>
   <g id="text_12">
    <!-- $\phi=0.62$, $E_k=200$ -->
    <defs>
     <path d="
M25 -2.20312
Q18.7969 -2.20312 14.6406 1.09375
Q10.5 4.39062 8.21875 9.64062
Q5.95312 14.8906 5.07812 20.6562
Q4.20312 26.4219 4.20312 32.3281
Q4.20312 40.2344 7.28125 48.1875
Q10.3594 56.1562 16.3281 61.375
Q22.3125 66.6094 30.5156 66.6094
Q33.9375 66.6094 36.8906 65.3125
Q39.8438 64.0156 41.5312 61.5
Q43.2188 58.9844 43.2188 55.4219
Q43.2188 53.375 41.8281 51.9844
Q40.4375 50.5938 38.375 50.5938
Q36.4219 50.5938 35 52
Q33.5938 53.4219 33.5938 55.4219
Q33.5938 57.375 35 58.7812
Q36.4219 60.2031 38.375 60.2031
L38.9219 60.2031
Q37.6406 62.0156 35.3281 62.8594
Q33.0156 63.7188 30.5156 63.7188
Q27.4844 63.7188 24.9219 62.3906
Q22.3594 61.0781 20.3125 58.8281
Q18.2656 56.5938 16.8906 53.875
Q15.5312 51.1719 14.7656 47.7031
Q14.0156 44.2344 13.8125 41.2031
Q13.625 38.1875 13.625 33.5938
Q15.375 37.7031 18.5938 40.3125
Q21.8281 42.9219 25.875 42.9219
Q30.3281 42.9219 33.9844 41.1094
Q37.6406 39.3125 40.2812 36.1094
Q42.9219 32.9062 44.3125 28.7969
Q45.7031 24.7031 45.7031 20.5156
Q45.7031 14.6562 43.0938 9.34375
Q40.4844 4.04688 35.7344 0.921875
Q31 -2.20312 25 -2.20312
M25 0.984375
Q28.8594 0.984375 31.2031 2.73438
Q33.5469 4.5 34.6406 7.39062
Q35.75 10.2969 36.0156 13.25
Q36.2812 16.2188 36.2812 20.5156
Q36.2812 26.1719 35.7344 30.1719
Q35.2031 34.1875 32.8125 37.2344
Q30.4219 40.2812 25.4844 40.2812
Q21.4375 40.2812 18.8281 37.5469
Q16.2188 34.8125 15.0156 30.6406
Q13.8125 26.4688 13.8125 22.6094
Q13.8125 21.2969 13.9219 20.6094
Q13.9219 20.4531 13.8906 20.3594
Q13.875 20.2656 13.8125 20.125
Q13.8125 15.8281 14.6875 11.4219
Q15.5781 7.03125 18.0625 4
Q20.5625 0.984375 25 0.984375" id="Cmr10-36"/>
     <path d="
M7.51562 13.2812
Q6.6875 13.2812 6.14062 13.9062
Q5.60938 14.5469 5.60938 15.2812
Q5.60938 16.1094 6.14062 16.6875
Q6.6875 17.2812 7.51562 17.2812
L70.3125 17.2812
Q71.0469 17.2812 71.5781 16.6875
Q72.125 16.1094 72.125 15.2812
Q72.125 14.5469 71.5781 13.9062
Q71.0469 13.2812 70.3125 13.2812
z

M7.51562 32.7188
Q6.6875 32.7188 6.14062 33.2969
Q5.60938 33.8906 5.60938 34.7188
Q5.60938 35.4531 6.14062 36.0781
Q6.6875 36.7188 7.51562 36.7188
L70.3125 36.7188
Q71.0469 36.7188 71.5781 36.0781
Q72.125 35.4531 72.125 34.7188
Q72.125 33.8906 71.5781 33.2969
Q71.0469 32.7188 70.3125 32.7188
z
" id="Cmr10-3d"/>
     <path d="
M8.40625 5.51562
Q8.40625 7.76562 10.0625 9.375
Q11.7188 10.9844 13.9219 10.9844
Q15.2812 10.9844 16.5938 10.25
Q17.9219 9.51562 18.6562 8.20312
Q19.3906 6.89062 19.3906 5.51562
Q19.3906 3.32812 17.7656 1.65625
Q16.1562 0 13.9219 0
Q11.7188 0 10.0625 1.65625
Q8.40625 3.32812 8.40625 5.51562" id="Cmmi10-3a"/>
     <path d="
M5.32812 1.8125
Q5.32812 2.39062 5.42188 2.6875
L19.9219 60.5
Q20.3125 62.2031 20.4062 63.1875
Q20.4062 64.7969 13.9219 64.7969
Q12.8906 64.7969 12.8906 66.1094
Q12.9375 66.3594 13.1094 66.9844
Q13.2812 67.625 13.5469 67.9688
Q13.8125 68.3125 14.3125 68.3125
L27.7812 69.3906
L28.0781 69.3906
Q28.0781 69.2812 28.4219 69.1094
Q28.7656 68.9531 28.8125 68.8906
Q29 68.4062 29 68.1094
L18.5 26.3125
Q22.125 27.8281 27.6094 33.5156
Q33.1094 39.2031 36.2031 41.6875
Q39.3125 44.1875 44 44.1875
Q46.7812 44.1875 48.7344 42.2812
Q50.6875 40.375 50.6875 37.5938
Q50.6875 35.8438 49.9531 34.3438
Q49.2188 32.8594 47.8906 31.9219
Q46.5781 31 44.8281 31
Q43.2188 31 42.1094 32
Q41.0156 33.0156 41.0156 34.625
Q41.0156 37.0156 42.7031 38.6406
Q44.3906 40.2812 46.7812 40.2812
Q45.7969 41.6094 43.7969 41.6094
Q40.8281 41.6094 38.0625 39.8906
Q35.2969 38.1875 32.0938 34.9844
Q28.9062 31.7812 26.2656 29.125
Q23.6406 26.4688 21.3906 25.0938
Q27.2969 24.4219 31.6406 22
Q35.9844 19.5781 35.9844 14.5938
Q35.9844 13.5781 35.5938 12.0156
Q34.7188 8.25 34.7188 6
Q34.7188 1.51562 37.7969 1.51562
Q41.4062 1.51562 43.2812 5.46875
Q45.1719 9.42188 46.3906 14.7031
Q46.5781 15.2812 47.2188 15.2812
L48.3906 15.2812
Q48.7812 15.2812 49.0469 15.0312
Q49.3125 14.7969 49.3125 14.4062
Q49.3125 14.3125 49.2188 14.1094
Q45.4531 -1.125 37.5938 -1.125
Q34.7656 -1.125 32.5938 0.1875
Q30.4219 1.51562 29.25 3.78125
Q28.0781 6.0625 28.0781 8.89062
Q28.0781 10.5 28.5156 12.2031
Q28.8125 13.375 28.8125 14.4062
Q28.8125 18.2656 25.3906 20.2656
Q21.9688 22.2656 17.5781 22.7031
L12.5 2.29688
Q12.1094 0.78125 10.9844 -0.171875
Q9.85938 -1.125 8.40625 -1.125
Q7.125 -1.125 6.21875 -0.265625
Q5.32812 0.59375 5.32812 1.8125" id="Cmmi10-6b"/>
     <path d="
M4.6875 0
Q3.71875 0 3.71875 1.3125
Q3.76562 1.5625 3.90625 2.17188
Q4.04688 2.78125 4.3125 3.14062
Q4.59375 3.51562 4.98438 3.51562
Q11.0781 3.51562 13.4844 4.20312
Q14.7969 4.64062 15.375 6.89062
L29.1094 61.8125
Q29.2969 62.7969 29.2969 63.1875
Q29.2969 64.2656 28.0781 64.4062
Q26.2188 64.7969 20.9062 64.7969
Q19.9219 64.7969 19.9219 66.1094
Q19.9688 66.3594 20.1094 66.9688
Q20.2656 67.5781 20.5312 67.9375
Q20.7969 68.3125 21.1875 68.3125
L75.3906 68.3125
Q76.4219 68.3125 76.4219 67
L74.0312 46.2969
Q74.0312 46.0469 73.6562 45.7188
Q73.2969 45.4062 73 45.4062
L72.125 45.4062
Q71.0938 45.4062 71.0938 46.6875
Q71.6875 51.5625 71.6875 53.9062
Q71.6875 57.9062 70.3125 60.125
Q68.9531 62.3594 66.6719 63.3281
Q64.4062 64.3125 61.6406 64.5469
Q58.8906 64.7969 54.3906 64.7969
L43.0156 64.7969
Q40.2812 64.7969 39.4062 64.3281
Q38.5312 63.875 37.7969 61.375
L31.7812 37.2031
L39.5938 37.2031
Q44.6719 37.2031 47.2656 37.9062
Q49.8594 38.625 51.3594 40.8594
Q52.875 43.1094 54.1094 48
Q54.2031 48.3438 54.4688 48.6094
Q54.7344 48.875 55.0781 48.875
L56 48.875
Q56.9844 48.875 56.9844 47.6094
L50.7812 22.9062
Q50.5938 22.0156 49.8125 22.0156
L48.875 22.0156
Q47.9062 22.0156 47.9062 23.2969
Q48.875 27.2969 48.875 29.2031
Q48.875 32.125 46.2344 32.9062
Q43.6094 33.6875 39.2031 33.6875
L30.9062 33.6875
L24.125 6.5
Q23.6875 5.28125 23.6875 4.29688
Q23.6875 3.51562 27.0938 3.51562
L39.2031 3.51562
Q46.4375 3.51562 50.9219 4.64062
Q55.4219 5.76562 58.375 8.21875
Q61.3281 10.6875 63.4688 14.5
Q65.625 18.3125 68.7031 25.5938
Q68.8906 26.2188 69.5781 26.2188
L70.5156 26.2188
Q70.9062 26.2188 71.1875 25.875
Q71.4844 25.5312 71.4844 25.0938
Q71.4844 24.9062 71.3906 24.7031
L61.0781 0.59375
Q60.8906 0 60.2969 0
z
" id="Cmmi10-45"/>
     <path d="
M4.98438 0
L4.98438 2.6875
Q4.98438 2.9375 5.17188 3.21875
L20.7031 20.4062
Q24.2188 24.2188 26.4062 26.7969
Q28.6094 29.3906 30.75 32.7656
Q32.9062 36.1406 34.1562 39.625
Q35.4062 43.1094 35.4062 47.0156
Q35.4062 51.125 33.8906 54.8594
Q32.375 58.5938 29.375 60.8438
Q26.375 63.0938 22.125 63.0938
Q17.7812 63.0938 14.3125 60.4688
Q10.8438 57.8594 9.42188 53.7188
Q9.8125 53.8125 10.5 53.8125
Q12.75 53.8125 14.3281 52.2969
Q15.9219 50.7812 15.9219 48.3906
Q15.9219 46.0938 14.3281 44.5
Q12.75 42.9219 10.5 42.9219
Q8.15625 42.9219 6.5625 44.5469
Q4.98438 46.1875 4.98438 48.3906
Q4.98438 52.1562 6.39062 55.4375
Q7.8125 58.7344 10.4688 61.2969
Q13.1406 63.875 16.4844 65.2344
Q19.8281 66.6094 23.5781 66.6094
Q29.2969 66.6094 34.2188 64.1875
Q39.1562 61.7656 42.0312 57.3438
Q44.9219 52.9375 44.9219 47.0156
Q44.9219 42.6719 43.0156 38.7656
Q41.1094 34.8594 38.125 31.6562
Q35.1562 28.4688 30.5156 24.4062
Q25.875 20.3594 24.4219 19
L13.0938 8.10938
L22.7031 8.10938
Q29.7812 8.10938 34.5469 8.21875
Q39.3125 8.34375 39.5938 8.59375
Q40.7656 9.85938 42 17.8281
L44.9219 17.8281
L42.0938 0
z
" id="Cmr10-32"/>
     <path d="
M11.7188 12.4062
L22.0156 12.4062
L22.0156 4
L14.0156 -11.625
L7.71875 -11.625
L11.7188 4
z
" id="BitstreamVeraSans-Roman-2c"/>
     <path id="BitstreamVeraSans-Roman-20"/>
     <path d="
M19.3906 -19.4844
L23.875 -1.42188
Q18.7969 -1.42188 14.4062 0.953125
Q10.0156 3.32812 7.34375 7.5625
Q4.6875 11.8125 4.6875 16.7969
Q4.6875 22.2188 7.375 27.1406
Q10.0625 32.0781 14.7188 36.1094
Q19.3906 40.1406 24.75 42.3125
Q30.125 44.4844 35.4062 44.4844
L41.4062 68.7969
Q41.6094 69.3906 42.1875 69.3906
L43.4062 69.3906
Q43.7969 69.3906 44.0312 69.0469
Q44.2812 68.7031 44.2812 68.4062
L38.2812 44.4844
Q42.0469 44.4844 45.5625 43.1094
Q49.0781 41.75 51.7812 39.2812
Q54.5 36.8125 56 33.4688
Q57.5156 30.125 57.5156 26.3125
Q57.5156 20.9062 54.8281 15.9688
Q52.1562 11.0312 47.6094 7.07812
Q43.0625 3.125 37.4688 0.84375
Q31.8906 -1.42188 26.8125 -1.42188
L22.2188 -19.9219
Q22.0156 -20.5156 21.3906 -20.5156
L20.2188 -20.5156
Q19.8281 -20.5156 19.6094 -20.1406
Q19.3906 -19.7812 19.3906 -19.4844
M24.5156 1.21875
L34.7188 41.8906
Q32.1719 41.8906 29.3906 40.8594
Q26.6094 39.8438 24.1406 38.2812
Q21.6875 36.7188 19.6719 34.7188
Q17.2344 32.2812 15.375 28.9531
Q13.5312 25.6406 12.5781 21.9531
Q11.625 18.2656 11.625 14.7031
Q11.625 10.9375 13.2344 7.85938
Q14.8438 4.78125 17.7656 3
Q20.7031 1.21875 24.5156 1.21875
M27.4844 1.21875
Q31.25 1.21875 35.5 3.35938
Q39.75 5.51562 42.4844 8.40625
Q46.2344 12.1094 48.4062 17.5
Q50.5938 22.9062 50.5938 28.4219
Q50.5938 32.125 48.9688 35.2188
Q47.3594 38.3281 44.4219 40.1094
Q41.5 41.8906 37.7031 41.8906
z
" id="Cmmi10-c1"/>
     <path d="
M25 -2.20312
Q12.75 -2.20312 8.32812 7.875
Q3.90625 17.9688 3.90625 31.8906
Q3.90625 40.5781 5.48438 48.2344
Q7.07812 55.9062 11.7812 61.25
Q16.5 66.6094 25 66.6094
Q31.5938 66.6094 35.7812 63.375
Q39.9844 60.1562 42.1875 55.0469
Q44.3906 49.9531 45.1875 44.1094
Q46 38.2812 46 31.8906
Q46 23.2969 44.4062 15.7969
Q42.8281 8.29688 38.1875 3.04688
Q33.5469 -2.20312 25 -2.20312
M25 0.390625
Q30.5625 0.390625 33.2969 6.09375
Q36.0312 11.8125 36.6719 18.75
Q37.3125 25.6875 37.3125 33.5
Q37.3125 41.0156 36.6719 47.3594
Q36.0312 53.7188 33.3125 58.8594
Q30.6094 64.0156 25 64.0156
Q19.3438 64.0156 16.6094 58.8281
Q13.875 53.6562 13.2344 47.3281
Q12.5938 41.0156 12.5938 33.5
Q12.5938 27.9375 12.8594 23
Q13.1406 18.0625 14.3125 12.8125
Q15.4844 7.5625 18.0938 3.96875
Q20.7031 0.390625 25 0.390625" id="Cmr10-30"/>
    </defs>
    <g transform="translate(140.358125 15.6)scale(0.12 -0.12)">
     <use transform="translate(0.0 0.609375)" xlink:href="#Cmmi10-c1"/>
     <use transform="translate(77.080078125 0.609375)" xlink:href="#Cmr10-3d"/>
     <use transform="translate(161.388671875 0.609375)" xlink:href="#Cmr10-30"/>
     <use transform="translate(211.388671875 0.609375)" xlink:href="#Cmmi10-3a"/>
     <use transform="translate(240.181640625 0.609375)" xlink:href="#Cmr10-36"/>
     <use transform="translate(290.181640625 0.609375)" xlink:href="#Cmr10-32"/>
     <use transform="translate(340.181640625 0.609375)" xlink:href="#BitstreamVeraSans-Roman-2c"/>
     <use transform="translate(371.96875 0.609375)" xlink:href="#BitstreamVeraSans-Roman-20"/>
     <use transform="translate(403.755859375 0.609375)" xlink:href="#Cmmi10-45"/>
     <use transform="translate(477.53515625 -24.900000000000006)scale(0.7)" xlink:href="#Cmmi10-6b"/>
     <use transform="translate(547.095703125 0.609375)" xlink:href="#Cmr10-3d"/>
     <use transform="translate(631.404296875 0.609375)" xlink:href="#Cmr10-32"/>
     <use transform="translate(681.404296875 0.609375)" xlink:href="#Cmr10-30"/>
     <use transform="translate(731.404296875 0.609375)" xlink:href="#Cmr10-30"/>
    </g>
   </g>
   <g id="legend_1">
    <g id="text_13">
     <!-- Activity Level $(f)$ -->
     <defs>
      <path d="
M2.98438 54.6875
L12.5 54.6875
L29.5938 8.79688
L46.6875 54.6875
L56.2031 54.6875
L35.6875 0
L23.4844 0
z
" id="BitstreamVeraSans-Roman-76"/>
      <path d="
M9.8125 72.9062
L19.6719 72.9062
L19.6719 8.29688
L55.1719 8.29688
L55.1719 0
L9.8125 0
z
" id="BitstreamVeraSans-Roman-4c"/>
      <path d="
M9.71875 -16.5
Q11.5781 -17.9219 14.2031 -17.9219
Q17.7812 -17.9219 20.0156 -10.0156
Q20.9531 -6.20312 25.0938 15.0938
L29.6875 39.5938
L21.0938 39.5938
Q20.125 39.5938 20.125 40.9219
Q20.5156 43.1094 21.3906 43.1094
L30.3281 43.1094
L31.5 49.6094
Q32.0781 52.6406 32.5625 54.8125
Q33.0625 56.9844 33.625 58.8281
Q34.1875 60.6875 35.2969 62.9844
Q37.0156 66.2656 39.9219 68.3906
Q42.8281 70.5156 46.1875 70.5156
Q48.3906 70.5156 50.4688 69.7031
Q52.5469 68.8906 53.8594 67.2812
Q55.1719 65.6719 55.1719 63.4844
Q55.1719 60.9375 53.4844 59.0469
Q51.8125 57.1719 49.4219 57.1719
Q47.7969 57.1719 46.6562 58.1719
Q45.5156 59.1875 45.5156 60.7969
Q45.5156 62.9844 47 64.625
Q48.4844 66.2656 50.6875 66.5
Q48.8281 67.9219 46.0938 67.9219
Q44.5781 67.9219 43.2344 66.5
Q41.8906 65.0938 41.5 63.4844
Q40.875 60.9375 38.7188 49.7031
L37.5 43.1094
L47.7969 43.1094
Q48.7812 43.1094 48.7812 41.7969
Q48.7344 41.5469 48.5781 40.9375
Q48.4375 40.3281 48.1719 39.9531
Q47.9062 39.5938 47.5156 39.5938
L36.8125 39.5938
L32.1719 15.1875
Q31.2969 9.85938 30.1406 4.35938
Q29 -1.125 26.9219 -6.90625
Q24.8594 -12.7031 21.625 -16.6094
Q18.4062 -20.5156 14.0156 -20.5156
Q10.6406 -20.5156 7.98438 -18.5781
Q5.32812 -16.6562 5.32812 -13.4844
Q5.32812 -10.9375 6.95312 -9.04688
Q8.59375 -7.17188 11.0781 -7.17188
Q12.75 -7.17188 13.8594 -8.17188
Q14.9844 -9.1875 14.9844 -10.7969
Q14.9844 -12.9375 13.3906 -14.7188
Q11.8125 -16.5 9.71875 -16.5" id="Cmmi10-66"/>
      <path d="
M18.3125 70.2188
L18.3125 54.6875
L36.8125 54.6875
L36.8125 47.7031
L18.3125 47.7031
L18.3125 18.0156
Q18.3125 11.3281 20.1406 9.42188
Q21.9688 7.51562 27.5938 7.51562
L36.8125 7.51562
L36.8125 0
L27.5938 0
Q17.1875 0 13.2344 3.875
Q9.28125 7.76562 9.28125 18.0156
L9.28125 47.7031
L2.6875 47.7031
L2.6875 54.6875
L9.28125 54.6875
L9.28125 70.2188
z
" id="BitstreamVeraSans-Roman-74"/>
      <path d="
M48.7812 52.5938
L48.7812 44.1875
Q44.9688 46.2969 41.1406 47.3438
Q37.3125 48.3906 33.4062 48.3906
Q24.6562 48.3906 19.8125 42.8438
Q14.9844 37.3125 14.9844 27.2969
Q14.9844 17.2812 19.8125 11.7344
Q24.6562 6.20312 33.4062 6.20312
Q37.3125 6.20312 41.1406 7.25
Q44.9688 8.29688 48.7812 10.4062
L48.7812 2.09375
Q45.0156 0.34375 40.9844 -0.53125
Q36.9688 -1.42188 32.4219 -1.42188
Q20.0625 -1.42188 12.7812 6.34375
Q5.51562 14.1094 5.51562 27.2969
Q5.51562 40.6719 12.8594 48.3281
Q20.2188 56 33.0156 56
Q37.1562 56 41.1094 55.1406
Q45.0625 54.2969 48.7812 52.5938" id="BitstreamVeraSans-Roman-63"/>
      <path d="
M34.1875 63.1875
L20.7969 26.9062
L47.6094 26.9062
z

M28.6094 72.9062
L39.7969 72.9062
L67.5781 0
L57.3281 0
L50.6875 18.7031
L17.8281 18.7031
L11.1875 0
L0.78125 0
z
" id="BitstreamVeraSans-Roman-41"/>
      <path d="
M6.5 -25
Q5.60938 -25 5.60938 -24.125
Q5.60938 -23.6875 5.8125 -23.4844
Q22.9062 -6.78125 22.9062 25
Q22.9062 56.7812 6 73.2969
Q5.60938 73.5312 5.60938 74.125
Q5.60938 74.4688 5.875 74.7344
Q6.15625 75 6.5 75
L7.42188 75
Q7.71875 75 7.90625 74.8125
Q15.0938 69.1406 19.875 61.0312
Q24.6562 52.9375 26.875 43.75
Q29.1094 34.5781 29.1094 25
Q29.1094 17.9219 27.9062 11.0625
Q26.7031 4.20312 24.0938 -2.45312
Q21.4844 -9.125 17.4844 -14.7656
Q13.4844 -20.4062 7.90625 -24.8125
Q7.71875 -25 7.42188 -25
z
" id="Cmr10-29"/>
      <path d="
M31 -24.8125
Q25.4375 -20.4062 21.4062 -14.7188
Q17.3906 -9.03125 14.8125 -2.57812
Q12.25 3.85938 10.9844 10.8906
Q9.71875 17.9219 9.71875 25
Q9.71875 32.1719 10.9844 39.2031
Q12.25 46.2344 14.8594 52.7344
Q17.4844 59.2344 21.5312 64.8906
Q25.5938 70.5625 31 74.8125
Q31 75 31.5 75
L32.4219 75
Q32.7188 75 32.9531 74.7344
Q33.2031 74.4688 33.2031 74.125
Q33.2031 73.6875 33.0156 73.4844
Q28.125 68.7031 24.875 63.2344
Q21.625 57.7656 19.6406 51.5781
Q17.6719 45.4062 16.7969 38.7812
Q15.9219 32.1719 15.9219 25
Q15.9219 -6.78125 32.9062 -23.2969
Q33.2031 -23.5781 33.2031 -24.125
Q33.2031 -24.3594 32.9375 -24.6719
Q32.6719 -25 32.4219 -25
L31.5 -25
Q31 -25 31 -24.8125" id="Cmr10-28"/>
      <path d="
M32.1719 -5.07812
Q28.375 -14.8438 24.75 -17.8125
Q21.1406 -20.7969 15.0938 -20.7969
L7.90625 -20.7969
L7.90625 -13.2812
L13.1875 -13.2812
Q16.8906 -13.2812 18.9375 -11.5156
Q21 -9.76562 23.4844 -3.21875
L25.0938 0.875
L2.98438 54.6875
L12.5 54.6875
L29.5938 11.9219
L46.6875 54.6875
L56.2031 54.6875
z
" id="BitstreamVeraSans-Roman-79"/>
      <path d="
M9.42188 75.9844
L18.4062 75.9844
L18.4062 0
L9.42188 0
z
" id="BitstreamVeraSans-Roman-6c"/>
     </defs>
     <g transform="translate(65.237825 35.697)scale(0.1 -0.1)">
      <use transform="translate(0.0 0.015625)" xlink:href="#BitstreamVeraSans-Roman-41"/>
      <use transform="translate(68.408203125 0.015625)" xlink:href="#BitstreamVeraSans-Roman-63"/>
      <use transform="translate(123.388671875 0.015625)" xlink:href="#BitstreamVeraSans-Roman-74"/>
      <use transform="translate(162.59765625 0.015625)" xlink:href="#BitstreamVeraSans-Roman-69"/>
      <use transform="translate(190.380859375 0.015625)" xlink:href="#BitstreamVeraSans-Roman-76"/>
      <use transform="translate(249.560546875 0.015625)" xlink:href="#BitstreamVeraSans-Roman-69"/>
      <use transform="translate(277.34375 0.015625)" xlink:href="#BitstreamVeraSans-Roman-74"/>
      <use transform="translate(316.552734375 0.015625)" xlink:href="#BitstreamVeraSans-Roman-79"/>
      <use transform="translate(375.732421875 0.015625)" xlink:href="#BitstreamVeraSans-Roman-20"/>
      <use transform="translate(407.51953125 0.015625)" xlink:href="#BitstreamVeraSans-Roman-4c"/>
      <use transform="translate(463.232421875 0.015625)" xlink:href="#BitstreamVeraSans-Roman-65"/>
      <use transform="translate(524.755859375 0.015625)" xlink:href="#BitstreamVeraSans-Roman-76"/>
      <use transform="translate(583.935546875 0.015625)" xlink:href="#BitstreamVeraSans-Roman-65"/>
      <use transform="translate(645.458984375 0.015625)" xlink:href="#BitstreamVeraSans-Roman-6c"/>
      <use transform="translate(673.2421875 0.015625)" xlink:href="#BitstreamVeraSans-Roman-20"/>
      <use transform="translate(705.029296875 0.015625)" xlink:href="#Cmr10-28"/>
      <use transform="translate(743.84765625 0.015625)" xlink:href="#Cmmi10-66"/>
      <use transform="translate(792.724609375 0.015625)" xlink:href="#Cmr10-29"/>
     </g>
    </g>
    <g id="line2d_165">
     <path d="
M57.7741 45.776
L69.4361 45.776" style="fill:none;stroke:#4daf4a;stroke-linecap:square;stroke-width:2.0;"/>
    </g>
    <g id="line2d_166"/>
    <g id="text_14">
     <!-- $0.001$ $(T=1.01 \pm 0.14)$ -->
     <defs>
      <path d="
M4.59375 1.3125
Q4.64062 1.5625 4.8125 2.1875
Q4.98438 2.82812 5.25 3.17188
Q5.51562 3.51562 6 3.51562
Q14.5938 3.51562 17.3906 4
Q20.0625 4.6875 20.6094 6.89062
L34.2812 61.8125
Q34.7188 63.0312 34.7188 64.0156
Q34.7188 64.7969 31.2031 64.7969
L25.3906 64.7969
Q18.7031 64.7969 15.0625 62.7344
Q11.4219 60.6875 9.71875 57.3125
Q8.01562 53.9531 5.32812 46.2969
Q4.98438 45.4062 4.29688 45.4062
L3.42188 45.4062
Q2.39062 45.4062 2.39062 46.6875
L9.51562 67.3906
Q9.71875 68.3125 10.5 68.3125
L69.5781 68.3125
Q70.6094 68.3125 70.6094 67
L67.2812 46.2969
Q67.2812 46 66.9375 45.7031
Q66.6094 45.4062 66.3125 45.4062
L65.375 45.4062
Q64.4062 45.4062 64.4062 46.6875
Q65.4844 53.7656 65.4844 56.6875
Q65.4844 60.2031 64.0156 62
Q62.5469 63.8125 60.2031 64.2969
Q57.8594 64.7969 54.1094 64.7969
L48.1875 64.7969
Q45.5156 64.7969 44.5781 64.2969
Q43.6562 63.8125 43.0156 61.375
L29.2969 6.5
Q29.25 6.29688 29.2188 6.09375
Q29.2031 5.90625 29.1094 5.60938
Q29.1094 4.34375 30.6094 4
Q33.2031 3.51562 41.7031 3.51562
Q42.6719 3.51562 42.6719 2.20312
Q42.3281 0.78125 42.125 0.390625
Q41.9375 0 41.0156 0
L5.60938 0
Q4.59375 0 4.59375 1.3125" id="Cmmi10-54"/>
      <path d="
M9.28125 0
L9.28125 3.51562
Q21.7812 3.51562 21.7812 6.6875
L21.7812 59.1875
Q16.6094 56.6875 8.6875 56.6875
L8.6875 60.2031
Q20.9531 60.2031 27.2031 66.6094
L28.6094 66.6094
Q28.9531 66.6094 29.2656 66.3281
Q29.5938 66.0625 29.5938 65.7188
L29.5938 6.6875
Q29.5938 3.51562 42.0938 3.51562
L42.0938 0
z
" id="Cmr10-31"/>
      <path d="
M2.78125 16.5
L2.78125 20.0156
L33.6875 66.1094
Q34.0312 66.6094 34.7188 66.6094
L36.1875 66.6094
Q37.3125 66.6094 37.3125 65.4844
L37.3125 20.0156
L47.125 20.0156
L47.125 16.5
L37.3125 16.5
L37.3125 6.6875
Q37.3125 4.64062 40.2344 4.07812
Q43.1719 3.51562 47.0156 3.51562
L47.0156 0
L19.4844 0
L19.4844 3.51562
Q23.3438 3.51562 26.2656 4.07812
Q29.2031 4.64062 29.2031 6.6875
L29.2031 16.5
z

M6.10938 20.0156
L29.7812 20.0156
L29.7812 55.4219
z
" id="Cmr10-34"/>
      <path d="
M7.51562 0
Q6.6875 0 6.14062 0.578125
Q5.60938 1.17188 5.60938 2
Q5.60938 2.73438 6.14062 3.35938
Q6.6875 4 7.51562 4
L36.9219 4
L36.9219 31.2969
L7.51562 31.2969
Q6.6875 31.2969 6.14062 31.9219
Q5.60938 32.5625 5.60938 33.2969
Q5.60938 34.0312 6.14062 34.6562
Q6.6875 35.2969 7.51562 35.2969
L36.9219 35.2969
L36.9219 64.7969
Q36.9219 65.5781 37.5 66.0938
Q38.0938 66.6094 38.9219 66.6094
Q39.5938 66.6094 40.25 66.0938
Q40.9219 65.5781 40.9219 64.7969
L40.9219 35.2969
L70.3125 35.2969
Q71.0469 35.2969 71.5781 34.6562
Q72.125 34.0312 72.125 33.2969
Q72.125 32.5625 71.5781 31.9219
Q71.0469 31.2969 70.3125 31.2969
L40.9219 31.2969
L40.9219 4
L70.3125 4
Q71.0469 4 71.5781 3.35938
Q72.125 2.73438 72.125 2
Q72.125 1.17188 71.5781 0.578125
Q71.0469 0 70.3125 0
z
" id="Cmsy10-a7"/>
     </defs>
     <g transform="translate(78.599125 48.6914984375)scale(0.0833 -0.0833)">
      <use xlink:href="#Cmr10-30"/>
      <use transform="translate(50.0 0.0)" xlink:href="#Cmmi10-3a"/>
      <use transform="translate(78.79296875 0.0)" xlink:href="#Cmr10-30"/>
      <use transform="translate(128.79296875 0.0)" xlink:href="#Cmr10-30"/>
      <use transform="translate(178.79296875 0.0)" xlink:href="#Cmr10-31"/>
      <use transform="translate(228.79296875 0.0)" xlink:href="#BitstreamVeraSans-Roman-20"/>
      <use transform="translate(260.580078125 0.0)" xlink:href="#Cmr10-28"/>
      <use transform="translate(299.3984375 0.0)" xlink:href="#Cmmi10-54"/>
      <use transform="translate(375.35546875 0.0)" xlink:href="#Cmr10-3d"/>
      <use transform="translate(459.6640625 0.0)" xlink:href="#Cmr10-31"/>
      <use transform="translate(509.6640625 0.0)" xlink:href="#Cmmi10-3a"/>
      <use transform="translate(538.45703125 0.0)" xlink:href="#Cmr10-30"/>
      <use transform="translate(588.45703125 0.0)" xlink:href="#Cmr10-31"/>
      <use transform="translate(656.015625 0.0)" xlink:href="#Cmsy10-a7"/>
      <use transform="translate(740.32421875 0.0)" xlink:href="#Cmr10-30"/>
      <use transform="translate(790.32421875 0.0)" xlink:href="#Cmmi10-3a"/>
      <use transform="translate(819.1171875 0.0)" xlink:href="#Cmr10-31"/>
      <use transform="translate(869.1171875 0.0)" xlink:href="#Cmr10-34"/>
      <use transform="translate(919.1171875 0.0)" xlink:href="#Cmr10-29"/>
     </g>
    </g>
    <g id="line2d_167">
     <path d="
M57.7741 58.353
L69.4361 58.353" style="fill:none;stroke:#576eb1;stroke-linecap:square;stroke-width:2.0;"/>
    </g>
    <g id="line2d_168"/>
    <g id="text_15">
     <!-- $0.003$ $(T=1.04 \pm 0.17)$ -->
     <defs>
      <path d="
M17.3906 2.59375
Q17.3906 8.15625 18.3594 13.4688
Q19.3438 18.7969 21.2188 24
Q23.0938 29.2031 25.75 34.2031
Q28.4219 39.2031 31.5938 43.6094
L40.7188 56.2969
L29.2969 56.2969
Q11.5312 56.2969 10.9844 55.8125
Q9.67188 54.2031 8.5 46.5781
L5.60938 46.5781
L8.89062 67.5781
L11.8125 67.5781
L11.8125 67.2812
Q11.8125 65.4844 17.9219 64.9375
Q24.0312 64.4062 29.8906 64.4062
L48.4844 64.4062
L48.4844 61.8125
Q48.4844 61.7188 48.4531 61.6719
Q48.4375 61.625 48.3906 61.5312
L34.625 42.1875
Q29.5469 34.6719 28.2656 25.4844
Q27 16.3125 27 2.59375
Q27 0.640625 25.5781 -0.78125
Q24.1719 -2.20312 22.2188 -2.20312
Q20.2188 -2.20312 18.7969 -0.78125
Q17.3906 0.640625 17.3906 2.59375" id="Cmr10-37"/>
      <path d="
M9.51562 7.71875
Q11.8594 4.29688 15.8125 2.64062
Q19.7812 0.984375 24.3125 0.984375
Q30.125 0.984375 32.5625 5.9375
Q35.0156 10.8906 35.0156 17.1875
Q35.0156 20.0156 34.5 22.8438
Q33.9844 25.6875 32.7656 28.125
Q31.5469 30.5625 29.4219 32.0312
Q27.2969 33.5 24.2188 33.5
L17.5781 33.5
Q16.7031 33.5 16.7031 34.4219
L16.7031 35.2969
Q16.7031 36.0781 17.5781 36.0781
L23.0938 36.5312
Q26.6094 36.5312 28.9219 39.1562
Q31.25 41.7969 32.3281 45.5781
Q33.4062 49.3594 33.4062 52.7812
Q33.4062 57.5625 31.1562 60.6406
Q28.9062 63.7188 24.3125 63.7188
Q20.5156 63.7188 17.0469 62.2812
Q13.5781 60.8438 11.5312 57.9062
Q11.7188 57.9531 11.8594 57.9844
Q12.0156 58.0156 12.2031 58.0156
Q14.4531 58.0156 15.9688 56.4531
Q17.4844 54.8906 17.4844 52.6875
Q17.4844 50.5312 15.9688 48.9688
Q14.4531 47.4062 12.2031 47.4062
Q10.0156 47.4062 8.45312 48.9688
Q6.89062 50.5312 6.89062 52.6875
Q6.89062 56.9844 9.46875 60.1562
Q12.0625 63.3281 16.1406 64.9688
Q20.2188 66.6094 24.3125 66.6094
Q27.3438 66.6094 30.7031 65.7031
Q34.0781 64.7969 36.8125 63.1094
Q39.5469 61.4219 41.2812 58.7812
Q43.0156 56.1562 43.0156 52.7812
Q43.0156 48.5781 41.1406 45.0156
Q39.2656 41.4531 35.9844 38.8594
Q32.7188 36.2812 28.8125 35.0156
Q33.1562 34.1875 37.0625 31.7344
Q40.9688 29.2969 43.3281 25.4844
Q45.7031 21.6875 45.7031 17.2812
Q45.7031 11.7656 42.6719 7.29688
Q39.6562 2.82812 34.7188 0.3125
Q29.7812 -2.20312 24.3125 -2.20312
Q19.625 -2.20312 14.9062 -0.40625
Q10.2031 1.375 7.20312 4.9375
Q4.20312 8.5 4.20312 13.4844
Q4.20312 15.9688 5.85938 17.625
Q7.51562 19.2812 10.0156 19.2812
Q11.625 19.2812 12.9688 18.5312
Q14.3125 17.7812 15.0625 16.4062
Q15.8281 15.0469 15.8281 13.4844
Q15.8281 11.0312 14.1094 9.375
Q12.4062 7.71875 10.0156 7.71875
z
" id="Cmr10-33"/>
     </defs>
     <g transform="translate(78.599125 61.268496875)scale(0.0833 -0.0833)">
      <use xlink:href="#Cmr10-30"/>
      <use transform="translate(50.0 0.0)" xlink:href="#Cmmi10-3a"/>
      <use transform="translate(78.79296875 0.0)" xlink:href="#Cmr10-30"/>
      <use transform="translate(128.79296875 0.0)" xlink:href="#Cmr10-30"/>
      <use transform="translate(178.79296875 0.0)" xlink:href="#Cmr10-33"/>
      <use transform="translate(228.79296875 0.0)" xlink:href="#BitstreamVeraSans-Roman-20"/>
      <use transform="translate(260.580078125 0.0)" xlink:href="#Cmr10-28"/>
      <use transform="translate(299.3984375 0.0)" xlink:href="#Cmmi10-54"/>
      <use transform="translate(375.35546875 0.0)" xlink:href="#Cmr10-3d"/>
      <use transform="translate(459.6640625 0.0)" xlink:href="#Cmr10-31"/>
      <use transform="translate(509.6640625 0.0)" xlink:href="#Cmmi10-3a"/>
      <use transform="translate(538.45703125 0.0)" xlink:href="#Cmr10-30"/>
      <use transform="translate(588.45703125 0.0)" xlink:href="#Cmr10-34"/>
      <use transform="translate(656.015625 0.0)" xlink:href="#Cmsy10-a7"/>
      <use transform="translate(740.32421875 0.0)" xlink:href="#Cmr10-30"/>
      <use transform="translate(790.32421875 0.0)" xlink:href="#Cmmi10-3a"/>
      <use transform="translate(819.1171875 0.0)" xlink:href="#Cmr10-31"/>
      <use transform="translate(869.1171875 0.0)" xlink:href="#Cmr10-37"/>
      <use transform="translate(919.1171875 0.0)" xlink:href="#Cmr10-29"/>
     </g>
    </g>
    <g id="line2d_169">
     <path d="
M57.7741 70.93
L69.4361 70.93" style="fill:none;stroke:#cb2b49;stroke-linecap:square;stroke-width:2.0;"/>
    </g>
    <g id="line2d_170"/>
    <g id="text_16">
     <!-- $0.010$ $(T=1.11 \pm 0.22)$ -->
     <g transform="translate(78.599125 73.8454953125)scale(0.0833 -0.0833)">
      <use xlink:href="#Cmr10-30"/>
      <use transform="translate(50.0 0.0)" xlink:href="#Cmmi10-3a"/>
      <use transform="translate(78.79296875 0.0)" xlink:href="#Cmr10-30"/>
      <use transform="translate(128.79296875 0.0)" xlink:href="#Cmr10-31"/>
      <use transform="translate(178.79296875 0.0)" xlink:href="#Cmr10-30"/>
      <use transform="translate(228.79296875 0.0)" xlink:href="#BitstreamVeraSans-Roman-20"/>
      <use transform="translate(260.580078125 0.0)" xlink:href="#Cmr10-28"/>
      <use transform="translate(299.3984375 0.0)" xlink:href="#Cmmi10-54"/>
      <use transform="translate(375.35546875 0.0)" xlink:href="#Cmr10-3d"/>
      <use transform="translate(459.6640625 0.0)" xlink:href="#Cmr10-31"/>
      <use transform="translate(509.6640625 0.0)" xlink:href="#Cmmi10-3a"/>
      <use transform="translate(538.45703125 0.0)" xlink:href="#Cmr10-31"/>
      <use transform="translate(588.45703125 0.0)" xlink:href="#Cmr10-31"/>
      <use transform="translate(656.015625 0.0)" xlink:href="#Cmsy10-a7"/>
      <use transform="translate(740.32421875 0.0)" xlink:href="#Cmr10-30"/>
      <use transform="translate(790.32421875 0.0)" xlink:href="#Cmmi10-3a"/>
      <use transform="translate(819.1171875 0.0)" xlink:href="#Cmr10-32"/>
      <use transform="translate(869.1171875 0.0)" xlink:href="#Cmr10-32"/>
      <use transform="translate(919.1171875 0.0)" xlink:href="#Cmr10-29"/>
     </g>
    </g>
    <g id="line2d_171">
     <path d="
M57.7741 83.507
L69.4361 83.507" style="fill:none;stroke:#ff7f00;stroke-linecap:square;stroke-width:2.0;"/>
    </g>
    <g id="line2d_172"/>
    <g id="text_17">
     <!-- $0.033$ $(T=1.4 \pm 0.4)$ -->
     <g transform="translate(78.599125 86.42249375)scale(0.0833 -0.0833)">
      <use xlink:href="#Cmr10-30"/>
      <use transform="translate(50.0 0.0)" xlink:href="#Cmmi10-3a"/>
      <use transform="translate(78.79296875 0.0)" xlink:href="#Cmr10-30"/>
      <use transform="translate(128.79296875 0.0)" xlink:href="#Cmr10-33"/>
      <use transform="translate(178.79296875 0.0)" xlink:href="#Cmr10-33"/>
      <use transform="translate(228.79296875 0.0)" xlink:href="#BitstreamVeraSans-Roman-20"/>
      <use transform="translate(260.580078125 0.0)" xlink:href="#Cmr10-28"/>
      <use transform="translate(299.3984375 0.0)" xlink:href="#Cmmi10-54"/>
      <use transform="translate(375.35546875 0.0)" xlink:href="#Cmr10-3d"/>
      <use transform="translate(459.6640625 0.0)" xlink:href="#Cmr10-31"/>
      <use transform="translate(509.6640625 0.0)" xlink:href="#Cmmi10-3a"/>
      <use transform="translate(538.45703125 0.0)" xlink:href="#Cmr10-34"/>
      <use transform="translate(606.015625 0.0)" xlink:href="#Cmsy10-a7"/>
      <use transform="translate(690.32421875 0.0)" xlink:href="#Cmr10-30"/>
      <use transform="translate(740.32421875 0.0)" xlink:href="#Cmmi10-3a"/>
      <use transform="translate(769.1171875 0.0)" xlink:href="#Cmr10-34"/>
      <use transform="translate(819.1171875 0.0)" xlink:href="#Cmr10-29"/>
     </g>
    </g>
   </g>
  </g>
 </g>
 <defs>
  <clipPath id="pf1ab47c12d">
   <rect height="172.8" width="279.0" x="47.778125" y="20.6"/>
  </clipPath>
 </defs>
</svg>
