<?xml version="1.0" encoding="utf-8" standalone="no"?>
<!DOCTYPE svg PUBLIC "-//W3C//DTD SVG 1.1//EN"
  "http://www.w3.org/Graphics/SVG/1.1/DTD/svg11.dtd">
<!-- Created with matplotlib (http://matplotlib.org/) -->
<svg height="230pt" version="1.1" viewBox="0 0 343 230" width="343pt" xmlns="http://www.w3.org/2000/svg" xmlns:xlink="http://www.w3.org/1999/xlink">
 <defs>
  <style type="text/css">
*{stroke-linecap:butt;stroke-linejoin:round;}
  </style>
 </defs>
 <g id="figure_1">
  <g id="patch_1">
   <path d="
M0 230.672
L343.628 230.672
L343.628 0
L0 0
z
" style="fill:#ffffff;"/>
  </g>
  <g id="axes_1">
   <g id="patch_2">
    <path d="
M47.7781 194.094
L326.778 194.094
L326.778 21.2938
L47.7781 21.2938
z
" style="fill:#ffffff;"/>
   </g>
   <g id="line2d_1">
    <path clip-path="url(#pdfc68b9276)" d="
M47.7781 159.671
L49.6869 158.699
L51.4905 157.815
L55.0877 156.186
L59.0332 154.752
L62.5541 153.721
L66.2963 152.934
L68.2822 152.576
L81.2708 151.117
L83.1039 151.103
L84.9453 150.877
L86.7884 150.855
L88.6275 150.544
L90.5469 150.521
L92.36 150.129
L97.9805 149.511
L101.657 148.998
L103.502 148.964
L105.361 148.565
L109.093 148.239
L110.954 147.89
L114.685 147.593
L116.544 147.287
L118.416 147.174
L127.697 145.859
L129.557 145.546
L131.419 145.572
L133.253 145.236
L135.126 144.676
L136.985 145.226
L138.845 144.984
L140.702 144.512
L142.55 144.361
L144.419 144.394
L146.268 144.112
L148.126 144.149
L149.986 143.477
L153.701 143.112
L155.57 143.314
L157.42 143.142
L159.279 142.109
L161.142 142.312
L166.719 140.743
L170.432 140.661
L172.292 140.177
L174.148 140.479
L176.01 140.089
L177.865 139.417
L179.725 138.215
L181.585 138.439
L183.444 139.094
L185.301 136.839
L187.157 137.015
L189.019 136.974
L190.876 135.509
L192.732 136.06
L194.592 134.599
L196.45 135.045
L198.308 134.558
L200.167 134.401
L202.026 133.923
L203.883 133.74
L205.743 132.036
L207.601 131.742
L209.46 131.315
L211.318 130.632
L213.177 129.746
L215.035 129.074
L216.893 128.572
L218.751 128.84
L220.61 127.722
L222.468 127.826
L224.326 126.68
L226.184 125.67
L228.043 124.283
L229.902 124.892
L231.76 122.702
L233.618 122.839
L235.477 121.656
L237.335 121.926
L239.194 120.431
L242.911 119.324
L244.769 118.546
L246.628 114.154
L248.486 115.912
L250.345 116.028
L252.203 113.52
L254.061 112.812
L255.919 113.372
L257.778 112.54
L259.636 108.856
L261.495 108.312
L263.353 108.044
L265.212 106.965
L267.07 105.206
L268.928 106.385
L270.787 101.87
L272.645 100.691
L274.503 101.683
L276.362 101.181
L278.22 97.7919
L280.079 96.932
L281.937 96.8636
L283.795 96.5354
L285.654 96.5962
L287.512 90.9286
L289.371 91.6006
L291.229 88.8126
L293.088 90.6436
L296.804 86.4777
L298.663 85.8365
L300.521 82.317
L302.379 83.2973
L304.238 79.5463
L306.096 81.3491
L307.955 79.9958
L309.813 77.1064
L311.671 75.9991
L315.388 73.1653
L317.247 71.1948
L319.105 65.8875
L320.964 66.7187
L322.822 70.0843
L324.68 66.6213
L326.539 66.862
L328.397 64.6133
L330.256 61.2796
L332.114 58.8578
L333.972 57.0589
L335.831 57.4227
L337.689 51.6229
L339.548 53.2262
L341.406 52.9647
L343.264 46.8555
L344.628 49.7346
L344.628 49.7346" style="fill:none;stroke:#4daf4a;stroke-linecap:square;stroke-width:2.0;"/>
   </g>
   <g id="line2d_2">
    <path clip-path="url(#pdfc68b9276)" d="
M47.7781 159.009
L51.7816 156.951
L55.8646 155.133
L59.7228 153.731
L63.7827 152.562
L67.9299 151.659
L73.9023 150.624
L97.9805 147.225
L108.07 145.659
L110.086 145.418
L116.099 144.367
L120.115 143.774
L122.105 143.332
L124.141 143.077
L130.145 141.841
L134.18 141.194
L136.179 140.853
L138.189 140.259
L142.203 139.561
L144.23 139.084
L146.236 138.837
L148.233 138.227
L150.245 137.892
L156.282 136.324
L164.316 134.323
L166.326 133.615
L168.336 133.279
L172.35 131.835
L174.362 131.285
L176.368 130.545
L178.38 130.058
L184.404 127.871
L186.414 127.395
L190.433 125.451
L192.444 125.214
L196.461 123.472
L198.47 122.406
L202.489 120.987
L204.499 119.873
L208.517 118.283
L210.526 117.07
L212.536 116.327
L214.545 114.988
L216.554 114.173
L218.562 113.628
L220.573 112.256
L222.582 111.358
L224.591 109.884
L226.6 108.79
L228.609 108.618
L230.619 107.112
L232.628 105.747
L234.637 104.593
L236.646 103.116
L238.656 102.451
L240.664 101.053
L242.674 99.9347
L246.693 97.118
L248.701 96.5766
L250.711 94.892
L252.72 93.9831
L256.739 91.0619
L258.748 90.0814
L260.757 88.425
L262.766 87.3617
L266.785 84.6368
L270.803 82.7015
L272.812 80.8792
L274.822 79.2413
L276.831 78.6706
L278.84 77.0044
L280.849 75.512
L282.859 74.204
L284.868 71.9686
L286.877 70.2425
L288.886 69.6311
L290.895 68.6164
L292.905 67.9422
L294.914 65.2993
L296.923 64.9025
L298.932 62.6168
L300.942 61.449
L302.951 60.0211
L304.96 58.0681
L306.969 57.3195
L308.979 55.2333
L310.988 54.825
L312.997 52.5607
L315.006 50.7342
L317.016 49.4962
L319.025 49.262
L321.034 47.3188
L323.043 46.6449
L325.052 44.6623
L327.062 43.0392
L329.071 41.8849
L331.08 40.1919
L335.099 36.4468
L337.108 35.1315
L339.117 34.1697
L341.126 31.6372
L344.628 29.2105
L344.628 29.2105" style="fill:none;stroke:#576eb1;stroke-linecap:square;stroke-width:2.0;"/>
   </g>
   <g id="line2d_3">
    <path clip-path="url(#pdfc68b9276)" d="
M47.7781 158.507
L51.7816 156.48
L55.8646 154.753
L57.8505 154.016
L61.9221 152.83
L65.9219 151.955
L69.8219 151.29
L73.9023 150.751
L85.982 149.459
L97.9805 147.839
L116.099 144.847
L118.111 144.367
L122.105 143.782
L124.141 143.277
L126.147 142.94
L132.175 141.665
L134.18 141.277
L138.189 140.24
L142.203 139.513
L150.245 137.519
L152.262 136.947
L154.264 136.691
L156.282 135.797
L158.284 135.424
L160.298 134.622
L162.304 133.973
L164.316 133.521
L166.326 132.512
L168.336 132.213
L170.339 131.607
L172.35 130.787
L174.362 130.257
L178.38 128.745
L180.389 127.912
L182.396 127.222
L188.425 124.645
L190.433 124.154
L196.461 120.991
L198.47 120.05
L200.481 118.891
L204.499 117.509
L206.507 116.279
L208.517 115.325
L210.526 114.192
L212.536 113.213
L214.545 112
L216.554 111.031
L218.562 109.855
L220.573 109.039
L222.582 107.434
L224.591 106.837
L228.609 104.591
L230.619 103.31
L232.628 102.619
L234.637 100.454
L236.646 99.9267
L240.664 96.9169
L244.683 94.9825
L252.72 89.8501
L254.73 88.2559
L256.739 87.0951
L258.748 86.1729
L260.757 84.295
L262.766 83.0978
L264.775 81.5237
L266.785 80.2379
L268.794 78.6534
L270.803 77.4966
L272.812 77.1433
L274.822 75.3239
L276.831 73.6894
L278.84 72.6649
L280.849 71.9017
L282.859 70.2728
L284.868 68.2662
L286.877 66.0763
L288.886 65.3709
L290.895 63.8366
L294.914 61.4895
L296.923 59.4868
L298.932 57.7309
L300.942 57.0699
L304.96 53.9186
L306.969 52.8571
L308.979 50.8687
L310.988 50.4624
L312.997 47.3339
L315.006 47.3297
L319.025 42.8807
L323.043 40.5994
L327.062 36.8475
L329.071 36.5307
L333.089 32.3603
L335.099 30.5387
L337.108 30.0399
L339.117 27.3147
L341.126 27.111
L343.136 24.8789
L344.628 24.1252
L344.628 24.1252" style="fill:none;stroke:#cb2b49;stroke-linecap:square;stroke-width:2.0;"/>
   </g>
   <g id="line2d_4">
    <path clip-path="url(#pdfc68b9276)" d="
M47.7781 158.186
L51.7816 156.106
L55.8646 154.263
L59.7228 152.799
L63.7827 151.543
L67.9299 150.506
L71.9256 149.63
L77.9241 148.5
L85.982 147.106
L96.0123 145.126
L112.078 141.65
L124.141 138.701
L128.151 137.622
L130.145 137.179
L132.175 136.495
L134.18 136.039
L136.179 135.328
L140.199 134.171
L150.245 130.993
L154.264 129.551
L156.282 128.906
L158.284 127.915
L160.298 127.399
L162.304 126.399
L170.339 123.392
L172.35 122.518
L174.362 121.492
L176.368 120.699
L180.389 118.72
L182.396 117.902
L188.425 115.033
L190.433 113.851
L192.444 113.08
L196.461 110.81
L202.489 107.443
L204.499 106.15
L206.507 105.272
L214.545 100.577
L216.554 99.8228
L224.591 94.4686
L234.637 88.1774
L236.646 86.6429
L242.674 82.7597
L246.693 79.8869
L248.701 78.4263
L250.711 77.4188
L252.72 75.9389
L258.748 72.0126
L260.757 70.1161
L262.766 68.6267
L264.775 67.7915
L268.794 64.631
L270.803 63.3734
L276.831 58.9106
L278.84 56.8978
L280.849 55.6669
L284.868 53.5872
L286.877 52.0574
L288.886 49.9122
L290.895 49.4963
L292.905 47.7521
L294.914 46.1619
L296.923 45.0536
L298.932 42.7512
L302.951 40.3942
L304.96 39.0262
L306.969 36.8249
L308.979 35.9906
L310.988 33.9013
L312.997 33.4142
L315.006 31.0662
L317.016 30.7956
L319.025 28.2054
L321.034 26.9918
L323.043 25.5554
L325.052 24.2875
L327.062 22.5645
L329.071 21.0545
L331.08 18.5406
L335.099 16.5372
L337.108 15.636
L339.117 13.7013
L341.126 12.7351
L343.136 10.1518
L344.628 10.6858
L344.628 10.6858" style="fill:none;stroke:#ff7f00;stroke-linecap:square;stroke-width:2.0;"/>
   </g>
   <g id="patch_3">
    <path d="
M47.7781 194.094
L326.778 194.094" style="fill:none;stroke:#000000;stroke-linecap:square;stroke-linejoin:miter;"/>
   </g>
   <g id="patch_4">
    <path d="
M47.7781 21.2938
L326.778 21.2938" style="fill:none;stroke:#000000;stroke-linecap:square;stroke-linejoin:miter;"/>
   </g>
   <g id="patch_5">
    <path d="
M326.778 194.094
L326.778 21.2938" style="fill:none;stroke:#000000;stroke-linecap:square;stroke-linejoin:miter;"/>
   </g>
   <g id="patch_6">
    <path d="
M47.7781 194.094
L47.7781 21.2938" style="fill:none;stroke:#000000;stroke-linecap:square;stroke-linejoin:miter;"/>
   </g>
   <g id="matplotlib.axis_1">
    <g id="xtick_1">
     <g id="line2d_5">
      <defs>
       <path d="
M0 0
L0 -4" id="mc7db9fdffb" style="stroke:#000000;stroke-width:0.5;"/>
      </defs>
      <g>
       <use style="stroke:#000000;stroke-width:0.5;" x="100.49891781" xlink:href="#mc7db9fdffb" y="194.09375"/>
      </g>
     </g>
     <g id="line2d_6">
      <defs>
       <path d="
M0 0
L0 4" id="m5a7d422ac3" style="stroke:#000000;stroke-width:0.5;"/>
      </defs>
      <g>
       <use style="stroke:#000000;stroke-width:0.5;" x="100.49891781" xlink:href="#m5a7d422ac3" y="21.29375"/>
      </g>
     </g>
     <g id="text_1">
      <!-- $\mathdefault{10^{0}}$ -->
      <defs>
       <path d="
M12.4062 8.29688
L28.5156 8.29688
L28.5156 63.9219
L10.9844 60.4062
L10.9844 69.3906
L28.4219 72.9062
L38.2812 72.9062
L38.2812 8.29688
L54.3906 8.29688
L54.3906 0
L12.4062 0
z
" id="BitstreamVeraSans-Roman-31"/>
       <path d="
M31.7812 66.4062
Q24.1719 66.4062 20.3281 58.9062
Q16.5 51.4219 16.5 36.375
Q16.5 21.3906 20.3281 13.8906
Q24.1719 6.39062 31.7812 6.39062
Q39.4531 6.39062 43.2812 13.8906
Q47.125 21.3906 47.125 36.375
Q47.125 51.4219 43.2812 58.9062
Q39.4531 66.4062 31.7812 66.4062
M31.7812 74.2188
Q44.0469 74.2188 50.5156 64.5156
Q56.9844 54.8281 56.9844 36.375
Q56.9844 17.9688 50.5156 8.26562
Q44.0469 -1.42188 31.7812 -1.42188
Q19.5312 -1.42188 13.0625 8.26562
Q6.59375 17.9688 6.59375 36.375
Q6.59375 54.8281 13.0625 64.5156
Q19.5312 74.2188 31.7812 74.2188" id="BitstreamVeraSans-Roman-30"/>
      </defs>
      <g transform="translate(90.8489178102 206.7140625)scale(0.1 -0.1)">
       <use transform="translate(0.0 0.546875)" xlink:href="#BitstreamVeraSans-Roman-31"/>
       <use transform="translate(63.623046875 0.546875)" xlink:href="#BitstreamVeraSans-Roman-30"/>
       <use transform="translate(127.24609375 53.046875)scale(0.7)" xlink:href="#BitstreamVeraSans-Roman-30"/>
      </g>
     </g>
    </g>
    <g id="xtick_2">
     <g id="line2d_7">
      <g>
       <use style="stroke:#000000;stroke-width:0.5;" x="175.925320207" xlink:href="#mc7db9fdffb" y="194.09375"/>
      </g>
     </g>
     <g id="line2d_8">
      <g>
       <use style="stroke:#000000;stroke-width:0.5;" x="175.925320207" xlink:href="#m5a7d422ac3" y="21.29375"/>
      </g>
     </g>
     <g id="text_2">
      <!-- $\mathdefault{10^{1}}$ -->
      <g transform="translate(166.275320207 206.6140625)scale(0.1 -0.1)">
       <use transform="translate(0.0 0.46562500000000284)" xlink:href="#BitstreamVeraSans-Roman-31"/>
       <use transform="translate(63.623046875 0.46562500000000284)" xlink:href="#BitstreamVeraSans-Roman-30"/>
       <use transform="translate(127.24609375 52.965625)scale(0.7)" xlink:href="#BitstreamVeraSans-Roman-31"/>
      </g>
     </g>
    </g>
    <g id="xtick_3">
     <g id="line2d_9">
      <g>
       <use style="stroke:#000000;stroke-width:0.5;" x="251.351722603" xlink:href="#mc7db9fdffb" y="194.09375"/>
      </g>
     </g>
     <g id="line2d_10">
      <g>
       <use style="stroke:#000000;stroke-width:0.5;" x="251.351722603" xlink:href="#m5a7d422ac3" y="21.29375"/>
      </g>
     </g>
     <g id="text_3">
      <!-- $\mathdefault{10^{2}}$ -->
      <defs>
       <path d="
M19.1875 8.29688
L53.6094 8.29688
L53.6094 0
L7.32812 0
L7.32812 8.29688
Q12.9375 14.1094 22.625 23.8906
Q32.3281 33.6875 34.8125 36.5312
Q39.5469 41.8438 41.4219 45.5312
Q43.3125 49.2188 43.3125 52.7812
Q43.3125 58.5938 39.2344 62.25
Q35.1562 65.9219 28.6094 65.9219
Q23.9688 65.9219 18.8125 64.3125
Q13.6719 62.7031 7.8125 59.4219
L7.8125 69.3906
Q13.7656 71.7812 18.9375 73
Q24.125 74.2188 28.4219 74.2188
Q39.75 74.2188 46.4844 68.5469
Q53.2188 62.8906 53.2188 53.4219
Q53.2188 48.9219 51.5312 44.8906
Q49.8594 40.875 45.4062 35.4062
Q44.1875 33.9844 37.6406 27.2188
Q31.1094 20.4531 19.1875 8.29688" id="BitstreamVeraSans-Roman-32"/>
      </defs>
      <g transform="translate(241.701722603 206.7140625)scale(0.1 -0.1)">
       <use transform="translate(0.0 0.546875)" xlink:href="#BitstreamVeraSans-Roman-31"/>
       <use transform="translate(63.623046875 0.546875)" xlink:href="#BitstreamVeraSans-Roman-30"/>
       <use transform="translate(127.24609375 53.046875)scale(0.7)" xlink:href="#BitstreamVeraSans-Roman-32"/>
      </g>
     </g>
    </g>
    <g id="xtick_4">
     <g id="line2d_11">
      <g>
       <use style="stroke:#000000;stroke-width:0.5;" x="326.778125" xlink:href="#mc7db9fdffb" y="194.09375"/>
      </g>
     </g>
     <g id="line2d_12">
      <g>
       <use style="stroke:#000000;stroke-width:0.5;" x="326.778125" xlink:href="#m5a7d422ac3" y="21.29375"/>
      </g>
     </g>
     <g id="text_4">
      <!-- $\mathdefault{10^{3}}$ -->
      <defs>
       <path d="
M40.5781 39.3125
Q47.6562 37.7969 51.625 33
Q55.6094 28.2188 55.6094 21.1875
Q55.6094 10.4062 48.1875 4.48438
Q40.7656 -1.42188 27.0938 -1.42188
Q22.5156 -1.42188 17.6562 -0.515625
Q12.7969 0.390625 7.625 2.20312
L7.625 11.7188
Q11.7188 9.32812 16.5938 8.10938
Q21.4844 6.89062 26.8125 6.89062
Q36.0781 6.89062 40.9375 10.5469
Q45.7969 14.2031 45.7969 21.1875
Q45.7969 27.6406 41.2812 31.2656
Q36.7656 34.9062 28.7188 34.9062
L20.2188 34.9062
L20.2188 43.0156
L29.1094 43.0156
Q36.375 43.0156 40.2344 45.9219
Q44.0938 48.8281 44.0938 54.2969
Q44.0938 59.9062 40.1094 62.9062
Q36.1406 65.9219 28.7188 65.9219
Q24.6562 65.9219 20.0156 65.0312
Q15.375 64.1562 9.8125 62.3125
L9.8125 71.0938
Q15.4375 72.6562 20.3438 73.4375
Q25.25 74.2188 29.5938 74.2188
Q40.8281 74.2188 47.3594 69.1094
Q53.9062 64.0156 53.9062 55.3281
Q53.9062 49.2656 50.4375 45.0938
Q46.9688 40.9219 40.5781 39.3125" id="BitstreamVeraSans-Roman-33"/>
      </defs>
      <g transform="translate(317.128125 206.7140625)scale(0.1 -0.1)">
       <use transform="translate(0.0 0.546875)" xlink:href="#BitstreamVeraSans-Roman-31"/>
       <use transform="translate(63.623046875 0.546875)" xlink:href="#BitstreamVeraSans-Roman-30"/>
       <use transform="translate(127.24609375 53.046875)scale(0.7)" xlink:href="#BitstreamVeraSans-Roman-33"/>
      </g>
     </g>
    </g>
    <g id="xtick_5">
     <g id="line2d_13">
      <defs>
       <path d="
M0 0
L0 -2" id="mc21db286a6" style="stroke:#000000;stroke-width:0.5;"/>
      </defs>
      <g>
       <use style="stroke:#000000;stroke-width:0.5;" x="47.778125" xlink:href="#mc21db286a6" y="194.09375"/>
      </g>
     </g>
     <g id="line2d_14">
      <defs>
       <path d="
M0 0
L0 2" id="ma9c915e141" style="stroke:#000000;stroke-width:0.5;"/>
      </defs>
      <g>
       <use style="stroke:#000000;stroke-width:0.5;" x="47.778125" xlink:href="#ma9c915e141" y="21.29375"/>
      </g>
     </g>
    </g>
    <g id="xtick_6">
     <g id="line2d_15">
      <g>
       <use style="stroke:#000000;stroke-width:0.5;" x="61.0600551641" xlink:href="#mc21db286a6" y="194.09375"/>
      </g>
     </g>
     <g id="line2d_16">
      <g>
       <use style="stroke:#000000;stroke-width:0.5;" x="61.0600551641" xlink:href="#ma9c915e141" y="21.29375"/>
      </g>
     </g>
    </g>
    <g id="xtick_7">
     <g id="line2d_17">
      <g>
       <use style="stroke:#000000;stroke-width:0.5;" x="70.4837345864" xlink:href="#mc21db286a6" y="194.09375"/>
      </g>
     </g>
     <g id="line2d_18">
      <g>
       <use style="stroke:#000000;stroke-width:0.5;" x="70.4837345864" xlink:href="#ma9c915e141" y="21.29375"/>
      </g>
     </g>
    </g>
    <g id="xtick_8">
     <g id="line2d_19">
      <g>
       <use style="stroke:#000000;stroke-width:0.5;" x="77.7933082238" xlink:href="#mc21db286a6" y="194.09375"/>
      </g>
     </g>
     <g id="line2d_20">
      <g>
       <use style="stroke:#000000;stroke-width:0.5;" x="77.7933082238" xlink:href="#ma9c915e141" y="21.29375"/>
      </g>
     </g>
    </g>
    <g id="xtick_9">
     <g id="line2d_21">
      <g>
       <use style="stroke:#000000;stroke-width:0.5;" x="83.7656647505" xlink:href="#mc21db286a6" y="194.09375"/>
      </g>
     </g>
     <g id="line2d_22">
      <g>
       <use style="stroke:#000000;stroke-width:0.5;" x="83.7656647505" xlink:href="#ma9c915e141" y="21.29375"/>
      </g>
     </g>
    </g>
    <g id="xtick_10">
     <g id="line2d_23">
      <g>
       <use style="stroke:#000000;stroke-width:0.5;" x="88.8152202443" xlink:href="#mc21db286a6" y="194.09375"/>
      </g>
     </g>
     <g id="line2d_24">
      <g>
       <use style="stroke:#000000;stroke-width:0.5;" x="88.8152202443" xlink:href="#ma9c915e141" y="21.29375"/>
      </g>
     </g>
    </g>
    <g id="xtick_11">
     <g id="line2d_25">
      <g>
       <use style="stroke:#000000;stroke-width:0.5;" x="93.1893441728" xlink:href="#mc21db286a6" y="194.09375"/>
      </g>
     </g>
     <g id="line2d_26">
      <g>
       <use style="stroke:#000000;stroke-width:0.5;" x="93.1893441728" xlink:href="#ma9c915e141" y="21.29375"/>
      </g>
     </g>
    </g>
    <g id="xtick_12">
     <g id="line2d_27">
      <g>
       <use style="stroke:#000000;stroke-width:0.5;" x="97.0475949145" xlink:href="#mc21db286a6" y="194.09375"/>
      </g>
     </g>
     <g id="line2d_28">
      <g>
       <use style="stroke:#000000;stroke-width:0.5;" x="97.0475949145" xlink:href="#ma9c915e141" y="21.29375"/>
      </g>
     </g>
    </g>
    <g id="xtick_13">
     <g id="line2d_29">
      <g>
       <use style="stroke:#000000;stroke-width:0.5;" x="123.204527397" xlink:href="#mc21db286a6" y="194.09375"/>
      </g>
     </g>
     <g id="line2d_30">
      <g>
       <use style="stroke:#000000;stroke-width:0.5;" x="123.204527397" xlink:href="#ma9c915e141" y="21.29375"/>
      </g>
     </g>
    </g>
    <g id="xtick_14">
     <g id="line2d_31">
      <g>
       <use style="stroke:#000000;stroke-width:0.5;" x="136.486457561" xlink:href="#mc21db286a6" y="194.09375"/>
      </g>
     </g>
     <g id="line2d_32">
      <g>
       <use style="stroke:#000000;stroke-width:0.5;" x="136.486457561" xlink:href="#ma9c915e141" y="21.29375"/>
      </g>
     </g>
    </g>
    <g id="xtick_15">
     <g id="line2d_33">
      <g>
       <use style="stroke:#000000;stroke-width:0.5;" x="145.910136983" xlink:href="#mc21db286a6" y="194.09375"/>
      </g>
     </g>
     <g id="line2d_34">
      <g>
       <use style="stroke:#000000;stroke-width:0.5;" x="145.910136983" xlink:href="#ma9c915e141" y="21.29375"/>
      </g>
     </g>
    </g>
    <g id="xtick_16">
     <g id="line2d_35">
      <g>
       <use style="stroke:#000000;stroke-width:0.5;" x="153.21971062" xlink:href="#mc21db286a6" y="194.09375"/>
      </g>
     </g>
     <g id="line2d_36">
      <g>
       <use style="stroke:#000000;stroke-width:0.5;" x="153.21971062" xlink:href="#ma9c915e141" y="21.29375"/>
      </g>
     </g>
    </g>
    <g id="xtick_17">
     <g id="line2d_37">
      <g>
       <use style="stroke:#000000;stroke-width:0.5;" x="159.192067147" xlink:href="#mc21db286a6" y="194.09375"/>
      </g>
     </g>
     <g id="line2d_38">
      <g>
       <use style="stroke:#000000;stroke-width:0.5;" x="159.192067147" xlink:href="#ma9c915e141" y="21.29375"/>
      </g>
     </g>
    </g>
    <g id="xtick_18">
     <g id="line2d_39">
      <g>
       <use style="stroke:#000000;stroke-width:0.5;" x="164.241622641" xlink:href="#mc21db286a6" y="194.09375"/>
      </g>
     </g>
     <g id="line2d_40">
      <g>
       <use style="stroke:#000000;stroke-width:0.5;" x="164.241622641" xlink:href="#ma9c915e141" y="21.29375"/>
      </g>
     </g>
    </g>
    <g id="xtick_19">
     <g id="line2d_41">
      <g>
       <use style="stroke:#000000;stroke-width:0.5;" x="168.615746569" xlink:href="#mc21db286a6" y="194.09375"/>
      </g>
     </g>
     <g id="line2d_42">
      <g>
       <use style="stroke:#000000;stroke-width:0.5;" x="168.615746569" xlink:href="#ma9c915e141" y="21.29375"/>
      </g>
     </g>
    </g>
    <g id="xtick_20">
     <g id="line2d_43">
      <g>
       <use style="stroke:#000000;stroke-width:0.5;" x="172.473997311" xlink:href="#mc21db286a6" y="194.09375"/>
      </g>
     </g>
     <g id="line2d_44">
      <g>
       <use style="stroke:#000000;stroke-width:0.5;" x="172.473997311" xlink:href="#ma9c915e141" y="21.29375"/>
      </g>
     </g>
    </g>
    <g id="xtick_21">
     <g id="line2d_45">
      <g>
       <use style="stroke:#000000;stroke-width:0.5;" x="198.630929793" xlink:href="#mc21db286a6" y="194.09375"/>
      </g>
     </g>
     <g id="line2d_46">
      <g>
       <use style="stroke:#000000;stroke-width:0.5;" x="198.630929793" xlink:href="#ma9c915e141" y="21.29375"/>
      </g>
     </g>
    </g>
    <g id="xtick_22">
     <g id="line2d_47">
      <g>
       <use style="stroke:#000000;stroke-width:0.5;" x="211.912859957" xlink:href="#mc21db286a6" y="194.09375"/>
      </g>
     </g>
     <g id="line2d_48">
      <g>
       <use style="stroke:#000000;stroke-width:0.5;" x="211.912859957" xlink:href="#ma9c915e141" y="21.29375"/>
      </g>
     </g>
    </g>
    <g id="xtick_23">
     <g id="line2d_49">
      <g>
       <use style="stroke:#000000;stroke-width:0.5;" x="221.33653938" xlink:href="#mc21db286a6" y="194.09375"/>
      </g>
     </g>
     <g id="line2d_50">
      <g>
       <use style="stroke:#000000;stroke-width:0.5;" x="221.33653938" xlink:href="#ma9c915e141" y="21.29375"/>
      </g>
     </g>
    </g>
    <g id="xtick_24">
     <g id="line2d_51">
      <g>
       <use style="stroke:#000000;stroke-width:0.5;" x="228.646113017" xlink:href="#mc21db286a6" y="194.09375"/>
      </g>
     </g>
     <g id="line2d_52">
      <g>
       <use style="stroke:#000000;stroke-width:0.5;" x="228.646113017" xlink:href="#ma9c915e141" y="21.29375"/>
      </g>
     </g>
    </g>
    <g id="xtick_25">
     <g id="line2d_53">
      <g>
       <use style="stroke:#000000;stroke-width:0.5;" x="234.618469544" xlink:href="#mc21db286a6" y="194.09375"/>
      </g>
     </g>
     <g id="line2d_54">
      <g>
       <use style="stroke:#000000;stroke-width:0.5;" x="234.618469544" xlink:href="#ma9c915e141" y="21.29375"/>
      </g>
     </g>
    </g>
    <g id="xtick_26">
     <g id="line2d_55">
      <g>
       <use style="stroke:#000000;stroke-width:0.5;" x="239.668025037" xlink:href="#mc21db286a6" y="194.09375"/>
      </g>
     </g>
     <g id="line2d_56">
      <g>
       <use style="stroke:#000000;stroke-width:0.5;" x="239.668025037" xlink:href="#ma9c915e141" y="21.29375"/>
      </g>
     </g>
    </g>
    <g id="xtick_27">
     <g id="line2d_57">
      <g>
       <use style="stroke:#000000;stroke-width:0.5;" x="244.042148966" xlink:href="#mc21db286a6" y="194.09375"/>
      </g>
     </g>
     <g id="line2d_58">
      <g>
       <use style="stroke:#000000;stroke-width:0.5;" x="244.042148966" xlink:href="#ma9c915e141" y="21.29375"/>
      </g>
     </g>
    </g>
    <g id="xtick_28">
     <g id="line2d_59">
      <g>
       <use style="stroke:#000000;stroke-width:0.5;" x="247.900399708" xlink:href="#mc21db286a6" y="194.09375"/>
      </g>
     </g>
     <g id="line2d_60">
      <g>
       <use style="stroke:#000000;stroke-width:0.5;" x="247.900399708" xlink:href="#ma9c915e141" y="21.29375"/>
      </g>
     </g>
    </g>
    <g id="xtick_29">
     <g id="line2d_61">
      <g>
       <use style="stroke:#000000;stroke-width:0.5;" x="274.05733219" xlink:href="#mc21db286a6" y="194.09375"/>
      </g>
     </g>
     <g id="line2d_62">
      <g>
       <use style="stroke:#000000;stroke-width:0.5;" x="274.05733219" xlink:href="#ma9c915e141" y="21.29375"/>
      </g>
     </g>
    </g>
    <g id="xtick_30">
     <g id="line2d_63">
      <g>
       <use style="stroke:#000000;stroke-width:0.5;" x="287.339262354" xlink:href="#mc21db286a6" y="194.09375"/>
      </g>
     </g>
     <g id="line2d_64">
      <g>
       <use style="stroke:#000000;stroke-width:0.5;" x="287.339262354" xlink:href="#ma9c915e141" y="21.29375"/>
      </g>
     </g>
    </g>
    <g id="xtick_31">
     <g id="line2d_65">
      <g>
       <use style="stroke:#000000;stroke-width:0.5;" x="296.762941776" xlink:href="#mc21db286a6" y="194.09375"/>
      </g>
     </g>
     <g id="line2d_66">
      <g>
       <use style="stroke:#000000;stroke-width:0.5;" x="296.762941776" xlink:href="#ma9c915e141" y="21.29375"/>
      </g>
     </g>
    </g>
    <g id="xtick_32">
     <g id="line2d_67">
      <g>
       <use style="stroke:#000000;stroke-width:0.5;" x="304.072515414" xlink:href="#mc21db286a6" y="194.09375"/>
      </g>
     </g>
     <g id="line2d_68">
      <g>
       <use style="stroke:#000000;stroke-width:0.5;" x="304.072515414" xlink:href="#ma9c915e141" y="21.29375"/>
      </g>
     </g>
    </g>
    <g id="xtick_33">
     <g id="line2d_69">
      <g>
       <use style="stroke:#000000;stroke-width:0.5;" x="310.04487194" xlink:href="#mc21db286a6" y="194.09375"/>
      </g>
     </g>
     <g id="line2d_70">
      <g>
       <use style="stroke:#000000;stroke-width:0.5;" x="310.04487194" xlink:href="#ma9c915e141" y="21.29375"/>
      </g>
     </g>
    </g>
    <g id="xtick_34">
     <g id="line2d_71">
      <g>
       <use style="stroke:#000000;stroke-width:0.5;" x="315.094427434" xlink:href="#mc21db286a6" y="194.09375"/>
      </g>
     </g>
     <g id="line2d_72">
      <g>
       <use style="stroke:#000000;stroke-width:0.5;" x="315.094427434" xlink:href="#ma9c915e141" y="21.29375"/>
      </g>
     </g>
    </g>
    <g id="xtick_35">
     <g id="line2d_73">
      <g>
       <use style="stroke:#000000;stroke-width:0.5;" x="319.468551363" xlink:href="#mc21db286a6" y="194.09375"/>
      </g>
     </g>
     <g id="line2d_74">
      <g>
       <use style="stroke:#000000;stroke-width:0.5;" x="319.468551363" xlink:href="#ma9c915e141" y="21.29375"/>
      </g>
     </g>
    </g>
    <g id="xtick_36">
     <g id="line2d_75">
      <g>
       <use style="stroke:#000000;stroke-width:0.5;" x="323.326802104" xlink:href="#mc21db286a6" y="194.09375"/>
      </g>
     </g>
     <g id="line2d_76">
      <g>
       <use style="stroke:#000000;stroke-width:0.5;" x="323.326802104" xlink:href="#ma9c915e141" y="21.29375"/>
      </g>
     </g>
    </g>
    <g id="text_5">
     <!-- time -->
     <defs>
      <path d="
M9.42188 54.6875
L18.4062 54.6875
L18.4062 0
L9.42188 0
z

M9.42188 75.9844
L18.4062 75.9844
L18.4062 64.5938
L9.42188 64.5938
z
" id="BitstreamVeraSans-Roman-69"/>
      <path d="
M56.2031 29.5938
L56.2031 25.2031
L14.8906 25.2031
Q15.4844 15.9219 20.4844 11.0625
Q25.4844 6.20312 34.4219 6.20312
Q39.5938 6.20312 44.4531 7.46875
Q49.3125 8.73438 54.1094 11.2812
L54.1094 2.78125
Q49.2656 0.734375 44.1875 -0.34375
Q39.1094 -1.42188 33.8906 -1.42188
Q20.7969 -1.42188 13.1562 6.1875
Q5.51562 13.8125 5.51562 26.8125
Q5.51562 40.2344 12.7656 48.1094
Q20.0156 56 32.3281 56
Q43.3594 56 49.7812 48.8906
Q56.2031 41.7969 56.2031 29.5938
M47.2188 32.2344
Q47.125 39.5938 43.0938 43.9844
Q39.0625 48.3906 32.4219 48.3906
Q24.9062 48.3906 20.3906 44.1406
Q15.875 39.8906 15.1875 32.1719
z
" id="BitstreamVeraSans-Roman-65"/>
      <path d="
M52 44.1875
Q55.375 50.25 60.0625 53.125
Q64.75 56 71.0938 56
Q79.6406 56 84.2812 50.0156
Q88.9219 44.0469 88.9219 33.0156
L88.9219 0
L79.8906 0
L79.8906 32.7188
Q79.8906 40.5781 77.0938 44.375
Q74.3125 48.1875 68.6094 48.1875
Q61.625 48.1875 57.5625 43.5469
Q53.5156 38.9219 53.5156 30.9062
L53.5156 0
L44.4844 0
L44.4844 32.7188
Q44.4844 40.625 41.7031 44.4062
Q38.9219 48.1875 33.1094 48.1875
Q26.2188 48.1875 22.1562 43.5312
Q18.1094 38.875 18.1094 30.9062
L18.1094 0
L9.07812 0
L9.07812 54.6875
L18.1094 54.6875
L18.1094 46.1875
Q21.1875 51.2188 25.4844 53.6094
Q29.7812 56 35.6875 56
Q41.6562 56 45.8281 52.9688
Q50 49.9531 52 44.1875" id="BitstreamVeraSans-Roman-6d"/>
      <path d="
M18.3125 70.2188
L18.3125 54.6875
L36.8125 54.6875
L36.8125 47.7031
L18.3125 47.7031
L18.3125 18.0156
Q18.3125 11.3281 20.1406 9.42188
Q21.9688 7.51562 27.5938 7.51562
L36.8125 7.51562
L36.8125 0
L27.5938 0
Q17.1875 0 13.2344 3.875
Q9.28125 7.76562 9.28125 18.0156
L9.28125 47.7031
L2.6875 47.7031
L2.6875 54.6875
L9.28125 54.6875
L9.28125 70.2188
z
" id="BitstreamVeraSans-Roman-74"/>
     </defs>
     <g transform="translate(176.3828125 221.3921875)scale(0.1 -0.1)">
      <use xlink:href="#BitstreamVeraSans-Roman-74"/>
      <use x="39.208984375" xlink:href="#BitstreamVeraSans-Roman-69"/>
      <use x="66.9921875" xlink:href="#BitstreamVeraSans-Roman-6d"/>
      <use x="164.404296875" xlink:href="#BitstreamVeraSans-Roman-65"/>
     </g>
    </g>
   </g>
   <g id="matplotlib.axis_2">
    <g id="ytick_1">
     <g id="line2d_77">
      <defs>
       <path d="
M0 0
L4 0" id="md7965d1ba0" style="stroke:#000000;stroke-width:0.5;"/>
      </defs>
      <g>
       <use style="stroke:#000000;stroke-width:0.5;" x="47.778125" xlink:href="#md7965d1ba0" y="194.09375"/>
      </g>
     </g>
     <g id="line2d_78">
      <defs>
       <path d="
M0 0
L-4 0" id="md9a1c1a7cd" style="stroke:#000000;stroke-width:0.5;"/>
      </defs>
      <g>
       <use style="stroke:#000000;stroke-width:0.5;" x="326.778125" xlink:href="#md9a1c1a7cd" y="194.09375"/>
      </g>
     </g>
     <g id="text_6">
      <!-- $\mathdefault{10^{-2}}$ -->
      <defs>
       <path d="
M4.89062 31.3906
L31.2031 31.3906
L31.2031 23.3906
L4.89062 23.3906
z
" id="BitstreamVeraSans-Roman-2d"/>
      </defs>
      <g transform="translate(21.878125 197.3640625)scale(0.1 -0.1)">
       <use transform="translate(0.0 0.546875)" xlink:href="#BitstreamVeraSans-Roman-31"/>
       <use transform="translate(63.623046875 0.546875)" xlink:href="#BitstreamVeraSans-Roman-30"/>
       <use transform="translate(127.24609375 53.046875)scale(0.7)" xlink:href="#BitstreamVeraSans-Roman-2d"/>
       <use transform="translate(152.5048828125 53.046875)scale(0.7)" xlink:href="#BitstreamVeraSans-Roman-32"/>
      </g>
     </g>
    </g>
    <g id="ytick_2">
     <g id="line2d_79">
      <g>
       <use style="stroke:#000000;stroke-width:0.5;" x="47.778125" xlink:href="#md7965d1ba0" y="136.49375"/>
      </g>
     </g>
     <g id="line2d_80">
      <g>
       <use style="stroke:#000000;stroke-width:0.5;" x="326.778125" xlink:href="#md9a1c1a7cd" y="136.49375"/>
      </g>
     </g>
     <g id="text_7">
      <!-- $\mathdefault{10^{-1}}$ -->
      <g transform="translate(21.878125 139.7140625)scale(0.1 -0.1)">
       <use transform="translate(0.0 0.46562500000000284)" xlink:href="#BitstreamVeraSans-Roman-31"/>
       <use transform="translate(63.623046875 0.46562500000000284)" xlink:href="#BitstreamVeraSans-Roman-30"/>
       <use transform="translate(127.24609375 52.965625)scale(0.7)" xlink:href="#BitstreamVeraSans-Roman-2d"/>
       <use transform="translate(152.5048828125 52.965625)scale(0.7)" xlink:href="#BitstreamVeraSans-Roman-31"/>
      </g>
     </g>
    </g>
    <g id="ytick_3">
     <g id="line2d_81">
      <g>
       <use style="stroke:#000000;stroke-width:0.5;" x="47.778125" xlink:href="#md7965d1ba0" y="78.89375"/>
      </g>
     </g>
     <g id="line2d_82">
      <g>
       <use style="stroke:#000000;stroke-width:0.5;" x="326.778125" xlink:href="#md9a1c1a7cd" y="78.89375"/>
      </g>
     </g>
     <g id="text_8">
      <!-- $\mathdefault{10^{0}}$ -->
      <g transform="translate(24.478125 82.1640625)scale(0.1 -0.1)">
       <use transform="translate(0.0 0.546875)" xlink:href="#BitstreamVeraSans-Roman-31"/>
       <use transform="translate(63.623046875 0.546875)" xlink:href="#BitstreamVeraSans-Roman-30"/>
       <use transform="translate(127.24609375 53.046875)scale(0.7)" xlink:href="#BitstreamVeraSans-Roman-30"/>
      </g>
     </g>
    </g>
    <g id="ytick_4">
     <g id="line2d_83">
      <g>
       <use style="stroke:#000000;stroke-width:0.5;" x="47.778125" xlink:href="#md7965d1ba0" y="21.29375"/>
      </g>
     </g>
     <g id="line2d_84">
      <g>
       <use style="stroke:#000000;stroke-width:0.5;" x="326.778125" xlink:href="#md9a1c1a7cd" y="21.29375"/>
      </g>
     </g>
     <g id="text_9">
      <!-- $\mathdefault{10^{1}}$ -->
      <g transform="translate(24.478125 24.5140625)scale(0.1 -0.1)">
       <use transform="translate(0.0 0.46562500000000284)" xlink:href="#BitstreamVeraSans-Roman-31"/>
       <use transform="translate(63.623046875 0.46562500000000284)" xlink:href="#BitstreamVeraSans-Roman-30"/>
       <use transform="translate(127.24609375 52.965625)scale(0.7)" xlink:href="#BitstreamVeraSans-Roman-31"/>
      </g>
     </g>
    </g>
    <g id="ytick_5">
     <g id="line2d_85">
      <defs>
       <path d="
M0 0
L2 0" id="m8d45281ad4" style="stroke:#000000;stroke-width:0.5;"/>
      </defs>
      <g>
       <use style="stroke:#000000;stroke-width:0.5;" x="47.778125" xlink:href="#m8d45281ad4" y="176.75442225"/>
      </g>
     </g>
     <g id="line2d_86">
      <defs>
       <path d="
M0 0
L-2 0" id="me3f9b4022a" style="stroke:#000000;stroke-width:0.5;"/>
      </defs>
      <g>
       <use style="stroke:#000000;stroke-width:0.5;" x="326.778125" xlink:href="#me3f9b4022a" y="176.75442225"/>
      </g>
     </g>
    </g>
    <g id="ytick_6">
     <g id="line2d_87">
      <g>
       <use style="stroke:#000000;stroke-width:0.5;" x="47.778125" xlink:href="#m8d45281ad4" y="166.611565728"/>
      </g>
     </g>
     <g id="line2d_88">
      <g>
       <use style="stroke:#000000;stroke-width:0.5;" x="326.778125" xlink:href="#me3f9b4022a" y="166.611565728"/>
      </g>
     </g>
    </g>
    <g id="ytick_7">
     <g id="line2d_89">
      <g>
       <use style="stroke:#000000;stroke-width:0.5;" x="47.778125" xlink:href="#m8d45281ad4" y="159.4150945"/>
      </g>
     </g>
     <g id="line2d_90">
      <g>
       <use style="stroke:#000000;stroke-width:0.5;" x="326.778125" xlink:href="#me3f9b4022a" y="159.4150945"/>
      </g>
     </g>
    </g>
    <g id="ytick_8">
     <g id="line2d_91">
      <g>
       <use style="stroke:#000000;stroke-width:0.5;" x="47.778125" xlink:href="#m8d45281ad4" y="153.83307775"/>
      </g>
     </g>
     <g id="line2d_92">
      <g>
       <use style="stroke:#000000;stroke-width:0.5;" x="326.778125" xlink:href="#me3f9b4022a" y="153.83307775"/>
      </g>
     </g>
    </g>
    <g id="ytick_9">
     <g id="line2d_93">
      <g>
       <use style="stroke:#000000;stroke-width:0.5;" x="47.778125" xlink:href="#m8d45281ad4" y="149.272237978"/>
      </g>
     </g>
     <g id="line2d_94">
      <g>
       <use style="stroke:#000000;stroke-width:0.5;" x="326.778125" xlink:href="#me3f9b4022a" y="149.272237978"/>
      </g>
     </g>
    </g>
    <g id="ytick_10">
     <g id="line2d_95">
      <g>
       <use style="stroke:#000000;stroke-width:0.5;" x="47.778125" xlink:href="#m8d45281ad4" y="145.416102895"/>
      </g>
     </g>
     <g id="line2d_96">
      <g>
       <use style="stroke:#000000;stroke-width:0.5;" x="326.778125" xlink:href="#me3f9b4022a" y="145.416102895"/>
      </g>
     </g>
    </g>
    <g id="ytick_11">
     <g id="line2d_97">
      <g>
       <use style="stroke:#000000;stroke-width:0.5;" x="47.778125" xlink:href="#m8d45281ad4" y="142.075766749"/>
      </g>
     </g>
     <g id="line2d_98">
      <g>
       <use style="stroke:#000000;stroke-width:0.5;" x="326.778125" xlink:href="#me3f9b4022a" y="142.075766749"/>
      </g>
     </g>
    </g>
    <g id="ytick_12">
     <g id="line2d_99">
      <g>
       <use style="stroke:#000000;stroke-width:0.5;" x="47.778125" xlink:href="#m8d45281ad4" y="139.129381456"/>
      </g>
     </g>
     <g id="line2d_100">
      <g>
       <use style="stroke:#000000;stroke-width:0.5;" x="326.778125" xlink:href="#me3f9b4022a" y="139.129381456"/>
      </g>
     </g>
    </g>
    <g id="ytick_13">
     <g id="line2d_101">
      <g>
       <use style="stroke:#000000;stroke-width:0.5;" x="47.778125" xlink:href="#m8d45281ad4" y="119.15442225"/>
      </g>
     </g>
     <g id="line2d_102">
      <g>
       <use style="stroke:#000000;stroke-width:0.5;" x="326.778125" xlink:href="#me3f9b4022a" y="119.15442225"/>
      </g>
     </g>
    </g>
    <g id="ytick_14">
     <g id="line2d_103">
      <g>
       <use style="stroke:#000000;stroke-width:0.5;" x="47.778125" xlink:href="#m8d45281ad4" y="109.011565728"/>
      </g>
     </g>
     <g id="line2d_104">
      <g>
       <use style="stroke:#000000;stroke-width:0.5;" x="326.778125" xlink:href="#me3f9b4022a" y="109.011565728"/>
      </g>
     </g>
    </g>
    <g id="ytick_15">
     <g id="line2d_105">
      <g>
       <use style="stroke:#000000;stroke-width:0.5;" x="47.778125" xlink:href="#m8d45281ad4" y="101.8150945"/>
      </g>
     </g>
     <g id="line2d_106">
      <g>
       <use style="stroke:#000000;stroke-width:0.5;" x="326.778125" xlink:href="#me3f9b4022a" y="101.8150945"/>
      </g>
     </g>
    </g>
    <g id="ytick_16">
     <g id="line2d_107">
      <g>
       <use style="stroke:#000000;stroke-width:0.5;" x="47.778125" xlink:href="#m8d45281ad4" y="96.2330777502"/>
      </g>
     </g>
     <g id="line2d_108">
      <g>
       <use style="stroke:#000000;stroke-width:0.5;" x="326.778125" xlink:href="#me3f9b4022a" y="96.2330777502"/>
      </g>
     </g>
    </g>
    <g id="ytick_17">
     <g id="line2d_109">
      <g>
       <use style="stroke:#000000;stroke-width:0.5;" x="47.778125" xlink:href="#m8d45281ad4" y="91.6722379779"/>
      </g>
     </g>
     <g id="line2d_110">
      <g>
       <use style="stroke:#000000;stroke-width:0.5;" x="326.778125" xlink:href="#me3f9b4022a" y="91.6722379779"/>
      </g>
     </g>
    </g>
    <g id="ytick_18">
     <g id="line2d_111">
      <g>
       <use style="stroke:#000000;stroke-width:0.5;" x="47.778125" xlink:href="#m8d45281ad4" y="87.8161028952"/>
      </g>
     </g>
     <g id="line2d_112">
      <g>
       <use style="stroke:#000000;stroke-width:0.5;" x="326.778125" xlink:href="#me3f9b4022a" y="87.8161028952"/>
      </g>
     </g>
    </g>
    <g id="ytick_19">
     <g id="line2d_113">
      <g>
       <use style="stroke:#000000;stroke-width:0.5;" x="47.778125" xlink:href="#m8d45281ad4" y="84.4757667493"/>
      </g>
     </g>
     <g id="line2d_114">
      <g>
       <use style="stroke:#000000;stroke-width:0.5;" x="326.778125" xlink:href="#me3f9b4022a" y="84.4757667493"/>
      </g>
     </g>
    </g>
    <g id="ytick_20">
     <g id="line2d_115">
      <g>
       <use style="stroke:#000000;stroke-width:0.5;" x="47.778125" xlink:href="#m8d45281ad4" y="81.5293814563"/>
      </g>
     </g>
     <g id="line2d_116">
      <g>
       <use style="stroke:#000000;stroke-width:0.5;" x="326.778125" xlink:href="#me3f9b4022a" y="81.5293814563"/>
      </g>
     </g>
    </g>
    <g id="ytick_21">
     <g id="line2d_117">
      <g>
       <use style="stroke:#000000;stroke-width:0.5;" x="47.778125" xlink:href="#m8d45281ad4" y="61.5544222498"/>
      </g>
     </g>
     <g id="line2d_118">
      <g>
       <use style="stroke:#000000;stroke-width:0.5;" x="326.778125" xlink:href="#me3f9b4022a" y="61.5544222498"/>
      </g>
     </g>
    </g>
    <g id="ytick_22">
     <g id="line2d_119">
      <g>
       <use style="stroke:#000000;stroke-width:0.5;" x="47.778125" xlink:href="#m8d45281ad4" y="51.4115657281"/>
      </g>
     </g>
     <g id="line2d_120">
      <g>
       <use style="stroke:#000000;stroke-width:0.5;" x="326.778125" xlink:href="#me3f9b4022a" y="51.4115657281"/>
      </g>
     </g>
    </g>
    <g id="ytick_23">
     <g id="line2d_121">
      <g>
       <use style="stroke:#000000;stroke-width:0.5;" x="47.778125" xlink:href="#m8d45281ad4" y="44.2150944995"/>
      </g>
     </g>
     <g id="line2d_122">
      <g>
       <use style="stroke:#000000;stroke-width:0.5;" x="326.778125" xlink:href="#me3f9b4022a" y="44.2150944995"/>
      </g>
     </g>
    </g>
    <g id="ytick_24">
     <g id="line2d_123">
      <g>
       <use style="stroke:#000000;stroke-width:0.5;" x="47.778125" xlink:href="#m8d45281ad4" y="38.6330777502"/>
      </g>
     </g>
     <g id="line2d_124">
      <g>
       <use style="stroke:#000000;stroke-width:0.5;" x="326.778125" xlink:href="#me3f9b4022a" y="38.6330777502"/>
      </g>
     </g>
    </g>
    <g id="ytick_25">
     <g id="line2d_125">
      <g>
       <use style="stroke:#000000;stroke-width:0.5;" x="47.778125" xlink:href="#m8d45281ad4" y="34.0722379779"/>
      </g>
     </g>
     <g id="line2d_126">
      <g>
       <use style="stroke:#000000;stroke-width:0.5;" x="326.778125" xlink:href="#me3f9b4022a" y="34.0722379779"/>
      </g>
     </g>
    </g>
    <g id="ytick_26">
     <g id="line2d_127">
      <g>
       <use style="stroke:#000000;stroke-width:0.5;" x="47.778125" xlink:href="#m8d45281ad4" y="30.2161028952"/>
      </g>
     </g>
     <g id="line2d_128">
      <g>
       <use style="stroke:#000000;stroke-width:0.5;" x="326.778125" xlink:href="#me3f9b4022a" y="30.2161028952"/>
      </g>
     </g>
    </g>
    <g id="ytick_27">
     <g id="line2d_129">
      <g>
       <use style="stroke:#000000;stroke-width:0.5;" x="47.778125" xlink:href="#m8d45281ad4" y="26.8757667493"/>
      </g>
     </g>
     <g id="line2d_130">
      <g>
       <use style="stroke:#000000;stroke-width:0.5;" x="326.778125" xlink:href="#me3f9b4022a" y="26.8757667493"/>
      </g>
     </g>
    </g>
    <g id="ytick_28">
     <g id="line2d_131">
      <g>
       <use style="stroke:#000000;stroke-width:0.5;" x="47.778125" xlink:href="#m8d45281ad4" y="23.9293814563"/>
      </g>
     </g>
     <g id="line2d_132">
      <g>
       <use style="stroke:#000000;stroke-width:0.5;" x="326.778125" xlink:href="#me3f9b4022a" y="23.9293814563"/>
      </g>
     </g>
    </g>
    <g id="text_10">
     <!-- MSD -->
     <defs>
      <path d="
M9.8125 72.9062
L24.5156 72.9062
L43.1094 23.2969
L61.8125 72.9062
L76.5156 72.9062
L76.5156 0
L66.8906 0
L66.8906 64.0156
L48.0938 14.0156
L38.1875 14.0156
L19.3906 64.0156
L19.3906 0
L9.8125 0
z
" id="BitstreamVeraSans-Roman-4d"/>
      <path d="
M19.6719 64.7969
L19.6719 8.10938
L31.5938 8.10938
Q46.6875 8.10938 53.6875 14.9375
Q60.6875 21.7812 60.6875 36.5312
Q60.6875 51.1719 53.6875 57.9844
Q46.6875 64.7969 31.5938 64.7969
z

M9.8125 72.9062
L30.0781 72.9062
Q51.2656 72.9062 61.1719 64.0938
Q71.0938 55.2812 71.0938 36.5312
Q71.0938 17.6719 61.125 8.82812
Q51.1719 0 30.0781 0
L9.8125 0
z
" id="BitstreamVeraSans-Roman-44"/>
      <path d="
M53.5156 70.5156
L53.5156 60.8906
Q47.9062 63.5781 42.9219 64.8906
Q37.9375 66.2188 33.2969 66.2188
Q25.25 66.2188 20.875 63.0938
Q16.5 59.9688 16.5 54.2031
Q16.5 49.3594 19.4062 46.8906
Q22.3125 44.4375 30.4219 42.9219
L36.375 41.7031
Q47.4062 39.5938 52.6562 34.2969
Q57.9062 29 57.9062 20.125
Q57.9062 9.51562 50.7969 4.04688
Q43.7031 -1.42188 29.9844 -1.42188
Q24.8125 -1.42188 18.9688 -0.25
Q13.1406 0.921875 6.89062 3.21875
L6.89062 13.375
Q12.8906 10.0156 18.6562 8.29688
Q24.4219 6.59375 29.9844 6.59375
Q38.4219 6.59375 43.0156 9.90625
Q47.6094 13.2344 47.6094 19.3906
Q47.6094 24.75 44.3125 27.7812
Q41.0156 30.8125 33.5 32.3281
L27.4844 33.5
Q16.4531 35.6875 11.5156 40.375
Q6.59375 45.0625 6.59375 53.4219
Q6.59375 63.0938 13.4062 68.6562
Q20.2188 74.2188 32.1719 74.2188
Q37.3125 74.2188 42.625 73.2812
Q47.9531 72.3594 53.5156 70.5156" id="BitstreamVeraSans-Roman-53"/>
     </defs>
     <g transform="translate(14.7984375 118.24609375)rotate(-90.0)scale(0.1 -0.1)">
      <use xlink:href="#BitstreamVeraSans-Roman-4d"/>
      <use x="86.279296875" xlink:href="#BitstreamVeraSans-Roman-53"/>
      <use x="149.755859375" xlink:href="#BitstreamVeraSans-Roman-44"/>
     </g>
    </g>
   </g>
   <g id="text_11">
    <!-- $\phi=0.62$ -->
    <defs>
     <path d="
M25 -2.20312
Q12.75 -2.20312 8.32812 7.875
Q3.90625 17.9688 3.90625 31.8906
Q3.90625 40.5781 5.48438 48.2344
Q7.07812 55.9062 11.7812 61.25
Q16.5 66.6094 25 66.6094
Q31.5938 66.6094 35.7812 63.375
Q39.9844 60.1562 42.1875 55.0469
Q44.3906 49.9531 45.1875 44.1094
Q46 38.2812 46 31.8906
Q46 23.2969 44.4062 15.7969
Q42.8281 8.29688 38.1875 3.04688
Q33.5469 -2.20312 25 -2.20312
M25 0.390625
Q30.5625 0.390625 33.2969 6.09375
Q36.0312 11.8125 36.6719 18.75
Q37.3125 25.6875 37.3125 33.5
Q37.3125 41.0156 36.6719 47.3594
Q36.0312 53.7188 33.3125 58.8594
Q30.6094 64.0156 25 64.0156
Q19.3438 64.0156 16.6094 58.8281
Q13.875 53.6562 13.2344 47.3281
Q12.5938 41.0156 12.5938 33.5
Q12.5938 27.9375 12.8594 23
Q13.1406 18.0625 14.3125 12.8125
Q15.4844 7.5625 18.0938 3.96875
Q20.7031 0.390625 25 0.390625" id="Cmr10-30"/>
     <path d="
M7.51562 13.2812
Q6.6875 13.2812 6.14062 13.9062
Q5.60938 14.5469 5.60938 15.2812
Q5.60938 16.1094 6.14062 16.6875
Q6.6875 17.2812 7.51562 17.2812
L70.3125 17.2812
Q71.0469 17.2812 71.5781 16.6875
Q72.125 16.1094 72.125 15.2812
Q72.125 14.5469 71.5781 13.9062
Q71.0469 13.2812 70.3125 13.2812
z

M7.51562 32.7188
Q6.6875 32.7188 6.14062 33.2969
Q5.60938 33.8906 5.60938 34.7188
Q5.60938 35.4531 6.14062 36.0781
Q6.6875 36.7188 7.51562 36.7188
L70.3125 36.7188
Q71.0469 36.7188 71.5781 36.0781
Q72.125 35.4531 72.125 34.7188
Q72.125 33.8906 71.5781 33.2969
Q71.0469 32.7188 70.3125 32.7188
z
" id="Cmr10-3d"/>
     <path d="
M4.98438 0
L4.98438 2.6875
Q4.98438 2.9375 5.17188 3.21875
L20.7031 20.4062
Q24.2188 24.2188 26.4062 26.7969
Q28.6094 29.3906 30.75 32.7656
Q32.9062 36.1406 34.1562 39.625
Q35.4062 43.1094 35.4062 47.0156
Q35.4062 51.125 33.8906 54.8594
Q32.375 58.5938 29.375 60.8438
Q26.375 63.0938 22.125 63.0938
Q17.7812 63.0938 14.3125 60.4688
Q10.8438 57.8594 9.42188 53.7188
Q9.8125 53.8125 10.5 53.8125
Q12.75 53.8125 14.3281 52.2969
Q15.9219 50.7812 15.9219 48.3906
Q15.9219 46.0938 14.3281 44.5
Q12.75 42.9219 10.5 42.9219
Q8.15625 42.9219 6.5625 44.5469
Q4.98438 46.1875 4.98438 48.3906
Q4.98438 52.1562 6.39062 55.4375
Q7.8125 58.7344 10.4688 61.2969
Q13.1406 63.875 16.4844 65.2344
Q19.8281 66.6094 23.5781 66.6094
Q29.2969 66.6094 34.2188 64.1875
Q39.1562 61.7656 42.0312 57.3438
Q44.9219 52.9375 44.9219 47.0156
Q44.9219 42.6719 43.0156 38.7656
Q41.1094 34.8594 38.125 31.6562
Q35.1562 28.4688 30.5156 24.4062
Q25.875 20.3594 24.4219 19
L13.0938 8.10938
L22.7031 8.10938
Q29.7812 8.10938 34.5469 8.21875
Q39.3125 8.34375 39.5938 8.59375
Q40.7656 9.85938 42 17.8281
L44.9219 17.8281
L42.0938 0
z
" id="Cmr10-32"/>
     <path d="
M25 -2.20312
Q18.7969 -2.20312 14.6406 1.09375
Q10.5 4.39062 8.21875 9.64062
Q5.95312 14.8906 5.07812 20.6562
Q4.20312 26.4219 4.20312 32.3281
Q4.20312 40.2344 7.28125 48.1875
Q10.3594 56.1562 16.3281 61.375
Q22.3125 66.6094 30.5156 66.6094
Q33.9375 66.6094 36.8906 65.3125
Q39.8438 64.0156 41.5312 61.5
Q43.2188 58.9844 43.2188 55.4219
Q43.2188 53.375 41.8281 51.9844
Q40.4375 50.5938 38.375 50.5938
Q36.4219 50.5938 35 52
Q33.5938 53.4219 33.5938 55.4219
Q33.5938 57.375 35 58.7812
Q36.4219 60.2031 38.375 60.2031
L38.9219 60.2031
Q37.6406 62.0156 35.3281 62.8594
Q33.0156 63.7188 30.5156 63.7188
Q27.4844 63.7188 24.9219 62.3906
Q22.3594 61.0781 20.3125 58.8281
Q18.2656 56.5938 16.8906 53.875
Q15.5312 51.1719 14.7656 47.7031
Q14.0156 44.2344 13.8125 41.2031
Q13.625 38.1875 13.625 33.5938
Q15.375 37.7031 18.5938 40.3125
Q21.8281 42.9219 25.875 42.9219
Q30.3281 42.9219 33.9844 41.1094
Q37.6406 39.3125 40.2812 36.1094
Q42.9219 32.9062 44.3125 28.7969
Q45.7031 24.7031 45.7031 20.5156
Q45.7031 14.6562 43.0938 9.34375
Q40.4844 4.04688 35.7344 0.921875
Q31 -2.20312 25 -2.20312
M25 0.984375
Q28.8594 0.984375 31.2031 2.73438
Q33.5469 4.5 34.6406 7.39062
Q35.75 10.2969 36.0156 13.25
Q36.2812 16.2188 36.2812 20.5156
Q36.2812 26.1719 35.7344 30.1719
Q35.2031 34.1875 32.8125 37.2344
Q30.4219 40.2812 25.4844 40.2812
Q21.4375 40.2812 18.8281 37.5469
Q16.2188 34.8125 15.0156 30.6406
Q13.8125 26.4688 13.8125 22.6094
Q13.8125 21.2969 13.9219 20.6094
Q13.9219 20.4531 13.8906 20.3594
Q13.875 20.2656 13.8125 20.125
Q13.8125 15.8281 14.6875 11.4219
Q15.5781 7.03125 18.0625 4
Q20.5625 0.984375 25 0.984375" id="Cmr10-36"/>
     <path d="
M19.3906 -19.4844
L23.875 -1.42188
Q18.7969 -1.42188 14.4062 0.953125
Q10.0156 3.32812 7.34375 7.5625
Q4.6875 11.8125 4.6875 16.7969
Q4.6875 22.2188 7.375 27.1406
Q10.0625 32.0781 14.7188 36.1094
Q19.3906 40.1406 24.75 42.3125
Q30.125 44.4844 35.4062 44.4844
L41.4062 68.7969
Q41.6094 69.3906 42.1875 69.3906
L43.4062 69.3906
Q43.7969 69.3906 44.0312 69.0469
Q44.2812 68.7031 44.2812 68.4062
L38.2812 44.4844
Q42.0469 44.4844 45.5625 43.1094
Q49.0781 41.75 51.7812 39.2812
Q54.5 36.8125 56 33.4688
Q57.5156 30.125 57.5156 26.3125
Q57.5156 20.9062 54.8281 15.9688
Q52.1562 11.0312 47.6094 7.07812
Q43.0625 3.125 37.4688 0.84375
Q31.8906 -1.42188 26.8125 -1.42188
L22.2188 -19.9219
Q22.0156 -20.5156 21.3906 -20.5156
L20.2188 -20.5156
Q19.8281 -20.5156 19.6094 -20.1406
Q19.3906 -19.7812 19.3906 -19.4844
M24.5156 1.21875
L34.7188 41.8906
Q32.1719 41.8906 29.3906 40.8594
Q26.6094 39.8438 24.1406 38.2812
Q21.6875 36.7188 19.6719 34.7188
Q17.2344 32.2812 15.375 28.9531
Q13.5312 25.6406 12.5781 21.9531
Q11.625 18.2656 11.625 14.7031
Q11.625 10.9375 13.2344 7.85938
Q14.8438 4.78125 17.7656 3
Q20.7031 1.21875 24.5156 1.21875
M27.4844 1.21875
Q31.25 1.21875 35.5 3.35938
Q39.75 5.51562 42.4844 8.40625
Q46.2344 12.1094 48.4062 17.5
Q50.5938 22.9062 50.5938 28.4219
Q50.5938 32.125 48.9688 35.2188
Q47.3594 38.3281 44.4219 40.1094
Q41.5 41.8906 37.7031 41.8906
z
" id="Cmmi10-c1"/>
     <path d="
M8.40625 5.51562
Q8.40625 7.76562 10.0625 9.375
Q11.7188 10.9844 13.9219 10.9844
Q15.2812 10.9844 16.5938 10.25
Q17.9219 9.51562 18.6562 8.20312
Q19.3906 6.89062 19.3906 5.51562
Q19.3906 3.32812 17.7656 1.65625
Q16.1562 0 13.9219 0
Q11.7188 0 10.0625 1.65625
Q8.40625 3.32812 8.40625 5.51562" id="Cmmi10-3a"/>
    </defs>
    <g transform="translate(166.818125 16.29375)scale(0.12 -0.12)">
     <use transform="translate(0.0 0.609375)" xlink:href="#Cmmi10-c1"/>
     <use transform="translate(77.080078125 0.609375)" xlink:href="#Cmr10-3d"/>
     <use transform="translate(161.388671875 0.609375)" xlink:href="#Cmr10-30"/>
     <use transform="translate(211.388671875 0.609375)" xlink:href="#Cmmi10-3a"/>
     <use transform="translate(240.181640625 0.609375)" xlink:href="#Cmr10-36"/>
     <use transform="translate(290.181640625 0.609375)" xlink:href="#Cmr10-32"/>
    </g>
   </g>
   <g id="legend_1">
    <g id="patch_7">
     <path d="
M51.9431 76.9329
L166.314 76.9329
L166.314 25.4588
L51.9431 25.4588
z
" style="fill:#ffffff;stroke:#000000;stroke-linejoin:miter;"/>
    </g>
    <g id="line2d_133">
     <path d="
M57.7741 32.2047
L69.4361 32.2047" style="fill:none;stroke:#4daf4a;stroke-linecap:square;stroke-width:2.0;"/>
    </g>
    <g id="line2d_134"/>
    <g id="text_12">
     <!-- $f=0.0$, $T=1.00 \pm 0.13$ -->
     <defs>
      <path d="
M4.59375 1.3125
Q4.64062 1.5625 4.8125 2.1875
Q4.98438 2.82812 5.25 3.17188
Q5.51562 3.51562 6 3.51562
Q14.5938 3.51562 17.3906 4
Q20.0625 4.6875 20.6094 6.89062
L34.2812 61.8125
Q34.7188 63.0312 34.7188 64.0156
Q34.7188 64.7969 31.2031 64.7969
L25.3906 64.7969
Q18.7031 64.7969 15.0625 62.7344
Q11.4219 60.6875 9.71875 57.3125
Q8.01562 53.9531 5.32812 46.2969
Q4.98438 45.4062 4.29688 45.4062
L3.42188 45.4062
Q2.39062 45.4062 2.39062 46.6875
L9.51562 67.3906
Q9.71875 68.3125 10.5 68.3125
L69.5781 68.3125
Q70.6094 68.3125 70.6094 67
L67.2812 46.2969
Q67.2812 46 66.9375 45.7031
Q66.6094 45.4062 66.3125 45.4062
L65.375 45.4062
Q64.4062 45.4062 64.4062 46.6875
Q65.4844 53.7656 65.4844 56.6875
Q65.4844 60.2031 64.0156 62
Q62.5469 63.8125 60.2031 64.2969
Q57.8594 64.7969 54.1094 64.7969
L48.1875 64.7969
Q45.5156 64.7969 44.5781 64.2969
Q43.6562 63.8125 43.0156 61.375
L29.2969 6.5
Q29.25 6.29688 29.2188 6.09375
Q29.2031 5.90625 29.1094 5.60938
Q29.1094 4.34375 30.6094 4
Q33.2031 3.51562 41.7031 3.51562
Q42.6719 3.51562 42.6719 2.20312
Q42.3281 0.78125 42.125 0.390625
Q41.9375 0 41.0156 0
L5.60938 0
Q4.59375 0 4.59375 1.3125" id="Cmmi10-54"/>
      <path d="
M11.7188 12.4062
L22.0156 12.4062
L22.0156 4
L14.0156 -11.625
L7.71875 -11.625
L11.7188 4
z
" id="BitstreamVeraSans-Roman-2c"/>
      <path d="
M7.51562 0
Q6.6875 0 6.14062 0.578125
Q5.60938 1.17188 5.60938 2
Q5.60938 2.73438 6.14062 3.35938
Q6.6875 4 7.51562 4
L36.9219 4
L36.9219 31.2969
L7.51562 31.2969
Q6.6875 31.2969 6.14062 31.9219
Q5.60938 32.5625 5.60938 33.2969
Q5.60938 34.0312 6.14062 34.6562
Q6.6875 35.2969 7.51562 35.2969
L36.9219 35.2969
L36.9219 64.7969
Q36.9219 65.5781 37.5 66.0938
Q38.0938 66.6094 38.9219 66.6094
Q39.5938 66.6094 40.25 66.0938
Q40.9219 65.5781 40.9219 64.7969
L40.9219 35.2969
L70.3125 35.2969
Q71.0469 35.2969 71.5781 34.6562
Q72.125 34.0312 72.125 33.2969
Q72.125 32.5625 71.5781 31.9219
Q71.0469 31.2969 70.3125 31.2969
L40.9219 31.2969
L40.9219 4
L70.3125 4
Q71.0469 4 71.5781 3.35938
Q72.125 2.73438 72.125 2
Q72.125 1.17188 71.5781 0.578125
Q71.0469 0 70.3125 0
z
" id="Cmsy10-a7"/>
      <path id="BitstreamVeraSans-Roman-20"/>
      <path d="
M9.71875 -16.5
Q11.5781 -17.9219 14.2031 -17.9219
Q17.7812 -17.9219 20.0156 -10.0156
Q20.9531 -6.20312 25.0938 15.0938
L29.6875 39.5938
L21.0938 39.5938
Q20.125 39.5938 20.125 40.9219
Q20.5156 43.1094 21.3906 43.1094
L30.3281 43.1094
L31.5 49.6094
Q32.0781 52.6406 32.5625 54.8125
Q33.0625 56.9844 33.625 58.8281
Q34.1875 60.6875 35.2969 62.9844
Q37.0156 66.2656 39.9219 68.3906
Q42.8281 70.5156 46.1875 70.5156
Q48.3906 70.5156 50.4688 69.7031
Q52.5469 68.8906 53.8594 67.2812
Q55.1719 65.6719 55.1719 63.4844
Q55.1719 60.9375 53.4844 59.0469
Q51.8125 57.1719 49.4219 57.1719
Q47.7969 57.1719 46.6562 58.1719
Q45.5156 59.1875 45.5156 60.7969
Q45.5156 62.9844 47 64.625
Q48.4844 66.2656 50.6875 66.5
Q48.8281 67.9219 46.0938 67.9219
Q44.5781 67.9219 43.2344 66.5
Q41.8906 65.0938 41.5 63.4844
Q40.875 60.9375 38.7188 49.7031
L37.5 43.1094
L47.7969 43.1094
Q48.7812 43.1094 48.7812 41.7969
Q48.7344 41.5469 48.5781 40.9375
Q48.4375 40.3281 48.1719 39.9531
Q47.9062 39.5938 47.5156 39.5938
L36.8125 39.5938
L32.1719 15.1875
Q31.2969 9.85938 30.1406 4.35938
Q29 -1.125 26.9219 -6.90625
Q24.8594 -12.7031 21.625 -16.6094
Q18.4062 -20.5156 14.0156 -20.5156
Q10.6406 -20.5156 7.98438 -18.5781
Q5.32812 -16.6562 5.32812 -13.4844
Q5.32812 -10.9375 6.95312 -9.04688
Q8.59375 -7.17188 11.0781 -7.17188
Q12.75 -7.17188 13.8594 -8.17188
Q14.9844 -9.1875 14.9844 -10.7969
Q14.9844 -12.9375 13.3906 -14.7188
Q11.8125 -16.5 9.71875 -16.5" id="Cmmi10-66"/>
      <path d="
M9.51562 7.71875
Q11.8594 4.29688 15.8125 2.64062
Q19.7812 0.984375 24.3125 0.984375
Q30.125 0.984375 32.5625 5.9375
Q35.0156 10.8906 35.0156 17.1875
Q35.0156 20.0156 34.5 22.8438
Q33.9844 25.6875 32.7656 28.125
Q31.5469 30.5625 29.4219 32.0312
Q27.2969 33.5 24.2188 33.5
L17.5781 33.5
Q16.7031 33.5 16.7031 34.4219
L16.7031 35.2969
Q16.7031 36.0781 17.5781 36.0781
L23.0938 36.5312
Q26.6094 36.5312 28.9219 39.1562
Q31.25 41.7969 32.3281 45.5781
Q33.4062 49.3594 33.4062 52.7812
Q33.4062 57.5625 31.1562 60.6406
Q28.9062 63.7188 24.3125 63.7188
Q20.5156 63.7188 17.0469 62.2812
Q13.5781 60.8438 11.5312 57.9062
Q11.7188 57.9531 11.8594 57.9844
Q12.0156 58.0156 12.2031 58.0156
Q14.4531 58.0156 15.9688 56.4531
Q17.4844 54.8906 17.4844 52.6875
Q17.4844 50.5312 15.9688 48.9688
Q14.4531 47.4062 12.2031 47.4062
Q10.0156 47.4062 8.45312 48.9688
Q6.89062 50.5312 6.89062 52.6875
Q6.89062 56.9844 9.46875 60.1562
Q12.0625 63.3281 16.1406 64.9688
Q20.2188 66.6094 24.3125 66.6094
Q27.3438 66.6094 30.7031 65.7031
Q34.0781 64.7969 36.8125 63.1094
Q39.5469 61.4219 41.2812 58.7812
Q43.0156 56.1562 43.0156 52.7812
Q43.0156 48.5781 41.1406 45.0156
Q39.2656 41.4531 35.9844 38.8594
Q32.7188 36.2812 28.8125 35.0156
Q33.1562 34.1875 37.0625 31.7344
Q40.9688 29.2969 43.3281 25.4844
Q45.7031 21.6875 45.7031 17.2812
Q45.7031 11.7656 42.6719 7.29688
Q39.6562 2.82812 34.7188 0.3125
Q29.7812 -2.20312 24.3125 -2.20312
Q19.625 -2.20312 14.9062 -0.40625
Q10.2031 1.375 7.20312 4.9375
Q4.20312 8.5 4.20312 13.4844
Q4.20312 15.9688 5.85938 17.625
Q7.51562 19.2812 10.0156 19.2812
Q11.625 19.2812 12.9688 18.5312
Q14.3125 17.7812 15.0625 16.4062
Q15.8281 15.0469 15.8281 13.4844
Q15.8281 11.0312 14.1094 9.375
Q12.4062 7.71875 10.0156 7.71875
z
" id="Cmr10-33"/>
      <path d="
M9.28125 0
L9.28125 3.51562
Q21.7812 3.51562 21.7812 6.6875
L21.7812 59.1875
Q16.6094 56.6875 8.6875 56.6875
L8.6875 60.2031
Q20.9531 60.2031 27.2031 66.6094
L28.6094 66.6094
Q28.9531 66.6094 29.2656 66.3281
Q29.5938 66.0625 29.5938 65.7188
L29.5938 6.6875
Q29.5938 3.51562 42.0938 3.51562
L42.0938 0
z
" id="Cmr10-31"/>
     </defs>
     <g transform="translate(78.599125 35.1202484375)scale(0.0833 -0.0833)">
      <use transform="translate(0.0 0.484375)" xlink:href="#Cmmi10-66"/>
      <use transform="translate(66.435546875 0.484375)" xlink:href="#Cmr10-3d"/>
      <use transform="translate(150.744140625 0.484375)" xlink:href="#Cmr10-30"/>
      <use transform="translate(200.744140625 0.484375)" xlink:href="#Cmmi10-3a"/>
      <use transform="translate(229.537109375 0.484375)" xlink:href="#Cmr10-30"/>
      <use transform="translate(279.537109375 0.484375)" xlink:href="#BitstreamVeraSans-Roman-2c"/>
      <use transform="translate(311.32421875 0.484375)" xlink:href="#BitstreamVeraSans-Roman-20"/>
      <use transform="translate(343.111328125 0.484375)" xlink:href="#Cmmi10-54"/>
      <use transform="translate(419.068359375 0.484375)" xlink:href="#Cmr10-3d"/>
      <use transform="translate(503.376953125 0.484375)" xlink:href="#Cmr10-31"/>
      <use transform="translate(553.376953125 0.484375)" xlink:href="#Cmmi10-3a"/>
      <use transform="translate(582.169921875 0.484375)" xlink:href="#Cmr10-30"/>
      <use transform="translate(632.169921875 0.484375)" xlink:href="#Cmr10-30"/>
      <use transform="translate(699.728515625 0.484375)" xlink:href="#Cmsy10-a7"/>
      <use transform="translate(784.037109375 0.484375)" xlink:href="#Cmr10-30"/>
      <use transform="translate(834.037109375 0.484375)" xlink:href="#Cmmi10-3a"/>
      <use transform="translate(862.830078125 0.484375)" xlink:href="#Cmr10-31"/>
      <use transform="translate(912.830078125 0.484375)" xlink:href="#Cmr10-33"/>
     </g>
    </g>
    <g id="line2d_135">
     <path d="
M57.7741 44.4485
L69.4361 44.4485" style="fill:none;stroke:#576eb1;stroke-linecap:square;stroke-width:2.0;"/>
    </g>
    <g id="line2d_136"/>
    <g id="text_13">
     <!-- $f=0.01$, $T=1.01 \pm 0.13$ -->
     <g transform="translate(78.599125 47.364046875)scale(0.0833 -0.0833)">
      <use transform="translate(0.0 0.484375)" xlink:href="#Cmmi10-66"/>
      <use transform="translate(66.435546875 0.484375)" xlink:href="#Cmr10-3d"/>
      <use transform="translate(150.744140625 0.484375)" xlink:href="#Cmr10-30"/>
      <use transform="translate(200.744140625 0.484375)" xlink:href="#Cmmi10-3a"/>
      <use transform="translate(229.537109375 0.484375)" xlink:href="#Cmr10-30"/>
      <use transform="translate(279.537109375 0.484375)" xlink:href="#Cmr10-31"/>
      <use transform="translate(329.537109375 0.484375)" xlink:href="#BitstreamVeraSans-Roman-2c"/>
      <use transform="translate(361.32421875 0.484375)" xlink:href="#BitstreamVeraSans-Roman-20"/>
      <use transform="translate(393.111328125 0.484375)" xlink:href="#Cmmi10-54"/>
      <use transform="translate(469.068359375 0.484375)" xlink:href="#Cmr10-3d"/>
      <use transform="translate(553.376953125 0.484375)" xlink:href="#Cmr10-31"/>
      <use transform="translate(603.376953125 0.484375)" xlink:href="#Cmmi10-3a"/>
      <use transform="translate(632.169921875 0.484375)" xlink:href="#Cmr10-30"/>
      <use transform="translate(682.169921875 0.484375)" xlink:href="#Cmr10-31"/>
      <use transform="translate(749.728515625 0.484375)" xlink:href="#Cmsy10-a7"/>
      <use transform="translate(834.037109375 0.484375)" xlink:href="#Cmr10-30"/>
      <use transform="translate(884.037109375 0.484375)" xlink:href="#Cmmi10-3a"/>
      <use transform="translate(912.830078125 0.484375)" xlink:href="#Cmr10-31"/>
      <use transform="translate(962.830078125 0.484375)" xlink:href="#Cmr10-33"/>
     </g>
    </g>
    <g id="line2d_137">
     <path d="
M57.7741 56.6923
L69.4361 56.6923" style="fill:none;stroke:#cb2b49;stroke-linecap:square;stroke-width:2.0;"/>
    </g>
    <g id="line2d_138"/>
    <g id="text_14">
     <!-- $f=0.02$, $T=1.02 \pm 0.14$ -->
     <defs>
      <path d="
M2.78125 16.5
L2.78125 20.0156
L33.6875 66.1094
Q34.0312 66.6094 34.7188 66.6094
L36.1875 66.6094
Q37.3125 66.6094 37.3125 65.4844
L37.3125 20.0156
L47.125 20.0156
L47.125 16.5
L37.3125 16.5
L37.3125 6.6875
Q37.3125 4.64062 40.2344 4.07812
Q43.1719 3.51562 47.0156 3.51562
L47.0156 0
L19.4844 0
L19.4844 3.51562
Q23.3438 3.51562 26.2656 4.07812
Q29.2031 4.64062 29.2031 6.6875
L29.2031 16.5
z

M6.10938 20.0156
L29.7812 20.0156
L29.7812 55.4219
z
" id="Cmr10-34"/>
     </defs>
     <g transform="translate(78.599125 59.6078453125)scale(0.0833 -0.0833)">
      <use transform="translate(0.0 0.484375)" xlink:href="#Cmmi10-66"/>
      <use transform="translate(66.435546875 0.484375)" xlink:href="#Cmr10-3d"/>
      <use transform="translate(150.744140625 0.484375)" xlink:href="#Cmr10-30"/>
      <use transform="translate(200.744140625 0.484375)" xlink:href="#Cmmi10-3a"/>
      <use transform="translate(229.537109375 0.484375)" xlink:href="#Cmr10-30"/>
      <use transform="translate(279.537109375 0.484375)" xlink:href="#Cmr10-32"/>
      <use transform="translate(329.537109375 0.484375)" xlink:href="#BitstreamVeraSans-Roman-2c"/>
      <use transform="translate(361.32421875 0.484375)" xlink:href="#BitstreamVeraSans-Roman-20"/>
      <use transform="translate(393.111328125 0.484375)" xlink:href="#Cmmi10-54"/>
      <use transform="translate(469.068359375 0.484375)" xlink:href="#Cmr10-3d"/>
      <use transform="translate(553.376953125 0.484375)" xlink:href="#Cmr10-31"/>
      <use transform="translate(603.376953125 0.484375)" xlink:href="#Cmmi10-3a"/>
      <use transform="translate(632.169921875 0.484375)" xlink:href="#Cmr10-30"/>
      <use transform="translate(682.169921875 0.484375)" xlink:href="#Cmr10-32"/>
      <use transform="translate(749.728515625 0.484375)" xlink:href="#Cmsy10-a7"/>
      <use transform="translate(834.037109375 0.484375)" xlink:href="#Cmr10-30"/>
      <use transform="translate(884.037109375 0.484375)" xlink:href="#Cmmi10-3a"/>
      <use transform="translate(912.830078125 0.484375)" xlink:href="#Cmr10-31"/>
      <use transform="translate(962.830078125 0.484375)" xlink:href="#Cmr10-34"/>
     </g>
    </g>
    <g id="line2d_139">
     <path d="
M57.7741 68.9361
L69.4361 68.9361" style="fill:none;stroke:#ff7f00;stroke-linecap:square;stroke-width:2.0;"/>
    </g>
    <g id="line2d_140"/>
    <g id="text_15">
     <!-- $f=0.05$, $T=1.05 \pm 0.14$ -->
     <defs>
      <path d="
M8.6875 11.375
Q9.71875 8.45312 11.8438 6.04688
Q13.9688 3.65625 16.875 2.3125
Q19.7812 0.984375 22.9062 0.984375
Q30.125 0.984375 32.8594 6.59375
Q35.5938 12.2031 35.5938 20.2188
Q35.5938 23.6875 35.4688 26.0469
Q35.3594 28.4219 34.8125 30.6094
Q33.8906 34.125 31.5625 36.7656
Q29.25 39.4062 25.875 39.4062
Q22.5156 39.4062 20.0938 38.375
Q17.6719 37.3594 16.1562 35.9844
Q14.6562 34.625 13.4844 33.1094
Q12.3125 31.5938 12.0156 31.5
L10.8906 31.5
Q10.6406 31.5 10.2656 31.8125
Q9.90625 32.125 9.90625 32.4219
L9.90625 65.8281
Q9.90625 66.0625 10.2188 66.3281
Q10.5469 66.6094 10.8906 66.6094
L11.1875 66.6094
Q17.9219 63.375 25.4844 63.375
Q32.9062 63.375 39.7969 66.6094
L40.0938 66.6094
Q40.4375 66.6094 40.7188 66.3594
Q41.0156 66.1094 41.0156 65.8281
L41.0156 64.8906
Q41.0156 64.4062 40.8281 64.4062
Q37.4062 59.8594 32.25 57.3125
Q27.0938 54.7812 21.5781 54.7812
Q17.5781 54.7812 13.375 55.9062
L13.375 37.0156
Q16.7031 39.7031 19.3125 40.8438
Q21.9219 42 25.9844 42
Q31.5 42 35.8594 38.8125
Q40.2344 35.6406 42.5781 30.5312
Q44.9219 25.4375 44.9219 20.125
Q44.9219 14.1094 41.9688 8.98438
Q39.0156 3.85938 33.9375 0.828125
Q28.8594 -2.20312 22.9062 -2.20312
Q17.9688 -2.20312 13.8438 0.328125
Q9.71875 2.875 7.34375 7.17188
Q4.98438 11.4688 4.98438 16.3125
Q4.98438 18.5625 6.4375 19.9688
Q7.90625 21.3906 10.1094 21.3906
Q12.3125 21.3906 13.7969 19.9375
Q15.2812 18.5 15.2812 16.3125
Q15.2812 14.1562 13.7969 12.6719
Q12.3125 11.1875 10.1094 11.1875
Q9.76562 11.1875 9.32812 11.25
Q8.89062 11.3281 8.6875 11.375" id="Cmr10-35"/>
     </defs>
     <g transform="translate(78.599125 71.85164375)scale(0.0833 -0.0833)">
      <use transform="translate(0.0 0.484375)" xlink:href="#Cmmi10-66"/>
      <use transform="translate(66.435546875 0.484375)" xlink:href="#Cmr10-3d"/>
      <use transform="translate(150.744140625 0.484375)" xlink:href="#Cmr10-30"/>
      <use transform="translate(200.744140625 0.484375)" xlink:href="#Cmmi10-3a"/>
      <use transform="translate(229.537109375 0.484375)" xlink:href="#Cmr10-30"/>
      <use transform="translate(279.537109375 0.484375)" xlink:href="#Cmr10-35"/>
      <use transform="translate(329.537109375 0.484375)" xlink:href="#BitstreamVeraSans-Roman-2c"/>
      <use transform="translate(361.32421875 0.484375)" xlink:href="#BitstreamVeraSans-Roman-20"/>
      <use transform="translate(393.111328125 0.484375)" xlink:href="#Cmmi10-54"/>
      <use transform="translate(469.068359375 0.484375)" xlink:href="#Cmr10-3d"/>
      <use transform="translate(553.376953125 0.484375)" xlink:href="#Cmr10-31"/>
      <use transform="translate(603.376953125 0.484375)" xlink:href="#Cmmi10-3a"/>
      <use transform="translate(632.169921875 0.484375)" xlink:href="#Cmr10-30"/>
      <use transform="translate(682.169921875 0.484375)" xlink:href="#Cmr10-35"/>
      <use transform="translate(749.728515625 0.484375)" xlink:href="#Cmsy10-a7"/>
      <use transform="translate(834.037109375 0.484375)" xlink:href="#Cmr10-30"/>
      <use transform="translate(884.037109375 0.484375)" xlink:href="#Cmmi10-3a"/>
      <use transform="translate(912.830078125 0.484375)" xlink:href="#Cmr10-31"/>
      <use transform="translate(962.830078125 0.484375)" xlink:href="#Cmr10-34"/>
     </g>
    </g>
   </g>
  </g>
 </g>
 <defs>
  <clipPath id="pdfc68b9276">
   <rect height="172.8" width="279.0" x="47.778125" y="21.29375"/>
  </clipPath>
 </defs>
</svg>
