<?xml version="1.0" encoding="utf-8" standalone="no"?>
<!DOCTYPE svg PUBLIC "-//W3C//DTD SVG 1.1//EN"
  "http://www.w3.org/Graphics/SVG/1.1/DTD/svg11.dtd">
<!-- Created with matplotlib (http://matplotlib.org/) -->
<svg height="230pt" version="1.1" viewBox="0 0 276 230" width="276pt" xmlns="http://www.w3.org/2000/svg" xmlns:xlink="http://www.w3.org/1999/xlink">
 <defs>
  <style type="text/css">
*{stroke-linecap:butt;stroke-linejoin:round;}
  </style>
 </defs>
 <g id="figure_1">
  <g id="patch_1">
   <path d="
M0 230.698
L276.994 230.698
L276.994 2.84217e-14
L0 2.84217e-14
z
" style="fill:#ffffff;"/>
  </g>
  <g id="axes_1">
   <g id="patch_2">
    <path d="
M36.9438 194.12
L260.144 194.12
L260.144 21.32
L36.9438 21.32
z
" style="fill:#ffffff;"/>
   </g>
   <g id="line2d_1">
    <path clip-path="url(#pf39aa6504d)" d="
M36.9438 122.689
L59.3404 121.779
L72.4416 120.085
L81.737 125.989
L88.9471 136.814
L94.8382 134.737
L99.819 123.686
L104.134 126.531
L107.939 136.788
L111.344 127.689
L114.423 125.69
L117.235 119.011
L119.821 129.837
L122.216 127.413
L124.445 125.456
L126.53 126.753
L128.489 127.737
L130.336 117.053
L132.083 123.306
L133.74 121.197
L135.317 121.614
L136.82 122.278
L138.256 121.111
L139.631 120.148
L140.95 117.303
L142.218 116.876
L143.437 117.789
L144.612 116.06
L145.746 118.274
L146.842 114.952
L147.901 112.488
L148.927 113.646
L149.921 114.154
L150.886 109.251
L151.822 111.605
L152.733 111.59
L153.618 106.843
L154.48 111.367
L155.319 111.753
L156.137 108.315
L156.935 106.012
L157.713 108.843
L158.474 108.984
L159.217 110.056
L159.943 109.253
L160.653 106.167
L161.348 107.215
L162.028 109.068
L162.694 105.366
L163.347 105.788
L163.987 108.196
L164.614 106.772
L165.23 103.78
L165.834 104.864
L166.427 104.899
L167.009 106.133
L167.581 105.7
L168.143 108.851
L168.695 108.838
L169.238 103.265
L169.772 107.548
L170.298 107.578
L170.815 106.495
L171.324 105.038
L171.825 108.766
L172.318 108.964
L172.804 107.531
L173.282 110.215
L173.754 111.012
L174.219 109.302
L174.677 112.357
L175.129 111.297
L175.575 113.117
L176.015 112.491
L176.448 112.641
L176.876 111.371
L177.299 111.123
L177.716 111.11
L178.127 112.786
L178.534 112.535
L178.935 114.045
L179.332 114.134
L179.723 111.432
L180.11 114.924
L180.493 116.251
L180.87 114.071
L181.244 114.867
L181.613 114.6
L181.978 115.51
L182.339 117.4
L182.696 116.776
L183.05 118.162
L183.399 118.432
L183.744 118.337
L184.086 120.554
L184.425 120.952
L184.76 120.915
L185.091 119.227
L185.419 121.147
L185.744 121.128
L186.065 122.365
L186.384 122.872
L186.699 121.898
L187.011 123.681
L187.627 122.409
L187.93 122.546
L188.23 124.837
L188.528 125.826
L189.116 129.685
L189.406 129.056
L189.693 130.968
L189.977 131.629
L190.539 134.326
L190.817 133.859
L191.092 134.919
L191.364 136.869
L191.635 136.099
L191.903 134.302
L192.169 135.712
L192.433 136.335
L192.694 135.173
L192.954 135.353
L193.211 135.187
L193.467 134.106
L193.72 134.012
L193.972 134.08
L194.221 132.233
L194.469 134.506
L194.714 135.601
L194.958 135.247
L195.2 135.627
L195.441 136.312
L195.916 136.744
L196.384 137.986
L196.616 137.232
L196.846 137.931
L197.074 137.271
L197.301 138.932
L197.75 140.381
L197.972 139.391
L198.192 139.251
L198.411 141.173
L198.629 140.508
L198.845 140.551
L199.273 142.973
L199.485 143.096
L199.695 142.781
L199.904 143.59
L200.112 143.316
L200.319 143.482
L200.524 144.91
L200.728 144.557
L201.728 150.479
L202.12 150.383
L202.314 153.473
L202.507 154.737
L202.699 154.864
L203.079 155.363
L203.826 158.128
L204.01 157.964
L204.736 160.774
L204.915 160.861
L205.27 164.252
L205.446 164.144
L205.621 163.888
L205.969 165.02
L206.141 164.316
L206.313 165.24
L206.483 164.95
L206.653 166.25
L206.821 166.239
L207.156 166.839
L207.322 168.927
L207.488 167.794
L207.652 168.48
L207.816 168.513
L207.978 167.443
L208.14 167.51
L208.302 168.124
L208.462 167.768
L208.78 169.303
L208.938 169.387
L209.252 170.218
L209.717 174.923
L209.87 173.6
L210.023 173.925
L210.175 173.352
L210.327 173.563
L210.627 173.356
L210.776 174.536
L210.925 174.821
L211.073 175.393
L211.367 175.521
L211.512 174.944
L211.658 175.294
L211.802 175.085
L211.946 174.568
L212.232 174.701
L212.516 174.831
L212.796 175.593
L212.936 175.097
L213.075 176.111
L213.213 174.411
L213.488 179.379
L213.625 177.332
L213.761 179.211
L213.897 177.033
L214.166 178.932
L214.3 178.721
L214.433 179.886
L214.566 179.899
L214.698 180.124
L214.829 181.714
L214.96 181.555
L215.091 180.093
L215.221 180.425
L215.35 181.199
L215.479 179.602
L215.608 180.046
L215.863 179.509
L216.243 178.413
L216.368 180.043
L216.618 178.629
L216.742 178.312
L216.865 178.645
L216.988 177.929
L217.111 178.617
L217.233 178.561
L217.355 178.752
L217.476 180.358
L217.597 177.866
L217.717 180.44
L217.957 178.304
L218.076 179.429
L218.194 181.839
L218.312 179.272
L218.547 180.713
L218.664 180.467
L219.012 181.565
L219.128 181.869
L219.242 184.379
L219.357 183.018
L219.471 185.303
L219.697 184.351
L219.81 184.152
L219.923 184.543
L220.035 184.34
L220.146 184.699
L220.368 184.326
L220.479 185.192
L220.589 184.245
L220.699 185.21
L220.917 184.365
L221.025 184.713
L221.134 185.786
L221.242 184.661
L221.563 185.251
L221.67 184.937
L221.776 185.017
L221.987 184.516
L222.092 185.317
L222.197 185.058
L222.301 185.453
L222.405 185.163
L222.818 182.082
L223.226 182.367
L223.327 182.333
L223.428 181.781
L223.528 181.856
L223.728 181.411
L223.828 181.57
L224.125 181.18
L224.419 181.693
L224.614 182.066
L224.71 181.887
L224.903 180.681
L225.191 182.071
L225.475 181.441
L225.664 180.96
L225.757 180.911
L225.851 179.935
L226.13 181.261
L226.315 182.957
L226.407 182.962
L226.498 183.088
L226.59 182.662
L226.681 182.994
L226.953 182.226
L227.222 182.903
L227.401 183.208
L227.49 182.734
L227.667 183.334
L227.755 182.998
L227.843 183.564
L228.018 182.534
L228.105 182.664
L228.279 181.995
L228.365 181.809
L228.965 184.003
L229.302 183.12
L229.553 180.979
L229.884 177.064
L230.049 175.869
L230.375 179.313
L230.456 179.312
L230.456 179.312" style="fill:none;stroke:#e41a1c;stroke-linecap:square;stroke-width:2.0;"/>
   </g>
   <g id="patch_3">
    <path d="
M36.9438 21.32
L260.144 21.32" style="fill:none;stroke:#000000;stroke-linecap:square;stroke-linejoin:miter;"/>
   </g>
   <g id="patch_4">
    <path d="
M36.9438 194.12
L260.144 194.12" style="fill:none;stroke:#000000;stroke-linecap:square;stroke-linejoin:miter;"/>
   </g>
   <g id="patch_5">
    <path d="
M260.144 194.12
L260.144 21.32" style="fill:none;stroke:#000000;stroke-linecap:square;stroke-linejoin:miter;"/>
   </g>
   <g id="patch_6">
    <path d="
M36.9438 194.12
L36.9438 21.32" style="fill:none;stroke:#000000;stroke-linecap:square;stroke-linejoin:miter;"/>
   </g>
   <g id="matplotlib.axis_1">
    <g id="xtick_1">
     <g id="line2d_2">
      <defs>
       <path d="
M0 0
L0 -4" id="mc7db9fdffb" style="stroke:#000000;stroke-width:0.5;"/>
      </defs>
      <g>
       <use style="stroke:#000000;stroke-width:0.5;" x="36.94375" xlink:href="#mc7db9fdffb" y="194.12"/>
      </g>
     </g>
     <g id="line2d_3">
      <defs>
       <path d="
M0 0
L0 4" id="m5a7d422ac3" style="stroke:#000000;stroke-width:0.5;"/>
      </defs>
      <g>
       <use style="stroke:#000000;stroke-width:0.5;" x="36.94375" xlink:href="#m5a7d422ac3" y="21.32"/>
      </g>
     </g>
     <g id="text_1">
      <!-- $\mathdefault{10^{0}}$ -->
      <defs>
       <path d="
M12.4062 8.29688
L28.5156 8.29688
L28.5156 63.9219
L10.9844 60.4062
L10.9844 69.3906
L28.4219 72.9062
L38.2812 72.9062
L38.2812 8.29688
L54.3906 8.29688
L54.3906 0
L12.4062 0
z
" id="BitstreamVeraSans-Roman-31"/>
       <path d="
M31.7812 66.4062
Q24.1719 66.4062 20.3281 58.9062
Q16.5 51.4219 16.5 36.375
Q16.5 21.3906 20.3281 13.8906
Q24.1719 6.39062 31.7812 6.39062
Q39.4531 6.39062 43.2812 13.8906
Q47.125 21.3906 47.125 36.375
Q47.125 51.4219 43.2812 58.9062
Q39.4531 66.4062 31.7812 66.4062
M31.7812 74.2188
Q44.0469 74.2188 50.5156 64.5156
Q56.9844 54.8281 56.9844 36.375
Q56.9844 17.9688 50.5156 8.26562
Q44.0469 -1.42188 31.7812 -1.42188
Q19.5312 -1.42188 13.0625 8.26562
Q6.59375 17.9688 6.59375 36.375
Q6.59375 54.8281 13.0625 64.5156
Q19.5312 74.2188 31.7812 74.2188" id="BitstreamVeraSans-Roman-30"/>
      </defs>
      <g transform="translate(27.29375 206.7403125)scale(0.1 -0.1)">
       <use transform="translate(0.0 0.546875)" xlink:href="#BitstreamVeraSans-Roman-31"/>
       <use transform="translate(63.623046875 0.546875)" xlink:href="#BitstreamVeraSans-Roman-30"/>
       <use transform="translate(127.24609375 53.046875)scale(0.7)" xlink:href="#BitstreamVeraSans-Roman-30"/>
      </g>
     </g>
    </g>
    <g id="xtick_2">
     <g id="line2d_4">
      <g>
       <use style="stroke:#000000;stroke-width:0.5;" x="111.34375" xlink:href="#mc7db9fdffb" y="194.12"/>
      </g>
     </g>
     <g id="line2d_5">
      <g>
       <use style="stroke:#000000;stroke-width:0.5;" x="111.34375" xlink:href="#m5a7d422ac3" y="21.32"/>
      </g>
     </g>
     <g id="text_2">
      <!-- $\mathdefault{10^{1}}$ -->
      <g transform="translate(101.69375 206.6403125)scale(0.1 -0.1)">
       <use transform="translate(0.0 0.46562500000000284)" xlink:href="#BitstreamVeraSans-Roman-31"/>
       <use transform="translate(63.623046875 0.46562500000000284)" xlink:href="#BitstreamVeraSans-Roman-30"/>
       <use transform="translate(127.24609375 52.965625)scale(0.7)" xlink:href="#BitstreamVeraSans-Roman-31"/>
      </g>
     </g>
    </g>
    <g id="xtick_3">
     <g id="line2d_6">
      <g>
       <use style="stroke:#000000;stroke-width:0.5;" x="185.74375" xlink:href="#mc7db9fdffb" y="194.12"/>
      </g>
     </g>
     <g id="line2d_7">
      <g>
       <use style="stroke:#000000;stroke-width:0.5;" x="185.74375" xlink:href="#m5a7d422ac3" y="21.32"/>
      </g>
     </g>
     <g id="text_3">
      <!-- $\mathdefault{10^{2}}$ -->
      <defs>
       <path d="
M19.1875 8.29688
L53.6094 8.29688
L53.6094 0
L7.32812 0
L7.32812 8.29688
Q12.9375 14.1094 22.625 23.8906
Q32.3281 33.6875 34.8125 36.5312
Q39.5469 41.8438 41.4219 45.5312
Q43.3125 49.2188 43.3125 52.7812
Q43.3125 58.5938 39.2344 62.25
Q35.1562 65.9219 28.6094 65.9219
Q23.9688 65.9219 18.8125 64.3125
Q13.6719 62.7031 7.8125 59.4219
L7.8125 69.3906
Q13.7656 71.7812 18.9375 73
Q24.125 74.2188 28.4219 74.2188
Q39.75 74.2188 46.4844 68.5469
Q53.2188 62.8906 53.2188 53.4219
Q53.2188 48.9219 51.5312 44.8906
Q49.8594 40.875 45.4062 35.4062
Q44.1875 33.9844 37.6406 27.2188
Q31.1094 20.4531 19.1875 8.29688" id="BitstreamVeraSans-Roman-32"/>
      </defs>
      <g transform="translate(176.09375 206.7403125)scale(0.1 -0.1)">
       <use transform="translate(0.0 0.546875)" xlink:href="#BitstreamVeraSans-Roman-31"/>
       <use transform="translate(63.623046875 0.546875)" xlink:href="#BitstreamVeraSans-Roman-30"/>
       <use transform="translate(127.24609375 53.046875)scale(0.7)" xlink:href="#BitstreamVeraSans-Roman-32"/>
      </g>
     </g>
    </g>
    <g id="xtick_4">
     <g id="line2d_8">
      <g>
       <use style="stroke:#000000;stroke-width:0.5;" x="260.14375" xlink:href="#mc7db9fdffb" y="194.12"/>
      </g>
     </g>
     <g id="line2d_9">
      <g>
       <use style="stroke:#000000;stroke-width:0.5;" x="260.14375" xlink:href="#m5a7d422ac3" y="21.32"/>
      </g>
     </g>
     <g id="text_4">
      <!-- $\mathdefault{10^{3}}$ -->
      <defs>
       <path d="
M40.5781 39.3125
Q47.6562 37.7969 51.625 33
Q55.6094 28.2188 55.6094 21.1875
Q55.6094 10.4062 48.1875 4.48438
Q40.7656 -1.42188 27.0938 -1.42188
Q22.5156 -1.42188 17.6562 -0.515625
Q12.7969 0.390625 7.625 2.20312
L7.625 11.7188
Q11.7188 9.32812 16.5938 8.10938
Q21.4844 6.89062 26.8125 6.89062
Q36.0781 6.89062 40.9375 10.5469
Q45.7969 14.2031 45.7969 21.1875
Q45.7969 27.6406 41.2812 31.2656
Q36.7656 34.9062 28.7188 34.9062
L20.2188 34.9062
L20.2188 43.0156
L29.1094 43.0156
Q36.375 43.0156 40.2344 45.9219
Q44.0938 48.8281 44.0938 54.2969
Q44.0938 59.9062 40.1094 62.9062
Q36.1406 65.9219 28.7188 65.9219
Q24.6562 65.9219 20.0156 65.0312
Q15.375 64.1562 9.8125 62.3125
L9.8125 71.0938
Q15.4375 72.6562 20.3438 73.4375
Q25.25 74.2188 29.5938 74.2188
Q40.8281 74.2188 47.3594 69.1094
Q53.9062 64.0156 53.9062 55.3281
Q53.9062 49.2656 50.4375 45.0938
Q46.9688 40.9219 40.5781 39.3125" id="BitstreamVeraSans-Roman-33"/>
      </defs>
      <g transform="translate(250.49375 206.7403125)scale(0.1 -0.1)">
       <use transform="translate(0.0 0.546875)" xlink:href="#BitstreamVeraSans-Roman-31"/>
       <use transform="translate(63.623046875 0.546875)" xlink:href="#BitstreamVeraSans-Roman-30"/>
       <use transform="translate(127.24609375 53.046875)scale(0.7)" xlink:href="#BitstreamVeraSans-Roman-33"/>
      </g>
     </g>
    </g>
    <g id="xtick_5">
     <g id="line2d_10">
      <defs>
       <path d="
M0 0
L0 -2" id="mc21db286a6" style="stroke:#000000;stroke-width:0.5;"/>
      </defs>
      <g>
       <use style="stroke:#000000;stroke-width:0.5;" x="59.3403816774" xlink:href="#mc21db286a6" y="194.12"/>
      </g>
     </g>
     <g id="line2d_11">
      <defs>
       <path d="
M0 0
L0 2" id="ma9c915e141" style="stroke:#000000;stroke-width:0.5;"/>
      </defs>
      <g>
       <use style="stroke:#000000;stroke-width:0.5;" x="59.3403816774" xlink:href="#ma9c915e141" y="21.32"/>
      </g>
     </g>
    </g>
    <g id="xtick_6">
     <g id="line2d_12">
      <g>
       <use style="stroke:#000000;stroke-width:0.5;" x="72.4415713511" xlink:href="#mc21db286a6" y="194.12"/>
      </g>
     </g>
     <g id="line2d_13">
      <g>
       <use style="stroke:#000000;stroke-width:0.5;" x="72.4415713511" xlink:href="#ma9c915e141" y="21.32"/>
      </g>
     </g>
    </g>
    <g id="xtick_7">
     <g id="line2d_14">
      <g>
       <use style="stroke:#000000;stroke-width:0.5;" x="81.7370133548" xlink:href="#mc21db286a6" y="194.12"/>
      </g>
     </g>
     <g id="line2d_15">
      <g>
       <use style="stroke:#000000;stroke-width:0.5;" x="81.7370133548" xlink:href="#ma9c915e141" y="21.32"/>
      </g>
     </g>
    </g>
    <g id="xtick_8">
     <g id="line2d_16">
      <g>
       <use style="stroke:#000000;stroke-width:0.5;" x="88.9471183226" xlink:href="#mc21db286a6" y="194.12"/>
      </g>
     </g>
     <g id="line2d_17">
      <g>
       <use style="stroke:#000000;stroke-width:0.5;" x="88.9471183226" xlink:href="#ma9c915e141" y="21.32"/>
      </g>
     </g>
    </g>
    <g id="xtick_9">
     <g id="line2d_18">
      <g>
       <use style="stroke:#000000;stroke-width:0.5;" x="94.8382030285" xlink:href="#mc21db286a6" y="194.12"/>
      </g>
     </g>
     <g id="line2d_19">
      <g>
       <use style="stroke:#000000;stroke-width:0.5;" x="94.8382030285" xlink:href="#ma9c915e141" y="21.32"/>
      </g>
     </g>
    </g>
    <g id="xtick_10">
     <g id="line2d_20">
      <g>
       <use style="stroke:#000000;stroke-width:0.5;" x="99.8190441771" xlink:href="#mc21db286a6" y="194.12"/>
      </g>
     </g>
     <g id="line2d_21">
      <g>
       <use style="stroke:#000000;stroke-width:0.5;" x="99.8190441771" xlink:href="#ma9c915e141" y="21.32"/>
      </g>
     </g>
    </g>
    <g id="xtick_11">
     <g id="line2d_22">
      <g>
       <use style="stroke:#000000;stroke-width:0.5;" x="104.133645032" xlink:href="#mc21db286a6" y="194.12"/>
      </g>
     </g>
     <g id="line2d_23">
      <g>
       <use style="stroke:#000000;stroke-width:0.5;" x="104.133645032" xlink:href="#ma9c915e141" y="21.32"/>
      </g>
     </g>
    </g>
    <g id="xtick_12">
     <g id="line2d_24">
      <g>
       <use style="stroke:#000000;stroke-width:0.5;" x="107.939392702" xlink:href="#mc21db286a6" y="194.12"/>
      </g>
     </g>
     <g id="line2d_25">
      <g>
       <use style="stroke:#000000;stroke-width:0.5;" x="107.939392702" xlink:href="#ma9c915e141" y="21.32"/>
      </g>
     </g>
    </g>
    <g id="xtick_13">
     <g id="line2d_26">
      <g>
       <use style="stroke:#000000;stroke-width:0.5;" x="133.740381677" xlink:href="#mc21db286a6" y="194.12"/>
      </g>
     </g>
     <g id="line2d_27">
      <g>
       <use style="stroke:#000000;stroke-width:0.5;" x="133.740381677" xlink:href="#ma9c915e141" y="21.32"/>
      </g>
     </g>
    </g>
    <g id="xtick_14">
     <g id="line2d_28">
      <g>
       <use style="stroke:#000000;stroke-width:0.5;" x="146.841571351" xlink:href="#mc21db286a6" y="194.12"/>
      </g>
     </g>
     <g id="line2d_29">
      <g>
       <use style="stroke:#000000;stroke-width:0.5;" x="146.841571351" xlink:href="#ma9c915e141" y="21.32"/>
      </g>
     </g>
    </g>
    <g id="xtick_15">
     <g id="line2d_30">
      <g>
       <use style="stroke:#000000;stroke-width:0.5;" x="156.137013355" xlink:href="#mc21db286a6" y="194.12"/>
      </g>
     </g>
     <g id="line2d_31">
      <g>
       <use style="stroke:#000000;stroke-width:0.5;" x="156.137013355" xlink:href="#ma9c915e141" y="21.32"/>
      </g>
     </g>
    </g>
    <g id="xtick_16">
     <g id="line2d_32">
      <g>
       <use style="stroke:#000000;stroke-width:0.5;" x="163.347118323" xlink:href="#mc21db286a6" y="194.12"/>
      </g>
     </g>
     <g id="line2d_33">
      <g>
       <use style="stroke:#000000;stroke-width:0.5;" x="163.347118323" xlink:href="#ma9c915e141" y="21.32"/>
      </g>
     </g>
    </g>
    <g id="xtick_17">
     <g id="line2d_34">
      <g>
       <use style="stroke:#000000;stroke-width:0.5;" x="169.238203029" xlink:href="#mc21db286a6" y="194.12"/>
      </g>
     </g>
     <g id="line2d_35">
      <g>
       <use style="stroke:#000000;stroke-width:0.5;" x="169.238203029" xlink:href="#ma9c915e141" y="21.32"/>
      </g>
     </g>
    </g>
    <g id="xtick_18">
     <g id="line2d_36">
      <g>
       <use style="stroke:#000000;stroke-width:0.5;" x="174.219044177" xlink:href="#mc21db286a6" y="194.12"/>
      </g>
     </g>
     <g id="line2d_37">
      <g>
       <use style="stroke:#000000;stroke-width:0.5;" x="174.219044177" xlink:href="#ma9c915e141" y="21.32"/>
      </g>
     </g>
    </g>
    <g id="xtick_19">
     <g id="line2d_38">
      <g>
       <use style="stroke:#000000;stroke-width:0.5;" x="178.533645032" xlink:href="#mc21db286a6" y="194.12"/>
      </g>
     </g>
     <g id="line2d_39">
      <g>
       <use style="stroke:#000000;stroke-width:0.5;" x="178.533645032" xlink:href="#ma9c915e141" y="21.32"/>
      </g>
     </g>
    </g>
    <g id="xtick_20">
     <g id="line2d_40">
      <g>
       <use style="stroke:#000000;stroke-width:0.5;" x="182.339392702" xlink:href="#mc21db286a6" y="194.12"/>
      </g>
     </g>
     <g id="line2d_41">
      <g>
       <use style="stroke:#000000;stroke-width:0.5;" x="182.339392702" xlink:href="#ma9c915e141" y="21.32"/>
      </g>
     </g>
    </g>
    <g id="xtick_21">
     <g id="line2d_42">
      <g>
       <use style="stroke:#000000;stroke-width:0.5;" x="208.140381677" xlink:href="#mc21db286a6" y="194.12"/>
      </g>
     </g>
     <g id="line2d_43">
      <g>
       <use style="stroke:#000000;stroke-width:0.5;" x="208.140381677" xlink:href="#ma9c915e141" y="21.32"/>
      </g>
     </g>
    </g>
    <g id="xtick_22">
     <g id="line2d_44">
      <g>
       <use style="stroke:#000000;stroke-width:0.5;" x="221.241571351" xlink:href="#mc21db286a6" y="194.12"/>
      </g>
     </g>
     <g id="line2d_45">
      <g>
       <use style="stroke:#000000;stroke-width:0.5;" x="221.241571351" xlink:href="#ma9c915e141" y="21.32"/>
      </g>
     </g>
    </g>
    <g id="xtick_23">
     <g id="line2d_46">
      <g>
       <use style="stroke:#000000;stroke-width:0.5;" x="230.537013355" xlink:href="#mc21db286a6" y="194.12"/>
      </g>
     </g>
     <g id="line2d_47">
      <g>
       <use style="stroke:#000000;stroke-width:0.5;" x="230.537013355" xlink:href="#ma9c915e141" y="21.32"/>
      </g>
     </g>
    </g>
    <g id="xtick_24">
     <g id="line2d_48">
      <g>
       <use style="stroke:#000000;stroke-width:0.5;" x="237.747118323" xlink:href="#mc21db286a6" y="194.12"/>
      </g>
     </g>
     <g id="line2d_49">
      <g>
       <use style="stroke:#000000;stroke-width:0.5;" x="237.747118323" xlink:href="#ma9c915e141" y="21.32"/>
      </g>
     </g>
    </g>
    <g id="xtick_25">
     <g id="line2d_50">
      <g>
       <use style="stroke:#000000;stroke-width:0.5;" x="243.638203029" xlink:href="#mc21db286a6" y="194.12"/>
      </g>
     </g>
     <g id="line2d_51">
      <g>
       <use style="stroke:#000000;stroke-width:0.5;" x="243.638203029" xlink:href="#ma9c915e141" y="21.32"/>
      </g>
     </g>
    </g>
    <g id="xtick_26">
     <g id="line2d_52">
      <g>
       <use style="stroke:#000000;stroke-width:0.5;" x="248.619044177" xlink:href="#mc21db286a6" y="194.12"/>
      </g>
     </g>
     <g id="line2d_53">
      <g>
       <use style="stroke:#000000;stroke-width:0.5;" x="248.619044177" xlink:href="#ma9c915e141" y="21.32"/>
      </g>
     </g>
    </g>
    <g id="xtick_27">
     <g id="line2d_54">
      <g>
       <use style="stroke:#000000;stroke-width:0.5;" x="252.933645032" xlink:href="#mc21db286a6" y="194.12"/>
      </g>
     </g>
     <g id="line2d_55">
      <g>
       <use style="stroke:#000000;stroke-width:0.5;" x="252.933645032" xlink:href="#ma9c915e141" y="21.32"/>
      </g>
     </g>
    </g>
    <g id="xtick_28">
     <g id="line2d_56">
      <g>
       <use style="stroke:#000000;stroke-width:0.5;" x="256.739392702" xlink:href="#mc21db286a6" y="194.12"/>
      </g>
     </g>
     <g id="line2d_57">
      <g>
       <use style="stroke:#000000;stroke-width:0.5;" x="256.739392702" xlink:href="#ma9c915e141" y="21.32"/>
      </g>
     </g>
    </g>
    <g id="text_5">
     <!-- $\Delta t$ -->
     <defs>
      <path d="
M5.42188 0
Q4.59375 0 4.59375 0.78125
Q4.64062 0.875 4.65625 0.921875
Q4.6875 0.984375 4.6875 1.125
L39.1094 70.5156
Q39.5469 71.5781 40.9219 71.5781
L42.2812 71.5781
Q43.6562 71.5781 44.0938 70.5156
L78.5156 1.125
Q78.5625 1.03125 78.5781 0.953125
Q78.6094 0.875 78.6094 0.78125
Q78.6094 0 77.7812 0
z

M12.0156 8.01562
L64.7031 8.01562
L38.375 61.0781
z
" id="Cmr10-a2"/>
      <path d="
M6.20312 8.10938
Q6.20312 9.57812 6.5 10.8906
L13.7188 39.5938
L3.21875 39.5938
Q2.20312 39.5938 2.20312 40.9219
Q2.59375 43.1094 3.51562 43.1094
L14.5938 43.1094
L18.6094 59.4219
Q19 60.75 20.1719 61.6719
Q21.3438 62.5938 22.7969 62.5938
Q24.0781 62.5938 24.9219 61.8281
Q25.7812 61.0781 25.7812 59.8125
Q25.7812 59.5156 25.75 59.3438
Q25.7344 59.1875 25.6875 58.9844
L21.6875 43.1094
L31.9844 43.1094
Q33.0156 43.1094 33.0156 41.7969
Q32.9531 41.5469 32.8125 40.9531
Q32.6719 40.375 32.4219 39.9844
Q32.1719 39.5938 31.6875 39.5938
L20.7969 39.5938
L13.625 10.6875
Q12.8906 7.85938 12.8906 5.8125
Q12.8906 1.51562 15.8281 1.51562
Q20.2188 1.51562 23.6094 5.64062
Q27 9.76562 28.8125 14.7031
Q29.2031 15.2812 29.5938 15.2812
L30.8125 15.2812
Q31.2031 15.2812 31.4375 15.0156
Q31.6875 14.75 31.6875 14.4062
Q31.6875 14.2031 31.5938 14.1094
Q29.3906 8.0625 25.1875 3.46875
Q21 -1.125 15.5781 -1.125
Q11.625 -1.125 8.90625 1.45312
Q6.20312 4.04688 6.20312 8.10938" id="Cmmi10-74"/>
     </defs>
     <g transform="translate(142.54375 221.4184375)scale(0.1 -0.1)">
      <use transform="translate(0.0 0.421875)" xlink:href="#Cmr10-a2"/>
      <use transform="translate(83.30078125 0.421875)" xlink:href="#Cmmi10-74"/>
     </g>
    </g>
   </g>
   <g id="matplotlib.axis_2">
    <g id="ytick_1">
     <g id="line2d_58">
      <defs>
       <path d="
M0 0
L4 0" id="md7965d1ba0" style="stroke:#000000;stroke-width:0.5;"/>
      </defs>
      <g>
       <use style="stroke:#000000;stroke-width:0.5;" x="36.94375" xlink:href="#md7965d1ba0" y="194.12"/>
      </g>
     </g>
     <g id="line2d_59">
      <defs>
       <path d="
M0 0
L-4 0" id="md9a1c1a7cd" style="stroke:#000000;stroke-width:0.5;"/>
      </defs>
      <g>
       <use style="stroke:#000000;stroke-width:0.5;" x="260.14375" xlink:href="#md9a1c1a7cd" y="194.12"/>
      </g>
     </g>
     <g id="text_6">
      <!-- 0 -->
      <g transform="translate(27.9046875 196.879375)scale(0.1 -0.1)">
       <use xlink:href="#BitstreamVeraSans-Roman-30"/>
      </g>
     </g>
    </g>
    <g id="ytick_2">
     <g id="line2d_60">
      <g>
       <use style="stroke:#000000;stroke-width:0.5;" x="36.94375" xlink:href="#md7965d1ba0" y="171.08"/>
      </g>
     </g>
     <g id="line2d_61">
      <g>
       <use style="stroke:#000000;stroke-width:0.5;" x="260.14375" xlink:href="#md9a1c1a7cd" y="171.08"/>
      </g>
     </g>
     <g id="text_7">
      <!-- 2 -->
      <g transform="translate(28.315625 173.839375)scale(0.1 -0.1)">
       <use xlink:href="#BitstreamVeraSans-Roman-32"/>
      </g>
     </g>
    </g>
    <g id="ytick_3">
     <g id="line2d_62">
      <g>
       <use style="stroke:#000000;stroke-width:0.5;" x="36.94375" xlink:href="#md7965d1ba0" y="148.04"/>
      </g>
     </g>
     <g id="line2d_63">
      <g>
       <use style="stroke:#000000;stroke-width:0.5;" x="260.14375" xlink:href="#md9a1c1a7cd" y="148.04"/>
      </g>
     </g>
     <g id="text_8">
      <!-- 4 -->
      <defs>
       <path d="
M37.7969 64.3125
L12.8906 25.3906
L37.7969 25.3906
z

M35.2031 72.9062
L47.6094 72.9062
L47.6094 25.3906
L58.0156 25.3906
L58.0156 17.1875
L47.6094 17.1875
L47.6094 0
L37.7969 0
L37.7969 17.1875
L4.89062 17.1875
L4.89062 26.7031
z
" id="BitstreamVeraSans-Roman-34"/>
      </defs>
      <g transform="translate(27.63125 150.799375)scale(0.1 -0.1)">
       <use xlink:href="#BitstreamVeraSans-Roman-34"/>
      </g>
     </g>
    </g>
    <g id="ytick_4">
     <g id="line2d_64">
      <g>
       <use style="stroke:#000000;stroke-width:0.5;" x="36.94375" xlink:href="#md7965d1ba0" y="125.0"/>
      </g>
     </g>
     <g id="line2d_65">
      <g>
       <use style="stroke:#000000;stroke-width:0.5;" x="260.14375" xlink:href="#md9a1c1a7cd" y="125.0"/>
      </g>
     </g>
     <g id="text_9">
      <!-- 6 -->
      <defs>
       <path d="
M33.0156 40.375
Q26.375 40.375 22.4844 35.8281
Q18.6094 31.2969 18.6094 23.3906
Q18.6094 15.5312 22.4844 10.9531
Q26.375 6.39062 33.0156 6.39062
Q39.6562 6.39062 43.5312 10.9531
Q47.4062 15.5312 47.4062 23.3906
Q47.4062 31.2969 43.5312 35.8281
Q39.6562 40.375 33.0156 40.375
M52.5938 71.2969
L52.5938 62.3125
Q48.875 64.0625 45.0938 64.9844
Q41.3125 65.9219 37.5938 65.9219
Q27.8281 65.9219 22.6719 59.3281
Q17.5312 52.7344 16.7969 39.4062
Q19.6719 43.6562 24.0156 45.9219
Q28.375 48.1875 33.5938 48.1875
Q44.5781 48.1875 50.9531 41.5156
Q57.3281 34.8594 57.3281 23.3906
Q57.3281 12.1562 50.6875 5.35938
Q44.0469 -1.42188 33.0156 -1.42188
Q20.3594 -1.42188 13.6719 8.26562
Q6.98438 17.9688 6.98438 36.375
Q6.98438 53.6562 15.1875 63.9375
Q23.3906 74.2188 37.2031 74.2188
Q40.9219 74.2188 44.7031 73.4844
Q48.4844 72.75 52.5938 71.2969" id="BitstreamVeraSans-Roman-36"/>
      </defs>
      <g transform="translate(27.909375 127.759375)scale(0.1 -0.1)">
       <use xlink:href="#BitstreamVeraSans-Roman-36"/>
      </g>
     </g>
    </g>
    <g id="ytick_5">
     <g id="line2d_66">
      <g>
       <use style="stroke:#000000;stroke-width:0.5;" x="36.94375" xlink:href="#md7965d1ba0" y="101.96"/>
      </g>
     </g>
     <g id="line2d_67">
      <g>
       <use style="stroke:#000000;stroke-width:0.5;" x="260.14375" xlink:href="#md9a1c1a7cd" y="101.96"/>
      </g>
     </g>
     <g id="text_10">
      <!-- 8 -->
      <defs>
       <path d="
M31.7812 34.625
Q24.75 34.625 20.7188 30.8594
Q16.7031 27.0938 16.7031 20.5156
Q16.7031 13.9219 20.7188 10.1562
Q24.75 6.39062 31.7812 6.39062
Q38.8125 6.39062 42.8594 10.1719
Q46.9219 13.9688 46.9219 20.5156
Q46.9219 27.0938 42.8906 30.8594
Q38.875 34.625 31.7812 34.625
M21.9219 38.8125
Q15.5781 40.375 12.0312 44.7188
Q8.5 49.0781 8.5 55.3281
Q8.5 64.0625 14.7188 69.1406
Q20.9531 74.2188 31.7812 74.2188
Q42.6719 74.2188 48.875 69.1406
Q55.0781 64.0625 55.0781 55.3281
Q55.0781 49.0781 51.5312 44.7188
Q48 40.375 41.7031 38.8125
Q48.8281 37.1562 52.7969 32.3125
Q56.7812 27.4844 56.7812 20.5156
Q56.7812 9.90625 50.3125 4.23438
Q43.8438 -1.42188 31.7812 -1.42188
Q19.7344 -1.42188 13.25 4.23438
Q6.78125 9.90625 6.78125 20.5156
Q6.78125 27.4844 10.7812 32.3125
Q14.7969 37.1562 21.9219 38.8125
M18.3125 54.3906
Q18.3125 48.7344 21.8438 45.5625
Q25.3906 42.3906 31.7812 42.3906
Q38.1406 42.3906 41.7188 45.5625
Q45.3125 48.7344 45.3125 54.3906
Q45.3125 60.0625 41.7188 63.2344
Q38.1406 66.4062 31.7812 66.4062
Q25.3906 66.4062 21.8438 63.2344
Q18.3125 60.0625 18.3125 54.3906" id="BitstreamVeraSans-Roman-38"/>
      </defs>
      <g transform="translate(27.94375 104.719375)scale(0.1 -0.1)">
       <use xlink:href="#BitstreamVeraSans-Roman-38"/>
      </g>
     </g>
    </g>
    <g id="ytick_6">
     <g id="line2d_68">
      <g>
       <use style="stroke:#000000;stroke-width:0.5;" x="36.94375" xlink:href="#md7965d1ba0" y="78.92"/>
      </g>
     </g>
     <g id="line2d_69">
      <g>
       <use style="stroke:#000000;stroke-width:0.5;" x="260.14375" xlink:href="#md9a1c1a7cd" y="78.92"/>
      </g>
     </g>
     <g id="text_11">
      <!-- 10 -->
      <g transform="translate(21.98125 81.679375)scale(0.1 -0.1)">
       <use xlink:href="#BitstreamVeraSans-Roman-31"/>
       <use x="63.623046875" xlink:href="#BitstreamVeraSans-Roman-30"/>
      </g>
     </g>
    </g>
    <g id="ytick_7">
     <g id="line2d_70">
      <g>
       <use style="stroke:#000000;stroke-width:0.5;" x="36.94375" xlink:href="#md7965d1ba0" y="55.88"/>
      </g>
     </g>
     <g id="line2d_71">
      <g>
       <use style="stroke:#000000;stroke-width:0.5;" x="260.14375" xlink:href="#md9a1c1a7cd" y="55.88"/>
      </g>
     </g>
     <g id="text_12">
      <!-- 12 -->
      <g transform="translate(22.31875 58.639375)scale(0.1 -0.1)">
       <use xlink:href="#BitstreamVeraSans-Roman-31"/>
       <use x="63.623046875" xlink:href="#BitstreamVeraSans-Roman-32"/>
      </g>
     </g>
    </g>
    <g id="ytick_8">
     <g id="line2d_72">
      <g>
       <use style="stroke:#000000;stroke-width:0.5;" x="36.94375" xlink:href="#md7965d1ba0" y="32.84"/>
      </g>
     </g>
     <g id="line2d_73">
      <g>
       <use style="stroke:#000000;stroke-width:0.5;" x="260.14375" xlink:href="#md9a1c1a7cd" y="32.84"/>
      </g>
     </g>
     <g id="text_13">
      <!-- 14 -->
      <g transform="translate(21.878125 35.599375)scale(0.1 -0.1)">
       <use xlink:href="#BitstreamVeraSans-Roman-31"/>
       <use x="63.623046875" xlink:href="#BitstreamVeraSans-Roman-34"/>
      </g>
     </g>
    </g>
    <g id="text_14">
     <!-- $\left&lt;\alpha_2\right&gt;$ -->
     <defs>
      <path d="
M4.98438 0
L4.98438 2.6875
Q4.98438 2.9375 5.17188 3.21875
L20.7031 20.4062
Q24.2188 24.2188 26.4062 26.7969
Q28.6094 29.3906 30.75 32.7656
Q32.9062 36.1406 34.1562 39.625
Q35.4062 43.1094 35.4062 47.0156
Q35.4062 51.125 33.8906 54.8594
Q32.375 58.5938 29.375 60.8438
Q26.375 63.0938 22.125 63.0938
Q17.7812 63.0938 14.3125 60.4688
Q10.8438 57.8594 9.42188 53.7188
Q9.8125 53.8125 10.5 53.8125
Q12.75 53.8125 14.3281 52.2969
Q15.9219 50.7812 15.9219 48.3906
Q15.9219 46.0938 14.3281 44.5
Q12.75 42.9219 10.5 42.9219
Q8.15625 42.9219 6.5625 44.5469
Q4.98438 46.1875 4.98438 48.3906
Q4.98438 52.1562 6.39062 55.4375
Q7.8125 58.7344 10.4688 61.2969
Q13.1406 63.875 16.4844 65.2344
Q19.8281 66.6094 23.5781 66.6094
Q29.2969 66.6094 34.2188 64.1875
Q39.1562 61.7656 42.0312 57.3438
Q44.9219 52.9375 44.9219 47.0156
Q44.9219 42.6719 43.0156 38.7656
Q41.1094 34.8594 38.125 31.6562
Q35.1562 28.4688 30.5156 24.4062
Q25.875 20.3594 24.4219 19
L13.0938 8.10938
L22.7031 8.10938
Q29.7812 8.10938 34.5469 8.21875
Q39.3125 8.34375 39.5938 8.59375
Q40.7656 9.85938 42 17.8281
L44.9219 17.8281
L42.0938 0
z
" id="Cmr10-32"/>
      <path d="
M29.3906 -23.7812
L11.1875 24.3125
Q10.9844 24.7031 10.9844 25
Q10.9844 25.2031 11.1875 25.7812
L29.3906 73.7812
Q29.7344 75 31.2031 75
Q32.0781 75 32.6406 74.4531
Q33.2031 73.9219 33.2031 73
Q33.2031 72.75 33.1719 72.6094
Q33.1562 72.4688 33.1094 72.3125
L15.0938 25
L33.1094 -22.3125
Q33.1562 -22.4688 33.1719 -22.5781
Q33.2031 -22.7031 33.2031 -23
Q33.2031 -23.875 32.6094 -24.4375
Q32.0312 -25 31.2031 -25
Q29.7344 -25 29.3906 -23.7812" id="Cmsy10-68"/>
      <path d="
M5.60938 -23
Q5.60938 -22.7031 5.8125 -22.3125
L23.6875 25
L5.8125 72.3125
Q5.60938 72.7031 5.60938 73
Q5.60938 73.8281 6.14062 74.4062
Q6.6875 75 7.625 75
Q8.9375 75 9.51562 73.7812
L27.6875 25.7812
Q27.7344 25.5938 27.75 25.4375
Q27.7812 25.2969 27.7812 25
Q27.7812 24.75 27.75 24.6094
Q27.7344 24.4688 27.6875 24.3125
L9.51562 -23.7812
Q8.9375 -25 7.625 -25
Q6.78125 -25 6.1875 -24.4062
Q5.60938 -23.8281 5.60938 -23" id="Cmsy10-69"/>
      <path d="
M20.125 -1.125
Q15.375 -1.125 11.6875 1.125
Q8.01562 3.375 6 7.17188
Q4 10.9844 4 15.8281
Q4 22.6094 7.78125 29.25
Q11.5781 35.8906 17.8438 40.0312
Q24.125 44.1875 31 44.1875
Q36.0781 44.1875 39.9375 41.5312
Q43.7969 38.875 45.7969 34.4531
Q47.7969 30.0312 47.7969 25
L47.9062 18.3125
Q51.3125 23.0469 53.6875 28.1406
Q56.0625 33.25 57.3281 38.7188
Q57.5156 39.3125 58.1094 39.3125
L59.2812 39.3125
Q60.2031 39.3125 60.2031 38.375
Q60.2031 38.2812 60.1094 38.0938
Q58.9375 33.5 57.1719 29.2656
Q55.4219 25.0469 53.0469 21.0938
Q50.6875 17.1406 47.9062 13.9219
Q47.9062 1.51562 50.7812 1.51562
Q52.6406 1.51562 53.8281 2.60938
Q55.0312 3.71875 55.9375 5.32812
Q56.8438 6.9375 57.0781 6.98438
L58.2969 6.98438
Q59.0781 6.98438 59.0781 6
Q59.0781 3.51562 56.2188 1.1875
Q53.375 -1.125 50.5938 -1.125
Q46.9688 -1.125 44.5781 1.21875
Q42.1875 3.5625 41.3125 7.32812
Q36.625 3.32812 31.1562 1.09375
Q25.6875 -1.125 20.125 -1.125
M20.3125 1.51562
Q31 1.51562 40.8281 10.2969
Q40.7656 10.8906 40.6719 11.7344
Q40.5781 12.5938 40.5781 12.7031
L40.5781 23.4844
Q40.5781 41.6094 30.8125 41.6094
Q24.9531 41.6094 20.5469 36.5938
Q16.1562 31.5938 13.9375 24.625
Q11.7188 17.6719 11.7188 11.9219
Q11.7188 7.5625 13.9375 4.53125
Q16.1562 1.51562 20.3125 1.51562" id="Cmmi10-ae"/>
     </defs>
     <g transform="translate(14.278125 116.17)rotate(-90.0)scale(0.1 -0.1)">
      <use transform="translate(0.0 -7.274999999999999)scale(0.69696875)" xlink:href="#Cmsy10-68"/>
      <use transform="translate(27.051544189453125 0.8125)" xlink:href="#Cmmi10-ae"/>
      <use transform="translate(90.96755981445312 -24.696875000000006)scale(0.7)" xlink:href="#Cmr10-32"/>
      <use transform="translate(140.96755981445312 -7.274999999999999)scale(0.69696875)" xlink:href="#Cmsy10-69"/>
     </g>
    </g>
   </g>
   <g id="text_15">
    <!-- $\alpha_2$ of all trajectories -->
    <defs>
     <path d="
M56.2031 29.5938
L56.2031 25.2031
L14.8906 25.2031
Q15.4844 15.9219 20.4844 11.0625
Q25.4844 6.20312 34.4219 6.20312
Q39.5938 6.20312 44.4531 7.46875
Q49.3125 8.73438 54.1094 11.2812
L54.1094 2.78125
Q49.2656 0.734375 44.1875 -0.34375
Q39.1094 -1.42188 33.8906 -1.42188
Q20.7969 -1.42188 13.1562 6.1875
Q5.51562 13.8125 5.51562 26.8125
Q5.51562 40.2344 12.7656 48.1094
Q20.0156 56 32.3281 56
Q43.3594 56 49.7812 48.8906
Q56.2031 41.7969 56.2031 29.5938
M47.2188 32.2344
Q47.125 39.5938 43.0938 43.9844
Q39.0625 48.3906 32.4219 48.3906
Q24.9062 48.3906 20.3906 44.1406
Q15.875 39.8906 15.1875 32.1719
z
" id="BitstreamVeraSans-Roman-65"/>
     <path id="BitstreamVeraSans-Roman-20"/>
     <path d="
M18.3125 70.2188
L18.3125 54.6875
L36.8125 54.6875
L36.8125 47.7031
L18.3125 47.7031
L18.3125 18.0156
Q18.3125 11.3281 20.1406 9.42188
Q21.9688 7.51562 27.5938 7.51562
L36.8125 7.51562
L36.8125 0
L27.5938 0
Q17.1875 0 13.2344 3.875
Q9.28125 7.76562 9.28125 18.0156
L9.28125 47.7031
L2.6875 47.7031
L2.6875 54.6875
L9.28125 54.6875
L9.28125 70.2188
z
" id="BitstreamVeraSans-Roman-74"/>
     <path d="
M30.6094 48.3906
Q23.3906 48.3906 19.1875 42.75
Q14.9844 37.1094 14.9844 27.2969
Q14.9844 17.4844 19.1562 11.8438
Q23.3438 6.20312 30.6094 6.20312
Q37.7969 6.20312 41.9844 11.8594
Q46.1875 17.5312 46.1875 27.2969
Q46.1875 37.0156 41.9844 42.7031
Q37.7969 48.3906 30.6094 48.3906
M30.6094 56
Q42.3281 56 49.0156 48.375
Q55.7188 40.7656 55.7188 27.2969
Q55.7188 13.875 49.0156 6.21875
Q42.3281 -1.42188 30.6094 -1.42188
Q18.8438 -1.42188 12.1719 6.21875
Q5.51562 13.875 5.51562 27.2969
Q5.51562 40.7656 12.1719 48.375
Q18.8438 56 30.6094 56" id="BitstreamVeraSans-Roman-6f"/>
     <path d="
M9.42188 54.6875
L18.4062 54.6875
L18.4062 0
L9.42188 0
z

M9.42188 75.9844
L18.4062 75.9844
L18.4062 64.5938
L9.42188 64.5938
z
" id="BitstreamVeraSans-Roman-69"/>
     <path d="
M48.7812 52.5938
L48.7812 44.1875
Q44.9688 46.2969 41.1406 47.3438
Q37.3125 48.3906 33.4062 48.3906
Q24.6562 48.3906 19.8125 42.8438
Q14.9844 37.3125 14.9844 27.2969
Q14.9844 17.2812 19.8125 11.7344
Q24.6562 6.20312 33.4062 6.20312
Q37.3125 6.20312 41.1406 7.25
Q44.9688 8.29688 48.7812 10.4062
L48.7812 2.09375
Q45.0156 0.34375 40.9844 -0.53125
Q36.9688 -1.42188 32.4219 -1.42188
Q20.0625 -1.42188 12.7812 6.34375
Q5.51562 14.1094 5.51562 27.2969
Q5.51562 40.6719 12.8594 48.3281
Q20.2188 56 33.0156 56
Q37.1562 56 41.1094 55.1406
Q45.0625 54.2969 48.7812 52.5938" id="BitstreamVeraSans-Roman-63"/>
     <path d="
M44.2812 53.0781
L44.2812 44.5781
Q40.4844 46.5312 36.375 47.5
Q32.2812 48.4844 27.875 48.4844
Q21.1875 48.4844 17.8438 46.4375
Q14.5 44.3906 14.5 40.2812
Q14.5 37.1562 16.8906 35.375
Q19.2812 33.5938 26.5156 31.9844
L29.5938 31.2969
Q39.1562 29.25 43.1875 25.5156
Q47.2188 21.7812 47.2188 15.0938
Q47.2188 7.46875 41.1875 3.01562
Q35.1562 -1.42188 24.6094 -1.42188
Q20.2188 -1.42188 15.4531 -0.5625
Q10.6875 0.296875 5.42188 2
L5.42188 11.2812
Q10.4062 8.6875 15.2344 7.39062
Q20.0625 6.10938 24.8125 6.10938
Q31.1562 6.10938 34.5625 8.28125
Q37.9844 10.4531 37.9844 14.4062
Q37.9844 18.0625 35.5156 20.0156
Q33.0625 21.9688 24.7031 23.7812
L21.5781 24.5156
Q13.2344 26.2656 9.51562 29.9062
Q5.8125 33.5469 5.8125 39.8906
Q5.8125 47.6094 11.2812 51.7969
Q16.75 56 26.8125 56
Q31.7812 56 36.1719 55.2656
Q40.5781 54.5469 44.2812 53.0781" id="BitstreamVeraSans-Roman-73"/>
     <path d="
M9.42188 75.9844
L18.4062 75.9844
L18.4062 0
L9.42188 0
z
" id="BitstreamVeraSans-Roman-6c"/>
     <path d="
M34.2812 27.4844
Q23.3906 27.4844 19.1875 25
Q14.9844 22.5156 14.9844 16.5
Q14.9844 11.7188 18.1406 8.90625
Q21.2969 6.10938 26.7031 6.10938
Q34.1875 6.10938 38.7031 11.4062
Q43.2188 16.7031 43.2188 25.4844
L43.2188 27.4844
z

M52.2031 31.2031
L52.2031 0
L43.2188 0
L43.2188 8.29688
Q40.1406 3.32812 35.5469 0.953125
Q30.9531 -1.42188 24.3125 -1.42188
Q15.9219 -1.42188 10.9531 3.29688
Q6 8.01562 6 15.9219
Q6 25.1406 12.1719 29.8281
Q18.3594 34.5156 30.6094 34.5156
L43.2188 34.5156
L43.2188 35.4062
Q43.2188 41.6094 39.1406 45
Q35.0625 48.3906 27.6875 48.3906
Q23 48.3906 18.5469 47.2656
Q14.1094 46.1406 10.0156 43.8906
L10.0156 52.2031
Q14.9375 54.1094 19.5781 55.0469
Q24.2188 56 28.6094 56
Q40.4844 56 46.3438 49.8438
Q52.2031 43.7031 52.2031 31.2031" id="BitstreamVeraSans-Roman-61"/>
     <path d="
M41.1094 46.2969
Q39.5938 47.1719 37.8125 47.5781
Q36.0312 48 33.8906 48
Q26.2656 48 22.1875 43.0469
Q18.1094 38.0938 18.1094 28.8125
L18.1094 0
L9.07812 0
L9.07812 54.6875
L18.1094 54.6875
L18.1094 46.1875
Q20.9531 51.1719 25.4844 53.5781
Q30.0312 56 36.5312 56
Q37.4531 56 38.5781 55.875
Q39.7031 55.7656 41.0625 55.5156
z
" id="BitstreamVeraSans-Roman-72"/>
     <path d="
M9.42188 54.6875
L18.4062 54.6875
L18.4062 -0.984375
Q18.4062 -11.4219 14.4219 -16.1094
Q10.4531 -20.7969 1.60938 -20.7969
L-1.8125 -20.7969
L-1.8125 -13.1875
L0.59375 -13.1875
Q5.71875 -13.1875 7.5625 -10.8125
Q9.42188 -8.45312 9.42188 -0.984375
z

M9.42188 75.9844
L18.4062 75.9844
L18.4062 64.5938
L9.42188 64.5938
z
" id="BitstreamVeraSans-Roman-6a"/>
     <path d="
M37.1094 75.9844
L37.1094 68.5
L28.5156 68.5
Q23.6875 68.5 21.7969 66.5469
Q19.9219 64.5938 19.9219 59.5156
L19.9219 54.6875
L34.7188 54.6875
L34.7188 47.7031
L19.9219 47.7031
L19.9219 0
L10.8906 0
L10.8906 47.7031
L2.29688 47.7031
L2.29688 54.6875
L10.8906 54.6875
L10.8906 58.5
Q10.8906 67.625 15.1406 71.7969
Q19.3906 75.9844 28.6094 75.9844
z
" id="BitstreamVeraSans-Roman-66"/>
    </defs>
    <g transform="translate(89.02375 16.32)scale(0.12 -0.12)">
     <use transform="translate(0.0 0.015625)" xlink:href="#Cmmi10-ae"/>
     <use transform="translate(63.916015625 -25.493750000000006)scale(0.7)" xlink:href="#Cmr10-32"/>
     <use transform="translate(113.916015625 0.015625)" xlink:href="#BitstreamVeraSans-Roman-20"/>
     <use transform="translate(145.703125 0.015625)" xlink:href="#BitstreamVeraSans-Roman-6f"/>
     <use transform="translate(206.884765625 0.015625)" xlink:href="#BitstreamVeraSans-Roman-66"/>
     <use transform="translate(242.08984375 0.015625)" xlink:href="#BitstreamVeraSans-Roman-20"/>
     <use transform="translate(273.876953125 0.015625)" xlink:href="#BitstreamVeraSans-Roman-61"/>
     <use transform="translate(335.15625 0.015625)" xlink:href="#BitstreamVeraSans-Roman-6c"/>
     <use transform="translate(362.939453125 0.015625)" xlink:href="#BitstreamVeraSans-Roman-6c"/>
     <use transform="translate(390.72265625 0.015625)" xlink:href="#BitstreamVeraSans-Roman-20"/>
     <use transform="translate(422.509765625 0.015625)" xlink:href="#BitstreamVeraSans-Roman-74"/>
     <use transform="translate(461.71875 0.015625)" xlink:href="#BitstreamVeraSans-Roman-72"/>
     <use transform="translate(502.83203125 0.015625)" xlink:href="#BitstreamVeraSans-Roman-61"/>
     <use transform="translate(564.111328125 0.015625)" xlink:href="#BitstreamVeraSans-Roman-6a"/>
     <use transform="translate(591.89453125 0.015625)" xlink:href="#BitstreamVeraSans-Roman-65"/>
     <use transform="translate(653.41796875 0.015625)" xlink:href="#BitstreamVeraSans-Roman-63"/>
     <use transform="translate(708.3984375 0.015625)" xlink:href="#BitstreamVeraSans-Roman-74"/>
     <use transform="translate(747.607421875 0.015625)" xlink:href="#BitstreamVeraSans-Roman-6f"/>
     <use transform="translate(808.7890625 0.015625)" xlink:href="#BitstreamVeraSans-Roman-72"/>
     <use transform="translate(849.90234375 0.015625)" xlink:href="#BitstreamVeraSans-Roman-69"/>
     <use transform="translate(877.685546875 0.015625)" xlink:href="#BitstreamVeraSans-Roman-65"/>
     <use transform="translate(939.208984375 0.015625)" xlink:href="#BitstreamVeraSans-Roman-73"/>
    </g>
   </g>
  </g>
 </g>
 <defs>
  <clipPath id="pf39aa6504d">
   <rect height="172.8" width="223.2" x="36.94375" y="21.32"/>
  </clipPath>
 </defs>
</svg>
