<?xml version="1.0" encoding="utf-8" standalone="no"?>
<!DOCTYPE svg PUBLIC "-//W3C//DTD SVG 1.1//EN"
  "http://www.w3.org/Graphics/SVG/1.1/DTD/svg11.dtd">
<!-- Created with matplotlib (http://matplotlib.org/) -->
<svg height="230pt" version="1.1" viewBox="0 0 262 230" width="262pt" xmlns="http://www.w3.org/2000/svg" xmlns:xlink="http://www.w3.org/1999/xlink">
 <defs>
  <style type="text/css">
*{stroke-linecap:butt;stroke-linejoin:round;stroke-miterlimit:100000;}
  </style>
 </defs>
 <g id="figure_1">
  <g id="patch_1">
   <path d="M 0 230.578125 
L 262.640625 230.578125 
L 262.640625 0 
L 0 0 
z
" style="fill:#ffffff;"/>
  </g>
  <g id="axes_1">
   <g id="patch_2">
    <path d="M 32.240625 194 
L 255.440625 194 
L 255.440625 21.2 
L 32.240625 21.2 
z
" style="fill:#ffffff;"/>
   </g>
   <g id="line2d_1">
    <path clip-path="url(#pca945c10e0)" d="M 32.240625 184.095886 
L 44.030456 184.341804 
L 50.927066 184.485039 
L 55.820288 184.525322 
L 59.615766 184.42518 
L 62.716897 184.287325 
L 65.338866 184.489443 
L 67.610119 184.542835 
L 69.613506 184.566263 
L 71.405597 184.380956 
L 73.02674 184.255202 
L 75.868185 183.801679 
L 77.128697 183.862897 
L 79.39995 183.956552 
L 81.403337 183.824153 
L 84.025307 183.899799 
L 86.296559 183.602223 
L 88.299947 183.883403 
L 90.092037 183.788977 
L 92.220954 183.299498 
L 94.112805 183.850568 
L 96.215371 183.302541 
L 98.437107 183.293771 
L 100.401881 183.169533 
L 102.439595 182.437315 
L 104.503838 183.376313 
L 106.561137 183.717086 
L 108.778478 183.385292 
L 110.739815 184.105626 
L 112.799246 184.12731 
L 114.901812 184.359747 
L 117.007444 184.148879 
L 119.088321 183.785724 
L 121.126036 184.866356 
L 123.190278 184.025107 
L 125.247577 183.993282 
L 127.338456 184.629115 
L 129.370027 184.327728 
L 131.435879 183.632777 
L 133.500122 182.496392 
L 135.576983 182.511673 
L 137.636756 183.695603 
L 139.720783 182.771517 
L 141.76838 183.261928 
L 143.838056 183.422477 
L 145.897487 183.278476 
L 147.981206 182.880361 
L 150.038982 182.8499 
L 152.11277 183.800818 
L 154.171941 183.910687 
L 156.242173 183.676585 
L 158.304758 183.361141 
L 160.373111 183.574894 
L 162.444113 182.952592 
L 164.505593 182.393658 
L 166.573099 182.501295 
L 168.641675 184.449537 
L 170.705278 183.163817 
L 172.775186 184.047595 
L 174.839428 183.983499 
L 176.90878 183.619835 
L 178.9744 184.374064 
L 181.041691 183.302339 
L 183.106165 182.75857 
L 185.172935 183.775816 
L 187.240203 184.632726 
L 189.307232 182.858628 
L 191.37361 184.526764 
L 193.440121 183.83127 
L 195.507787 183.838796 
L 197.574238 182.693218 
L 199.640611 182.831746 
L 201.707102 184.242682 
L 203.773748 183.552583 
L 205.840788 183.929332 
L 207.907095 184.303451 
L 209.97404 183.743826 
L 212.040816 184.293459 
L 214.107116 184.361675 
L 216.173975 183.478472 
L 218.240594 183.426375 
L 220.307339 183.614738 
L 222.37389 183.306646 
L 224.440726 183.763805 
L 226.50726 183.468297 
L 228.574033 183.742082 
L 230.640638 184.062695 
L 232.707291 184.29208 
L 234.773957 183.732292 
L 236.840643 183.900257 
L 238.907317 183.295647 
L 240.97399 184.072769 
L 243.040646 183.194293 
L 245.107298 182.874652 
L 247.173971 184.989347 
L 249.240605 184.657611 
L 251.307287 183.889598 
L 253.373957 184.038726 
L 255.440625 184.68512 
" style="fill:none;stroke:#4daf4a;stroke-linecap:square;stroke-width:2.0;"/>
   </g>
   <g id="line2d_2">
    <path clip-path="url(#pca945c10e0)" d="M 32.240625 182.735682 
L 44.030456 182.832343 
L 50.927066 182.477811 
L 55.820288 182.590262 
L 59.615766 182.586654 
L 62.716897 182.403322 
L 65.338866 182.172864 
L 67.610119 181.933155 
L 69.613506 181.592909 
L 71.405597 181.613215 
L 73.02674 181.717613 
L 75.868185 182.020404 
L 77.128697 182.035702 
L 79.39995 181.944953 
L 81.403337 181.994989 
L 84.025307 182.206937 
L 86.296559 181.613344 
L 88.299947 181.604044 
L 90.092037 181.731103 
L 92.220954 181.723203 
L 94.112805 181.610236 
L 96.215371 181.613618 
L 98.437107 181.509647 
L 100.401881 180.893371 
L 102.439595 181.453778 
L 104.503838 180.706436 
L 106.561137 180.745227 
L 108.778478 180.617007 
L 110.739815 181.553674 
L 112.799246 181.568084 
L 114.901812 181.303465 
L 117.007444 182.705706 
L 119.088321 182.041457 
L 121.126036 180.573231 
L 123.190278 181.238613 
L 125.247577 180.859945 
L 127.338456 181.528168 
L 129.370027 180.538626 
L 131.435879 181.159843 
L 133.500122 181.244998 
L 135.576983 180.035002 
L 137.636756 180.782519 
L 139.720783 180.771487 
L 141.76838 179.792525 
L 143.838056 180.070574 
L 145.897487 179.466299 
L 147.981206 180.165418 
L 150.038982 180.811455 
L 152.11277 180.318626 
L 154.171941 180.133819 
L 156.242173 179.846776 
L 158.304758 179.236897 
L 160.373111 182.054399 
L 162.444113 180.471461 
L 164.505593 178.977242 
L 166.573099 179.132379 
L 168.641675 181.421804 
L 170.705278 180.6916 
L 172.775186 181.632125 
L 174.839428 179.822651 
L 176.90878 179.267659 
L 178.9744 180.321437 
L 181.041691 180.845423 
L 183.106165 179.993549 
L 185.172935 182.239022 
L 187.240203 179.408572 
L 189.307232 180.649256 
L 191.37361 179.781849 
L 193.440121 180.633766 
L 195.507787 179.804668 
L 197.574238 181.148944 
L 199.640611 180.615626 
L 201.707102 180.89288 
L 203.773748 179.685879 
L 205.840788 180.700787 
L 207.907095 179.479696 
L 209.97404 180.337666 
L 212.040816 181.380189 
L 214.107116 179.933428 
L 216.173975 180.495039 
L 218.240594 180.03775 
L 220.307339 180.337955 
L 222.37389 179.917932 
L 224.440726 179.463757 
L 226.50726 180.904829 
L 228.574033 180.824368 
L 230.640638 179.623286 
L 232.707291 179.856465 
L 234.773957 181.432622 
L 236.840643 180.713673 
L 238.907317 180.359874 
L 240.97399 180.73558 
L 243.040646 178.975112 
L 245.107298 181.201957 
L 247.173971 179.635572 
L 249.240605 179.772462 
L 251.307287 180.5222 
L 253.373957 180.243745 
L 255.440625 179.710416 
" style="fill:none;stroke:#49a65f;stroke-linecap:square;stroke-width:2.0;"/>
   </g>
   <g id="line2d_3">
    <path clip-path="url(#pca945c10e0)" d="M 32.240625 181.210224 
L 44.030456 181.116568 
L 50.927066 180.662092 
L 55.820288 180.186894 
L 59.615766 180.36679 
L 62.716897 179.856776 
L 65.338866 179.732641 
L 67.610119 179.766099 
L 69.613506 179.900077 
L 71.405597 180.309062 
L 73.02674 179.762617 
L 75.868185 179.516605 
L 77.128697 179.850754 
L 79.39995 178.92393 
L 81.403337 178.736753 
L 84.025307 178.476801 
L 86.296559 178.610529 
L 88.299947 178.81811 
L 90.092037 178.30036 
L 92.220954 178.880913 
L 94.112805 178.97104 
L 96.215371 178.74497 
L 98.437107 178.317225 
L 100.401881 178.146338 
L 102.439595 177.804745 
L 104.503838 178.191627 
L 106.561137 177.666288 
L 108.778478 178.455496 
L 110.739815 178.012546 
L 112.799246 177.778184 
L 114.901812 176.377464 
L 117.007444 176.765623 
L 119.088321 177.313128 
L 121.126036 178.665195 
L 123.190278 177.479986 
L 125.247577 176.514206 
L 127.338456 176.03575 
L 129.370027 175.302439 
L 131.435879 173.472718 
L 133.500122 175.886182 
L 135.576983 174.528536 
L 137.636756 174.018645 
L 139.720783 173.86689 
L 141.76838 174.361691 
L 143.838056 175.859641 
L 145.897487 174.661361 
L 147.981206 175.315013 
L 150.038982 175.268394 
L 152.11277 173.846836 
L 154.171941 174.303038 
L 156.242173 173.772661 
L 158.304758 174.431043 
L 160.373111 172.61338 
L 162.444113 173.295964 
L 164.505593 173.320958 
L 166.573099 174.377624 
L 168.641675 173.363145 
L 170.705278 173.430455 
L 172.775186 175.503342 
L 174.839428 173.742346 
L 176.90878 174.342568 
L 178.9744 174.253643 
L 181.041691 171.302098 
L 183.106165 172.763275 
L 185.172935 174.622947 
L 187.240203 173.71914 
L 189.307232 173.513417 
L 191.37361 171.877176 
L 193.440121 173.711931 
L 195.507787 174.487819 
L 197.574238 171.980333 
L 199.640611 173.711013 
L 201.707102 170.374101 
L 203.773748 173.60321 
L 205.840788 170.07372 
L 207.907095 173.404664 
L 209.97404 174.682125 
L 212.040816 174.754857 
L 214.107116 173.62516 
L 216.173975 173.770076 
L 218.240594 173.85057 
L 220.307339 173.888685 
L 222.37389 171.650491 
L 224.440726 173.812444 
L 226.50726 173.718903 
L 228.574033 173.963742 
L 230.640638 172.707881 
L 232.707291 175.606958 
L 234.773957 172.758054 
L 236.840643 175.481269 
L 238.907317 171.744337 
L 240.97399 174.486899 
L 243.040646 173.569992 
L 245.107298 172.535401 
L 247.173971 173.098335 
L 249.240605 173.2316 
L 251.307287 174.822987 
L 253.373957 172.742159 
L 255.440625 173.596003 
" style="fill:none;stroke:#459d73;stroke-linecap:square;stroke-width:2.0;"/>
   </g>
   <g id="line2d_4">
    <path clip-path="url(#pca945c10e0)" d="M 32.240625 180.760454 
L 44.030456 180.89614 
L 50.927066 180.474666 
L 55.820288 180.22328 
L 59.615766 180.252798 
L 62.716897 180.14342 
L 65.338866 179.451694 
L 67.610119 179.032152 
L 69.613506 178.851002 
L 71.405597 179.03551 
L 73.02674 178.597256 
L 75.868185 177.924874 
L 77.128697 178.121984 
L 79.39995 177.854465 
L 81.403337 177.852884 
L 84.025307 176.597875 
L 86.296559 177.17567 
L 88.299947 177.658894 
L 90.092037 177.379368 
L 92.220954 177.501914 
L 94.112805 177.286021 
L 96.215371 177.095694 
L 98.437107 176.649773 
L 100.401881 177.250032 
L 102.439595 177.206202 
L 104.503838 176.632996 
L 106.561137 176.230805 
L 108.778478 176.755976 
L 110.739815 176.380266 
L 112.799246 175.466636 
L 114.901812 175.03209 
L 117.007444 173.767485 
L 119.088321 173.599443 
L 121.126036 174.353877 
L 123.190278 173.378923 
L 125.247577 173.230575 
L 127.338456 171.19004 
L 129.370027 171.434831 
L 131.435879 170.736278 
L 133.500122 172.600626 
L 135.576983 173.055014 
L 137.636756 171.58329 
L 139.720783 172.232361 
L 141.76838 171.299278 
L 143.838056 170.674547 
L 145.897487 171.395156 
L 147.981206 170.608499 
L 150.038982 168.504461 
L 152.11277 168.737239 
L 154.171941 171.318238 
L 156.242173 170.39017 
L 158.304758 169.628493 
L 160.373111 169.595295 
L 162.444113 169.235839 
L 164.505593 169.422747 
L 166.573099 168.517213 
L 168.641675 170.617945 
L 170.705278 165.745803 
L 172.775186 168.160097 
L 174.839428 168.924182 
L 176.90878 166.964889 
L 178.9744 167.54643 
L 181.041691 168.335695 
L 183.106165 166.947311 
L 185.172935 167.397966 
L 187.240203 168.323719 
L 189.307232 168.128036 
L 191.37361 170.061673 
L 193.440121 166.987801 
L 195.507787 167.783499 
L 197.574238 167.317974 
L 199.640611 170.828888 
L 201.707102 170.056387 
L 203.773748 166.653554 
L 205.840788 164.433769 
L 207.907095 165.409384 
L 209.97404 166.797607 
L 212.040816 167.749409 
L 214.107116 167.442855 
L 216.173975 166.676024 
L 218.240594 163.772593 
L 220.307339 168.18032 
L 222.37389 166.386089 
L 224.440726 167.29258 
L 226.50726 168.749218 
L 228.574033 164.509538 
L 230.640638 167.523643 
L 232.707291 169.12599 
L 234.773957 168.076744 
L 236.840643 168.944759 
L 238.907317 167.279781 
L 240.97399 166.384428 
L 243.040646 168.382126 
L 245.107298 168.924828 
L 247.173971 168.336883 
L 249.240605 167.896989 
L 251.307287 166.385948 
L 253.373957 168.726588 
L 255.440625 171.210609 
" style="fill:none;stroke:#419388;stroke-linecap:square;stroke-width:2.0;"/>
   </g>
   <g id="line2d_5">
    <path clip-path="url(#pca945c10e0)" d="M 32.240625 180.801962 
L 44.030456 180.488261 
L 50.927066 180.427228 
L 55.820288 180.599954 
L 59.615766 180.663978 
L 62.716897 180.309857 
L 65.338866 180.063881 
L 67.610119 179.820829 
L 69.613506 179.811868 
L 71.405597 179.766244 
L 73.02674 179.837687 
L 75.868185 179.277576 
L 77.128697 179.321854 
L 79.39995 179.41444 
L 81.403337 178.820708 
L 84.025307 178.03942 
L 86.296559 177.735705 
L 88.299947 178.291176 
L 90.092037 177.437177 
L 92.220954 176.571999 
L 94.112805 176.769904 
L 96.215371 176.993843 
L 98.437107 175.440808 
L 100.401881 176.464473 
L 102.439595 176.131951 
L 104.503838 175.615978 
L 106.561137 175.299494 
L 108.778478 174.437457 
L 110.739815 175.228813 
L 112.799246 175.137459 
L 114.901812 173.286664 
L 117.007444 174.733646 
L 119.088321 173.674046 
L 121.126036 173.07314 
L 123.190278 172.48682 
L 125.247577 171.867013 
L 127.338456 170.84848 
L 129.370027 172.446287 
L 131.435879 170.493052 
L 133.500122 170.94476 
L 135.576983 170.103146 
L 137.636756 168.039773 
L 139.720783 165.573435 
L 141.76838 167.201731 
L 143.838056 164.342351 
L 145.897487 166.956532 
L 147.981206 169.375418 
L 150.038982 168.104261 
L 152.11277 165.820723 
L 154.171941 165.226035 
L 156.242173 165.293119 
L 158.304758 163.091887 
L 160.373111 164.613389 
L 162.444113 161.461329 
L 164.505593 165.157724 
L 166.573099 162.894188 
L 168.641675 162.529538 
L 170.705278 161.177535 
L 172.775186 160.319104 
L 174.839428 161.373487 
L 176.90878 160.25677 
L 178.9744 161.579744 
L 181.041691 155.486371 
L 183.106165 159.163831 
L 185.172935 160.063723 
L 187.240203 158.503875 
L 189.307232 158.674428 
L 191.37361 158.223687 
L 193.440121 160.399728 
L 195.507787 160.050962 
L 197.574238 157.724807 
L 199.640611 160.35811 
L 201.707102 158.361967 
L 203.773748 160.029981 
L 205.840788 159.164586 
L 207.907095 161.295294 
L 209.97404 156.821647 
L 212.040816 159.007496 
L 214.107116 155.451335 
L 216.173975 155.357686 
L 218.240594 158.838471 
L 220.307339 162.650585 
L 222.37389 152.631625 
L 224.440726 158.866495 
L 226.50726 163.978358 
L 228.574033 157.189361 
L 230.640638 157.148346 
L 232.707291 157.393304 
L 234.773957 157.156623 
L 236.840643 159.705641 
L 238.907317 158.563257 
L 240.97399 158.440252 
L 243.040646 159.618544 
L 245.107298 153.348983 
L 247.173971 156.347334 
L 249.240605 153.740073 
L 251.307287 157.052108 
L 253.373957 154.868596 
L 255.440625 161.676161 
" style="fill:none;stroke:#3c8a9d;stroke-linecap:square;stroke-width:2.0;"/>
   </g>
   <g id="line2d_6">
    <path clip-path="url(#pca945c10e0)" d="M 32.240625 179.205626 
L 44.030456 178.812289 
L 50.927066 178.433067 
L 55.820288 178.420127 
L 59.615766 178.344603 
L 62.716897 177.797139 
L 65.338866 177.12793 
L 67.610119 176.958368 
L 69.613506 176.78669 
L 71.405597 176.756206 
L 73.02674 176.698491 
L 75.868185 177.052692 
L 77.128697 176.898785 
L 79.39995 176.828763 
L 81.403337 176.569236 
L 84.025307 176.37505 
L 86.296559 175.468183 
L 88.299947 175.335266 
L 90.092037 175.400376 
L 92.220954 175.844805 
L 94.112805 175.252222 
L 96.215371 174.643322 
L 98.437107 175.191045 
L 100.401881 174.153642 
L 102.439595 174.269725 
L 104.503838 173.26272 
L 106.561137 173.473743 
L 108.778478 173.164173 
L 110.739815 173.956513 
L 112.799246 173.562183 
L 114.901812 172.78685 
L 117.007444 171.322531 
L 119.088321 170.53131 
L 121.126036 171.493897 
L 123.190278 171.007098 
L 125.247577 170.195184 
L 127.338456 169.394363 
L 129.370027 169.726835 
L 131.435879 167.362001 
L 133.500122 168.654132 
L 135.576983 168.531908 
L 137.636756 170.694696 
L 139.720783 169.926998 
L 141.76838 169.14702 
L 143.838056 167.075605 
L 145.897487 165.788275 
L 147.981206 163.870254 
L 150.038982 161.359883 
L 152.11277 162.248253 
L 154.171941 161.776637 
L 156.242173 159.912356 
L 158.304758 159.794135 
L 160.373111 161.29325 
L 162.444113 157.605612 
L 164.505593 162.821566 
L 166.573099 161.199636 
L 168.641675 155.513865 
L 170.705278 161.435027 
L 172.775186 155.466645 
L 174.839428 154.860133 
L 176.90878 149.081017 
L 178.9744 157.661301 
L 181.041691 157.379305 
L 183.106165 156.150306 
L 185.172935 155.662901 
L 187.240203 156.781362 
L 189.307232 148.691494 
L 191.37361 154.090108 
L 193.440121 150.152238 
L 195.507787 147.218838 
L 197.574238 151.768191 
L 199.640611 147.363083 
L 201.707102 148.663113 
L 203.773748 147.428234 
L 205.840788 150.016479 
L 207.907095 152.848055 
L 209.97404 147.309726 
L 212.040816 145.375576 
L 214.107116 146.077351 
L 216.173975 143.057966 
L 218.240594 146.637081 
L 220.307339 145.422318 
L 222.37389 149.246341 
L 224.440726 146.145179 
L 226.50726 146.766689 
L 228.574033 144.054208 
L 230.640638 149.590796 
L 232.707291 146.525622 
L 234.773957 143.947973 
L 236.840643 144.334514 
L 238.907317 141.828751 
L 240.97399 142.678638 
L 243.040646 144.732538 
L 245.107298 143.92388 
L 247.173971 138.320484 
L 249.240605 145.101296 
L 251.307287 140.542356 
L 253.373957 140.386804 
L 255.440625 145.775471 
" style="fill:none;stroke:#4577b5;stroke-linecap:square;stroke-width:2.0;"/>
   </g>
   <g id="line2d_7">
    <path clip-path="url(#pca945c10e0)" d="M 32.240625 180.51056 
L 44.030456 179.909185 
L 50.927066 179.190567 
L 55.820288 178.59324 
L 59.615766 178.354312 
L 62.716897 177.974796 
L 65.338866 177.665776 
L 67.610119 177.408434 
L 69.613506 176.831243 
L 71.405597 177.321962 
L 73.02674 177.35699 
L 75.868185 177.150449 
L 77.128697 177.281079 
L 79.39995 176.699423 
L 81.403337 176.763348 
L 84.025307 176.41338 
L 86.296559 176.378092 
L 88.299947 175.40257 
L 90.092037 174.617007 
L 92.220954 174.778288 
L 94.112805 174.205149 
L 96.215371 173.663465 
L 98.437107 173.935223 
L 100.401881 172.518185 
L 102.439595 172.386771 
L 104.503838 172.55723 
L 106.561137 172.212077 
L 108.778478 172.795634 
L 110.739815 172.049176 
L 112.799246 171.006918 
L 114.901812 168.753835 
L 117.007444 170.953769 
L 119.088321 169.062772 
L 121.126036 168.563781 
L 123.190278 167.335936 
L 125.247577 167.605617 
L 127.338456 166.063213 
L 129.370027 166.459251 
L 131.435879 164.699994 
L 133.500122 165.428176 
L 135.576983 165.206586 
L 137.636756 164.034693 
L 139.720783 162.746422 
L 141.76838 161.001724 
L 143.838056 163.676129 
L 145.897487 163.386983 
L 147.981206 162.670374 
L 150.038982 161.419794 
L 152.11277 164.14492 
L 154.171941 160.323823 
L 156.242173 160.324663 
L 158.304758 156.01617 
L 160.373111 156.401329 
L 162.444113 153.628985 
L 164.505593 155.86249 
L 166.573099 155.03345 
L 168.641675 155.119077 
L 170.705278 153.571698 
L 172.775186 153.133882 
L 174.839428 151.463161 
L 176.90878 144.207277 
L 178.9744 151.576106 
L 181.041691 148.417292 
L 183.106165 140.822896 
L 185.172935 148.060905 
L 187.240203 143.819303 
L 189.307232 140.455657 
L 191.37361 142.606008 
L 193.440121 143.471098 
L 195.507787 145.145604 
L 197.574238 137.656392 
L 199.640611 142.000415 
L 201.707102 139.76854 
L 203.773748 134.187369 
L 205.840788 134.312717 
L 207.907095 129.883655 
L 209.97404 137.088454 
L 212.040816 131.726843 
L 214.107116 128.738414 
L 216.173975 130.037543 
L 218.240594 126.358471 
L 220.307339 133.055303 
L 222.37389 126.368259 
L 224.440726 125.890319 
L 226.50726 132.528478 
L 228.574033 121.722713 
L 230.640638 129.663204 
L 232.707291 128.338296 
L 234.773957 126.525414 
L 236.840643 127.753015 
L 238.907317 127.926118 
L 240.97399 115.871901 
L 243.040646 124.935606 
L 245.107298 118.996604 
L 247.173971 120.182334 
L 249.240605 117.138416 
L 251.307287 125.366495 
L 253.373957 126.228438 
L 255.440625 121.235578 
" style="fill:none;stroke:#a04995;stroke-linecap:square;stroke-width:2.0;"/>
   </g>
   <g id="line2d_8">
    <path clip-path="url(#pca945c10e0)" d="M 32.240625 177.082267 
L 44.030456 176.757755 
L 50.927066 176.657608 
L 55.820288 176.879291 
L 59.615766 176.450066 
L 62.716897 176.399846 
L 65.338866 175.91529 
L 67.610119 175.78069 
L 69.613506 175.935301 
L 71.405597 175.391319 
L 73.02674 175.343918 
L 75.868185 175.002371 
L 77.128697 174.534961 
L 79.39995 174.191462 
L 81.403337 173.597567 
L 84.025307 173.386368 
L 86.296559 173.43643 
L 88.299947 174.071832 
L 90.092037 174.536747 
L 92.220954 172.627845 
L 94.112805 172.582322 
L 96.215371 172.587278 
L 98.437107 171.880689 
L 100.401881 171.764129 
L 102.439595 170.990115 
L 104.503838 170.220552 
L 106.561137 168.701027 
L 108.778478 169.005433 
L 110.739815 165.140182 
L 112.799246 167.667454 
L 114.901812 166.481777 
L 117.007444 166.665086 
L 119.088321 165.408797 
L 121.126036 164.453158 
L 123.190278 165.045053 
L 125.247577 163.587832 
L 127.338456 162.077797 
L 129.370027 160.880043 
L 131.435879 159.750397 
L 133.500122 160.571544 
L 135.576983 163.908986 
L 137.636756 162.002196 
L 139.720783 161.975739 
L 141.76838 164.231146 
L 143.838056 162.013686 
L 145.897487 162.636076 
L 147.981206 159.805883 
L 150.038982 154.848105 
L 152.11277 156.528794 
L 154.171941 154.41605 
L 156.242173 154.289496 
L 158.304758 151.522107 
L 160.373111 149.574877 
L 162.444113 147.661177 
L 164.505593 147.3972 
L 166.573099 147.534164 
L 168.641675 147.011348 
L 170.705278 149.787913 
L 172.775186 147.78476 
L 174.839428 142.355481 
L 176.90878 141.153374 
L 178.9744 137.723272 
L 181.041691 134.865936 
L 183.106165 140.757302 
L 185.172935 138.829443 
L 187.240203 131.985169 
L 189.307232 134.823396 
L 191.37361 134.245071 
L 193.440121 141.047947 
L 195.507787 131.412568 
L 197.574238 133.545137 
L 199.640611 128.291911 
L 201.707102 125.412234 
L 203.773748 120.338203 
L 205.840788 129.312462 
L 207.907095 134.330287 
L 209.97404 131.341278 
L 212.040816 130.403288 
L 214.107116 118.996158 
L 216.173975 124.140784 
L 218.240594 123.519672 
L 220.307339 124.880167 
L 222.37389 122.243511 
L 224.440726 117.63833 
L 226.50726 103.773015 
L 228.574033 111.432744 
L 230.640638 118.405121 
L 232.707291 108.958795 
L 234.773957 111.342263 
L 236.840643 118.039484 
L 238.907317 110.369202 
L 240.97399 111.273032 
L 243.040646 110.575097 
L 245.107298 98.063209 
L 247.173971 102.215795 
L 249.240605 115.963778 
L 251.307287 113.017309 
L 253.373957 99.830427 
L 255.440625 110.411436 
" style="fill:none;stroke:#e6201a;stroke-linecap:square;stroke-width:2.0;"/>
   </g>
   <g id="line2d_9">
    <path clip-path="url(#pca945c10e0)" d="M 32.240625 177.243535 
L 44.030456 176.890285 
L 50.927066 176.302803 
L 55.820288 176.147024 
L 59.615766 176.187745 
L 62.716897 176.181569 
L 65.338866 175.646691 
L 67.610119 175.699315 
L 69.613506 175.541856 
L 71.405597 175.271435 
L 73.02674 174.993703 
L 75.868185 174.678655 
L 77.128697 174.635207 
L 79.39995 173.935568 
L 81.403337 173.696093 
L 84.025307 174.418879 
L 86.296559 174.027083 
L 88.299947 173.696653 
L 90.092037 173.311537 
L 92.220954 173.027946 
L 94.112805 172.951166 
L 96.215371 171.42235 
L 98.437107 170.875047 
L 100.401881 169.699033 
L 102.439595 169.529196 
L 104.503838 169.927915 
L 106.561137 168.850113 
L 108.778478 167.395977 
L 110.739815 168.265059 
L 112.799246 167.759844 
L 114.901812 165.905708 
L 117.007444 166.085133 
L 119.088321 166.044118 
L 121.126036 166.35043 
L 123.190278 166.217697 
L 125.247577 163.907243 
L 127.338456 161.641556 
L 129.370027 162.173193 
L 131.435879 160.155918 
L 133.500122 157.889798 
L 135.576983 158.190814 
L 137.636756 157.973917 
L 139.720783 154.295519 
L 141.76838 156.141347 
L 143.838056 153.764168 
L 145.897487 152.394772 
L 147.981206 149.910954 
L 150.038982 147.44255 
L 152.11277 146.155429 
L 154.171941 149.690317 
L 156.242173 144.795319 
L 158.304758 146.261226 
L 160.373111 146.942007 
L 162.444113 148.038811 
L 164.505593 146.519637 
L 166.573099 141.520749 
L 168.641675 142.539717 
L 170.705278 141.730462 
L 172.775186 138.19818 
L 174.839428 137.134784 
L 176.90878 135.977038 
L 178.9744 129.876883 
L 181.041691 125.997897 
L 183.106165 126.895224 
L 185.172935 130.480816 
L 187.240203 122.581392 
L 189.307232 122.417547 
L 191.37361 109.543077 
L 193.440121 127.653316 
L 195.507787 97.634797 
L 197.574238 132.832146 
L 199.640611 123.102184 
L 201.707102 125.491519 
L 203.773748 119.044604 
L 205.840788 110.704272 
L 207.907095 110.988384 
L 209.97404 104.118809 
L 212.040816 102.075368 
L 214.107116 106.106595 
L 216.173975 120.648731 
L 218.240594 104.488095 
L 220.307339 109.989453 
L 222.37389 117.901207 
L 224.440726 106.145192 
L 226.50726 90.79042 
L 228.574033 89.601686 
L 230.640638 87.503724 
L 232.707291 102.419942 
L 234.773957 78.812291 
L 236.840643 48.713174 
L 238.907317 87.217757 
L 240.97399 97.003755 
L 243.040646 82.003097 
L 245.107298 25.005429 
L 247.173971 77.522713 
L 249.240605 71.72846 
L 250.152227 -1 
M 252.580026 -1 
L 253.373957 56.482726 
L 255.440625 69.803449 
" style="fill:none;stroke:#ff7f00;stroke-linecap:square;stroke-width:2.0;"/>
   </g>
   <g id="patch_3">
    <path d="M 32.240625 194 
L 32.240625 21.2 
" style="fill:none;stroke:#000000;stroke-linecap:square;stroke-linejoin:miter;"/>
   </g>
   <g id="patch_4">
    <path d="M 32.240625 194 
L 255.440625 194 
" style="fill:none;stroke:#000000;stroke-linecap:square;stroke-linejoin:miter;"/>
   </g>
   <g id="patch_5">
    <path d="M 255.440625 194 
L 255.440625 21.2 
" style="fill:none;stroke:#000000;stroke-linecap:square;stroke-linejoin:miter;"/>
   </g>
   <g id="patch_6">
    <path d="M 32.240625 21.2 
L 255.440625 21.2 
" style="fill:none;stroke:#000000;stroke-linecap:square;stroke-linejoin:miter;"/>
   </g>
   <g id="matplotlib.axis_1">
    <g id="xtick_1">
     <g id="line2d_10">
      <defs>
       <path d="M 0 0 
L 0 -4 
" id="ma25d855d28" style="stroke:#000000;stroke-width:0.5;"/>
      </defs>
      <g>
       <use style="stroke:#000000;stroke-width:0.5;" x="32.240625" xlink:href="#ma25d855d28" y="194.0"/>
      </g>
     </g>
     <g id="line2d_11">
      <defs>
       <path d="M 0 0 
L 0 4 
" id="m35914e99c6" style="stroke:#000000;stroke-width:0.5;"/>
      </defs>
      <g>
       <use style="stroke:#000000;stroke-width:0.5;" x="32.240625" xlink:href="#m35914e99c6" y="21.2"/>
      </g>
     </g>
     <g id="text_1">
      <!-- $\mathdefault{10^{-1}}$ -->
      <defs>
       <path d="M 4.890625 31.390625 
L 31.203125 31.390625 
L 31.203125 23.390625 
L 4.890625 23.390625 
z
" id="BitstreamVeraSans-Roman-2d"/>
       <path d="M 31.78125 66.40625 
Q 24.171875 66.40625 20.328125 58.90625 
Q 16.5 51.421875 16.5 36.375 
Q 16.5 21.390625 20.328125 13.890625 
Q 24.171875 6.390625 31.78125 6.390625 
Q 39.453125 6.390625 43.28125 13.890625 
Q 47.125 21.390625 47.125 36.375 
Q 47.125 51.421875 43.28125 58.90625 
Q 39.453125 66.40625 31.78125 66.40625 
M 31.78125 74.21875 
Q 44.046875 74.21875 50.515625 64.515625 
Q 56.984375 54.828125 56.984375 36.375 
Q 56.984375 17.96875 50.515625 8.265625 
Q 44.046875 -1.421875 31.78125 -1.421875 
Q 19.53125 -1.421875 13.0625 8.265625 
Q 6.59375 17.96875 6.59375 36.375 
Q 6.59375 54.828125 13.0625 64.515625 
Q 19.53125 74.21875 31.78125 74.21875 
" id="BitstreamVeraSans-Roman-30"/>
       <path d="M 12.40625 8.296875 
L 28.515625 8.296875 
L 28.515625 63.921875 
L 10.984375 60.40625 
L 10.984375 69.390625 
L 28.421875 72.90625 
L 38.28125 72.90625 
L 38.28125 8.296875 
L 54.390625 8.296875 
L 54.390625 0 
L 12.40625 0 
z
" id="BitstreamVeraSans-Roman-31"/>
      </defs>
      <g transform="translate(22.340625 206.5203125)scale(0.1 -0.1)">
       <use transform="translate(0.0 0.46562500000000284)" xlink:href="#BitstreamVeraSans-Roman-31"/>
       <use transform="translate(63.623046875 0.46562500000000284)" xlink:href="#BitstreamVeraSans-Roman-30"/>
       <use transform="translate(127.24609375 52.965625)scale(0.7)" xlink:href="#BitstreamVeraSans-Roman-2d"/>
       <use transform="translate(152.5048828125 52.965625)scale(0.7)" xlink:href="#BitstreamVeraSans-Roman-31"/>
      </g>
     </g>
    </g>
    <g id="xtick_2">
     <g id="line2d_12">
      <g>
       <use style="stroke:#000000;stroke-width:0.5;" x="71.4055968862" xlink:href="#ma25d855d28" y="194.0"/>
      </g>
     </g>
     <g id="line2d_13">
      <g>
       <use style="stroke:#000000;stroke-width:0.5;" x="71.4055968862" xlink:href="#m35914e99c6" y="21.2"/>
      </g>
     </g>
     <g id="text_2">
      <!-- $\mathdefault{10^{0}}$ -->
      <g transform="translate(62.8055968862 206.6203125)scale(0.1 -0.1)">
       <use transform="translate(0.0 0.546875)" xlink:href="#BitstreamVeraSans-Roman-31"/>
       <use transform="translate(63.623046875 0.546875)" xlink:href="#BitstreamVeraSans-Roman-30"/>
       <use transform="translate(127.24609375 53.046875)scale(0.7)" xlink:href="#BitstreamVeraSans-Roman-30"/>
      </g>
     </g>
    </g>
    <g id="xtick_3">
     <g id="line2d_14">
      <g>
       <use style="stroke:#000000;stroke-width:0.5;" x="110.570568772" xlink:href="#ma25d855d28" y="194.0"/>
      </g>
     </g>
     <g id="line2d_15">
      <g>
       <use style="stroke:#000000;stroke-width:0.5;" x="110.570568772" xlink:href="#m35914e99c6" y="21.2"/>
      </g>
     </g>
     <g id="text_3">
      <!-- $\mathdefault{10^{1}}$ -->
      <g transform="translate(101.970568772 206.5203125)scale(0.1 -0.1)">
       <use transform="translate(0.0 0.46562500000000284)" xlink:href="#BitstreamVeraSans-Roman-31"/>
       <use transform="translate(63.623046875 0.46562500000000284)" xlink:href="#BitstreamVeraSans-Roman-30"/>
       <use transform="translate(127.24609375 52.965625)scale(0.7)" xlink:href="#BitstreamVeraSans-Roman-31"/>
      </g>
     </g>
    </g>
    <g id="xtick_4">
     <g id="line2d_16">
      <g>
       <use style="stroke:#000000;stroke-width:0.5;" x="149.735540659" xlink:href="#ma25d855d28" y="194.0"/>
      </g>
     </g>
     <g id="line2d_17">
      <g>
       <use style="stroke:#000000;stroke-width:0.5;" x="149.735540659" xlink:href="#m35914e99c6" y="21.2"/>
      </g>
     </g>
     <g id="text_4">
      <!-- $\mathdefault{10^{2}}$ -->
      <defs>
       <path d="M 19.1875 8.296875 
L 53.609375 8.296875 
L 53.609375 0 
L 7.328125 0 
L 7.328125 8.296875 
Q 12.9375 14.109375 22.625 23.890625 
Q 32.328125 33.6875 34.8125 36.53125 
Q 39.546875 41.84375 41.421875 45.53125 
Q 43.3125 49.21875 43.3125 52.78125 
Q 43.3125 58.59375 39.234375 62.25 
Q 35.15625 65.921875 28.609375 65.921875 
Q 23.96875 65.921875 18.8125 64.3125 
Q 13.671875 62.703125 7.8125 59.421875 
L 7.8125 69.390625 
Q 13.765625 71.78125 18.9375 73 
Q 24.125 74.21875 28.421875 74.21875 
Q 39.75 74.21875 46.484375 68.546875 
Q 53.21875 62.890625 53.21875 53.421875 
Q 53.21875 48.921875 51.53125 44.890625 
Q 49.859375 40.875 45.40625 35.40625 
Q 44.1875 33.984375 37.640625 27.21875 
Q 31.109375 20.453125 19.1875 8.296875 
" id="BitstreamVeraSans-Roman-32"/>
      </defs>
      <g transform="translate(141.135540659 206.6203125)scale(0.1 -0.1)">
       <use transform="translate(0.0 0.546875)" xlink:href="#BitstreamVeraSans-Roman-31"/>
       <use transform="translate(63.623046875 0.546875)" xlink:href="#BitstreamVeraSans-Roman-30"/>
       <use transform="translate(127.24609375 53.046875)scale(0.7)" xlink:href="#BitstreamVeraSans-Roman-32"/>
      </g>
     </g>
    </g>
    <g id="xtick_5">
     <g id="line2d_18">
      <g>
       <use style="stroke:#000000;stroke-width:0.5;" x="188.900512545" xlink:href="#ma25d855d28" y="194.0"/>
      </g>
     </g>
     <g id="line2d_19">
      <g>
       <use style="stroke:#000000;stroke-width:0.5;" x="188.900512545" xlink:href="#m35914e99c6" y="21.2"/>
      </g>
     </g>
     <g id="text_5">
      <!-- $\mathdefault{10^{3}}$ -->
      <defs>
       <path d="M 40.578125 39.3125 
Q 47.65625 37.796875 51.625 33 
Q 55.609375 28.21875 55.609375 21.1875 
Q 55.609375 10.40625 48.1875 4.484375 
Q 40.765625 -1.421875 27.09375 -1.421875 
Q 22.515625 -1.421875 17.65625 -0.515625 
Q 12.796875 0.390625 7.625 2.203125 
L 7.625 11.71875 
Q 11.71875 9.328125 16.59375 8.109375 
Q 21.484375 6.890625 26.8125 6.890625 
Q 36.078125 6.890625 40.9375 10.546875 
Q 45.796875 14.203125 45.796875 21.1875 
Q 45.796875 27.640625 41.28125 31.265625 
Q 36.765625 34.90625 28.71875 34.90625 
L 20.21875 34.90625 
L 20.21875 43.015625 
L 29.109375 43.015625 
Q 36.375 43.015625 40.234375 45.921875 
Q 44.09375 48.828125 44.09375 54.296875 
Q 44.09375 59.90625 40.109375 62.90625 
Q 36.140625 65.921875 28.71875 65.921875 
Q 24.65625 65.921875 20.015625 65.03125 
Q 15.375 64.15625 9.8125 62.3125 
L 9.8125 71.09375 
Q 15.4375 72.65625 20.34375 73.4375 
Q 25.25 74.21875 29.59375 74.21875 
Q 40.828125 74.21875 47.359375 69.109375 
Q 53.90625 64.015625 53.90625 55.328125 
Q 53.90625 49.265625 50.4375 45.09375 
Q 46.96875 40.921875 40.578125 39.3125 
" id="BitstreamVeraSans-Roman-33"/>
      </defs>
      <g transform="translate(180.300512545 206.6203125)scale(0.1 -0.1)">
       <use transform="translate(0.0 0.546875)" xlink:href="#BitstreamVeraSans-Roman-31"/>
       <use transform="translate(63.623046875 0.546875)" xlink:href="#BitstreamVeraSans-Roman-30"/>
       <use transform="translate(127.24609375 53.046875)scale(0.7)" xlink:href="#BitstreamVeraSans-Roman-33"/>
      </g>
     </g>
    </g>
    <g id="xtick_6">
     <g id="line2d_20">
      <g>
       <use style="stroke:#000000;stroke-width:0.5;" x="228.065484431" xlink:href="#ma25d855d28" y="194.0"/>
      </g>
     </g>
     <g id="line2d_21">
      <g>
       <use style="stroke:#000000;stroke-width:0.5;" x="228.065484431" xlink:href="#m35914e99c6" y="21.2"/>
      </g>
     </g>
     <g id="text_6">
      <!-- $\mathdefault{10^{4}}$ -->
      <defs>
       <path d="M 37.796875 64.3125 
L 12.890625 25.390625 
L 37.796875 25.390625 
z
M 35.203125 72.90625 
L 47.609375 72.90625 
L 47.609375 25.390625 
L 58.015625 25.390625 
L 58.015625 17.1875 
L 47.609375 17.1875 
L 47.609375 0 
L 37.796875 0 
L 37.796875 17.1875 
L 4.890625 17.1875 
L 4.890625 26.703125 
z
" id="BitstreamVeraSans-Roman-34"/>
      </defs>
      <g transform="translate(219.465484431 206.5203125)scale(0.1 -0.1)">
       <use transform="translate(0.0 0.46562500000000284)" xlink:href="#BitstreamVeraSans-Roman-31"/>
       <use transform="translate(63.623046875 0.46562500000000284)" xlink:href="#BitstreamVeraSans-Roman-30"/>
       <use transform="translate(127.24609375 52.965625)scale(0.7)" xlink:href="#BitstreamVeraSans-Roman-34"/>
      </g>
     </g>
    </g>
    <g id="xtick_7">
     <g id="line2d_22">
      <defs>
       <path d="M 0 0 
L 0 -2 
" id="md7c6002ff1" style="stroke:#000000;stroke-width:0.5;"/>
      </defs>
      <g>
       <use style="stroke:#000000;stroke-width:0.5;" x="44.0304563171" xlink:href="#md7c6002ff1" y="194.0"/>
      </g>
     </g>
     <g id="line2d_23">
      <defs>
       <path d="M 0 0 
L 0 2 
" id="mc7fa454f7d" style="stroke:#000000;stroke-width:0.5;"/>
      </defs>
      <g>
       <use style="stroke:#000000;stroke-width:0.5;" x="44.0304563171" xlink:href="#mc7fa454f7d" y="21.2"/>
      </g>
     </g>
    </g>
    <g id="xtick_8">
     <g id="line2d_24">
      <g>
       <use style="stroke:#000000;stroke-width:0.5;" x="50.9270655274" xlink:href="#md7c6002ff1" y="194.0"/>
      </g>
     </g>
     <g id="line2d_25">
      <g>
       <use style="stroke:#000000;stroke-width:0.5;" x="50.9270655274" xlink:href="#mc7fa454f7d" y="21.2"/>
      </g>
     </g>
    </g>
    <g id="xtick_9">
     <g id="line2d_26">
      <g>
       <use style="stroke:#000000;stroke-width:0.5;" x="55.8202876342" xlink:href="#md7c6002ff1" y="194.0"/>
      </g>
     </g>
     <g id="line2d_27">
      <g>
       <use style="stroke:#000000;stroke-width:0.5;" x="55.8202876342" xlink:href="#mc7fa454f7d" y="21.2"/>
      </g>
     </g>
    </g>
    <g id="xtick_10">
     <g id="line2d_28">
      <g>
       <use style="stroke:#000000;stroke-width:0.5;" x="59.6157655691" xlink:href="#md7c6002ff1" y="194.0"/>
      </g>
     </g>
     <g id="line2d_29">
      <g>
       <use style="stroke:#000000;stroke-width:0.5;" x="59.6157655691" xlink:href="#mc7fa454f7d" y="21.2"/>
      </g>
     </g>
    </g>
    <g id="xtick_11">
     <g id="line2d_30">
      <g>
       <use style="stroke:#000000;stroke-width:0.5;" x="62.7168968445" xlink:href="#md7c6002ff1" y="194.0"/>
      </g>
     </g>
     <g id="line2d_31">
      <g>
       <use style="stroke:#000000;stroke-width:0.5;" x="62.7168968445" xlink:href="#mc7fa454f7d" y="21.2"/>
      </g>
     </g>
    </g>
    <g id="xtick_12">
     <g id="line2d_32">
      <g>
       <use style="stroke:#000000;stroke-width:0.5;" x="65.3388659782" xlink:href="#md7c6002ff1" y="194.0"/>
      </g>
     </g>
     <g id="line2d_33">
      <g>
       <use style="stroke:#000000;stroke-width:0.5;" x="65.3388659782" xlink:href="#mc7fa454f7d" y="21.2"/>
      </g>
     </g>
    </g>
    <g id="xtick_13">
     <g id="line2d_34">
      <g>
       <use style="stroke:#000000;stroke-width:0.5;" x="67.6101189512" xlink:href="#md7c6002ff1" y="194.0"/>
      </g>
     </g>
     <g id="line2d_35">
      <g>
       <use style="stroke:#000000;stroke-width:0.5;" x="67.6101189512" xlink:href="#mc7fa454f7d" y="21.2"/>
      </g>
     </g>
    </g>
    <g id="xtick_14">
     <g id="line2d_36">
      <g>
       <use style="stroke:#000000;stroke-width:0.5;" x="69.6135060548" xlink:href="#md7c6002ff1" y="194.0"/>
      </g>
     </g>
     <g id="line2d_37">
      <g>
       <use style="stroke:#000000;stroke-width:0.5;" x="69.6135060548" xlink:href="#mc7fa454f7d" y="21.2"/>
      </g>
     </g>
    </g>
    <g id="xtick_15">
     <g id="line2d_38">
      <g>
       <use style="stroke:#000000;stroke-width:0.5;" x="83.1954282033" xlink:href="#md7c6002ff1" y="194.0"/>
      </g>
     </g>
     <g id="line2d_39">
      <g>
       <use style="stroke:#000000;stroke-width:0.5;" x="83.1954282033" xlink:href="#mc7fa454f7d" y="21.2"/>
      </g>
     </g>
    </g>
    <g id="xtick_16">
     <g id="line2d_40">
      <g>
       <use style="stroke:#000000;stroke-width:0.5;" x="90.0920374136" xlink:href="#md7c6002ff1" y="194.0"/>
      </g>
     </g>
     <g id="line2d_41">
      <g>
       <use style="stroke:#000000;stroke-width:0.5;" x="90.0920374136" xlink:href="#mc7fa454f7d" y="21.2"/>
      </g>
     </g>
    </g>
    <g id="xtick_17">
     <g id="line2d_42">
      <g>
       <use style="stroke:#000000;stroke-width:0.5;" x="94.9852595203" xlink:href="#md7c6002ff1" y="194.0"/>
      </g>
     </g>
     <g id="line2d_43">
      <g>
       <use style="stroke:#000000;stroke-width:0.5;" x="94.9852595203" xlink:href="#mc7fa454f7d" y="21.2"/>
      </g>
     </g>
    </g>
    <g id="xtick_18">
     <g id="line2d_44">
      <g>
       <use style="stroke:#000000;stroke-width:0.5;" x="98.7807374553" xlink:href="#md7c6002ff1" y="194.0"/>
      </g>
     </g>
     <g id="line2d_45">
      <g>
       <use style="stroke:#000000;stroke-width:0.5;" x="98.7807374553" xlink:href="#mc7fa454f7d" y="21.2"/>
      </g>
     </g>
    </g>
    <g id="xtick_19">
     <g id="line2d_46">
      <g>
       <use style="stroke:#000000;stroke-width:0.5;" x="101.881868731" xlink:href="#md7c6002ff1" y="194.0"/>
      </g>
     </g>
     <g id="line2d_47">
      <g>
       <use style="stroke:#000000;stroke-width:0.5;" x="101.881868731" xlink:href="#mc7fa454f7d" y="21.2"/>
      </g>
     </g>
    </g>
    <g id="xtick_20">
     <g id="line2d_48">
      <g>
       <use style="stroke:#000000;stroke-width:0.5;" x="104.503837864" xlink:href="#md7c6002ff1" y="194.0"/>
      </g>
     </g>
     <g id="line2d_49">
      <g>
       <use style="stroke:#000000;stroke-width:0.5;" x="104.503837864" xlink:href="#mc7fa454f7d" y="21.2"/>
      </g>
     </g>
    </g>
    <g id="xtick_21">
     <g id="line2d_50">
      <g>
       <use style="stroke:#000000;stroke-width:0.5;" x="106.775090837" xlink:href="#md7c6002ff1" y="194.0"/>
      </g>
     </g>
     <g id="line2d_51">
      <g>
       <use style="stroke:#000000;stroke-width:0.5;" x="106.775090837" xlink:href="#mc7fa454f7d" y="21.2"/>
      </g>
     </g>
    </g>
    <g id="xtick_22">
     <g id="line2d_52">
      <g>
       <use style="stroke:#000000;stroke-width:0.5;" x="108.778477941" xlink:href="#md7c6002ff1" y="194.0"/>
      </g>
     </g>
     <g id="line2d_53">
      <g>
       <use style="stroke:#000000;stroke-width:0.5;" x="108.778477941" xlink:href="#mc7fa454f7d" y="21.2"/>
      </g>
     </g>
    </g>
    <g id="xtick_23">
     <g id="line2d_54">
      <g>
       <use style="stroke:#000000;stroke-width:0.5;" x="122.360400089" xlink:href="#md7c6002ff1" y="194.0"/>
      </g>
     </g>
     <g id="line2d_55">
      <g>
       <use style="stroke:#000000;stroke-width:0.5;" x="122.360400089" xlink:href="#mc7fa454f7d" y="21.2"/>
      </g>
     </g>
    </g>
    <g id="xtick_24">
     <g id="line2d_56">
      <g>
       <use style="stroke:#000000;stroke-width:0.5;" x="129.2570093" xlink:href="#md7c6002ff1" y="194.0"/>
      </g>
     </g>
     <g id="line2d_57">
      <g>
       <use style="stroke:#000000;stroke-width:0.5;" x="129.2570093" xlink:href="#mc7fa454f7d" y="21.2"/>
      </g>
     </g>
    </g>
    <g id="xtick_25">
     <g id="line2d_58">
      <g>
       <use style="stroke:#000000;stroke-width:0.5;" x="134.150231407" xlink:href="#md7c6002ff1" y="194.0"/>
      </g>
     </g>
     <g id="line2d_59">
      <g>
       <use style="stroke:#000000;stroke-width:0.5;" x="134.150231407" xlink:href="#mc7fa454f7d" y="21.2"/>
      </g>
     </g>
    </g>
    <g id="xtick_26">
     <g id="line2d_60">
      <g>
       <use style="stroke:#000000;stroke-width:0.5;" x="137.945709341" xlink:href="#md7c6002ff1" y="194.0"/>
      </g>
     </g>
     <g id="line2d_61">
      <g>
       <use style="stroke:#000000;stroke-width:0.5;" x="137.945709341" xlink:href="#mc7fa454f7d" y="21.2"/>
      </g>
     </g>
    </g>
    <g id="xtick_27">
     <g id="line2d_62">
      <g>
       <use style="stroke:#000000;stroke-width:0.5;" x="141.046840617" xlink:href="#md7c6002ff1" y="194.0"/>
      </g>
     </g>
     <g id="line2d_63">
      <g>
       <use style="stroke:#000000;stroke-width:0.5;" x="141.046840617" xlink:href="#mc7fa454f7d" y="21.2"/>
      </g>
     </g>
    </g>
    <g id="xtick_28">
     <g id="line2d_64">
      <g>
       <use style="stroke:#000000;stroke-width:0.5;" x="143.668809751" xlink:href="#md7c6002ff1" y="194.0"/>
      </g>
     </g>
     <g id="line2d_65">
      <g>
       <use style="stroke:#000000;stroke-width:0.5;" x="143.668809751" xlink:href="#mc7fa454f7d" y="21.2"/>
      </g>
     </g>
    </g>
    <g id="xtick_29">
     <g id="line2d_66">
      <g>
       <use style="stroke:#000000;stroke-width:0.5;" x="145.940062724" xlink:href="#md7c6002ff1" y="194.0"/>
      </g>
     </g>
     <g id="line2d_67">
      <g>
       <use style="stroke:#000000;stroke-width:0.5;" x="145.940062724" xlink:href="#mc7fa454f7d" y="21.2"/>
      </g>
     </g>
    </g>
    <g id="xtick_30">
     <g id="line2d_68">
      <g>
       <use style="stroke:#000000;stroke-width:0.5;" x="147.943449827" xlink:href="#md7c6002ff1" y="194.0"/>
      </g>
     </g>
     <g id="line2d_69">
      <g>
       <use style="stroke:#000000;stroke-width:0.5;" x="147.943449827" xlink:href="#mc7fa454f7d" y="21.2"/>
      </g>
     </g>
    </g>
    <g id="xtick_31">
     <g id="line2d_70">
      <g>
       <use style="stroke:#000000;stroke-width:0.5;" x="161.525371976" xlink:href="#md7c6002ff1" y="194.0"/>
      </g>
     </g>
     <g id="line2d_71">
      <g>
       <use style="stroke:#000000;stroke-width:0.5;" x="161.525371976" xlink:href="#mc7fa454f7d" y="21.2"/>
      </g>
     </g>
    </g>
    <g id="xtick_32">
     <g id="line2d_72">
      <g>
       <use style="stroke:#000000;stroke-width:0.5;" x="168.421981186" xlink:href="#md7c6002ff1" y="194.0"/>
      </g>
     </g>
     <g id="line2d_73">
      <g>
       <use style="stroke:#000000;stroke-width:0.5;" x="168.421981186" xlink:href="#mc7fa454f7d" y="21.2"/>
      </g>
     </g>
    </g>
    <g id="xtick_33">
     <g id="line2d_74">
      <g>
       <use style="stroke:#000000;stroke-width:0.5;" x="173.315203293" xlink:href="#md7c6002ff1" y="194.0"/>
      </g>
     </g>
     <g id="line2d_75">
      <g>
       <use style="stroke:#000000;stroke-width:0.5;" x="173.315203293" xlink:href="#mc7fa454f7d" y="21.2"/>
      </g>
     </g>
    </g>
    <g id="xtick_34">
     <g id="line2d_76">
      <g>
       <use style="stroke:#000000;stroke-width:0.5;" x="177.110681228" xlink:href="#md7c6002ff1" y="194.0"/>
      </g>
     </g>
     <g id="line2d_77">
      <g>
       <use style="stroke:#000000;stroke-width:0.5;" x="177.110681228" xlink:href="#mc7fa454f7d" y="21.2"/>
      </g>
     </g>
    </g>
    <g id="xtick_35">
     <g id="line2d_78">
      <g>
       <use style="stroke:#000000;stroke-width:0.5;" x="180.211812503" xlink:href="#md7c6002ff1" y="194.0"/>
      </g>
     </g>
     <g id="line2d_79">
      <g>
       <use style="stroke:#000000;stroke-width:0.5;" x="180.211812503" xlink:href="#mc7fa454f7d" y="21.2"/>
      </g>
     </g>
    </g>
    <g id="xtick_36">
     <g id="line2d_80">
      <g>
       <use style="stroke:#000000;stroke-width:0.5;" x="182.833781637" xlink:href="#md7c6002ff1" y="194.0"/>
      </g>
     </g>
     <g id="line2d_81">
      <g>
       <use style="stroke:#000000;stroke-width:0.5;" x="182.833781637" xlink:href="#mc7fa454f7d" y="21.2"/>
      </g>
     </g>
    </g>
    <g id="xtick_37">
     <g id="line2d_82">
      <g>
       <use style="stroke:#000000;stroke-width:0.5;" x="185.10503461" xlink:href="#md7c6002ff1" y="194.0"/>
      </g>
     </g>
     <g id="line2d_83">
      <g>
       <use style="stroke:#000000;stroke-width:0.5;" x="185.10503461" xlink:href="#mc7fa454f7d" y="21.2"/>
      </g>
     </g>
    </g>
    <g id="xtick_38">
     <g id="line2d_84">
      <g>
       <use style="stroke:#000000;stroke-width:0.5;" x="187.108421713" xlink:href="#md7c6002ff1" y="194.0"/>
      </g>
     </g>
     <g id="line2d_85">
      <g>
       <use style="stroke:#000000;stroke-width:0.5;" x="187.108421713" xlink:href="#mc7fa454f7d" y="21.2"/>
      </g>
     </g>
    </g>
    <g id="xtick_39">
     <g id="line2d_86">
      <g>
       <use style="stroke:#000000;stroke-width:0.5;" x="200.690343862" xlink:href="#md7c6002ff1" y="194.0"/>
      </g>
     </g>
     <g id="line2d_87">
      <g>
       <use style="stroke:#000000;stroke-width:0.5;" x="200.690343862" xlink:href="#mc7fa454f7d" y="21.2"/>
      </g>
     </g>
    </g>
    <g id="xtick_40">
     <g id="line2d_88">
      <g>
       <use style="stroke:#000000;stroke-width:0.5;" x="207.586953072" xlink:href="#md7c6002ff1" y="194.0"/>
      </g>
     </g>
     <g id="line2d_89">
      <g>
       <use style="stroke:#000000;stroke-width:0.5;" x="207.586953072" xlink:href="#mc7fa454f7d" y="21.2"/>
      </g>
     </g>
    </g>
    <g id="xtick_41">
     <g id="line2d_90">
      <g>
       <use style="stroke:#000000;stroke-width:0.5;" x="212.480175179" xlink:href="#md7c6002ff1" y="194.0"/>
      </g>
     </g>
     <g id="line2d_91">
      <g>
       <use style="stroke:#000000;stroke-width:0.5;" x="212.480175179" xlink:href="#mc7fa454f7d" y="21.2"/>
      </g>
     </g>
    </g>
    <g id="xtick_42">
     <g id="line2d_92">
      <g>
       <use style="stroke:#000000;stroke-width:0.5;" x="216.275653114" xlink:href="#md7c6002ff1" y="194.0"/>
      </g>
     </g>
     <g id="line2d_93">
      <g>
       <use style="stroke:#000000;stroke-width:0.5;" x="216.275653114" xlink:href="#mc7fa454f7d" y="21.2"/>
      </g>
     </g>
    </g>
    <g id="xtick_43">
     <g id="line2d_94">
      <g>
       <use style="stroke:#000000;stroke-width:0.5;" x="219.376784389" xlink:href="#md7c6002ff1" y="194.0"/>
      </g>
     </g>
     <g id="line2d_95">
      <g>
       <use style="stroke:#000000;stroke-width:0.5;" x="219.376784389" xlink:href="#mc7fa454f7d" y="21.2"/>
      </g>
     </g>
    </g>
    <g id="xtick_44">
     <g id="line2d_96">
      <g>
       <use style="stroke:#000000;stroke-width:0.5;" x="221.998753523" xlink:href="#md7c6002ff1" y="194.0"/>
      </g>
     </g>
     <g id="line2d_97">
      <g>
       <use style="stroke:#000000;stroke-width:0.5;" x="221.998753523" xlink:href="#mc7fa454f7d" y="21.2"/>
      </g>
     </g>
    </g>
    <g id="xtick_45">
     <g id="line2d_98">
      <g>
       <use style="stroke:#000000;stroke-width:0.5;" x="224.270006496" xlink:href="#md7c6002ff1" y="194.0"/>
      </g>
     </g>
     <g id="line2d_99">
      <g>
       <use style="stroke:#000000;stroke-width:0.5;" x="224.270006496" xlink:href="#mc7fa454f7d" y="21.2"/>
      </g>
     </g>
    </g>
    <g id="xtick_46">
     <g id="line2d_100">
      <g>
       <use style="stroke:#000000;stroke-width:0.5;" x="226.2733936" xlink:href="#md7c6002ff1" y="194.0"/>
      </g>
     </g>
     <g id="line2d_101">
      <g>
       <use style="stroke:#000000;stroke-width:0.5;" x="226.2733936" xlink:href="#mc7fa454f7d" y="21.2"/>
      </g>
     </g>
    </g>
    <g id="xtick_47">
     <g id="line2d_102">
      <g>
       <use style="stroke:#000000;stroke-width:0.5;" x="239.855315748" xlink:href="#md7c6002ff1" y="194.0"/>
      </g>
     </g>
     <g id="line2d_103">
      <g>
       <use style="stroke:#000000;stroke-width:0.5;" x="239.855315748" xlink:href="#mc7fa454f7d" y="21.2"/>
      </g>
     </g>
    </g>
    <g id="xtick_48">
     <g id="line2d_104">
      <g>
       <use style="stroke:#000000;stroke-width:0.5;" x="246.751924958" xlink:href="#md7c6002ff1" y="194.0"/>
      </g>
     </g>
     <g id="line2d_105">
      <g>
       <use style="stroke:#000000;stroke-width:0.5;" x="246.751924958" xlink:href="#mc7fa454f7d" y="21.2"/>
      </g>
     </g>
    </g>
    <g id="xtick_49">
     <g id="line2d_106">
      <g>
       <use style="stroke:#000000;stroke-width:0.5;" x="251.645147065" xlink:href="#md7c6002ff1" y="194.0"/>
      </g>
     </g>
     <g id="line2d_107">
      <g>
       <use style="stroke:#000000;stroke-width:0.5;" x="251.645147065" xlink:href="#mc7fa454f7d" y="21.2"/>
      </g>
     </g>
    </g>
    <g id="xtick_50">
     <g id="line2d_108">
      <g>
       <use style="stroke:#000000;stroke-width:0.5;" x="255.440625" xlink:href="#md7c6002ff1" y="194.0"/>
      </g>
     </g>
     <g id="line2d_109">
      <g>
       <use style="stroke:#000000;stroke-width:0.5;" x="255.440625" xlink:href="#mc7fa454f7d" y="21.2"/>
      </g>
     </g>
    </g>
    <g id="text_7">
     <!-- Equilibration time -->
     <defs>
      <path d="M 14.796875 27.296875 
Q 14.796875 17.390625 18.875 11.75 
Q 22.953125 6.109375 30.078125 6.109375 
Q 37.203125 6.109375 41.296875 11.75 
Q 45.40625 17.390625 45.40625 27.296875 
Q 45.40625 37.203125 41.296875 42.84375 
Q 37.203125 48.484375 30.078125 48.484375 
Q 22.953125 48.484375 18.875 42.84375 
Q 14.796875 37.203125 14.796875 27.296875 
M 45.40625 8.203125 
Q 42.578125 3.328125 38.25 0.953125 
Q 33.9375 -1.421875 27.875 -1.421875 
Q 17.96875 -1.421875 11.734375 6.484375 
Q 5.515625 14.40625 5.515625 27.296875 
Q 5.515625 40.1875 11.734375 48.09375 
Q 17.96875 56 27.875 56 
Q 33.9375 56 38.25 53.625 
Q 42.578125 51.265625 45.40625 46.390625 
L 45.40625 54.6875 
L 54.390625 54.6875 
L 54.390625 -20.796875 
L 45.40625 -20.796875 
z
" id="BitstreamVeraSans-Roman-71"/>
      <path d="M 9.421875 75.984375 
L 18.40625 75.984375 
L 18.40625 0 
L 9.421875 0 
z
" id="BitstreamVeraSans-Roman-6c"/>
      <path d="M 48.6875 27.296875 
Q 48.6875 37.203125 44.609375 42.84375 
Q 40.53125 48.484375 33.40625 48.484375 
Q 26.265625 48.484375 22.1875 42.84375 
Q 18.109375 37.203125 18.109375 27.296875 
Q 18.109375 17.390625 22.1875 11.75 
Q 26.265625 6.109375 33.40625 6.109375 
Q 40.53125 6.109375 44.609375 11.75 
Q 48.6875 17.390625 48.6875 27.296875 
M 18.109375 46.390625 
Q 20.953125 51.265625 25.265625 53.625 
Q 29.59375 56 35.59375 56 
Q 45.5625 56 51.78125 48.09375 
Q 58.015625 40.1875 58.015625 27.296875 
Q 58.015625 14.40625 51.78125 6.484375 
Q 45.5625 -1.421875 35.59375 -1.421875 
Q 29.59375 -1.421875 25.265625 0.953125 
Q 20.953125 3.328125 18.109375 8.203125 
L 18.109375 0 
L 9.078125 0 
L 9.078125 75.984375 
L 18.109375 75.984375 
z
" id="BitstreamVeraSans-Roman-62"/>
      <path d="M 52 44.1875 
Q 55.375 50.25 60.0625 53.125 
Q 64.75 56 71.09375 56 
Q 79.640625 56 84.28125 50.015625 
Q 88.921875 44.046875 88.921875 33.015625 
L 88.921875 0 
L 79.890625 0 
L 79.890625 32.71875 
Q 79.890625 40.578125 77.09375 44.375 
Q 74.3125 48.1875 68.609375 48.1875 
Q 61.625 48.1875 57.5625 43.546875 
Q 53.515625 38.921875 53.515625 30.90625 
L 53.515625 0 
L 44.484375 0 
L 44.484375 32.71875 
Q 44.484375 40.625 41.703125 44.40625 
Q 38.921875 48.1875 33.109375 48.1875 
Q 26.21875 48.1875 22.15625 43.53125 
Q 18.109375 38.875 18.109375 30.90625 
L 18.109375 0 
L 9.078125 0 
L 9.078125 54.6875 
L 18.109375 54.6875 
L 18.109375 46.1875 
Q 21.1875 51.21875 25.484375 53.609375 
Q 29.78125 56 35.6875 56 
Q 41.65625 56 45.828125 52.96875 
Q 50 49.953125 52 44.1875 
" id="BitstreamVeraSans-Roman-6d"/>
      <path d="M 18.3125 70.21875 
L 18.3125 54.6875 
L 36.8125 54.6875 
L 36.8125 47.703125 
L 18.3125 47.703125 
L 18.3125 18.015625 
Q 18.3125 11.328125 20.140625 9.421875 
Q 21.96875 7.515625 27.59375 7.515625 
L 36.8125 7.515625 
L 36.8125 0 
L 27.59375 0 
Q 17.1875 0 13.234375 3.875 
Q 9.28125 7.765625 9.28125 18.015625 
L 9.28125 47.703125 
L 2.6875 47.703125 
L 2.6875 54.6875 
L 9.28125 54.6875 
L 9.28125 70.21875 
z
" id="BitstreamVeraSans-Roman-74"/>
      <path d="M 56.203125 29.59375 
L 56.203125 25.203125 
L 14.890625 25.203125 
Q 15.484375 15.921875 20.484375 11.0625 
Q 25.484375 6.203125 34.421875 6.203125 
Q 39.59375 6.203125 44.453125 7.46875 
Q 49.3125 8.734375 54.109375 11.28125 
L 54.109375 2.78125 
Q 49.265625 0.734375 44.1875 -0.34375 
Q 39.109375 -1.421875 33.890625 -1.421875 
Q 20.796875 -1.421875 13.15625 6.1875 
Q 5.515625 13.8125 5.515625 26.8125 
Q 5.515625 40.234375 12.765625 48.109375 
Q 20.015625 56 32.328125 56 
Q 43.359375 56 49.78125 48.890625 
Q 56.203125 41.796875 56.203125 29.59375 
M 47.21875 32.234375 
Q 47.125 39.59375 43.09375 43.984375 
Q 39.0625 48.390625 32.421875 48.390625 
Q 24.90625 48.390625 20.390625 44.140625 
Q 15.875 39.890625 15.1875 32.171875 
z
" id="BitstreamVeraSans-Roman-65"/>
      <path id="BitstreamVeraSans-Roman-20"/>
      <path d="M 54.890625 33.015625 
L 54.890625 0 
L 45.90625 0 
L 45.90625 32.71875 
Q 45.90625 40.484375 42.875 44.328125 
Q 39.84375 48.1875 33.796875 48.1875 
Q 26.515625 48.1875 22.3125 43.546875 
Q 18.109375 38.921875 18.109375 30.90625 
L 18.109375 0 
L 9.078125 0 
L 9.078125 54.6875 
L 18.109375 54.6875 
L 18.109375 46.1875 
Q 21.34375 51.125 25.703125 53.5625 
Q 30.078125 56 35.796875 56 
Q 45.21875 56 50.046875 50.171875 
Q 54.890625 44.34375 54.890625 33.015625 
" id="BitstreamVeraSans-Roman-6e"/>
      <path d="M 8.5 21.578125 
L 8.5 54.6875 
L 17.484375 54.6875 
L 17.484375 21.921875 
Q 17.484375 14.15625 20.5 10.265625 
Q 23.53125 6.390625 29.59375 6.390625 
Q 36.859375 6.390625 41.078125 11.03125 
Q 45.3125 15.671875 45.3125 23.6875 
L 45.3125 54.6875 
L 54.296875 54.6875 
L 54.296875 0 
L 45.3125 0 
L 45.3125 8.40625 
Q 42.046875 3.421875 37.71875 1 
Q 33.40625 -1.421875 27.6875 -1.421875 
Q 18.265625 -1.421875 13.375 4.4375 
Q 8.5 10.296875 8.5 21.578125 
" id="BitstreamVeraSans-Roman-75"/>
      <path d="M 34.28125 27.484375 
Q 23.390625 27.484375 19.1875 25 
Q 14.984375 22.515625 14.984375 16.5 
Q 14.984375 11.71875 18.140625 8.90625 
Q 21.296875 6.109375 26.703125 6.109375 
Q 34.1875 6.109375 38.703125 11.40625 
Q 43.21875 16.703125 43.21875 25.484375 
L 43.21875 27.484375 
z
M 52.203125 31.203125 
L 52.203125 0 
L 43.21875 0 
L 43.21875 8.296875 
Q 40.140625 3.328125 35.546875 0.953125 
Q 30.953125 -1.421875 24.3125 -1.421875 
Q 15.921875 -1.421875 10.953125 3.296875 
Q 6 8.015625 6 15.921875 
Q 6 25.140625 12.171875 29.828125 
Q 18.359375 34.515625 30.609375 34.515625 
L 43.21875 34.515625 
L 43.21875 35.40625 
Q 43.21875 41.609375 39.140625 45 
Q 35.0625 48.390625 27.6875 48.390625 
Q 23 48.390625 18.546875 47.265625 
Q 14.109375 46.140625 10.015625 43.890625 
L 10.015625 52.203125 
Q 14.9375 54.109375 19.578125 55.046875 
Q 24.21875 56 28.609375 56 
Q 40.484375 56 46.34375 49.84375 
Q 52.203125 43.703125 52.203125 31.203125 
" id="BitstreamVeraSans-Roman-61"/>
      <path d="M 9.421875 54.6875 
L 18.40625 54.6875 
L 18.40625 0 
L 9.421875 0 
z
M 9.421875 75.984375 
L 18.40625 75.984375 
L 18.40625 64.59375 
L 9.421875 64.59375 
z
" id="BitstreamVeraSans-Roman-69"/>
      <path d="M 41.109375 46.296875 
Q 39.59375 47.171875 37.8125 47.578125 
Q 36.03125 48 33.890625 48 
Q 26.265625 48 22.1875 43.046875 
Q 18.109375 38.09375 18.109375 28.8125 
L 18.109375 0 
L 9.078125 0 
L 9.078125 54.6875 
L 18.109375 54.6875 
L 18.109375 46.1875 
Q 20.953125 51.171875 25.484375 53.578125 
Q 30.03125 56 36.53125 56 
Q 37.453125 56 38.578125 55.875 
Q 39.703125 55.765625 41.0625 55.515625 
z
" id="BitstreamVeraSans-Roman-72"/>
      <path d="M 9.8125 72.90625 
L 55.90625 72.90625 
L 55.90625 64.59375 
L 19.671875 64.59375 
L 19.671875 43.015625 
L 54.390625 43.015625 
L 54.390625 34.71875 
L 19.671875 34.71875 
L 19.671875 8.296875 
L 56.78125 8.296875 
L 56.78125 0 
L 9.8125 0 
z
" id="BitstreamVeraSans-Roman-45"/>
      <path d="M 30.609375 48.390625 
Q 23.390625 48.390625 19.1875 42.75 
Q 14.984375 37.109375 14.984375 27.296875 
Q 14.984375 17.484375 19.15625 11.84375 
Q 23.34375 6.203125 30.609375 6.203125 
Q 37.796875 6.203125 41.984375 11.859375 
Q 46.1875 17.53125 46.1875 27.296875 
Q 46.1875 37.015625 41.984375 42.703125 
Q 37.796875 48.390625 30.609375 48.390625 
M 30.609375 56 
Q 42.328125 56 49.015625 48.375 
Q 55.71875 40.765625 55.71875 27.296875 
Q 55.71875 13.875 49.015625 6.21875 
Q 42.328125 -1.421875 30.609375 -1.421875 
Q 18.84375 -1.421875 12.171875 6.21875 
Q 5.515625 13.875 5.515625 27.296875 
Q 5.515625 40.765625 12.171875 48.375 
Q 18.84375 56 30.609375 56 
" id="BitstreamVeraSans-Roman-6f"/>
     </defs>
     <g transform="translate(99.41484375 221.2984375)scale(0.1 -0.1)">
      <use xlink:href="#BitstreamVeraSans-Roman-45"/>
      <use x="63.18359375" xlink:href="#BitstreamVeraSans-Roman-71"/>
      <use x="126.66015625" xlink:href="#BitstreamVeraSans-Roman-75"/>
      <use x="190.0390625" xlink:href="#BitstreamVeraSans-Roman-69"/>
      <use x="217.822265625" xlink:href="#BitstreamVeraSans-Roman-6c"/>
      <use x="245.60546875" xlink:href="#BitstreamVeraSans-Roman-69"/>
      <use x="273.388671875" xlink:href="#BitstreamVeraSans-Roman-62"/>
      <use x="336.865234375" xlink:href="#BitstreamVeraSans-Roman-72"/>
      <use x="377.978515625" xlink:href="#BitstreamVeraSans-Roman-61"/>
      <use x="439.2578125" xlink:href="#BitstreamVeraSans-Roman-74"/>
      <use x="478.466796875" xlink:href="#BitstreamVeraSans-Roman-69"/>
      <use x="506.25" xlink:href="#BitstreamVeraSans-Roman-6f"/>
      <use x="567.431640625" xlink:href="#BitstreamVeraSans-Roman-6e"/>
      <use x="630.810546875" xlink:href="#BitstreamVeraSans-Roman-20"/>
      <use x="662.59765625" xlink:href="#BitstreamVeraSans-Roman-74"/>
      <use x="701.806640625" xlink:href="#BitstreamVeraSans-Roman-69"/>
      <use x="729.58984375" xlink:href="#BitstreamVeraSans-Roman-6d"/>
      <use x="827.001953125" xlink:href="#BitstreamVeraSans-Roman-65"/>
     </g>
    </g>
   </g>
   <g id="matplotlib.axis_2">
    <g id="ytick_1">
     <g id="line2d_110">
      <defs>
       <path d="M 0 0 
L 4 0 
" id="m0b53013eb0" style="stroke:#000000;stroke-width:0.5;"/>
      </defs>
      <g>
       <use style="stroke:#000000;stroke-width:0.5;" x="32.240625" xlink:href="#m0b53013eb0" y="194.0"/>
      </g>
     </g>
     <g id="line2d_111">
      <defs>
       <path d="M 0 0 
L -4 0 
" id="m57cdb21775" style="stroke:#000000;stroke-width:0.5;"/>
      </defs>
      <g>
       <use style="stroke:#000000;stroke-width:0.5;" x="255.440625" xlink:href="#m57cdb21775" y="194.0"/>
      </g>
     </g>
     <g id="text_8">
      <!-- 0 -->
      <g transform="translate(21.878125 196.759375)scale(0.1 -0.1)">
       <use xlink:href="#BitstreamVeraSans-Roman-30"/>
      </g>
     </g>
    </g>
    <g id="ytick_2">
     <g id="line2d_112">
      <g>
       <use style="stroke:#000000;stroke-width:0.5;" x="32.240625" xlink:href="#m0b53013eb0" y="172.4"/>
      </g>
     </g>
     <g id="line2d_113">
      <g>
       <use style="stroke:#000000;stroke-width:0.5;" x="255.440625" xlink:href="#m57cdb21775" y="172.4"/>
      </g>
     </g>
     <g id="text_9">
      <!-- 1 -->
      <g transform="translate(21.878125 175.159375)scale(0.1 -0.1)">
       <use xlink:href="#BitstreamVeraSans-Roman-31"/>
      </g>
     </g>
    </g>
    <g id="ytick_3">
     <g id="line2d_114">
      <g>
       <use style="stroke:#000000;stroke-width:0.5;" x="32.240625" xlink:href="#m0b53013eb0" y="150.8"/>
      </g>
     </g>
     <g id="line2d_115">
      <g>
       <use style="stroke:#000000;stroke-width:0.5;" x="255.440625" xlink:href="#m57cdb21775" y="150.8"/>
      </g>
     </g>
     <g id="text_10">
      <!-- 2 -->
      <g transform="translate(21.878125 153.559375)scale(0.1 -0.1)">
       <use xlink:href="#BitstreamVeraSans-Roman-32"/>
      </g>
     </g>
    </g>
    <g id="ytick_4">
     <g id="line2d_116">
      <g>
       <use style="stroke:#000000;stroke-width:0.5;" x="32.240625" xlink:href="#m0b53013eb0" y="129.2"/>
      </g>
     </g>
     <g id="line2d_117">
      <g>
       <use style="stroke:#000000;stroke-width:0.5;" x="255.440625" xlink:href="#m57cdb21775" y="129.2"/>
      </g>
     </g>
     <g id="text_11">
      <!-- 3 -->
      <g transform="translate(21.878125 131.959375)scale(0.1 -0.1)">
       <use xlink:href="#BitstreamVeraSans-Roman-33"/>
      </g>
     </g>
    </g>
    <g id="ytick_5">
     <g id="line2d_118">
      <g>
       <use style="stroke:#000000;stroke-width:0.5;" x="32.240625" xlink:href="#m0b53013eb0" y="107.6"/>
      </g>
     </g>
     <g id="line2d_119">
      <g>
       <use style="stroke:#000000;stroke-width:0.5;" x="255.440625" xlink:href="#m57cdb21775" y="107.6"/>
      </g>
     </g>
     <g id="text_12">
      <!-- 4 -->
      <g transform="translate(21.878125 110.359375)scale(0.1 -0.1)">
       <use xlink:href="#BitstreamVeraSans-Roman-34"/>
      </g>
     </g>
    </g>
    <g id="ytick_6">
     <g id="line2d_120">
      <g>
       <use style="stroke:#000000;stroke-width:0.5;" x="32.240625" xlink:href="#m0b53013eb0" y="86.0"/>
      </g>
     </g>
     <g id="line2d_121">
      <g>
       <use style="stroke:#000000;stroke-width:0.5;" x="255.440625" xlink:href="#m57cdb21775" y="86.0"/>
      </g>
     </g>
     <g id="text_13">
      <!-- 5 -->
      <defs>
       <path d="M 10.796875 72.90625 
L 49.515625 72.90625 
L 49.515625 64.59375 
L 19.828125 64.59375 
L 19.828125 46.734375 
Q 21.96875 47.46875 24.109375 47.828125 
Q 26.265625 48.1875 28.421875 48.1875 
Q 40.625 48.1875 47.75 41.5 
Q 54.890625 34.8125 54.890625 23.390625 
Q 54.890625 11.625 47.5625 5.09375 
Q 40.234375 -1.421875 26.90625 -1.421875 
Q 22.3125 -1.421875 17.546875 -0.640625 
Q 12.796875 0.140625 7.71875 1.703125 
L 7.71875 11.625 
Q 12.109375 9.234375 16.796875 8.0625 
Q 21.484375 6.890625 26.703125 6.890625 
Q 35.15625 6.890625 40.078125 11.328125 
Q 45.015625 15.765625 45.015625 23.390625 
Q 45.015625 31 40.078125 35.4375 
Q 35.15625 39.890625 26.703125 39.890625 
Q 22.75 39.890625 18.8125 39.015625 
Q 14.890625 38.140625 10.796875 36.28125 
z
" id="BitstreamVeraSans-Roman-35"/>
      </defs>
      <g transform="translate(21.878125 88.759375)scale(0.1 -0.1)">
       <use xlink:href="#BitstreamVeraSans-Roman-35"/>
      </g>
     </g>
    </g>
    <g id="ytick_7">
     <g id="line2d_122">
      <g>
       <use style="stroke:#000000;stroke-width:0.5;" x="32.240625" xlink:href="#m0b53013eb0" y="64.4"/>
      </g>
     </g>
     <g id="line2d_123">
      <g>
       <use style="stroke:#000000;stroke-width:0.5;" x="255.440625" xlink:href="#m57cdb21775" y="64.4"/>
      </g>
     </g>
     <g id="text_14">
      <!-- 6 -->
      <defs>
       <path d="M 33.015625 40.375 
Q 26.375 40.375 22.484375 35.828125 
Q 18.609375 31.296875 18.609375 23.390625 
Q 18.609375 15.53125 22.484375 10.953125 
Q 26.375 6.390625 33.015625 6.390625 
Q 39.65625 6.390625 43.53125 10.953125 
Q 47.40625 15.53125 47.40625 23.390625 
Q 47.40625 31.296875 43.53125 35.828125 
Q 39.65625 40.375 33.015625 40.375 
M 52.59375 71.296875 
L 52.59375 62.3125 
Q 48.875 64.0625 45.09375 64.984375 
Q 41.3125 65.921875 37.59375 65.921875 
Q 27.828125 65.921875 22.671875 59.328125 
Q 17.53125 52.734375 16.796875 39.40625 
Q 19.671875 43.65625 24.015625 45.921875 
Q 28.375 48.1875 33.59375 48.1875 
Q 44.578125 48.1875 50.953125 41.515625 
Q 57.328125 34.859375 57.328125 23.390625 
Q 57.328125 12.15625 50.6875 5.359375 
Q 44.046875 -1.421875 33.015625 -1.421875 
Q 20.359375 -1.421875 13.671875 8.265625 
Q 6.984375 17.96875 6.984375 36.375 
Q 6.984375 53.65625 15.1875 63.9375 
Q 23.390625 74.21875 37.203125 74.21875 
Q 40.921875 74.21875 44.703125 73.484375 
Q 48.484375 72.75 52.59375 71.296875 
" id="BitstreamVeraSans-Roman-36"/>
      </defs>
      <g transform="translate(21.878125 67.159375)scale(0.1 -0.1)">
       <use xlink:href="#BitstreamVeraSans-Roman-36"/>
      </g>
     </g>
    </g>
    <g id="ytick_8">
     <g id="line2d_124">
      <g>
       <use style="stroke:#000000;stroke-width:0.5;" x="32.240625" xlink:href="#m0b53013eb0" y="42.8"/>
      </g>
     </g>
     <g id="line2d_125">
      <g>
       <use style="stroke:#000000;stroke-width:0.5;" x="255.440625" xlink:href="#m57cdb21775" y="42.8"/>
      </g>
     </g>
     <g id="text_15">
      <!-- 7 -->
      <defs>
       <path d="M 8.203125 72.90625 
L 55.078125 72.90625 
L 55.078125 68.703125 
L 28.609375 0 
L 18.3125 0 
L 43.21875 64.59375 
L 8.203125 64.59375 
z
" id="BitstreamVeraSans-Roman-37"/>
      </defs>
      <g transform="translate(21.878125 45.559375)scale(0.1 -0.1)">
       <use xlink:href="#BitstreamVeraSans-Roman-37"/>
      </g>
     </g>
    </g>
    <g id="ytick_9">
     <g id="line2d_126">
      <g>
       <use style="stroke:#000000;stroke-width:0.5;" x="32.240625" xlink:href="#m0b53013eb0" y="21.2"/>
      </g>
     </g>
     <g id="line2d_127">
      <g>
       <use style="stroke:#000000;stroke-width:0.5;" x="255.440625" xlink:href="#m57cdb21775" y="21.2"/>
      </g>
     </g>
     <g id="text_16">
      <!-- 8 -->
      <defs>
       <path d="M 31.78125 34.625 
Q 24.75 34.625 20.71875 30.859375 
Q 16.703125 27.09375 16.703125 20.515625 
Q 16.703125 13.921875 20.71875 10.15625 
Q 24.75 6.390625 31.78125 6.390625 
Q 38.8125 6.390625 42.859375 10.171875 
Q 46.921875 13.96875 46.921875 20.515625 
Q 46.921875 27.09375 42.890625 30.859375 
Q 38.875 34.625 31.78125 34.625 
M 21.921875 38.8125 
Q 15.578125 40.375 12.03125 44.71875 
Q 8.5 49.078125 8.5 55.328125 
Q 8.5 64.0625 14.71875 69.140625 
Q 20.953125 74.21875 31.78125 74.21875 
Q 42.671875 74.21875 48.875 69.140625 
Q 55.078125 64.0625 55.078125 55.328125 
Q 55.078125 49.078125 51.53125 44.71875 
Q 48 40.375 41.703125 38.8125 
Q 48.828125 37.15625 52.796875 32.3125 
Q 56.78125 27.484375 56.78125 20.515625 
Q 56.78125 9.90625 50.3125 4.234375 
Q 43.84375 -1.421875 31.78125 -1.421875 
Q 19.734375 -1.421875 13.25 4.234375 
Q 6.78125 9.90625 6.78125 20.515625 
Q 6.78125 27.484375 10.78125 32.3125 
Q 14.796875 37.15625 21.921875 38.8125 
M 18.3125 54.390625 
Q 18.3125 48.734375 21.84375 45.5625 
Q 25.390625 42.390625 31.78125 42.390625 
Q 38.140625 42.390625 41.71875 45.5625 
Q 45.3125 48.734375 45.3125 54.390625 
Q 45.3125 60.0625 41.71875 63.234375 
Q 38.140625 66.40625 31.78125 66.40625 
Q 25.390625 66.40625 21.84375 63.234375 
Q 18.3125 60.0625 18.3125 54.390625 
" id="BitstreamVeraSans-Roman-38"/>
      </defs>
      <g transform="translate(21.878125 23.959375)scale(0.1 -0.1)">
       <use xlink:href="#BitstreamVeraSans-Roman-38"/>
      </g>
     </g>
    </g>
    <g id="text_17">
     <!-- max $\alpha_2$ -->
     <defs>
      <path d="M 54.890625 54.6875 
L 35.109375 28.078125 
L 55.90625 0 
L 45.3125 0 
L 29.390625 21.484375 
L 13.484375 0 
L 2.875 0 
L 24.125 28.609375 
L 4.6875 54.6875 
L 15.28125 54.6875 
L 29.78125 35.203125 
L 44.28125 54.6875 
z
" id="BitstreamVeraSans-Roman-78"/>
      <path d="M 51.40625 12.90625 
L 52.90625 12.90625 
Q 52.90625 7 50.75 3 
Q 48.59375 -1 45 -1 
Q 39.40625 -1 37 10 
Q 34 4.59375 30.5 1.796875 
Q 27 -1 21.59375 -1 
Q 13.5 -1 8.203125 5.546875 
Q 2.90625 12.09375 2.90625 22.296875 
Q 2.90625 32.203125 8.25 39.09375 
Q 13.59375 46 22.5 46 
Q 28.5 46 32.453125 41.75 
Q 36.40625 37.5 37.90625 31.40625 
L 42.40625 45 
L 52.09375 45 
L 41.203125 18.703125 
Q 42.203125 14.09375 44.140625 9.640625 
Q 46.09375 5.203125 48.09375 5.203125 
Q 50.5 5.203125 51.40625 12.90625 
M 33.09375 20.796875 
Q 29.796875 43.203125 22 43.203125 
Q 17.796875 43.203125 14.84375 39.25 
Q 11.90625 35.296875 11.90625 27.296875 
Q 11.90625 23.90625 12.34375 20.09375 
Q 12.796875 16.296875 13.84375 11.890625 
Q 14.90625 7.5 17.15625 4.640625 
Q 19.40625 1.796875 22.5 1.796875 
Q 29.5 1.796875 33.09375 20.796875 
" id="STIXGeneral-Regular-3b1"/>
     </defs>
     <g transform="translate(13.678125 126.0)rotate(-90.0)scale(0.1 -0.1)">
      <use xlink:href="#BitstreamVeraSans-Roman-6d"/>
      <use transform="translate(97.412109375 0.0)" xlink:href="#BitstreamVeraSans-Roman-61"/>
      <use transform="translate(158.69140625 0.0)" xlink:href="#BitstreamVeraSans-Roman-78"/>
      <use transform="translate(217.87109375 0.0)" xlink:href="#BitstreamVeraSans-Roman-20"/>
      <use transform="translate(249.658203125 0.0)" xlink:href="#STIXGeneral-Regular-3b1"/>
      <use transform="translate(303.95819091796875 -31.5)scale(0.7)" xlink:href="#BitstreamVeraSans-Roman-32"/>
     </g>
    </g>
   </g>
   <g id="text_18">
    <!-- $\phi_0 = 0.55$ -->
    <defs>
     <path d="M 10.6875 12.40625 
L 21 12.40625 
L 21 0 
L 10.6875 0 
z
" id="BitstreamVeraSans-Roman-2e"/>
     <path d="M 35.296875 68.296875 
L 35.296875 46 
Q 42.296875 46 46.09375 44.40625 
Q 52.5 41.796875 55.890625 36.046875 
Q 59.296875 30.296875 59.296875 23.09375 
Q 59.296875 18.59375 58 14.5 
Q 56.703125 10.40625 54.046875 6.796875 
Q 51.40625 3.203125 46.546875 1.09375 
Q 41.703125 -1 35.296875 -1 
L 35.296875 -21.703125 
L 26.90625 -21.703125 
L 26.90625 -1 
L 24.5 -1 
Q 14.703125 -1 8.796875 6.140625 
Q 2.90625 13.296875 2.90625 22.796875 
Q 2.90625 32.40625 8.796875 39.203125 
Q 14.703125 46 25.203125 46 
L 26.90625 46 
L 26.90625 68.296875 
z
M 35.203125 1.796875 
L 38.296875 1.796875 
Q 44.296875 1.796875 47.296875 7.046875 
Q 50.296875 12.296875 50.296875 20.40625 
Q 50.296875 29.90625 46.34375 36.546875 
Q 42.40625 43.203125 35.203125 43.203125 
z
M 27 1.796875 
L 27 43.203125 
L 24 43.203125 
Q 18.203125 43.203125 15.046875 39 
Q 11.90625 34.796875 11.90625 27.40625 
Q 11.90625 14.40625 17.296875 6.796875 
Q 20.796875 1.796875 27 1.796875 
" id="STIXGeneral-Regular-3d5"/>
     <path d="M 10.59375 45.40625 
L 73.1875 45.40625 
L 73.1875 37.203125 
L 10.59375 37.203125 
z
M 10.59375 25.484375 
L 73.1875 25.484375 
L 73.1875 17.1875 
L 10.59375 17.1875 
z
" id="BitstreamVeraSans-Roman-3d"/>
    </defs>
    <g transform="translate(116.900625 16.2)scale(0.12 -0.12)">
     <use transform="translate(0.0 0.78125)" xlink:href="#STIXGeneral-Regular-3d5"/>
     <use transform="translate(62.29998779296875 -30.71875)scale(0.7)" xlink:href="#BitstreamVeraSans-Roman-30"/>
     <use transform="translate(145.40545654296875 0.78125)" xlink:href="#BitstreamVeraSans-Roman-3d"/>
     <use transform="translate(227.48162841796875 0.78125)" xlink:href="#BitstreamVeraSans-Roman-30"/>
     <use transform="translate(291.10467529296875 0.78125)" xlink:href="#BitstreamVeraSans-Roman-2e"/>
     <use transform="translate(320.88397216796875 0.78125)" xlink:href="#BitstreamVeraSans-Roman-35"/>
     <use transform="translate(384.50701904296875 0.78125)" xlink:href="#BitstreamVeraSans-Roman-35"/>
    </g>
   </g>
   <g id="legend_1">
    <g id="patch_7">
     <path d="M 36.405625 151.870903 
L 90.240853 151.870903 
L 90.240853 25.365 
L 36.405625 25.365 
z
" style="fill:#ffffff;stroke:#000000;stroke-linejoin:miter;"/>
    </g>
    <g id="text_19">
     <!-- Final $\phi$ -->
     <defs>
      <path d="M 9.8125 72.90625 
L 51.703125 72.90625 
L 51.703125 64.59375 
L 19.671875 64.59375 
L 19.671875 43.109375 
L 48.578125 43.109375 
L 48.578125 34.8125 
L 19.671875 34.8125 
L 19.671875 0 
L 9.8125 0 
z
" id="BitstreamVeraSans-Roman-46"/>
     </defs>
     <g transform="translate(46.7232390625 36.297)scale(0.1 -0.1)">
      <use transform="translate(0.0 0.015625)" xlink:href="#BitstreamVeraSans-Roman-46"/>
      <use transform="translate(57.51953125 0.015625)" xlink:href="#BitstreamVeraSans-Roman-69"/>
      <use transform="translate(85.302734375 0.015625)" xlink:href="#BitstreamVeraSans-Roman-6e"/>
      <use transform="translate(148.681640625 0.015625)" xlink:href="#BitstreamVeraSans-Roman-61"/>
      <use transform="translate(209.9609375 0.015625)" xlink:href="#BitstreamVeraSans-Roman-6c"/>
      <use transform="translate(237.744140625 0.015625)" xlink:href="#BitstreamVeraSans-Roman-20"/>
      <use transform="translate(269.53125 0.015625)" xlink:href="#STIXGeneral-Regular-3d5"/>
     </g>
    </g>
    <g id="line2d_128">
     <path d="M 42.236625 46.075998 
L 53.898625 46.075998 
" style="fill:none;stroke:#4daf4a;stroke-linecap:square;stroke-width:2.0;"/>
    </g>
    <g id="line2d_129"/>
    <g id="text_20">
     <!-- 0.55 -->
     <g transform="translate(63.061625 48.9914984375)scale(0.0833 -0.0833)">
      <use xlink:href="#BitstreamVeraSans-Roman-30"/>
      <use x="63.623046875" xlink:href="#BitstreamVeraSans-Roman-2e"/>
      <use x="95.41015625" xlink:href="#BitstreamVeraSans-Roman-35"/>
      <use x="159.033203125" xlink:href="#BitstreamVeraSans-Roman-35"/>
     </g>
    </g>
    <g id="line2d_130">
     <path d="M 42.236625 58.302877 
L 53.898625 58.302877 
" style="fill:none;stroke:#49a65f;stroke-linecap:square;stroke-width:2.0;"/>
    </g>
    <g id="line2d_131"/>
    <g id="text_21">
     <!-- 0.56 -->
     <g transform="translate(63.061625 61.2183765625)scale(0.0833 -0.0833)">
      <use xlink:href="#BitstreamVeraSans-Roman-30"/>
      <use x="63.623046875" xlink:href="#BitstreamVeraSans-Roman-2e"/>
      <use x="95.41015625" xlink:href="#BitstreamVeraSans-Roman-35"/>
      <use x="159.033203125" xlink:href="#BitstreamVeraSans-Roman-36"/>
     </g>
    </g>
    <g id="line2d_132">
     <path d="M 42.236625 70.529755 
L 53.898625 70.529755 
" style="fill:none;stroke:#459d73;stroke-linecap:square;stroke-width:2.0;"/>
    </g>
    <g id="line2d_133"/>
    <g id="text_22">
     <!-- 0.57 -->
     <g transform="translate(63.061625 73.4452546875)scale(0.0833 -0.0833)">
      <use xlink:href="#BitstreamVeraSans-Roman-30"/>
      <use x="63.623046875" xlink:href="#BitstreamVeraSans-Roman-2e"/>
      <use x="95.41015625" xlink:href="#BitstreamVeraSans-Roman-35"/>
      <use x="159.033203125" xlink:href="#BitstreamVeraSans-Roman-37"/>
     </g>
    </g>
    <g id="line2d_134">
     <path d="M 42.236625 82.756633 
L 53.898625 82.756633 
" style="fill:none;stroke:#419388;stroke-linecap:square;stroke-width:2.0;"/>
    </g>
    <g id="line2d_135"/>
    <g id="text_23">
     <!-- 0.575 -->
     <g transform="translate(63.061625 85.6721328125)scale(0.0833 -0.0833)">
      <use xlink:href="#BitstreamVeraSans-Roman-30"/>
      <use x="63.623046875" xlink:href="#BitstreamVeraSans-Roman-2e"/>
      <use x="95.41015625" xlink:href="#BitstreamVeraSans-Roman-35"/>
      <use x="159.033203125" xlink:href="#BitstreamVeraSans-Roman-37"/>
      <use x="222.65625" xlink:href="#BitstreamVeraSans-Roman-35"/>
     </g>
    </g>
    <g id="line2d_136">
     <path d="M 42.236625 94.983511 
L 53.898625 94.983511 
" style="fill:none;stroke:#3c8a9d;stroke-linecap:square;stroke-width:2.0;"/>
    </g>
    <g id="line2d_137"/>
    <g id="text_24">
     <!-- 0.58 -->
     <g transform="translate(63.061625 97.8990109375)scale(0.0833 -0.0833)">
      <use xlink:href="#BitstreamVeraSans-Roman-30"/>
      <use x="63.623046875" xlink:href="#BitstreamVeraSans-Roman-2e"/>
      <use x="95.41015625" xlink:href="#BitstreamVeraSans-Roman-35"/>
      <use x="159.033203125" xlink:href="#BitstreamVeraSans-Roman-38"/>
     </g>
    </g>
    <g id="line2d_138">
     <path d="M 42.236625 107.210389 
L 53.898625 107.210389 
" style="fill:none;stroke:#4577b5;stroke-linecap:square;stroke-width:2.0;"/>
    </g>
    <g id="line2d_139"/>
    <g id="text_25">
     <!-- 0.585 -->
     <g transform="translate(63.061625 110.125889062)scale(0.0833 -0.0833)">
      <use xlink:href="#BitstreamVeraSans-Roman-30"/>
      <use x="63.623046875" xlink:href="#BitstreamVeraSans-Roman-2e"/>
      <use x="95.41015625" xlink:href="#BitstreamVeraSans-Roman-35"/>
      <use x="159.033203125" xlink:href="#BitstreamVeraSans-Roman-38"/>
      <use x="222.65625" xlink:href="#BitstreamVeraSans-Roman-35"/>
     </g>
    </g>
    <g id="line2d_140">
     <path d="M 42.236625 119.437267 
L 53.898625 119.437267 
" style="fill:none;stroke:#a04995;stroke-linecap:square;stroke-width:2.0;"/>
    </g>
    <g id="line2d_141"/>
    <g id="text_26">
     <!-- 0.59 -->
     <defs>
      <path d="M 10.984375 1.515625 
L 10.984375 10.5 
Q 14.703125 8.734375 18.5 7.8125 
Q 22.3125 6.890625 25.984375 6.890625 
Q 35.75 6.890625 40.890625 13.453125 
Q 46.046875 20.015625 46.78125 33.40625 
Q 43.953125 29.203125 39.59375 26.953125 
Q 35.25 24.703125 29.984375 24.703125 
Q 19.046875 24.703125 12.671875 31.3125 
Q 6.296875 37.9375 6.296875 49.421875 
Q 6.296875 60.640625 12.9375 67.421875 
Q 19.578125 74.21875 30.609375 74.21875 
Q 43.265625 74.21875 49.921875 64.515625 
Q 56.59375 54.828125 56.59375 36.375 
Q 56.59375 19.140625 48.40625 8.859375 
Q 40.234375 -1.421875 26.421875 -1.421875 
Q 22.703125 -1.421875 18.890625 -0.6875 
Q 15.09375 0.046875 10.984375 1.515625 
M 30.609375 32.421875 
Q 37.25 32.421875 41.125 36.953125 
Q 45.015625 41.5 45.015625 49.421875 
Q 45.015625 57.28125 41.125 61.84375 
Q 37.25 66.40625 30.609375 66.40625 
Q 23.96875 66.40625 20.09375 61.84375 
Q 16.21875 57.28125 16.21875 49.421875 
Q 16.21875 41.5 20.09375 36.953125 
Q 23.96875 32.421875 30.609375 32.421875 
" id="BitstreamVeraSans-Roman-39"/>
     </defs>
     <g transform="translate(63.061625 122.352767187)scale(0.0833 -0.0833)">
      <use xlink:href="#BitstreamVeraSans-Roman-30"/>
      <use x="63.623046875" xlink:href="#BitstreamVeraSans-Roman-2e"/>
      <use x="95.41015625" xlink:href="#BitstreamVeraSans-Roman-35"/>
      <use x="159.033203125" xlink:href="#BitstreamVeraSans-Roman-39"/>
     </g>
    </g>
    <g id="line2d_142">
     <path d="M 42.236625 131.664145 
L 53.898625 131.664145 
" style="fill:none;stroke:#e6201a;stroke-linecap:square;stroke-width:2.0;"/>
    </g>
    <g id="line2d_143"/>
    <g id="text_27">
     <!-- 0.595 -->
     <g transform="translate(63.061625 134.579645312)scale(0.0833 -0.0833)">
      <use xlink:href="#BitstreamVeraSans-Roman-30"/>
      <use x="63.623046875" xlink:href="#BitstreamVeraSans-Roman-2e"/>
      <use x="95.41015625" xlink:href="#BitstreamVeraSans-Roman-35"/>
      <use x="159.033203125" xlink:href="#BitstreamVeraSans-Roman-39"/>
      <use x="222.65625" xlink:href="#BitstreamVeraSans-Roman-35"/>
     </g>
    </g>
    <g id="line2d_144">
     <path d="M 42.236625 143.891023 
L 53.898625 143.891023 
" style="fill:none;stroke:#ff7f00;stroke-linecap:square;stroke-width:2.0;"/>
    </g>
    <g id="line2d_145"/>
    <g id="text_28">
     <!-- 0.6 -->
     <g transform="translate(63.061625 146.806523437)scale(0.0833 -0.0833)">
      <use xlink:href="#BitstreamVeraSans-Roman-30"/>
      <use x="63.623046875" xlink:href="#BitstreamVeraSans-Roman-2e"/>
      <use x="95.41015625" xlink:href="#BitstreamVeraSans-Roman-36"/>
     </g>
    </g>
   </g>
  </g>
 </g>
 <defs>
  <clipPath id="pca945c10e0">
   <rect height="172.8" width="223.2" x="32.240625" y="21.2"/>
  </clipPath>
 </defs>
</svg>
