<?xml version="1.0" encoding="utf-8" standalone="no"?>
<!DOCTYPE svg PUBLIC "-//W3C//DTD SVG 1.1//EN"
  "http://www.w3.org/Graphics/SVG/1.1/DTD/svg11.dtd">
<!-- Created with matplotlib (http://matplotlib.org/) -->
<svg height="230pt" version="1.1" viewBox="0 0 262 230" width="262pt" xmlns="http://www.w3.org/2000/svg" xmlns:xlink="http://www.w3.org/1999/xlink">
 <defs>
  <style type="text/css">
*{stroke-linecap:butt;stroke-linejoin:round;stroke-miterlimit:100000;}
  </style>
 </defs>
 <g id="figure_1">
  <g id="patch_1">
   <path d="M 0 230.578125 
L 262.640625 230.578125 
L 262.640625 0 
L 0 0 
z
" style="fill:#ffffff;"/>
  </g>
  <g id="axes_1">
   <g id="patch_2">
    <path d="M 32.240625 194 
L 255.440625 194 
L 255.440625 21.2 
L 32.240625 21.2 
z
" style="fill:#ffffff;"/>
   </g>
   <g id="line2d_1">
    <path clip-path="url(#p6b6baf2b16)" d="M 32.240625 158.972085 
L 44.030456 159.008638 
L 50.927066 159.5825 
L 55.820288 159.204002 
L 59.615766 159.27065 
L 62.716897 159.42925 
L 65.338866 158.854308 
L 67.610119 158.971626 
L 69.613506 158.292734 
L 71.405597 158.578262 
L 73.02674 159.611832 
L 75.868185 159.864039 
L 77.128697 160.415165 
L 79.39995 160.178854 
L 81.403337 160.407623 
L 84.025307 161.245796 
L 86.296559 159.925973 
L 88.299947 160.529589 
L 90.092037 158.285127 
L 92.220954 159.080486 
L 94.112805 158.538315 
L 96.215371 156.145405 
L 98.437107 157.552139 
L 100.401881 156.518839 
L 102.439595 158.43938 
L 104.503838 158.358812 
L 106.561137 159.368324 
L 108.778478 158.06911 
L 110.739815 158.349801 
L 112.799246 158.799373 
L 114.901812 159.471865 
L 117.007444 157.295669 
L 119.088321 158.77013 
L 121.126036 156.622895 
L 123.190278 157.015931 
L 125.247577 158.43235 
L 127.338456 157.528147 
L 129.370027 156.911345 
L 131.435879 156.840069 
L 133.500122 157.898122 
L 135.576983 159.504978 
L 137.636756 158.128523 
L 139.720783 161.186555 
L 141.76838 160.004005 
L 143.838056 159.837905 
L 145.897487 158.356725 
L 147.981206 155.541259 
L 150.038982 157.694185 
L 152.11277 159.753196 
L 154.171941 158.60652 
L 156.242173 157.534097 
L 158.304758 157.786689 
L 160.373111 154.444105 
L 162.444113 153.740652 
L 164.505593 154.762464 
L 166.573099 156.345181 
L 168.641675 154.484831 
L 170.705278 160.651995 
L 172.775186 159.157919 
L 174.839428 158.479905 
L 176.90878 152.756466 
L 178.9744 158.01683 
L 181.041691 158.017639 
L 183.106165 155.651755 
L 185.172935 151.278316 
L 187.240203 159.189767 
L 189.307232 159.626895 
L 191.37361 154.620467 
L 193.440121 158.253236 
L 195.507787 160.670754 
L 197.574238 155.589459 
L 199.640611 156.841815 
L 201.707102 157.410563 
L 203.773748 152.736072 
L 205.840788 152.513441 
L 207.907095 162.084041 
L 209.97404 160.327459 
L 212.040816 152.193372 
L 214.107116 158.106907 
L 216.173975 159.866383 
L 218.240594 158.992709 
L 220.307339 159.761588 
L 222.37389 159.709795 
L 224.440726 150.834636 
L 226.50726 163.236142 
L 228.574033 160.306456 
L 230.640638 155.475201 
L 232.707291 160.031774 
L 234.773957 160.882847 
L 236.840643 157.206732 
L 238.907317 161.379194 
L 240.97399 156.888347 
L 243.040646 156.465611 
L 245.107298 161.06794 
L 247.173971 153.134067 
L 249.240605 162.092665 
L 251.307287 157.647235 
L 253.373957 157.36013 
L 255.440625 156.287623 
" style="fill:none;stroke:#4daf4a;stroke-linecap:square;stroke-width:2.0;"/>
   </g>
   <g id="line2d_2">
    <path clip-path="url(#p6b6baf2b16)" d="M 32.240625 155.013257 
L 44.030456 155.983351 
L 50.927066 155.16566 
L 55.820288 155.222809 
L 59.615766 155.563278 
L 62.716897 155.244676 
L 65.338866 154.058982 
L 67.610119 154.818836 
L 69.613506 155.266501 
L 71.405597 156.188384 
L 73.02674 156.210608 
L 75.868185 155.41903 
L 77.128697 156.177363 
L 79.39995 156.992601 
L 81.403337 156.237997 
L 84.025307 155.445134 
L 86.296559 154.99311 
L 88.299947 157.04935 
L 90.092037 156.516882 
L 92.220954 156.422776 
L 94.112805 157.321101 
L 96.215371 156.419621 
L 98.437107 156.05406 
L 100.401881 154.576564 
L 102.439595 157.252768 
L 104.503838 155.63926 
L 106.561137 157.018414 
L 108.778478 157.453338 
L 110.739815 158.89669 
L 112.799246 153.633899 
L 114.901812 157.236898 
L 117.007444 157.545708 
L 119.088321 152.340906 
L 121.126036 145.220623 
L 123.190278 153.97759 
L 125.247577 153.648653 
L 127.338456 152.120211 
L 129.370027 155.421686 
L 131.435879 155.197159 
L 133.500122 152.454873 
L 135.576983 154.147451 
L 137.636756 151.642068 
L 139.720783 154.34585 
L 141.76838 150.479391 
L 143.838056 155.562991 
L 145.897487 152.403035 
L 147.981206 154.112497 
L 150.038982 153.053645 
L 152.11277 152.481515 
L 154.171941 148.098291 
L 156.242173 148.568508 
L 158.304758 148.880678 
L 160.373111 149.280778 
L 162.444113 149.599792 
L 164.505593 148.41288 
L 166.573099 149.489787 
L 168.641675 148.866924 
L 170.705278 151.559971 
L 172.775186 154.829412 
L 174.839428 144.248839 
L 176.90878 143.101572 
L 178.9744 147.192285 
L 181.041691 149.745044 
L 183.106165 146.729049 
L 185.172935 149.216393 
L 187.240203 143.947603 
L 189.307232 150.626704 
L 191.37361 143.916056 
L 193.440121 146.436878 
L 195.507787 132.916905 
L 197.574238 148.571652 
L 199.640611 143.725859 
L 201.707102 151.049968 
L 203.773748 146.90602 
L 205.840788 150.033504 
L 207.907095 149.549002 
L 209.97404 144.790524 
L 212.040816 149.617183 
L 214.107116 148.036854 
L 216.173975 145.845853 
L 218.240594 143.099842 
L 220.307339 142.452847 
L 222.37389 140.777779 
L 224.440726 148.175401 
L 226.50726 143.28517 
L 228.574033 141.260215 
L 230.640638 136.619164 
L 232.707291 142.744526 
L 234.773957 143.696265 
L 236.840643 145.861264 
L 238.907317 150.383706 
L 240.97399 146.087353 
L 243.040646 143.176047 
L 245.107298 144.522066 
L 247.173971 134.244299 
L 249.240605 138.747972 
L 251.307287 139.226308 
L 253.373957 135.807379 
L 255.440625 145.307939 
" style="fill:none;stroke:#43987e;stroke-linecap:square;stroke-width:2.0;"/>
   </g>
   <g id="line2d_3">
    <path clip-path="url(#p6b6baf2b16)" d="M 32.240625 154.118781 
L 44.030456 153.737061 
L 50.927066 152.528465 
L 55.820288 152.236207 
L 59.615766 152.400314 
L 62.716897 151.80272 
L 65.338866 151.183358 
L 67.610119 151.324078 
L 69.613506 152.10258 
L 71.405597 151.25262 
L 73.02674 151.977088 
L 75.868185 149.577582 
L 77.128697 151.058435 
L 79.39995 151.633258 
L 81.403337 153.08337 
L 84.025307 150.653311 
L 86.296559 151.35545 
L 88.299947 150.884207 
L 90.092037 152.698517 
L 92.220954 152.265788 
L 94.112805 151.176875 
L 96.215371 152.669361 
L 98.437107 151.452988 
L 100.401881 150.757104 
L 102.439595 152.540307 
L 104.503838 149.707454 
L 106.561137 149.26954 
L 108.778478 148.060418 
L 110.739815 147.923808 
L 112.799246 150.711296 
L 114.901812 149.260053 
L 117.007444 151.14869 
L 119.088321 151.236207 
L 121.126036 150.293083 
L 123.190278 147.333979 
L 125.247577 147.5259 
L 127.338456 147.13435 
L 129.370027 148.885941 
L 131.435879 147.122557 
L 133.500122 149.863975 
L 135.576983 145.945884 
L 137.636756 147.488432 
L 139.720783 146.868713 
L 141.76838 147.751472 
L 143.838056 144.150721 
L 145.897487 145.636867 
L 147.981206 144.373903 
L 150.038982 146.299916 
L 152.11277 142.260006 
L 154.171941 145.566505 
L 156.242173 147.30065 
L 158.304758 144.654408 
L 160.373111 147.928425 
L 162.444113 144.523836 
L 164.505593 150.809145 
L 166.573099 142.50419 
L 168.641675 139.218222 
L 170.705278 142.69455 
L 172.775186 146.392233 
L 174.839428 140.159796 
L 176.90878 146.922033 
L 178.9744 141.25878 
L 181.041691 133.424356 
L 183.106165 139.620011 
L 185.172935 140.137534 
L 187.240203 140.812365 
L 189.307232 140.571751 
L 191.37361 138.827927 
L 193.440121 142.66518 
L 195.507787 133.719944 
L 197.574238 127.284883 
L 199.640611 129.394667 
L 201.707102 129.681229 
L 203.773748 137.931855 
L 205.840788 127.891696 
L 207.907095 134.742852 
L 209.97404 132.042746 
L 212.040816 114.23588 
L 214.107116 131.417815 
L 216.173975 131.492761 
L 218.240594 131.390257 
L 220.307339 138.154655 
L 222.37389 129.539437 
L 224.440726 126.651304 
L 226.50726 128.999684 
L 228.574033 124.938296 
L 230.640638 131.147328 
L 232.707291 132.399551 
L 234.773957 121.111576 
L 236.840643 99.66111 
L 238.907317 128.977269 
L 240.97399 127.644788 
L 243.040646 134.568035 
L 245.107298 130.877608 
L 247.173971 119.326415 
L 249.240605 118.628179 
L 251.307287 118.43411 
L 253.373957 129.656303 
L 255.440625 109.448635 
" style="fill:none;stroke:#765faa;stroke-linecap:square;stroke-width:2.0;"/>
   </g>
   <g id="line2d_4">
    <path clip-path="url(#p6b6baf2b16)" d="M 32.240625 139.592778 
L 44.030456 139.430516 
L 50.927066 140.18858 
L 55.820288 140.559761 
L 59.615766 140.719704 
L 62.716897 141.544216 
L 65.338866 140.88602 
L 67.610119 142.525191 
L 69.613506 141.737512 
L 71.405597 140.237276 
L 73.02674 139.993365 
L 75.868185 140.45008 
L 77.128697 140.975263 
L 79.39995 139.270701 
L 81.403337 138.117018 
L 84.025307 140.645629 
L 86.296559 138.985792 
L 88.299947 137.408541 
L 90.092037 137.641061 
L 92.220954 138.020574 
L 94.112805 138.283286 
L 96.215371 138.437649 
L 98.437107 135.686027 
L 100.401881 136.881721 
L 102.439595 137.2086 
L 104.503838 139.023316 
L 106.561137 139.050942 
L 108.778478 140.742389 
L 110.739815 140.938957 
L 112.799246 141.411199 
L 114.901812 140.396655 
L 117.007444 139.658234 
L 119.088321 136.57766 
L 121.126036 135.840129 
L 123.190278 138.613401 
L 125.247577 135.933763 
L 127.338456 131.409839 
L 129.370027 131.17547 
L 131.435879 133.260015 
L 133.500122 134.717247 
L 135.576983 136.71418 
L 137.636756 134.619731 
L 139.720783 130.293333 
L 141.76838 131.979853 
L 143.838056 128.480408 
L 145.897487 125.916044 
L 147.981206 125.520798 
L 150.038982 122.118944 
L 152.11277 126.579188 
L 154.171941 127.113869 
L 156.242173 130.624186 
L 158.304758 121.491921 
L 160.373111 125.955906 
L 162.444113 122.915482 
L 164.505593 134.332331 
L 166.573099 133.135311 
L 168.641675 127.504388 
L 170.705278 131.527303 
L 172.775186 130.743266 
L 174.839428 133.457967 
L 176.90878 132.363668 
L 178.9744 125.076058 
L 181.041691 130.096813 
L 183.106165 119.4741 
L 185.172935 118.647242 
L 187.240203 132.801273 
L 189.307232 127.773274 
L 191.37361 119.925303 
L 193.440121 112.804926 
L 195.507787 125.162718 
L 197.574238 122.086398 
L 199.640611 129.376834 
L 201.707102 86.355152 
L 203.773748 130.347455 
L 205.840788 118.020102 
L 207.907095 126.689552 
L 209.97404 127.069802 
L 212.040816 110.478655 
L 214.107116 121.028784 
L 216.173975 94.081183 
L 218.240594 122.545954 
L 220.307339 114.312039 
L 222.37389 104.153705 
L 224.440726 99.4805 
L 226.50726 78.010594 
L 228.574033 101.037153 
L 230.480618 -1 
M 230.783084 -1 
L 232.707291 114.685556 
L 234.773957 73.259364 
L 236.840643 99.938444 
L 238.907317 96.386134 
L 240.97399 99.847251 
L 243.040646 88.440568 
L 245.107298 99.260421 
L 247.173971 107.873118 
L 249.240605 94.226613 
L 251.307287 94.49448 
L 253.373957 86.72443 
L 255.440625 96.471446 
" style="fill:none;stroke:#d72334;stroke-linecap:square;stroke-width:2.0;"/>
   </g>
   <g id="line2d_5">
    <path clip-path="url(#p6b6baf2b16)" d="M 32.240625 146.159533 
L 44.030456 145.042406 
L 50.927066 145.825705 
L 55.820288 145.736525 
L 59.615766 144.692069 
L 62.716897 145.763746 
L 65.338866 144.255902 
L 67.610119 143.766535 
L 69.613506 141.918031 
L 71.405597 144.162546 
L 73.02674 142.979099 
L 75.868185 144.163153 
L 77.128697 144.574311 
L 79.39995 142.972167 
L 81.403337 141.795005 
L 84.025307 141.328854 
L 86.296559 142.052106 
L 88.299947 141.595399 
L 90.092037 139.329926 
L 92.220954 140.285531 
L 94.112805 138.961534 
L 96.215371 137.694769 
L 98.437107 136.868175 
L 100.401881 140.135173 
L 102.439595 141.106363 
L 104.503838 142.491863 
L 106.561137 141.264323 
L 108.778478 138.7876 
L 110.739815 135.006488 
L 112.799246 138.194592 
L 114.901812 138.060406 
L 117.007444 136.083391 
L 119.088321 131.924001 
L 121.126036 134.670677 
L 123.190278 134.613717 
L 125.247577 127.603466 
L 127.338456 134.870383 
L 129.370027 128.44774 
L 131.435879 129.257998 
L 133.500122 132.815952 
L 135.576983 135.352588 
L 137.636756 132.651422 
L 139.720783 127.938649 
L 141.76838 126.946427 
L 143.838056 130.876162 
L 145.897487 118.78588 
L 147.981206 120.342234 
L 150.038982 122.682181 
L 152.11277 122.834499 
L 154.171941 116.584705 
L 156.242173 119.311373 
L 158.304758 121.985168 
L 160.373111 117.060663 
L 162.444113 110.892688 
L 164.505593 118.295783 
L 166.573099 123.478768 
L 168.641675 126.890703 
L 170.705278 119.833942 
L 172.775186 124.653137 
L 174.839428 120.606011 
L 176.90878 123.761438 
L 178.9744 124.549301 
L 181.041691 119.356132 
L 183.106165 115.131376 
L 185.172935 125.425405 
L 187.240203 113.245175 
L 189.307232 109.890517 
L 191.37361 119.711254 
L 193.440121 127.301136 
L 195.507787 120.822126 
L 197.574238 106.434345 
L 199.640611 119.83921 
L 201.707102 117.370753 
L 203.773748 118.604072 
L 205.840788 98.87455 
L 207.907095 119.402287 
L 209.97404 98.47126 
L 212.040816 103.538979 
L 214.107116 109.856569 
L 216.173975 109.212846 
L 218.240594 102.151768 
L 220.307339 89.821289 
L 222.37389 101.11951 
L 224.440726 103.104436 
L 226.50726 92.582402 
L 228.574033 86.309171 
L 230.640638 78.659081 
L 232.707291 91.554341 
L 234.773957 75.347734 
L 236.840643 93.554506 
L 238.907317 89.385233 
L 240.97399 91.954368 
L 243.040646 91.666744 
L 245.107298 99.746584 
L 247.173971 70.117555 
L 249.240605 5.564483 
L 251.307287 73.175476 
L 253.373957 100.235618 
L 255.440625 94.884523 
" style="fill:none;stroke:#ff7f00;stroke-linecap:square;stroke-width:2.0;"/>
   </g>
   <g id="patch_3">
    <path d="M 32.240625 194 
L 32.240625 21.2 
" style="fill:none;stroke:#000000;stroke-linecap:square;stroke-linejoin:miter;"/>
   </g>
   <g id="patch_4">
    <path d="M 32.240625 194 
L 255.440625 194 
" style="fill:none;stroke:#000000;stroke-linecap:square;stroke-linejoin:miter;"/>
   </g>
   <g id="patch_5">
    <path d="M 255.440625 194 
L 255.440625 21.2 
" style="fill:none;stroke:#000000;stroke-linecap:square;stroke-linejoin:miter;"/>
   </g>
   <g id="patch_6">
    <path d="M 32.240625 21.2 
L 255.440625 21.2 
" style="fill:none;stroke:#000000;stroke-linecap:square;stroke-linejoin:miter;"/>
   </g>
   <g id="matplotlib.axis_1">
    <g id="xtick_1">
     <g id="line2d_6">
      <defs>
       <path d="M 0 0 
L 0 -4 
" id="m28be887e27" style="stroke:#000000;stroke-width:0.5;"/>
      </defs>
      <g>
       <use style="stroke:#000000;stroke-width:0.5;" x="32.240625" xlink:href="#m28be887e27" y="194.0"/>
      </g>
     </g>
     <g id="line2d_7">
      <defs>
       <path d="M 0 0 
L 0 4 
" id="mc7586d0878" style="stroke:#000000;stroke-width:0.5;"/>
      </defs>
      <g>
       <use style="stroke:#000000;stroke-width:0.5;" x="32.240625" xlink:href="#mc7586d0878" y="21.2"/>
      </g>
     </g>
     <g id="text_1">
      <!-- $\mathdefault{10^{-1}}$ -->
      <defs>
       <path d="M 4.890625 31.390625 
L 31.203125 31.390625 
L 31.203125 23.390625 
L 4.890625 23.390625 
z
" id="BitstreamVeraSans-Roman-2d"/>
       <path d="M 31.78125 66.40625 
Q 24.171875 66.40625 20.328125 58.90625 
Q 16.5 51.421875 16.5 36.375 
Q 16.5 21.390625 20.328125 13.890625 
Q 24.171875 6.390625 31.78125 6.390625 
Q 39.453125 6.390625 43.28125 13.890625 
Q 47.125 21.390625 47.125 36.375 
Q 47.125 51.421875 43.28125 58.90625 
Q 39.453125 66.40625 31.78125 66.40625 
M 31.78125 74.21875 
Q 44.046875 74.21875 50.515625 64.515625 
Q 56.984375 54.828125 56.984375 36.375 
Q 56.984375 17.96875 50.515625 8.265625 
Q 44.046875 -1.421875 31.78125 -1.421875 
Q 19.53125 -1.421875 13.0625 8.265625 
Q 6.59375 17.96875 6.59375 36.375 
Q 6.59375 54.828125 13.0625 64.515625 
Q 19.53125 74.21875 31.78125 74.21875 
" id="BitstreamVeraSans-Roman-30"/>
       <path d="M 12.40625 8.296875 
L 28.515625 8.296875 
L 28.515625 63.921875 
L 10.984375 60.40625 
L 10.984375 69.390625 
L 28.421875 72.90625 
L 38.28125 72.90625 
L 38.28125 8.296875 
L 54.390625 8.296875 
L 54.390625 0 
L 12.40625 0 
z
" id="BitstreamVeraSans-Roman-31"/>
      </defs>
      <g transform="translate(22.340625 206.5203125)scale(0.1 -0.1)">
       <use transform="translate(0.0 0.46562500000000284)" xlink:href="#BitstreamVeraSans-Roman-31"/>
       <use transform="translate(63.623046875 0.46562500000000284)" xlink:href="#BitstreamVeraSans-Roman-30"/>
       <use transform="translate(127.24609375 52.965625)scale(0.7)" xlink:href="#BitstreamVeraSans-Roman-2d"/>
       <use transform="translate(152.5048828125 52.965625)scale(0.7)" xlink:href="#BitstreamVeraSans-Roman-31"/>
      </g>
     </g>
    </g>
    <g id="xtick_2">
     <g id="line2d_8">
      <g>
       <use style="stroke:#000000;stroke-width:0.5;" x="71.4055968862" xlink:href="#m28be887e27" y="194.0"/>
      </g>
     </g>
     <g id="line2d_9">
      <g>
       <use style="stroke:#000000;stroke-width:0.5;" x="71.4055968862" xlink:href="#mc7586d0878" y="21.2"/>
      </g>
     </g>
     <g id="text_2">
      <!-- $\mathdefault{10^{0}}$ -->
      <g transform="translate(62.8055968862 206.6203125)scale(0.1 -0.1)">
       <use transform="translate(0.0 0.546875)" xlink:href="#BitstreamVeraSans-Roman-31"/>
       <use transform="translate(63.623046875 0.546875)" xlink:href="#BitstreamVeraSans-Roman-30"/>
       <use transform="translate(127.24609375 53.046875)scale(0.7)" xlink:href="#BitstreamVeraSans-Roman-30"/>
      </g>
     </g>
    </g>
    <g id="xtick_3">
     <g id="line2d_10">
      <g>
       <use style="stroke:#000000;stroke-width:0.5;" x="110.570568772" xlink:href="#m28be887e27" y="194.0"/>
      </g>
     </g>
     <g id="line2d_11">
      <g>
       <use style="stroke:#000000;stroke-width:0.5;" x="110.570568772" xlink:href="#mc7586d0878" y="21.2"/>
      </g>
     </g>
     <g id="text_3">
      <!-- $\mathdefault{10^{1}}$ -->
      <g transform="translate(101.970568772 206.5203125)scale(0.1 -0.1)">
       <use transform="translate(0.0 0.46562500000000284)" xlink:href="#BitstreamVeraSans-Roman-31"/>
       <use transform="translate(63.623046875 0.46562500000000284)" xlink:href="#BitstreamVeraSans-Roman-30"/>
       <use transform="translate(127.24609375 52.965625)scale(0.7)" xlink:href="#BitstreamVeraSans-Roman-31"/>
      </g>
     </g>
    </g>
    <g id="xtick_4">
     <g id="line2d_12">
      <g>
       <use style="stroke:#000000;stroke-width:0.5;" x="149.735540659" xlink:href="#m28be887e27" y="194.0"/>
      </g>
     </g>
     <g id="line2d_13">
      <g>
       <use style="stroke:#000000;stroke-width:0.5;" x="149.735540659" xlink:href="#mc7586d0878" y="21.2"/>
      </g>
     </g>
     <g id="text_4">
      <!-- $\mathdefault{10^{2}}$ -->
      <defs>
       <path d="M 19.1875 8.296875 
L 53.609375 8.296875 
L 53.609375 0 
L 7.328125 0 
L 7.328125 8.296875 
Q 12.9375 14.109375 22.625 23.890625 
Q 32.328125 33.6875 34.8125 36.53125 
Q 39.546875 41.84375 41.421875 45.53125 
Q 43.3125 49.21875 43.3125 52.78125 
Q 43.3125 58.59375 39.234375 62.25 
Q 35.15625 65.921875 28.609375 65.921875 
Q 23.96875 65.921875 18.8125 64.3125 
Q 13.671875 62.703125 7.8125 59.421875 
L 7.8125 69.390625 
Q 13.765625 71.78125 18.9375 73 
Q 24.125 74.21875 28.421875 74.21875 
Q 39.75 74.21875 46.484375 68.546875 
Q 53.21875 62.890625 53.21875 53.421875 
Q 53.21875 48.921875 51.53125 44.890625 
Q 49.859375 40.875 45.40625 35.40625 
Q 44.1875 33.984375 37.640625 27.21875 
Q 31.109375 20.453125 19.1875 8.296875 
" id="BitstreamVeraSans-Roman-32"/>
      </defs>
      <g transform="translate(141.135540659 206.6203125)scale(0.1 -0.1)">
       <use transform="translate(0.0 0.546875)" xlink:href="#BitstreamVeraSans-Roman-31"/>
       <use transform="translate(63.623046875 0.546875)" xlink:href="#BitstreamVeraSans-Roman-30"/>
       <use transform="translate(127.24609375 53.046875)scale(0.7)" xlink:href="#BitstreamVeraSans-Roman-32"/>
      </g>
     </g>
    </g>
    <g id="xtick_5">
     <g id="line2d_14">
      <g>
       <use style="stroke:#000000;stroke-width:0.5;" x="188.900512545" xlink:href="#m28be887e27" y="194.0"/>
      </g>
     </g>
     <g id="line2d_15">
      <g>
       <use style="stroke:#000000;stroke-width:0.5;" x="188.900512545" xlink:href="#mc7586d0878" y="21.2"/>
      </g>
     </g>
     <g id="text_5">
      <!-- $\mathdefault{10^{3}}$ -->
      <defs>
       <path d="M 40.578125 39.3125 
Q 47.65625 37.796875 51.625 33 
Q 55.609375 28.21875 55.609375 21.1875 
Q 55.609375 10.40625 48.1875 4.484375 
Q 40.765625 -1.421875 27.09375 -1.421875 
Q 22.515625 -1.421875 17.65625 -0.515625 
Q 12.796875 0.390625 7.625 2.203125 
L 7.625 11.71875 
Q 11.71875 9.328125 16.59375 8.109375 
Q 21.484375 6.890625 26.8125 6.890625 
Q 36.078125 6.890625 40.9375 10.546875 
Q 45.796875 14.203125 45.796875 21.1875 
Q 45.796875 27.640625 41.28125 31.265625 
Q 36.765625 34.90625 28.71875 34.90625 
L 20.21875 34.90625 
L 20.21875 43.015625 
L 29.109375 43.015625 
Q 36.375 43.015625 40.234375 45.921875 
Q 44.09375 48.828125 44.09375 54.296875 
Q 44.09375 59.90625 40.109375 62.90625 
Q 36.140625 65.921875 28.71875 65.921875 
Q 24.65625 65.921875 20.015625 65.03125 
Q 15.375 64.15625 9.8125 62.3125 
L 9.8125 71.09375 
Q 15.4375 72.65625 20.34375 73.4375 
Q 25.25 74.21875 29.59375 74.21875 
Q 40.828125 74.21875 47.359375 69.109375 
Q 53.90625 64.015625 53.90625 55.328125 
Q 53.90625 49.265625 50.4375 45.09375 
Q 46.96875 40.921875 40.578125 39.3125 
" id="BitstreamVeraSans-Roman-33"/>
      </defs>
      <g transform="translate(180.300512545 206.6203125)scale(0.1 -0.1)">
       <use transform="translate(0.0 0.546875)" xlink:href="#BitstreamVeraSans-Roman-31"/>
       <use transform="translate(63.623046875 0.546875)" xlink:href="#BitstreamVeraSans-Roman-30"/>
       <use transform="translate(127.24609375 53.046875)scale(0.7)" xlink:href="#BitstreamVeraSans-Roman-33"/>
      </g>
     </g>
    </g>
    <g id="xtick_6">
     <g id="line2d_16">
      <g>
       <use style="stroke:#000000;stroke-width:0.5;" x="228.065484431" xlink:href="#m28be887e27" y="194.0"/>
      </g>
     </g>
     <g id="line2d_17">
      <g>
       <use style="stroke:#000000;stroke-width:0.5;" x="228.065484431" xlink:href="#mc7586d0878" y="21.2"/>
      </g>
     </g>
     <g id="text_6">
      <!-- $\mathdefault{10^{4}}$ -->
      <defs>
       <path d="M 37.796875 64.3125 
L 12.890625 25.390625 
L 37.796875 25.390625 
z
M 35.203125 72.90625 
L 47.609375 72.90625 
L 47.609375 25.390625 
L 58.015625 25.390625 
L 58.015625 17.1875 
L 47.609375 17.1875 
L 47.609375 0 
L 37.796875 0 
L 37.796875 17.1875 
L 4.890625 17.1875 
L 4.890625 26.703125 
z
" id="BitstreamVeraSans-Roman-34"/>
      </defs>
      <g transform="translate(219.465484431 206.5203125)scale(0.1 -0.1)">
       <use transform="translate(0.0 0.46562500000000284)" xlink:href="#BitstreamVeraSans-Roman-31"/>
       <use transform="translate(63.623046875 0.46562500000000284)" xlink:href="#BitstreamVeraSans-Roman-30"/>
       <use transform="translate(127.24609375 52.965625)scale(0.7)" xlink:href="#BitstreamVeraSans-Roman-34"/>
      </g>
     </g>
    </g>
    <g id="xtick_7">
     <g id="line2d_18">
      <defs>
       <path d="M 0 0 
L 0 -2 
" id="m4827faeb94" style="stroke:#000000;stroke-width:0.5;"/>
      </defs>
      <g>
       <use style="stroke:#000000;stroke-width:0.5;" x="44.0304563171" xlink:href="#m4827faeb94" y="194.0"/>
      </g>
     </g>
     <g id="line2d_19">
      <defs>
       <path d="M 0 0 
L 0 2 
" id="m2bc0c1133f" style="stroke:#000000;stroke-width:0.5;"/>
      </defs>
      <g>
       <use style="stroke:#000000;stroke-width:0.5;" x="44.0304563171" xlink:href="#m2bc0c1133f" y="21.2"/>
      </g>
     </g>
    </g>
    <g id="xtick_8">
     <g id="line2d_20">
      <g>
       <use style="stroke:#000000;stroke-width:0.5;" x="50.9270655274" xlink:href="#m4827faeb94" y="194.0"/>
      </g>
     </g>
     <g id="line2d_21">
      <g>
       <use style="stroke:#000000;stroke-width:0.5;" x="50.9270655274" xlink:href="#m2bc0c1133f" y="21.2"/>
      </g>
     </g>
    </g>
    <g id="xtick_9">
     <g id="line2d_22">
      <g>
       <use style="stroke:#000000;stroke-width:0.5;" x="55.8202876342" xlink:href="#m4827faeb94" y="194.0"/>
      </g>
     </g>
     <g id="line2d_23">
      <g>
       <use style="stroke:#000000;stroke-width:0.5;" x="55.8202876342" xlink:href="#m2bc0c1133f" y="21.2"/>
      </g>
     </g>
    </g>
    <g id="xtick_10">
     <g id="line2d_24">
      <g>
       <use style="stroke:#000000;stroke-width:0.5;" x="59.6157655691" xlink:href="#m4827faeb94" y="194.0"/>
      </g>
     </g>
     <g id="line2d_25">
      <g>
       <use style="stroke:#000000;stroke-width:0.5;" x="59.6157655691" xlink:href="#m2bc0c1133f" y="21.2"/>
      </g>
     </g>
    </g>
    <g id="xtick_11">
     <g id="line2d_26">
      <g>
       <use style="stroke:#000000;stroke-width:0.5;" x="62.7168968445" xlink:href="#m4827faeb94" y="194.0"/>
      </g>
     </g>
     <g id="line2d_27">
      <g>
       <use style="stroke:#000000;stroke-width:0.5;" x="62.7168968445" xlink:href="#m2bc0c1133f" y="21.2"/>
      </g>
     </g>
    </g>
    <g id="xtick_12">
     <g id="line2d_28">
      <g>
       <use style="stroke:#000000;stroke-width:0.5;" x="65.3388659782" xlink:href="#m4827faeb94" y="194.0"/>
      </g>
     </g>
     <g id="line2d_29">
      <g>
       <use style="stroke:#000000;stroke-width:0.5;" x="65.3388659782" xlink:href="#m2bc0c1133f" y="21.2"/>
      </g>
     </g>
    </g>
    <g id="xtick_13">
     <g id="line2d_30">
      <g>
       <use style="stroke:#000000;stroke-width:0.5;" x="67.6101189512" xlink:href="#m4827faeb94" y="194.0"/>
      </g>
     </g>
     <g id="line2d_31">
      <g>
       <use style="stroke:#000000;stroke-width:0.5;" x="67.6101189512" xlink:href="#m2bc0c1133f" y="21.2"/>
      </g>
     </g>
    </g>
    <g id="xtick_14">
     <g id="line2d_32">
      <g>
       <use style="stroke:#000000;stroke-width:0.5;" x="69.6135060548" xlink:href="#m4827faeb94" y="194.0"/>
      </g>
     </g>
     <g id="line2d_33">
      <g>
       <use style="stroke:#000000;stroke-width:0.5;" x="69.6135060548" xlink:href="#m2bc0c1133f" y="21.2"/>
      </g>
     </g>
    </g>
    <g id="xtick_15">
     <g id="line2d_34">
      <g>
       <use style="stroke:#000000;stroke-width:0.5;" x="83.1954282033" xlink:href="#m4827faeb94" y="194.0"/>
      </g>
     </g>
     <g id="line2d_35">
      <g>
       <use style="stroke:#000000;stroke-width:0.5;" x="83.1954282033" xlink:href="#m2bc0c1133f" y="21.2"/>
      </g>
     </g>
    </g>
    <g id="xtick_16">
     <g id="line2d_36">
      <g>
       <use style="stroke:#000000;stroke-width:0.5;" x="90.0920374136" xlink:href="#m4827faeb94" y="194.0"/>
      </g>
     </g>
     <g id="line2d_37">
      <g>
       <use style="stroke:#000000;stroke-width:0.5;" x="90.0920374136" xlink:href="#m2bc0c1133f" y="21.2"/>
      </g>
     </g>
    </g>
    <g id="xtick_17">
     <g id="line2d_38">
      <g>
       <use style="stroke:#000000;stroke-width:0.5;" x="94.9852595203" xlink:href="#m4827faeb94" y="194.0"/>
      </g>
     </g>
     <g id="line2d_39">
      <g>
       <use style="stroke:#000000;stroke-width:0.5;" x="94.9852595203" xlink:href="#m2bc0c1133f" y="21.2"/>
      </g>
     </g>
    </g>
    <g id="xtick_18">
     <g id="line2d_40">
      <g>
       <use style="stroke:#000000;stroke-width:0.5;" x="98.7807374553" xlink:href="#m4827faeb94" y="194.0"/>
      </g>
     </g>
     <g id="line2d_41">
      <g>
       <use style="stroke:#000000;stroke-width:0.5;" x="98.7807374553" xlink:href="#m2bc0c1133f" y="21.2"/>
      </g>
     </g>
    </g>
    <g id="xtick_19">
     <g id="line2d_42">
      <g>
       <use style="stroke:#000000;stroke-width:0.5;" x="101.881868731" xlink:href="#m4827faeb94" y="194.0"/>
      </g>
     </g>
     <g id="line2d_43">
      <g>
       <use style="stroke:#000000;stroke-width:0.5;" x="101.881868731" xlink:href="#m2bc0c1133f" y="21.2"/>
      </g>
     </g>
    </g>
    <g id="xtick_20">
     <g id="line2d_44">
      <g>
       <use style="stroke:#000000;stroke-width:0.5;" x="104.503837864" xlink:href="#m4827faeb94" y="194.0"/>
      </g>
     </g>
     <g id="line2d_45">
      <g>
       <use style="stroke:#000000;stroke-width:0.5;" x="104.503837864" xlink:href="#m2bc0c1133f" y="21.2"/>
      </g>
     </g>
    </g>
    <g id="xtick_21">
     <g id="line2d_46">
      <g>
       <use style="stroke:#000000;stroke-width:0.5;" x="106.775090837" xlink:href="#m4827faeb94" y="194.0"/>
      </g>
     </g>
     <g id="line2d_47">
      <g>
       <use style="stroke:#000000;stroke-width:0.5;" x="106.775090837" xlink:href="#m2bc0c1133f" y="21.2"/>
      </g>
     </g>
    </g>
    <g id="xtick_22">
     <g id="line2d_48">
      <g>
       <use style="stroke:#000000;stroke-width:0.5;" x="108.778477941" xlink:href="#m4827faeb94" y="194.0"/>
      </g>
     </g>
     <g id="line2d_49">
      <g>
       <use style="stroke:#000000;stroke-width:0.5;" x="108.778477941" xlink:href="#m2bc0c1133f" y="21.2"/>
      </g>
     </g>
    </g>
    <g id="xtick_23">
     <g id="line2d_50">
      <g>
       <use style="stroke:#000000;stroke-width:0.5;" x="122.360400089" xlink:href="#m4827faeb94" y="194.0"/>
      </g>
     </g>
     <g id="line2d_51">
      <g>
       <use style="stroke:#000000;stroke-width:0.5;" x="122.360400089" xlink:href="#m2bc0c1133f" y="21.2"/>
      </g>
     </g>
    </g>
    <g id="xtick_24">
     <g id="line2d_52">
      <g>
       <use style="stroke:#000000;stroke-width:0.5;" x="129.2570093" xlink:href="#m4827faeb94" y="194.0"/>
      </g>
     </g>
     <g id="line2d_53">
      <g>
       <use style="stroke:#000000;stroke-width:0.5;" x="129.2570093" xlink:href="#m2bc0c1133f" y="21.2"/>
      </g>
     </g>
    </g>
    <g id="xtick_25">
     <g id="line2d_54">
      <g>
       <use style="stroke:#000000;stroke-width:0.5;" x="134.150231407" xlink:href="#m4827faeb94" y="194.0"/>
      </g>
     </g>
     <g id="line2d_55">
      <g>
       <use style="stroke:#000000;stroke-width:0.5;" x="134.150231407" xlink:href="#m2bc0c1133f" y="21.2"/>
      </g>
     </g>
    </g>
    <g id="xtick_26">
     <g id="line2d_56">
      <g>
       <use style="stroke:#000000;stroke-width:0.5;" x="137.945709341" xlink:href="#m4827faeb94" y="194.0"/>
      </g>
     </g>
     <g id="line2d_57">
      <g>
       <use style="stroke:#000000;stroke-width:0.5;" x="137.945709341" xlink:href="#m2bc0c1133f" y="21.2"/>
      </g>
     </g>
    </g>
    <g id="xtick_27">
     <g id="line2d_58">
      <g>
       <use style="stroke:#000000;stroke-width:0.5;" x="141.046840617" xlink:href="#m4827faeb94" y="194.0"/>
      </g>
     </g>
     <g id="line2d_59">
      <g>
       <use style="stroke:#000000;stroke-width:0.5;" x="141.046840617" xlink:href="#m2bc0c1133f" y="21.2"/>
      </g>
     </g>
    </g>
    <g id="xtick_28">
     <g id="line2d_60">
      <g>
       <use style="stroke:#000000;stroke-width:0.5;" x="143.668809751" xlink:href="#m4827faeb94" y="194.0"/>
      </g>
     </g>
     <g id="line2d_61">
      <g>
       <use style="stroke:#000000;stroke-width:0.5;" x="143.668809751" xlink:href="#m2bc0c1133f" y="21.2"/>
      </g>
     </g>
    </g>
    <g id="xtick_29">
     <g id="line2d_62">
      <g>
       <use style="stroke:#000000;stroke-width:0.5;" x="145.940062724" xlink:href="#m4827faeb94" y="194.0"/>
      </g>
     </g>
     <g id="line2d_63">
      <g>
       <use style="stroke:#000000;stroke-width:0.5;" x="145.940062724" xlink:href="#m2bc0c1133f" y="21.2"/>
      </g>
     </g>
    </g>
    <g id="xtick_30">
     <g id="line2d_64">
      <g>
       <use style="stroke:#000000;stroke-width:0.5;" x="147.943449827" xlink:href="#m4827faeb94" y="194.0"/>
      </g>
     </g>
     <g id="line2d_65">
      <g>
       <use style="stroke:#000000;stroke-width:0.5;" x="147.943449827" xlink:href="#m2bc0c1133f" y="21.2"/>
      </g>
     </g>
    </g>
    <g id="xtick_31">
     <g id="line2d_66">
      <g>
       <use style="stroke:#000000;stroke-width:0.5;" x="161.525371976" xlink:href="#m4827faeb94" y="194.0"/>
      </g>
     </g>
     <g id="line2d_67">
      <g>
       <use style="stroke:#000000;stroke-width:0.5;" x="161.525371976" xlink:href="#m2bc0c1133f" y="21.2"/>
      </g>
     </g>
    </g>
    <g id="xtick_32">
     <g id="line2d_68">
      <g>
       <use style="stroke:#000000;stroke-width:0.5;" x="168.421981186" xlink:href="#m4827faeb94" y="194.0"/>
      </g>
     </g>
     <g id="line2d_69">
      <g>
       <use style="stroke:#000000;stroke-width:0.5;" x="168.421981186" xlink:href="#m2bc0c1133f" y="21.2"/>
      </g>
     </g>
    </g>
    <g id="xtick_33">
     <g id="line2d_70">
      <g>
       <use style="stroke:#000000;stroke-width:0.5;" x="173.315203293" xlink:href="#m4827faeb94" y="194.0"/>
      </g>
     </g>
     <g id="line2d_71">
      <g>
       <use style="stroke:#000000;stroke-width:0.5;" x="173.315203293" xlink:href="#m2bc0c1133f" y="21.2"/>
      </g>
     </g>
    </g>
    <g id="xtick_34">
     <g id="line2d_72">
      <g>
       <use style="stroke:#000000;stroke-width:0.5;" x="177.110681228" xlink:href="#m4827faeb94" y="194.0"/>
      </g>
     </g>
     <g id="line2d_73">
      <g>
       <use style="stroke:#000000;stroke-width:0.5;" x="177.110681228" xlink:href="#m2bc0c1133f" y="21.2"/>
      </g>
     </g>
    </g>
    <g id="xtick_35">
     <g id="line2d_74">
      <g>
       <use style="stroke:#000000;stroke-width:0.5;" x="180.211812503" xlink:href="#m4827faeb94" y="194.0"/>
      </g>
     </g>
     <g id="line2d_75">
      <g>
       <use style="stroke:#000000;stroke-width:0.5;" x="180.211812503" xlink:href="#m2bc0c1133f" y="21.2"/>
      </g>
     </g>
    </g>
    <g id="xtick_36">
     <g id="line2d_76">
      <g>
       <use style="stroke:#000000;stroke-width:0.5;" x="182.833781637" xlink:href="#m4827faeb94" y="194.0"/>
      </g>
     </g>
     <g id="line2d_77">
      <g>
       <use style="stroke:#000000;stroke-width:0.5;" x="182.833781637" xlink:href="#m2bc0c1133f" y="21.2"/>
      </g>
     </g>
    </g>
    <g id="xtick_37">
     <g id="line2d_78">
      <g>
       <use style="stroke:#000000;stroke-width:0.5;" x="185.10503461" xlink:href="#m4827faeb94" y="194.0"/>
      </g>
     </g>
     <g id="line2d_79">
      <g>
       <use style="stroke:#000000;stroke-width:0.5;" x="185.10503461" xlink:href="#m2bc0c1133f" y="21.2"/>
      </g>
     </g>
    </g>
    <g id="xtick_38">
     <g id="line2d_80">
      <g>
       <use style="stroke:#000000;stroke-width:0.5;" x="187.108421713" xlink:href="#m4827faeb94" y="194.0"/>
      </g>
     </g>
     <g id="line2d_81">
      <g>
       <use style="stroke:#000000;stroke-width:0.5;" x="187.108421713" xlink:href="#m2bc0c1133f" y="21.2"/>
      </g>
     </g>
    </g>
    <g id="xtick_39">
     <g id="line2d_82">
      <g>
       <use style="stroke:#000000;stroke-width:0.5;" x="200.690343862" xlink:href="#m4827faeb94" y="194.0"/>
      </g>
     </g>
     <g id="line2d_83">
      <g>
       <use style="stroke:#000000;stroke-width:0.5;" x="200.690343862" xlink:href="#m2bc0c1133f" y="21.2"/>
      </g>
     </g>
    </g>
    <g id="xtick_40">
     <g id="line2d_84">
      <g>
       <use style="stroke:#000000;stroke-width:0.5;" x="207.586953072" xlink:href="#m4827faeb94" y="194.0"/>
      </g>
     </g>
     <g id="line2d_85">
      <g>
       <use style="stroke:#000000;stroke-width:0.5;" x="207.586953072" xlink:href="#m2bc0c1133f" y="21.2"/>
      </g>
     </g>
    </g>
    <g id="xtick_41">
     <g id="line2d_86">
      <g>
       <use style="stroke:#000000;stroke-width:0.5;" x="212.480175179" xlink:href="#m4827faeb94" y="194.0"/>
      </g>
     </g>
     <g id="line2d_87">
      <g>
       <use style="stroke:#000000;stroke-width:0.5;" x="212.480175179" xlink:href="#m2bc0c1133f" y="21.2"/>
      </g>
     </g>
    </g>
    <g id="xtick_42">
     <g id="line2d_88">
      <g>
       <use style="stroke:#000000;stroke-width:0.5;" x="216.275653114" xlink:href="#m4827faeb94" y="194.0"/>
      </g>
     </g>
     <g id="line2d_89">
      <g>
       <use style="stroke:#000000;stroke-width:0.5;" x="216.275653114" xlink:href="#m2bc0c1133f" y="21.2"/>
      </g>
     </g>
    </g>
    <g id="xtick_43">
     <g id="line2d_90">
      <g>
       <use style="stroke:#000000;stroke-width:0.5;" x="219.376784389" xlink:href="#m4827faeb94" y="194.0"/>
      </g>
     </g>
     <g id="line2d_91">
      <g>
       <use style="stroke:#000000;stroke-width:0.5;" x="219.376784389" xlink:href="#m2bc0c1133f" y="21.2"/>
      </g>
     </g>
    </g>
    <g id="xtick_44">
     <g id="line2d_92">
      <g>
       <use style="stroke:#000000;stroke-width:0.5;" x="221.998753523" xlink:href="#m4827faeb94" y="194.0"/>
      </g>
     </g>
     <g id="line2d_93">
      <g>
       <use style="stroke:#000000;stroke-width:0.5;" x="221.998753523" xlink:href="#m2bc0c1133f" y="21.2"/>
      </g>
     </g>
    </g>
    <g id="xtick_45">
     <g id="line2d_94">
      <g>
       <use style="stroke:#000000;stroke-width:0.5;" x="224.270006496" xlink:href="#m4827faeb94" y="194.0"/>
      </g>
     </g>
     <g id="line2d_95">
      <g>
       <use style="stroke:#000000;stroke-width:0.5;" x="224.270006496" xlink:href="#m2bc0c1133f" y="21.2"/>
      </g>
     </g>
    </g>
    <g id="xtick_46">
     <g id="line2d_96">
      <g>
       <use style="stroke:#000000;stroke-width:0.5;" x="226.2733936" xlink:href="#m4827faeb94" y="194.0"/>
      </g>
     </g>
     <g id="line2d_97">
      <g>
       <use style="stroke:#000000;stroke-width:0.5;" x="226.2733936" xlink:href="#m2bc0c1133f" y="21.2"/>
      </g>
     </g>
    </g>
    <g id="xtick_47">
     <g id="line2d_98">
      <g>
       <use style="stroke:#000000;stroke-width:0.5;" x="239.855315748" xlink:href="#m4827faeb94" y="194.0"/>
      </g>
     </g>
     <g id="line2d_99">
      <g>
       <use style="stroke:#000000;stroke-width:0.5;" x="239.855315748" xlink:href="#m2bc0c1133f" y="21.2"/>
      </g>
     </g>
    </g>
    <g id="xtick_48">
     <g id="line2d_100">
      <g>
       <use style="stroke:#000000;stroke-width:0.5;" x="246.751924958" xlink:href="#m4827faeb94" y="194.0"/>
      </g>
     </g>
     <g id="line2d_101">
      <g>
       <use style="stroke:#000000;stroke-width:0.5;" x="246.751924958" xlink:href="#m2bc0c1133f" y="21.2"/>
      </g>
     </g>
    </g>
    <g id="xtick_49">
     <g id="line2d_102">
      <g>
       <use style="stroke:#000000;stroke-width:0.5;" x="251.645147065" xlink:href="#m4827faeb94" y="194.0"/>
      </g>
     </g>
     <g id="line2d_103">
      <g>
       <use style="stroke:#000000;stroke-width:0.5;" x="251.645147065" xlink:href="#m2bc0c1133f" y="21.2"/>
      </g>
     </g>
    </g>
    <g id="xtick_50">
     <g id="line2d_104">
      <g>
       <use style="stroke:#000000;stroke-width:0.5;" x="255.440625" xlink:href="#m4827faeb94" y="194.0"/>
      </g>
     </g>
     <g id="line2d_105">
      <g>
       <use style="stroke:#000000;stroke-width:0.5;" x="255.440625" xlink:href="#m2bc0c1133f" y="21.2"/>
      </g>
     </g>
    </g>
    <g id="text_7">
     <!-- Equilibration time -->
     <defs>
      <path d="M 14.796875 27.296875 
Q 14.796875 17.390625 18.875 11.75 
Q 22.953125 6.109375 30.078125 6.109375 
Q 37.203125 6.109375 41.296875 11.75 
Q 45.40625 17.390625 45.40625 27.296875 
Q 45.40625 37.203125 41.296875 42.84375 
Q 37.203125 48.484375 30.078125 48.484375 
Q 22.953125 48.484375 18.875 42.84375 
Q 14.796875 37.203125 14.796875 27.296875 
M 45.40625 8.203125 
Q 42.578125 3.328125 38.25 0.953125 
Q 33.9375 -1.421875 27.875 -1.421875 
Q 17.96875 -1.421875 11.734375 6.484375 
Q 5.515625 14.40625 5.515625 27.296875 
Q 5.515625 40.1875 11.734375 48.09375 
Q 17.96875 56 27.875 56 
Q 33.9375 56 38.25 53.625 
Q 42.578125 51.265625 45.40625 46.390625 
L 45.40625 54.6875 
L 54.390625 54.6875 
L 54.390625 -20.796875 
L 45.40625 -20.796875 
z
" id="BitstreamVeraSans-Roman-71"/>
      <path d="M 9.421875 75.984375 
L 18.40625 75.984375 
L 18.40625 0 
L 9.421875 0 
z
" id="BitstreamVeraSans-Roman-6c"/>
      <path d="M 48.6875 27.296875 
Q 48.6875 37.203125 44.609375 42.84375 
Q 40.53125 48.484375 33.40625 48.484375 
Q 26.265625 48.484375 22.1875 42.84375 
Q 18.109375 37.203125 18.109375 27.296875 
Q 18.109375 17.390625 22.1875 11.75 
Q 26.265625 6.109375 33.40625 6.109375 
Q 40.53125 6.109375 44.609375 11.75 
Q 48.6875 17.390625 48.6875 27.296875 
M 18.109375 46.390625 
Q 20.953125 51.265625 25.265625 53.625 
Q 29.59375 56 35.59375 56 
Q 45.5625 56 51.78125 48.09375 
Q 58.015625 40.1875 58.015625 27.296875 
Q 58.015625 14.40625 51.78125 6.484375 
Q 45.5625 -1.421875 35.59375 -1.421875 
Q 29.59375 -1.421875 25.265625 0.953125 
Q 20.953125 3.328125 18.109375 8.203125 
L 18.109375 0 
L 9.078125 0 
L 9.078125 75.984375 
L 18.109375 75.984375 
z
" id="BitstreamVeraSans-Roman-62"/>
      <path d="M 52 44.1875 
Q 55.375 50.25 60.0625 53.125 
Q 64.75 56 71.09375 56 
Q 79.640625 56 84.28125 50.015625 
Q 88.921875 44.046875 88.921875 33.015625 
L 88.921875 0 
L 79.890625 0 
L 79.890625 32.71875 
Q 79.890625 40.578125 77.09375 44.375 
Q 74.3125 48.1875 68.609375 48.1875 
Q 61.625 48.1875 57.5625 43.546875 
Q 53.515625 38.921875 53.515625 30.90625 
L 53.515625 0 
L 44.484375 0 
L 44.484375 32.71875 
Q 44.484375 40.625 41.703125 44.40625 
Q 38.921875 48.1875 33.109375 48.1875 
Q 26.21875 48.1875 22.15625 43.53125 
Q 18.109375 38.875 18.109375 30.90625 
L 18.109375 0 
L 9.078125 0 
L 9.078125 54.6875 
L 18.109375 54.6875 
L 18.109375 46.1875 
Q 21.1875 51.21875 25.484375 53.609375 
Q 29.78125 56 35.6875 56 
Q 41.65625 56 45.828125 52.96875 
Q 50 49.953125 52 44.1875 
" id="BitstreamVeraSans-Roman-6d"/>
      <path d="M 18.3125 70.21875 
L 18.3125 54.6875 
L 36.8125 54.6875 
L 36.8125 47.703125 
L 18.3125 47.703125 
L 18.3125 18.015625 
Q 18.3125 11.328125 20.140625 9.421875 
Q 21.96875 7.515625 27.59375 7.515625 
L 36.8125 7.515625 
L 36.8125 0 
L 27.59375 0 
Q 17.1875 0 13.234375 3.875 
Q 9.28125 7.765625 9.28125 18.015625 
L 9.28125 47.703125 
L 2.6875 47.703125 
L 2.6875 54.6875 
L 9.28125 54.6875 
L 9.28125 70.21875 
z
" id="BitstreamVeraSans-Roman-74"/>
      <path d="M 56.203125 29.59375 
L 56.203125 25.203125 
L 14.890625 25.203125 
Q 15.484375 15.921875 20.484375 11.0625 
Q 25.484375 6.203125 34.421875 6.203125 
Q 39.59375 6.203125 44.453125 7.46875 
Q 49.3125 8.734375 54.109375 11.28125 
L 54.109375 2.78125 
Q 49.265625 0.734375 44.1875 -0.34375 
Q 39.109375 -1.421875 33.890625 -1.421875 
Q 20.796875 -1.421875 13.15625 6.1875 
Q 5.515625 13.8125 5.515625 26.8125 
Q 5.515625 40.234375 12.765625 48.109375 
Q 20.015625 56 32.328125 56 
Q 43.359375 56 49.78125 48.890625 
Q 56.203125 41.796875 56.203125 29.59375 
M 47.21875 32.234375 
Q 47.125 39.59375 43.09375 43.984375 
Q 39.0625 48.390625 32.421875 48.390625 
Q 24.90625 48.390625 20.390625 44.140625 
Q 15.875 39.890625 15.1875 32.171875 
z
" id="BitstreamVeraSans-Roman-65"/>
      <path id="BitstreamVeraSans-Roman-20"/>
      <path d="M 54.890625 33.015625 
L 54.890625 0 
L 45.90625 0 
L 45.90625 32.71875 
Q 45.90625 40.484375 42.875 44.328125 
Q 39.84375 48.1875 33.796875 48.1875 
Q 26.515625 48.1875 22.3125 43.546875 
Q 18.109375 38.921875 18.109375 30.90625 
L 18.109375 0 
L 9.078125 0 
L 9.078125 54.6875 
L 18.109375 54.6875 
L 18.109375 46.1875 
Q 21.34375 51.125 25.703125 53.5625 
Q 30.078125 56 35.796875 56 
Q 45.21875 56 50.046875 50.171875 
Q 54.890625 44.34375 54.890625 33.015625 
" id="BitstreamVeraSans-Roman-6e"/>
      <path d="M 8.5 21.578125 
L 8.5 54.6875 
L 17.484375 54.6875 
L 17.484375 21.921875 
Q 17.484375 14.15625 20.5 10.265625 
Q 23.53125 6.390625 29.59375 6.390625 
Q 36.859375 6.390625 41.078125 11.03125 
Q 45.3125 15.671875 45.3125 23.6875 
L 45.3125 54.6875 
L 54.296875 54.6875 
L 54.296875 0 
L 45.3125 0 
L 45.3125 8.40625 
Q 42.046875 3.421875 37.71875 1 
Q 33.40625 -1.421875 27.6875 -1.421875 
Q 18.265625 -1.421875 13.375 4.4375 
Q 8.5 10.296875 8.5 21.578125 
" id="BitstreamVeraSans-Roman-75"/>
      <path d="M 34.28125 27.484375 
Q 23.390625 27.484375 19.1875 25 
Q 14.984375 22.515625 14.984375 16.5 
Q 14.984375 11.71875 18.140625 8.90625 
Q 21.296875 6.109375 26.703125 6.109375 
Q 34.1875 6.109375 38.703125 11.40625 
Q 43.21875 16.703125 43.21875 25.484375 
L 43.21875 27.484375 
z
M 52.203125 31.203125 
L 52.203125 0 
L 43.21875 0 
L 43.21875 8.296875 
Q 40.140625 3.328125 35.546875 0.953125 
Q 30.953125 -1.421875 24.3125 -1.421875 
Q 15.921875 -1.421875 10.953125 3.296875 
Q 6 8.015625 6 15.921875 
Q 6 25.140625 12.171875 29.828125 
Q 18.359375 34.515625 30.609375 34.515625 
L 43.21875 34.515625 
L 43.21875 35.40625 
Q 43.21875 41.609375 39.140625 45 
Q 35.0625 48.390625 27.6875 48.390625 
Q 23 48.390625 18.546875 47.265625 
Q 14.109375 46.140625 10.015625 43.890625 
L 10.015625 52.203125 
Q 14.9375 54.109375 19.578125 55.046875 
Q 24.21875 56 28.609375 56 
Q 40.484375 56 46.34375 49.84375 
Q 52.203125 43.703125 52.203125 31.203125 
" id="BitstreamVeraSans-Roman-61"/>
      <path d="M 9.421875 54.6875 
L 18.40625 54.6875 
L 18.40625 0 
L 9.421875 0 
z
M 9.421875 75.984375 
L 18.40625 75.984375 
L 18.40625 64.59375 
L 9.421875 64.59375 
z
" id="BitstreamVeraSans-Roman-69"/>
      <path d="M 41.109375 46.296875 
Q 39.59375 47.171875 37.8125 47.578125 
Q 36.03125 48 33.890625 48 
Q 26.265625 48 22.1875 43.046875 
Q 18.109375 38.09375 18.109375 28.8125 
L 18.109375 0 
L 9.078125 0 
L 9.078125 54.6875 
L 18.109375 54.6875 
L 18.109375 46.1875 
Q 20.953125 51.171875 25.484375 53.578125 
Q 30.03125 56 36.53125 56 
Q 37.453125 56 38.578125 55.875 
Q 39.703125 55.765625 41.0625 55.515625 
z
" id="BitstreamVeraSans-Roman-72"/>
      <path d="M 9.8125 72.90625 
L 55.90625 72.90625 
L 55.90625 64.59375 
L 19.671875 64.59375 
L 19.671875 43.015625 
L 54.390625 43.015625 
L 54.390625 34.71875 
L 19.671875 34.71875 
L 19.671875 8.296875 
L 56.78125 8.296875 
L 56.78125 0 
L 9.8125 0 
z
" id="BitstreamVeraSans-Roman-45"/>
      <path d="M 30.609375 48.390625 
Q 23.390625 48.390625 19.1875 42.75 
Q 14.984375 37.109375 14.984375 27.296875 
Q 14.984375 17.484375 19.15625 11.84375 
Q 23.34375 6.203125 30.609375 6.203125 
Q 37.796875 6.203125 41.984375 11.859375 
Q 46.1875 17.53125 46.1875 27.296875 
Q 46.1875 37.015625 41.984375 42.703125 
Q 37.796875 48.390625 30.609375 48.390625 
M 30.609375 56 
Q 42.328125 56 49.015625 48.375 
Q 55.71875 40.765625 55.71875 27.296875 
Q 55.71875 13.875 49.015625 6.21875 
Q 42.328125 -1.421875 30.609375 -1.421875 
Q 18.84375 -1.421875 12.171875 6.21875 
Q 5.515625 13.875 5.515625 27.296875 
Q 5.515625 40.765625 12.171875 48.375 
Q 18.84375 56 30.609375 56 
" id="BitstreamVeraSans-Roman-6f"/>
     </defs>
     <g transform="translate(99.41484375 221.2984375)scale(0.1 -0.1)">
      <use xlink:href="#BitstreamVeraSans-Roman-45"/>
      <use x="63.18359375" xlink:href="#BitstreamVeraSans-Roman-71"/>
      <use x="126.66015625" xlink:href="#BitstreamVeraSans-Roman-75"/>
      <use x="190.0390625" xlink:href="#BitstreamVeraSans-Roman-69"/>
      <use x="217.822265625" xlink:href="#BitstreamVeraSans-Roman-6c"/>
      <use x="245.60546875" xlink:href="#BitstreamVeraSans-Roman-69"/>
      <use x="273.388671875" xlink:href="#BitstreamVeraSans-Roman-62"/>
      <use x="336.865234375" xlink:href="#BitstreamVeraSans-Roman-72"/>
      <use x="377.978515625" xlink:href="#BitstreamVeraSans-Roman-61"/>
      <use x="439.2578125" xlink:href="#BitstreamVeraSans-Roman-74"/>
      <use x="478.466796875" xlink:href="#BitstreamVeraSans-Roman-69"/>
      <use x="506.25" xlink:href="#BitstreamVeraSans-Roman-6f"/>
      <use x="567.431640625" xlink:href="#BitstreamVeraSans-Roman-6e"/>
      <use x="630.810546875" xlink:href="#BitstreamVeraSans-Roman-20"/>
      <use x="662.59765625" xlink:href="#BitstreamVeraSans-Roman-74"/>
      <use x="701.806640625" xlink:href="#BitstreamVeraSans-Roman-69"/>
      <use x="729.58984375" xlink:href="#BitstreamVeraSans-Roman-6d"/>
      <use x="827.001953125" xlink:href="#BitstreamVeraSans-Roman-65"/>
     </g>
    </g>
   </g>
   <g id="matplotlib.axis_2">
    <g id="ytick_1">
     <g id="line2d_106">
      <defs>
       <path d="M 0 0 
L 4 0 
" id="m5a4a55a779" style="stroke:#000000;stroke-width:0.5;"/>
      </defs>
      <g>
       <use style="stroke:#000000;stroke-width:0.5;" x="32.240625" xlink:href="#m5a4a55a779" y="194.0"/>
      </g>
     </g>
     <g id="line2d_107">
      <defs>
       <path d="M 0 0 
L -4 0 
" id="m0984f47364" style="stroke:#000000;stroke-width:0.5;"/>
      </defs>
      <g>
       <use style="stroke:#000000;stroke-width:0.5;" x="255.440625" xlink:href="#m0984f47364" y="194.0"/>
      </g>
     </g>
     <g id="text_8">
      <!-- 0 -->
      <g transform="translate(21.878125 196.759375)scale(0.1 -0.1)">
       <use xlink:href="#BitstreamVeraSans-Roman-30"/>
      </g>
     </g>
    </g>
    <g id="ytick_2">
     <g id="line2d_108">
      <g>
       <use style="stroke:#000000;stroke-width:0.5;" x="32.240625" xlink:href="#m5a4a55a779" y="172.4"/>
      </g>
     </g>
     <g id="line2d_109">
      <g>
       <use style="stroke:#000000;stroke-width:0.5;" x="255.440625" xlink:href="#m0984f47364" y="172.4"/>
      </g>
     </g>
     <g id="text_9">
      <!-- 1 -->
      <g transform="translate(21.878125 175.159375)scale(0.1 -0.1)">
       <use xlink:href="#BitstreamVeraSans-Roman-31"/>
      </g>
     </g>
    </g>
    <g id="ytick_3">
     <g id="line2d_110">
      <g>
       <use style="stroke:#000000;stroke-width:0.5;" x="32.240625" xlink:href="#m5a4a55a779" y="150.8"/>
      </g>
     </g>
     <g id="line2d_111">
      <g>
       <use style="stroke:#000000;stroke-width:0.5;" x="255.440625" xlink:href="#m0984f47364" y="150.8"/>
      </g>
     </g>
     <g id="text_10">
      <!-- 2 -->
      <g transform="translate(21.878125 153.559375)scale(0.1 -0.1)">
       <use xlink:href="#BitstreamVeraSans-Roman-32"/>
      </g>
     </g>
    </g>
    <g id="ytick_4">
     <g id="line2d_112">
      <g>
       <use style="stroke:#000000;stroke-width:0.5;" x="32.240625" xlink:href="#m5a4a55a779" y="129.2"/>
      </g>
     </g>
     <g id="line2d_113">
      <g>
       <use style="stroke:#000000;stroke-width:0.5;" x="255.440625" xlink:href="#m0984f47364" y="129.2"/>
      </g>
     </g>
     <g id="text_11">
      <!-- 3 -->
      <g transform="translate(21.878125 131.959375)scale(0.1 -0.1)">
       <use xlink:href="#BitstreamVeraSans-Roman-33"/>
      </g>
     </g>
    </g>
    <g id="ytick_5">
     <g id="line2d_114">
      <g>
       <use style="stroke:#000000;stroke-width:0.5;" x="32.240625" xlink:href="#m5a4a55a779" y="107.6"/>
      </g>
     </g>
     <g id="line2d_115">
      <g>
       <use style="stroke:#000000;stroke-width:0.5;" x="255.440625" xlink:href="#m0984f47364" y="107.6"/>
      </g>
     </g>
     <g id="text_12">
      <!-- 4 -->
      <g transform="translate(21.878125 110.359375)scale(0.1 -0.1)">
       <use xlink:href="#BitstreamVeraSans-Roman-34"/>
      </g>
     </g>
    </g>
    <g id="ytick_6">
     <g id="line2d_116">
      <g>
       <use style="stroke:#000000;stroke-width:0.5;" x="32.240625" xlink:href="#m5a4a55a779" y="86.0"/>
      </g>
     </g>
     <g id="line2d_117">
      <g>
       <use style="stroke:#000000;stroke-width:0.5;" x="255.440625" xlink:href="#m0984f47364" y="86.0"/>
      </g>
     </g>
     <g id="text_13">
      <!-- 5 -->
      <defs>
       <path d="M 10.796875 72.90625 
L 49.515625 72.90625 
L 49.515625 64.59375 
L 19.828125 64.59375 
L 19.828125 46.734375 
Q 21.96875 47.46875 24.109375 47.828125 
Q 26.265625 48.1875 28.421875 48.1875 
Q 40.625 48.1875 47.75 41.5 
Q 54.890625 34.8125 54.890625 23.390625 
Q 54.890625 11.625 47.5625 5.09375 
Q 40.234375 -1.421875 26.90625 -1.421875 
Q 22.3125 -1.421875 17.546875 -0.640625 
Q 12.796875 0.140625 7.71875 1.703125 
L 7.71875 11.625 
Q 12.109375 9.234375 16.796875 8.0625 
Q 21.484375 6.890625 26.703125 6.890625 
Q 35.15625 6.890625 40.078125 11.328125 
Q 45.015625 15.765625 45.015625 23.390625 
Q 45.015625 31 40.078125 35.4375 
Q 35.15625 39.890625 26.703125 39.890625 
Q 22.75 39.890625 18.8125 39.015625 
Q 14.890625 38.140625 10.796875 36.28125 
z
" id="BitstreamVeraSans-Roman-35"/>
      </defs>
      <g transform="translate(21.878125 88.759375)scale(0.1 -0.1)">
       <use xlink:href="#BitstreamVeraSans-Roman-35"/>
      </g>
     </g>
    </g>
    <g id="ytick_7">
     <g id="line2d_118">
      <g>
       <use style="stroke:#000000;stroke-width:0.5;" x="32.240625" xlink:href="#m5a4a55a779" y="64.4"/>
      </g>
     </g>
     <g id="line2d_119">
      <g>
       <use style="stroke:#000000;stroke-width:0.5;" x="255.440625" xlink:href="#m0984f47364" y="64.4"/>
      </g>
     </g>
     <g id="text_14">
      <!-- 6 -->
      <defs>
       <path d="M 33.015625 40.375 
Q 26.375 40.375 22.484375 35.828125 
Q 18.609375 31.296875 18.609375 23.390625 
Q 18.609375 15.53125 22.484375 10.953125 
Q 26.375 6.390625 33.015625 6.390625 
Q 39.65625 6.390625 43.53125 10.953125 
Q 47.40625 15.53125 47.40625 23.390625 
Q 47.40625 31.296875 43.53125 35.828125 
Q 39.65625 40.375 33.015625 40.375 
M 52.59375 71.296875 
L 52.59375 62.3125 
Q 48.875 64.0625 45.09375 64.984375 
Q 41.3125 65.921875 37.59375 65.921875 
Q 27.828125 65.921875 22.671875 59.328125 
Q 17.53125 52.734375 16.796875 39.40625 
Q 19.671875 43.65625 24.015625 45.921875 
Q 28.375 48.1875 33.59375 48.1875 
Q 44.578125 48.1875 50.953125 41.515625 
Q 57.328125 34.859375 57.328125 23.390625 
Q 57.328125 12.15625 50.6875 5.359375 
Q 44.046875 -1.421875 33.015625 -1.421875 
Q 20.359375 -1.421875 13.671875 8.265625 
Q 6.984375 17.96875 6.984375 36.375 
Q 6.984375 53.65625 15.1875 63.9375 
Q 23.390625 74.21875 37.203125 74.21875 
Q 40.921875 74.21875 44.703125 73.484375 
Q 48.484375 72.75 52.59375 71.296875 
" id="BitstreamVeraSans-Roman-36"/>
      </defs>
      <g transform="translate(21.878125 67.159375)scale(0.1 -0.1)">
       <use xlink:href="#BitstreamVeraSans-Roman-36"/>
      </g>
     </g>
    </g>
    <g id="ytick_8">
     <g id="line2d_120">
      <g>
       <use style="stroke:#000000;stroke-width:0.5;" x="32.240625" xlink:href="#m5a4a55a779" y="42.8"/>
      </g>
     </g>
     <g id="line2d_121">
      <g>
       <use style="stroke:#000000;stroke-width:0.5;" x="255.440625" xlink:href="#m0984f47364" y="42.8"/>
      </g>
     </g>
     <g id="text_15">
      <!-- 7 -->
      <defs>
       <path d="M 8.203125 72.90625 
L 55.078125 72.90625 
L 55.078125 68.703125 
L 28.609375 0 
L 18.3125 0 
L 43.21875 64.59375 
L 8.203125 64.59375 
z
" id="BitstreamVeraSans-Roman-37"/>
      </defs>
      <g transform="translate(21.878125 45.559375)scale(0.1 -0.1)">
       <use xlink:href="#BitstreamVeraSans-Roman-37"/>
      </g>
     </g>
    </g>
    <g id="ytick_9">
     <g id="line2d_122">
      <g>
       <use style="stroke:#000000;stroke-width:0.5;" x="32.240625" xlink:href="#m5a4a55a779" y="21.2"/>
      </g>
     </g>
     <g id="line2d_123">
      <g>
       <use style="stroke:#000000;stroke-width:0.5;" x="255.440625" xlink:href="#m0984f47364" y="21.2"/>
      </g>
     </g>
     <g id="text_16">
      <!-- 8 -->
      <defs>
       <path d="M 31.78125 34.625 
Q 24.75 34.625 20.71875 30.859375 
Q 16.703125 27.09375 16.703125 20.515625 
Q 16.703125 13.921875 20.71875 10.15625 
Q 24.75 6.390625 31.78125 6.390625 
Q 38.8125 6.390625 42.859375 10.171875 
Q 46.921875 13.96875 46.921875 20.515625 
Q 46.921875 27.09375 42.890625 30.859375 
Q 38.875 34.625 31.78125 34.625 
M 21.921875 38.8125 
Q 15.578125 40.375 12.03125 44.71875 
Q 8.5 49.078125 8.5 55.328125 
Q 8.5 64.0625 14.71875 69.140625 
Q 20.953125 74.21875 31.78125 74.21875 
Q 42.671875 74.21875 48.875 69.140625 
Q 55.078125 64.0625 55.078125 55.328125 
Q 55.078125 49.078125 51.53125 44.71875 
Q 48 40.375 41.703125 38.8125 
Q 48.828125 37.15625 52.796875 32.3125 
Q 56.78125 27.484375 56.78125 20.515625 
Q 56.78125 9.90625 50.3125 4.234375 
Q 43.84375 -1.421875 31.78125 -1.421875 
Q 19.734375 -1.421875 13.25 4.234375 
Q 6.78125 9.90625 6.78125 20.515625 
Q 6.78125 27.484375 10.78125 32.3125 
Q 14.796875 37.15625 21.921875 38.8125 
M 18.3125 54.390625 
Q 18.3125 48.734375 21.84375 45.5625 
Q 25.390625 42.390625 31.78125 42.390625 
Q 38.140625 42.390625 41.71875 45.5625 
Q 45.3125 48.734375 45.3125 54.390625 
Q 45.3125 60.0625 41.71875 63.234375 
Q 38.140625 66.40625 31.78125 66.40625 
Q 25.390625 66.40625 21.84375 63.234375 
Q 18.3125 60.0625 18.3125 54.390625 
" id="BitstreamVeraSans-Roman-38"/>
      </defs>
      <g transform="translate(21.878125 23.959375)scale(0.1 -0.1)">
       <use xlink:href="#BitstreamVeraSans-Roman-38"/>
      </g>
     </g>
    </g>
    <g id="text_17">
     <!-- max $\alpha_2$ -->
     <defs>
      <path d="M 54.890625 54.6875 
L 35.109375 28.078125 
L 55.90625 0 
L 45.3125 0 
L 29.390625 21.484375 
L 13.484375 0 
L 2.875 0 
L 24.125 28.609375 
L 4.6875 54.6875 
L 15.28125 54.6875 
L 29.78125 35.203125 
L 44.28125 54.6875 
z
" id="BitstreamVeraSans-Roman-78"/>
      <path d="M 51.40625 12.90625 
L 52.90625 12.90625 
Q 52.90625 7 50.75 3 
Q 48.59375 -1 45 -1 
Q 39.40625 -1 37 10 
Q 34 4.59375 30.5 1.796875 
Q 27 -1 21.59375 -1 
Q 13.5 -1 8.203125 5.546875 
Q 2.90625 12.09375 2.90625 22.296875 
Q 2.90625 32.203125 8.25 39.09375 
Q 13.59375 46 22.5 46 
Q 28.5 46 32.453125 41.75 
Q 36.40625 37.5 37.90625 31.40625 
L 42.40625 45 
L 52.09375 45 
L 41.203125 18.703125 
Q 42.203125 14.09375 44.140625 9.640625 
Q 46.09375 5.203125 48.09375 5.203125 
Q 50.5 5.203125 51.40625 12.90625 
M 33.09375 20.796875 
Q 29.796875 43.203125 22 43.203125 
Q 17.796875 43.203125 14.84375 39.25 
Q 11.90625 35.296875 11.90625 27.296875 
Q 11.90625 23.90625 12.34375 20.09375 
Q 12.796875 16.296875 13.84375 11.890625 
Q 14.90625 7.5 17.15625 4.640625 
Q 19.40625 1.796875 22.5 1.796875 
Q 29.5 1.796875 33.09375 20.796875 
" id="STIXGeneral-Regular-3b1"/>
     </defs>
     <g transform="translate(13.678125 126.0)rotate(-90.0)scale(0.1 -0.1)">
      <use xlink:href="#BitstreamVeraSans-Roman-6d"/>
      <use transform="translate(97.412109375 0.0)" xlink:href="#BitstreamVeraSans-Roman-61"/>
      <use transform="translate(158.69140625 0.0)" xlink:href="#BitstreamVeraSans-Roman-78"/>
      <use transform="translate(217.87109375 0.0)" xlink:href="#BitstreamVeraSans-Roman-20"/>
      <use transform="translate(249.658203125 0.0)" xlink:href="#STIXGeneral-Regular-3b1"/>
      <use transform="translate(303.95819091796875 -31.5)scale(0.7)" xlink:href="#BitstreamVeraSans-Roman-32"/>
     </g>
    </g>
   </g>
   <g id="text_18">
    <!-- $\phi_0 = 0.58$ -->
    <defs>
     <path d="M 10.6875 12.40625 
L 21 12.40625 
L 21 0 
L 10.6875 0 
z
" id="BitstreamVeraSans-Roman-2e"/>
     <path d="M 35.296875 68.296875 
L 35.296875 46 
Q 42.296875 46 46.09375 44.40625 
Q 52.5 41.796875 55.890625 36.046875 
Q 59.296875 30.296875 59.296875 23.09375 
Q 59.296875 18.59375 58 14.5 
Q 56.703125 10.40625 54.046875 6.796875 
Q 51.40625 3.203125 46.546875 1.09375 
Q 41.703125 -1 35.296875 -1 
L 35.296875 -21.703125 
L 26.90625 -21.703125 
L 26.90625 -1 
L 24.5 -1 
Q 14.703125 -1 8.796875 6.140625 
Q 2.90625 13.296875 2.90625 22.796875 
Q 2.90625 32.40625 8.796875 39.203125 
Q 14.703125 46 25.203125 46 
L 26.90625 46 
L 26.90625 68.296875 
z
M 35.203125 1.796875 
L 38.296875 1.796875 
Q 44.296875 1.796875 47.296875 7.046875 
Q 50.296875 12.296875 50.296875 20.40625 
Q 50.296875 29.90625 46.34375 36.546875 
Q 42.40625 43.203125 35.203125 43.203125 
z
M 27 1.796875 
L 27 43.203125 
L 24 43.203125 
Q 18.203125 43.203125 15.046875 39 
Q 11.90625 34.796875 11.90625 27.40625 
Q 11.90625 14.40625 17.296875 6.796875 
Q 20.796875 1.796875 27 1.796875 
" id="STIXGeneral-Regular-3d5"/>
     <path d="M 10.59375 45.40625 
L 73.1875 45.40625 
L 73.1875 37.203125 
L 10.59375 37.203125 
z
M 10.59375 25.484375 
L 73.1875 25.484375 
L 73.1875 17.1875 
L 10.59375 17.1875 
z
" id="BitstreamVeraSans-Roman-3d"/>
    </defs>
    <g transform="translate(116.900625 16.2)scale(0.12 -0.12)">
     <use transform="translate(0.0 0.78125)" xlink:href="#STIXGeneral-Regular-3d5"/>
     <use transform="translate(62.29998779296875 -30.71875)scale(0.7)" xlink:href="#BitstreamVeraSans-Roman-30"/>
     <use transform="translate(145.40545654296875 0.78125)" xlink:href="#BitstreamVeraSans-Roman-3d"/>
     <use transform="translate(227.48162841796875 0.78125)" xlink:href="#BitstreamVeraSans-Roman-30"/>
     <use transform="translate(291.10467529296875 0.78125)" xlink:href="#BitstreamVeraSans-Roman-2e"/>
     <use transform="translate(320.88397216796875 0.78125)" xlink:href="#BitstreamVeraSans-Roman-35"/>
     <use transform="translate(384.50701904296875 0.78125)" xlink:href="#BitstreamVeraSans-Roman-38"/>
    </g>
   </g>
   <g id="legend_1">
    <g id="patch_7">
     <path d="M 36.405625 102.963391 
L 90.240853 102.963391 
L 90.240853 25.365 
L 36.405625 25.365 
z
" style="fill:#ffffff;stroke:#000000;stroke-linejoin:miter;"/>
    </g>
    <g id="text_19">
     <!-- Final $\phi$ -->
     <defs>
      <path d="M 9.8125 72.90625 
L 51.703125 72.90625 
L 51.703125 64.59375 
L 19.671875 64.59375 
L 19.671875 43.109375 
L 48.578125 43.109375 
L 48.578125 34.8125 
L 19.671875 34.8125 
L 19.671875 0 
L 9.8125 0 
z
" id="BitstreamVeraSans-Roman-46"/>
     </defs>
     <g transform="translate(46.7232390625 36.297)scale(0.1 -0.1)">
      <use transform="translate(0.0 0.015625)" xlink:href="#BitstreamVeraSans-Roman-46"/>
      <use transform="translate(57.51953125 0.015625)" xlink:href="#BitstreamVeraSans-Roman-69"/>
      <use transform="translate(85.302734375 0.015625)" xlink:href="#BitstreamVeraSans-Roman-6e"/>
      <use transform="translate(148.681640625 0.015625)" xlink:href="#BitstreamVeraSans-Roman-61"/>
      <use transform="translate(209.9609375 0.015625)" xlink:href="#BitstreamVeraSans-Roman-6c"/>
      <use transform="translate(237.744140625 0.015625)" xlink:href="#BitstreamVeraSans-Roman-20"/>
      <use transform="translate(269.53125 0.015625)" xlink:href="#STIXGeneral-Regular-3d5"/>
     </g>
    </g>
    <g id="line2d_124">
     <path d="M 42.236625 46.075998 
L 53.898625 46.075998 
" style="fill:none;stroke:#4daf4a;stroke-linecap:square;stroke-width:2.0;"/>
    </g>
    <g id="line2d_125"/>
    <g id="text_20">
     <!-- 0.58 -->
     <g transform="translate(63.061625 48.9914984375)scale(0.0833 -0.0833)">
      <use xlink:href="#BitstreamVeraSans-Roman-30"/>
      <use x="63.623046875" xlink:href="#BitstreamVeraSans-Roman-2e"/>
      <use x="95.41015625" xlink:href="#BitstreamVeraSans-Roman-35"/>
      <use x="159.033203125" xlink:href="#BitstreamVeraSans-Roman-38"/>
     </g>
    </g>
    <g id="line2d_126">
     <path d="M 42.236625 58.302877 
L 53.898625 58.302877 
" style="fill:none;stroke:#43987e;stroke-linecap:square;stroke-width:2.0;"/>
    </g>
    <g id="line2d_127"/>
    <g id="text_21">
     <!-- 0.585 -->
     <g transform="translate(63.061625 61.2183765625)scale(0.0833 -0.0833)">
      <use xlink:href="#BitstreamVeraSans-Roman-30"/>
      <use x="63.623046875" xlink:href="#BitstreamVeraSans-Roman-2e"/>
      <use x="95.41015625" xlink:href="#BitstreamVeraSans-Roman-35"/>
      <use x="159.033203125" xlink:href="#BitstreamVeraSans-Roman-38"/>
      <use x="222.65625" xlink:href="#BitstreamVeraSans-Roman-35"/>
     </g>
    </g>
    <g id="line2d_128">
     <path d="M 42.236625 70.529755 
L 53.898625 70.529755 
" style="fill:none;stroke:#765faa;stroke-linecap:square;stroke-width:2.0;"/>
    </g>
    <g id="line2d_129"/>
    <g id="text_22">
     <!-- 0.59 -->
     <defs>
      <path d="M 10.984375 1.515625 
L 10.984375 10.5 
Q 14.703125 8.734375 18.5 7.8125 
Q 22.3125 6.890625 25.984375 6.890625 
Q 35.75 6.890625 40.890625 13.453125 
Q 46.046875 20.015625 46.78125 33.40625 
Q 43.953125 29.203125 39.59375 26.953125 
Q 35.25 24.703125 29.984375 24.703125 
Q 19.046875 24.703125 12.671875 31.3125 
Q 6.296875 37.9375 6.296875 49.421875 
Q 6.296875 60.640625 12.9375 67.421875 
Q 19.578125 74.21875 30.609375 74.21875 
Q 43.265625 74.21875 49.921875 64.515625 
Q 56.59375 54.828125 56.59375 36.375 
Q 56.59375 19.140625 48.40625 8.859375 
Q 40.234375 -1.421875 26.421875 -1.421875 
Q 22.703125 -1.421875 18.890625 -0.6875 
Q 15.09375 0.046875 10.984375 1.515625 
M 30.609375 32.421875 
Q 37.25 32.421875 41.125 36.953125 
Q 45.015625 41.5 45.015625 49.421875 
Q 45.015625 57.28125 41.125 61.84375 
Q 37.25 66.40625 30.609375 66.40625 
Q 23.96875 66.40625 20.09375 61.84375 
Q 16.21875 57.28125 16.21875 49.421875 
Q 16.21875 41.5 20.09375 36.953125 
Q 23.96875 32.421875 30.609375 32.421875 
" id="BitstreamVeraSans-Roman-39"/>
     </defs>
     <g transform="translate(63.061625 73.4452546875)scale(0.0833 -0.0833)">
      <use xlink:href="#BitstreamVeraSans-Roman-30"/>
      <use x="63.623046875" xlink:href="#BitstreamVeraSans-Roman-2e"/>
      <use x="95.41015625" xlink:href="#BitstreamVeraSans-Roman-35"/>
      <use x="159.033203125" xlink:href="#BitstreamVeraSans-Roman-39"/>
     </g>
    </g>
    <g id="line2d_130">
     <path d="M 42.236625 82.756633 
L 53.898625 82.756633 
" style="fill:none;stroke:#d72334;stroke-linecap:square;stroke-width:2.0;"/>
    </g>
    <g id="line2d_131"/>
    <g id="text_23">
     <!-- 0.595 -->
     <g transform="translate(63.061625 85.6721328125)scale(0.0833 -0.0833)">
      <use xlink:href="#BitstreamVeraSans-Roman-30"/>
      <use x="63.623046875" xlink:href="#BitstreamVeraSans-Roman-2e"/>
      <use x="95.41015625" xlink:href="#BitstreamVeraSans-Roman-35"/>
      <use x="159.033203125" xlink:href="#BitstreamVeraSans-Roman-39"/>
      <use x="222.65625" xlink:href="#BitstreamVeraSans-Roman-35"/>
     </g>
    </g>
    <g id="line2d_132">
     <path d="M 42.236625 94.983511 
L 53.898625 94.983511 
" style="fill:none;stroke:#ff7f00;stroke-linecap:square;stroke-width:2.0;"/>
    </g>
    <g id="line2d_133"/>
    <g id="text_24">
     <!-- 0.6 -->
     <g transform="translate(63.061625 97.8990109375)scale(0.0833 -0.0833)">
      <use xlink:href="#BitstreamVeraSans-Roman-30"/>
      <use x="63.623046875" xlink:href="#BitstreamVeraSans-Roman-2e"/>
      <use x="95.41015625" xlink:href="#BitstreamVeraSans-Roman-36"/>
     </g>
    </g>
   </g>
  </g>
 </g>
 <defs>
  <clipPath id="p6b6baf2b16">
   <rect height="172.8" width="223.2" x="32.240625" y="21.2"/>
  </clipPath>
 </defs>
</svg>
