<?xml version="1.0" encoding="utf-8" standalone="no"?>
<!DOCTYPE svg PUBLIC "-//W3C//DTD SVG 1.1//EN"
  "http://www.w3.org/Graphics/SVG/1.1/DTD/svg11.dtd">
<!-- Created with matplotlib (http://matplotlib.org/) -->
<svg height="230pt" version="1.1" viewBox="0 0 262 230" width="262pt" xmlns="http://www.w3.org/2000/svg" xmlns:xlink="http://www.w3.org/1999/xlink">
 <defs>
  <style type="text/css">
*{stroke-linecap:butt;stroke-linejoin:round;stroke-miterlimit:100000;}
  </style>
 </defs>
 <g id="figure_1">
  <g id="patch_1">
   <path d="M 0 230.578125 
L 262.640625 230.578125 
L 262.640625 0 
L 0 0 
z
" style="fill:#ffffff;"/>
  </g>
  <g id="axes_1">
   <g id="patch_2">
    <path d="M 32.240625 194 
L 255.440625 194 
L 255.440625 21.2 
L 32.240625 21.2 
z
" style="fill:#ffffff;"/>
   </g>
   <g id="line2d_1">
    <path clip-path="url(#pd6287120ae)" d="M 32.240625 174.384975 
L 44.030456 174.791142 
L 50.927066 174.740087 
L 55.820288 174.839003 
L 59.615766 175.118836 
L 62.716897 175.080406 
L 65.338866 175.30069 
L 67.610119 174.908991 
L 69.613506 174.406242 
L 71.405597 174.203445 
L 73.02674 173.98493 
L 75.868185 174.316304 
L 77.128697 174.627067 
L 79.39995 174.916321 
L 81.403337 174.23859 
L 84.025307 173.961138 
L 86.296559 173.228605 
L 88.299947 172.885171 
L 90.092037 173.85716 
L 92.220954 174.065688 
L 94.112805 173.97528 
L 96.215371 173.5517 
L 98.437107 173.800164 
L 100.401881 172.989768 
L 102.439595 172.996205 
L 104.503838 173.265528 
L 106.561137 174.171781 
L 108.778478 172.725384 
L 110.739815 172.648383 
L 112.799246 171.98242 
L 114.901812 173.370538 
L 117.007444 172.467869 
L 119.088321 172.093082 
L 121.126036 170.554142 
L 123.190278 170.607356 
L 125.247577 171.974521 
L 127.338456 171.225725 
L 129.370027 173.399796 
L 131.435879 172.322011 
L 133.500122 171.780722 
L 135.576983 174.462436 
L 137.636756 173.357291 
L 139.720783 173.32244 
L 141.76838 172.074007 
L 143.838056 171.474926 
L 145.897487 173.312144 
L 147.981206 173.553133 
L 150.038982 173.633488 
L 152.11277 174.817116 
L 154.171941 172.932039 
L 156.242173 174.530791 
L 158.304758 174.417704 
L 160.373111 175.114657 
L 162.444113 174.612905 
L 164.505593 173.824518 
L 166.573099 172.513546 
L 168.641675 175.186372 
L 170.705278 173.932752 
L 172.775186 172.014191 
L 174.839428 173.849702 
L 176.90878 171.912463 
L 178.9744 173.384778 
L 181.041691 174.467791 
L 183.106165 173.561012 
L 185.172935 172.312228 
L 187.240203 172.343941 
L 189.307232 175.203149 
L 191.37361 174.108305 
L 193.440121 175.399505 
L 195.507787 172.570315 
L 197.574238 172.084796 
L 199.640611 172.57448 
L 201.707102 171.532682 
L 203.773748 173.365396 
L 205.840788 174.011853 
L 207.907095 174.154557 
L 209.97404 175.327366 
L 212.040816 172.986259 
L 214.107116 173.515092 
L 216.173975 173.685772 
L 218.240594 173.661178 
L 220.307339 173.955522 
L 222.37389 175.504566 
L 224.440726 172.00192 
L 226.50726 175.117204 
L 228.574033 174.368801 
L 230.640638 175.308794 
L 232.707291 172.764503 
L 234.773957 171.812952 
L 236.840643 174.44605 
L 238.907317 172.478562 
L 240.97399 174.334574 
L 243.040646 171.846534 
L 245.107298 175.551126 
L 247.173971 174.73826 
L 249.240605 173.909538 
L 251.307287 173.465858 
L 253.373957 173.159331 
L 255.440625 173.080712 
" style="fill:none;stroke:#4daf4a;stroke-linecap:square;stroke-width:2.0;"/>
   </g>
   <g id="line2d_2">
    <path clip-path="url(#pd6287120ae)" d="M 32.240625 172.673542 
L 44.030456 172.090646 
L 50.927066 171.886098 
L 55.820288 171.946456 
L 59.615766 171.849826 
L 62.716897 172.24104 
L 65.338866 172.147468 
L 67.610119 172.449321 
L 69.613506 172.211989 
L 71.405597 172.090912 
L 73.02674 172.316183 
L 75.868185 172.142405 
L 77.128697 172.370095 
L 79.39995 172.312331 
L 81.403337 171.69396 
L 84.025307 171.49911 
L 86.296559 171.404612 
L 88.299947 171.140966 
L 90.092037 172.28585 
L 92.220954 171.52847 
L 94.112805 170.81814 
L 96.215371 171.499625 
L 98.437107 170.568538 
L 100.401881 170.336169 
L 102.439595 170.503076 
L 104.503838 169.274642 
L 106.561137 169.428583 
L 108.778478 169.726916 
L 110.739815 170.841861 
L 112.799246 171.425837 
L 114.901812 170.389021 
L 117.007444 169.730465 
L 119.088321 167.105847 
L 121.126036 169.007891 
L 123.190278 169.90966 
L 125.247577 168.525466 
L 127.338456 170.980314 
L 129.370027 170.134391 
L 131.435879 169.874727 
L 133.500122 169.308766 
L 135.576983 169.561526 
L 137.636756 166.867352 
L 139.720783 168.126626 
L 141.76838 167.471978 
L 143.838056 168.35278 
L 145.897487 168.267362 
L 147.981206 166.448692 
L 150.038982 165.741447 
L 152.11277 166.220159 
L 154.171941 168.373629 
L 156.242173 168.994831 
L 158.304758 168.083813 
L 160.373111 168.25611 
L 162.444113 167.62323 
L 164.505593 169.426277 
L 166.573099 168.167928 
L 168.641675 170.504957 
L 170.705278 168.520799 
L 172.775186 169.573339 
L 174.839428 168.493927 
L 176.90878 171.286299 
L 178.9744 168.001069 
L 181.041691 165.230623 
L 183.106165 167.589964 
L 185.172935 170.569749 
L 187.240203 168.824434 
L 189.307232 168.232793 
L 191.37361 167.669614 
L 193.440121 168.158002 
L 195.507787 168.214761 
L 197.574238 170.071865 
L 199.640611 169.080199 
L 201.707102 166.403741 
L 203.773748 170.761776 
L 205.840788 169.184293 
L 207.907095 169.403275 
L 209.97404 165.739053 
L 212.040816 169.106404 
L 214.107116 168.309158 
L 216.173975 166.923144 
L 218.240594 164.256854 
L 220.307339 163.912183 
L 222.37389 167.782637 
L 224.440726 164.719058 
L 226.50726 168.889092 
L 228.574033 168.674675 
L 230.640638 166.62617 
L 232.707291 166.751947 
L 234.773957 165.880855 
L 236.840643 167.168142 
L 238.907317 167.782662 
L 240.97399 168.029333 
L 243.040646 169.524329 
L 245.107298 166.345742 
L 247.173971 166.944887 
L 249.240605 168.993887 
L 251.307287 167.56038 
L 253.373957 166.166435 
L 255.440625 166.40543 
" style="fill:none;stroke:#49a560;stroke-linecap:square;stroke-width:2.0;"/>
   </g>
   <g id="line2d_3">
    <path clip-path="url(#pd6287120ae)" d="M 32.240625 171.99199 
L 44.030456 171.162865 
L 50.927066 171.130355 
L 55.820288 171.009819 
L 59.615766 171.31444 
L 62.716897 171.030198 
L 65.338866 170.729461 
L 67.610119 170.312763 
L 69.613506 170.959662 
L 71.405597 171.535822 
L 73.02674 171.259367 
L 75.868185 170.701327 
L 77.128697 170.552345 
L 79.39995 171.050304 
L 81.403337 171.448678 
L 84.025307 171.213481 
L 86.296559 171.326748 
L 88.299947 171.088705 
L 90.092037 170.848542 
L 92.220954 169.900304 
L 94.112805 170.833976 
L 96.215371 170.646103 
L 98.437107 169.690398 
L 100.401881 170.277091 
L 102.439595 170.591849 
L 104.503838 169.054613 
L 106.561137 168.046757 
L 108.778478 167.364417 
L 110.739815 166.814922 
L 112.799246 166.592151 
L 114.901812 167.975693 
L 117.007444 167.643474 
L 119.088321 167.398432 
L 121.126036 168.137083 
L 123.190278 167.655823 
L 125.247577 166.005156 
L 127.338456 165.247802 
L 129.370027 165.03494 
L 131.435879 165.939403 
L 133.500122 162.585924 
L 135.576983 163.462043 
L 137.636756 164.455754 
L 139.720783 166.045264 
L 141.76838 168.019091 
L 143.838056 165.803657 
L 145.897487 166.02069 
L 147.981206 164.482854 
L 150.038982 164.695336 
L 152.11277 164.012723 
L 154.171941 159.306538 
L 156.242173 165.69245 
L 158.304758 164.107428 
L 160.373111 162.197476 
L 162.444113 164.674949 
L 164.505593 162.449579 
L 166.573099 163.243886 
L 168.641675 162.598387 
L 170.705278 163.589952 
L 172.775186 163.573283 
L 174.839428 158.017346 
L 176.90878 162.579214 
L 178.9744 160.825774 
L 181.041691 162.152743 
L 183.106165 161.484489 
L 185.172935 161.528592 
L 187.240203 160.56526 
L 189.307232 159.665503 
L 191.37361 157.413352 
L 193.440121 158.742764 
L 195.507787 161.146234 
L 197.574238 163.256859 
L 199.640611 157.533245 
L 201.707102 158.175373 
L 203.773748 155.28329 
L 205.840788 158.844226 
L 207.907095 160.363084 
L 209.97404 159.453617 
L 212.040816 155.242238 
L 214.107116 158.381583 
L 216.173975 154.614985 
L 218.240594 158.853875 
L 220.307339 158.557909 
L 222.37389 154.899348 
L 224.440726 159.900755 
L 226.50726 157.033851 
L 228.574033 159.448402 
L 230.640638 161.325651 
L 232.707291 158.68313 
L 234.773957 162.318349 
L 236.840643 155.720137 
L 238.907317 156.444419 
L 240.97399 157.736578 
L 243.040646 160.587669 
L 245.107298 158.924074 
L 247.173971 161.089404 
L 249.240605 158.036134 
L 251.307287 160.440247 
L 253.373957 162.653793 
L 255.440625 158.793657 
" style="fill:none;stroke:#449b77;stroke-linecap:square;stroke-width:2.0;"/>
   </g>
   <g id="line2d_4">
    <path clip-path="url(#pd6287120ae)" d="M 32.240625 169.200159 
L 44.030456 168.555857 
L 50.927066 168.404162 
L 55.820288 167.862497 
L 59.615766 168.153032 
L 62.716897 168.146519 
L 65.338866 168.175818 
L 67.610119 168.04856 
L 69.613506 168.329275 
L 71.405597 168.661817 
L 73.02674 169.094141 
L 75.868185 168.286051 
L 77.128697 169.286087 
L 79.39995 169.691544 
L 81.403337 169.357696 
L 84.025307 168.040189 
L 86.296559 167.232694 
L 88.299947 166.549947 
L 90.092037 165.178552 
L 92.220954 166.6084 
L 94.112805 167.743208 
L 96.215371 166.824108 
L 98.437107 167.917447 
L 100.401881 166.302287 
L 102.439595 166.731681 
L 104.503838 166.798555 
L 106.561137 165.120581 
L 108.778478 166.226014 
L 110.739815 166.091443 
L 112.799246 166.177306 
L 114.901812 166.080857 
L 117.007444 165.906287 
L 119.088321 165.462566 
L 121.126036 163.368213 
L 123.190278 163.905327 
L 125.247577 163.108448 
L 127.338456 160.737888 
L 129.370027 161.839709 
L 131.435879 161.440148 
L 133.500122 159.71565 
L 135.576983 158.484254 
L 137.636756 157.200226 
L 139.720783 157.892402 
L 141.76838 158.985197 
L 143.838056 159.464861 
L 145.897487 160.015714 
L 147.981206 161.346575 
L 150.038982 159.811129 
L 152.11277 159.067005 
L 154.171941 156.042135 
L 156.242173 160.714797 
L 158.304758 156.522721 
L 160.373111 154.033564 
L 162.444113 153.696354 
L 164.505593 149.3228 
L 166.573099 154.951113 
L 168.641675 154.795598 
L 170.705278 153.219044 
L 172.775186 156.550771 
L 174.839428 155.618321 
L 176.90878 156.780493 
L 178.9744 149.482548 
L 181.041691 149.331751 
L 183.106165 151.785843 
L 185.172935 152.37253 
L 187.240203 147.883614 
L 189.307232 151.580195 
L 191.37361 153.25471 
L 193.440121 152.714151 
L 195.507787 152.390896 
L 197.574238 149.025478 
L 199.640611 150.765526 
L 201.707102 144.765469 
L 203.773748 143.108928 
L 205.840788 146.622031 
L 207.907095 141.937911 
L 209.97404 142.301271 
L 212.040816 143.293717 
L 214.107116 148.309238 
L 216.173975 146.075138 
L 218.240594 146.694257 
L 220.307339 145.406963 
L 222.37389 144.866999 
L 224.440726 149.279333 
L 226.50726 140.881587 
L 228.574033 143.481834 
L 230.640638 144.565848 
L 232.707291 140.671099 
L 234.773957 144.859864 
L 236.840643 144.857998 
L 238.907317 149.047323 
L 240.97399 144.462509 
L 243.040646 145.712637 
L 245.107298 144.798079 
L 247.173971 143.884404 
L 249.240605 146.487946 
L 251.307287 141.753926 
L 253.373957 146.921082 
L 255.440625 137.884875 
" style="fill:none;stroke:#3b86a5;stroke-linecap:square;stroke-width:2.0;"/>
   </g>
   <g id="line2d_5">
    <path clip-path="url(#pd6287120ae)" d="M 32.240625 167.438836 
L 44.030456 166.347337 
L 50.927066 165.569653 
L 55.820288 165.46981 
L 59.615766 165.236565 
L 62.716897 165.41259 
L 65.338866 165.309343 
L 67.610119 165.144413 
L 69.613506 165.257341 
L 71.405597 165.173246 
L 73.02674 164.711398 
L 75.868185 163.544337 
L 77.128697 164.065021 
L 79.39995 164.50038 
L 81.403337 164.72668 
L 84.025307 164.335256 
L 86.296559 164.174978 
L 88.299947 164.809292 
L 90.092037 165.475518 
L 92.220954 164.629865 
L 94.112805 163.806748 
L 96.215371 163.042991 
L 98.437107 162.078539 
L 100.401881 162.083885 
L 102.439595 160.872474 
L 104.503838 161.041361 
L 106.561137 159.987509 
L 108.778478 160.751739 
L 110.739815 157.697577 
L 112.799246 159.23319 
L 114.901812 158.213414 
L 117.007444 157.264105 
L 119.088321 155.985621 
L 121.126036 155.510926 
L 123.190278 155.265086 
L 125.247577 154.315487 
L 127.338456 159.249821 
L 129.370027 159.928553 
L 131.435879 158.313553 
L 133.500122 157.299502 
L 135.576983 156.432261 
L 137.636756 156.352616 
L 139.720783 154.147837 
L 141.76838 154.693181 
L 143.838056 151.593491 
L 145.897487 148.705036 
L 147.981206 147.457135 
L 150.038982 151.388853 
L 152.11277 149.578758 
L 154.171941 150.266394 
L 156.242173 153.366192 
L 158.304758 155.676795 
L 160.373111 153.710206 
L 162.444113 151.549652 
L 164.505593 147.849603 
L 166.573099 152.125947 
L 168.641675 148.188776 
L 170.705278 148.730941 
L 172.775186 141.671058 
L 174.839428 150.180699 
L 176.90878 146.50592 
L 178.9744 143.403156 
L 181.041691 146.788282 
L 183.106165 137.767411 
L 185.172935 143.315721 
L 187.240203 140.2682 
L 189.307232 142.341029 
L 191.37361 144.385531 
L 193.440121 144.107792 
L 195.507787 142.591029 
L 197.574238 142.394735 
L 199.640611 136.752228 
L 201.707102 140.137797 
L 203.773748 131.981351 
L 205.840788 132.306495 
L 207.907095 131.728965 
L 209.97404 137.707428 
L 212.040816 133.428503 
L 214.107116 126.101749 
L 216.173975 130.297526 
L 218.240594 134.238614 
L 220.307339 132.550356 
L 222.37389 129.122346 
L 224.440726 135.046775 
L 226.50726 118.685102 
L 228.574033 127.800648 
L 230.640638 129.083633 
L 232.707291 112.386383 
L 234.773957 122.221711 
L 236.840643 119.765951 
L 238.907317 120.684508 
L 240.97399 117.221513 
L 243.040646 126.194785 
L 245.107298 122.830206 
L 247.173971 127.071925 
L 249.240605 111.517016 
L 251.307287 115.467497 
L 253.373957 95.846153 
L 255.440625 122.668069 
" style="fill:none;stroke:#8e53a5;stroke-linecap:square;stroke-width:2.0;"/>
   </g>
   <g id="line2d_6">
    <path clip-path="url(#pd6287120ae)" d="M 32.240625 166.832105 
L 44.030456 165.938919 
L 50.927066 165.107112 
L 55.820288 165.050109 
L 59.615766 164.757235 
L 62.716897 164.039036 
L 65.338866 164.645236 
L 67.610119 165.168194 
L 69.613506 165.292773 
L 71.405597 165.200615 
L 73.02674 164.859969 
L 75.868185 163.743339 
L 77.128697 163.667699 
L 79.39995 163.517769 
L 81.403337 163.648924 
L 84.025307 163.710297 
L 86.296559 162.573872 
L 88.299947 162.322578 
L 90.092037 161.913065 
L 92.220954 160.646532 
L 94.112805 161.009954 
L 96.215371 163.226287 
L 98.437107 161.012346 
L 100.401881 162.861828 
L 102.439595 161.827536 
L 104.503838 158.89253 
L 106.561137 158.593898 
L 108.778478 158.814797 
L 110.739815 157.544972 
L 112.799246 159.206216 
L 114.901812 159.758656 
L 117.007444 160.100009 
L 119.088321 157.846381 
L 121.126036 158.058285 
L 123.190278 157.039734 
L 125.247577 155.93454 
L 127.338456 157.152569 
L 129.370027 156.537511 
L 131.435879 157.198087 
L 133.500122 155.982059 
L 135.576983 153.9869 
L 137.636756 153.088197 
L 139.720783 151.864377 
L 141.76838 152.728216 
L 143.838056 153.800021 
L 145.897487 152.544438 
L 147.981206 151.407686 
L 150.038982 152.336409 
L 152.11277 146.892595 
L 154.171941 142.96058 
L 156.242173 144.697484 
L 158.304758 144.296009 
L 160.373111 150.554774 
L 162.444113 149.478991 
L 164.505593 146.847533 
L 166.573099 144.595407 
L 168.641675 141.345621 
L 170.705278 138.719903 
L 172.775186 136.486204 
L 174.839428 139.415898 
L 176.90878 140.531477 
L 178.9744 131.857099 
L 181.041691 132.068058 
L 183.106165 129.858449 
L 185.172935 137.097545 
L 187.240203 131.968847 
L 189.307232 134.308401 
L 191.37361 133.207929 
L 193.440121 136.363416 
L 195.507787 130.072473 
L 197.574238 130.066051 
L 199.640611 131.78422 
L 201.707102 129.487637 
L 203.773748 119.765702 
L 205.840788 127.229257 
L 207.907095 131.505101 
L 209.97404 123.034665 
L 212.040816 125.703641 
L 214.107116 120.489741 
L 216.173975 115.918733 
L 218.240594 115.299345 
L 220.307339 108.956556 
L 222.37389 113.151649 
L 224.440726 113.903238 
L 226.50726 121.543967 
L 228.574033 104.620769 
L 230.640638 110.160599 
L 232.707291 115.52625 
L 234.773957 98.013914 
L 236.840643 106.511161 
L 238.907317 106.271199 
L 240.97399 109.314809 
L 243.040646 110.963187 
L 245.107298 112.501111 
L 247.173971 105.257328 
L 249.240605 40.257898 
L 251.307287 89.743495 
L 253.373957 75.895316 
L 255.440625 87.533418 
" style="fill:none;stroke:#e01d23;stroke-linecap:square;stroke-width:2.0;"/>
   </g>
   <g id="line2d_7">
    <path clip-path="url(#pd6287120ae)" d="M 32.240625 161.822895 
L 44.030456 161.81617 
L 50.927066 161.091315 
L 55.820288 160.80149 
L 59.615766 160.245347 
L 62.716897 160.180405 
L 65.338866 159.713066 
L 67.610119 159.248957 
L 69.613506 159.630368 
L 71.405597 159.237053 
L 73.02674 159.085296 
L 75.868185 159.236107 
L 77.128697 159.190072 
L 79.39995 159.369774 
L 81.403337 158.053494 
L 84.025307 158.309818 
L 86.296559 157.121379 
L 88.299947 157.755804 
L 90.092037 158.032743 
L 92.220954 157.356323 
L 94.112805 157.813102 
L 96.215371 156.69321 
L 98.437107 158.016927 
L 100.401881 157.884763 
L 102.439595 157.384706 
L 104.503838 156.115486 
L 106.561137 155.974516 
L 108.778478 153.704507 
L 110.739815 152.364388 
L 112.799246 153.04952 
L 114.901812 152.834046 
L 117.007444 150.944231 
L 119.088321 153.270451 
L 121.126036 149.46613 
L 123.190278 151.13063 
L 125.247577 150.913666 
L 127.338456 152.340624 
L 129.370027 150.139577 
L 131.435879 150.467303 
L 133.500122 149.467133 
L 135.576983 147.401092 
L 137.636756 146.597421 
L 139.720783 147.298697 
L 141.76838 145.348803 
L 143.838056 145.161292 
L 145.897487 143.111011 
L 147.981206 144.948876 
L 150.038982 132.358913 
L 152.11277 133.110348 
L 154.171941 136.271666 
L 156.242173 128.481101 
L 158.304758 135.381943 
L 160.373111 133.826036 
L 162.444113 138.225454 
L 164.505593 125.855522 
L 166.573099 134.532742 
L 168.641675 135.61407 
L 170.705278 133.507228 
L 172.775186 131.726123 
L 174.839428 130.963894 
L 176.90878 122.183828 
L 178.9744 129.226118 
L 181.041691 127.708551 
L 183.106165 136.390686 
L 185.172935 133.896283 
L 187.240203 131.068219 
L 189.307232 126.387964 
L 191.37361 123.813467 
L 193.440121 125.437384 
L 195.507787 130.049442 
L 197.574238 118.097462 
L 199.640611 111.020985 
L 201.707102 106.236757 
L 203.773748 109.534107 
L 205.840788 116.131627 
L 207.907095 101.0167 
L 209.97404 98.162346 
L 212.040816 103.215441 
L 214.107116 103.090612 
L 216.173975 106.648174 
L 218.240594 99.009757 
L 220.307339 100.214716 
L 222.37389 107.350898 
L 224.440726 112.549707 
L 226.50726 103.127322 
L 228.574033 98.367119 
L 230.640638 83.831842 
L 232.707291 112.936862 
L 234.773957 95.59672 
L 236.840643 99.815054 
L 238.907317 63.147882 
L 240.97399 100.057219 
L 243.040646 93.204995 
L 245.107298 93.977596 
L 247.173971 104.229306 
L 249.240605 82.417279 
L 251.307287 66.689893 
L 253.373957 60.385493 
L 255.440625 76.507832 
" style="fill:none;stroke:#ff7f00;stroke-linecap:square;stroke-width:2.0;"/>
   </g>
   <g id="patch_3">
    <path d="M 32.240625 194 
L 32.240625 21.2 
" style="fill:none;stroke:#000000;stroke-linecap:square;stroke-linejoin:miter;"/>
   </g>
   <g id="patch_4">
    <path d="M 32.240625 194 
L 255.440625 194 
" style="fill:none;stroke:#000000;stroke-linecap:square;stroke-linejoin:miter;"/>
   </g>
   <g id="patch_5">
    <path d="M 255.440625 194 
L 255.440625 21.2 
" style="fill:none;stroke:#000000;stroke-linecap:square;stroke-linejoin:miter;"/>
   </g>
   <g id="patch_6">
    <path d="M 32.240625 21.2 
L 255.440625 21.2 
" style="fill:none;stroke:#000000;stroke-linecap:square;stroke-linejoin:miter;"/>
   </g>
   <g id="matplotlib.axis_1">
    <g id="xtick_1">
     <g id="line2d_8">
      <defs>
       <path d="M 0 0 
L 0 -4 
" id="m61b1a05317" style="stroke:#000000;stroke-width:0.5;"/>
      </defs>
      <g>
       <use style="stroke:#000000;stroke-width:0.5;" x="32.240625" xlink:href="#m61b1a05317" y="194.0"/>
      </g>
     </g>
     <g id="line2d_9">
      <defs>
       <path d="M 0 0 
L 0 4 
" id="m69aac1ed86" style="stroke:#000000;stroke-width:0.5;"/>
      </defs>
      <g>
       <use style="stroke:#000000;stroke-width:0.5;" x="32.240625" xlink:href="#m69aac1ed86" y="21.2"/>
      </g>
     </g>
     <g id="text_1">
      <!-- $\mathdefault{10^{-1}}$ -->
      <defs>
       <path d="M 4.890625 31.390625 
L 31.203125 31.390625 
L 31.203125 23.390625 
L 4.890625 23.390625 
z
" id="BitstreamVeraSans-Roman-2d"/>
       <path d="M 31.78125 66.40625 
Q 24.171875 66.40625 20.328125 58.90625 
Q 16.5 51.421875 16.5 36.375 
Q 16.5 21.390625 20.328125 13.890625 
Q 24.171875 6.390625 31.78125 6.390625 
Q 39.453125 6.390625 43.28125 13.890625 
Q 47.125 21.390625 47.125 36.375 
Q 47.125 51.421875 43.28125 58.90625 
Q 39.453125 66.40625 31.78125 66.40625 
M 31.78125 74.21875 
Q 44.046875 74.21875 50.515625 64.515625 
Q 56.984375 54.828125 56.984375 36.375 
Q 56.984375 17.96875 50.515625 8.265625 
Q 44.046875 -1.421875 31.78125 -1.421875 
Q 19.53125 -1.421875 13.0625 8.265625 
Q 6.59375 17.96875 6.59375 36.375 
Q 6.59375 54.828125 13.0625 64.515625 
Q 19.53125 74.21875 31.78125 74.21875 
" id="BitstreamVeraSans-Roman-30"/>
       <path d="M 12.40625 8.296875 
L 28.515625 8.296875 
L 28.515625 63.921875 
L 10.984375 60.40625 
L 10.984375 69.390625 
L 28.421875 72.90625 
L 38.28125 72.90625 
L 38.28125 8.296875 
L 54.390625 8.296875 
L 54.390625 0 
L 12.40625 0 
z
" id="BitstreamVeraSans-Roman-31"/>
      </defs>
      <g transform="translate(22.340625 206.5203125)scale(0.1 -0.1)">
       <use transform="translate(0.0 0.46562500000000284)" xlink:href="#BitstreamVeraSans-Roman-31"/>
       <use transform="translate(63.623046875 0.46562500000000284)" xlink:href="#BitstreamVeraSans-Roman-30"/>
       <use transform="translate(127.24609375 52.965625)scale(0.7)" xlink:href="#BitstreamVeraSans-Roman-2d"/>
       <use transform="translate(152.5048828125 52.965625)scale(0.7)" xlink:href="#BitstreamVeraSans-Roman-31"/>
      </g>
     </g>
    </g>
    <g id="xtick_2">
     <g id="line2d_10">
      <g>
       <use style="stroke:#000000;stroke-width:0.5;" x="71.4055968862" xlink:href="#m61b1a05317" y="194.0"/>
      </g>
     </g>
     <g id="line2d_11">
      <g>
       <use style="stroke:#000000;stroke-width:0.5;" x="71.4055968862" xlink:href="#m69aac1ed86" y="21.2"/>
      </g>
     </g>
     <g id="text_2">
      <!-- $\mathdefault{10^{0}}$ -->
      <g transform="translate(62.8055968862 206.6203125)scale(0.1 -0.1)">
       <use transform="translate(0.0 0.546875)" xlink:href="#BitstreamVeraSans-Roman-31"/>
       <use transform="translate(63.623046875 0.546875)" xlink:href="#BitstreamVeraSans-Roman-30"/>
       <use transform="translate(127.24609375 53.046875)scale(0.7)" xlink:href="#BitstreamVeraSans-Roman-30"/>
      </g>
     </g>
    </g>
    <g id="xtick_3">
     <g id="line2d_12">
      <g>
       <use style="stroke:#000000;stroke-width:0.5;" x="110.570568772" xlink:href="#m61b1a05317" y="194.0"/>
      </g>
     </g>
     <g id="line2d_13">
      <g>
       <use style="stroke:#000000;stroke-width:0.5;" x="110.570568772" xlink:href="#m69aac1ed86" y="21.2"/>
      </g>
     </g>
     <g id="text_3">
      <!-- $\mathdefault{10^{1}}$ -->
      <g transform="translate(101.970568772 206.5203125)scale(0.1 -0.1)">
       <use transform="translate(0.0 0.46562500000000284)" xlink:href="#BitstreamVeraSans-Roman-31"/>
       <use transform="translate(63.623046875 0.46562500000000284)" xlink:href="#BitstreamVeraSans-Roman-30"/>
       <use transform="translate(127.24609375 52.965625)scale(0.7)" xlink:href="#BitstreamVeraSans-Roman-31"/>
      </g>
     </g>
    </g>
    <g id="xtick_4">
     <g id="line2d_14">
      <g>
       <use style="stroke:#000000;stroke-width:0.5;" x="149.735540659" xlink:href="#m61b1a05317" y="194.0"/>
      </g>
     </g>
     <g id="line2d_15">
      <g>
       <use style="stroke:#000000;stroke-width:0.5;" x="149.735540659" xlink:href="#m69aac1ed86" y="21.2"/>
      </g>
     </g>
     <g id="text_4">
      <!-- $\mathdefault{10^{2}}$ -->
      <defs>
       <path d="M 19.1875 8.296875 
L 53.609375 8.296875 
L 53.609375 0 
L 7.328125 0 
L 7.328125 8.296875 
Q 12.9375 14.109375 22.625 23.890625 
Q 32.328125 33.6875 34.8125 36.53125 
Q 39.546875 41.84375 41.421875 45.53125 
Q 43.3125 49.21875 43.3125 52.78125 
Q 43.3125 58.59375 39.234375 62.25 
Q 35.15625 65.921875 28.609375 65.921875 
Q 23.96875 65.921875 18.8125 64.3125 
Q 13.671875 62.703125 7.8125 59.421875 
L 7.8125 69.390625 
Q 13.765625 71.78125 18.9375 73 
Q 24.125 74.21875 28.421875 74.21875 
Q 39.75 74.21875 46.484375 68.546875 
Q 53.21875 62.890625 53.21875 53.421875 
Q 53.21875 48.921875 51.53125 44.890625 
Q 49.859375 40.875 45.40625 35.40625 
Q 44.1875 33.984375 37.640625 27.21875 
Q 31.109375 20.453125 19.1875 8.296875 
" id="BitstreamVeraSans-Roman-32"/>
      </defs>
      <g transform="translate(141.135540659 206.6203125)scale(0.1 -0.1)">
       <use transform="translate(0.0 0.546875)" xlink:href="#BitstreamVeraSans-Roman-31"/>
       <use transform="translate(63.623046875 0.546875)" xlink:href="#BitstreamVeraSans-Roman-30"/>
       <use transform="translate(127.24609375 53.046875)scale(0.7)" xlink:href="#BitstreamVeraSans-Roman-32"/>
      </g>
     </g>
    </g>
    <g id="xtick_5">
     <g id="line2d_16">
      <g>
       <use style="stroke:#000000;stroke-width:0.5;" x="188.900512545" xlink:href="#m61b1a05317" y="194.0"/>
      </g>
     </g>
     <g id="line2d_17">
      <g>
       <use style="stroke:#000000;stroke-width:0.5;" x="188.900512545" xlink:href="#m69aac1ed86" y="21.2"/>
      </g>
     </g>
     <g id="text_5">
      <!-- $\mathdefault{10^{3}}$ -->
      <defs>
       <path d="M 40.578125 39.3125 
Q 47.65625 37.796875 51.625 33 
Q 55.609375 28.21875 55.609375 21.1875 
Q 55.609375 10.40625 48.1875 4.484375 
Q 40.765625 -1.421875 27.09375 -1.421875 
Q 22.515625 -1.421875 17.65625 -0.515625 
Q 12.796875 0.390625 7.625 2.203125 
L 7.625 11.71875 
Q 11.71875 9.328125 16.59375 8.109375 
Q 21.484375 6.890625 26.8125 6.890625 
Q 36.078125 6.890625 40.9375 10.546875 
Q 45.796875 14.203125 45.796875 21.1875 
Q 45.796875 27.640625 41.28125 31.265625 
Q 36.765625 34.90625 28.71875 34.90625 
L 20.21875 34.90625 
L 20.21875 43.015625 
L 29.109375 43.015625 
Q 36.375 43.015625 40.234375 45.921875 
Q 44.09375 48.828125 44.09375 54.296875 
Q 44.09375 59.90625 40.109375 62.90625 
Q 36.140625 65.921875 28.71875 65.921875 
Q 24.65625 65.921875 20.015625 65.03125 
Q 15.375 64.15625 9.8125 62.3125 
L 9.8125 71.09375 
Q 15.4375 72.65625 20.34375 73.4375 
Q 25.25 74.21875 29.59375 74.21875 
Q 40.828125 74.21875 47.359375 69.109375 
Q 53.90625 64.015625 53.90625 55.328125 
Q 53.90625 49.265625 50.4375 45.09375 
Q 46.96875 40.921875 40.578125 39.3125 
" id="BitstreamVeraSans-Roman-33"/>
      </defs>
      <g transform="translate(180.300512545 206.6203125)scale(0.1 -0.1)">
       <use transform="translate(0.0 0.546875)" xlink:href="#BitstreamVeraSans-Roman-31"/>
       <use transform="translate(63.623046875 0.546875)" xlink:href="#BitstreamVeraSans-Roman-30"/>
       <use transform="translate(127.24609375 53.046875)scale(0.7)" xlink:href="#BitstreamVeraSans-Roman-33"/>
      </g>
     </g>
    </g>
    <g id="xtick_6">
     <g id="line2d_18">
      <g>
       <use style="stroke:#000000;stroke-width:0.5;" x="228.065484431" xlink:href="#m61b1a05317" y="194.0"/>
      </g>
     </g>
     <g id="line2d_19">
      <g>
       <use style="stroke:#000000;stroke-width:0.5;" x="228.065484431" xlink:href="#m69aac1ed86" y="21.2"/>
      </g>
     </g>
     <g id="text_6">
      <!-- $\mathdefault{10^{4}}$ -->
      <defs>
       <path d="M 37.796875 64.3125 
L 12.890625 25.390625 
L 37.796875 25.390625 
z
M 35.203125 72.90625 
L 47.609375 72.90625 
L 47.609375 25.390625 
L 58.015625 25.390625 
L 58.015625 17.1875 
L 47.609375 17.1875 
L 47.609375 0 
L 37.796875 0 
L 37.796875 17.1875 
L 4.890625 17.1875 
L 4.890625 26.703125 
z
" id="BitstreamVeraSans-Roman-34"/>
      </defs>
      <g transform="translate(219.465484431 206.5203125)scale(0.1 -0.1)">
       <use transform="translate(0.0 0.46562500000000284)" xlink:href="#BitstreamVeraSans-Roman-31"/>
       <use transform="translate(63.623046875 0.46562500000000284)" xlink:href="#BitstreamVeraSans-Roman-30"/>
       <use transform="translate(127.24609375 52.965625)scale(0.7)" xlink:href="#BitstreamVeraSans-Roman-34"/>
      </g>
     </g>
    </g>
    <g id="xtick_7">
     <g id="line2d_20">
      <defs>
       <path d="M 0 0 
L 0 -2 
" id="m1846578677" style="stroke:#000000;stroke-width:0.5;"/>
      </defs>
      <g>
       <use style="stroke:#000000;stroke-width:0.5;" x="44.0304563171" xlink:href="#m1846578677" y="194.0"/>
      </g>
     </g>
     <g id="line2d_21">
      <defs>
       <path d="M 0 0 
L 0 2 
" id="me0a6632743" style="stroke:#000000;stroke-width:0.5;"/>
      </defs>
      <g>
       <use style="stroke:#000000;stroke-width:0.5;" x="44.0304563171" xlink:href="#me0a6632743" y="21.2"/>
      </g>
     </g>
    </g>
    <g id="xtick_8">
     <g id="line2d_22">
      <g>
       <use style="stroke:#000000;stroke-width:0.5;" x="50.9270655274" xlink:href="#m1846578677" y="194.0"/>
      </g>
     </g>
     <g id="line2d_23">
      <g>
       <use style="stroke:#000000;stroke-width:0.5;" x="50.9270655274" xlink:href="#me0a6632743" y="21.2"/>
      </g>
     </g>
    </g>
    <g id="xtick_9">
     <g id="line2d_24">
      <g>
       <use style="stroke:#000000;stroke-width:0.5;" x="55.8202876342" xlink:href="#m1846578677" y="194.0"/>
      </g>
     </g>
     <g id="line2d_25">
      <g>
       <use style="stroke:#000000;stroke-width:0.5;" x="55.8202876342" xlink:href="#me0a6632743" y="21.2"/>
      </g>
     </g>
    </g>
    <g id="xtick_10">
     <g id="line2d_26">
      <g>
       <use style="stroke:#000000;stroke-width:0.5;" x="59.6157655691" xlink:href="#m1846578677" y="194.0"/>
      </g>
     </g>
     <g id="line2d_27">
      <g>
       <use style="stroke:#000000;stroke-width:0.5;" x="59.6157655691" xlink:href="#me0a6632743" y="21.2"/>
      </g>
     </g>
    </g>
    <g id="xtick_11">
     <g id="line2d_28">
      <g>
       <use style="stroke:#000000;stroke-width:0.5;" x="62.7168968445" xlink:href="#m1846578677" y="194.0"/>
      </g>
     </g>
     <g id="line2d_29">
      <g>
       <use style="stroke:#000000;stroke-width:0.5;" x="62.7168968445" xlink:href="#me0a6632743" y="21.2"/>
      </g>
     </g>
    </g>
    <g id="xtick_12">
     <g id="line2d_30">
      <g>
       <use style="stroke:#000000;stroke-width:0.5;" x="65.3388659782" xlink:href="#m1846578677" y="194.0"/>
      </g>
     </g>
     <g id="line2d_31">
      <g>
       <use style="stroke:#000000;stroke-width:0.5;" x="65.3388659782" xlink:href="#me0a6632743" y="21.2"/>
      </g>
     </g>
    </g>
    <g id="xtick_13">
     <g id="line2d_32">
      <g>
       <use style="stroke:#000000;stroke-width:0.5;" x="67.6101189512" xlink:href="#m1846578677" y="194.0"/>
      </g>
     </g>
     <g id="line2d_33">
      <g>
       <use style="stroke:#000000;stroke-width:0.5;" x="67.6101189512" xlink:href="#me0a6632743" y="21.2"/>
      </g>
     </g>
    </g>
    <g id="xtick_14">
     <g id="line2d_34">
      <g>
       <use style="stroke:#000000;stroke-width:0.5;" x="69.6135060548" xlink:href="#m1846578677" y="194.0"/>
      </g>
     </g>
     <g id="line2d_35">
      <g>
       <use style="stroke:#000000;stroke-width:0.5;" x="69.6135060548" xlink:href="#me0a6632743" y="21.2"/>
      </g>
     </g>
    </g>
    <g id="xtick_15">
     <g id="line2d_36">
      <g>
       <use style="stroke:#000000;stroke-width:0.5;" x="83.1954282033" xlink:href="#m1846578677" y="194.0"/>
      </g>
     </g>
     <g id="line2d_37">
      <g>
       <use style="stroke:#000000;stroke-width:0.5;" x="83.1954282033" xlink:href="#me0a6632743" y="21.2"/>
      </g>
     </g>
    </g>
    <g id="xtick_16">
     <g id="line2d_38">
      <g>
       <use style="stroke:#000000;stroke-width:0.5;" x="90.0920374136" xlink:href="#m1846578677" y="194.0"/>
      </g>
     </g>
     <g id="line2d_39">
      <g>
       <use style="stroke:#000000;stroke-width:0.5;" x="90.0920374136" xlink:href="#me0a6632743" y="21.2"/>
      </g>
     </g>
    </g>
    <g id="xtick_17">
     <g id="line2d_40">
      <g>
       <use style="stroke:#000000;stroke-width:0.5;" x="94.9852595203" xlink:href="#m1846578677" y="194.0"/>
      </g>
     </g>
     <g id="line2d_41">
      <g>
       <use style="stroke:#000000;stroke-width:0.5;" x="94.9852595203" xlink:href="#me0a6632743" y="21.2"/>
      </g>
     </g>
    </g>
    <g id="xtick_18">
     <g id="line2d_42">
      <g>
       <use style="stroke:#000000;stroke-width:0.5;" x="98.7807374553" xlink:href="#m1846578677" y="194.0"/>
      </g>
     </g>
     <g id="line2d_43">
      <g>
       <use style="stroke:#000000;stroke-width:0.5;" x="98.7807374553" xlink:href="#me0a6632743" y="21.2"/>
      </g>
     </g>
    </g>
    <g id="xtick_19">
     <g id="line2d_44">
      <g>
       <use style="stroke:#000000;stroke-width:0.5;" x="101.881868731" xlink:href="#m1846578677" y="194.0"/>
      </g>
     </g>
     <g id="line2d_45">
      <g>
       <use style="stroke:#000000;stroke-width:0.5;" x="101.881868731" xlink:href="#me0a6632743" y="21.2"/>
      </g>
     </g>
    </g>
    <g id="xtick_20">
     <g id="line2d_46">
      <g>
       <use style="stroke:#000000;stroke-width:0.5;" x="104.503837864" xlink:href="#m1846578677" y="194.0"/>
      </g>
     </g>
     <g id="line2d_47">
      <g>
       <use style="stroke:#000000;stroke-width:0.5;" x="104.503837864" xlink:href="#me0a6632743" y="21.2"/>
      </g>
     </g>
    </g>
    <g id="xtick_21">
     <g id="line2d_48">
      <g>
       <use style="stroke:#000000;stroke-width:0.5;" x="106.775090837" xlink:href="#m1846578677" y="194.0"/>
      </g>
     </g>
     <g id="line2d_49">
      <g>
       <use style="stroke:#000000;stroke-width:0.5;" x="106.775090837" xlink:href="#me0a6632743" y="21.2"/>
      </g>
     </g>
    </g>
    <g id="xtick_22">
     <g id="line2d_50">
      <g>
       <use style="stroke:#000000;stroke-width:0.5;" x="108.778477941" xlink:href="#m1846578677" y="194.0"/>
      </g>
     </g>
     <g id="line2d_51">
      <g>
       <use style="stroke:#000000;stroke-width:0.5;" x="108.778477941" xlink:href="#me0a6632743" y="21.2"/>
      </g>
     </g>
    </g>
    <g id="xtick_23">
     <g id="line2d_52">
      <g>
       <use style="stroke:#000000;stroke-width:0.5;" x="122.360400089" xlink:href="#m1846578677" y="194.0"/>
      </g>
     </g>
     <g id="line2d_53">
      <g>
       <use style="stroke:#000000;stroke-width:0.5;" x="122.360400089" xlink:href="#me0a6632743" y="21.2"/>
      </g>
     </g>
    </g>
    <g id="xtick_24">
     <g id="line2d_54">
      <g>
       <use style="stroke:#000000;stroke-width:0.5;" x="129.2570093" xlink:href="#m1846578677" y="194.0"/>
      </g>
     </g>
     <g id="line2d_55">
      <g>
       <use style="stroke:#000000;stroke-width:0.5;" x="129.2570093" xlink:href="#me0a6632743" y="21.2"/>
      </g>
     </g>
    </g>
    <g id="xtick_25">
     <g id="line2d_56">
      <g>
       <use style="stroke:#000000;stroke-width:0.5;" x="134.150231407" xlink:href="#m1846578677" y="194.0"/>
      </g>
     </g>
     <g id="line2d_57">
      <g>
       <use style="stroke:#000000;stroke-width:0.5;" x="134.150231407" xlink:href="#me0a6632743" y="21.2"/>
      </g>
     </g>
    </g>
    <g id="xtick_26">
     <g id="line2d_58">
      <g>
       <use style="stroke:#000000;stroke-width:0.5;" x="137.945709341" xlink:href="#m1846578677" y="194.0"/>
      </g>
     </g>
     <g id="line2d_59">
      <g>
       <use style="stroke:#000000;stroke-width:0.5;" x="137.945709341" xlink:href="#me0a6632743" y="21.2"/>
      </g>
     </g>
    </g>
    <g id="xtick_27">
     <g id="line2d_60">
      <g>
       <use style="stroke:#000000;stroke-width:0.5;" x="141.046840617" xlink:href="#m1846578677" y="194.0"/>
      </g>
     </g>
     <g id="line2d_61">
      <g>
       <use style="stroke:#000000;stroke-width:0.5;" x="141.046840617" xlink:href="#me0a6632743" y="21.2"/>
      </g>
     </g>
    </g>
    <g id="xtick_28">
     <g id="line2d_62">
      <g>
       <use style="stroke:#000000;stroke-width:0.5;" x="143.668809751" xlink:href="#m1846578677" y="194.0"/>
      </g>
     </g>
     <g id="line2d_63">
      <g>
       <use style="stroke:#000000;stroke-width:0.5;" x="143.668809751" xlink:href="#me0a6632743" y="21.2"/>
      </g>
     </g>
    </g>
    <g id="xtick_29">
     <g id="line2d_64">
      <g>
       <use style="stroke:#000000;stroke-width:0.5;" x="145.940062724" xlink:href="#m1846578677" y="194.0"/>
      </g>
     </g>
     <g id="line2d_65">
      <g>
       <use style="stroke:#000000;stroke-width:0.5;" x="145.940062724" xlink:href="#me0a6632743" y="21.2"/>
      </g>
     </g>
    </g>
    <g id="xtick_30">
     <g id="line2d_66">
      <g>
       <use style="stroke:#000000;stroke-width:0.5;" x="147.943449827" xlink:href="#m1846578677" y="194.0"/>
      </g>
     </g>
     <g id="line2d_67">
      <g>
       <use style="stroke:#000000;stroke-width:0.5;" x="147.943449827" xlink:href="#me0a6632743" y="21.2"/>
      </g>
     </g>
    </g>
    <g id="xtick_31">
     <g id="line2d_68">
      <g>
       <use style="stroke:#000000;stroke-width:0.5;" x="161.525371976" xlink:href="#m1846578677" y="194.0"/>
      </g>
     </g>
     <g id="line2d_69">
      <g>
       <use style="stroke:#000000;stroke-width:0.5;" x="161.525371976" xlink:href="#me0a6632743" y="21.2"/>
      </g>
     </g>
    </g>
    <g id="xtick_32">
     <g id="line2d_70">
      <g>
       <use style="stroke:#000000;stroke-width:0.5;" x="168.421981186" xlink:href="#m1846578677" y="194.0"/>
      </g>
     </g>
     <g id="line2d_71">
      <g>
       <use style="stroke:#000000;stroke-width:0.5;" x="168.421981186" xlink:href="#me0a6632743" y="21.2"/>
      </g>
     </g>
    </g>
    <g id="xtick_33">
     <g id="line2d_72">
      <g>
       <use style="stroke:#000000;stroke-width:0.5;" x="173.315203293" xlink:href="#m1846578677" y="194.0"/>
      </g>
     </g>
     <g id="line2d_73">
      <g>
       <use style="stroke:#000000;stroke-width:0.5;" x="173.315203293" xlink:href="#me0a6632743" y="21.2"/>
      </g>
     </g>
    </g>
    <g id="xtick_34">
     <g id="line2d_74">
      <g>
       <use style="stroke:#000000;stroke-width:0.5;" x="177.110681228" xlink:href="#m1846578677" y="194.0"/>
      </g>
     </g>
     <g id="line2d_75">
      <g>
       <use style="stroke:#000000;stroke-width:0.5;" x="177.110681228" xlink:href="#me0a6632743" y="21.2"/>
      </g>
     </g>
    </g>
    <g id="xtick_35">
     <g id="line2d_76">
      <g>
       <use style="stroke:#000000;stroke-width:0.5;" x="180.211812503" xlink:href="#m1846578677" y="194.0"/>
      </g>
     </g>
     <g id="line2d_77">
      <g>
       <use style="stroke:#000000;stroke-width:0.5;" x="180.211812503" xlink:href="#me0a6632743" y="21.2"/>
      </g>
     </g>
    </g>
    <g id="xtick_36">
     <g id="line2d_78">
      <g>
       <use style="stroke:#000000;stroke-width:0.5;" x="182.833781637" xlink:href="#m1846578677" y="194.0"/>
      </g>
     </g>
     <g id="line2d_79">
      <g>
       <use style="stroke:#000000;stroke-width:0.5;" x="182.833781637" xlink:href="#me0a6632743" y="21.2"/>
      </g>
     </g>
    </g>
    <g id="xtick_37">
     <g id="line2d_80">
      <g>
       <use style="stroke:#000000;stroke-width:0.5;" x="185.10503461" xlink:href="#m1846578677" y="194.0"/>
      </g>
     </g>
     <g id="line2d_81">
      <g>
       <use style="stroke:#000000;stroke-width:0.5;" x="185.10503461" xlink:href="#me0a6632743" y="21.2"/>
      </g>
     </g>
    </g>
    <g id="xtick_38">
     <g id="line2d_82">
      <g>
       <use style="stroke:#000000;stroke-width:0.5;" x="187.108421713" xlink:href="#m1846578677" y="194.0"/>
      </g>
     </g>
     <g id="line2d_83">
      <g>
       <use style="stroke:#000000;stroke-width:0.5;" x="187.108421713" xlink:href="#me0a6632743" y="21.2"/>
      </g>
     </g>
    </g>
    <g id="xtick_39">
     <g id="line2d_84">
      <g>
       <use style="stroke:#000000;stroke-width:0.5;" x="200.690343862" xlink:href="#m1846578677" y="194.0"/>
      </g>
     </g>
     <g id="line2d_85">
      <g>
       <use style="stroke:#000000;stroke-width:0.5;" x="200.690343862" xlink:href="#me0a6632743" y="21.2"/>
      </g>
     </g>
    </g>
    <g id="xtick_40">
     <g id="line2d_86">
      <g>
       <use style="stroke:#000000;stroke-width:0.5;" x="207.586953072" xlink:href="#m1846578677" y="194.0"/>
      </g>
     </g>
     <g id="line2d_87">
      <g>
       <use style="stroke:#000000;stroke-width:0.5;" x="207.586953072" xlink:href="#me0a6632743" y="21.2"/>
      </g>
     </g>
    </g>
    <g id="xtick_41">
     <g id="line2d_88">
      <g>
       <use style="stroke:#000000;stroke-width:0.5;" x="212.480175179" xlink:href="#m1846578677" y="194.0"/>
      </g>
     </g>
     <g id="line2d_89">
      <g>
       <use style="stroke:#000000;stroke-width:0.5;" x="212.480175179" xlink:href="#me0a6632743" y="21.2"/>
      </g>
     </g>
    </g>
    <g id="xtick_42">
     <g id="line2d_90">
      <g>
       <use style="stroke:#000000;stroke-width:0.5;" x="216.275653114" xlink:href="#m1846578677" y="194.0"/>
      </g>
     </g>
     <g id="line2d_91">
      <g>
       <use style="stroke:#000000;stroke-width:0.5;" x="216.275653114" xlink:href="#me0a6632743" y="21.2"/>
      </g>
     </g>
    </g>
    <g id="xtick_43">
     <g id="line2d_92">
      <g>
       <use style="stroke:#000000;stroke-width:0.5;" x="219.376784389" xlink:href="#m1846578677" y="194.0"/>
      </g>
     </g>
     <g id="line2d_93">
      <g>
       <use style="stroke:#000000;stroke-width:0.5;" x="219.376784389" xlink:href="#me0a6632743" y="21.2"/>
      </g>
     </g>
    </g>
    <g id="xtick_44">
     <g id="line2d_94">
      <g>
       <use style="stroke:#000000;stroke-width:0.5;" x="221.998753523" xlink:href="#m1846578677" y="194.0"/>
      </g>
     </g>
     <g id="line2d_95">
      <g>
       <use style="stroke:#000000;stroke-width:0.5;" x="221.998753523" xlink:href="#me0a6632743" y="21.2"/>
      </g>
     </g>
    </g>
    <g id="xtick_45">
     <g id="line2d_96">
      <g>
       <use style="stroke:#000000;stroke-width:0.5;" x="224.270006496" xlink:href="#m1846578677" y="194.0"/>
      </g>
     </g>
     <g id="line2d_97">
      <g>
       <use style="stroke:#000000;stroke-width:0.5;" x="224.270006496" xlink:href="#me0a6632743" y="21.2"/>
      </g>
     </g>
    </g>
    <g id="xtick_46">
     <g id="line2d_98">
      <g>
       <use style="stroke:#000000;stroke-width:0.5;" x="226.2733936" xlink:href="#m1846578677" y="194.0"/>
      </g>
     </g>
     <g id="line2d_99">
      <g>
       <use style="stroke:#000000;stroke-width:0.5;" x="226.2733936" xlink:href="#me0a6632743" y="21.2"/>
      </g>
     </g>
    </g>
    <g id="xtick_47">
     <g id="line2d_100">
      <g>
       <use style="stroke:#000000;stroke-width:0.5;" x="239.855315748" xlink:href="#m1846578677" y="194.0"/>
      </g>
     </g>
     <g id="line2d_101">
      <g>
       <use style="stroke:#000000;stroke-width:0.5;" x="239.855315748" xlink:href="#me0a6632743" y="21.2"/>
      </g>
     </g>
    </g>
    <g id="xtick_48">
     <g id="line2d_102">
      <g>
       <use style="stroke:#000000;stroke-width:0.5;" x="246.751924958" xlink:href="#m1846578677" y="194.0"/>
      </g>
     </g>
     <g id="line2d_103">
      <g>
       <use style="stroke:#000000;stroke-width:0.5;" x="246.751924958" xlink:href="#me0a6632743" y="21.2"/>
      </g>
     </g>
    </g>
    <g id="xtick_49">
     <g id="line2d_104">
      <g>
       <use style="stroke:#000000;stroke-width:0.5;" x="251.645147065" xlink:href="#m1846578677" y="194.0"/>
      </g>
     </g>
     <g id="line2d_105">
      <g>
       <use style="stroke:#000000;stroke-width:0.5;" x="251.645147065" xlink:href="#me0a6632743" y="21.2"/>
      </g>
     </g>
    </g>
    <g id="xtick_50">
     <g id="line2d_106">
      <g>
       <use style="stroke:#000000;stroke-width:0.5;" x="255.440625" xlink:href="#m1846578677" y="194.0"/>
      </g>
     </g>
     <g id="line2d_107">
      <g>
       <use style="stroke:#000000;stroke-width:0.5;" x="255.440625" xlink:href="#me0a6632743" y="21.2"/>
      </g>
     </g>
    </g>
    <g id="text_7">
     <!-- Equilibration time -->
     <defs>
      <path d="M 14.796875 27.296875 
Q 14.796875 17.390625 18.875 11.75 
Q 22.953125 6.109375 30.078125 6.109375 
Q 37.203125 6.109375 41.296875 11.75 
Q 45.40625 17.390625 45.40625 27.296875 
Q 45.40625 37.203125 41.296875 42.84375 
Q 37.203125 48.484375 30.078125 48.484375 
Q 22.953125 48.484375 18.875 42.84375 
Q 14.796875 37.203125 14.796875 27.296875 
M 45.40625 8.203125 
Q 42.578125 3.328125 38.25 0.953125 
Q 33.9375 -1.421875 27.875 -1.421875 
Q 17.96875 -1.421875 11.734375 6.484375 
Q 5.515625 14.40625 5.515625 27.296875 
Q 5.515625 40.1875 11.734375 48.09375 
Q 17.96875 56 27.875 56 
Q 33.9375 56 38.25 53.625 
Q 42.578125 51.265625 45.40625 46.390625 
L 45.40625 54.6875 
L 54.390625 54.6875 
L 54.390625 -20.796875 
L 45.40625 -20.796875 
z
" id="BitstreamVeraSans-Roman-71"/>
      <path d="M 9.421875 75.984375 
L 18.40625 75.984375 
L 18.40625 0 
L 9.421875 0 
z
" id="BitstreamVeraSans-Roman-6c"/>
      <path d="M 48.6875 27.296875 
Q 48.6875 37.203125 44.609375 42.84375 
Q 40.53125 48.484375 33.40625 48.484375 
Q 26.265625 48.484375 22.1875 42.84375 
Q 18.109375 37.203125 18.109375 27.296875 
Q 18.109375 17.390625 22.1875 11.75 
Q 26.265625 6.109375 33.40625 6.109375 
Q 40.53125 6.109375 44.609375 11.75 
Q 48.6875 17.390625 48.6875 27.296875 
M 18.109375 46.390625 
Q 20.953125 51.265625 25.265625 53.625 
Q 29.59375 56 35.59375 56 
Q 45.5625 56 51.78125 48.09375 
Q 58.015625 40.1875 58.015625 27.296875 
Q 58.015625 14.40625 51.78125 6.484375 
Q 45.5625 -1.421875 35.59375 -1.421875 
Q 29.59375 -1.421875 25.265625 0.953125 
Q 20.953125 3.328125 18.109375 8.203125 
L 18.109375 0 
L 9.078125 0 
L 9.078125 75.984375 
L 18.109375 75.984375 
z
" id="BitstreamVeraSans-Roman-62"/>
      <path d="M 52 44.1875 
Q 55.375 50.25 60.0625 53.125 
Q 64.75 56 71.09375 56 
Q 79.640625 56 84.28125 50.015625 
Q 88.921875 44.046875 88.921875 33.015625 
L 88.921875 0 
L 79.890625 0 
L 79.890625 32.71875 
Q 79.890625 40.578125 77.09375 44.375 
Q 74.3125 48.1875 68.609375 48.1875 
Q 61.625 48.1875 57.5625 43.546875 
Q 53.515625 38.921875 53.515625 30.90625 
L 53.515625 0 
L 44.484375 0 
L 44.484375 32.71875 
Q 44.484375 40.625 41.703125 44.40625 
Q 38.921875 48.1875 33.109375 48.1875 
Q 26.21875 48.1875 22.15625 43.53125 
Q 18.109375 38.875 18.109375 30.90625 
L 18.109375 0 
L 9.078125 0 
L 9.078125 54.6875 
L 18.109375 54.6875 
L 18.109375 46.1875 
Q 21.1875 51.21875 25.484375 53.609375 
Q 29.78125 56 35.6875 56 
Q 41.65625 56 45.828125 52.96875 
Q 50 49.953125 52 44.1875 
" id="BitstreamVeraSans-Roman-6d"/>
      <path d="M 18.3125 70.21875 
L 18.3125 54.6875 
L 36.8125 54.6875 
L 36.8125 47.703125 
L 18.3125 47.703125 
L 18.3125 18.015625 
Q 18.3125 11.328125 20.140625 9.421875 
Q 21.96875 7.515625 27.59375 7.515625 
L 36.8125 7.515625 
L 36.8125 0 
L 27.59375 0 
Q 17.1875 0 13.234375 3.875 
Q 9.28125 7.765625 9.28125 18.015625 
L 9.28125 47.703125 
L 2.6875 47.703125 
L 2.6875 54.6875 
L 9.28125 54.6875 
L 9.28125 70.21875 
z
" id="BitstreamVeraSans-Roman-74"/>
      <path d="M 56.203125 29.59375 
L 56.203125 25.203125 
L 14.890625 25.203125 
Q 15.484375 15.921875 20.484375 11.0625 
Q 25.484375 6.203125 34.421875 6.203125 
Q 39.59375 6.203125 44.453125 7.46875 
Q 49.3125 8.734375 54.109375 11.28125 
L 54.109375 2.78125 
Q 49.265625 0.734375 44.1875 -0.34375 
Q 39.109375 -1.421875 33.890625 -1.421875 
Q 20.796875 -1.421875 13.15625 6.1875 
Q 5.515625 13.8125 5.515625 26.8125 
Q 5.515625 40.234375 12.765625 48.109375 
Q 20.015625 56 32.328125 56 
Q 43.359375 56 49.78125 48.890625 
Q 56.203125 41.796875 56.203125 29.59375 
M 47.21875 32.234375 
Q 47.125 39.59375 43.09375 43.984375 
Q 39.0625 48.390625 32.421875 48.390625 
Q 24.90625 48.390625 20.390625 44.140625 
Q 15.875 39.890625 15.1875 32.171875 
z
" id="BitstreamVeraSans-Roman-65"/>
      <path id="BitstreamVeraSans-Roman-20"/>
      <path d="M 54.890625 33.015625 
L 54.890625 0 
L 45.90625 0 
L 45.90625 32.71875 
Q 45.90625 40.484375 42.875 44.328125 
Q 39.84375 48.1875 33.796875 48.1875 
Q 26.515625 48.1875 22.3125 43.546875 
Q 18.109375 38.921875 18.109375 30.90625 
L 18.109375 0 
L 9.078125 0 
L 9.078125 54.6875 
L 18.109375 54.6875 
L 18.109375 46.1875 
Q 21.34375 51.125 25.703125 53.5625 
Q 30.078125 56 35.796875 56 
Q 45.21875 56 50.046875 50.171875 
Q 54.890625 44.34375 54.890625 33.015625 
" id="BitstreamVeraSans-Roman-6e"/>
      <path d="M 8.5 21.578125 
L 8.5 54.6875 
L 17.484375 54.6875 
L 17.484375 21.921875 
Q 17.484375 14.15625 20.5 10.265625 
Q 23.53125 6.390625 29.59375 6.390625 
Q 36.859375 6.390625 41.078125 11.03125 
Q 45.3125 15.671875 45.3125 23.6875 
L 45.3125 54.6875 
L 54.296875 54.6875 
L 54.296875 0 
L 45.3125 0 
L 45.3125 8.40625 
Q 42.046875 3.421875 37.71875 1 
Q 33.40625 -1.421875 27.6875 -1.421875 
Q 18.265625 -1.421875 13.375 4.4375 
Q 8.5 10.296875 8.5 21.578125 
" id="BitstreamVeraSans-Roman-75"/>
      <path d="M 34.28125 27.484375 
Q 23.390625 27.484375 19.1875 25 
Q 14.984375 22.515625 14.984375 16.5 
Q 14.984375 11.71875 18.140625 8.90625 
Q 21.296875 6.109375 26.703125 6.109375 
Q 34.1875 6.109375 38.703125 11.40625 
Q 43.21875 16.703125 43.21875 25.484375 
L 43.21875 27.484375 
z
M 52.203125 31.203125 
L 52.203125 0 
L 43.21875 0 
L 43.21875 8.296875 
Q 40.140625 3.328125 35.546875 0.953125 
Q 30.953125 -1.421875 24.3125 -1.421875 
Q 15.921875 -1.421875 10.953125 3.296875 
Q 6 8.015625 6 15.921875 
Q 6 25.140625 12.171875 29.828125 
Q 18.359375 34.515625 30.609375 34.515625 
L 43.21875 34.515625 
L 43.21875 35.40625 
Q 43.21875 41.609375 39.140625 45 
Q 35.0625 48.390625 27.6875 48.390625 
Q 23 48.390625 18.546875 47.265625 
Q 14.109375 46.140625 10.015625 43.890625 
L 10.015625 52.203125 
Q 14.9375 54.109375 19.578125 55.046875 
Q 24.21875 56 28.609375 56 
Q 40.484375 56 46.34375 49.84375 
Q 52.203125 43.703125 52.203125 31.203125 
" id="BitstreamVeraSans-Roman-61"/>
      <path d="M 9.421875 54.6875 
L 18.40625 54.6875 
L 18.40625 0 
L 9.421875 0 
z
M 9.421875 75.984375 
L 18.40625 75.984375 
L 18.40625 64.59375 
L 9.421875 64.59375 
z
" id="BitstreamVeraSans-Roman-69"/>
      <path d="M 41.109375 46.296875 
Q 39.59375 47.171875 37.8125 47.578125 
Q 36.03125 48 33.890625 48 
Q 26.265625 48 22.1875 43.046875 
Q 18.109375 38.09375 18.109375 28.8125 
L 18.109375 0 
L 9.078125 0 
L 9.078125 54.6875 
L 18.109375 54.6875 
L 18.109375 46.1875 
Q 20.953125 51.171875 25.484375 53.578125 
Q 30.03125 56 36.53125 56 
Q 37.453125 56 38.578125 55.875 
Q 39.703125 55.765625 41.0625 55.515625 
z
" id="BitstreamVeraSans-Roman-72"/>
      <path d="M 9.8125 72.90625 
L 55.90625 72.90625 
L 55.90625 64.59375 
L 19.671875 64.59375 
L 19.671875 43.015625 
L 54.390625 43.015625 
L 54.390625 34.71875 
L 19.671875 34.71875 
L 19.671875 8.296875 
L 56.78125 8.296875 
L 56.78125 0 
L 9.8125 0 
z
" id="BitstreamVeraSans-Roman-45"/>
      <path d="M 30.609375 48.390625 
Q 23.390625 48.390625 19.1875 42.75 
Q 14.984375 37.109375 14.984375 27.296875 
Q 14.984375 17.484375 19.15625 11.84375 
Q 23.34375 6.203125 30.609375 6.203125 
Q 37.796875 6.203125 41.984375 11.859375 
Q 46.1875 17.53125 46.1875 27.296875 
Q 46.1875 37.015625 41.984375 42.703125 
Q 37.796875 48.390625 30.609375 48.390625 
M 30.609375 56 
Q 42.328125 56 49.015625 48.375 
Q 55.71875 40.765625 55.71875 27.296875 
Q 55.71875 13.875 49.015625 6.21875 
Q 42.328125 -1.421875 30.609375 -1.421875 
Q 18.84375 -1.421875 12.171875 6.21875 
Q 5.515625 13.875 5.515625 27.296875 
Q 5.515625 40.765625 12.171875 48.375 
Q 18.84375 56 30.609375 56 
" id="BitstreamVeraSans-Roman-6f"/>
     </defs>
     <g transform="translate(99.41484375 221.2984375)scale(0.1 -0.1)">
      <use xlink:href="#BitstreamVeraSans-Roman-45"/>
      <use x="63.18359375" xlink:href="#BitstreamVeraSans-Roman-71"/>
      <use x="126.66015625" xlink:href="#BitstreamVeraSans-Roman-75"/>
      <use x="190.0390625" xlink:href="#BitstreamVeraSans-Roman-69"/>
      <use x="217.822265625" xlink:href="#BitstreamVeraSans-Roman-6c"/>
      <use x="245.60546875" xlink:href="#BitstreamVeraSans-Roman-69"/>
      <use x="273.388671875" xlink:href="#BitstreamVeraSans-Roman-62"/>
      <use x="336.865234375" xlink:href="#BitstreamVeraSans-Roman-72"/>
      <use x="377.978515625" xlink:href="#BitstreamVeraSans-Roman-61"/>
      <use x="439.2578125" xlink:href="#BitstreamVeraSans-Roman-74"/>
      <use x="478.466796875" xlink:href="#BitstreamVeraSans-Roman-69"/>
      <use x="506.25" xlink:href="#BitstreamVeraSans-Roman-6f"/>
      <use x="567.431640625" xlink:href="#BitstreamVeraSans-Roman-6e"/>
      <use x="630.810546875" xlink:href="#BitstreamVeraSans-Roman-20"/>
      <use x="662.59765625" xlink:href="#BitstreamVeraSans-Roman-74"/>
      <use x="701.806640625" xlink:href="#BitstreamVeraSans-Roman-69"/>
      <use x="729.58984375" xlink:href="#BitstreamVeraSans-Roman-6d"/>
      <use x="827.001953125" xlink:href="#BitstreamVeraSans-Roman-65"/>
     </g>
    </g>
   </g>
   <g id="matplotlib.axis_2">
    <g id="ytick_1">
     <g id="line2d_108">
      <defs>
       <path d="M 0 0 
L 4 0 
" id="m18efa33d88" style="stroke:#000000;stroke-width:0.5;"/>
      </defs>
      <g>
       <use style="stroke:#000000;stroke-width:0.5;" x="32.240625" xlink:href="#m18efa33d88" y="194.0"/>
      </g>
     </g>
     <g id="line2d_109">
      <defs>
       <path d="M 0 0 
L -4 0 
" id="m1d9b20a7bc" style="stroke:#000000;stroke-width:0.5;"/>
      </defs>
      <g>
       <use style="stroke:#000000;stroke-width:0.5;" x="255.440625" xlink:href="#m1d9b20a7bc" y="194.0"/>
      </g>
     </g>
     <g id="text_8">
      <!-- 0 -->
      <g transform="translate(21.878125 196.759375)scale(0.1 -0.1)">
       <use xlink:href="#BitstreamVeraSans-Roman-30"/>
      </g>
     </g>
    </g>
    <g id="ytick_2">
     <g id="line2d_110">
      <g>
       <use style="stroke:#000000;stroke-width:0.5;" x="32.240625" xlink:href="#m18efa33d88" y="172.4"/>
      </g>
     </g>
     <g id="line2d_111">
      <g>
       <use style="stroke:#000000;stroke-width:0.5;" x="255.440625" xlink:href="#m1d9b20a7bc" y="172.4"/>
      </g>
     </g>
     <g id="text_9">
      <!-- 1 -->
      <g transform="translate(21.878125 175.159375)scale(0.1 -0.1)">
       <use xlink:href="#BitstreamVeraSans-Roman-31"/>
      </g>
     </g>
    </g>
    <g id="ytick_3">
     <g id="line2d_112">
      <g>
       <use style="stroke:#000000;stroke-width:0.5;" x="32.240625" xlink:href="#m18efa33d88" y="150.8"/>
      </g>
     </g>
     <g id="line2d_113">
      <g>
       <use style="stroke:#000000;stroke-width:0.5;" x="255.440625" xlink:href="#m1d9b20a7bc" y="150.8"/>
      </g>
     </g>
     <g id="text_10">
      <!-- 2 -->
      <g transform="translate(21.878125 153.559375)scale(0.1 -0.1)">
       <use xlink:href="#BitstreamVeraSans-Roman-32"/>
      </g>
     </g>
    </g>
    <g id="ytick_4">
     <g id="line2d_114">
      <g>
       <use style="stroke:#000000;stroke-width:0.5;" x="32.240625" xlink:href="#m18efa33d88" y="129.2"/>
      </g>
     </g>
     <g id="line2d_115">
      <g>
       <use style="stroke:#000000;stroke-width:0.5;" x="255.440625" xlink:href="#m1d9b20a7bc" y="129.2"/>
      </g>
     </g>
     <g id="text_11">
      <!-- 3 -->
      <g transform="translate(21.878125 131.959375)scale(0.1 -0.1)">
       <use xlink:href="#BitstreamVeraSans-Roman-33"/>
      </g>
     </g>
    </g>
    <g id="ytick_5">
     <g id="line2d_116">
      <g>
       <use style="stroke:#000000;stroke-width:0.5;" x="32.240625" xlink:href="#m18efa33d88" y="107.6"/>
      </g>
     </g>
     <g id="line2d_117">
      <g>
       <use style="stroke:#000000;stroke-width:0.5;" x="255.440625" xlink:href="#m1d9b20a7bc" y="107.6"/>
      </g>
     </g>
     <g id="text_12">
      <!-- 4 -->
      <g transform="translate(21.878125 110.359375)scale(0.1 -0.1)">
       <use xlink:href="#BitstreamVeraSans-Roman-34"/>
      </g>
     </g>
    </g>
    <g id="ytick_6">
     <g id="line2d_118">
      <g>
       <use style="stroke:#000000;stroke-width:0.5;" x="32.240625" xlink:href="#m18efa33d88" y="86.0"/>
      </g>
     </g>
     <g id="line2d_119">
      <g>
       <use style="stroke:#000000;stroke-width:0.5;" x="255.440625" xlink:href="#m1d9b20a7bc" y="86.0"/>
      </g>
     </g>
     <g id="text_13">
      <!-- 5 -->
      <defs>
       <path d="M 10.796875 72.90625 
L 49.515625 72.90625 
L 49.515625 64.59375 
L 19.828125 64.59375 
L 19.828125 46.734375 
Q 21.96875 47.46875 24.109375 47.828125 
Q 26.265625 48.1875 28.421875 48.1875 
Q 40.625 48.1875 47.75 41.5 
Q 54.890625 34.8125 54.890625 23.390625 
Q 54.890625 11.625 47.5625 5.09375 
Q 40.234375 -1.421875 26.90625 -1.421875 
Q 22.3125 -1.421875 17.546875 -0.640625 
Q 12.796875 0.140625 7.71875 1.703125 
L 7.71875 11.625 
Q 12.109375 9.234375 16.796875 8.0625 
Q 21.484375 6.890625 26.703125 6.890625 
Q 35.15625 6.890625 40.078125 11.328125 
Q 45.015625 15.765625 45.015625 23.390625 
Q 45.015625 31 40.078125 35.4375 
Q 35.15625 39.890625 26.703125 39.890625 
Q 22.75 39.890625 18.8125 39.015625 
Q 14.890625 38.140625 10.796875 36.28125 
z
" id="BitstreamVeraSans-Roman-35"/>
      </defs>
      <g transform="translate(21.878125 88.759375)scale(0.1 -0.1)">
       <use xlink:href="#BitstreamVeraSans-Roman-35"/>
      </g>
     </g>
    </g>
    <g id="ytick_7">
     <g id="line2d_120">
      <g>
       <use style="stroke:#000000;stroke-width:0.5;" x="32.240625" xlink:href="#m18efa33d88" y="64.4"/>
      </g>
     </g>
     <g id="line2d_121">
      <g>
       <use style="stroke:#000000;stroke-width:0.5;" x="255.440625" xlink:href="#m1d9b20a7bc" y="64.4"/>
      </g>
     </g>
     <g id="text_14">
      <!-- 6 -->
      <defs>
       <path d="M 33.015625 40.375 
Q 26.375 40.375 22.484375 35.828125 
Q 18.609375 31.296875 18.609375 23.390625 
Q 18.609375 15.53125 22.484375 10.953125 
Q 26.375 6.390625 33.015625 6.390625 
Q 39.65625 6.390625 43.53125 10.953125 
Q 47.40625 15.53125 47.40625 23.390625 
Q 47.40625 31.296875 43.53125 35.828125 
Q 39.65625 40.375 33.015625 40.375 
M 52.59375 71.296875 
L 52.59375 62.3125 
Q 48.875 64.0625 45.09375 64.984375 
Q 41.3125 65.921875 37.59375 65.921875 
Q 27.828125 65.921875 22.671875 59.328125 
Q 17.53125 52.734375 16.796875 39.40625 
Q 19.671875 43.65625 24.015625 45.921875 
Q 28.375 48.1875 33.59375 48.1875 
Q 44.578125 48.1875 50.953125 41.515625 
Q 57.328125 34.859375 57.328125 23.390625 
Q 57.328125 12.15625 50.6875 5.359375 
Q 44.046875 -1.421875 33.015625 -1.421875 
Q 20.359375 -1.421875 13.671875 8.265625 
Q 6.984375 17.96875 6.984375 36.375 
Q 6.984375 53.65625 15.1875 63.9375 
Q 23.390625 74.21875 37.203125 74.21875 
Q 40.921875 74.21875 44.703125 73.484375 
Q 48.484375 72.75 52.59375 71.296875 
" id="BitstreamVeraSans-Roman-36"/>
      </defs>
      <g transform="translate(21.878125 67.159375)scale(0.1 -0.1)">
       <use xlink:href="#BitstreamVeraSans-Roman-36"/>
      </g>
     </g>
    </g>
    <g id="ytick_8">
     <g id="line2d_122">
      <g>
       <use style="stroke:#000000;stroke-width:0.5;" x="32.240625" xlink:href="#m18efa33d88" y="42.8"/>
      </g>
     </g>
     <g id="line2d_123">
      <g>
       <use style="stroke:#000000;stroke-width:0.5;" x="255.440625" xlink:href="#m1d9b20a7bc" y="42.8"/>
      </g>
     </g>
     <g id="text_15">
      <!-- 7 -->
      <defs>
       <path d="M 8.203125 72.90625 
L 55.078125 72.90625 
L 55.078125 68.703125 
L 28.609375 0 
L 18.3125 0 
L 43.21875 64.59375 
L 8.203125 64.59375 
z
" id="BitstreamVeraSans-Roman-37"/>
      </defs>
      <g transform="translate(21.878125 45.559375)scale(0.1 -0.1)">
       <use xlink:href="#BitstreamVeraSans-Roman-37"/>
      </g>
     </g>
    </g>
    <g id="ytick_9">
     <g id="line2d_124">
      <g>
       <use style="stroke:#000000;stroke-width:0.5;" x="32.240625" xlink:href="#m18efa33d88" y="21.2"/>
      </g>
     </g>
     <g id="line2d_125">
      <g>
       <use style="stroke:#000000;stroke-width:0.5;" x="255.440625" xlink:href="#m1d9b20a7bc" y="21.2"/>
      </g>
     </g>
     <g id="text_16">
      <!-- 8 -->
      <defs>
       <path d="M 31.78125 34.625 
Q 24.75 34.625 20.71875 30.859375 
Q 16.703125 27.09375 16.703125 20.515625 
Q 16.703125 13.921875 20.71875 10.15625 
Q 24.75 6.390625 31.78125 6.390625 
Q 38.8125 6.390625 42.859375 10.171875 
Q 46.921875 13.96875 46.921875 20.515625 
Q 46.921875 27.09375 42.890625 30.859375 
Q 38.875 34.625 31.78125 34.625 
M 21.921875 38.8125 
Q 15.578125 40.375 12.03125 44.71875 
Q 8.5 49.078125 8.5 55.328125 
Q 8.5 64.0625 14.71875 69.140625 
Q 20.953125 74.21875 31.78125 74.21875 
Q 42.671875 74.21875 48.875 69.140625 
Q 55.078125 64.0625 55.078125 55.328125 
Q 55.078125 49.078125 51.53125 44.71875 
Q 48 40.375 41.703125 38.8125 
Q 48.828125 37.15625 52.796875 32.3125 
Q 56.78125 27.484375 56.78125 20.515625 
Q 56.78125 9.90625 50.3125 4.234375 
Q 43.84375 -1.421875 31.78125 -1.421875 
Q 19.734375 -1.421875 13.25 4.234375 
Q 6.78125 9.90625 6.78125 20.515625 
Q 6.78125 27.484375 10.78125 32.3125 
Q 14.796875 37.15625 21.921875 38.8125 
M 18.3125 54.390625 
Q 18.3125 48.734375 21.84375 45.5625 
Q 25.390625 42.390625 31.78125 42.390625 
Q 38.140625 42.390625 41.71875 45.5625 
Q 45.3125 48.734375 45.3125 54.390625 
Q 45.3125 60.0625 41.71875 63.234375 
Q 38.140625 66.40625 31.78125 66.40625 
Q 25.390625 66.40625 21.84375 63.234375 
Q 18.3125 60.0625 18.3125 54.390625 
" id="BitstreamVeraSans-Roman-38"/>
      </defs>
      <g transform="translate(21.878125 23.959375)scale(0.1 -0.1)">
       <use xlink:href="#BitstreamVeraSans-Roman-38"/>
      </g>
     </g>
    </g>
    <g id="text_17">
     <!-- max $\alpha_2$ -->
     <defs>
      <path d="M 54.890625 54.6875 
L 35.109375 28.078125 
L 55.90625 0 
L 45.3125 0 
L 29.390625 21.484375 
L 13.484375 0 
L 2.875 0 
L 24.125 28.609375 
L 4.6875 54.6875 
L 15.28125 54.6875 
L 29.78125 35.203125 
L 44.28125 54.6875 
z
" id="BitstreamVeraSans-Roman-78"/>
      <path d="M 51.40625 12.90625 
L 52.90625 12.90625 
Q 52.90625 7 50.75 3 
Q 48.59375 -1 45 -1 
Q 39.40625 -1 37 10 
Q 34 4.59375 30.5 1.796875 
Q 27 -1 21.59375 -1 
Q 13.5 -1 8.203125 5.546875 
Q 2.90625 12.09375 2.90625 22.296875 
Q 2.90625 32.203125 8.25 39.09375 
Q 13.59375 46 22.5 46 
Q 28.5 46 32.453125 41.75 
Q 36.40625 37.5 37.90625 31.40625 
L 42.40625 45 
L 52.09375 45 
L 41.203125 18.703125 
Q 42.203125 14.09375 44.140625 9.640625 
Q 46.09375 5.203125 48.09375 5.203125 
Q 50.5 5.203125 51.40625 12.90625 
M 33.09375 20.796875 
Q 29.796875 43.203125 22 43.203125 
Q 17.796875 43.203125 14.84375 39.25 
Q 11.90625 35.296875 11.90625 27.296875 
Q 11.90625 23.90625 12.34375 20.09375 
Q 12.796875 16.296875 13.84375 11.890625 
Q 14.90625 7.5 17.15625 4.640625 
Q 19.40625 1.796875 22.5 1.796875 
Q 29.5 1.796875 33.09375 20.796875 
" id="STIXGeneral-Regular-3b1"/>
     </defs>
     <g transform="translate(13.678125 126.0)rotate(-90.0)scale(0.1 -0.1)">
      <use xlink:href="#BitstreamVeraSans-Roman-6d"/>
      <use transform="translate(97.412109375 0.0)" xlink:href="#BitstreamVeraSans-Roman-61"/>
      <use transform="translate(158.69140625 0.0)" xlink:href="#BitstreamVeraSans-Roman-78"/>
      <use transform="translate(217.87109375 0.0)" xlink:href="#BitstreamVeraSans-Roman-20"/>
      <use transform="translate(249.658203125 0.0)" xlink:href="#STIXGeneral-Regular-3b1"/>
      <use transform="translate(303.95819091796875 -31.5)scale(0.7)" xlink:href="#BitstreamVeraSans-Roman-32"/>
     </g>
    </g>
   </g>
   <g id="text_18">
    <!-- $\phi_0 = 0.57$ -->
    <defs>
     <path d="M 10.6875 12.40625 
L 21 12.40625 
L 21 0 
L 10.6875 0 
z
" id="BitstreamVeraSans-Roman-2e"/>
     <path d="M 35.296875 68.296875 
L 35.296875 46 
Q 42.296875 46 46.09375 44.40625 
Q 52.5 41.796875 55.890625 36.046875 
Q 59.296875 30.296875 59.296875 23.09375 
Q 59.296875 18.59375 58 14.5 
Q 56.703125 10.40625 54.046875 6.796875 
Q 51.40625 3.203125 46.546875 1.09375 
Q 41.703125 -1 35.296875 -1 
L 35.296875 -21.703125 
L 26.90625 -21.703125 
L 26.90625 -1 
L 24.5 -1 
Q 14.703125 -1 8.796875 6.140625 
Q 2.90625 13.296875 2.90625 22.796875 
Q 2.90625 32.40625 8.796875 39.203125 
Q 14.703125 46 25.203125 46 
L 26.90625 46 
L 26.90625 68.296875 
z
M 35.203125 1.796875 
L 38.296875 1.796875 
Q 44.296875 1.796875 47.296875 7.046875 
Q 50.296875 12.296875 50.296875 20.40625 
Q 50.296875 29.90625 46.34375 36.546875 
Q 42.40625 43.203125 35.203125 43.203125 
z
M 27 1.796875 
L 27 43.203125 
L 24 43.203125 
Q 18.203125 43.203125 15.046875 39 
Q 11.90625 34.796875 11.90625 27.40625 
Q 11.90625 14.40625 17.296875 6.796875 
Q 20.796875 1.796875 27 1.796875 
" id="STIXGeneral-Regular-3d5"/>
     <path d="M 10.59375 45.40625 
L 73.1875 45.40625 
L 73.1875 37.203125 
L 10.59375 37.203125 
z
M 10.59375 25.484375 
L 73.1875 25.484375 
L 73.1875 17.1875 
L 10.59375 17.1875 
z
" id="BitstreamVeraSans-Roman-3d"/>
    </defs>
    <g transform="translate(116.900625 16.2)scale(0.12 -0.12)">
     <use transform="translate(0.0 0.78125)" xlink:href="#STIXGeneral-Regular-3d5"/>
     <use transform="translate(62.29998779296875 -30.71875)scale(0.7)" xlink:href="#BitstreamVeraSans-Roman-30"/>
     <use transform="translate(145.40545654296875 0.78125)" xlink:href="#BitstreamVeraSans-Roman-3d"/>
     <use transform="translate(227.48162841796875 0.78125)" xlink:href="#BitstreamVeraSans-Roman-30"/>
     <use transform="translate(291.10467529296875 0.78125)" xlink:href="#BitstreamVeraSans-Roman-2e"/>
     <use transform="translate(320.88397216796875 0.78125)" xlink:href="#BitstreamVeraSans-Roman-35"/>
     <use transform="translate(384.39764404296875 0.78125)" xlink:href="#BitstreamVeraSans-Roman-37"/>
    </g>
   </g>
   <g id="legend_1">
    <g id="patch_7">
     <path d="M 36.405625 127.417147 
L 90.240853 127.417147 
L 90.240853 25.365 
L 36.405625 25.365 
z
" style="fill:#ffffff;stroke:#000000;stroke-linejoin:miter;"/>
    </g>
    <g id="text_19">
     <!-- Final $\phi$ -->
     <defs>
      <path d="M 9.8125 72.90625 
L 51.703125 72.90625 
L 51.703125 64.59375 
L 19.671875 64.59375 
L 19.671875 43.109375 
L 48.578125 43.109375 
L 48.578125 34.8125 
L 19.671875 34.8125 
L 19.671875 0 
L 9.8125 0 
z
" id="BitstreamVeraSans-Roman-46"/>
     </defs>
     <g transform="translate(46.7232390625 36.297)scale(0.1 -0.1)">
      <use transform="translate(0.0 0.015625)" xlink:href="#BitstreamVeraSans-Roman-46"/>
      <use transform="translate(57.51953125 0.015625)" xlink:href="#BitstreamVeraSans-Roman-69"/>
      <use transform="translate(85.302734375 0.015625)" xlink:href="#BitstreamVeraSans-Roman-6e"/>
      <use transform="translate(148.681640625 0.015625)" xlink:href="#BitstreamVeraSans-Roman-61"/>
      <use transform="translate(209.9609375 0.015625)" xlink:href="#BitstreamVeraSans-Roman-6c"/>
      <use transform="translate(237.744140625 0.015625)" xlink:href="#BitstreamVeraSans-Roman-20"/>
      <use transform="translate(269.53125 0.015625)" xlink:href="#STIXGeneral-Regular-3d5"/>
     </g>
    </g>
    <g id="line2d_126">
     <path d="M 42.236625 46.075998 
L 53.898625 46.075998 
" style="fill:none;stroke:#4daf4a;stroke-linecap:square;stroke-width:2.0;"/>
    </g>
    <g id="line2d_127"/>
    <g id="text_20">
     <!-- 0.57 -->
     <g transform="translate(63.061625 48.9914984375)scale(0.0833 -0.0833)">
      <use xlink:href="#BitstreamVeraSans-Roman-30"/>
      <use x="63.623046875" xlink:href="#BitstreamVeraSans-Roman-2e"/>
      <use x="95.41015625" xlink:href="#BitstreamVeraSans-Roman-35"/>
      <use x="159.033203125" xlink:href="#BitstreamVeraSans-Roman-37"/>
     </g>
    </g>
    <g id="line2d_128">
     <path d="M 42.236625 58.302877 
L 53.898625 58.302877 
" style="fill:none;stroke:#49a560;stroke-linecap:square;stroke-width:2.0;"/>
    </g>
    <g id="line2d_129"/>
    <g id="text_21">
     <!-- 0.575 -->
     <g transform="translate(63.061625 61.2183765625)scale(0.0833 -0.0833)">
      <use xlink:href="#BitstreamVeraSans-Roman-30"/>
      <use x="63.623046875" xlink:href="#BitstreamVeraSans-Roman-2e"/>
      <use x="95.41015625" xlink:href="#BitstreamVeraSans-Roman-35"/>
      <use x="159.033203125" xlink:href="#BitstreamVeraSans-Roman-37"/>
      <use x="222.65625" xlink:href="#BitstreamVeraSans-Roman-35"/>
     </g>
    </g>
    <g id="line2d_130">
     <path d="M 42.236625 70.529755 
L 53.898625 70.529755 
" style="fill:none;stroke:#449b77;stroke-linecap:square;stroke-width:2.0;"/>
    </g>
    <g id="line2d_131"/>
    <g id="text_22">
     <!-- 0.58 -->
     <g transform="translate(63.061625 73.4452546875)scale(0.0833 -0.0833)">
      <use xlink:href="#BitstreamVeraSans-Roman-30"/>
      <use x="63.623046875" xlink:href="#BitstreamVeraSans-Roman-2e"/>
      <use x="95.41015625" xlink:href="#BitstreamVeraSans-Roman-35"/>
      <use x="159.033203125" xlink:href="#BitstreamVeraSans-Roman-38"/>
     </g>
    </g>
    <g id="line2d_132">
     <path d="M 42.236625 82.756633 
L 53.898625 82.756633 
" style="fill:none;stroke:#3b86a5;stroke-linecap:square;stroke-width:2.0;"/>
    </g>
    <g id="line2d_133"/>
    <g id="text_23">
     <!-- 0.585 -->
     <g transform="translate(63.061625 85.6721328125)scale(0.0833 -0.0833)">
      <use xlink:href="#BitstreamVeraSans-Roman-30"/>
      <use x="63.623046875" xlink:href="#BitstreamVeraSans-Roman-2e"/>
      <use x="95.41015625" xlink:href="#BitstreamVeraSans-Roman-35"/>
      <use x="159.033203125" xlink:href="#BitstreamVeraSans-Roman-38"/>
      <use x="222.65625" xlink:href="#BitstreamVeraSans-Roman-35"/>
     </g>
    </g>
    <g id="line2d_134">
     <path d="M 42.236625 94.983511 
L 53.898625 94.983511 
" style="fill:none;stroke:#8e53a5;stroke-linecap:square;stroke-width:2.0;"/>
    </g>
    <g id="line2d_135"/>
    <g id="text_24">
     <!-- 0.59 -->
     <defs>
      <path d="M 10.984375 1.515625 
L 10.984375 10.5 
Q 14.703125 8.734375 18.5 7.8125 
Q 22.3125 6.890625 25.984375 6.890625 
Q 35.75 6.890625 40.890625 13.453125 
Q 46.046875 20.015625 46.78125 33.40625 
Q 43.953125 29.203125 39.59375 26.953125 
Q 35.25 24.703125 29.984375 24.703125 
Q 19.046875 24.703125 12.671875 31.3125 
Q 6.296875 37.9375 6.296875 49.421875 
Q 6.296875 60.640625 12.9375 67.421875 
Q 19.578125 74.21875 30.609375 74.21875 
Q 43.265625 74.21875 49.921875 64.515625 
Q 56.59375 54.828125 56.59375 36.375 
Q 56.59375 19.140625 48.40625 8.859375 
Q 40.234375 -1.421875 26.421875 -1.421875 
Q 22.703125 -1.421875 18.890625 -0.6875 
Q 15.09375 0.046875 10.984375 1.515625 
M 30.609375 32.421875 
Q 37.25 32.421875 41.125 36.953125 
Q 45.015625 41.5 45.015625 49.421875 
Q 45.015625 57.28125 41.125 61.84375 
Q 37.25 66.40625 30.609375 66.40625 
Q 23.96875 66.40625 20.09375 61.84375 
Q 16.21875 57.28125 16.21875 49.421875 
Q 16.21875 41.5 20.09375 36.953125 
Q 23.96875 32.421875 30.609375 32.421875 
" id="BitstreamVeraSans-Roman-39"/>
     </defs>
     <g transform="translate(63.061625 97.8990109375)scale(0.0833 -0.0833)">
      <use xlink:href="#BitstreamVeraSans-Roman-30"/>
      <use x="63.623046875" xlink:href="#BitstreamVeraSans-Roman-2e"/>
      <use x="95.41015625" xlink:href="#BitstreamVeraSans-Roman-35"/>
      <use x="159.033203125" xlink:href="#BitstreamVeraSans-Roman-39"/>
     </g>
    </g>
    <g id="line2d_136">
     <path d="M 42.236625 107.210389 
L 53.898625 107.210389 
" style="fill:none;stroke:#e01d23;stroke-linecap:square;stroke-width:2.0;"/>
    </g>
    <g id="line2d_137"/>
    <g id="text_25">
     <!-- 0.595 -->
     <g transform="translate(63.061625 110.125889062)scale(0.0833 -0.0833)">
      <use xlink:href="#BitstreamVeraSans-Roman-30"/>
      <use x="63.623046875" xlink:href="#BitstreamVeraSans-Roman-2e"/>
      <use x="95.41015625" xlink:href="#BitstreamVeraSans-Roman-35"/>
      <use x="159.033203125" xlink:href="#BitstreamVeraSans-Roman-39"/>
      <use x="222.65625" xlink:href="#BitstreamVeraSans-Roman-35"/>
     </g>
    </g>
    <g id="line2d_138">
     <path d="M 42.236625 119.437267 
L 53.898625 119.437267 
" style="fill:none;stroke:#ff7f00;stroke-linecap:square;stroke-width:2.0;"/>
    </g>
    <g id="line2d_139"/>
    <g id="text_26">
     <!-- 0.6 -->
     <g transform="translate(63.061625 122.352767187)scale(0.0833 -0.0833)">
      <use xlink:href="#BitstreamVeraSans-Roman-30"/>
      <use x="63.623046875" xlink:href="#BitstreamVeraSans-Roman-2e"/>
      <use x="95.41015625" xlink:href="#BitstreamVeraSans-Roman-36"/>
     </g>
    </g>
   </g>
  </g>
 </g>
 <defs>
  <clipPath id="pd6287120ae">
   <rect height="172.8" width="223.2" x="32.240625" y="21.2"/>
  </clipPath>
 </defs>
</svg>
