<?xml version="1.0" encoding="UTF-8" standalone="no"?>
<svg
   xmlns:dc="http://purl.org/dc/elements/1.1/"
   xmlns:cc="http://creativecommons.org/ns#"
   xmlns:rdf="http://www.w3.org/1999/02/22-rdf-syntax-ns#"
   xmlns:svg="http://www.w3.org/2000/svg"
   xmlns="http://www.w3.org/2000/svg"
   viewBox="0 0 271.39062 240.59492"
   height="240.59492"
   width="271.39062"
   xml:space="preserve"
   version="1.1"
   id="svg2"><metadata
     id="metadata8"><rdf:RDF><cc:Work
         rdf:about=""><dc:format>image/svg+xml</dc:format><dc:type
           rdf:resource="http://purl.org/dc/dcmitype/StillImage" /></cc:Work></rdf:RDF></metadata><defs
     id="defs6"><clipPath
       id="clipPath20"
       clipPathUnits="userSpaceOnUse"><path
         id="path22"
         d="m 42.5125,42.2 167.4,0 0,138.24 -167.4,0 0,-138.24 z" /></clipPath><clipPath
       id="clipPath30"
       clipPathUnits="userSpaceOnUse"><path
         id="path32"
         d="m 42.5125,42.2 167.4,0 0,138.24 -167.4,0 0,-138.24 z" /></clipPath><clipPath
       id="clipPath40"
       clipPathUnits="userSpaceOnUse"><path
         id="path42"
         d="m 42.5125,42.2 167.4,0 0,138.24 -167.4,0 0,-138.24 z" /></clipPath><clipPath
       id="clipPath50"
       clipPathUnits="userSpaceOnUse"><path
         id="path52"
         d="m 42.5125,42.2 167.4,0 0,138.24 -167.4,0 0,-138.24 z" /></clipPath><clipPath
       id="clipPath60"
       clipPathUnits="userSpaceOnUse"><path
         id="path62"
         d="m 42.5125,42.2 167.4,0 0,138.24 -167.4,0 0,-138.24 z" /></clipPath><clipPath
       id="clipPath70"
       clipPathUnits="userSpaceOnUse"><path
         id="path72"
         d="m 42.5125,42.2 167.4,0 0,138.24 -167.4,0 0,-138.24 z" /></clipPath><clipPath
       id="clipPath80"
       clipPathUnits="userSpaceOnUse"><path
         id="path82"
         d="m 42.5125,42.2 167.4,0 0,138.24 -167.4,0 0,-138.24 z" /></clipPath><clipPath
       id="clipPath90"
       clipPathUnits="userSpaceOnUse"><path
         id="path92"
         d="m 42.5125,42.2 167.4,0 0,138.24 -167.4,0 0,-138.24 z" /></clipPath><clipPath
       id="clipPath100"
       clipPathUnits="userSpaceOnUse"><path
         id="path102"
         d="m 42.5125,42.2 167.4,0 0,138.24 -167.4,0 0,-138.24 z" /></clipPath><clipPath
       id="clipPath110"
       clipPathUnits="userSpaceOnUse"><path
         id="path112"
         d="m 42.5125,42.2 167.4,0 0,138.24 -167.4,0 0,-138.24 z" /></clipPath><clipPath
       id="clipPath120"
       clipPathUnits="userSpaceOnUse"><path
         id="path122"
         d="m 42.5125,42.2 167.4,0 0,138.24 -167.4,0 0,-138.24 z" /></clipPath><clipPath
       id="clipPath130"
       clipPathUnits="userSpaceOnUse"><path
         id="path132"
         d="m 42.5125,42.2 167.4,0 0,138.24 -167.4,0 0,-138.24 z" /></clipPath><clipPath
       id="clipPath140"
       clipPathUnits="userSpaceOnUse"><path
         id="path142"
         d="m 42.5125,42.2 167.4,0 0,138.24 -167.4,0 0,-138.24 z" /></clipPath><clipPath
       id="clipPath150"
       clipPathUnits="userSpaceOnUse"><path
         id="path152"
         d="m 42.5125,42.2 167.4,0 0,138.24 -167.4,0 0,-138.24 z" /></clipPath><clipPath
       id="clipPath160"
       clipPathUnits="userSpaceOnUse"><path
         id="path162"
         d="m 42.5125,42.2 167.4,0 0,138.24 -167.4,0 0,-138.24 z" /></clipPath><clipPath
       id="clipPath170"
       clipPathUnits="userSpaceOnUse"><path
         id="path172"
         d="m 42.5125,42.2 167.4,0 0,138.24 -167.4,0 0,-138.24 z" /></clipPath><clipPath
       id="clipPath180"
       clipPathUnits="userSpaceOnUse"><path
         id="path182"
         d="m 42.5125,42.2 167.4,0 0,138.24 -167.4,0 0,-138.24 z" /></clipPath><clipPath
       id="clipPath190"
       clipPathUnits="userSpaceOnUse"><path
         id="path192"
         d="m 42.5125,42.2 167.4,0 0,138.24 -167.4,0 0,-138.24 z" /></clipPath><clipPath
       id="clipPath200"
       clipPathUnits="userSpaceOnUse"><path
         id="path202"
         d="m 42.5125,42.2 167.4,0 0,138.24 -167.4,0 0,-138.24 z" /></clipPath><clipPath
       id="clipPath210"
       clipPathUnits="userSpaceOnUse"><path
         id="path212"
         d="m 42.5125,42.2 167.4,0 0,138.24 -167.4,0 0,-138.24 z" /></clipPath><clipPath
       id="clipPath220"
       clipPathUnits="userSpaceOnUse"><path
         id="path222"
         d="m 42.5125,42.2 167.4,0 0,138.24 -167.4,0 0,-138.24 z" /></clipPath><clipPath
       id="clipPath230"
       clipPathUnits="userSpaceOnUse"><path
         id="path232"
         d="m 42.5125,42.2 167.4,0 0,138.24 -167.4,0 0,-138.24 z" /></clipPath><clipPath
       id="clipPath240"
       clipPathUnits="userSpaceOnUse"><path
         id="path242"
         d="m 42.5125,42.2 167.4,0 0,138.24 -167.4,0 0,-138.24 z" /></clipPath><clipPath
       id="clipPath250"
       clipPathUnits="userSpaceOnUse"><path
         id="path252"
         d="m 42.5125,42.2 167.4,0 0,138.24 -167.4,0 0,-138.24 z" /></clipPath><clipPath
       id="clipPath260"
       clipPathUnits="userSpaceOnUse"><path
         id="path262"
         d="m 42.5125,42.2 167.4,0 0,138.24 -167.4,0 0,-138.24 z" /></clipPath><clipPath
       id="clipPath270"
       clipPathUnits="userSpaceOnUse"><path
         id="path272"
         d="m 42.5125,42.2 167.4,0 0,138.24 -167.4,0 0,-138.24 z" /></clipPath><clipPath
       id="clipPath280"
       clipPathUnits="userSpaceOnUse"><path
         id="path282"
         d="m 42.5125,42.2 167.4,0 0,138.24 -167.4,0 0,-138.24 z" /></clipPath><clipPath
       id="clipPath290"
       clipPathUnits="userSpaceOnUse"><path
         id="path292"
         d="m 42.5125,42.2 167.4,0 0,138.24 -167.4,0 0,-138.24 z" /></clipPath><clipPath
       id="clipPath300"
       clipPathUnits="userSpaceOnUse"><path
         id="path302"
         d="m 42.5125,42.2 167.4,0 0,138.24 -167.4,0 0,-138.24 z" /></clipPath><clipPath
       id="clipPath310"
       clipPathUnits="userSpaceOnUse"><path
         id="path312"
         d="m 42.5125,42.2 167.4,0 0,138.24 -167.4,0 0,-138.24 z" /></clipPath><clipPath
       id="clipPath320"
       clipPathUnits="userSpaceOnUse"><path
         id="path322"
         d="m 42.5125,42.2 167.4,0 0,138.24 -167.4,0 0,-138.24 z" /></clipPath><clipPath
       id="clipPath330"
       clipPathUnits="userSpaceOnUse"><path
         id="path332"
         d="m 42.5125,42.2 167.4,0 0,138.24 -167.4,0 0,-138.24 z" /></clipPath></defs><g
     transform="matrix(1.25,0,0,-1.25,0,240.59492)"
     id="g10"><path
       id="path12"
       style="fill:#ffffff;fill-opacity:1;fill-rule:nonzero;stroke:none"
       d="m 0,0 217.1125,0 0,192.47594 L 0,192.47594 0,0 Z" /><path
       id="path14"
       style="fill:#ffffff;fill-opacity:1;fill-rule:nonzero;stroke:none"
       d="m 42.5125,42.2 167.4,0 0,138.24 -167.4,0 0,-138.24 z" /><g
       id="g16"><g
         clip-path="url(#clipPath20)"
         id="g18"><path
           id="path24"
           style="fill:none;stroke:#ff7f00;stroke-width:2;stroke-linecap:butt;stroke-linejoin:round;stroke-miterlimit:10;stroke-dasharray:none;stroke-opacity:1"
           d="m 69.277879,60.621977 0,0.578799" /></g></g><g
       id="g26"><g
         clip-path="url(#clipPath30)"
         id="g28"><path
           id="path34"
           style="fill:none;stroke:#f04610;stroke-width:2;stroke-linecap:butt;stroke-linejoin:round;stroke-miterlimit:10;stroke-dasharray:none;stroke-opacity:1"
           d="m 78.132257,64.044817 0,0.866457" /></g></g><g
       id="g36"><g
         clip-path="url(#clipPath40)"
         id="g38"><path
           id="path44"
           style="fill:none;stroke:#d92230;stroke-width:2;stroke-linecap:butt;stroke-linejoin:round;stroke-miterlimit:10;stroke-dasharray:none;stroke-opacity:1"
           d="m 89.309971,69.147738 0,1.386082" /></g></g><g
       id="g46"><g
         clip-path="url(#clipPath50)"
         id="g48"><path
           id="path54"
           style="fill:none;stroke:#ae3f7c;stroke-width:2;stroke-linecap:butt;stroke-linejoin:round;stroke-miterlimit:10;stroke-dasharray:none;stroke-opacity:1"
           d="m 104.48136,78.973558 0,2.110404" /></g></g><g
       id="g56"><g
         clip-path="url(#clipPath60)"
         id="g58"><path
           id="path64"
           style="fill:none;stroke:#7c5ca9;stroke-width:2;stroke-linecap:butt;stroke-linejoin:round;stroke-miterlimit:10;stroke-dasharray:none;stroke-opacity:1"
           d="m 114.71828,87.154778 0,2.329098" /></g></g><g
       id="g66"><g
         clip-path="url(#clipPath70)"
         id="g68"><path
           id="path74"
           style="fill:none;stroke:#4577b5;stroke-width:2;stroke-linecap:butt;stroke-linejoin:round;stroke-miterlimit:10;stroke-dasharray:none;stroke-opacity:1"
           d="m 128.20096,99.137363 0,3.563357" /></g></g><g
       id="g76"><g
         clip-path="url(#clipPath80)"
         id="g78"><path
           id="path84"
           style="fill:none;stroke:#419388;stroke-width:2;stroke-linecap:butt;stroke-linejoin:round;stroke-miterlimit:10;stroke-dasharray:none;stroke-opacity:1"
           d="m 147.99716,123.72881 0,6.71291" /></g></g><g
       id="g86"><g
         clip-path="url(#clipPath90)"
         id="g88"><path
           id="path94"
           style="fill:none;stroke:#4daf4a;stroke-width:2;stroke-linecap:butt;stroke-linejoin:round;stroke-miterlimit:10;stroke-dasharray:none;stroke-opacity:1"
           d="m 185.96589,155.02316 0,10.57874" /></g></g><g
       id="g96"><g
         clip-path="url(#clipPath100)"
         id="g98"><path
           id="path104"
           style="fill:#ff7f00;fill-opacity:1;fill-rule:nonzero;stroke:#ff7f00;stroke-width:0.5;stroke-linecap:butt;stroke-linejoin:round;stroke-miterlimit:10;stroke-dasharray:none;stroke-opacity:1"
           d="m 72.277879,60.621977 -6,0" /></g></g><g
       id="g106"><g
         clip-path="url(#clipPath110)"
         id="g108"><path
           id="path114"
           style="fill:#ff7f00;fill-opacity:1;fill-rule:nonzero;stroke:#ff7f00;stroke-width:0.5;stroke-linecap:butt;stroke-linejoin:round;stroke-miterlimit:10;stroke-dasharray:none;stroke-opacity:1"
           d="m 72.277879,61.200776 -6,0" /></g></g><g
       id="g116"><g
         clip-path="url(#clipPath120)"
         id="g118"><path
           id="path124"
           style="fill:#ff7f00;fill-opacity:1;fill-rule:nonzero;stroke:#ff7f00;stroke-width:0.5;stroke-linecap:butt;stroke-linejoin:round;stroke-miterlimit:10;stroke-dasharray:none;stroke-opacity:1"
           d="m 69.277879,56.911376 c 1.060813,0 2.07832,0.421466 2.828428,1.171573 0.750107,0.750108 1.171572,1.767615 1.171572,2.828427 0,1.060813 -0.421465,2.07832 -1.171572,2.828428 -0.750108,0.750107 -1.767615,1.171572 -2.828428,1.171572 -1.060812,0 -2.078319,-0.421465 -2.828427,-1.171572 -0.750107,-0.750108 -1.171573,-1.767615 -1.171573,-2.828428 0,-1.060812 0.421466,-2.078319 1.171573,-2.828427 0.750108,-0.750107 1.767615,-1.171573 2.828427,-1.171573 z" /></g></g><g
       id="g126"><g
         clip-path="url(#clipPath130)"
         id="g128"><path
           id="path134"
           style="fill:#f04610;fill-opacity:1;fill-rule:nonzero;stroke:#f04610;stroke-width:0.5;stroke-linecap:butt;stroke-linejoin:round;stroke-miterlimit:10;stroke-dasharray:none;stroke-opacity:1"
           d="m 81.132257,64.044817 -6,0" /></g></g><g
       id="g136"><g
         clip-path="url(#clipPath140)"
         id="g138"><path
           id="path144"
           style="fill:#f04610;fill-opacity:1;fill-rule:nonzero;stroke:#f04610;stroke-width:0.5;stroke-linecap:butt;stroke-linejoin:round;stroke-miterlimit:10;stroke-dasharray:none;stroke-opacity:1"
           d="m 81.132257,64.911274 -6,0" /></g></g><g
       id="g146"><g
         clip-path="url(#clipPath150)"
         id="g148"><path
           id="path154"
           style="fill:#f04610;fill-opacity:1;fill-rule:nonzero;stroke:#f04610;stroke-width:0.5;stroke-linecap:butt;stroke-linejoin:round;stroke-miterlimit:10;stroke-dasharray:none;stroke-opacity:1"
           d="m 78.132257,60.478046 c 1.060812,0 2.078319,0.421465 2.828427,1.171572 0.750108,0.750108 1.171573,1.767615 1.171573,2.828428 0,1.060812 -0.421465,2.078319 -1.171573,2.828427 -0.750108,0.750107 -1.767615,1.171573 -2.828427,1.171573 -1.060813,0 -2.07832,-0.421466 -2.828427,-1.171573 -0.750108,-0.750108 -1.171573,-1.767615 -1.171573,-2.828427 0,-1.060813 0.421465,-2.07832 1.171573,-2.828428 0.750107,-0.750107 1.767614,-1.171572 2.828427,-1.171572 z" /></g></g><g
       id="g156"><g
         clip-path="url(#clipPath160)"
         id="g158"><path
           id="path164"
           style="fill:#d92230;fill-opacity:1;fill-rule:nonzero;stroke:#d92230;stroke-width:0.5;stroke-linecap:butt;stroke-linejoin:round;stroke-miterlimit:10;stroke-dasharray:none;stroke-opacity:1"
           d="m 92.309971,69.147738 -6,0" /></g></g><g
       id="g166"><g
         clip-path="url(#clipPath170)"
         id="g168"><path
           id="path174"
           style="fill:#d92230;fill-opacity:1;fill-rule:nonzero;stroke:#d92230;stroke-width:0.5;stroke-linecap:butt;stroke-linejoin:round;stroke-miterlimit:10;stroke-dasharray:none;stroke-opacity:1"
           d="m 92.309971,70.53382 -6,0" /></g></g><g
       id="g176"><g
         clip-path="url(#clipPath180)"
         id="g178"><path
           id="path184"
           style="fill:#d92230;fill-opacity:1;fill-rule:nonzero;stroke:#d92230;stroke-width:0.5;stroke-linecap:butt;stroke-linejoin:round;stroke-miterlimit:10;stroke-dasharray:none;stroke-opacity:1"
           d="m 89.309971,65.840779 c 1.060812,0 2.078319,0.421465 2.828427,1.171573 0.750108,0.750107 1.171573,1.767615 1.171573,2.828427 0,1.060812 -0.421465,2.078319 -1.171573,2.828427 -0.750108,0.750108 -1.767615,1.171573 -2.828427,1.171573 -1.060813,0 -2.07832,-0.421465 -2.828427,-1.171573 -0.750108,-0.750108 -1.171573,-1.767615 -1.171573,-2.828427 0,-1.060812 0.421465,-2.07832 1.171573,-2.828427 0.750107,-0.750108 1.767614,-1.171573 2.828427,-1.171573 z" /></g></g><g
       id="g186"><g
         clip-path="url(#clipPath190)"
         id="g188"><path
           id="path194"
           style="fill:#ae3f7c;fill-opacity:1;fill-rule:nonzero;stroke:#ae3f7c;stroke-width:0.5;stroke-linecap:butt;stroke-linejoin:round;stroke-miterlimit:10;stroke-dasharray:none;stroke-opacity:1"
           d="m 107.48136,78.973558 -6,0" /></g></g><g
       id="g196"><g
         clip-path="url(#clipPath200)"
         id="g198"><path
           id="path204"
           style="fill:#ae3f7c;fill-opacity:1;fill-rule:nonzero;stroke:#ae3f7c;stroke-width:0.5;stroke-linecap:butt;stroke-linejoin:round;stroke-miterlimit:10;stroke-dasharray:none;stroke-opacity:1"
           d="m 107.48136,81.083962 -6,0" /></g></g><g
       id="g206"><g
         clip-path="url(#clipPath210)"
         id="g208"><path
           id="path214"
           style="fill:#ae3f7c;fill-opacity:1;fill-rule:nonzero;stroke:#ae3f7c;stroke-width:0.5;stroke-linecap:butt;stroke-linejoin:round;stroke-miterlimit:10;stroke-dasharray:none;stroke-opacity:1"
           d="m 104.48136,76.02876 c 1.06082,0 2.07832,0.421465 2.82843,1.171573 0.75011,0.750107 1.17157,1.767615 1.17157,2.828427 0,1.060812 -0.42146,2.078319 -1.17157,2.828427 -0.75011,0.750108 -1.76761,1.171573 -2.82843,1.171573 -1.06081,0 -2.07832,-0.421465 -2.82842,-1.171573 -0.75011,-0.750108 -1.17158,-1.767615 -1.17158,-2.828427 0,-1.060812 0.42147,-2.07832 1.17158,-2.828427 0.7501,-0.750108 1.76761,-1.171573 2.82842,-1.171573 z" /></g></g><g
       id="g216"><g
         clip-path="url(#clipPath220)"
         id="g218"><path
           id="path224"
           style="fill:#7c5ca9;fill-opacity:1;fill-rule:nonzero;stroke:#7c5ca9;stroke-width:0.5;stroke-linecap:butt;stroke-linejoin:round;stroke-miterlimit:10;stroke-dasharray:none;stroke-opacity:1"
           d="m 117.71828,87.154778 -6,0" /></g></g><g
       id="g226"><g
         clip-path="url(#clipPath230)"
         id="g228"><path
           id="path234"
           style="fill:#7c5ca9;fill-opacity:1;fill-rule:nonzero;stroke:#7c5ca9;stroke-width:0.5;stroke-linecap:butt;stroke-linejoin:round;stroke-miterlimit:10;stroke-dasharray:none;stroke-opacity:1"
           d="m 117.71828,89.483876 -6,0" /></g></g><g
       id="g236"><g
         clip-path="url(#clipPath240)"
         id="g238"><path
           id="path244"
           style="fill:#7c5ca9;fill-opacity:1;fill-rule:nonzero;stroke:#7c5ca9;stroke-width:0.5;stroke-linecap:butt;stroke-linejoin:round;stroke-miterlimit:10;stroke-dasharray:none;stroke-opacity:1"
           d="m 114.71828,84.319327 c 1.06081,0 2.07832,0.421465 2.82843,1.171572 0.7501,0.750108 1.17157,1.767615 1.17157,2.828428 0,1.060812 -0.42147,2.078319 -1.17157,2.828427 -0.75011,0.750107 -1.76762,1.171573 -2.82843,1.171573 -1.06081,0 -2.07832,-0.421466 -2.82843,-1.171573 -0.75011,-0.750108 -1.17157,-1.767615 -1.17157,-2.828427 0,-1.060813 0.42146,-2.07832 1.17157,-2.828428 0.75011,-0.750107 1.76762,-1.171572 2.82843,-1.171572 z" /></g></g><g
       id="g246"><g
         clip-path="url(#clipPath250)"
         id="g248"><path
           id="path254"
           style="fill:#4577b5;fill-opacity:1;fill-rule:nonzero;stroke:#4577b5;stroke-width:0.5;stroke-linecap:butt;stroke-linejoin:round;stroke-miterlimit:10;stroke-dasharray:none;stroke-opacity:1"
           d="m 131.20096,99.137363 -6,0" /></g></g><g
       id="g256"><g
         clip-path="url(#clipPath260)"
         id="g258"><path
           id="path264"
           style="fill:#4577b5;fill-opacity:1;fill-rule:nonzero;stroke:#4577b5;stroke-width:0.5;stroke-linecap:butt;stroke-linejoin:round;stroke-miterlimit:10;stroke-dasharray:none;stroke-opacity:1"
           d="m 131.20096,102.70072 -6,0" /></g></g><g
       id="g266"><g
         clip-path="url(#clipPath270)"
         id="g268"><path
           id="path274"
           style="fill:#4577b5;fill-opacity:1;fill-rule:nonzero;stroke:#4577b5;stroke-width:0.5;stroke-linecap:butt;stroke-linejoin:round;stroke-miterlimit:10;stroke-dasharray:none;stroke-opacity:1"
           d="m 128.20096,96.919043 c 1.06081,0 2.07832,0.421465 2.82843,1.171573 0.75011,0.750107 1.17157,1.767615 1.17157,2.828424 0,1.06082 -0.42146,2.07832 -1.17157,2.82843 -0.75011,0.75011 -1.76762,1.17157 -2.82843,1.17157 -1.06081,0 -2.07832,-0.42146 -2.82842,-1.17157 -0.75011,-0.75011 -1.17158,-1.76761 -1.17158,-2.82843 0,-1.060809 0.42147,-2.078317 1.17158,-2.828424 0.7501,-0.750108 1.76761,-1.171573 2.82842,-1.171573 z" /></g></g><g
       id="g276"><g
         clip-path="url(#clipPath280)"
         id="g278"><path
           id="path284"
           style="fill:#419388;fill-opacity:1;fill-rule:nonzero;stroke:#419388;stroke-width:0.5;stroke-linecap:butt;stroke-linejoin:round;stroke-miterlimit:10;stroke-dasharray:none;stroke-opacity:1"
           d="m 150.99716,123.72881 -6,0" /></g></g><g
       id="g286"><g
         clip-path="url(#clipPath290)"
         id="g288"><path
           id="path294"
           style="fill:#419388;fill-opacity:1;fill-rule:nonzero;stroke:#419388;stroke-width:0.5;stroke-linecap:butt;stroke-linejoin:round;stroke-miterlimit:10;stroke-dasharray:none;stroke-opacity:1"
           d="m 150.99716,130.44172 -6,0" /></g></g><g
       id="g296"><g
         clip-path="url(#clipPath300)"
         id="g298"><path
           id="path304"
           style="fill:#419388;fill-opacity:1;fill-rule:nonzero;stroke:#419388;stroke-width:0.5;stroke-linecap:butt;stroke-linejoin:round;stroke-miterlimit:10;stroke-dasharray:none;stroke-opacity:1"
           d="m 147.99716,123.08526 c 1.06081,0 2.07832,0.42147 2.82843,1.17158 0.7501,0.7501 1.17157,1.76761 1.17157,2.82842 0,1.06082 -0.42147,2.07832 -1.17157,2.82843 -0.75011,0.75011 -1.76762,1.17157 -2.82843,1.17157 -1.06081,0 -2.07832,-0.42146 -2.82843,-1.17157 -0.75011,-0.75011 -1.17157,-1.76761 -1.17157,-2.82843 0,-1.06081 0.42146,-2.07832 1.17157,-2.82842 0.75011,-0.75011 1.76762,-1.17158 2.82843,-1.17158 z" /></g></g><g
       id="g306"><g
         clip-path="url(#clipPath310)"
         id="g308"><path
           id="path314"
           style="fill:#4daf4a;fill-opacity:1;fill-rule:nonzero;stroke:#4daf4a;stroke-width:0.5;stroke-linecap:butt;stroke-linejoin:round;stroke-miterlimit:10;stroke-dasharray:none;stroke-opacity:1"
           d="m 188.96589,155.02316 -6,0" /></g></g><g
       id="g316"><g
         clip-path="url(#clipPath320)"
         id="g318"><path
           id="path324"
           style="fill:#4daf4a;fill-opacity:1;fill-rule:nonzero;stroke:#4daf4a;stroke-width:0.5;stroke-linecap:butt;stroke-linejoin:round;stroke-miterlimit:10;stroke-dasharray:none;stroke-opacity:1"
           d="m 188.96589,165.6019 -6,0" /></g></g><g
       id="g326"><g
         clip-path="url(#clipPath330)"
         id="g328"><path
           id="path334"
           style="fill:#4daf4a;fill-opacity:1;fill-rule:nonzero;stroke:#4daf4a;stroke-width:0.5;stroke-linecap:butt;stroke-linejoin:round;stroke-miterlimit:10;stroke-dasharray:none;stroke-opacity:1"
           d="m 185.96589,156.31253 c 1.06081,0 2.07832,0.42147 2.82843,1.17157 0.75011,0.75011 1.17157,1.76762 1.17157,2.82843 0,1.06081 -0.42146,2.07832 -1.17157,2.82843 -0.75011,0.75011 -1.76762,1.17157 -2.82843,1.17157 -1.06081,0 -2.07832,-0.42146 -2.82843,-1.17157 -0.7501,-0.75011 -1.17157,-1.76762 -1.17157,-2.82843 0,-1.06081 0.42147,-2.07832 1.17157,-2.82843 0.75011,-0.7501 1.76762,-1.17157 2.82843,-1.17157 z" /></g></g><g
       id="g336"><path
         id="path338"
         style="fill:none;stroke:#000000;stroke-width:1;stroke-linecap:square;stroke-linejoin:miter;stroke-miterlimit:10;stroke-dasharray:none;stroke-opacity:1"
         d="m 42.5125,180.44 167.4,0" /><path
         id="path340"
         style="fill:none;stroke:#000000;stroke-width:1;stroke-linecap:square;stroke-linejoin:miter;stroke-miterlimit:10;stroke-dasharray:none;stroke-opacity:1"
         d="m 42.5125,42.2 0,138.24" /><path
         id="path342"
         style="fill:none;stroke:#000000;stroke-width:1;stroke-linecap:square;stroke-linejoin:miter;stroke-miterlimit:10;stroke-dasharray:none;stroke-opacity:1"
         d="m 42.5125,42.2 167.4,0" /><path
         id="path344"
         style="fill:none;stroke:#000000;stroke-width:1;stroke-linecap:square;stroke-linejoin:miter;stroke-miterlimit:10;stroke-dasharray:none;stroke-opacity:1"
         d="m 209.9125,42.2 0,138.24" /><path
         id="path346"
         style="fill:#000000;fill-opacity:1;fill-rule:nonzero;stroke:#000000;stroke-width:0.5;stroke-linecap:butt;stroke-linejoin:round;stroke-miterlimit:10;stroke-dasharray:none;stroke-opacity:1"
         d="m 170.70336,42.2 0,4" /><path
         id="path348"
         style="fill:#000000;fill-opacity:1;fill-rule:nonzero;stroke:#000000;stroke-width:0.5;stroke-linecap:butt;stroke-linejoin:round;stroke-miterlimit:10;stroke-dasharray:none;stroke-opacity:1"
         d="m 170.70336,180.44 0,-4" /><g
         transform="translate(159.70336,28.278125)"
         id="g350"><text
           id="text352"
           style="font-variant:normal;font-weight:normal;font-size:10px;font-family:BitstreamVeraSans;-inkscape-font-specification:BitstreamVeraSans-Roman;writing-mode:lr-tb;fill:#000000;fill-opacity:1;fill-rule:nonzero;stroke:none"
           transform="matrix(1,0,0,-1,0,0.5546875)"><tspan
             id="tspan354"
             y="0"
             x="0 6.3623047">10</tspan></text>
<text
           id="text356"
           style="font-variant:normal;font-weight:normal;font-size:7px;font-family:BitstreamVeraSans;-inkscape-font-specification:BitstreamVeraSans-Roman;writing-mode:lr-tb;fill:#000000;fill-opacity:1;fill-rule:nonzero;stroke:none"
           transform="matrix(1,0,0,-1,12.724609,5.8046875)"><tspan
             id="tspan358"
             y="0"
             x="0 2.5258789">-2</tspan></text>
</g><path
         id="path360"
         style="fill:#000000;fill-opacity:1;fill-rule:nonzero;stroke:#000000;stroke-width:0.5;stroke-linecap:butt;stroke-linejoin:round;stroke-miterlimit:10;stroke-dasharray:none;stroke-opacity:1"
         d="m 72.173071,42.2 0,4" /><path
         id="path362"
         style="fill:#000000;fill-opacity:1;fill-rule:nonzero;stroke:#000000;stroke-width:0.5;stroke-linecap:butt;stroke-linejoin:round;stroke-miterlimit:10;stroke-dasharray:none;stroke-opacity:1"
         d="m 72.173071,180.44 0,-4" /><g
         transform="translate(61.173071,28.278125)"
         id="g364"><text
           id="text366"
           style="font-variant:normal;font-weight:normal;font-size:10px;font-family:BitstreamVeraSans;-inkscape-font-specification:BitstreamVeraSans-Roman;writing-mode:lr-tb;fill:#000000;fill-opacity:1;fill-rule:nonzero;stroke:none"
           transform="matrix(1,0,0,-1,0,0.6421875)"><tspan
             id="tspan368"
             y="0"
             x="0 6.3623047">10</tspan></text>
<text
           id="text370"
           style="font-variant:normal;font-weight:normal;font-size:7px;font-family:BitstreamVeraSans;-inkscape-font-specification:BitstreamVeraSans-Roman;writing-mode:lr-tb;fill:#000000;fill-opacity:1;fill-rule:nonzero;stroke:none"
           transform="matrix(1,0,0,-1,12.724609,5.8921875)"><tspan
             id="tspan372"
             y="0"
             x="0 2.5258789">-1</tspan></text>
</g><path
         id="path374"
         style="fill:#000000;fill-opacity:1;fill-rule:nonzero;stroke:#000000;stroke-width:0.5;stroke-linecap:butt;stroke-linejoin:round;stroke-miterlimit:10;stroke-dasharray:none;stroke-opacity:1"
         d="m 209.9125,42.2 0,2" /><path
         id="path376"
         style="fill:#000000;fill-opacity:1;fill-rule:nonzero;stroke:#000000;stroke-width:0.5;stroke-linecap:butt;stroke-linejoin:round;stroke-miterlimit:10;stroke-dasharray:none;stroke-opacity:1"
         d="m 209.9125,180.44 0,-2" /><path
         id="path378"
         style="fill:#000000;fill-opacity:1;fill-rule:nonzero;stroke:#000000;stroke-width:0.5;stroke-linecap:butt;stroke-linejoin:round;stroke-miterlimit:10;stroke-dasharray:none;stroke-opacity:1"
         d="m 200.36393,42.2 0,2" /><path
         id="path380"
         style="fill:#000000;fill-opacity:1;fill-rule:nonzero;stroke:#000000;stroke-width:0.5;stroke-linecap:butt;stroke-linejoin:round;stroke-miterlimit:10;stroke-dasharray:none;stroke-opacity:1"
         d="m 200.36393,180.44 0,-2" /><path
         id="path382"
         style="fill:#000000;fill-opacity:1;fill-rule:nonzero;stroke:#000000;stroke-width:0.5;stroke-linecap:butt;stroke-linejoin:round;stroke-miterlimit:10;stroke-dasharray:none;stroke-opacity:1"
         d="m 192.56218,42.2 0,2" /><path
         id="path384"
         style="fill:#000000;fill-opacity:1;fill-rule:nonzero;stroke:#000000;stroke-width:0.5;stroke-linecap:butt;stroke-linejoin:round;stroke-miterlimit:10;stroke-dasharray:none;stroke-opacity:1"
         d="m 192.56218,180.44 0,-2" /><path
         id="path386"
         style="fill:#000000;fill-opacity:1;fill-rule:nonzero;stroke:#000000;stroke-width:0.5;stroke-linecap:butt;stroke-linejoin:round;stroke-miterlimit:10;stroke-dasharray:none;stroke-opacity:1"
         d="m 185.96589,42.2 0,2" /><path
         id="path388"
         style="fill:#000000;fill-opacity:1;fill-rule:nonzero;stroke:#000000;stroke-width:0.5;stroke-linecap:butt;stroke-linejoin:round;stroke-miterlimit:10;stroke-dasharray:none;stroke-opacity:1"
         d="m 185.96589,180.44 0,-2" /><path
         id="path390"
         style="fill:#000000;fill-opacity:1;fill-rule:nonzero;stroke:#000000;stroke-width:0.5;stroke-linecap:butt;stroke-linejoin:round;stroke-miterlimit:10;stroke-dasharray:none;stroke-opacity:1"
         d="m 180.25193,42.2 0,2" /><path
         id="path392"
         style="fill:#000000;fill-opacity:1;fill-rule:nonzero;stroke:#000000;stroke-width:0.5;stroke-linecap:butt;stroke-linejoin:round;stroke-miterlimit:10;stroke-dasharray:none;stroke-opacity:1"
         d="m 180.25193,180.44 0,-2" /><path
         id="path394"
         style="fill:#000000;fill-opacity:1;fill-rule:nonzero;stroke:#000000;stroke-width:0.5;stroke-linecap:butt;stroke-linejoin:round;stroke-miterlimit:10;stroke-dasharray:none;stroke-opacity:1"
         d="m 175.21186,42.2 0,2" /><path
         id="path396"
         style="fill:#000000;fill-opacity:1;fill-rule:nonzero;stroke:#000000;stroke-width:0.5;stroke-linecap:butt;stroke-linejoin:round;stroke-miterlimit:10;stroke-dasharray:none;stroke-opacity:1"
         d="m 175.21186,180.44 0,-2" /><path
         id="path398"
         style="fill:#000000;fill-opacity:1;fill-rule:nonzero;stroke:#000000;stroke-width:0.5;stroke-linecap:butt;stroke-linejoin:round;stroke-miterlimit:10;stroke-dasharray:none;stroke-opacity:1"
         d="m 141.04279,42.2 0,2" /><path
         id="path400"
         style="fill:#000000;fill-opacity:1;fill-rule:nonzero;stroke:#000000;stroke-width:0.5;stroke-linecap:butt;stroke-linejoin:round;stroke-miterlimit:10;stroke-dasharray:none;stroke-opacity:1"
         d="m 141.04279,180.44 0,-2" /><path
         id="path402"
         style="fill:#000000;fill-opacity:1;fill-rule:nonzero;stroke:#000000;stroke-width:0.5;stroke-linecap:butt;stroke-linejoin:round;stroke-miterlimit:10;stroke-dasharray:none;stroke-opacity:1"
         d="m 123.69246,42.2 0,2" /><path
         id="path404"
         style="fill:#000000;fill-opacity:1;fill-rule:nonzero;stroke:#000000;stroke-width:0.5;stroke-linecap:butt;stroke-linejoin:round;stroke-miterlimit:10;stroke-dasharray:none;stroke-opacity:1"
         d="m 123.69246,180.44 0,-2" /><path
         id="path406"
         style="fill:#000000;fill-opacity:1;fill-rule:nonzero;stroke:#000000;stroke-width:0.5;stroke-linecap:butt;stroke-linejoin:round;stroke-miterlimit:10;stroke-dasharray:none;stroke-opacity:1"
         d="m 111.38221,42.2 0,2" /><path
         id="path408"
         style="fill:#000000;fill-opacity:1;fill-rule:nonzero;stroke:#000000;stroke-width:0.5;stroke-linecap:butt;stroke-linejoin:round;stroke-miterlimit:10;stroke-dasharray:none;stroke-opacity:1"
         d="m 111.38221,180.44 0,-2" /><path
         id="path410"
         style="fill:#000000;fill-opacity:1;fill-rule:nonzero;stroke:#000000;stroke-width:0.5;stroke-linecap:butt;stroke-linejoin:round;stroke-miterlimit:10;stroke-dasharray:none;stroke-opacity:1"
         d="m 101.83364,42.2 0,2" /><path
         id="path412"
         style="fill:#000000;fill-opacity:1;fill-rule:nonzero;stroke:#000000;stroke-width:0.5;stroke-linecap:butt;stroke-linejoin:round;stroke-miterlimit:10;stroke-dasharray:none;stroke-opacity:1"
         d="m 101.83364,180.44 0,-2" /><path
         id="path414"
         style="fill:#000000;fill-opacity:1;fill-rule:nonzero;stroke:#000000;stroke-width:0.5;stroke-linecap:butt;stroke-linejoin:round;stroke-miterlimit:10;stroke-dasharray:none;stroke-opacity:1"
         d="m 94.031892,42.2 0,2" /><path
         id="path416"
         style="fill:#000000;fill-opacity:1;fill-rule:nonzero;stroke:#000000;stroke-width:0.5;stroke-linecap:butt;stroke-linejoin:round;stroke-miterlimit:10;stroke-dasharray:none;stroke-opacity:1"
         d="m 94.031892,180.44 0,-2" /><path
         id="path418"
         style="fill:#000000;fill-opacity:1;fill-rule:nonzero;stroke:#000000;stroke-width:0.5;stroke-linecap:butt;stroke-linejoin:round;stroke-miterlimit:10;stroke-dasharray:none;stroke-opacity:1"
         d="m 87.435606,42.2 0,2" /><path
         id="path420"
         style="fill:#000000;fill-opacity:1;fill-rule:nonzero;stroke:#000000;stroke-width:0.5;stroke-linecap:butt;stroke-linejoin:round;stroke-miterlimit:10;stroke-dasharray:none;stroke-opacity:1"
         d="m 87.435606,180.44 0,-2" /><path
         id="path422"
         style="fill:#000000;fill-opacity:1;fill-rule:nonzero;stroke:#000000;stroke-width:0.5;stroke-linecap:butt;stroke-linejoin:round;stroke-miterlimit:10;stroke-dasharray:none;stroke-opacity:1"
         d="m 81.721643,42.2 0,2" /><path
         id="path424"
         style="fill:#000000;fill-opacity:1;fill-rule:nonzero;stroke:#000000;stroke-width:0.5;stroke-linecap:butt;stroke-linejoin:round;stroke-miterlimit:10;stroke-dasharray:none;stroke-opacity:1"
         d="m 81.721643,180.44 0,-2" /><path
         id="path426"
         style="fill:#000000;fill-opacity:1;fill-rule:nonzero;stroke:#000000;stroke-width:0.5;stroke-linecap:butt;stroke-linejoin:round;stroke-miterlimit:10;stroke-dasharray:none;stroke-opacity:1"
         d="m 76.68157,42.2 0,2" /><path
         id="path428"
         style="fill:#000000;fill-opacity:1;fill-rule:nonzero;stroke:#000000;stroke-width:0.5;stroke-linecap:butt;stroke-linejoin:round;stroke-miterlimit:10;stroke-dasharray:none;stroke-opacity:1"
         d="m 76.68157,180.44 0,-2" /><path
         id="path430"
         style="fill:#000000;fill-opacity:1;fill-rule:nonzero;stroke:#000000;stroke-width:0.5;stroke-linecap:butt;stroke-linejoin:round;stroke-miterlimit:10;stroke-dasharray:none;stroke-opacity:1"
         d="m 42.5125,42.2 0,2" /><path
         id="path432"
         style="fill:#000000;fill-opacity:1;fill-rule:nonzero;stroke:#000000;stroke-width:0.5;stroke-linecap:butt;stroke-linejoin:round;stroke-miterlimit:10;stroke-dasharray:none;stroke-opacity:1"
         d="m 42.5125,180.44 0,-2" /><g
         transform="translate(111.2125,12.2)"
         id="g434"><text
           id="text436"
           style="font-variant:normal;font-weight:normal;font-size:12px;font-family:Cmmi10;-inkscape-font-specification:Cmmi10;writing-mode:lr-tb;fill:#000000;fill-opacity:1;fill-rule:nonzero;stroke:none"
           transform="matrix(1,0,0,-1,0,0.671875)"><tspan
             id="tspan438"
             y="0"
             x="0">φ</tspan></text>
<text
           id="text440"
           style="font-variant:normal;font-weight:normal;font-size:8.39999962px;font-family:Cmmi10;-inkscape-font-specification:Cmmi10;writing-mode:lr-tb;fill:#000000;fill-opacity:1;fill-rule:nonzero;stroke:none"
           transform="matrix(1,0,0,-1,7.1425781,-2.38925)"><tspan
             id="tspan442"
             y="0"
             x="0">g</tspan></text>
<text
           id="text444"
           style="font-variant:normal;font-weight:normal;font-size:12px;font-family:Cmsy10;-inkscape-font-specification:Cmsy10;writing-mode:lr-tb;fill:#000000;fill-opacity:1;fill-rule:nonzero;stroke:none"
           transform="matrix(1,0,0,-1,12.867188,0.671875)"><tspan
             id="tspan446"
             y="0"
             x="0">−</tspan></text>
<text
           id="text448"
           style="font-variant:normal;font-weight:normal;font-size:12px;font-family:Cmmi10;-inkscape-font-specification:Cmmi10;writing-mode:lr-tb;fill:#000000;fill-opacity:1;fill-rule:nonzero;stroke:none"
           transform="matrix(1,0,0,-1,22.189453,0.671875)"><tspan
             id="tspan450"
             y="0"
             x="0">φ</tspan></text>
</g><path
         id="path452"
         style="fill:#000000;fill-opacity:1;fill-rule:nonzero;stroke:#000000;stroke-width:0.5;stroke-linecap:butt;stroke-linejoin:round;stroke-miterlimit:10;stroke-dasharray:none;stroke-opacity:1"
         d="m 42.5125,42.2 4,0" /><path
         id="path454"
         style="fill:#000000;fill-opacity:1;fill-rule:nonzero;stroke:#000000;stroke-width:0.5;stroke-linecap:butt;stroke-linejoin:round;stroke-miterlimit:10;stroke-dasharray:none;stroke-opacity:1"
         d="m 209.9125,42.2 -4,0" /><text
         id="text456"
         style="font-variant:normal;font-weight:normal;font-size:10px;font-family:BitstreamVeraSans;-inkscape-font-specification:BitstreamVeraSans-Roman;writing-mode:lr-tb;fill:#000000;fill-opacity:1;fill-rule:nonzero;stroke:none"
         transform="matrix(1,0,0,-1,23.91875,39.442187)"><tspan
           id="tspan458"
           y="0"
           x="0 6.3600001 9.54">0.0</tspan></text>
<path
         id="path460"
         style="fill:#000000;fill-opacity:1;fill-rule:nonzero;stroke:#000000;stroke-width:0.5;stroke-linecap:butt;stroke-linejoin:round;stroke-miterlimit:10;stroke-dasharray:none;stroke-opacity:1"
         d="m 42.5125,59.48 4,0" /><path
         id="path462"
         style="fill:#000000;fill-opacity:1;fill-rule:nonzero;stroke:#000000;stroke-width:0.5;stroke-linecap:butt;stroke-linejoin:round;stroke-miterlimit:10;stroke-dasharray:none;stroke-opacity:1"
         d="m 209.9125,59.48 -4,0" /><text
         id="text464"
         style="font-variant:normal;font-weight:normal;font-size:10px;font-family:BitstreamVeraSans;-inkscape-font-specification:BitstreamVeraSans-Roman;writing-mode:lr-tb;fill:#000000;fill-opacity:1;fill-rule:nonzero;stroke:none"
         transform="matrix(1,0,0,-1,24.2625,56.722188)"><tspan
           id="tspan466"
           y="0"
           x="0 6.3600001 9.54">0.2</tspan></text>
<path
         id="path468"
         style="fill:#000000;fill-opacity:1;fill-rule:nonzero;stroke:#000000;stroke-width:0.5;stroke-linecap:butt;stroke-linejoin:round;stroke-miterlimit:10;stroke-dasharray:none;stroke-opacity:1"
         d="m 42.5125,76.76 4,0" /><path
         id="path470"
         style="fill:#000000;fill-opacity:1;fill-rule:nonzero;stroke:#000000;stroke-width:0.5;stroke-linecap:butt;stroke-linejoin:round;stroke-miterlimit:10;stroke-dasharray:none;stroke-opacity:1"
         d="m 209.9125,76.76 -4,0" /><text
         id="text472"
         style="font-variant:normal;font-weight:normal;font-size:10px;font-family:BitstreamVeraSans;-inkscape-font-specification:BitstreamVeraSans-Roman;writing-mode:lr-tb;fill:#000000;fill-opacity:1;fill-rule:nonzero;stroke:none"
         transform="matrix(1,0,0,-1,23.825,74.002187)"><tspan
           id="tspan474"
           y="0"
           x="0 6.3600001 9.54">0.4</tspan></text>
<path
         id="path476"
         style="fill:#000000;fill-opacity:1;fill-rule:nonzero;stroke:#000000;stroke-width:0.5;stroke-linecap:butt;stroke-linejoin:round;stroke-miterlimit:10;stroke-dasharray:none;stroke-opacity:1"
         d="m 42.5125,94.04 4,0" /><path
         id="path478"
         style="fill:#000000;fill-opacity:1;fill-rule:nonzero;stroke:#000000;stroke-width:0.5;stroke-linecap:butt;stroke-linejoin:round;stroke-miterlimit:10;stroke-dasharray:none;stroke-opacity:1"
         d="m 209.9125,94.04 -4,0" /><text
         id="text480"
         style="font-variant:normal;font-weight:normal;font-size:10px;font-family:BitstreamVeraSans;-inkscape-font-specification:BitstreamVeraSans-Roman;writing-mode:lr-tb;fill:#000000;fill-opacity:1;fill-rule:nonzero;stroke:none"
         transform="matrix(1,0,0,-1,23.8875,91.282187)"><tspan
           id="tspan482"
           y="0"
           x="0 6.3600001 9.54">0.6</tspan></text>
<path
         id="path484"
         style="fill:#000000;fill-opacity:1;fill-rule:nonzero;stroke:#000000;stroke-width:0.5;stroke-linecap:butt;stroke-linejoin:round;stroke-miterlimit:10;stroke-dasharray:none;stroke-opacity:1"
         d="m 42.5125,111.32 4,0" /><path
         id="path486"
         style="fill:#000000;fill-opacity:1;fill-rule:nonzero;stroke:#000000;stroke-width:0.5;stroke-linecap:butt;stroke-linejoin:round;stroke-miterlimit:10;stroke-dasharray:none;stroke-opacity:1"
         d="m 209.9125,111.32 -4,0" /><text
         id="text488"
         style="font-variant:normal;font-weight:normal;font-size:10px;font-family:BitstreamVeraSans;-inkscape-font-specification:BitstreamVeraSans-Roman;writing-mode:lr-tb;fill:#000000;fill-opacity:1;fill-rule:nonzero;stroke:none"
         transform="matrix(1,0,0,-1,23.934375,108.56219)"><tspan
           id="tspan490"
           y="0"
           x="0 6.3600001 9.54">0.8</tspan></text>
<path
         id="path492"
         style="fill:#000000;fill-opacity:1;fill-rule:nonzero;stroke:#000000;stroke-width:0.5;stroke-linecap:butt;stroke-linejoin:round;stroke-miterlimit:10;stroke-dasharray:none;stroke-opacity:1"
         d="m 42.5125,128.6 4,0" /><path
         id="path494"
         style="fill:#000000;fill-opacity:1;fill-rule:nonzero;stroke:#000000;stroke-width:0.5;stroke-linecap:butt;stroke-linejoin:round;stroke-miterlimit:10;stroke-dasharray:none;stroke-opacity:1"
         d="m 209.9125,128.6 -4,0" /><text
         id="text496"
         style="font-variant:normal;font-weight:normal;font-size:10px;font-family:BitstreamVeraSans;-inkscape-font-specification:BitstreamVeraSans-Roman;writing-mode:lr-tb;fill:#000000;fill-opacity:1;fill-rule:nonzero;stroke:none"
         transform="matrix(1,0,0,-1,24.35625,125.84219)"><tspan
           id="tspan498"
           y="0"
           x="0 6.3600001 9.54">1.0</tspan></text>
<path
         id="path500"
         style="fill:#000000;fill-opacity:1;fill-rule:nonzero;stroke:#000000;stroke-width:0.5;stroke-linecap:butt;stroke-linejoin:round;stroke-miterlimit:10;stroke-dasharray:none;stroke-opacity:1"
         d="m 42.5125,145.88 4,0" /><path
         id="path502"
         style="fill:#000000;fill-opacity:1;fill-rule:nonzero;stroke:#000000;stroke-width:0.5;stroke-linecap:butt;stroke-linejoin:round;stroke-miterlimit:10;stroke-dasharray:none;stroke-opacity:1"
         d="m 209.9125,145.88 -4,0" /><text
         id="text504"
         style="font-variant:normal;font-weight:normal;font-size:10px;font-family:BitstreamVeraSans;-inkscape-font-specification:BitstreamVeraSans-Roman;writing-mode:lr-tb;fill:#000000;fill-opacity:1;fill-rule:nonzero;stroke:none"
         transform="matrix(1,0,0,-1,24.7,143.12219)"><tspan
           id="tspan506"
           y="0"
           x="0 6.3600001 9.54">1.2</tspan></text>
<path
         id="path508"
         style="fill:#000000;fill-opacity:1;fill-rule:nonzero;stroke:#000000;stroke-width:0.5;stroke-linecap:butt;stroke-linejoin:round;stroke-miterlimit:10;stroke-dasharray:none;stroke-opacity:1"
         d="m 42.5125,163.16 4,0" /><path
         id="path510"
         style="fill:#000000;fill-opacity:1;fill-rule:nonzero;stroke:#000000;stroke-width:0.5;stroke-linecap:butt;stroke-linejoin:round;stroke-miterlimit:10;stroke-dasharray:none;stroke-opacity:1"
         d="m 209.9125,163.16 -4,0" /><text
         id="text512"
         style="font-variant:normal;font-weight:normal;font-size:10px;font-family:BitstreamVeraSans;-inkscape-font-specification:BitstreamVeraSans-Roman;writing-mode:lr-tb;fill:#000000;fill-opacity:1;fill-rule:nonzero;stroke:none"
         transform="matrix(1,0,0,-1,24.2625,160.40219)"><tspan
           id="tspan514"
           y="0"
           x="0 6.3600001 9.54">1.4</tspan></text>
<path
         id="path516"
         style="fill:#000000;fill-opacity:1;fill-rule:nonzero;stroke:#000000;stroke-width:0.5;stroke-linecap:butt;stroke-linejoin:round;stroke-miterlimit:10;stroke-dasharray:none;stroke-opacity:1"
         d="m 42.5125,180.44 4,0" /><path
         id="path518"
         style="fill:#000000;fill-opacity:1;fill-rule:nonzero;stroke:#000000;stroke-width:0.5;stroke-linecap:butt;stroke-linejoin:round;stroke-miterlimit:10;stroke-dasharray:none;stroke-opacity:1"
         d="m 209.9125,180.44 -4,0" /><text
         id="text520"
         style="font-variant:normal;font-weight:normal;font-size:10px;font-family:BitstreamVeraSans;-inkscape-font-specification:BitstreamVeraSans-Roman;writing-mode:lr-tb;fill:#000000;fill-opacity:1;fill-rule:nonzero;stroke:none"
         transform="matrix(1,0,0,-1,24.325,177.68219)"><tspan
           id="tspan522"
           y="0"
           x="0 6.3600001 9.54">1.6</tspan></text>
<g
         transform="matrix(0,1,-1,0,14.825,90.82)"
         id="g524"><text
           id="text526"
           style="font-variant:normal;font-weight:normal;font-size:12px;font-family:Cmr10;-inkscape-font-specification:Cmr10;writing-mode:lr-tb;fill:#000000;fill-opacity:1;fill-rule:nonzero;stroke:none"
           transform="matrix(1,0,0,-1,0,0.625)"><tspan
             id="tspan528"
             y="0"
             x="0 9.9960938 15.996094">max</tspan></text>
<text
           id="text530"
           style="font-variant:normal;font-weight:normal;font-size:8.39999962px;font-family:Cmmi10;-inkscape-font-specification:Cmmi10;writing-mode:lr-tb;fill:#000000;fill-opacity:1;fill-rule:nonzero;stroke:none"
           transform="matrix(1,0,0,-1,22.318359,-2.436125)"><tspan
             id="tspan532"
             y="0"
             x="0">t</tspan></text>
<text
           id="text534"
           style="font-variant:normal;font-weight:normal;font-size:12px;font-family:Cmmi10;-inkscape-font-specification:Cmmi10;writing-mode:lr-tb;fill:#000000;fill-opacity:1;fill-rule:nonzero;stroke:none"
           transform="matrix(1,0,0,-1,26.648437,0.625)"><tspan
             id="tspan536"
             y="0"
             x="0">α</tspan></text>
<text
           id="text538"
           style="font-variant:normal;font-weight:normal;font-size:8.39999962px;font-family:Cmr10;-inkscape-font-specification:Cmr10;writing-mode:lr-tb;fill:#000000;fill-opacity:1;fill-rule:nonzero;stroke:none"
           transform="matrix(1,0,0,-1,34.318359,-2.436125)"><tspan
             id="tspan540"
             y="0"
             x="0">2</tspan></text>
</g></g></g></svg>