<?xml version="1.0" encoding="utf-8" standalone="no"?>
<!DOCTYPE svg PUBLIC "-//W3C//DTD SVG 1.1//EN"
  "http://www.w3.org/Graphics/SVG/1.1/DTD/svg11.dtd">
<!-- Created with matplotlib (http://matplotlib.org/) -->
<svg height="188pt" version="1.1" viewBox="0 0 233 188" width="233pt" xmlns="http://www.w3.org/2000/svg" xmlns:xlink="http://www.w3.org/1999/xlink">
 <defs>
  <style type="text/css">
*{stroke-linecap:butt;stroke-linejoin:round;}
  </style>
 </defs>
 <g id="figure_1">
  <g id="patch_1">
   <path d="
M0 188.34
L233.85 188.34
L233.85 -2.84217e-14
L0 -2.84217e-14
z
" style="fill:#ffffff;"/>
  </g>
  <g id="axes_1">
   <g id="patch_2">
    <path d="
M48.3 150.74
L215.7 150.74
L215.7 12.5
L48.3 12.5
z
" style="fill:#ffffff;"/>
   </g>
   <g id="line2d_1">
    <path clip-path="url(#p30cb117759)" d="
M234.85 151.529
L55.082 -1
L55.082 -1" style="fill:none;stroke:#000000;stroke-linecap:square;stroke-width:2;"/>
   </g>
   <g id="line2d_2">
    <defs>
     <path d="
M0 3
C0.795609 3 1.55874 2.6839 2.12132 2.12132
C2.6839 1.55874 3 0.795609 3 0
C3 -0.795609 2.6839 -1.55874 2.12132 -2.12132
C1.55874 -2.6839 0.795609 -3 0 -3
C-0.795609 -3 -1.55874 -2.6839 -2.12132 -2.12132
C-2.6839 -1.55874 -3 -0.795609 -3 0
C-3 0.795609 -2.6839 1.55874 -2.12132 2.12132
C-1.55874 2.6839 -0.795609 3 0 3
z
" id="meb9d29f3ea" style="stroke:#000000;stroke-width:0.5;"/>
    </defs>
    <g clip-path="url(#p30cb117759)">
     <use style="fill:#e41a1c;stroke:#000000;stroke-width:0.5;" x="193.18193925" xlink:href="#meb9d29f3ea" y="111.938659057"/>
     <use style="fill:#e41a1c;stroke:#000000;stroke-width:0.5;" x="182.528546825" xlink:href="#meb9d29f3ea" y="105.065626899"/>
     <use style="fill:#e41a1c;stroke:#000000;stroke-width:0.5;" x="170.041494478" xlink:href="#meb9d29f3ea" y="96.0501207306"/>
     <use style="fill:#e41a1c;stroke:#000000;stroke-width:0.5;" x="154.955594071" xlink:href="#meb9d29f3ea" y="84.08885208"/>
     <use style="fill:#e41a1c;stroke:#000000;stroke-width:0.5;" x="146.049019839" xlink:href="#meb9d29f3ea" y="76.4356813258"/>
     <use style="fill:#e41a1c;stroke:#000000;stroke-width:0.5;" x="142.156604903" xlink:href="#meb9d29f3ea" y="73.4578162248"/>
     <use style="fill:#e41a1c;stroke:#000000;stroke-width:0.5;" x="140.129351006" xlink:href="#meb9d29f3ea" y="71.4989712459"/>
     <use style="fill:#e41a1c;stroke:#000000;stroke-width:0.5;" x="138.043941903" xlink:href="#meb9d29f3ea" y="69.4561576138"/>
     <use style="fill:#e41a1c;stroke:#000000;stroke-width:0.5;" x="135.896942243" xlink:href="#meb9d29f3ea" y="68.3671103865"/>
     <use style="fill:#e41a1c;stroke:#000000;stroke-width:0.5;" x="134.799187669" xlink:href="#meb9d29f3ea" y="66.5818947331"/>
     <use style="fill:#e41a1c;stroke:#000000;stroke-width:0.5;" x="133.684602985" xlink:href="#meb9d29f3ea" y="65.5508733174"/>
     <use style="fill:#e41a1c;stroke:#000000;stroke-width:0.5;" x="132.552664088" xlink:href="#meb9d29f3ea" y="64.9949306668"/>
     <use style="fill:#e41a1c;stroke:#000000;stroke-width:0.5;" x="131.402822005" xlink:href="#meb9d29f3ea" y="62.9092755623"/>
     <use style="fill:#e41a1c;stroke:#000000;stroke-width:0.5;" x="130.234501294" xlink:href="#meb9d29f3ea" y="61.6125924456"/>
     <use style="fill:#e41a1c;stroke:#000000;stroke-width:0.5;" x="129.047098318" xlink:href="#meb9d29f3ea" y="61.8428035774"/>
     <use style="fill:#e41a1c;stroke:#000000;stroke-width:0.5;" x="127.839979366" xlink:href="#meb9d29f3ea" y="60.8685024771"/>
     <use style="fill:#e41a1c;stroke:#000000;stroke-width:0.5;" x="126.61247863" xlink:href="#meb9d29f3ea" y="60.0478948383"/>
     <use style="fill:#e41a1c;stroke:#000000;stroke-width:0.5;" x="125.363895993" xlink:href="#meb9d29f3ea" y="58.7158459156"/>
     <use style="fill:#e41a1c;stroke:#000000;stroke-width:0.5;" x="124.093494632" xlink:href="#meb9d29f3ea" y="56.2196447053"/>
     <use style="fill:#e41a1c;stroke:#000000;stroke-width:0.5;" x="121.484089021" xlink:href="#meb9d29f3ea" y="54.6350574772"/>
     <use style="fill:#e41a1c;stroke:#000000;stroke-width:0.5;" x="120.143402892" xlink:href="#meb9d29f3ea" y="55.4126598224"/>
     <use style="fill:#e41a1c;stroke:#000000;stroke-width:0.5;" x="118.777527764" xlink:href="#meb9d29f3ea" y="53.4266437656"/>
     <use style="fill:#e41a1c;stroke:#000000;stroke-width:0.5;" x="117.385498978" xlink:href="#meb9d29f3ea" y="52.7225645033"/>
     <use style="fill:#e41a1c;stroke:#000000;stroke-width:0.5;" x="115.96629537" xlink:href="#meb9d29f3ea" y="49.8867360972"/>
     <use style="fill:#e41a1c;stroke:#000000;stroke-width:0.5;" x="114.518834782" xlink:href="#meb9d29f3ea" y="47.3474588681"/>
     <use style="fill:#e41a1c;stroke:#000000;stroke-width:0.5;" x="113.041969096" xlink:href="#meb9d29f3ea" y="48.0034878036"/>
     <use style="fill:#e41a1c;stroke:#000000;stroke-width:0.5;" x="111.534478769" xlink:href="#meb9d29f3ea" y="48.2227184906"/>
     <use style="fill:#e41a1c;stroke:#000000;stroke-width:0.5;" x="109.995066778" xlink:href="#meb9d29f3ea" y="46.2753783867"/>
    </g>
   </g>
   <g id="patch_3">
    <path d="
M48.3 150.74
L48.3 12.5" style="fill:none;stroke:#000000;stroke-linecap:square;stroke-linejoin:miter;"/>
   </g>
   <g id="patch_4">
    <path d="
M215.7 150.74
L215.7 12.5" style="fill:none;stroke:#000000;stroke-linecap:square;stroke-linejoin:miter;"/>
   </g>
   <g id="patch_5">
    <path d="
M48.3 12.5
L215.7 12.5" style="fill:none;stroke:#000000;stroke-linecap:square;stroke-linejoin:miter;"/>
   </g>
   <g id="patch_6">
    <path d="
M48.3 150.74
L215.7 150.74" style="fill:none;stroke:#000000;stroke-linecap:square;stroke-linejoin:miter;"/>
   </g>
   <g id="matplotlib.axis_1">
    <g id="xtick_1">
     <g id="line2d_3">
      <defs>
       <path d="
M0 0
L0 -4" id="mc7db9fdffb" style="stroke:#000000;stroke-width:0.5;"/>
      </defs>
      <g>
       <use style="stroke:#000000;stroke-width:0.5;" x="215.7" xlink:href="#mc7db9fdffb" y="150.74"/>
      </g>
     </g>
     <g id="line2d_4">
      <defs>
       <path d="
M0 0
L0 4" id="m5a7d422ac3" style="stroke:#000000;stroke-width:0.5;"/>
      </defs>
      <g>
       <use style="stroke:#000000;stroke-width:0.5;" x="215.7" xlink:href="#m5a7d422ac3" y="12.5"/>
      </g>
     </g>
     <g id="text_1">
      <!-- $\mathdefault{10^{-1}}$ -->
      <defs>
       <path d="
M31.7812 66.4062
Q24.1719 66.4062 20.3281 58.9062
Q16.5 51.4219 16.5 36.375
Q16.5 21.3906 20.3281 13.8906
Q24.1719 6.39062 31.7812 6.39062
Q39.4531 6.39062 43.2812 13.8906
Q47.125 21.3906 47.125 36.375
Q47.125 51.4219 43.2812 58.9062
Q39.4531 66.4062 31.7812 66.4062
M31.7812 74.2188
Q44.0469 74.2188 50.5156 64.5156
Q56.9844 54.8281 56.9844 36.375
Q56.9844 17.9688 50.5156 8.26562
Q44.0469 -1.42188 31.7812 -1.42188
Q19.5312 -1.42188 13.0625 8.26562
Q6.59375 17.9688 6.59375 36.375
Q6.59375 54.8281 13.0625 64.5156
Q19.5312 74.2188 31.7812 74.2188" id="BitstreamVeraSans-Roman-30"/>
       <path d="
M12.4062 8.29688
L28.5156 8.29688
L28.5156 63.9219
L10.9844 60.4062
L10.9844 69.3906
L28.4219 72.9062
L38.2812 72.9062
L38.2812 8.29688
L54.3906 8.29688
L54.3906 0
L12.4062 0
z
" id="BitstreamVeraSans-Roman-31"/>
       <path d="
M4.89062 31.3906
L31.2031 31.3906
L31.2031 23.3906
L4.89062 23.3906
z
" id="BitstreamVeraSans-Roman-2d"/>
      </defs>
      <g transform="translate(204.75 163.2603125)scale(0.1 -0.1)">
       <use transform="translate(0.0 0.46562500000000284)" xlink:href="#BitstreamVeraSans-Roman-31"/>
       <use transform="translate(63.623046875 0.46562500000000284)" xlink:href="#BitstreamVeraSans-Roman-30"/>
       <use transform="translate(127.24609375 52.965625)scale(0.7)" xlink:href="#BitstreamVeraSans-Roman-2d"/>
       <use transform="translate(152.5048828125 52.965625)scale(0.7)" xlink:href="#BitstreamVeraSans-Roman-31"/>
      </g>
     </g>
    </g>
    <g id="xtick_2">
     <g id="line2d_5">
      <g>
       <use style="stroke:#000000;stroke-width:0.5;" x="48.3" xlink:href="#mc7db9fdffb" y="150.74"/>
      </g>
     </g>
     <g id="line2d_6">
      <g>
       <use style="stroke:#000000;stroke-width:0.5;" x="48.3" xlink:href="#m5a7d422ac3" y="12.5"/>
      </g>
     </g>
     <g id="text_2">
      <!-- $\mathdefault{10^{-2}}$ -->
      <defs>
       <path d="
M19.1875 8.29688
L53.6094 8.29688
L53.6094 0
L7.32812 0
L7.32812 8.29688
Q12.9375 14.1094 22.625 23.8906
Q32.3281 33.6875 34.8125 36.5312
Q39.5469 41.8438 41.4219 45.5312
Q43.3125 49.2188 43.3125 52.7812
Q43.3125 58.5938 39.2344 62.25
Q35.1562 65.9219 28.6094 65.9219
Q23.9688 65.9219 18.8125 64.3125
Q13.6719 62.7031 7.8125 59.4219
L7.8125 69.3906
Q13.7656 71.7812 18.9375 73
Q24.125 74.2188 28.4219 74.2188
Q39.75 74.2188 46.4844 68.5469
Q53.2188 62.8906 53.2188 53.4219
Q53.2188 48.9219 51.5312 44.8906
Q49.8594 40.875 45.4062 35.4062
Q44.1875 33.9844 37.6406 27.2188
Q31.1094 20.4531 19.1875 8.29688" id="BitstreamVeraSans-Roman-32"/>
      </defs>
      <g transform="translate(37.35 163.3603125)scale(0.1 -0.1)">
       <use transform="translate(0.0 0.546875)" xlink:href="#BitstreamVeraSans-Roman-31"/>
       <use transform="translate(63.623046875 0.546875)" xlink:href="#BitstreamVeraSans-Roman-30"/>
       <use transform="translate(127.24609375 53.046875)scale(0.7)" xlink:href="#BitstreamVeraSans-Roman-2d"/>
       <use transform="translate(152.5048828125 53.046875)scale(0.7)" xlink:href="#BitstreamVeraSans-Roman-32"/>
      </g>
     </g>
    </g>
    <g id="xtick_3">
     <g id="line2d_7">
      <defs>
       <path d="
M0 0
L0 -2" id="mc21db286a6" style="stroke:#000000;stroke-width:0.5;"/>
      </defs>
      <g>
       <use style="stroke:#000000;stroke-width:0.5;" x="98.6924212742" xlink:href="#mc21db286a6" y="150.74"/>
      </g>
     </g>
     <g id="line2d_8">
      <defs>
       <path d="
M0 0
L0 2" id="ma9c915e141" style="stroke:#000000;stroke-width:0.5;"/>
      </defs>
      <g>
       <use style="stroke:#000000;stroke-width:0.5;" x="98.6924212742" xlink:href="#ma9c915e141" y="12.5"/>
      </g>
     </g>
    </g>
    <g id="xtick_4">
     <g id="line2d_9">
      <g>
       <use style="stroke:#000000;stroke-width:0.5;" x="128.17009804" xlink:href="#mc21db286a6" y="150.74"/>
      </g>
     </g>
     <g id="line2d_10">
      <g>
       <use style="stroke:#000000;stroke-width:0.5;" x="128.17009804" xlink:href="#ma9c915e141" y="12.5"/>
      </g>
     </g>
    </g>
    <g id="xtick_5">
     <g id="line2d_11">
      <g>
       <use style="stroke:#000000;stroke-width:0.5;" x="149.084842548" xlink:href="#mc21db286a6" y="150.74"/>
      </g>
     </g>
     <g id="line2d_12">
      <g>
       <use style="stroke:#000000;stroke-width:0.5;" x="149.084842548" xlink:href="#ma9c915e141" y="12.5"/>
      </g>
     </g>
    </g>
    <g id="xtick_6">
     <g id="line2d_13">
      <g>
       <use style="stroke:#000000;stroke-width:0.5;" x="165.307578726" xlink:href="#mc21db286a6" y="150.74"/>
      </g>
     </g>
     <g id="line2d_14">
      <g>
       <use style="stroke:#000000;stroke-width:0.5;" x="165.307578726" xlink:href="#ma9c915e141" y="12.5"/>
      </g>
     </g>
    </g>
    <g id="xtick_7">
     <g id="line2d_15">
      <g>
       <use style="stroke:#000000;stroke-width:0.5;" x="178.562519314" xlink:href="#mc21db286a6" y="150.74"/>
      </g>
     </g>
     <g id="line2d_16">
      <g>
       <use style="stroke:#000000;stroke-width:0.5;" x="178.562519314" xlink:href="#ma9c915e141" y="12.5"/>
      </g>
     </g>
    </g>
    <g id="xtick_8">
     <g id="line2d_17">
      <g>
       <use style="stroke:#000000;stroke-width:0.5;" x="189.769411898" xlink:href="#mc21db286a6" y="150.74"/>
      </g>
     </g>
     <g id="line2d_18">
      <g>
       <use style="stroke:#000000;stroke-width:0.5;" x="189.769411898" xlink:href="#ma9c915e141" y="12.5"/>
      </g>
     </g>
    </g>
    <g id="xtick_9">
     <g id="line2d_19">
      <g>
       <use style="stroke:#000000;stroke-width:0.5;" x="199.477263822" xlink:href="#mc21db286a6" y="150.74"/>
      </g>
     </g>
     <g id="line2d_20">
      <g>
       <use style="stroke:#000000;stroke-width:0.5;" x="199.477263822" xlink:href="#ma9c915e141" y="12.5"/>
      </g>
     </g>
    </g>
    <g id="xtick_10">
     <g id="line2d_21">
      <g>
       <use style="stroke:#000000;stroke-width:0.5;" x="208.04019608" xlink:href="#mc21db286a6" y="150.74"/>
      </g>
     </g>
     <g id="line2d_22">
      <g>
       <use style="stroke:#000000;stroke-width:0.5;" x="208.04019608" xlink:href="#ma9c915e141" y="12.5"/>
      </g>
     </g>
    </g>
    <g id="text_3">
     <!-- Packing Fraction $\phi^\star -  \phi$ -->
     <defs>
      <path d="
M34.2812 27.4844
Q23.3906 27.4844 19.1875 25
Q14.9844 22.5156 14.9844 16.5
Q14.9844 11.7188 18.1406 8.90625
Q21.2969 6.10938 26.7031 6.10938
Q34.1875 6.10938 38.7031 11.4062
Q43.2188 16.7031 43.2188 25.4844
L43.2188 27.4844
z

M52.2031 31.2031
L52.2031 0
L43.2188 0
L43.2188 8.29688
Q40.1406 3.32812 35.5469 0.953125
Q30.9531 -1.42188 24.3125 -1.42188
Q15.9219 -1.42188 10.9531 3.29688
Q6 8.01562 6 15.9219
Q6 25.1406 12.1719 29.8281
Q18.3594 34.5156 30.6094 34.5156
L43.2188 34.5156
L43.2188 35.4062
Q43.2188 41.6094 39.1406 45
Q35.0625 48.3906 27.6875 48.3906
Q23 48.3906 18.5469 47.2656
Q14.1094 46.1406 10.0156 43.8906
L10.0156 52.2031
Q14.9375 54.1094 19.5781 55.0469
Q24.2188 56 28.6094 56
Q40.4844 56 46.3438 49.8438
Q52.2031 43.7031 52.2031 31.2031" id="BitstreamVeraSans-Roman-61"/>
      <path d="
M9.8125 72.9062
L51.7031 72.9062
L51.7031 64.5938
L19.6719 64.5938
L19.6719 43.1094
L48.5781 43.1094
L48.5781 34.8125
L19.6719 34.8125
L19.6719 0
L9.8125 0
z
" id="BitstreamVeraSans-Roman-46"/>
      <path d="
M54.8906 33.0156
L54.8906 0
L45.9062 0
L45.9062 32.7188
Q45.9062 40.4844 42.875 44.3281
Q39.8438 48.1875 33.7969 48.1875
Q26.5156 48.1875 22.3125 43.5469
Q18.1094 38.9219 18.1094 30.9062
L18.1094 0
L9.07812 0
L9.07812 54.6875
L18.1094 54.6875
L18.1094 46.1875
Q21.3438 51.125 25.7031 53.5625
Q30.0781 56 35.7969 56
Q45.2188 56 50.0469 50.1719
Q54.8906 44.3438 54.8906 33.0156" id="BitstreamVeraSans-Roman-6e"/>
      <path d="
M45.4062 27.9844
Q45.4062 37.75 41.375 43.1094
Q37.3594 48.4844 30.0781 48.4844
Q22.8594 48.4844 18.8281 43.1094
Q14.7969 37.75 14.7969 27.9844
Q14.7969 18.2656 18.8281 12.8906
Q22.8594 7.51562 30.0781 7.51562
Q37.3594 7.51562 41.375 12.8906
Q45.4062 18.2656 45.4062 27.9844
M54.3906 6.78125
Q54.3906 -7.17188 48.1875 -13.9844
Q42 -20.7969 29.2031 -20.7969
Q24.4688 -20.7969 20.2656 -20.0938
Q16.0625 -19.3906 12.1094 -17.9219
L12.1094 -9.1875
Q16.0625 -11.3281 19.9219 -12.3438
Q23.7812 -13.375 27.7812 -13.375
Q36.625 -13.375 41.0156 -8.76562
Q45.4062 -4.15625 45.4062 5.17188
L45.4062 9.625
Q42.625 4.78125 38.2812 2.39062
Q33.9375 0 27.875 0
Q17.8281 0 11.6719 7.65625
Q5.51562 15.3281 5.51562 27.9844
Q5.51562 40.6719 11.6719 48.3281
Q17.8281 56 27.875 56
Q33.9375 56 38.2812 53.6094
Q42.625 51.2188 45.4062 46.3906
L45.4062 54.6875
L54.3906 54.6875
z
" id="BitstreamVeraSans-Roman-67"/>
      <path d="
M9.07812 75.9844
L18.1094 75.9844
L18.1094 31.1094
L44.9219 54.6875
L56.3906 54.6875
L27.3906 29.1094
L57.625 0
L45.9062 0
L18.1094 26.7031
L18.1094 0
L9.07812 0
z
" id="BitstreamVeraSans-Roman-6b"/>
      <path d="
M48.7812 52.5938
L48.7812 44.1875
Q44.9688 46.2969 41.1406 47.3438
Q37.3125 48.3906 33.4062 48.3906
Q24.6562 48.3906 19.8125 42.8438
Q14.9844 37.3125 14.9844 27.2969
Q14.9844 17.2812 19.8125 11.7344
Q24.6562 6.20312 33.4062 6.20312
Q37.3125 6.20312 41.1406 7.25
Q44.9688 8.29688 48.7812 10.4062
L48.7812 2.09375
Q45.0156 0.34375 40.9844 -0.53125
Q36.9688 -1.42188 32.4219 -1.42188
Q20.0625 -1.42188 12.7812 6.34375
Q5.51562 14.1094 5.51562 27.2969
Q5.51562 40.6719 12.8594 48.3281
Q20.2188 56 33.0156 56
Q37.1562 56 41.1094 55.1406
Q45.0625 54.2969 48.7812 52.5938" id="BitstreamVeraSans-Roman-63"/>
      <path d="
M10.2031 23
Q9.375 23 8.82812 23.625
Q8.29688 24.2656 8.29688 25
Q8.29688 25.7344 8.82812 26.3594
Q9.375 27 10.2031 27
L67.5781 27
Q68.3594 27 68.875 26.3594
Q69.3906 25.7344 69.3906 25
Q69.3906 24.2656 68.875 23.625
Q68.3594 23 67.5781 23
z
" id="Cmsy10-a1"/>
      <path d="
M9.42188 54.6875
L18.4062 54.6875
L18.4062 0
L9.42188 0
z

M9.42188 75.9844
L18.4062 75.9844
L18.4062 64.5938
L9.42188 64.5938
z
" id="BitstreamVeraSans-Roman-69"/>
      <path d="
M30.6094 48.3906
Q23.3906 48.3906 19.1875 42.75
Q14.9844 37.1094 14.9844 27.2969
Q14.9844 17.4844 19.1562 11.8438
Q23.3438 6.20312 30.6094 6.20312
Q37.7969 6.20312 41.9844 11.8594
Q46.1875 17.5312 46.1875 27.2969
Q46.1875 37.0156 41.9844 42.7031
Q37.7969 48.3906 30.6094 48.3906
M30.6094 56
Q42.3281 56 49.0156 48.375
Q55.7188 40.7656 55.7188 27.2969
Q55.7188 13.875 49.0156 6.21875
Q42.3281 -1.42188 30.6094 -1.42188
Q18.8438 -1.42188 12.1719 6.21875
Q5.51562 13.875 5.51562 27.2969
Q5.51562 40.7656 12.1719 48.375
Q18.8438 56 30.6094 56" id="BitstreamVeraSans-Roman-6f"/>
      <path d="
M66.5 36.5
L43.9062 22.7969
L54.5938 -1.29688
L35 16.5938
L15.4062 -1.29688
L26.0938 22.7969
L3.5 36.5
L29.7031 33.5
L35 59.7031
L40.2969 33.5
z
" id="STIXGeneral-Regular-22c6"/>
      <path d="
M18.3125 70.2188
L18.3125 54.6875
L36.8125 54.6875
L36.8125 47.7031
L18.3125 47.7031
L18.3125 18.0156
Q18.3125 11.3281 20.1406 9.42188
Q21.9688 7.51562 27.5938 7.51562
L36.8125 7.51562
L36.8125 0
L27.5938 0
Q17.1875 0 13.2344 3.875
Q9.28125 7.76562 9.28125 18.0156
L9.28125 47.7031
L2.6875 47.7031
L2.6875 54.6875
L9.28125 54.6875
L9.28125 70.2188
z
" id="BitstreamVeraSans-Roman-74"/>
      <path d="
M19.3906 -19.4844
L23.875 -1.42188
Q18.7969 -1.42188 14.4062 0.953125
Q10.0156 3.32812 7.34375 7.5625
Q4.6875 11.8125 4.6875 16.7969
Q4.6875 22.2188 7.375 27.1406
Q10.0625 32.0781 14.7188 36.1094
Q19.3906 40.1406 24.75 42.3125
Q30.125 44.4844 35.4062 44.4844
L41.4062 68.7969
Q41.6094 69.3906 42.1875 69.3906
L43.4062 69.3906
Q43.7969 69.3906 44.0312 69.0469
Q44.2812 68.7031 44.2812 68.4062
L38.2812 44.4844
Q42.0469 44.4844 45.5625 43.1094
Q49.0781 41.75 51.7812 39.2812
Q54.5 36.8125 56 33.4688
Q57.5156 30.125 57.5156 26.3125
Q57.5156 20.9062 54.8281 15.9688
Q52.1562 11.0312 47.6094 7.07812
Q43.0625 3.125 37.4688 0.84375
Q31.8906 -1.42188 26.8125 -1.42188
L22.2188 -19.9219
Q22.0156 -20.5156 21.3906 -20.5156
L20.2188 -20.5156
Q19.8281 -20.5156 19.6094 -20.1406
Q19.3906 -19.7812 19.3906 -19.4844
M24.5156 1.21875
L34.7188 41.8906
Q32.1719 41.8906 29.3906 40.8594
Q26.6094 39.8438 24.1406 38.2812
Q21.6875 36.7188 19.6719 34.7188
Q17.2344 32.2812 15.375 28.9531
Q13.5312 25.6406 12.5781 21.9531
Q11.625 18.2656 11.625 14.7031
Q11.625 10.9375 13.2344 7.85938
Q14.8438 4.78125 17.7656 3
Q20.7031 1.21875 24.5156 1.21875
M27.4844 1.21875
Q31.25 1.21875 35.5 3.35938
Q39.75 5.51562 42.4844 8.40625
Q46.2344 12.1094 48.4062 17.5
Q50.5938 22.9062 50.5938 28.4219
Q50.5938 32.125 48.9688 35.2188
Q47.3594 38.3281 44.4219 40.1094
Q41.5 41.8906 37.7031 41.8906
z
" id="Cmmi10-c1"/>
      <path d="
M19.6719 64.7969
L19.6719 37.4062
L32.0781 37.4062
Q38.9688 37.4062 42.7188 40.9688
Q46.4844 44.5312 46.4844 51.125
Q46.4844 57.6719 42.7188 61.2344
Q38.9688 64.7969 32.0781 64.7969
z

M9.8125 72.9062
L32.0781 72.9062
Q44.3438 72.9062 50.6094 67.3594
Q56.8906 61.8125 56.8906 51.125
Q56.8906 40.3281 50.6094 34.8125
Q44.3438 29.2969 32.0781 29.2969
L19.6719 29.2969
L19.6719 0
L9.8125 0
z
" id="BitstreamVeraSans-Roman-50"/>
      <path id="BitstreamVeraSans-Roman-20"/>
      <path d="
M41.1094 46.2969
Q39.5938 47.1719 37.8125 47.5781
Q36.0312 48 33.8906 48
Q26.2656 48 22.1875 43.0469
Q18.1094 38.0938 18.1094 28.8125
L18.1094 0
L9.07812 0
L9.07812 54.6875
L18.1094 54.6875
L18.1094 46.1875
Q20.9531 51.1719 25.4844 53.5781
Q30.0312 56 36.5312 56
Q37.4531 56 38.5781 55.875
Q39.7031 55.7656 41.0625 55.5156
z
" id="BitstreamVeraSans-Roman-72"/>
     </defs>
     <g transform="translate(74.9 179.04)scale(0.1 -0.1)">
      <use transform="translate(0.0 0.3265624999999943)" xlink:href="#BitstreamVeraSans-Roman-50"/>
      <use transform="translate(60.302734375 0.3265624999999943)" xlink:href="#BitstreamVeraSans-Roman-61"/>
      <use transform="translate(121.58203125 0.3265624999999943)" xlink:href="#BitstreamVeraSans-Roman-63"/>
      <use transform="translate(176.5625 0.3265624999999943)" xlink:href="#BitstreamVeraSans-Roman-6b"/>
      <use transform="translate(234.47265625 0.3265624999999943)" xlink:href="#BitstreamVeraSans-Roman-69"/>
      <use transform="translate(262.255859375 0.3265624999999943)" xlink:href="#BitstreamVeraSans-Roman-6e"/>
      <use transform="translate(325.634765625 0.3265624999999943)" xlink:href="#BitstreamVeraSans-Roman-67"/>
      <use transform="translate(389.111328125 0.3265624999999943)" xlink:href="#BitstreamVeraSans-Roman-20"/>
      <use transform="translate(420.8984375 0.3265624999999943)" xlink:href="#BitstreamVeraSans-Roman-46"/>
      <use transform="translate(478.41796875 0.3265624999999943)" xlink:href="#BitstreamVeraSans-Roman-72"/>
      <use transform="translate(519.53125 0.3265624999999943)" xlink:href="#BitstreamVeraSans-Roman-61"/>
      <use transform="translate(580.810546875 0.3265624999999943)" xlink:href="#BitstreamVeraSans-Roman-63"/>
      <use transform="translate(635.791015625 0.3265624999999943)" xlink:href="#BitstreamVeraSans-Roman-74"/>
      <use transform="translate(675.0 0.3265624999999943)" xlink:href="#BitstreamVeraSans-Roman-69"/>
      <use transform="translate(702.783203125 0.3265624999999943)" xlink:href="#BitstreamVeraSans-Roman-6f"/>
      <use transform="translate(763.96484375 0.3265624999999943)" xlink:href="#BitstreamVeraSans-Roman-6e"/>
      <use transform="translate(827.34375 0.3265624999999943)" xlink:href="#BitstreamVeraSans-Roman-20"/>
      <use transform="translate(859.130859375 0.3265624999999943)" xlink:href="#Cmmi10-c1"/>
      <use transform="translate(930.943359375 44.207812499999996)scale(0.7)" xlink:href="#STIXGeneral-Regular-22c6"/>
      <use transform="translate(1004.340625 0.3265624999999943)" xlink:href="#Cmsy10-a1"/>
      <use transform="translate(1082.026171875 0.3265624999999943)" xlink:href="#Cmmi10-c1"/>
     </g>
    </g>
   </g>
   <g id="matplotlib.axis_2">
    <g id="ytick_1">
     <g id="line2d_23">
      <defs>
       <path d="
M0 0
L4 0" id="md7965d1ba0" style="stroke:#000000;stroke-width:0.5;"/>
      </defs>
      <g>
       <use style="stroke:#000000;stroke-width:0.5;" x="48.3" xlink:href="#md7965d1ba0" y="150.74"/>
      </g>
     </g>
     <g id="line2d_24">
      <defs>
       <path d="
M0 0
L-4 0" id="md9a1c1a7cd" style="stroke:#000000;stroke-width:0.5;"/>
      </defs>
      <g>
       <use style="stroke:#000000;stroke-width:0.5;" x="215.7" xlink:href="#md9a1c1a7cd" y="150.74"/>
      </g>
     </g>
     <g id="text_4">
      <!-- $\mathdefault{10^{-1}}$ -->
      <g transform="translate(22.4 153.9603125)scale(0.1 -0.1)">
       <use transform="translate(0.0 0.46562500000000284)" xlink:href="#BitstreamVeraSans-Roman-31"/>
       <use transform="translate(63.623046875 0.46562500000000284)" xlink:href="#BitstreamVeraSans-Roman-30"/>
       <use transform="translate(127.24609375 52.965625)scale(0.7)" xlink:href="#BitstreamVeraSans-Roman-2d"/>
       <use transform="translate(152.5048828125 52.965625)scale(0.7)" xlink:href="#BitstreamVeraSans-Roman-31"/>
      </g>
     </g>
    </g>
    <g id="ytick_2">
     <g id="line2d_25">
      <g>
       <use style="stroke:#000000;stroke-width:0.5;" x="48.3" xlink:href="#md7965d1ba0" y="81.62"/>
      </g>
     </g>
     <g id="line2d_26">
      <g>
       <use style="stroke:#000000;stroke-width:0.5;" x="215.7" xlink:href="#md9a1c1a7cd" y="81.62"/>
      </g>
     </g>
     <g id="text_5">
      <!-- $\mathdefault{10^{0}}$ -->
      <g transform="translate(25.0 84.8903125)scale(0.1 -0.1)">
       <use transform="translate(0.0 0.546875)" xlink:href="#BitstreamVeraSans-Roman-31"/>
       <use transform="translate(63.623046875 0.546875)" xlink:href="#BitstreamVeraSans-Roman-30"/>
       <use transform="translate(127.24609375 53.046875)scale(0.7)" xlink:href="#BitstreamVeraSans-Roman-30"/>
      </g>
     </g>
    </g>
    <g id="ytick_3">
     <g id="line2d_27">
      <g>
       <use style="stroke:#000000;stroke-width:0.5;" x="48.3" xlink:href="#md7965d1ba0" y="12.5"/>
      </g>
     </g>
     <g id="line2d_28">
      <g>
       <use style="stroke:#000000;stroke-width:0.5;" x="215.7" xlink:href="#md9a1c1a7cd" y="12.5"/>
      </g>
     </g>
     <g id="text_6">
      <!-- $\mathdefault{10^{1}}$ -->
      <g transform="translate(25.0 15.7203125)scale(0.1 -0.1)">
       <use transform="translate(0.0 0.46562500000000284)" xlink:href="#BitstreamVeraSans-Roman-31"/>
       <use transform="translate(63.623046875 0.46562500000000284)" xlink:href="#BitstreamVeraSans-Roman-30"/>
       <use transform="translate(127.24609375 52.965625)scale(0.7)" xlink:href="#BitstreamVeraSans-Roman-31"/>
      </g>
     </g>
    </g>
    <g id="ytick_4">
     <g id="line2d_29">
      <defs>
       <path d="
M0 0
L2 0" id="m8d45281ad4" style="stroke:#000000;stroke-width:0.5;"/>
      </defs>
      <g>
       <use style="stroke:#000000;stroke-width:0.5;" x="48.3" xlink:href="#m8d45281ad4" y="129.9328067"/>
      </g>
     </g>
     <g id="line2d_30">
      <defs>
       <path d="
M0 0
L-2 0" id="me3f9b4022a" style="stroke:#000000;stroke-width:0.5;"/>
      </defs>
      <g>
       <use style="stroke:#000000;stroke-width:0.5;" x="215.7" xlink:href="#me3f9b4022a" y="129.9328067"/>
      </g>
     </g>
    </g>
    <g id="ytick_5">
     <g id="line2d_31">
      <g>
       <use style="stroke:#000000;stroke-width:0.5;" x="48.3" xlink:href="#m8d45281ad4" y="117.761378874"/>
      </g>
     </g>
     <g id="line2d_32">
      <g>
       <use style="stroke:#000000;stroke-width:0.5;" x="215.7" xlink:href="#me3f9b4022a" y="117.761378874"/>
      </g>
     </g>
    </g>
    <g id="ytick_6">
     <g id="line2d_33">
      <g>
       <use style="stroke:#000000;stroke-width:0.5;" x="48.3" xlink:href="#m8d45281ad4" y="109.125613399"/>
      </g>
     </g>
     <g id="line2d_34">
      <g>
       <use style="stroke:#000000;stroke-width:0.5;" x="215.7" xlink:href="#me3f9b4022a" y="109.125613399"/>
      </g>
     </g>
    </g>
    <g id="ytick_7">
     <g id="line2d_35">
      <g>
       <use style="stroke:#000000;stroke-width:0.5;" x="48.3" xlink:href="#m8d45281ad4" y="102.4271933"/>
      </g>
     </g>
     <g id="line2d_36">
      <g>
       <use style="stroke:#000000;stroke-width:0.5;" x="215.7" xlink:href="#me3f9b4022a" y="102.4271933"/>
      </g>
     </g>
    </g>
    <g id="ytick_8">
     <g id="line2d_37">
      <g>
       <use style="stroke:#000000;stroke-width:0.5;" x="48.3" xlink:href="#m8d45281ad4" y="96.9541855735"/>
      </g>
     </g>
     <g id="line2d_38">
      <g>
       <use style="stroke:#000000;stroke-width:0.5;" x="215.7" xlink:href="#me3f9b4022a" y="96.9541855735"/>
      </g>
     </g>
    </g>
    <g id="ytick_9">
     <g id="line2d_39">
      <g>
       <use style="stroke:#000000;stroke-width:0.5;" x="48.3" xlink:href="#m8d45281ad4" y="92.3268234742"/>
      </g>
     </g>
     <g id="line2d_40">
      <g>
       <use style="stroke:#000000;stroke-width:0.5;" x="215.7" xlink:href="#me3f9b4022a" y="92.3268234742"/>
      </g>
     </g>
    </g>
    <g id="ytick_10">
     <g id="line2d_41">
      <g>
       <use style="stroke:#000000;stroke-width:0.5;" x="48.3" xlink:href="#m8d45281ad4" y="88.3184200991"/>
      </g>
     </g>
     <g id="line2d_42">
      <g>
       <use style="stroke:#000000;stroke-width:0.5;" x="215.7" xlink:href="#me3f9b4022a" y="88.3184200991"/>
      </g>
     </g>
    </g>
    <g id="ytick_11">
     <g id="line2d_43">
      <g>
       <use style="stroke:#000000;stroke-width:0.5;" x="48.3" xlink:href="#m8d45281ad4" y="84.7827577476"/>
      </g>
     </g>
     <g id="line2d_44">
      <g>
       <use style="stroke:#000000;stroke-width:0.5;" x="215.7" xlink:href="#me3f9b4022a" y="84.7827577476"/>
      </g>
     </g>
    </g>
    <g id="ytick_12">
     <g id="line2d_45">
      <g>
       <use style="stroke:#000000;stroke-width:0.5;" x="48.3" xlink:href="#m8d45281ad4" y="60.8128066997"/>
      </g>
     </g>
     <g id="line2d_46">
      <g>
       <use style="stroke:#000000;stroke-width:0.5;" x="215.7" xlink:href="#me3f9b4022a" y="60.8128066997"/>
      </g>
     </g>
    </g>
    <g id="ytick_13">
     <g id="line2d_47">
      <g>
       <use style="stroke:#000000;stroke-width:0.5;" x="48.3" xlink:href="#m8d45281ad4" y="48.6413788738"/>
      </g>
     </g>
     <g id="line2d_48">
      <g>
       <use style="stroke:#000000;stroke-width:0.5;" x="215.7" xlink:href="#me3f9b4022a" y="48.6413788738"/>
      </g>
     </g>
    </g>
    <g id="ytick_14">
     <g id="line2d_49">
      <g>
       <use style="stroke:#000000;stroke-width:0.5;" x="48.3" xlink:href="#m8d45281ad4" y="40.0056133994"/>
      </g>
     </g>
     <g id="line2d_50">
      <g>
       <use style="stroke:#000000;stroke-width:0.5;" x="215.7" xlink:href="#me3f9b4022a" y="40.0056133994"/>
      </g>
     </g>
    </g>
    <g id="ytick_15">
     <g id="line2d_51">
      <g>
       <use style="stroke:#000000;stroke-width:0.5;" x="48.3" xlink:href="#m8d45281ad4" y="33.3071933003"/>
      </g>
     </g>
     <g id="line2d_52">
      <g>
       <use style="stroke:#000000;stroke-width:0.5;" x="215.7" xlink:href="#me3f9b4022a" y="33.3071933003"/>
      </g>
     </g>
    </g>
    <g id="ytick_16">
     <g id="line2d_53">
      <g>
       <use style="stroke:#000000;stroke-width:0.5;" x="48.3" xlink:href="#m8d45281ad4" y="27.8341855735"/>
      </g>
     </g>
     <g id="line2d_54">
      <g>
       <use style="stroke:#000000;stroke-width:0.5;" x="215.7" xlink:href="#me3f9b4022a" y="27.8341855735"/>
      </g>
     </g>
    </g>
    <g id="ytick_17">
     <g id="line2d_55">
      <g>
       <use style="stroke:#000000;stroke-width:0.5;" x="48.3" xlink:href="#m8d45281ad4" y="23.2068234742"/>
      </g>
     </g>
     <g id="line2d_56">
      <g>
       <use style="stroke:#000000;stroke-width:0.5;" x="215.7" xlink:href="#me3f9b4022a" y="23.2068234742"/>
      </g>
     </g>
    </g>
    <g id="ytick_18">
     <g id="line2d_57">
      <g>
       <use style="stroke:#000000;stroke-width:0.5;" x="48.3" xlink:href="#m8d45281ad4" y="19.1984200991"/>
      </g>
     </g>
     <g id="line2d_58">
      <g>
       <use style="stroke:#000000;stroke-width:0.5;" x="215.7" xlink:href="#me3f9b4022a" y="19.1984200991"/>
      </g>
     </g>
    </g>
    <g id="ytick_19">
     <g id="line2d_59">
      <g>
       <use style="stroke:#000000;stroke-width:0.5;" x="48.3" xlink:href="#m8d45281ad4" y="15.6627577476"/>
      </g>
     </g>
     <g id="line2d_60">
      <g>
       <use style="stroke:#000000;stroke-width:0.5;" x="215.7" xlink:href="#me3f9b4022a" y="15.6627577476"/>
      </g>
     </g>
    </g>
    <g id="text_7">
     <!-- Peak $\alpha_2$ -->
     <defs>
      <path d="
M56.2031 29.5938
L56.2031 25.2031
L14.8906 25.2031
Q15.4844 15.9219 20.4844 11.0625
Q25.4844 6.20312 34.4219 6.20312
Q39.5938 6.20312 44.4531 7.46875
Q49.3125 8.73438 54.1094 11.2812
L54.1094 2.78125
Q49.2656 0.734375 44.1875 -0.34375
Q39.1094 -1.42188 33.8906 -1.42188
Q20.7969 -1.42188 13.1562 6.1875
Q5.51562 13.8125 5.51562 26.8125
Q5.51562 40.2344 12.7656 48.1094
Q20.0156 56 32.3281 56
Q43.3594 56 49.7812 48.8906
Q56.2031 41.7969 56.2031 29.5938
M47.2188 32.2344
Q47.125 39.5938 43.0938 43.9844
Q39.0625 48.3906 32.4219 48.3906
Q24.9062 48.3906 20.3906 44.1406
Q15.875 39.8906 15.1875 32.1719
z
" id="BitstreamVeraSans-Roman-65"/>
      <path d="
M20.125 -1.125
Q15.375 -1.125 11.6875 1.125
Q8.01562 3.375 6 7.17188
Q4 10.9844 4 15.8281
Q4 22.6094 7.78125 29.25
Q11.5781 35.8906 17.8438 40.0312
Q24.125 44.1875 31 44.1875
Q36.0781 44.1875 39.9375 41.5312
Q43.7969 38.875 45.7969 34.4531
Q47.7969 30.0312 47.7969 25
L47.9062 18.3125
Q51.3125 23.0469 53.6875 28.1406
Q56.0625 33.25 57.3281 38.7188
Q57.5156 39.3125 58.1094 39.3125
L59.2812 39.3125
Q60.2031 39.3125 60.2031 38.375
Q60.2031 38.2812 60.1094 38.0938
Q58.9375 33.5 57.1719 29.2656
Q55.4219 25.0469 53.0469 21.0938
Q50.6875 17.1406 47.9062 13.9219
Q47.9062 1.51562 50.7812 1.51562
Q52.6406 1.51562 53.8281 2.60938
Q55.0312 3.71875 55.9375 5.32812
Q56.8438 6.9375 57.0781 6.98438
L58.2969 6.98438
Q59.0781 6.98438 59.0781 6
Q59.0781 3.51562 56.2188 1.1875
Q53.375 -1.125 50.5938 -1.125
Q46.9688 -1.125 44.5781 1.21875
Q42.1875 3.5625 41.3125 7.32812
Q36.625 3.32812 31.1562 1.09375
Q25.6875 -1.125 20.125 -1.125
M20.3125 1.51562
Q31 1.51562 40.8281 10.2969
Q40.7656 10.8906 40.6719 11.7344
Q40.5781 12.5938 40.5781 12.7031
L40.5781 23.4844
Q40.5781 41.6094 30.8125 41.6094
Q24.9531 41.6094 20.5469 36.5938
Q16.1562 31.5938 13.9375 24.625
Q11.7188 17.6719 11.7188 11.9219
Q11.7188 7.5625 13.9375 4.53125
Q16.1562 1.51562 20.3125 1.51562" id="Cmmi10-ae"/>
      <path d="
M4.98438 0
L4.98438 2.6875
Q4.98438 2.9375 5.17188 3.21875
L20.7031 20.4062
Q24.2188 24.2188 26.4062 26.7969
Q28.6094 29.3906 30.75 32.7656
Q32.9062 36.1406 34.1562 39.625
Q35.4062 43.1094 35.4062 47.0156
Q35.4062 51.125 33.8906 54.8594
Q32.375 58.5938 29.375 60.8438
Q26.375 63.0938 22.125 63.0938
Q17.7812 63.0938 14.3125 60.4688
Q10.8438 57.8594 9.42188 53.7188
Q9.8125 53.8125 10.5 53.8125
Q12.75 53.8125 14.3281 52.2969
Q15.9219 50.7812 15.9219 48.3906
Q15.9219 46.0938 14.3281 44.5
Q12.75 42.9219 10.5 42.9219
Q8.15625 42.9219 6.5625 44.5469
Q4.98438 46.1875 4.98438 48.3906
Q4.98438 52.1562 6.39062 55.4375
Q7.8125 58.7344 10.4688 61.2969
Q13.1406 63.875 16.4844 65.2344
Q19.8281 66.6094 23.5781 66.6094
Q29.2969 66.6094 34.2188 64.1875
Q39.1562 61.7656 42.0312 57.3438
Q44.9219 52.9375 44.9219 47.0156
Q44.9219 42.6719 43.0156 38.7656
Q41.1094 34.8594 38.125 31.6562
Q35.1562 28.4688 30.5156 24.4062
Q25.875 20.3594 24.4219 19
L13.0938 8.10938
L22.7031 8.10938
Q29.7812 8.10938 34.5469 8.21875
Q39.3125 8.34375 39.5938 8.59375
Q40.7656 9.85938 42 17.8281
L44.9219 17.8281
L42.0938 0
z
" id="Cmr10-32"/>
     </defs>
     <g transform="translate(14.8 100.97)rotate(-90.0)scale(0.1 -0.1)">
      <use transform="translate(0.0 0.015625)" xlink:href="#BitstreamVeraSans-Roman-50"/>
      <use transform="translate(60.302734375 0.015625)" xlink:href="#BitstreamVeraSans-Roman-65"/>
      <use transform="translate(121.826171875 0.015625)" xlink:href="#BitstreamVeraSans-Roman-61"/>
      <use transform="translate(183.10546875 0.015625)" xlink:href="#BitstreamVeraSans-Roman-6b"/>
      <use transform="translate(241.015625 0.015625)" xlink:href="#BitstreamVeraSans-Roman-20"/>
      <use transform="translate(272.802734375 0.015625)" xlink:href="#Cmmi10-ae"/>
      <use transform="translate(336.71875 -25.493750000000006)scale(0.7)" xlink:href="#Cmr10-32"/>
     </g>
    </g>
   </g>
  </g>
 </g>
 <defs>
  <clipPath id="p30cb117759">
   <rect height="138.24" width="167.4" x="48.3" y="12.5"/>
  </clipPath>
 </defs>
</svg>
