<?xml version="1.0" encoding="utf-8" standalone="no"?>
<!DOCTYPE svg PUBLIC "-//W3C//DTD SVG 1.1//EN"
  "http://www.w3.org/Graphics/SVG/1.1/DTD/svg11.dtd">
<!-- Created with matplotlib (http://matplotlib.org/) -->
<svg height="232pt" version="1.1" viewBox="0 0 282 232" width="282pt" xmlns="http://www.w3.org/2000/svg" xmlns:xlink="http://www.w3.org/1999/xlink">
 <defs>
  <style type="text/css">
*{stroke-linecap:butt;stroke-linejoin:round;}
  </style>
 </defs>
 <g id="figure_1">
  <g id="patch_1">
   <path d="
M0 232.634
L282.547 232.634
L282.547 0
L0 0
z
" style="fill:#ffffff;"/>
  </g>
  <g id="axes_1">
   <g id="patch_2">
    <path d="
M42.4966 194.12
L265.697 194.12
L265.697 21.32
L42.4966 21.32
z
" style="fill:#ffffff;"/>
   </g>
   <g id="line2d_1">
    <path clip-path="url(#p1b866bbbbd)" d="
M42.4966 194.12
L44.7511 194.12
L47.0057 194.12
L49.2602 194.12
L51.5147 194.12
L53.7693 194.12
L56.0238 194.12
L58.2784 194.12
L60.5329 194.12
L62.7875 194.12
L65.042 194.12
L67.2966 194.12
L69.5511 194.12
L71.8057 194.12
L74.0602 194.12
L76.3147 194.12
L78.5693 194.12
L80.8238 194.12
L83.0784 194.12
L85.3329 194.12
L87.5875 194.12
L89.842 194.12
L92.0966 194.12
L94.3511 194.12
L96.6057 194.12
L98.8602 194.12
L101.115 194.12
L103.369 193.509
L105.624 194.12
L107.878 194.12
L110.133 194.12
L112.387 194.12
L114.642 194.12
L116.897 194.12
L119.151 194.12
L121.406 192.898
L123.66 192.287
L125.915 193.509
L128.169 187.399
L130.424 186.177
L132.678 175.791
L134.933 179.457
L137.187 166.015
L139.442 145.853
L141.697 129.968
L143.951 125.691
L146.206 97.5865
L148.46 76.2025
L150.715 42.5991
L152.969 56.0405
L155.224 50.5417
L157.478 34.0455
L159.733 56.6514
L161.987 74.9806
L164.242 90.2549
L166.497 123.247
L168.751 145.242
L171.006 151.352
L173.26 164.793
L175.515 178.235
L177.769 173.347
L180.024 174.569
L182.278 177.624
L184.533 181.29
L186.787 180.068
L189.042 174.569
L191.297 169.07
L193.551 167.237
L195.806 150.741
L198.06 120.192
L200.315 114.083
L202.569 111.639
L204.824 109.806
L207.078 107.973
L209.333 128.746
L211.587 148.297
L213.842 153.185
L216.097 177.013
L218.351 176.402
L220.606 183.733
L222.86 190.454
L225.115 194.12
L227.369 193.509
L229.624 194.12
L231.878 194.12
L234.133 194.12
L236.387 194.12
L238.642 194.12
L240.897 194.12
L243.151 194.12
L245.406 194.12
L247.66 194.12
L249.915 194.12
L252.169 194.12
L254.424 194.12
L256.678 194.12
L258.933 194.12
L261.187 194.12
L263.442 194.12
L265.697 194.12
L265.697 194.12" style="fill:none;stroke:#4daf4a;stroke-linecap:square;stroke-width:2.0;"/>
   </g>
   <g id="line2d_2">
    <path clip-path="url(#p1b866bbbbd)" d="
M42.4966 194.12
L44.7511 194.12
L47.0057 194.12
L49.2602 194.12
L51.5147 194.12
L53.7693 194.12
L56.0238 194.12
L58.2784 194.12
L60.5329 194.12
L62.7875 194.12
L65.042 194.12
L67.2966 194.12
L69.5511 194.12
L71.8057 194.12
L74.0602 194.12
L76.3147 194.12
L78.5693 194.12
L80.8238 194.12
L83.0784 194.12
L85.3329 194.12
L87.5875 194.12
L89.842 194.12
L92.0966 194.12
L94.3511 194.12
L96.6057 194.12
L98.8602 194.12
L101.115 194.12
L103.369 194.12
L105.624 194.12
L107.878 194.12
L110.133 194.12
L112.387 192.898
L114.642 194.12
L116.897 194.12
L119.151 194.12
L121.406 194.12
L123.66 191.676
L125.915 188.01
L128.169 192.898
L130.424 190.454
L132.678 186.788
L134.933 178.235
L137.187 178.235
L139.442 162.349
L141.697 151.352
L143.951 114.694
L146.206 117.138
L148.46 79.2574
L150.715 65.816
L152.969 67.0379
L155.224 57.2624
L157.478 30.3797
L159.733 23.048
L161.987 32.8235
L164.242 69.4818
L166.497 101.252
L168.751 136.689
L171.006 158.684
L173.26 175.791
L175.515 180.679
L177.769 169.681
L180.024 177.013
L182.278 169.681
L184.533 174.569
L186.787 181.901
L189.042 166.015
L191.297 163.571
L193.551 168.459
L195.806 159.906
L198.06 145.242
L200.315 134.245
L202.569 111.028
L204.824 106.14
L207.078 120.803
L209.333 117.138
L211.587 139.133
L213.842 162.349
L216.097 150.13
L218.351 180.679
L220.606 179.457
L222.86 186.788
L225.115 192.898
L227.369 194.12
L229.624 194.12
L231.878 194.12
L234.133 194.12
L236.387 194.12
L238.642 194.12
L240.897 194.12
L243.151 194.12
L245.406 194.12
L247.66 194.12
L249.915 194.12
L252.169 194.12
L254.424 194.12
L256.678 194.12
L258.933 194.12
L261.187 194.12
L263.442 194.12
L265.697 194.12
L265.697 194.12" style="fill:none;stroke:#994ea2;stroke-linecap:square;stroke-width:2.0;"/>
   </g>
   <g id="line2d_3">
    <path clip-path="url(#p1b866bbbbd)" d="
M42.4966 194.12
L44.7511 194.12
L47.0057 194.12
L49.2602 194.12
L51.5147 194.12
L53.7693 194.12
L56.0238 194.12
L58.2784 194.12
L60.5329 194.12
L62.7875 194.12
L65.042 194.12
L67.2966 194.12
L69.5511 194.12
L71.8057 194.12
L74.0602 194.12
L76.3147 194.12
L78.5693 194.12
L80.8238 194.12
L83.0784 194.12
L85.3329 194.12
L87.5875 194.12
L89.842 194.12
L92.0966 194.12
L94.3511 194.12
L96.6057 194.12
L98.8602 194.12
L101.115 194.12
L103.369 194.12
L105.624 194.12
L107.878 194.12
L110.133 194.12
L112.387 194.12
L114.642 194.12
L116.897 194.12
L119.151 192.211
L121.406 192.211
L123.66 194.12
L125.915 190.301
L128.169 192.211
L130.424 184.574
L132.678 176.936
L134.933 169.299
L137.187 161.662
L139.442 152.116
L141.697 144.479
L143.951 127.295
L146.206 96.7464
L148.46 66.1979
L150.715 29.9214
L152.969 50.9236
L155.224 22.2843
L157.478 58.5607
L159.733 43.2864
L161.987 106.293
L164.242 98.6557
L166.497 123.476
L168.751 134.932
L171.006 161.662
L173.26 165.481
L175.515 171.209
L177.769 165.481
L180.024 184.574
L182.278 175.027
L184.533 173.118
L186.787 186.483
L189.042 171.209
L191.297 171.209
L193.551 175.027
L195.806 161.662
L198.06 142.569
L200.315 133.023
L202.569 104.384
L204.824 134.932
L207.078 104.384
L209.333 113.93
L211.587 136.841
L213.842 140.66
L216.097 161.662
L218.351 176.936
L220.606 178.846
L222.86 190.301
L225.115 190.301
L227.369 192.211
L229.624 192.211
L231.878 192.211
L234.133 194.12
L236.387 194.12
L238.642 194.12
L240.897 194.12
L243.151 194.12
L245.406 194.12
L247.66 194.12
L249.915 194.12
L252.169 194.12
L254.424 194.12
L256.678 194.12
L258.933 194.12
L261.187 194.12
L263.442 194.12
L265.697 194.12
L265.697 194.12" style="fill:none;stroke:#ff7f00;stroke-linecap:square;stroke-width:2.0;"/>
   </g>
   <g id="patch_3">
    <path d="
M265.697 194.12
L265.697 21.32" style="fill:none;stroke:#000000;stroke-linecap:square;stroke-linejoin:miter;"/>
   </g>
   <g id="patch_4">
    <path d="
M42.4966 21.32
L265.697 21.32" style="fill:none;stroke:#000000;stroke-linecap:square;stroke-linejoin:miter;"/>
   </g>
   <g id="patch_5">
    <path d="
M42.4966 194.12
L265.697 194.12" style="fill:none;stroke:#000000;stroke-linecap:square;stroke-linejoin:miter;"/>
   </g>
   <g id="patch_6">
    <path d="
M42.4966 194.12
L42.4966 21.32" style="fill:none;stroke:#000000;stroke-linecap:square;stroke-linejoin:miter;"/>
   </g>
   <g id="matplotlib.axis_1">
    <g id="xtick_1">
     <g id="line2d_4">
      <defs>
       <path d="
M0 0
L0 -4" id="mc7db9fdffb" style="stroke:#000000;stroke-width:0.5;"/>
      </defs>
      <g>
       <use style="stroke:#000000;stroke-width:0.5;" x="42.4965625" xlink:href="#mc7db9fdffb" y="194.12"/>
      </g>
     </g>
     <g id="line2d_5">
      <defs>
       <path d="
M0 0
L0 4" id="m5a7d422ac3" style="stroke:#000000;stroke-width:0.5;"/>
      </defs>
      <g>
       <use style="stroke:#000000;stroke-width:0.5;" x="42.4965625" xlink:href="#m5a7d422ac3" y="21.32"/>
      </g>
     </g>
     <g id="text_1">
      <!-- $\mathdefault{10^{-6}}$ -->
      <defs>
       <path d="
M33.0156 40.375
Q26.375 40.375 22.4844 35.8281
Q18.6094 31.2969 18.6094 23.3906
Q18.6094 15.5312 22.4844 10.9531
Q26.375 6.39062 33.0156 6.39062
Q39.6562 6.39062 43.5312 10.9531
Q47.4062 15.5312 47.4062 23.3906
Q47.4062 31.2969 43.5312 35.8281
Q39.6562 40.375 33.0156 40.375
M52.5938 71.2969
L52.5938 62.3125
Q48.875 64.0625 45.0938 64.9844
Q41.3125 65.9219 37.5938 65.9219
Q27.8281 65.9219 22.6719 59.3281
Q17.5312 52.7344 16.7969 39.4062
Q19.6719 43.6562 24.0156 45.9219
Q28.375 48.1875 33.5938 48.1875
Q44.5781 48.1875 50.9531 41.5156
Q57.3281 34.8594 57.3281 23.3906
Q57.3281 12.1562 50.6875 5.35938
Q44.0469 -1.42188 33.0156 -1.42188
Q20.3594 -1.42188 13.6719 8.26562
Q6.98438 17.9688 6.98438 36.375
Q6.98438 53.6562 15.1875 63.9375
Q23.3906 74.2188 37.2031 74.2188
Q40.9219 74.2188 44.7031 73.4844
Q48.4844 72.75 52.5938 71.2969" id="BitstreamVeraSans-Roman-36"/>
       <path d="
M4.89062 31.3906
L31.2031 31.3906
L31.2031 23.3906
L4.89062 23.3906
z
" id="BitstreamVeraSans-Roman-2d"/>
       <path d="
M12.4062 8.29688
L28.5156 8.29688
L28.5156 63.9219
L10.9844 60.4062
L10.9844 69.3906
L28.4219 72.9062
L38.2812 72.9062
L38.2812 8.29688
L54.3906 8.29688
L54.3906 0
L12.4062 0
z
" id="BitstreamVeraSans-Roman-31"/>
       <path d="
M31.7812 66.4062
Q24.1719 66.4062 20.3281 58.9062
Q16.5 51.4219 16.5 36.375
Q16.5 21.3906 20.3281 13.8906
Q24.1719 6.39062 31.7812 6.39062
Q39.4531 6.39062 43.2812 13.8906
Q47.125 21.3906 47.125 36.375
Q47.125 51.4219 43.2812 58.9062
Q39.4531 66.4062 31.7812 66.4062
M31.7812 74.2188
Q44.0469 74.2188 50.5156 64.5156
Q56.9844 54.8281 56.9844 36.375
Q56.9844 17.9688 50.5156 8.26562
Q44.0469 -1.42188 31.7812 -1.42188
Q19.5312 -1.42188 13.0625 8.26562
Q6.59375 17.9688 6.59375 36.375
Q6.59375 54.8281 13.0625 64.5156
Q19.5312 74.2188 31.7812 74.2188" id="BitstreamVeraSans-Roman-30"/>
      </defs>
      <g transform="translate(31.5465625 206.7403125)scale(0.1 -0.1)">
       <use transform="translate(0.0 0.546875)" xlink:href="#BitstreamVeraSans-Roman-31"/>
       <use transform="translate(63.623046875 0.546875)" xlink:href="#BitstreamVeraSans-Roman-30"/>
       <use transform="translate(127.24609375 53.046875)scale(0.7)" xlink:href="#BitstreamVeraSans-Roman-2d"/>
       <use transform="translate(152.5048828125 53.046875)scale(0.7)" xlink:href="#BitstreamVeraSans-Roman-36"/>
      </g>
     </g>
    </g>
    <g id="xtick_2">
     <g id="line2d_6">
      <g>
       <use style="stroke:#000000;stroke-width:0.5;" x="74.3822767857" xlink:href="#mc7db9fdffb" y="194.12"/>
      </g>
     </g>
     <g id="line2d_7">
      <g>
       <use style="stroke:#000000;stroke-width:0.5;" x="74.3822767857" xlink:href="#m5a7d422ac3" y="21.32"/>
      </g>
     </g>
     <g id="text_2">
      <!-- $\mathdefault{10^{-5}}$ -->
      <defs>
       <path d="
M10.7969 72.9062
L49.5156 72.9062
L49.5156 64.5938
L19.8281 64.5938
L19.8281 46.7344
Q21.9688 47.4688 24.1094 47.8281
Q26.2656 48.1875 28.4219 48.1875
Q40.625 48.1875 47.75 41.5
Q54.8906 34.8125 54.8906 23.3906
Q54.8906 11.625 47.5625 5.09375
Q40.2344 -1.42188 26.9062 -1.42188
Q22.3125 -1.42188 17.5469 -0.640625
Q12.7969 0.140625 7.71875 1.70312
L7.71875 11.625
Q12.1094 9.23438 16.7969 8.0625
Q21.4844 6.89062 26.7031 6.89062
Q35.1562 6.89062 40.0781 11.3281
Q45.0156 15.7656 45.0156 23.3906
Q45.0156 31 40.0781 35.4375
Q35.1562 39.8906 26.7031 39.8906
Q22.75 39.8906 18.8125 39.0156
Q14.8906 38.1406 10.7969 36.2812
z
" id="BitstreamVeraSans-Roman-35"/>
      </defs>
      <g transform="translate(63.4322767857 206.6403125)scale(0.1 -0.1)">
       <use transform="translate(0.0 0.46562500000000284)" xlink:href="#BitstreamVeraSans-Roman-31"/>
       <use transform="translate(63.623046875 0.46562500000000284)" xlink:href="#BitstreamVeraSans-Roman-30"/>
       <use transform="translate(127.24609375 52.965625)scale(0.7)" xlink:href="#BitstreamVeraSans-Roman-2d"/>
       <use transform="translate(152.5048828125 52.965625)scale(0.7)" xlink:href="#BitstreamVeraSans-Roman-35"/>
      </g>
     </g>
    </g>
    <g id="xtick_3">
     <g id="line2d_8">
      <g>
       <use style="stroke:#000000;stroke-width:0.5;" x="106.267991071" xlink:href="#mc7db9fdffb" y="194.12"/>
      </g>
     </g>
     <g id="line2d_9">
      <g>
       <use style="stroke:#000000;stroke-width:0.5;" x="106.267991071" xlink:href="#m5a7d422ac3" y="21.32"/>
      </g>
     </g>
     <g id="text_3">
      <!-- $\mathdefault{10^{-4}}$ -->
      <defs>
       <path d="
M37.7969 64.3125
L12.8906 25.3906
L37.7969 25.3906
z

M35.2031 72.9062
L47.6094 72.9062
L47.6094 25.3906
L58.0156 25.3906
L58.0156 17.1875
L47.6094 17.1875
L47.6094 0
L37.7969 0
L37.7969 17.1875
L4.89062 17.1875
L4.89062 26.7031
z
" id="BitstreamVeraSans-Roman-34"/>
      </defs>
      <g transform="translate(95.3179910714 206.6403125)scale(0.1 -0.1)">
       <use transform="translate(0.0 0.46562500000000284)" xlink:href="#BitstreamVeraSans-Roman-31"/>
       <use transform="translate(63.623046875 0.46562500000000284)" xlink:href="#BitstreamVeraSans-Roman-30"/>
       <use transform="translate(127.24609375 52.965625)scale(0.7)" xlink:href="#BitstreamVeraSans-Roman-2d"/>
       <use transform="translate(152.5048828125 52.965625)scale(0.7)" xlink:href="#BitstreamVeraSans-Roman-34"/>
      </g>
     </g>
    </g>
    <g id="xtick_4">
     <g id="line2d_10">
      <g>
       <use style="stroke:#000000;stroke-width:0.5;" x="138.153705357" xlink:href="#mc7db9fdffb" y="194.12"/>
      </g>
     </g>
     <g id="line2d_11">
      <g>
       <use style="stroke:#000000;stroke-width:0.5;" x="138.153705357" xlink:href="#m5a7d422ac3" y="21.32"/>
      </g>
     </g>
     <g id="text_4">
      <!-- $\mathdefault{10^{-3}}$ -->
      <defs>
       <path d="
M40.5781 39.3125
Q47.6562 37.7969 51.625 33
Q55.6094 28.2188 55.6094 21.1875
Q55.6094 10.4062 48.1875 4.48438
Q40.7656 -1.42188 27.0938 -1.42188
Q22.5156 -1.42188 17.6562 -0.515625
Q12.7969 0.390625 7.625 2.20312
L7.625 11.7188
Q11.7188 9.32812 16.5938 8.10938
Q21.4844 6.89062 26.8125 6.89062
Q36.0781 6.89062 40.9375 10.5469
Q45.7969 14.2031 45.7969 21.1875
Q45.7969 27.6406 41.2812 31.2656
Q36.7656 34.9062 28.7188 34.9062
L20.2188 34.9062
L20.2188 43.0156
L29.1094 43.0156
Q36.375 43.0156 40.2344 45.9219
Q44.0938 48.8281 44.0938 54.2969
Q44.0938 59.9062 40.1094 62.9062
Q36.1406 65.9219 28.7188 65.9219
Q24.6562 65.9219 20.0156 65.0312
Q15.375 64.1562 9.8125 62.3125
L9.8125 71.0938
Q15.4375 72.6562 20.3438 73.4375
Q25.25 74.2188 29.5938 74.2188
Q40.8281 74.2188 47.3594 69.1094
Q53.9062 64.0156 53.9062 55.3281
Q53.9062 49.2656 50.4375 45.0938
Q46.9688 40.9219 40.5781 39.3125" id="BitstreamVeraSans-Roman-33"/>
      </defs>
      <g transform="translate(127.203705357 206.7403125)scale(0.1 -0.1)">
       <use transform="translate(0.0 0.546875)" xlink:href="#BitstreamVeraSans-Roman-31"/>
       <use transform="translate(63.623046875 0.546875)" xlink:href="#BitstreamVeraSans-Roman-30"/>
       <use transform="translate(127.24609375 53.046875)scale(0.7)" xlink:href="#BitstreamVeraSans-Roman-2d"/>
       <use transform="translate(152.5048828125 53.046875)scale(0.7)" xlink:href="#BitstreamVeraSans-Roman-33"/>
      </g>
     </g>
    </g>
    <g id="xtick_5">
     <g id="line2d_12">
      <g>
       <use style="stroke:#000000;stroke-width:0.5;" x="170.039419643" xlink:href="#mc7db9fdffb" y="194.12"/>
      </g>
     </g>
     <g id="line2d_13">
      <g>
       <use style="stroke:#000000;stroke-width:0.5;" x="170.039419643" xlink:href="#m5a7d422ac3" y="21.32"/>
      </g>
     </g>
     <g id="text_5">
      <!-- $\mathdefault{10^{-2}}$ -->
      <defs>
       <path d="
M19.1875 8.29688
L53.6094 8.29688
L53.6094 0
L7.32812 0
L7.32812 8.29688
Q12.9375 14.1094 22.625 23.8906
Q32.3281 33.6875 34.8125 36.5312
Q39.5469 41.8438 41.4219 45.5312
Q43.3125 49.2188 43.3125 52.7812
Q43.3125 58.5938 39.2344 62.25
Q35.1562 65.9219 28.6094 65.9219
Q23.9688 65.9219 18.8125 64.3125
Q13.6719 62.7031 7.8125 59.4219
L7.8125 69.3906
Q13.7656 71.7812 18.9375 73
Q24.125 74.2188 28.4219 74.2188
Q39.75 74.2188 46.4844 68.5469
Q53.2188 62.8906 53.2188 53.4219
Q53.2188 48.9219 51.5312 44.8906
Q49.8594 40.875 45.4062 35.4062
Q44.1875 33.9844 37.6406 27.2188
Q31.1094 20.4531 19.1875 8.29688" id="BitstreamVeraSans-Roman-32"/>
      </defs>
      <g transform="translate(159.089419643 206.7403125)scale(0.1 -0.1)">
       <use transform="translate(0.0 0.546875)" xlink:href="#BitstreamVeraSans-Roman-31"/>
       <use transform="translate(63.623046875 0.546875)" xlink:href="#BitstreamVeraSans-Roman-30"/>
       <use transform="translate(127.24609375 53.046875)scale(0.7)" xlink:href="#BitstreamVeraSans-Roman-2d"/>
       <use transform="translate(152.5048828125 53.046875)scale(0.7)" xlink:href="#BitstreamVeraSans-Roman-32"/>
      </g>
     </g>
    </g>
    <g id="xtick_6">
     <g id="line2d_14">
      <g>
       <use style="stroke:#000000;stroke-width:0.5;" x="201.925133929" xlink:href="#mc7db9fdffb" y="194.12"/>
      </g>
     </g>
     <g id="line2d_15">
      <g>
       <use style="stroke:#000000;stroke-width:0.5;" x="201.925133929" xlink:href="#m5a7d422ac3" y="21.32"/>
      </g>
     </g>
     <g id="text_6">
      <!-- $\mathdefault{10^{-1}}$ -->
      <g transform="translate(190.975133929 206.6403125)scale(0.1 -0.1)">
       <use transform="translate(0.0 0.46562500000000284)" xlink:href="#BitstreamVeraSans-Roman-31"/>
       <use transform="translate(63.623046875 0.46562500000000284)" xlink:href="#BitstreamVeraSans-Roman-30"/>
       <use transform="translate(127.24609375 52.965625)scale(0.7)" xlink:href="#BitstreamVeraSans-Roman-2d"/>
       <use transform="translate(152.5048828125 52.965625)scale(0.7)" xlink:href="#BitstreamVeraSans-Roman-31"/>
      </g>
     </g>
    </g>
    <g id="xtick_7">
     <g id="line2d_16">
      <g>
       <use style="stroke:#000000;stroke-width:0.5;" x="233.810848214" xlink:href="#mc7db9fdffb" y="194.12"/>
      </g>
     </g>
     <g id="line2d_17">
      <g>
       <use style="stroke:#000000;stroke-width:0.5;" x="233.810848214" xlink:href="#m5a7d422ac3" y="21.32"/>
      </g>
     </g>
     <g id="text_7">
      <!-- $\mathdefault{10^{0}}$ -->
      <g transform="translate(224.160848214 206.7403125)scale(0.1 -0.1)">
       <use transform="translate(0.0 0.546875)" xlink:href="#BitstreamVeraSans-Roman-31"/>
       <use transform="translate(63.623046875 0.546875)" xlink:href="#BitstreamVeraSans-Roman-30"/>
       <use transform="translate(127.24609375 53.046875)scale(0.7)" xlink:href="#BitstreamVeraSans-Roman-30"/>
      </g>
     </g>
    </g>
    <g id="xtick_8">
     <g id="line2d_18">
      <g>
       <use style="stroke:#000000;stroke-width:0.5;" x="265.6965625" xlink:href="#mc7db9fdffb" y="194.12"/>
      </g>
     </g>
     <g id="line2d_19">
      <g>
       <use style="stroke:#000000;stroke-width:0.5;" x="265.6965625" xlink:href="#m5a7d422ac3" y="21.32"/>
      </g>
     </g>
     <g id="text_8">
      <!-- $\mathdefault{10^{1}}$ -->
      <g transform="translate(256.0465625 206.6403125)scale(0.1 -0.1)">
       <use transform="translate(0.0 0.46562500000000284)" xlink:href="#BitstreamVeraSans-Roman-31"/>
       <use transform="translate(63.623046875 0.46562500000000284)" xlink:href="#BitstreamVeraSans-Roman-30"/>
       <use transform="translate(127.24609375 52.965625)scale(0.7)" xlink:href="#BitstreamVeraSans-Roman-31"/>
      </g>
     </g>
    </g>
    <g id="xtick_9">
     <g id="line2d_20">
      <defs>
       <path d="
M0 0
L0 -2" id="mc21db286a6" style="stroke:#000000;stroke-width:0.5;"/>
      </defs>
      <g>
       <use style="stroke:#000000;stroke-width:0.5;" x="52.0951189332" xlink:href="#mc21db286a6" y="194.12"/>
      </g>
     </g>
     <g id="line2d_21">
      <defs>
       <path d="
M0 0
L0 2" id="ma9c915e141" style="stroke:#000000;stroke-width:0.5;"/>
      </defs>
      <g>
       <use style="stroke:#000000;stroke-width:0.5;" x="52.0951189332" xlink:href="#ma9c915e141" y="21.32"/>
      </g>
     </g>
    </g>
    <g id="xtick_10">
     <g id="line2d_22">
      <g>
       <use style="stroke:#000000;stroke-width:0.5;" x="57.7099145076" xlink:href="#mc21db286a6" y="194.12"/>
      </g>
     </g>
     <g id="line2d_23">
      <g>
       <use style="stroke:#000000;stroke-width:0.5;" x="57.7099145076" xlink:href="#ma9c915e141" y="21.32"/>
      </g>
     </g>
    </g>
    <g id="xtick_11">
     <g id="line2d_24">
      <g>
       <use style="stroke:#000000;stroke-width:0.5;" x="61.6936753663" xlink:href="#mc21db286a6" y="194.12"/>
      </g>
     </g>
     <g id="line2d_25">
      <g>
       <use style="stroke:#000000;stroke-width:0.5;" x="61.6936753663" xlink:href="#ma9c915e141" y="21.32"/>
      </g>
     </g>
    </g>
    <g id="xtick_12">
     <g id="line2d_26">
      <g>
       <use style="stroke:#000000;stroke-width:0.5;" x="64.7837203525" xlink:href="#mc21db286a6" y="194.12"/>
      </g>
     </g>
     <g id="line2d_27">
      <g>
       <use style="stroke:#000000;stroke-width:0.5;" x="64.7837203525" xlink:href="#ma9c915e141" y="21.32"/>
      </g>
     </g>
    </g>
    <g id="xtick_13">
     <g id="line2d_28">
      <g>
       <use style="stroke:#000000;stroke-width:0.5;" x="67.3084709408" xlink:href="#mc21db286a6" y="194.12"/>
      </g>
     </g>
     <g id="line2d_29">
      <g>
       <use style="stroke:#000000;stroke-width:0.5;" x="67.3084709408" xlink:href="#ma9c915e141" y="21.32"/>
      </g>
     </g>
    </g>
    <g id="xtick_14">
     <g id="line2d_30">
      <g>
       <use style="stroke:#000000;stroke-width:0.5;" x="69.4431171473" xlink:href="#mc21db286a6" y="194.12"/>
      </g>
     </g>
     <g id="line2d_31">
      <g>
       <use style="stroke:#000000;stroke-width:0.5;" x="69.4431171473" xlink:href="#ma9c915e141" y="21.32"/>
      </g>
     </g>
    </g>
    <g id="xtick_15">
     <g id="line2d_32">
      <g>
       <use style="stroke:#000000;stroke-width:0.5;" x="71.2922317995" xlink:href="#mc21db286a6" y="194.12"/>
      </g>
     </g>
     <g id="line2d_33">
      <g>
       <use style="stroke:#000000;stroke-width:0.5;" x="71.2922317995" xlink:href="#ma9c915e141" y="21.32"/>
      </g>
     </g>
    </g>
    <g id="xtick_16">
     <g id="line2d_34">
      <g>
       <use style="stroke:#000000;stroke-width:0.5;" x="72.9232665153" xlink:href="#mc21db286a6" y="194.12"/>
      </g>
     </g>
     <g id="line2d_35">
      <g>
       <use style="stroke:#000000;stroke-width:0.5;" x="72.9232665153" xlink:href="#ma9c915e141" y="21.32"/>
      </g>
     </g>
    </g>
    <g id="xtick_17">
     <g id="line2d_36">
      <g>
       <use style="stroke:#000000;stroke-width:0.5;" x="83.9808332189" xlink:href="#mc21db286a6" y="194.12"/>
      </g>
     </g>
     <g id="line2d_37">
      <g>
       <use style="stroke:#000000;stroke-width:0.5;" x="83.9808332189" xlink:href="#ma9c915e141" y="21.32"/>
      </g>
     </g>
    </g>
    <g id="xtick_18">
     <g id="line2d_38">
      <g>
       <use style="stroke:#000000;stroke-width:0.5;" x="89.5956287933" xlink:href="#mc21db286a6" y="194.12"/>
      </g>
     </g>
     <g id="line2d_39">
      <g>
       <use style="stroke:#000000;stroke-width:0.5;" x="89.5956287933" xlink:href="#ma9c915e141" y="21.32"/>
      </g>
     </g>
    </g>
    <g id="xtick_19">
     <g id="line2d_40">
      <g>
       <use style="stroke:#000000;stroke-width:0.5;" x="93.5793896521" xlink:href="#mc21db286a6" y="194.12"/>
      </g>
     </g>
     <g id="line2d_41">
      <g>
       <use style="stroke:#000000;stroke-width:0.5;" x="93.5793896521" xlink:href="#ma9c915e141" y="21.32"/>
      </g>
     </g>
    </g>
    <g id="xtick_20">
     <g id="line2d_42">
      <g>
       <use style="stroke:#000000;stroke-width:0.5;" x="96.6694346383" xlink:href="#mc21db286a6" y="194.12"/>
      </g>
     </g>
     <g id="line2d_43">
      <g>
       <use style="stroke:#000000;stroke-width:0.5;" x="96.6694346383" xlink:href="#ma9c915e141" y="21.32"/>
      </g>
     </g>
    </g>
    <g id="xtick_21">
     <g id="line2d_44">
      <g>
       <use style="stroke:#000000;stroke-width:0.5;" x="99.1941852265" xlink:href="#mc21db286a6" y="194.12"/>
      </g>
     </g>
     <g id="line2d_45">
      <g>
       <use style="stroke:#000000;stroke-width:0.5;" x="99.1941852265" xlink:href="#ma9c915e141" y="21.32"/>
      </g>
     </g>
    </g>
    <g id="xtick_22">
     <g id="line2d_46">
      <g>
       <use style="stroke:#000000;stroke-width:0.5;" x="101.328831433" xlink:href="#mc21db286a6" y="194.12"/>
      </g>
     </g>
     <g id="line2d_47">
      <g>
       <use style="stroke:#000000;stroke-width:0.5;" x="101.328831433" xlink:href="#ma9c915e141" y="21.32"/>
      </g>
     </g>
    </g>
    <g id="xtick_23">
     <g id="line2d_48">
      <g>
       <use style="stroke:#000000;stroke-width:0.5;" x="103.177946085" xlink:href="#mc21db286a6" y="194.12"/>
      </g>
     </g>
     <g id="line2d_49">
      <g>
       <use style="stroke:#000000;stroke-width:0.5;" x="103.177946085" xlink:href="#ma9c915e141" y="21.32"/>
      </g>
     </g>
    </g>
    <g id="xtick_24">
     <g id="line2d_50">
      <g>
       <use style="stroke:#000000;stroke-width:0.5;" x="104.808980801" xlink:href="#mc21db286a6" y="194.12"/>
      </g>
     </g>
     <g id="line2d_51">
      <g>
       <use style="stroke:#000000;stroke-width:0.5;" x="104.808980801" xlink:href="#ma9c915e141" y="21.32"/>
      </g>
     </g>
    </g>
    <g id="xtick_25">
     <g id="line2d_52">
      <g>
       <use style="stroke:#000000;stroke-width:0.5;" x="115.866547505" xlink:href="#mc21db286a6" y="194.12"/>
      </g>
     </g>
     <g id="line2d_53">
      <g>
       <use style="stroke:#000000;stroke-width:0.5;" x="115.866547505" xlink:href="#ma9c915e141" y="21.32"/>
      </g>
     </g>
    </g>
    <g id="xtick_26">
     <g id="line2d_54">
      <g>
       <use style="stroke:#000000;stroke-width:0.5;" x="121.481343079" xlink:href="#mc21db286a6" y="194.12"/>
      </g>
     </g>
     <g id="line2d_55">
      <g>
       <use style="stroke:#000000;stroke-width:0.5;" x="121.481343079" xlink:href="#ma9c915e141" y="21.32"/>
      </g>
     </g>
    </g>
    <g id="xtick_27">
     <g id="line2d_56">
      <g>
       <use style="stroke:#000000;stroke-width:0.5;" x="125.465103938" xlink:href="#mc21db286a6" y="194.12"/>
      </g>
     </g>
     <g id="line2d_57">
      <g>
       <use style="stroke:#000000;stroke-width:0.5;" x="125.465103938" xlink:href="#ma9c915e141" y="21.32"/>
      </g>
     </g>
    </g>
    <g id="xtick_28">
     <g id="line2d_58">
      <g>
       <use style="stroke:#000000;stroke-width:0.5;" x="128.555148924" xlink:href="#mc21db286a6" y="194.12"/>
      </g>
     </g>
     <g id="line2d_59">
      <g>
       <use style="stroke:#000000;stroke-width:0.5;" x="128.555148924" xlink:href="#ma9c915e141" y="21.32"/>
      </g>
     </g>
    </g>
    <g id="xtick_29">
     <g id="line2d_60">
      <g>
       <use style="stroke:#000000;stroke-width:0.5;" x="131.079899512" xlink:href="#mc21db286a6" y="194.12"/>
      </g>
     </g>
     <g id="line2d_61">
      <g>
       <use style="stroke:#000000;stroke-width:0.5;" x="131.079899512" xlink:href="#ma9c915e141" y="21.32"/>
      </g>
     </g>
    </g>
    <g id="xtick_30">
     <g id="line2d_62">
      <g>
       <use style="stroke:#000000;stroke-width:0.5;" x="133.214545719" xlink:href="#mc21db286a6" y="194.12"/>
      </g>
     </g>
     <g id="line2d_63">
      <g>
       <use style="stroke:#000000;stroke-width:0.5;" x="133.214545719" xlink:href="#ma9c915e141" y="21.32"/>
      </g>
     </g>
    </g>
    <g id="xtick_31">
     <g id="line2d_64">
      <g>
       <use style="stroke:#000000;stroke-width:0.5;" x="135.063660371" xlink:href="#mc21db286a6" y="194.12"/>
      </g>
     </g>
     <g id="line2d_65">
      <g>
       <use style="stroke:#000000;stroke-width:0.5;" x="135.063660371" xlink:href="#ma9c915e141" y="21.32"/>
      </g>
     </g>
    </g>
    <g id="xtick_32">
     <g id="line2d_66">
      <g>
       <use style="stroke:#000000;stroke-width:0.5;" x="136.694695087" xlink:href="#mc21db286a6" y="194.12"/>
      </g>
     </g>
     <g id="line2d_67">
      <g>
       <use style="stroke:#000000;stroke-width:0.5;" x="136.694695087" xlink:href="#ma9c915e141" y="21.32"/>
      </g>
     </g>
    </g>
    <g id="xtick_33">
     <g id="line2d_68">
      <g>
       <use style="stroke:#000000;stroke-width:0.5;" x="147.75226179" xlink:href="#mc21db286a6" y="194.12"/>
      </g>
     </g>
     <g id="line2d_69">
      <g>
       <use style="stroke:#000000;stroke-width:0.5;" x="147.75226179" xlink:href="#ma9c915e141" y="21.32"/>
      </g>
     </g>
    </g>
    <g id="xtick_34">
     <g id="line2d_70">
      <g>
       <use style="stroke:#000000;stroke-width:0.5;" x="153.367057365" xlink:href="#mc21db286a6" y="194.12"/>
      </g>
     </g>
     <g id="line2d_71">
      <g>
       <use style="stroke:#000000;stroke-width:0.5;" x="153.367057365" xlink:href="#ma9c915e141" y="21.32"/>
      </g>
     </g>
    </g>
    <g id="xtick_35">
     <g id="line2d_72">
      <g>
       <use style="stroke:#000000;stroke-width:0.5;" x="157.350818223" xlink:href="#mc21db286a6" y="194.12"/>
      </g>
     </g>
     <g id="line2d_73">
      <g>
       <use style="stroke:#000000;stroke-width:0.5;" x="157.350818223" xlink:href="#ma9c915e141" y="21.32"/>
      </g>
     </g>
    </g>
    <g id="xtick_36">
     <g id="line2d_74">
      <g>
       <use style="stroke:#000000;stroke-width:0.5;" x="160.44086321" xlink:href="#mc21db286a6" y="194.12"/>
      </g>
     </g>
     <g id="line2d_75">
      <g>
       <use style="stroke:#000000;stroke-width:0.5;" x="160.44086321" xlink:href="#ma9c915e141" y="21.32"/>
      </g>
     </g>
    </g>
    <g id="xtick_37">
     <g id="line2d_76">
      <g>
       <use style="stroke:#000000;stroke-width:0.5;" x="162.965613798" xlink:href="#mc21db286a6" y="194.12"/>
      </g>
     </g>
     <g id="line2d_77">
      <g>
       <use style="stroke:#000000;stroke-width:0.5;" x="162.965613798" xlink:href="#ma9c915e141" y="21.32"/>
      </g>
     </g>
    </g>
    <g id="xtick_38">
     <g id="line2d_78">
      <g>
       <use style="stroke:#000000;stroke-width:0.5;" x="165.100260004" xlink:href="#mc21db286a6" y="194.12"/>
      </g>
     </g>
     <g id="line2d_79">
      <g>
       <use style="stroke:#000000;stroke-width:0.5;" x="165.100260004" xlink:href="#ma9c915e141" y="21.32"/>
      </g>
     </g>
    </g>
    <g id="xtick_39">
     <g id="line2d_80">
      <g>
       <use style="stroke:#000000;stroke-width:0.5;" x="166.949374657" xlink:href="#mc21db286a6" y="194.12"/>
      </g>
     </g>
     <g id="line2d_81">
      <g>
       <use style="stroke:#000000;stroke-width:0.5;" x="166.949374657" xlink:href="#ma9c915e141" y="21.32"/>
      </g>
     </g>
    </g>
    <g id="xtick_40">
     <g id="line2d_82">
      <g>
       <use style="stroke:#000000;stroke-width:0.5;" x="168.580409372" xlink:href="#mc21db286a6" y="194.12"/>
      </g>
     </g>
     <g id="line2d_83">
      <g>
       <use style="stroke:#000000;stroke-width:0.5;" x="168.580409372" xlink:href="#ma9c915e141" y="21.32"/>
      </g>
     </g>
    </g>
    <g id="xtick_41">
     <g id="line2d_84">
      <g>
       <use style="stroke:#000000;stroke-width:0.5;" x="179.637976076" xlink:href="#mc21db286a6" y="194.12"/>
      </g>
     </g>
     <g id="line2d_85">
      <g>
       <use style="stroke:#000000;stroke-width:0.5;" x="179.637976076" xlink:href="#ma9c915e141" y="21.32"/>
      </g>
     </g>
    </g>
    <g id="xtick_42">
     <g id="line2d_86">
      <g>
       <use style="stroke:#000000;stroke-width:0.5;" x="185.25277165" xlink:href="#mc21db286a6" y="194.12"/>
      </g>
     </g>
     <g id="line2d_87">
      <g>
       <use style="stroke:#000000;stroke-width:0.5;" x="185.25277165" xlink:href="#ma9c915e141" y="21.32"/>
      </g>
     </g>
    </g>
    <g id="xtick_43">
     <g id="line2d_88">
      <g>
       <use style="stroke:#000000;stroke-width:0.5;" x="189.236532509" xlink:href="#mc21db286a6" y="194.12"/>
      </g>
     </g>
     <g id="line2d_89">
      <g>
       <use style="stroke:#000000;stroke-width:0.5;" x="189.236532509" xlink:href="#ma9c915e141" y="21.32"/>
      </g>
     </g>
    </g>
    <g id="xtick_44">
     <g id="line2d_90">
      <g>
       <use style="stroke:#000000;stroke-width:0.5;" x="192.326577495" xlink:href="#mc21db286a6" y="194.12"/>
      </g>
     </g>
     <g id="line2d_91">
      <g>
       <use style="stroke:#000000;stroke-width:0.5;" x="192.326577495" xlink:href="#ma9c915e141" y="21.32"/>
      </g>
     </g>
    </g>
    <g id="xtick_45">
     <g id="line2d_92">
      <g>
       <use style="stroke:#000000;stroke-width:0.5;" x="194.851328084" xlink:href="#mc21db286a6" y="194.12"/>
      </g>
     </g>
     <g id="line2d_93">
      <g>
       <use style="stroke:#000000;stroke-width:0.5;" x="194.851328084" xlink:href="#ma9c915e141" y="21.32"/>
      </g>
     </g>
    </g>
    <g id="xtick_46">
     <g id="line2d_94">
      <g>
       <use style="stroke:#000000;stroke-width:0.5;" x="196.98597429" xlink:href="#mc21db286a6" y="194.12"/>
      </g>
     </g>
     <g id="line2d_95">
      <g>
       <use style="stroke:#000000;stroke-width:0.5;" x="196.98597429" xlink:href="#ma9c915e141" y="21.32"/>
      </g>
     </g>
    </g>
    <g id="xtick_47">
     <g id="line2d_96">
      <g>
       <use style="stroke:#000000;stroke-width:0.5;" x="198.835088942" xlink:href="#mc21db286a6" y="194.12"/>
      </g>
     </g>
     <g id="line2d_97">
      <g>
       <use style="stroke:#000000;stroke-width:0.5;" x="198.835088942" xlink:href="#ma9c915e141" y="21.32"/>
      </g>
     </g>
    </g>
    <g id="xtick_48">
     <g id="line2d_98">
      <g>
       <use style="stroke:#000000;stroke-width:0.5;" x="200.466123658" xlink:href="#mc21db286a6" y="194.12"/>
      </g>
     </g>
     <g id="line2d_99">
      <g>
       <use style="stroke:#000000;stroke-width:0.5;" x="200.466123658" xlink:href="#ma9c915e141" y="21.32"/>
      </g>
     </g>
    </g>
    <g id="xtick_49">
     <g id="line2d_100">
      <g>
       <use style="stroke:#000000;stroke-width:0.5;" x="211.523690362" xlink:href="#mc21db286a6" y="194.12"/>
      </g>
     </g>
     <g id="line2d_101">
      <g>
       <use style="stroke:#000000;stroke-width:0.5;" x="211.523690362" xlink:href="#ma9c915e141" y="21.32"/>
      </g>
     </g>
    </g>
    <g id="xtick_50">
     <g id="line2d_102">
      <g>
       <use style="stroke:#000000;stroke-width:0.5;" x="217.138485936" xlink:href="#mc21db286a6" y="194.12"/>
      </g>
     </g>
     <g id="line2d_103">
      <g>
       <use style="stroke:#000000;stroke-width:0.5;" x="217.138485936" xlink:href="#ma9c915e141" y="21.32"/>
      </g>
     </g>
    </g>
    <g id="xtick_51">
     <g id="line2d_104">
      <g>
       <use style="stroke:#000000;stroke-width:0.5;" x="221.122246795" xlink:href="#mc21db286a6" y="194.12"/>
      </g>
     </g>
     <g id="line2d_105">
      <g>
       <use style="stroke:#000000;stroke-width:0.5;" x="221.122246795" xlink:href="#ma9c915e141" y="21.32"/>
      </g>
     </g>
    </g>
    <g id="xtick_52">
     <g id="line2d_106">
      <g>
       <use style="stroke:#000000;stroke-width:0.5;" x="224.212291781" xlink:href="#mc21db286a6" y="194.12"/>
      </g>
     </g>
     <g id="line2d_107">
      <g>
       <use style="stroke:#000000;stroke-width:0.5;" x="224.212291781" xlink:href="#ma9c915e141" y="21.32"/>
      </g>
     </g>
    </g>
    <g id="xtick_53">
     <g id="line2d_108">
      <g>
       <use style="stroke:#000000;stroke-width:0.5;" x="226.737042369" xlink:href="#mc21db286a6" y="194.12"/>
      </g>
     </g>
     <g id="line2d_109">
      <g>
       <use style="stroke:#000000;stroke-width:0.5;" x="226.737042369" xlink:href="#ma9c915e141" y="21.32"/>
      </g>
     </g>
    </g>
    <g id="xtick_54">
     <g id="line2d_110">
      <g>
       <use style="stroke:#000000;stroke-width:0.5;" x="228.871688576" xlink:href="#mc21db286a6" y="194.12"/>
      </g>
     </g>
     <g id="line2d_111">
      <g>
       <use style="stroke:#000000;stroke-width:0.5;" x="228.871688576" xlink:href="#ma9c915e141" y="21.32"/>
      </g>
     </g>
    </g>
    <g id="xtick_55">
     <g id="line2d_112">
      <g>
       <use style="stroke:#000000;stroke-width:0.5;" x="230.720803228" xlink:href="#mc21db286a6" y="194.12"/>
      </g>
     </g>
     <g id="line2d_113">
      <g>
       <use style="stroke:#000000;stroke-width:0.5;" x="230.720803228" xlink:href="#ma9c915e141" y="21.32"/>
      </g>
     </g>
    </g>
    <g id="xtick_56">
     <g id="line2d_114">
      <g>
       <use style="stroke:#000000;stroke-width:0.5;" x="232.351837944" xlink:href="#mc21db286a6" y="194.12"/>
      </g>
     </g>
     <g id="line2d_115">
      <g>
       <use style="stroke:#000000;stroke-width:0.5;" x="232.351837944" xlink:href="#ma9c915e141" y="21.32"/>
      </g>
     </g>
    </g>
    <g id="xtick_57">
     <g id="line2d_116">
      <g>
       <use style="stroke:#000000;stroke-width:0.5;" x="243.409404647" xlink:href="#mc21db286a6" y="194.12"/>
      </g>
     </g>
     <g id="line2d_117">
      <g>
       <use style="stroke:#000000;stroke-width:0.5;" x="243.409404647" xlink:href="#ma9c915e141" y="21.32"/>
      </g>
     </g>
    </g>
    <g id="xtick_58">
     <g id="line2d_118">
      <g>
       <use style="stroke:#000000;stroke-width:0.5;" x="249.024200222" xlink:href="#mc21db286a6" y="194.12"/>
      </g>
     </g>
     <g id="line2d_119">
      <g>
       <use style="stroke:#000000;stroke-width:0.5;" x="249.024200222" xlink:href="#ma9c915e141" y="21.32"/>
      </g>
     </g>
    </g>
    <g id="xtick_59">
     <g id="line2d_120">
      <g>
       <use style="stroke:#000000;stroke-width:0.5;" x="253.007961081" xlink:href="#mc21db286a6" y="194.12"/>
      </g>
     </g>
     <g id="line2d_121">
      <g>
       <use style="stroke:#000000;stroke-width:0.5;" x="253.007961081" xlink:href="#ma9c915e141" y="21.32"/>
      </g>
     </g>
    </g>
    <g id="xtick_60">
     <g id="line2d_122">
      <g>
       <use style="stroke:#000000;stroke-width:0.5;" x="256.098006067" xlink:href="#mc21db286a6" y="194.12"/>
      </g>
     </g>
     <g id="line2d_123">
      <g>
       <use style="stroke:#000000;stroke-width:0.5;" x="256.098006067" xlink:href="#ma9c915e141" y="21.32"/>
      </g>
     </g>
    </g>
    <g id="xtick_61">
     <g id="line2d_124">
      <g>
       <use style="stroke:#000000;stroke-width:0.5;" x="258.622756655" xlink:href="#mc21db286a6" y="194.12"/>
      </g>
     </g>
     <g id="line2d_125">
      <g>
       <use style="stroke:#000000;stroke-width:0.5;" x="258.622756655" xlink:href="#ma9c915e141" y="21.32"/>
      </g>
     </g>
    </g>
    <g id="xtick_62">
     <g id="line2d_126">
      <g>
       <use style="stroke:#000000;stroke-width:0.5;" x="260.757402862" xlink:href="#mc21db286a6" y="194.12"/>
      </g>
     </g>
     <g id="line2d_127">
      <g>
       <use style="stroke:#000000;stroke-width:0.5;" x="260.757402862" xlink:href="#ma9c915e141" y="21.32"/>
      </g>
     </g>
    </g>
    <g id="xtick_63">
     <g id="line2d_128">
      <g>
       <use style="stroke:#000000;stroke-width:0.5;" x="262.606517514" xlink:href="#mc21db286a6" y="194.12"/>
      </g>
     </g>
     <g id="line2d_129">
      <g>
       <use style="stroke:#000000;stroke-width:0.5;" x="262.606517514" xlink:href="#ma9c915e141" y="21.32"/>
      </g>
     </g>
    </g>
    <g id="xtick_64">
     <g id="line2d_130">
      <g>
       <use style="stroke:#000000;stroke-width:0.5;" x="264.23755223" xlink:href="#mc21db286a6" y="194.12"/>
      </g>
     </g>
     <g id="line2d_131">
      <g>
       <use style="stroke:#000000;stroke-width:0.5;" x="264.23755223" xlink:href="#ma9c915e141" y="21.32"/>
      </g>
     </g>
    </g>
    <g id="text_9">
     <!-- $\Delta r$ -->
     <defs>
      <path d="
M5.42188 0
Q4.59375 0 4.59375 0.78125
Q4.64062 0.875 4.65625 0.921875
Q4.6875 0.984375 4.6875 1.125
L39.1094 70.5156
Q39.5469 71.5781 40.9219 71.5781
L42.2812 71.5781
Q43.6562 71.5781 44.0938 70.5156
L78.5156 1.125
Q78.5625 1.03125 78.5781 0.953125
Q78.6094 0.875 78.6094 0.78125
Q78.6094 0 77.7812 0
z

M12.0156 8.01562
L64.7031 8.01562
L38.375 61.0781
z
" id="Cmr10-a2"/>
      <path d="
M7.71875 1.70312
Q7.71875 2.29688 7.8125 2.59375
L15.2812 32.4219
Q16.0156 35.2031 16.0156 37.3125
Q16.0156 41.6094 13.0938 41.6094
Q9.96875 41.6094 8.45312 37.8594
Q6.9375 34.125 5.51562 28.4219
Q5.51562 28.125 5.21875 27.9531
Q4.9375 27.7812 4.6875 27.7812
L3.51562 27.7812
Q3.17188 27.7812 2.92188 28.1406
Q2.6875 28.5156 2.6875 28.8125
Q3.76562 33.1562 4.76562 36.1719
Q5.76562 39.2031 7.89062 41.6875
Q10.0156 44.1875 13.1875 44.1875
Q16.6562 44.1875 19.2656 42.1875
Q21.875 40.1875 22.5156 36.9219
Q25.0469 40.2344 28.2969 42.2031
Q31.5469 44.1875 35.4062 44.1875
Q38.5781 44.1875 40.9844 42.3281
Q43.4062 40.4844 43.4062 37.3125
Q43.4062 34.7656 41.8125 32.875
Q40.2344 31 37.5938 31
Q35.9844 31 34.8906 32
Q33.7969 33.0156 33.7969 34.625
Q33.7969 36.8125 35.4062 38.5469
Q37.0156 40.2812 39.1094 40.2812
Q37.5 41.6094 35.2031 41.6094
Q30.9062 41.6094 27.7344 38.5469
Q24.5625 35.5 22.0156 30.8125
L14.8906 2.20312
Q14.5469 0.828125 13.3438 -0.140625
Q12.1562 -1.125 10.6875 -1.125
Q9.46875 -1.125 8.59375 -0.34375
Q7.71875 0.4375 7.71875 1.70312" id="Cmmi10-72"/>
     </defs>
     <g transform="translate(146.3565625 222.938125)scale(0.12 -0.12)">
      <use transform="translate(0.0 0.421875)" xlink:href="#Cmr10-a2"/>
      <use transform="translate(83.30078125 0.421875)" xlink:href="#Cmmi10-72"/>
     </g>
    </g>
   </g>
   <g id="matplotlib.axis_2">
    <g id="ytick_1">
     <g id="line2d_132">
      <defs>
       <path d="
M0 0
L4 0" id="md7965d1ba0" style="stroke:#000000;stroke-width:0.5;"/>
      </defs>
      <g>
       <use style="stroke:#000000;stroke-width:0.5;" x="42.4965625" xlink:href="#md7965d1ba0" y="194.12"/>
      </g>
     </g>
     <g id="line2d_133">
      <defs>
       <path d="
M0 0
L-4 0" id="md9a1c1a7cd" style="stroke:#000000;stroke-width:0.5;"/>
      </defs>
      <g>
       <use style="stroke:#000000;stroke-width:0.5;" x="265.6965625" xlink:href="#md9a1c1a7cd" y="194.12"/>
      </g>
     </g>
     <g id="text_10">
      <!-- 0.0 -->
      <defs>
       <path d="
M10.6875 12.4062
L21 12.4062
L21 0
L10.6875 0
z
" id="BitstreamVeraSans-Roman-2e"/>
      </defs>
      <g transform="translate(23.916875 196.879375)scale(0.1 -0.1)">
       <use xlink:href="#BitstreamVeraSans-Roman-30"/>
       <use x="63.623046875" xlink:href="#BitstreamVeraSans-Roman-2e"/>
       <use x="95.41015625" xlink:href="#BitstreamVeraSans-Roman-30"/>
      </g>
     </g>
    </g>
    <g id="ytick_2">
     <g id="line2d_134">
      <g>
       <use style="stroke:#000000;stroke-width:0.5;" x="42.4965625" xlink:href="#md7965d1ba0" y="159.56"/>
      </g>
     </g>
     <g id="line2d_135">
      <g>
       <use style="stroke:#000000;stroke-width:0.5;" x="265.6965625" xlink:href="#md9a1c1a7cd" y="159.56"/>
      </g>
     </g>
     <g id="text_11">
      <!-- 0.2 -->
      <g transform="translate(24.254375 162.319375)scale(0.1 -0.1)">
       <use xlink:href="#BitstreamVeraSans-Roman-30"/>
       <use x="63.623046875" xlink:href="#BitstreamVeraSans-Roman-2e"/>
       <use x="95.41015625" xlink:href="#BitstreamVeraSans-Roman-32"/>
      </g>
     </g>
    </g>
    <g id="ytick_3">
     <g id="line2d_136">
      <g>
       <use style="stroke:#000000;stroke-width:0.5;" x="42.4965625" xlink:href="#md7965d1ba0" y="125.0"/>
      </g>
     </g>
     <g id="line2d_137">
      <g>
       <use style="stroke:#000000;stroke-width:0.5;" x="265.6965625" xlink:href="#md9a1c1a7cd" y="125.0"/>
      </g>
     </g>
     <g id="text_12">
      <!-- 0.4 -->
      <g transform="translate(23.81375 127.759375)scale(0.1 -0.1)">
       <use xlink:href="#BitstreamVeraSans-Roman-30"/>
       <use x="63.623046875" xlink:href="#BitstreamVeraSans-Roman-2e"/>
       <use x="95.41015625" xlink:href="#BitstreamVeraSans-Roman-34"/>
      </g>
     </g>
    </g>
    <g id="ytick_4">
     <g id="line2d_138">
      <g>
       <use style="stroke:#000000;stroke-width:0.5;" x="42.4965625" xlink:href="#md7965d1ba0" y="90.44"/>
      </g>
     </g>
     <g id="line2d_139">
      <g>
       <use style="stroke:#000000;stroke-width:0.5;" x="265.6965625" xlink:href="#md9a1c1a7cd" y="90.44"/>
      </g>
     </g>
     <g id="text_13">
      <!-- 0.6 -->
      <g transform="translate(23.8825 93.199375)scale(0.1 -0.1)">
       <use xlink:href="#BitstreamVeraSans-Roman-30"/>
       <use x="63.623046875" xlink:href="#BitstreamVeraSans-Roman-2e"/>
       <use x="95.41015625" xlink:href="#BitstreamVeraSans-Roman-36"/>
      </g>
     </g>
    </g>
    <g id="ytick_5">
     <g id="line2d_140">
      <g>
       <use style="stroke:#000000;stroke-width:0.5;" x="42.4965625" xlink:href="#md7965d1ba0" y="55.88"/>
      </g>
     </g>
     <g id="line2d_141">
      <g>
       <use style="stroke:#000000;stroke-width:0.5;" x="265.6965625" xlink:href="#md9a1c1a7cd" y="55.88"/>
      </g>
     </g>
     <g id="text_14">
      <!-- 0.8 -->
      <defs>
       <path d="
M31.7812 34.625
Q24.75 34.625 20.7188 30.8594
Q16.7031 27.0938 16.7031 20.5156
Q16.7031 13.9219 20.7188 10.1562
Q24.75 6.39062 31.7812 6.39062
Q38.8125 6.39062 42.8594 10.1719
Q46.9219 13.9688 46.9219 20.5156
Q46.9219 27.0938 42.8906 30.8594
Q38.875 34.625 31.7812 34.625
M21.9219 38.8125
Q15.5781 40.375 12.0312 44.7188
Q8.5 49.0781 8.5 55.3281
Q8.5 64.0625 14.7188 69.1406
Q20.9531 74.2188 31.7812 74.2188
Q42.6719 74.2188 48.875 69.1406
Q55.0781 64.0625 55.0781 55.3281
Q55.0781 49.0781 51.5312 44.7188
Q48 40.375 41.7031 38.8125
Q48.8281 37.1562 52.7969 32.3125
Q56.7812 27.4844 56.7812 20.5156
Q56.7812 9.90625 50.3125 4.23438
Q43.8438 -1.42188 31.7812 -1.42188
Q19.7344 -1.42188 13.25 4.23438
Q6.78125 9.90625 6.78125 20.5156
Q6.78125 27.4844 10.7812 32.3125
Q14.7969 37.1562 21.9219 38.8125
M18.3125 54.3906
Q18.3125 48.7344 21.8438 45.5625
Q25.3906 42.3906 31.7812 42.3906
Q38.1406 42.3906 41.7188 45.5625
Q45.3125 48.7344 45.3125 54.3906
Q45.3125 60.0625 41.7188 63.2344
Q38.1406 66.4062 31.7812 66.4062
Q25.3906 66.4062 21.8438 63.2344
Q18.3125 60.0625 18.3125 54.3906" id="BitstreamVeraSans-Roman-38"/>
      </defs>
      <g transform="translate(23.9371875 58.639375)scale(0.1 -0.1)">
       <use xlink:href="#BitstreamVeraSans-Roman-30"/>
       <use x="63.623046875" xlink:href="#BitstreamVeraSans-Roman-2e"/>
       <use x="95.41015625" xlink:href="#BitstreamVeraSans-Roman-38"/>
      </g>
     </g>
    </g>
    <g id="ytick_6">
     <g id="line2d_142">
      <g>
       <use style="stroke:#000000;stroke-width:0.5;" x="42.4965625" xlink:href="#md7965d1ba0" y="21.32"/>
      </g>
     </g>
     <g id="line2d_143">
      <g>
       <use style="stroke:#000000;stroke-width:0.5;" x="265.6965625" xlink:href="#md9a1c1a7cd" y="21.32"/>
      </g>
     </g>
     <g id="text_15">
      <!-- 1.0 -->
      <g transform="translate(24.3559375 24.079375)scale(0.1 -0.1)">
       <use xlink:href="#BitstreamVeraSans-Roman-31"/>
       <use x="63.623046875" xlink:href="#BitstreamVeraSans-Roman-2e"/>
       <use x="95.41015625" xlink:href="#BitstreamVeraSans-Roman-30"/>
      </g>
     </g>
    </g>
    <g id="text_16">
     <!-- $P\left(\log\left(\Delta r\right)\right)$ -->
     <defs>
      <path d="
M25 -1.125
Q19 -1.125 13.8594 1.92188
Q8.73438 4.98438 5.75 10.1094
Q2.78125 15.2344 2.78125 21.2969
Q2.78125 25.875 4.42188 30.125
Q6.0625 34.375 9.10938 37.7188
Q12.1562 41.0625 16.2031 42.9375
Q20.2656 44.8281 25 44.8281
Q31.1562 44.8281 36.2031 41.5781
Q41.2656 38.3281 44.1875 32.875
Q47.125 27.4375 47.125 21.2969
Q47.125 15.2812 44.1406 10.125
Q41.1562 4.98438 36.0469 1.92188
Q30.9531 -1.125 25 -1.125
M25 1.8125
Q33.0156 1.8125 35.6875 7.60938
Q38.375 13.4219 38.375 22.4062
Q38.375 27.4375 37.8438 30.7344
Q37.3125 34.0312 35.5 36.7188
Q34.375 38.375 32.6406 39.625
Q30.9062 40.875 28.9688 41.5312
Q27.0469 42.1875 25 42.1875
Q21.875 42.1875 19.0625 40.7656
Q16.2656 39.3594 14.4062 36.7188
Q12.5469 33.8906 12.0312 30.4844
Q11.5312 27.0938 11.5312 22.4062
Q11.5312 16.7969 12.5 12.3281
Q13.4844 7.85938 16.4375 4.82812
Q19.3906 1.8125 25 1.8125" id="Cmr10-6f"/>
      <path d="
M2.78125 -7.8125
Q2.78125 -4.25 5.35938 -1.57812
Q7.95312 1.07812 11.5312 2.20312
Q9.51562 3.71875 8.46875 6
Q7.42188 8.29688 7.42188 10.8906
Q7.42188 15.5781 10.4062 19.1875
Q5.8125 23.6875 5.8125 29.5
Q5.8125 32.625 7.15625 35.3594
Q8.5 38.0938 10.8906 40.0938
Q13.2812 42.0938 16.2031 43.1406
Q19.1406 44.1875 22.2188 44.1875
Q28.1719 44.1875 32.9062 40.7188
Q34.9688 42.9219 37.7656 44.1094
Q40.5781 45.3125 43.6094 45.3125
Q45.75 45.3125 47.1094 43.7656
Q48.4844 42.2344 48.4844 40.0938
Q48.4844 38.875 47.5469 37.9375
Q46.625 37.0156 45.4062 37.0156
Q44.1406 37.0156 43.2031 37.9375
Q42.2812 38.875 42.2812 40.0938
Q42.2812 41.9375 43.5 42.6719
Q38.3281 42.6719 34.625 39.1094
Q36.4219 37.3125 37.5156 34.6875
Q38.625 32.0781 38.625 29.5
Q38.625 25.25 36.2812 21.8438
Q33.9375 18.4531 30.0938 16.5781
Q26.2656 14.7031 22.2188 14.7031
Q16.75 14.7031 12.2031 17.6719
Q10.7969 15.7188 10.7969 13.2812
Q10.7969 10.6406 12.5312 8.65625
Q14.2656 6.6875 16.8906 6.6875
L25.0938 6.6875
Q31.0625 6.6875 35.8438 5.60938
Q40.625 4.54688 43.875 1.3125
Q47.125 -1.90625 47.125 -7.8125
Q47.125 -12.2031 43.4062 -15.1094
Q39.7031 -18.0156 34.5469 -19.3125
Q29.3906 -20.6094 25 -20.6094
Q20.5625 -20.6094 15.375 -19.3125
Q10.2031 -18.0156 6.48438 -15.1094
Q2.78125 -12.2031 2.78125 -7.8125
M8.40625 -7.8125
Q8.40625 -11.1875 11.1406 -13.4531
Q13.875 -15.7188 17.7188 -16.8125
Q21.5781 -17.9219 25 -17.9219
Q28.375 -17.9219 32.2188 -16.8125
Q36.0781 -15.7188 38.7812 -13.4531
Q41.5 -11.1875 41.5 -7.8125
Q41.5 -2.59375 36.7188 -1.04688
Q31.9375 0.484375 25.0938 0.484375
L16.8906 0.484375
Q14.5938 0.484375 12.6719 -0.609375
Q10.75 -1.70312 9.57812 -3.6875
Q8.40625 -5.67188 8.40625 -7.8125
M22.2188 17.3906
Q30.7188 17.3906 30.7188 29.5
Q30.7188 34.7188 28.9062 38.1094
Q27.0938 41.5 22.2188 41.5
Q17.3281 41.5 15.5156 38.1094
Q13.7188 34.7188 13.7188 29.5
Q13.7188 26.1719 14.4062 23.4844
Q15.0938 20.7969 16.9375 19.0938
Q18.7969 17.3906 22.2188 17.3906" id="Cmr10-67"/>
      <path d="
M3.07812 0
L3.07812 3.51562
Q6.5 3.51562 8.6875 4.04688
Q10.8906 4.59375 10.8906 6.6875
L10.8906 59.1875
Q10.8906 61.8594 10.0781 63.0625
Q9.28125 64.2656 7.76562 64.5312
Q6.25 64.7969 3.07812 64.7969
L3.07812 68.3125
L17.9219 69.3906
L17.9219 6.6875
Q17.9219 4.59375 20.1094 4.04688
Q22.3125 3.51562 25.6875 3.51562
L25.6875 0
z
" id="Cmr10-6c"/>
      <path d="
M31 -24.8125
Q25.4375 -20.4062 21.4062 -14.7188
Q17.3906 -9.03125 14.8125 -2.57812
Q12.25 3.85938 10.9844 10.8906
Q9.71875 17.9219 9.71875 25
Q9.71875 32.1719 10.9844 39.2031
Q12.25 46.2344 14.8594 52.7344
Q17.4844 59.2344 21.5312 64.8906
Q25.5938 70.5625 31 74.8125
Q31 75 31.5 75
L32.4219 75
Q32.7188 75 32.9531 74.7344
Q33.2031 74.4688 33.2031 74.125
Q33.2031 73.6875 33.0156 73.4844
Q28.125 68.7031 24.875 63.2344
Q21.625 57.7656 19.6406 51.5781
Q17.6719 45.4062 16.7969 38.7812
Q15.9219 32.1719 15.9219 25
Q15.9219 -6.78125 32.9062 -23.2969
Q33.2031 -23.5781 33.2031 -24.125
Q33.2031 -24.3594 32.9375 -24.6719
Q32.6719 -25 32.4219 -25
L31.5 -25
Q31 -25 31 -24.8125" id="Cmr10-28"/>
      <path d="
M4.89062 0
Q3.90625 0 3.90625 1.3125
Q3.95312 1.5625 4.09375 2.17188
Q4.25 2.78125 4.51562 3.14062
Q4.78125 3.51562 5.17188 3.51562
Q11.2812 3.51562 13.7188 4.20312
Q14.9844 4.64062 15.5781 6.89062
L29.2969 61.8125
Q29.5 62.7969 29.5 63.1875
Q29.5 64.2656 28.3281 64.4062
Q26.4219 64.7969 21.0938 64.7969
Q20.125 64.7969 20.125 66.1094
Q20.1719 66.3594 20.3125 66.9688
Q20.4531 67.5781 20.7188 67.9375
Q21 68.3125 21.3906 68.3125
L55.9062 68.3125
Q60.6406 68.3125 65.0781 66.625
Q69.5312 64.9375 72.3594 61.4688
Q75.2031 58.0156 75.2031 53.0781
Q75.2031 46.7344 70.7344 41.75
Q66.2656 36.7656 59.5938 33.9844
Q52.9375 31.2031 46.6875 31.2031
L30.4219 31.2031
L24.3125 6.5
Q24.125 5.51562 24.125 5.07812
Q24.125 4.6875 24.2344 4.42188
Q24.3594 4.15625 24.5781 4.07812
Q24.8125 4 25.2969 3.90625
Q27.2031 3.51562 32.5156 3.51562
Q33.5 3.51562 33.5 2.20312
Q33.1562 0.78125 32.9531 0.390625
Q32.7656 0 31.7812 0
z

M30.9062 34.1875
L44.9219 34.1875
Q54.6406 34.1875 59.7188 39.4062
Q62.3125 42 63.9375 46.875
Q65.5781 51.7656 65.5781 55.7188
Q65.5781 60.6406 61.8125 62.7188
Q58.0625 64.7969 52.4844 64.7969
L42.9219 64.7969
Q40.1875 64.7969 39.2969 64.3281
Q38.4219 63.875 37.7031 61.375
z
" id="Cmmi10-50"/>
      <path d="
M6.5 -25
Q5.60938 -25 5.60938 -24.125
Q5.60938 -23.6875 5.8125 -23.4844
Q22.9062 -6.78125 22.9062 25
Q22.9062 56.7812 6 73.2969
Q5.60938 73.5312 5.60938 74.125
Q5.60938 74.4688 5.875 74.7344
Q6.15625 75 6.5 75
L7.42188 75
Q7.71875 75 7.90625 74.8125
Q15.0938 69.1406 19.875 61.0312
Q24.6562 52.9375 26.875 43.75
Q29.1094 34.5781 29.1094 25
Q29.1094 17.9219 27.9062 11.0625
Q26.7031 4.20312 24.0938 -2.45312
Q21.4844 -9.125 17.4844 -14.7656
Q13.4844 -20.4062 7.90625 -24.8125
Q7.71875 -25 7.42188 -25
z
" id="Cmr10-29"/>
     </defs>
     <g transform="translate(16.29375 134.66)rotate(-90.0)scale(0.12 -0.12)">
      <use transform="translate(0.0 0.421875)" xlink:href="#Cmmi10-50"/>
      <use transform="translate(64.208984375 2.859375)scale(0.921875)" xlink:href="#Cmr10-28"/>
      <use transform="translate(99.99465942382812 0.421875)" xlink:href="#Cmr10-6c"/>
      <use transform="translate(127.68020629882812 0.421875)" xlink:href="#Cmr10-6f"/>
      <use transform="translate(177.68020629882812 0.421875)" xlink:href="#Cmr10-67"/>
      <use transform="translate(227.68020629882812 17.46875)scale(0.72703125)" xlink:href="#Cmr10-28"/>
      <use transform="translate(255.90235900878906 0.421875)" xlink:href="#Cmr10-a2"/>
      <use transform="translate(339.20314025878906 0.421875)" xlink:href="#Cmmi10-72"/>
      <use transform="translate(384.32032775878906 17.46875)scale(0.72703125)" xlink:href="#Cmr10-29"/>
      <use transform="translate(412.54248046875 2.859375)scale(0.921875)" xlink:href="#Cmr10-29"/>
     </g>
    </g>
   </g>
   <g id="text_17">
    <!-- 40 Hard Spheres, at $\Delta \phi = -0.0002$, $t=100$ -->
    <defs>
     <path d="
M9.28125 0
L9.28125 3.51562
Q21.7812 3.51562 21.7812 6.6875
L21.7812 59.1875
Q16.6094 56.6875 8.6875 56.6875
L8.6875 60.2031
Q20.9531 60.2031 27.2031 66.6094
L28.6094 66.6094
Q28.9531 66.6094 29.2656 66.3281
Q29.5938 66.0625 29.5938 65.7188
L29.5938 6.6875
Q29.5938 3.51562 42.0938 3.51562
L42.0938 0
z
" id="Cmr10-31"/>
     <path d="
M4.98438 0
L4.98438 2.6875
Q4.98438 2.9375 5.17188 3.21875
L20.7031 20.4062
Q24.2188 24.2188 26.4062 26.7969
Q28.6094 29.3906 30.75 32.7656
Q32.9062 36.1406 34.1562 39.625
Q35.4062 43.1094 35.4062 47.0156
Q35.4062 51.125 33.8906 54.8594
Q32.375 58.5938 29.375 60.8438
Q26.375 63.0938 22.125 63.0938
Q17.7812 63.0938 14.3125 60.4688
Q10.8438 57.8594 9.42188 53.7188
Q9.8125 53.8125 10.5 53.8125
Q12.75 53.8125 14.3281 52.2969
Q15.9219 50.7812 15.9219 48.3906
Q15.9219 46.0938 14.3281 44.5
Q12.75 42.9219 10.5 42.9219
Q8.15625 42.9219 6.5625 44.5469
Q4.98438 46.1875 4.98438 48.3906
Q4.98438 52.1562 6.39062 55.4375
Q7.8125 58.7344 10.4688 61.2969
Q13.1406 63.875 16.4844 65.2344
Q19.8281 66.6094 23.5781 66.6094
Q29.2969 66.6094 34.2188 64.1875
Q39.1562 61.7656 42.0312 57.3438
Q44.9219 52.9375 44.9219 47.0156
Q44.9219 42.6719 43.0156 38.7656
Q41.1094 34.8594 38.125 31.6562
Q35.1562 28.4688 30.5156 24.4062
Q25.875 20.3594 24.4219 19
L13.0938 8.10938
L22.7031 8.10938
Q29.7812 8.10938 34.5469 8.21875
Q39.3125 8.34375 39.5938 8.59375
Q40.7656 9.85938 42 17.8281
L44.9219 17.8281
L42.0938 0
z
" id="Cmr10-32"/>
     <path d="
M54.8906 33.0156
L54.8906 0
L45.9062 0
L45.9062 32.7188
Q45.9062 40.4844 42.875 44.3281
Q39.8438 48.1875 33.7969 48.1875
Q26.5156 48.1875 22.3125 43.5469
Q18.1094 38.9219 18.1094 30.9062
L18.1094 0
L9.07812 0
L9.07812 75.9844
L18.1094 75.9844
L18.1094 46.1875
Q21.3438 51.125 25.7031 53.5625
Q30.0781 56 35.7969 56
Q45.2188 56 50.0469 50.1719
Q54.8906 44.3438 54.8906 33.0156" id="BitstreamVeraSans-Roman-68"/>
     <path d="
M25 -2.20312
Q12.75 -2.20312 8.32812 7.875
Q3.90625 17.9688 3.90625 31.8906
Q3.90625 40.5781 5.48438 48.2344
Q7.07812 55.9062 11.7812 61.25
Q16.5 66.6094 25 66.6094
Q31.5938 66.6094 35.7812 63.375
Q39.9844 60.1562 42.1875 55.0469
Q44.3906 49.9531 45.1875 44.1094
Q46 38.2812 46 31.8906
Q46 23.2969 44.4062 15.7969
Q42.8281 8.29688 38.1875 3.04688
Q33.5469 -2.20312 25 -2.20312
M25 0.390625
Q30.5625 0.390625 33.2969 6.09375
Q36.0312 11.8125 36.6719 18.75
Q37.3125 25.6875 37.3125 33.5
Q37.3125 41.0156 36.6719 47.3594
Q36.0312 53.7188 33.3125 58.8594
Q30.6094 64.0156 25 64.0156
Q19.3438 64.0156 16.6094 58.8281
Q13.875 53.6562 13.2344 47.3281
Q12.5938 41.0156 12.5938 33.5
Q12.5938 27.9375 12.8594 23
Q13.1406 18.0625 14.3125 12.8125
Q15.4844 7.5625 18.0938 3.96875
Q20.7031 0.390625 25 0.390625" id="Cmr10-30"/>
     <path d="
M56.2031 29.5938
L56.2031 25.2031
L14.8906 25.2031
Q15.4844 15.9219 20.4844 11.0625
Q25.4844 6.20312 34.4219 6.20312
Q39.5938 6.20312 44.4531 7.46875
Q49.3125 8.73438 54.1094 11.2812
L54.1094 2.78125
Q49.2656 0.734375 44.1875 -0.34375
Q39.1094 -1.42188 33.8906 -1.42188
Q20.7969 -1.42188 13.1562 6.1875
Q5.51562 13.8125 5.51562 26.8125
Q5.51562 40.2344 12.7656 48.1094
Q20.0156 56 32.3281 56
Q43.3594 56 49.7812 48.8906
Q56.2031 41.7969 56.2031 29.5938
M47.2188 32.2344
Q47.125 39.5938 43.0938 43.9844
Q39.0625 48.3906 32.4219 48.3906
Q24.9062 48.3906 20.3906 44.1406
Q15.875 39.8906 15.1875 32.1719
z
" id="BitstreamVeraSans-Roman-65"/>
     <path d="
M11.7188 12.4062
L22.0156 12.4062
L22.0156 4
L14.0156 -11.625
L7.71875 -11.625
L11.7188 4
z
" id="BitstreamVeraSans-Roman-2c"/>
     <path d="
M7.51562 13.2812
Q6.6875 13.2812 6.14062 13.9062
Q5.60938 14.5469 5.60938 15.2812
Q5.60938 16.1094 6.14062 16.6875
Q6.6875 17.2812 7.51562 17.2812
L70.3125 17.2812
Q71.0469 17.2812 71.5781 16.6875
Q72.125 16.1094 72.125 15.2812
Q72.125 14.5469 71.5781 13.9062
Q71.0469 13.2812 70.3125 13.2812
z

M7.51562 32.7188
Q6.6875 32.7188 6.14062 33.2969
Q5.60938 33.8906 5.60938 34.7188
Q5.60938 35.4531 6.14062 36.0781
Q6.6875 36.7188 7.51562 36.7188
L70.3125 36.7188
Q71.0469 36.7188 71.5781 36.0781
Q72.125 35.4531 72.125 34.7188
Q72.125 33.8906 71.5781 33.2969
Q71.0469 32.7188 70.3125 32.7188
z
" id="Cmr10-3d"/>
     <path d="
M34.2812 27.4844
Q23.3906 27.4844 19.1875 25
Q14.9844 22.5156 14.9844 16.5
Q14.9844 11.7188 18.1406 8.90625
Q21.2969 6.10938 26.7031 6.10938
Q34.1875 6.10938 38.7031 11.4062
Q43.2188 16.7031 43.2188 25.4844
L43.2188 27.4844
z

M52.2031 31.2031
L52.2031 0
L43.2188 0
L43.2188 8.29688
Q40.1406 3.32812 35.5469 0.953125
Q30.9531 -1.42188 24.3125 -1.42188
Q15.9219 -1.42188 10.9531 3.29688
Q6 8.01562 6 15.9219
Q6 25.1406 12.1719 29.8281
Q18.3594 34.5156 30.6094 34.5156
L43.2188 34.5156
L43.2188 35.4062
Q43.2188 41.6094 39.1406 45
Q35.0625 48.3906 27.6875 48.3906
Q23 48.3906 18.5469 47.2656
Q14.1094 46.1406 10.0156 43.8906
L10.0156 52.2031
Q14.9375 54.1094 19.5781 55.0469
Q24.2188 56 28.6094 56
Q40.4844 56 46.3438 49.8438
Q52.2031 43.7031 52.2031 31.2031" id="BitstreamVeraSans-Roman-61"/>
     <path d="
M19.3906 -19.4844
L23.875 -1.42188
Q18.7969 -1.42188 14.4062 0.953125
Q10.0156 3.32812 7.34375 7.5625
Q4.6875 11.8125 4.6875 16.7969
Q4.6875 22.2188 7.375 27.1406
Q10.0625 32.0781 14.7188 36.1094
Q19.3906 40.1406 24.75 42.3125
Q30.125 44.4844 35.4062 44.4844
L41.4062 68.7969
Q41.6094 69.3906 42.1875 69.3906
L43.4062 69.3906
Q43.7969 69.3906 44.0312 69.0469
Q44.2812 68.7031 44.2812 68.4062
L38.2812 44.4844
Q42.0469 44.4844 45.5625 43.1094
Q49.0781 41.75 51.7812 39.2812
Q54.5 36.8125 56 33.4688
Q57.5156 30.125 57.5156 26.3125
Q57.5156 20.9062 54.8281 15.9688
Q52.1562 11.0312 47.6094 7.07812
Q43.0625 3.125 37.4688 0.84375
Q31.8906 -1.42188 26.8125 -1.42188
L22.2188 -19.9219
Q22.0156 -20.5156 21.3906 -20.5156
L20.2188 -20.5156
Q19.8281 -20.5156 19.6094 -20.1406
Q19.3906 -19.7812 19.3906 -19.4844
M24.5156 1.21875
L34.7188 41.8906
Q32.1719 41.8906 29.3906 40.8594
Q26.6094 39.8438 24.1406 38.2812
Q21.6875 36.7188 19.6719 34.7188
Q17.2344 32.2812 15.375 28.9531
Q13.5312 25.6406 12.5781 21.9531
Q11.625 18.2656 11.625 14.7031
Q11.625 10.9375 13.2344 7.85938
Q14.8438 4.78125 17.7656 3
Q20.7031 1.21875 24.5156 1.21875
M27.4844 1.21875
Q31.25 1.21875 35.5 3.35938
Q39.75 5.51562 42.4844 8.40625
Q46.2344 12.1094 48.4062 17.5
Q50.5938 22.9062 50.5938 28.4219
Q50.5938 32.125 48.9688 35.2188
Q47.3594 38.3281 44.4219 40.1094
Q41.5 41.8906 37.7031 41.8906
z
" id="Cmmi10-c1"/>
     <path d="
M18.3125 70.2188
L18.3125 54.6875
L36.8125 54.6875
L36.8125 47.7031
L18.3125 47.7031
L18.3125 18.0156
Q18.3125 11.3281 20.1406 9.42188
Q21.9688 7.51562 27.5938 7.51562
L36.8125 7.51562
L36.8125 0
L27.5938 0
Q17.1875 0 13.2344 3.875
Q9.28125 7.76562 9.28125 18.0156
L9.28125 47.7031
L2.6875 47.7031
L2.6875 54.6875
L9.28125 54.6875
L9.28125 70.2188
z
" id="BitstreamVeraSans-Roman-74"/>
     <path d="
M41.1094 46.2969
Q39.5938 47.1719 37.8125 47.5781
Q36.0312 48 33.8906 48
Q26.2656 48 22.1875 43.0469
Q18.1094 38.0938 18.1094 28.8125
L18.1094 0
L9.07812 0
L9.07812 54.6875
L18.1094 54.6875
L18.1094 46.1875
Q20.9531 51.1719 25.4844 53.5781
Q30.0312 56 36.5312 56
Q37.4531 56 38.5781 55.875
Q39.7031 55.7656 41.0625 55.5156
z
" id="BitstreamVeraSans-Roman-72"/>
     <path id="BitstreamVeraSans-Roman-20"/>
     <path d="
M18.1094 8.20312
L18.1094 -20.7969
L9.07812 -20.7969
L9.07812 54.6875
L18.1094 54.6875
L18.1094 46.3906
Q20.9531 51.2656 25.2656 53.625
Q29.5938 56 35.5938 56
Q45.5625 56 51.7812 48.0938
Q58.0156 40.1875 58.0156 27.2969
Q58.0156 14.4062 51.7812 6.48438
Q45.5625 -1.42188 35.5938 -1.42188
Q29.5938 -1.42188 25.2656 0.953125
Q20.9531 3.32812 18.1094 8.20312
M48.6875 27.2969
Q48.6875 37.2031 44.6094 42.8438
Q40.5312 48.4844 33.4062 48.4844
Q26.2656 48.4844 22.1875 42.8438
Q18.1094 37.2031 18.1094 27.2969
Q18.1094 17.3906 22.1875 11.75
Q26.2656 6.10938 33.4062 6.10938
Q40.5312 6.10938 44.6094 11.75
Q48.6875 17.3906 48.6875 27.2969" id="BitstreamVeraSans-Roman-70"/>
     <path d="
M10.2031 23
Q9.375 23 8.82812 23.625
Q8.29688 24.2656 8.29688 25
Q8.29688 25.7344 8.82812 26.3594
Q9.375 27 10.2031 27
L67.5781 27
Q68.3594 27 68.875 26.3594
Q69.3906 25.7344 69.3906 25
Q69.3906 24.2656 68.875 23.625
Q68.3594 23 67.5781 23
z
" id="Cmsy10-a1"/>
     <path d="
M9.8125 72.9062
L19.6719 72.9062
L19.6719 43.0156
L55.5156 43.0156
L55.5156 72.9062
L65.375 72.9062
L65.375 0
L55.5156 0
L55.5156 34.7188
L19.6719 34.7188
L19.6719 0
L9.8125 0
z
" id="BitstreamVeraSans-Roman-48"/>
     <path d="
M53.5156 70.5156
L53.5156 60.8906
Q47.9062 63.5781 42.9219 64.8906
Q37.9375 66.2188 33.2969 66.2188
Q25.25 66.2188 20.875 63.0938
Q16.5 59.9688 16.5 54.2031
Q16.5 49.3594 19.4062 46.8906
Q22.3125 44.4375 30.4219 42.9219
L36.375 41.7031
Q47.4062 39.5938 52.6562 34.2969
Q57.9062 29 57.9062 20.125
Q57.9062 9.51562 50.7969 4.04688
Q43.7031 -1.42188 29.9844 -1.42188
Q24.8125 -1.42188 18.9688 -0.25
Q13.1406 0.921875 6.89062 3.21875
L6.89062 13.375
Q12.8906 10.0156 18.6562 8.29688
Q24.4219 6.59375 29.9844 6.59375
Q38.4219 6.59375 43.0156 9.90625
Q47.6094 13.2344 47.6094 19.3906
Q47.6094 24.75 44.3125 27.7812
Q41.0156 30.8125 33.5 32.3281
L27.4844 33.5
Q16.4531 35.6875 11.5156 40.375
Q6.59375 45.0625 6.59375 53.4219
Q6.59375 63.0938 13.4062 68.6562
Q20.2188 74.2188 32.1719 74.2188
Q37.3125 74.2188 42.625 73.2812
Q47.9531 72.3594 53.5156 70.5156" id="BitstreamVeraSans-Roman-53"/>
     <path d="
M45.4062 46.3906
L45.4062 75.9844
L54.3906 75.9844
L54.3906 0
L45.4062 0
L45.4062 8.20312
Q42.5781 3.32812 38.25 0.953125
Q33.9375 -1.42188 27.875 -1.42188
Q17.9688 -1.42188 11.7344 6.48438
Q5.51562 14.4062 5.51562 27.2969
Q5.51562 40.1875 11.7344 48.0938
Q17.9688 56 27.875 56
Q33.9375 56 38.25 53.625
Q42.5781 51.2656 45.4062 46.3906
M14.7969 27.2969
Q14.7969 17.3906 18.875 11.75
Q22.9531 6.10938 30.0781 6.10938
Q37.2031 6.10938 41.2969 11.75
Q45.4062 17.3906 45.4062 27.2969
Q45.4062 37.2031 41.2969 42.8438
Q37.2031 48.4844 30.0781 48.4844
Q22.9531 48.4844 18.875 42.8438
Q14.7969 37.2031 14.7969 27.2969" id="BitstreamVeraSans-Roman-64"/>
     <path d="
M8.40625 5.51562
Q8.40625 7.76562 10.0625 9.375
Q11.7188 10.9844 13.9219 10.9844
Q15.2812 10.9844 16.5938 10.25
Q17.9219 9.51562 18.6562 8.20312
Q19.3906 6.89062 19.3906 5.51562
Q19.3906 3.32812 17.7656 1.65625
Q16.1562 0 13.9219 0
Q11.7188 0 10.0625 1.65625
Q8.40625 3.32812 8.40625 5.51562" id="Cmmi10-3a"/>
     <path d="
M44.2812 53.0781
L44.2812 44.5781
Q40.4844 46.5312 36.375 47.5
Q32.2812 48.4844 27.875 48.4844
Q21.1875 48.4844 17.8438 46.4375
Q14.5 44.3906 14.5 40.2812
Q14.5 37.1562 16.8906 35.375
Q19.2812 33.5938 26.5156 31.9844
L29.5938 31.2969
Q39.1562 29.25 43.1875 25.5156
Q47.2188 21.7812 47.2188 15.0938
Q47.2188 7.46875 41.1875 3.01562
Q35.1562 -1.42188 24.6094 -1.42188
Q20.2188 -1.42188 15.4531 -0.5625
Q10.6875 0.296875 5.42188 2
L5.42188 11.2812
Q10.4062 8.6875 15.2344 7.39062
Q20.0625 6.10938 24.8125 6.10938
Q31.1562 6.10938 34.5625 8.28125
Q37.9844 10.4531 37.9844 14.4062
Q37.9844 18.0625 35.5156 20.0156
Q33.0625 21.9688 24.7031 23.7812
L21.5781 24.5156
Q13.2344 26.2656 9.51562 29.9062
Q5.8125 33.5469 5.8125 39.8906
Q5.8125 47.6094 11.2812 51.7969
Q16.75 56 26.8125 56
Q31.7812 56 36.1719 55.2656
Q40.5781 54.5469 44.2812 53.0781" id="BitstreamVeraSans-Roman-73"/>
     <path d="
M6.20312 8.10938
Q6.20312 9.57812 6.5 10.8906
L13.7188 39.5938
L3.21875 39.5938
Q2.20312 39.5938 2.20312 40.9219
Q2.59375 43.1094 3.51562 43.1094
L14.5938 43.1094
L18.6094 59.4219
Q19 60.75 20.1719 61.6719
Q21.3438 62.5938 22.7969 62.5938
Q24.0781 62.5938 24.9219 61.8281
Q25.7812 61.0781 25.7812 59.8125
Q25.7812 59.5156 25.75 59.3438
Q25.7344 59.1875 25.6875 58.9844
L21.6875 43.1094
L31.9844 43.1094
Q33.0156 43.1094 33.0156 41.7969
Q32.9531 41.5469 32.8125 40.9531
Q32.6719 40.375 32.4219 39.9844
Q32.1719 39.5938 31.6875 39.5938
L20.7969 39.5938
L13.625 10.6875
Q12.8906 7.85938 12.8906 5.8125
Q12.8906 1.51562 15.8281 1.51562
Q20.2188 1.51562 23.6094 5.64062
Q27 9.76562 28.8125 14.7031
Q29.2031 15.2812 29.5938 15.2812
L30.8125 15.2812
Q31.2031 15.2812 31.4375 15.0156
Q31.6875 14.75 31.6875 14.4062
Q31.6875 14.2031 31.5938 14.1094
Q29.3906 8.0625 25.1875 3.46875
Q21 -1.125 15.5781 -1.125
Q11.625 -1.125 8.90625 1.45312
Q6.20312 4.04688 6.20312 8.10938" id="Cmmi10-74"/>
    </defs>
    <g transform="translate(34.8765625 16.32)scale(0.12 -0.12)">
     <use transform="translate(0.0 0.015625)" xlink:href="#BitstreamVeraSans-Roman-34"/>
     <use transform="translate(63.623046875 0.015625)" xlink:href="#BitstreamVeraSans-Roman-30"/>
     <use transform="translate(127.24609375 0.015625)" xlink:href="#BitstreamVeraSans-Roman-20"/>
     <use transform="translate(159.033203125 0.015625)" xlink:href="#BitstreamVeraSans-Roman-48"/>
     <use transform="translate(234.228515625 0.015625)" xlink:href="#BitstreamVeraSans-Roman-61"/>
     <use transform="translate(295.5078125 0.015625)" xlink:href="#BitstreamVeraSans-Roman-72"/>
     <use transform="translate(336.62109375 0.015625)" xlink:href="#BitstreamVeraSans-Roman-64"/>
     <use transform="translate(400.09765625 0.015625)" xlink:href="#BitstreamVeraSans-Roman-20"/>
     <use transform="translate(431.884765625 0.015625)" xlink:href="#BitstreamVeraSans-Roman-53"/>
     <use transform="translate(495.361328125 0.015625)" xlink:href="#BitstreamVeraSans-Roman-70"/>
     <use transform="translate(558.837890625 0.015625)" xlink:href="#BitstreamVeraSans-Roman-68"/>
     <use transform="translate(622.216796875 0.015625)" xlink:href="#BitstreamVeraSans-Roman-65"/>
     <use transform="translate(683.740234375 0.015625)" xlink:href="#BitstreamVeraSans-Roman-72"/>
     <use transform="translate(724.853515625 0.015625)" xlink:href="#BitstreamVeraSans-Roman-65"/>
     <use transform="translate(786.376953125 0.015625)" xlink:href="#BitstreamVeraSans-Roman-73"/>
     <use transform="translate(838.4765625 0.015625)" xlink:href="#BitstreamVeraSans-Roman-2c"/>
     <use transform="translate(870.263671875 0.015625)" xlink:href="#BitstreamVeraSans-Roman-20"/>
     <use transform="translate(902.05078125 0.015625)" xlink:href="#BitstreamVeraSans-Roman-61"/>
     <use transform="translate(963.330078125 0.015625)" xlink:href="#BitstreamVeraSans-Roman-74"/>
     <use transform="translate(1002.5390625 0.015625)" xlink:href="#BitstreamVeraSans-Roman-20"/>
     <use transform="translate(1034.326171875 0.015625)" xlink:href="#Cmr10-a2"/>
     <use transform="translate(1117.626953125 0.015625)" xlink:href="#Cmmi10-c1"/>
     <use transform="translate(1194.70703125 0.015625)" xlink:href="#Cmr10-3d"/>
     <use transform="translate(1278.765625 0.015625)" xlink:href="#Cmsy10-a1"/>
     <use transform="translate(1356.451171875 0.015625)" xlink:href="#Cmr10-30"/>
     <use transform="translate(1406.451171875 0.015625)" xlink:href="#Cmmi10-3a"/>
     <use transform="translate(1434.994140625 0.015625)" xlink:href="#Cmr10-30"/>
     <use transform="translate(1484.994140625 0.015625)" xlink:href="#Cmr10-30"/>
     <use transform="translate(1534.994140625 0.015625)" xlink:href="#Cmr10-30"/>
     <use transform="translate(1584.994140625 0.015625)" xlink:href="#Cmr10-32"/>
     <use transform="translate(1634.994140625 0.015625)" xlink:href="#BitstreamVeraSans-Roman-2c"/>
     <use transform="translate(1666.78125 0.015625)" xlink:href="#BitstreamVeraSans-Roman-20"/>
     <use transform="translate(1698.568359375 0.015625)" xlink:href="#Cmmi10-74"/>
     <use transform="translate(1752.2109375 0.015625)" xlink:href="#Cmr10-3d"/>
     <use transform="translate(1836.26953125 0.015625)" xlink:href="#Cmr10-31"/>
     <use transform="translate(1886.26953125 0.015625)" xlink:href="#Cmr10-30"/>
     <use transform="translate(1936.26953125 0.015625)" xlink:href="#Cmr10-30"/>
    </g>
   </g>
   <g id="legend_1">
    <g id="patch_7">
     <path d="
M46.6616 79.808
L115.967 79.808
L115.967 25.485
L46.6616 25.485
z
" style="fill:#ffffff;stroke:#000000;stroke-linejoin:miter;"/>
    </g>
    <g id="text_18">
     <!-- $\Delta t$ -->
     <g transform="translate(75.3143625 36.4154375)scale(0.1 -0.1)">
      <use transform="translate(0.0 0.421875)" xlink:href="#Cmr10-a2"/>
      <use transform="translate(83.30078125 0.421875)" xlink:href="#Cmmi10-74"/>
     </g>
    </g>
    <g id="line2d_144">
     <path d="
M52.4926 46.0741
L64.1546 46.0741" style="fill:none;stroke:#4daf4a;stroke-linecap:square;stroke-width:2.0;"/>
    </g>
    <g id="line2d_145"/>
    <g id="text_19">
     <!-- 1, $\alpha_2=4.4$ -->
     <defs>
      <path d="
M20.125 -1.125
Q15.375 -1.125 11.6875 1.125
Q8.01562 3.375 6 7.17188
Q4 10.9844 4 15.8281
Q4 22.6094 7.78125 29.25
Q11.5781 35.8906 17.8438 40.0312
Q24.125 44.1875 31 44.1875
Q36.0781 44.1875 39.9375 41.5312
Q43.7969 38.875 45.7969 34.4531
Q47.7969 30.0312 47.7969 25
L47.9062 18.3125
Q51.3125 23.0469 53.6875 28.1406
Q56.0625 33.25 57.3281 38.7188
Q57.5156 39.3125 58.1094 39.3125
L59.2812 39.3125
Q60.2031 39.3125 60.2031 38.375
Q60.2031 38.2812 60.1094 38.0938
Q58.9375 33.5 57.1719 29.2656
Q55.4219 25.0469 53.0469 21.0938
Q50.6875 17.1406 47.9062 13.9219
Q47.9062 1.51562 50.7812 1.51562
Q52.6406 1.51562 53.8281 2.60938
Q55.0312 3.71875 55.9375 5.32812
Q56.8438 6.9375 57.0781 6.98438
L58.2969 6.98438
Q59.0781 6.98438 59.0781 6
Q59.0781 3.51562 56.2188 1.1875
Q53.375 -1.125 50.5938 -1.125
Q46.9688 -1.125 44.5781 1.21875
Q42.1875 3.5625 41.3125 7.32812
Q36.625 3.32812 31.1562 1.09375
Q25.6875 -1.125 20.125 -1.125
M20.3125 1.51562
Q31 1.51562 40.8281 10.2969
Q40.7656 10.8906 40.6719 11.7344
Q40.5781 12.5938 40.5781 12.7031
L40.5781 23.4844
Q40.5781 41.6094 30.8125 41.6094
Q24.9531 41.6094 20.5469 36.5938
Q16.1562 31.5938 13.9375 24.625
Q11.7188 17.6719 11.7188 11.9219
Q11.7188 7.5625 13.9375 4.53125
Q16.1562 1.51562 20.3125 1.51562" id="Cmmi10-ae"/>
      <path d="
M2.78125 16.5
L2.78125 20.0156
L33.6875 66.1094
Q34.0312 66.6094 34.7188 66.6094
L36.1875 66.6094
Q37.3125 66.6094 37.3125 65.4844
L37.3125 20.0156
L47.125 20.0156
L47.125 16.5
L37.3125 16.5
L37.3125 6.6875
Q37.3125 4.64062 40.2344 4.07812
Q43.1719 3.51562 47.0156 3.51562
L47.0156 0
L19.4844 0
L19.4844 3.51562
Q23.3438 3.51562 26.2656 4.07812
Q29.2031 4.64062 29.2031 6.6875
L29.2031 16.5
z

M6.10938 20.0156
L29.7812 20.0156
L29.7812 55.4219
z
" id="Cmr10-34"/>
     </defs>
     <g transform="translate(73.3175625 48.9896234375)scale(0.0833 -0.0833)">
      <use transform="translate(0.0 0.09375)" xlink:href="#BitstreamVeraSans-Roman-31"/>
      <use transform="translate(63.623046875 0.09375)" xlink:href="#BitstreamVeraSans-Roman-2c"/>
      <use transform="translate(95.41015625 0.09375)" xlink:href="#BitstreamVeraSans-Roman-20"/>
      <use transform="translate(127.197265625 0.09375)" xlink:href="#Cmmi10-ae"/>
      <use transform="translate(191.11328125 -25.415625000000006)scale(0.7)" xlink:href="#Cmr10-32"/>
      <use transform="translate(258.671875 0.09375)" xlink:href="#Cmr10-3d"/>
      <use transform="translate(342.73046875 0.09375)" xlink:href="#Cmr10-34"/>
      <use transform="translate(392.73046875 0.09375)" xlink:href="#Cmmi10-3a"/>
      <use transform="translate(421.2734375 0.09375)" xlink:href="#Cmr10-34"/>
     </g>
    </g>
    <g id="line2d_146">
     <path d="
M52.4926 58.7344
L64.1546 58.7344" style="fill:none;stroke:#994ea2;stroke-linecap:square;stroke-width:2.0;"/>
    </g>
    <g id="line2d_147"/>
    <g id="text_20">
     <!-- 2, $\alpha_2=4.3$ -->
     <defs>
      <path d="
M9.51562 7.71875
Q11.8594 4.29688 15.8125 2.64062
Q19.7812 0.984375 24.3125 0.984375
Q30.125 0.984375 32.5625 5.9375
Q35.0156 10.8906 35.0156 17.1875
Q35.0156 20.0156 34.5 22.8438
Q33.9844 25.6875 32.7656 28.125
Q31.5469 30.5625 29.4219 32.0312
Q27.2969 33.5 24.2188 33.5
L17.5781 33.5
Q16.7031 33.5 16.7031 34.4219
L16.7031 35.2969
Q16.7031 36.0781 17.5781 36.0781
L23.0938 36.5312
Q26.6094 36.5312 28.9219 39.1562
Q31.25 41.7969 32.3281 45.5781
Q33.4062 49.3594 33.4062 52.7812
Q33.4062 57.5625 31.1562 60.6406
Q28.9062 63.7188 24.3125 63.7188
Q20.5156 63.7188 17.0469 62.2812
Q13.5781 60.8438 11.5312 57.9062
Q11.7188 57.9531 11.8594 57.9844
Q12.0156 58.0156 12.2031 58.0156
Q14.4531 58.0156 15.9688 56.4531
Q17.4844 54.8906 17.4844 52.6875
Q17.4844 50.5312 15.9688 48.9688
Q14.4531 47.4062 12.2031 47.4062
Q10.0156 47.4062 8.45312 48.9688
Q6.89062 50.5312 6.89062 52.6875
Q6.89062 56.9844 9.46875 60.1562
Q12.0625 63.3281 16.1406 64.9688
Q20.2188 66.6094 24.3125 66.6094
Q27.3438 66.6094 30.7031 65.7031
Q34.0781 64.7969 36.8125 63.1094
Q39.5469 61.4219 41.2812 58.7812
Q43.0156 56.1562 43.0156 52.7812
Q43.0156 48.5781 41.1406 45.0156
Q39.2656 41.4531 35.9844 38.8594
Q32.7188 36.2812 28.8125 35.0156
Q33.1562 34.1875 37.0625 31.7344
Q40.9688 29.2969 43.3281 25.4844
Q45.7031 21.6875 45.7031 17.2812
Q45.7031 11.7656 42.6719 7.29688
Q39.6562 2.82812 34.7188 0.3125
Q29.7812 -2.20312 24.3125 -2.20312
Q19.625 -2.20312 14.9062 -0.40625
Q10.2031 1.375 7.20312 4.9375
Q4.20312 8.5 4.20312 13.4844
Q4.20312 15.9688 5.85938 17.625
Q7.51562 19.2812 10.0156 19.2812
Q11.625 19.2812 12.9688 18.5312
Q14.3125 17.7812 15.0625 16.4062
Q15.8281 15.0469 15.8281 13.4844
Q15.8281 11.0312 14.1094 9.375
Q12.4062 7.71875 10.0156 7.71875
z
" id="Cmr10-33"/>
     </defs>
     <g transform="translate(73.3175625 61.649921875)scale(0.0833 -0.0833)">
      <use transform="translate(0.0 0.78125)" xlink:href="#BitstreamVeraSans-Roman-32"/>
      <use transform="translate(63.623046875 0.78125)" xlink:href="#BitstreamVeraSans-Roman-2c"/>
      <use transform="translate(95.41015625 0.78125)" xlink:href="#BitstreamVeraSans-Roman-20"/>
      <use transform="translate(127.197265625 0.78125)" xlink:href="#Cmmi10-ae"/>
      <use transform="translate(191.11328125 -24.728125000000006)scale(0.7)" xlink:href="#Cmr10-32"/>
      <use transform="translate(258.671875 0.78125)" xlink:href="#Cmr10-3d"/>
      <use transform="translate(342.73046875 0.78125)" xlink:href="#Cmr10-34"/>
      <use transform="translate(392.73046875 0.78125)" xlink:href="#Cmmi10-3a"/>
      <use transform="translate(421.2734375 0.78125)" xlink:href="#Cmr10-33"/>
     </g>
    </g>
    <g id="line2d_148">
     <path d="
M52.4926 71.3947
L64.1546 71.3947" style="fill:none;stroke:#ff7f00;stroke-linecap:square;stroke-width:2.0;"/>
    </g>
    <g id="line2d_149"/>
    <g id="text_21">
     <!-- 3, $\alpha_2=7.8$ -->
     <defs>
      <path d="
M17.3906 2.59375
Q17.3906 8.15625 18.3594 13.4688
Q19.3438 18.7969 21.2188 24
Q23.0938 29.2031 25.75 34.2031
Q28.4219 39.2031 31.5938 43.6094
L40.7188 56.2969
L29.2969 56.2969
Q11.5312 56.2969 10.9844 55.8125
Q9.67188 54.2031 8.5 46.5781
L5.60938 46.5781
L8.89062 67.5781
L11.8125 67.5781
L11.8125 67.2812
Q11.8125 65.4844 17.9219 64.9375
Q24.0312 64.4062 29.8906 64.4062
L48.4844 64.4062
L48.4844 61.8125
Q48.4844 61.7188 48.4531 61.6719
Q48.4375 61.625 48.3906 61.5312
L34.625 42.1875
Q29.5469 34.6719 28.2656 25.4844
Q27 16.3125 27 2.59375
Q27 0.640625 25.5781 -0.78125
Q24.1719 -2.20312 22.2188 -2.20312
Q20.2188 -2.20312 18.7969 -0.78125
Q17.3906 0.640625 17.3906 2.59375" id="Cmr10-37"/>
      <path d="
M4.20312 15.1875
Q4.20312 21.1875 8.15625 25.7969
Q12.1094 30.4219 18.3125 33.5
L14.5938 35.8906
Q11.1875 38.1406 9.03125 41.875
Q6.89062 45.6094 6.89062 49.7031
Q6.89062 54.5 9.40625 58.3438
Q11.9219 62.2031 16.0938 64.4062
Q20.2656 66.6094 25 66.6094
Q29.4375 66.6094 33.5625 64.7969
Q37.7031 62.9844 40.3594 59.6094
Q43.0156 56.25 43.0156 51.6094
Q43.0156 48.25 41.4219 45.3594
Q39.8438 42.4844 37.0781 40.1875
Q34.3281 37.8906 31.2031 36.2812
L36.9219 32.625
Q40.875 30.0312 43.2812 25.8281
Q45.7031 21.625 45.7031 17
Q45.7031 11.5781 42.7969 7.125
Q39.8906 2.6875 35.1094 0.234375
Q30.3281 -2.20312 25 -2.20312
Q19.8281 -2.20312 15.0156 -0.09375
Q10.2031 2 7.20312 5.98438
Q4.20312 9.96875 4.20312 15.1875
M9.625 15.1875
Q9.625 11.2344 11.7969 7.95312
Q13.9688 4.6875 17.5312 2.82812
Q21.0938 0.984375 25 0.984375
Q30.8125 0.984375 35.5469 4.375
Q40.2812 7.76562 40.2812 13.375
Q40.2812 15.2812 39.5156 17.1562
Q38.7656 19.0469 37.4219 20.5781
Q36.0781 22.125 34.4219 23.0938
L21 31.7812
Q17.875 30.125 15.25 27.5781
Q12.6406 25.0469 11.125 21.875
Q9.625 18.7031 9.625 15.1875
M16.5 45.7031
L28.6094 37.8906
Q32.8125 40.3281 35.5 43.7969
Q38.1875 47.2656 38.1875 51.6094
Q38.1875 54.9844 36.2969 57.7812
Q34.4219 60.5938 31.3906 62.1562
Q28.375 63.7188 24.9062 63.7188
Q21.875 63.7188 18.7969 62.5469
Q15.7188 61.375 13.7188 59.0469
Q11.7188 56.7344 11.7188 53.6094
Q11.7188 48.9219 16.5 45.7031" id="Cmr10-38"/>
     </defs>
     <g transform="translate(73.3175625 74.3102203125)scale(0.0833 -0.0833)">
      <use transform="translate(0.0 0.78125)" xlink:href="#BitstreamVeraSans-Roman-33"/>
      <use transform="translate(63.623046875 0.78125)" xlink:href="#BitstreamVeraSans-Roman-2c"/>
      <use transform="translate(95.41015625 0.78125)" xlink:href="#BitstreamVeraSans-Roman-20"/>
      <use transform="translate(127.197265625 0.78125)" xlink:href="#Cmmi10-ae"/>
      <use transform="translate(191.11328125 -24.728125000000006)scale(0.7)" xlink:href="#Cmr10-32"/>
      <use transform="translate(258.671875 0.78125)" xlink:href="#Cmr10-3d"/>
      <use transform="translate(342.73046875 0.78125)" xlink:href="#Cmr10-37"/>
      <use transform="translate(392.73046875 0.78125)" xlink:href="#Cmmi10-3a"/>
      <use transform="translate(421.2734375 0.78125)" xlink:href="#Cmr10-38"/>
     </g>
    </g>
   </g>
  </g>
 </g>
 <defs>
  <clipPath id="p1b866bbbbd">
   <rect height="172.8" width="223.2" x="42.4965625" y="21.32"/>
  </clipPath>
 </defs>
</svg>
