<?xml version="1.0" encoding="utf-8" standalone="no"?>
<!DOCTYPE svg PUBLIC "-//W3C//DTD SVG 1.1//EN"
  "http://www.w3.org/Graphics/SVG/1.1/DTD/svg11.dtd">
<!-- Created with matplotlib (http://matplotlib.org/) -->
<svg height="232pt" version="1.1" viewBox="0 0 282 232" width="282pt" xmlns="http://www.w3.org/2000/svg" xmlns:xlink="http://www.w3.org/1999/xlink">
 <defs>
  <style type="text/css">
*{stroke-linecap:butt;stroke-linejoin:round;}
  </style>
 </defs>
 <g id="figure_1">
  <g id="patch_1">
   <path d="
M0 232.608
L282.547 232.608
L282.547 2.84217e-14
L0 2.84217e-14
z
" style="fill:#ffffff;"/>
  </g>
  <g id="axes_1">
   <g id="patch_2">
    <path d="
M42.4966 194.094
L265.697 194.094
L265.697 21.2937
L42.4966 21.2937
z
" style="fill:#ffffff;"/>
   </g>
   <g id="line2d_1">
    <path clip-path="url(#pfb350f5826)" d="
M41.6064 194.094
L42.9872 194.094
L44.3681 193.803
L45.7489 194.094
L47.1298 194.094
L48.5106 193.512
L49.8915 194.094
L51.2724 193.512
L52.6532 193.803
L54.0341 193.803
L55.4149 194.094
L56.7958 193.803
L58.1767 194.094
L59.5575 194.094
L60.9384 193.803
L62.3192 193.803
L63.7001 193.221
L65.081 193.803
L66.4618 193.512
L67.8427 193.512
L69.2235 193.803
L70.6044 192.93
L71.9853 193.221
L73.3661 193.803
L74.747 192.93
L76.1278 192.93
L77.5087 192.057
L78.8896 192.639
L80.2704 190.893
L81.6513 192.348
L83.0321 191.475
L84.413 191.766
L85.7938 189.438
L87.1747 190.02
L88.5556 189.729
L89.9364 190.311
L91.3173 188.274
L92.6981 189.438
L94.079 186.529
L95.4599 187.111
L96.8407 185.656
L98.2216 183.328
L99.6024 184.201
L100.983 182.164
L102.364 180.418
L103.745 177.509
L105.126 172.562
L106.507 180.127
L107.888 175.181
L110.649 167.325
L112.03 162.379
L113.411 166.743
L114.792 161.506
L116.173 150.449
L117.554 150.74
L118.934 146.376
L120.315 134.155
L121.696 138.229
L123.077 131.246
L124.458 128.336
L125.839 116.697
L127.22 110.587
L128.6 106.223
L129.981 104.186
L131.362 94.0022
L132.743 77.9992
L134.124 86.1462
L135.505 81.7817
L136.886 67.5245
L138.267 69.5612
L139.647 65.7787
L141.028 56.7588
L142.409 48.6118
L143.79 52.9763
L145.171 46.2841
L146.552 37.8462
L147.933 52.1034
L149.313 61.4143
L150.694 62.8691
L152.075 52.9763
L153.456 55.304
L154.837 65.1968
L156.218 62.8691
L157.599 73.6347
L158.979 66.0697
L160.36 82.9456
L161.741 80.9088
L164.503 103.604
L165.884 106.514
L167.265 101.858
L168.645 119.025
L170.026 118.152
L171.407 126.881
L172.788 128.918
L174.169 132.7
L175.55 134.446
L176.931 136.483
L178.311 143.757
L179.692 142.884
L181.073 146.667
L182.454 151.613
L183.835 149.285
L185.216 148.994
L186.597 144.339
L187.977 142.593
L189.358 141.138
L190.739 150.158
L192.12 140.265
L193.501 134.737
L194.882 139.393
L196.263 139.393
L197.643 145.212
L199.024 158.014
L201.786 166.452
L203.167 169.071
L204.548 175.472
L205.929 176.345
L207.309 179.837
L208.69 181.873
L210.071 185.947
L211.452 185.365
L212.833 189.729
L214.214 188.274
L216.975 192.348
L218.356 192.348
L219.737 193.221
L223.88 194.094
L225.261 194.094
L226.642 193.512
L228.022 193.803
L228.022 194.094
L228.022 194.094" style="fill:none;stroke:#4daf4a;stroke-linecap:square;stroke-width:0.8;"/>
   </g>
   <g id="line2d_2">
    <path clip-path="url(#pfb350f5826)" d="
M-1 194.094
L67.8424 193.984
L74.3929 193.736
L78.7103 193.36
L82.1344 192.84
L84.963 192.186
L87.345 191.42
L89.5781 190.473
L91.6623 189.343
L93.5977 188.042
L95.5331 186.458
L97.3196 184.71
L99.1061 182.655
L100.893 180.263
L102.679 177.507
L104.614 174.082
L106.55 170.177
L108.485 165.78
L110.569 160.492
L112.803 154.212
L115.333 146.387
L118.162 136.896
L122.033 123.065
L128.285 100.683
L130.965 91.9378
L133.198 85.3811
L135.134 80.3722
L136.771 76.6925
L138.26 73.8304
L139.749 71.4531
L141.089 69.7413
L142.28 68.5648
L143.471 67.7136
L144.513 67.2334
L145.555 66.9961
L146.597 66.996
L147.639 67.2259
L148.681 67.677
L149.872 68.4506
L151.063 69.4836
L152.403 70.9335
L153.892 72.8698
L155.678 75.5931
L157.614 78.9623
L159.996 83.5895
L162.824 89.5934
L166.695 98.3742
L173.543 114.572
L183.369 137.707
L188.282 148.723
L192.153 156.869
L195.428 163.249
L198.256 168.296
L200.936 172.631
L203.467 176.298
L205.849 179.36
L208.082 181.888
L210.315 184.094
L212.548 185.993
L214.782 187.606
L217.015 188.957
L219.397 190.14
L221.927 191.144
L224.607 191.965
L227.585 192.642
L231.009 193.183
L235.028 193.586
L240.239 193.869
L247.832 194.033
L263.315 194.091
L265.697 194.092
L265.697 194.092" style="fill:none;stroke:#4daf4a;stroke-linecap:square;stroke-width:2;"/>
   </g>
   <g id="line2d_3">
    <path clip-path="url(#pfb350f5826)" d="
M9.04648 194.094
L10.5404 193.836
L12.0342 194.094
L41.9116 194.094
L43.4055 193.836
L44.8993 194.094
L49.3809 194.094
L50.8748 193.836
L52.3687 194.094
L55.3564 194.094
L58.3442 193.577
L61.3319 194.094
L62.8258 193.836
L64.3196 194.094
L65.8135 194.094
L67.3074 193.836
L68.8012 193.836
L70.2951 193.319
L71.789 194.094
L73.2828 193.836
L74.7767 193.061
L76.2706 193.061
L77.7644 193.577
L79.2583 190.996
L80.7522 190.479
L82.2461 192.028
L83.7399 191.254
L85.2338 192.028
L86.7277 192.545
L88.2215 190.737
L89.7154 190.737
L91.2093 188.156
L92.7031 188.156
L94.197 188.672
L95.6909 188.672
L97.1847 186.607
L98.6786 187.381
L100.172 185.316
L101.666 186.349
L103.16 181.443
L104.654 181.185
L106.148 179.894
L107.642 175.763
L109.136 173.698
L110.63 172.407
L112.123 167.244
L113.617 164.662
L115.111 163.629
L116.605 159.499
L118.099 158.208
L119.593 151.237
L121.087 143.492
L122.581 149.946
L124.074 136.263
L125.568 128.518
L127.062 132.132
L128.556 120.772
L130.05 124.645
L131.544 113.027
L133.038 107.606
L134.531 94.1806
L136.025 90.308
L137.519 90.5662
L139.013 80.2393
L140.507 80.4974
L142.001 74.8176
L143.495 70.945
L144.989 57.0036
L146.482 63.7162
L147.976 64.4907
L149.47 66.8142
L150.964 67.3306
L152.458 63.7162
L153.952 77.3993
L155.446 80.2393
L156.939 76.6248
L158.433 83.8537
L159.927 87.9845
L161.421 101.409
L162.915 94.9551
L164.409 103.217
L165.903 105.798
L167.397 107.089
L168.89 113.802
L170.384 124.903
L171.878 123.871
L173.372 131.874
L174.866 123.612
L176.36 126.194
L177.854 125.936
L179.348 135.23
L180.841 134.714
L182.335 128.518
L183.829 131.358
L185.323 141.685
L186.817 128.776
L188.311 120.514
L189.805 122.063
L191.298 121.031
L192.792 114.576
L194.286 116.125
L195.78 111.995
L197.274 129.55
L198.768 135.747
L200.262 140.652
L201.756 148.913
L203.249 147.623
L204.743 157.175
L206.237 161.564
L209.225 167.76
L210.719 168.276
L212.213 169.825
L213.707 178.603
L215.2 180.152
L216.694 183.509
L218.188 185.058
L219.682 188.672
L222.67 189.705
L224.164 191.254
L225.657 192.287
L227.151 192.545
L228.645 193.836
L230.139 193.836
L231.633 194.094
L233.127 193.577
L234.621 194.094
L236.115 194.094
L237.608 193.836
L237.608 194.094
L237.608 194.094" style="fill:none;stroke:#377eb8;stroke-linecap:square;stroke-width:0.8;"/>
   </g>
   <g id="line2d_4">
    <path clip-path="url(#pfb350f5826)" d="
M-1 194.094
L66.3537 193.985
L73.3508 193.742
L78.1148 193.363
L81.8366 192.844
L84.963 192.179
L87.6427 191.383
L90.0247 190.451
L92.2578 189.344
L94.3421 188.07
L96.4263 186.529
L98.3617 184.828
L100.297 182.84
L102.232 180.539
L104.168 177.903
L106.252 174.669
L108.336 171.013
L110.569 166.621
L112.951 161.408
L115.482 155.309
L118.311 147.896
L121.884 137.858
L132.007 108.949
L134.687 102.2
L136.92 97.1519
L138.856 93.2751
L140.642 90.1502
L142.28 87.6919
L143.917 85.6357
L145.406 84.1205
L146.746 83.0449
L148.086 82.239
L149.426 81.6967
L150.765 81.4097
L152.105 81.3677
L153.445 81.5586
L154.785 81.9694
L156.274 82.6666
L157.911 83.7032
L159.698 85.1262
L161.633 86.9746
L163.718 89.2788
L166.1 92.2575
L168.779 95.9875
L171.757 100.539
L174.883 105.725
L178.307 111.836
L182.029 118.939
L186.346 127.672
L193.344 142.43
L199.001 154.144
L202.723 161.338
L205.849 166.897
L208.678 171.465
L211.209 175.144
L213.591 178.239
L215.973 180.976
L218.354 183.363
L220.588 185.296
L222.821 186.953
L225.203 188.442
L227.585 189.673
L230.116 190.731
L232.795 191.613
L235.773 192.356
L239.048 192.943
L242.919 193.407
L247.683 193.745
L254.084 193.964
L264.654 194.073
L265.697 194.076
L265.697 194.076" style="fill:none;stroke:#377eb8;stroke-linecap:square;stroke-width:2;"/>
   </g>
   <g id="line2d_5">
    <path clip-path="url(#pfb350f5826)" d="
M43.8387 194.094
L45.0732 193.781
L46.3077 194.094
L52.48 194.094
L53.7145 193.781
L54.949 194.094
L56.1834 193.781
L58.6524 193.781
L59.8869 194.094
L61.1213 194.094
L62.3558 193.781
L63.5903 194.094
L64.8247 194.094
L66.0592 193.469
L68.5282 194.094
L69.7626 192.844
L70.9971 193.469
L73.466 194.094
L74.7005 193.156
L75.935 193.156
L77.1695 193.469
L78.4039 193.156
L79.6384 192.531
L82.1074 192.531
L83.3418 193.156
L87.0452 190.343
L88.2797 191.906
L89.5142 190.031
L91.9831 190.031
L93.2176 190.656
L94.4521 189.405
L95.6866 189.093
L96.921 190.656
L98.1555 190.343
L100.624 184.717
L101.859 186.592
L103.093 184.404
L104.328 185.03
L105.562 180.966
L106.797 178.153
L108.031 177.528
L109.266 181.904
L111.735 170.339
L112.969 172.215
L114.204 165.026
L115.438 168.464
L116.673 161.588
L117.907 157.837
L119.142 161.588
L120.376 148.773
L121.61 152.211
L122.845 149.398
L124.079 149.711
L125.314 137.521
L127.783 132.52
L129.017 133.458
L130.252 118.142
L131.486 118.767
L132.721 113.141
L133.955 108.766
L135.19 107.203
L136.424 109.703
L137.659 97.826
L138.893 91.2623
L140.128 102.202
L141.362 83.1358
L142.597 86.2613
L145.065 96.5758
L146.3 80.3228
L147.534 80.9479
L148.769 77.1972
L150.003 77.1972
L151.238 83.1358
L152.472 80.0102
L153.707 87.5116
L154.941 91.2623
L156.176 89.6995
L157.41 99.0762
L158.645 99.0762
L159.879 100.952
L161.114 95.9506
L162.348 89.0744
L163.583 104.39
L164.817 104.077
L166.052 102.514
L167.286 106.578
L168.52 117.205
L169.755 122.518
L170.989 122.518
L172.224 122.831
L173.458 122.831
L174.693 120.018
L175.927 131.895
L177.162 129.082
L178.396 128.457
L179.631 125.331
L180.865 126.581
L182.1 127.206
L183.334 130.019
L184.569 120.955
L185.803 122.518
L187.038 126.894
L188.272 127.206
L189.506 111.579
L190.741 113.766
L191.975 107.203
L193.21 96.2632
L194.444 97.5134
L195.679 100.326
L196.913 98.4511
L198.148 110.328
L199.382 111.579
L200.617 123.143
L201.851 122.518
L203.086 134.083
L204.32 128.457
L205.555 147.523
L206.789 151.898
L208.024 145.022
L209.258 153.149
L210.493 154.711
L214.196 165.964
L215.43 173.778
L216.665 175.028
L217.899 181.279
L219.134 180.029
L220.368 182.529
L221.603 184.717
L222.837 188.468
L224.072 187.843
L225.306 190.343
L226.541 189.718
L227.775 191.593
L229.01 192.218
L230.244 191.906
L231.479 190.968
L232.713 193.469
L232.713 194.094
L232.713 194.094" style="fill:none;stroke:#994ea2;stroke-linecap:square;stroke-width:0.8;"/>
   </g>
   <g id="line2d_6">
    <path clip-path="url(#pfb350f5826)" d="
M-1 194.094
L71.5643 193.983
L78.1148 193.734
L82.4321 193.36
L85.8562 192.845
L88.6849 192.202
L91.2157 191.398
L93.4488 190.461
L95.5331 189.351
L97.4684 188.081
L99.4038 186.546
L101.339 184.712
L103.275 182.546
L105.21 180.02
L107.145 177.11
L109.081 173.798
L111.165 169.774
L113.398 164.944
L115.78 159.235
L118.46 152.213
L121.884 142.561
L130.072 119.157
L132.603 112.761
L134.687 108.087
L136.474 104.594
L138.111 101.855
L139.6 99.7754
L140.94 98.2472
L142.28 97.0468
L143.471 96.2516
L144.662 95.705
L145.853 95.396
L147.044 95.3101
L148.384 95.4579
L149.723 95.8359
L151.212 96.4852
L152.999 97.5145
L155.381 99.1623
L161.187 103.295
L163.271 104.468
L165.206 105.312
L167.142 105.902
L169.077 106.251
L171.31 106.409
L174.734 106.377
L177.712 106.428
L179.647 106.688
L181.285 107.136
L182.774 107.774
L184.262 108.669
L185.751 109.849
L187.24 111.333
L188.728 113.134
L190.366 115.484
L192.153 118.476
L194.088 122.19
L196.321 127.011
L199.001 133.39
L202.872 143.276
L208.529 157.688
L211.506 164.63
L214.037 169.962
L216.27 174.165
L218.354 177.639
L220.439 180.677
L222.374 183.117
L224.309 185.21
L226.245 186.982
L228.18 188.462
L230.264 189.766
L232.349 190.81
L234.582 191.685
L237.113 192.428
L239.941 193.015
L243.217 193.46
L247.385 193.786
L253.042 193.987
L262.868 194.08
L265.697 194.087
L265.697 194.087" style="fill:none;stroke:#994ea2;stroke-linecap:square;stroke-width:2;"/>
   </g>
   <g id="line2d_7">
    <path clip-path="url(#pfb350f5826)" d="
M54.082 194.094
L59.046 194.094
L60.287 193.446
L62.7689 194.094
L66.4919 194.094
L67.7329 193.446
L68.9738 193.77
L70.2148 193.77
L71.4558 193.122
L72.6968 193.77
L73.9378 193.77
L75.1787 193.446
L76.4197 193.446
L77.6607 193.122
L78.9017 193.446
L80.1427 193.446
L81.3837 193.77
L83.8656 192.475
L86.3476 193.122
L87.5886 192.475
L88.8296 192.799
L90.0705 192.475
L91.3115 190.532
L92.5525 190.532
L93.7935 191.504
L95.0345 189.561
L96.2755 189.237
L97.5164 187.619
L98.7574 188.59
L99.9984 187.295
L101.239 188.266
L102.48 186.647
L103.721 186.647
L104.962 185.676
L106.203 186.324
L107.444 186.324
L108.685 180.496
L109.926 181.143
L111.167 175.963
L112.408 177.906
L113.649 176.611
L114.89 174.344
L116.131 170.783
L118.613 168.841
L119.854 169.164
L121.095 160.423
L122.336 159.775
L123.577 151.681
L124.818 158.804
L126.059 147.796
L127.3 142.94
L128.541 144.235
L129.782 141.968
L131.023 135.817
L132.264 138.731
L133.505 135.817
L134.746 126.104
L135.987 123.19
L137.228 127.723
L138.469 118.982
L139.71 108.621
L140.951 111.535
L142.192 116.068
L143.433 93.4045
L145.915 113.801
L147.156 103.441
L148.397 100.527
L150.879 92.757
L152.12 103.117
L153.361 96.6421
L154.602 92.1095
L155.843 111.211
L157.084 100.527
L158.325 107.002
L159.566 115.42
L160.807 116.068
L162.048 109.593
L163.289 115.096
L164.53 121.572
L165.771 120.277
L167.012 112.83
L168.252 126.752
L169.493 123.838
L170.734 119.629
L171.975 124.809
L173.216 122.867
L174.457 132.579
L175.698 136.465
L176.939 126.104
L178.18 134.846
L179.421 127.723
L180.662 126.428
L181.903 124.162
L183.144 121.572
L184.385 118.334
L185.626 126.428
L186.867 104.736
L188.108 108.621
L189.349 100.527
L190.59 83.0442
L191.831 81.4254
L193.072 85.6343
L194.313 77.2166
L195.554 64.2662
L196.795 82.3967
L198.036 72.6839
L200.518 91.462
L201.759 93.4045
L203 107.326
L204.241 110.564
L205.482 115.744
L206.723 127.399
L207.964 127.076
L209.205 126.104
L210.446 131.284
L211.687 134.846
L212.928 139.702
L214.169 142.616
L215.41 152.005
L216.651 157.185
L217.892 159.128
L219.133 164.308
L220.374 173.697
L221.615 166.25
L222.856 176.934
L224.097 177.258
L225.338 176.934
L226.579 186.324
L227.82 184.057
L229.061 186.971
L230.302 188.59
L231.543 189.237
L232.784 192.151
L234.025 191.827
L235.266 192.475
L236.507 192.151
L237.748 194.094
L240.23 193.446
L240.23 194.094
L240.23 194.094" style="fill:none;stroke:#e41b1c;stroke-linecap:square;stroke-width:0.8;"/>
   </g>
   <g id="line2d_8">
    <path clip-path="url(#pfb350f5826)" d="
M-1 194.094
L74.3929 193.985
L80.9434 193.745
L85.4096 193.37
L88.8337 192.872
L91.8112 192.214
L94.3421 191.432
L96.7241 190.456
L98.8083 189.371
L100.893 188.032
L102.828 186.527
L104.763 184.74
L106.699 182.644
L108.634 180.214
L110.569 177.432
L112.654 174.029
L114.738 170.203
L116.971 165.649
L119.502 159.971
L122.479 152.715
L127.243 140.401
L131.412 129.833
L133.943 123.978
L136.027 119.681
L137.813 116.474
L139.451 113.979
L140.94 112.117
L142.28 110.791
L143.471 109.9
L144.662 109.282
L145.853 108.936
L146.895 108.852
L148.086 108.998
L149.277 109.388
L150.468 110.004
L151.808 110.938
L153.445 112.371
L155.529 114.535
L162.08 121.627
L163.569 122.817
L164.909 123.621
L166.1 124.084
L167.142 124.273
L168.184 124.245
L169.226 123.989
L170.268 123.498
L171.31 122.77
L172.501 121.651
L173.841 120.038
L175.33 117.841
L176.967 114.997
L179.052 110.886
L185.9 96.9091
L187.389 94.5416
L188.728 92.8275
L189.771 91.8144
L190.813 91.1127
L191.706 90.7773
L192.599 90.7002
L193.344 90.84
L194.237 91.258
L195.13 91.952
L196.023 92.9224
L197.065 94.4
L198.256 96.5318
L199.596 99.467
L201.085 103.341
L202.723 108.257
L204.658 114.785
L207.338 124.7
L214.93 153.345
L217.312 161.208
L219.397 167.336
L221.332 172.342
L223.118 176.366
L224.905 179.83
L226.543 182.538
L228.18 184.833
L229.818 186.752
L231.455 188.336
L233.093 189.627
L234.88 190.749
L236.815 191.684
L238.899 192.429
L241.281 193.026
L243.961 193.464
L247.385 193.786
L252.149 193.989
L260.486 194.081
L265.697 194.091
L265.697 194.091" style="fill:none;stroke:#e41b1c;stroke-linecap:square;stroke-width:2;"/>
   </g>
   <g id="line2d_9">
    <path clip-path="url(#pfb350f5826)" d="
M21.6259 194.094
L34.1983 194.094
L35.5953 193.852
L36.9922 194.094
L42.58 194.094
L43.9769 193.852
L45.3738 193.852
L46.7708 194.094
L48.1677 194.094
L49.5647 193.369
L50.9616 194.094
L53.7555 194.094
L55.1524 193.852
L56.5493 194.094
L57.9463 194.094
L59.3432 193.852
L60.7402 194.094
L63.534 194.094
L64.931 193.61
L67.7248 194.094
L69.1218 193.61
L70.5187 193.369
L71.9157 193.369
L73.3126 193.852
L76.1065 193.369
L77.5034 194.094
L78.9003 192.644
L80.2973 193.369
L81.6942 193.127
L83.0912 193.61
L85.885 192.644
L87.282 192.885
L88.6789 193.852
L90.0758 192.16
L91.4728 193.369
L94.2667 190.468
L95.6636 190.71
L97.0605 191.193
L98.4575 189.018
L99.8544 189.26
L101.251 189.018
L102.648 187.085
L104.045 187.568
L105.442 185.635
L106.839 186.601
L108.236 182.976
L109.633 186.36
L111.03 184.668
L112.427 177.659
L113.824 179.109
L116.618 177.175
L118.015 170.891
L119.412 168.958
L120.808 167.991
L122.205 163.157
L123.602 160.74
L124.999 164.607
L126.396 156.632
L127.793 157.357
L129.19 151.073
L130.587 147.931
L131.984 143.822
L133.381 137.296
L134.778 139.713
L136.175 130.287
L137.572 136.088
L138.969 125.695
L140.366 129.079
L141.763 123.762
L143.159 121.345
L144.556 115.302
L145.953 117.478
L147.35 120.861
L148.747 106.36
L150.144 114.577
L151.541 110.469
L152.938 114.336
L154.335 117.236
L155.732 120.62
L157.129 116.753
L158.526 113.852
L159.923 120.378
L161.32 122.795
L162.717 116.994
L164.114 122.07
L165.51 126.42
L166.907 130.046
L168.304 126.904
L169.701 129.079
L171.098 133.429
L172.495 125.937
L173.892 137.055
L175.289 129.804
L176.686 129.079
L178.083 127.629
L179.48 127.387
L180.877 123.52
L182.274 122.311
L183.671 120.378
L185.068 119.653
L186.465 116.027
L187.861 96.9338
L189.258 96.2088
L190.655 84.3659
L192.052 83.6408
L193.449 64.7889
L194.846 76.3901
L196.243 65.0306
L197.64 65.2723
L199.037 79.7738
L200.434 76.1484
L201.831 81.7073
L203.228 86.7828
L204.625 99.8341
L206.022 91.3749
L207.419 106.601
L208.816 108.293
L210.212 102.009
L211.609 120.861
L213.006 124.487
L214.403 131.254
L215.8 125.937
L217.197 145.755
L218.594 146.239
L219.991 148.414
L222.785 159.049
L224.182 167.749
L225.579 173.308
L226.976 176.934
L228.373 176.692
L229.77 182.734
L231.167 181.284
L232.563 188.051
L233.96 188.777
L235.357 190.71
L236.754 192.16
L238.151 192.885
L239.548 192.402
L240.945 193.61
L242.342 193.61
L243.739 193.852
L245.136 193.61
L247.93 194.094
L249.327 193.852
L249.327 194.094
L249.327 194.094" style="fill:none;stroke:#ff7f00;stroke-linecap:square;stroke-width:0.8;"/>
   </g>
   <g id="line2d_10">
    <path clip-path="url(#pfb350f5826)" d="
M-1 194.094
L73.4997 193.985
L80.4968 193.743
L85.2607 193.368
L88.9826 192.858
L92.109 192.21
L94.7887 191.44
L97.3196 190.481
L99.7016 189.33
L101.935 187.994
L104.019 186.493
L106.103 184.719
L108.187 182.648
L110.272 180.262
L112.356 177.549
L114.589 174.275
L116.971 170.375
L119.502 165.804
L122.479 159.95
L126.648 151.197
L132.454 139.02
L135.134 133.91
L137.367 130.113
L139.302 127.253
L140.94 125.195
L142.429 123.64
L143.917 122.403
L145.257 121.57
L146.597 121.007
L147.788 120.73
L148.979 120.658
L150.319 120.811
L151.659 121.195
L153.147 121.862
L154.785 122.842
L156.869 124.36
L162.973 128.993
L164.462 129.777
L165.802 130.244
L166.993 130.426
L168.035 130.381
L169.077 130.126
L170.119 129.644
L171.161 128.923
L172.352 127.795
L173.543 126.336
L174.883 124.3
L176.223 121.859
L177.861 118.366
L179.647 114.001
L182.029 107.525
L188.133 90.5654
L189.771 86.7817
L191.11 84.1696
L192.301 82.2877
L193.344 81.0239
L194.237 80.249
L195.13 79.7751
L195.874 79.619
L196.619 79.6857
L197.363 79.9787
L198.108 80.4997
L199.001 81.4259
L199.894 82.677
L200.936 84.5381
L202.127 87.1734
L203.467 90.7445
L204.956 95.3915
L206.742 101.77
L208.975 110.68
L212.4 125.443
L216.866 144.54
L219.397 154.369
L221.481 161.631
L223.416 167.609
L225.203 172.444
L226.989 176.629
L228.627 179.916
L230.264 182.711
L231.902 185.057
L233.54 186.998
L235.177 188.584
L236.815 189.863
L238.601 190.962
L240.388 191.806
L242.472 192.534
L244.854 193.109
L247.683 193.541
L251.256 193.839
L256.317 194.016
L265.697 194.087
L265.697 194.087" style="fill:none;stroke:#ff7f00;stroke-linecap:square;stroke-width:2;"/>
   </g>
   <g id="patch_3">
    <path d="
M42.4966 194.094
L42.4966 21.2937" style="fill:none;stroke:#000000;stroke-linecap:square;stroke-linejoin:miter;"/>
   </g>
   <g id="patch_4">
    <path d="
M42.4966 21.2937
L265.697 21.2937" style="fill:none;stroke:#000000;stroke-linecap:square;stroke-linejoin:miter;"/>
   </g>
   <g id="patch_5">
    <path d="
M42.4966 194.094
L265.697 194.094" style="fill:none;stroke:#000000;stroke-linecap:square;stroke-linejoin:miter;"/>
   </g>
   <g id="patch_6">
    <path d="
M265.697 194.094
L265.697 21.2937" style="fill:none;stroke:#000000;stroke-linecap:square;stroke-linejoin:miter;"/>
   </g>
   <g id="matplotlib.axis_1">
    <g id="xtick_1">
     <g id="line2d_11">
      <defs>
       <path d="
M0 0
L0 -4" id="mc7db9fdffb" style="stroke:#000000;stroke-width:0.5;"/>
      </defs>
      <g>
       <use style="stroke:#000000;stroke-width:0.5;" x="42.4965625" xlink:href="#mc7db9fdffb" y="194.09375"/>
      </g>
     </g>
     <g id="line2d_12">
      <defs>
       <path d="
M0 0
L0 4" id="m5a7d422ac3" style="stroke:#000000;stroke-width:0.5;"/>
      </defs>
      <g>
       <use style="stroke:#000000;stroke-width:0.5;" x="42.4965625" xlink:href="#m5a7d422ac3" y="21.29375"/>
      </g>
     </g>
     <g id="text_1">
      <!-- $\mathdefault{10^{-2}}$ -->
      <defs>
       <path d="
M31.7812 66.4062
Q24.1719 66.4062 20.3281 58.9062
Q16.5 51.4219 16.5 36.375
Q16.5 21.3906 20.3281 13.8906
Q24.1719 6.39062 31.7812 6.39062
Q39.4531 6.39062 43.2812 13.8906
Q47.125 21.3906 47.125 36.375
Q47.125 51.4219 43.2812 58.9062
Q39.4531 66.4062 31.7812 66.4062
M31.7812 74.2188
Q44.0469 74.2188 50.5156 64.5156
Q56.9844 54.8281 56.9844 36.375
Q56.9844 17.9688 50.5156 8.26562
Q44.0469 -1.42188 31.7812 -1.42188
Q19.5312 -1.42188 13.0625 8.26562
Q6.59375 17.9688 6.59375 36.375
Q6.59375 54.8281 13.0625 64.5156
Q19.5312 74.2188 31.7812 74.2188" id="BitstreamVeraSans-Roman-30"/>
       <path d="
M12.4062 8.29688
L28.5156 8.29688
L28.5156 63.9219
L10.9844 60.4062
L10.9844 69.3906
L28.4219 72.9062
L38.2812 72.9062
L38.2812 8.29688
L54.3906 8.29688
L54.3906 0
L12.4062 0
z
" id="BitstreamVeraSans-Roman-31"/>
       <path d="
M4.89062 31.3906
L31.2031 31.3906
L31.2031 23.3906
L4.89062 23.3906
z
" id="BitstreamVeraSans-Roman-2d"/>
       <path d="
M19.1875 8.29688
L53.6094 8.29688
L53.6094 0
L7.32812 0
L7.32812 8.29688
Q12.9375 14.1094 22.625 23.8906
Q32.3281 33.6875 34.8125 36.5312
Q39.5469 41.8438 41.4219 45.5312
Q43.3125 49.2188 43.3125 52.7812
Q43.3125 58.5938 39.2344 62.25
Q35.1562 65.9219 28.6094 65.9219
Q23.9688 65.9219 18.8125 64.3125
Q13.6719 62.7031 7.8125 59.4219
L7.8125 69.3906
Q13.7656 71.7812 18.9375 73
Q24.125 74.2188 28.4219 74.2188
Q39.75 74.2188 46.4844 68.5469
Q53.2188 62.8906 53.2188 53.4219
Q53.2188 48.9219 51.5312 44.8906
Q49.8594 40.875 45.4062 35.4062
Q44.1875 33.9844 37.6406 27.2188
Q31.1094 20.4531 19.1875 8.29688" id="BitstreamVeraSans-Roman-32"/>
      </defs>
      <g transform="translate(31.5465625 206.7140625)scale(0.1 -0.1)">
       <use transform="translate(0.0 0.546875)" xlink:href="#BitstreamVeraSans-Roman-31"/>
       <use transform="translate(63.623046875 0.546875)" xlink:href="#BitstreamVeraSans-Roman-30"/>
       <use transform="translate(127.24609375 53.046875)scale(0.7)" xlink:href="#BitstreamVeraSans-Roman-2d"/>
       <use transform="translate(152.5048828125 53.046875)scale(0.7)" xlink:href="#BitstreamVeraSans-Roman-32"/>
      </g>
     </g>
    </g>
    <g id="xtick_2">
     <g id="line2d_13">
      <g>
       <use style="stroke:#000000;stroke-width:0.5;" x="116.8965625" xlink:href="#mc7db9fdffb" y="194.09375"/>
      </g>
     </g>
     <g id="line2d_14">
      <g>
       <use style="stroke:#000000;stroke-width:0.5;" x="116.8965625" xlink:href="#m5a7d422ac3" y="21.29375"/>
      </g>
     </g>
     <g id="text_2">
      <!-- $\mathdefault{10^{-1}}$ -->
      <g transform="translate(105.9465625 206.6140625)scale(0.1 -0.1)">
       <use transform="translate(0.0 0.46562500000000284)" xlink:href="#BitstreamVeraSans-Roman-31"/>
       <use transform="translate(63.623046875 0.46562500000000284)" xlink:href="#BitstreamVeraSans-Roman-30"/>
       <use transform="translate(127.24609375 52.965625)scale(0.7)" xlink:href="#BitstreamVeraSans-Roman-2d"/>
       <use transform="translate(152.5048828125 52.965625)scale(0.7)" xlink:href="#BitstreamVeraSans-Roman-31"/>
      </g>
     </g>
    </g>
    <g id="xtick_3">
     <g id="line2d_15">
      <g>
       <use style="stroke:#000000;stroke-width:0.5;" x="191.2965625" xlink:href="#mc7db9fdffb" y="194.09375"/>
      </g>
     </g>
     <g id="line2d_16">
      <g>
       <use style="stroke:#000000;stroke-width:0.5;" x="191.2965625" xlink:href="#m5a7d422ac3" y="21.29375"/>
      </g>
     </g>
     <g id="text_3">
      <!-- $\mathdefault{10^{0}}$ -->
      <g transform="translate(181.6465625 206.7140625)scale(0.1 -0.1)">
       <use transform="translate(0.0 0.546875)" xlink:href="#BitstreamVeraSans-Roman-31"/>
       <use transform="translate(63.623046875 0.546875)" xlink:href="#BitstreamVeraSans-Roman-30"/>
       <use transform="translate(127.24609375 53.046875)scale(0.7)" xlink:href="#BitstreamVeraSans-Roman-30"/>
      </g>
     </g>
    </g>
    <g id="xtick_4">
     <g id="line2d_17">
      <g>
       <use style="stroke:#000000;stroke-width:0.5;" x="265.6965625" xlink:href="#mc7db9fdffb" y="194.09375"/>
      </g>
     </g>
     <g id="line2d_18">
      <g>
       <use style="stroke:#000000;stroke-width:0.5;" x="265.6965625" xlink:href="#m5a7d422ac3" y="21.29375"/>
      </g>
     </g>
     <g id="text_4">
      <!-- $\mathdefault{10^{1}}$ -->
      <g transform="translate(256.0465625 206.6140625)scale(0.1 -0.1)">
       <use transform="translate(0.0 0.46562500000000284)" xlink:href="#BitstreamVeraSans-Roman-31"/>
       <use transform="translate(63.623046875 0.46562500000000284)" xlink:href="#BitstreamVeraSans-Roman-30"/>
       <use transform="translate(127.24609375 52.965625)scale(0.7)" xlink:href="#BitstreamVeraSans-Roman-31"/>
      </g>
     </g>
    </g>
    <g id="xtick_5">
     <g id="line2d_19">
      <defs>
       <path d="
M0 0
L0 -2" id="mc21db286a6" style="stroke:#000000;stroke-width:0.5;"/>
      </defs>
      <g>
       <use style="stroke:#000000;stroke-width:0.5;" x="64.8931941774" xlink:href="#mc21db286a6" y="194.09375"/>
      </g>
     </g>
     <g id="line2d_20">
      <defs>
       <path d="
M0 0
L0 2" id="ma9c915e141" style="stroke:#000000;stroke-width:0.5;"/>
      </defs>
      <g>
       <use style="stroke:#000000;stroke-width:0.5;" x="64.8931941774" xlink:href="#ma9c915e141" y="21.29375"/>
      </g>
     </g>
    </g>
    <g id="xtick_6">
     <g id="line2d_21">
      <g>
       <use style="stroke:#000000;stroke-width:0.5;" x="77.9943838511" xlink:href="#mc21db286a6" y="194.09375"/>
      </g>
     </g>
     <g id="line2d_22">
      <g>
       <use style="stroke:#000000;stroke-width:0.5;" x="77.9943838511" xlink:href="#ma9c915e141" y="21.29375"/>
      </g>
     </g>
    </g>
    <g id="xtick_7">
     <g id="line2d_23">
      <g>
       <use style="stroke:#000000;stroke-width:0.5;" x="87.2898258548" xlink:href="#mc21db286a6" y="194.09375"/>
      </g>
     </g>
     <g id="line2d_24">
      <g>
       <use style="stroke:#000000;stroke-width:0.5;" x="87.2898258548" xlink:href="#ma9c915e141" y="21.29375"/>
      </g>
     </g>
    </g>
    <g id="xtick_8">
     <g id="line2d_25">
      <g>
       <use style="stroke:#000000;stroke-width:0.5;" x="94.4999308226" xlink:href="#mc21db286a6" y="194.09375"/>
      </g>
     </g>
     <g id="line2d_26">
      <g>
       <use style="stroke:#000000;stroke-width:0.5;" x="94.4999308226" xlink:href="#ma9c915e141" y="21.29375"/>
      </g>
     </g>
    </g>
    <g id="xtick_9">
     <g id="line2d_27">
      <g>
       <use style="stroke:#000000;stroke-width:0.5;" x="100.391015529" xlink:href="#mc21db286a6" y="194.09375"/>
      </g>
     </g>
     <g id="line2d_28">
      <g>
       <use style="stroke:#000000;stroke-width:0.5;" x="100.391015529" xlink:href="#ma9c915e141" y="21.29375"/>
      </g>
     </g>
    </g>
    <g id="xtick_10">
     <g id="line2d_29">
      <g>
       <use style="stroke:#000000;stroke-width:0.5;" x="105.371856677" xlink:href="#mc21db286a6" y="194.09375"/>
      </g>
     </g>
     <g id="line2d_30">
      <g>
       <use style="stroke:#000000;stroke-width:0.5;" x="105.371856677" xlink:href="#ma9c915e141" y="21.29375"/>
      </g>
     </g>
    </g>
    <g id="xtick_11">
     <g id="line2d_31">
      <g>
       <use style="stroke:#000000;stroke-width:0.5;" x="109.686457532" xlink:href="#mc21db286a6" y="194.09375"/>
      </g>
     </g>
     <g id="line2d_32">
      <g>
       <use style="stroke:#000000;stroke-width:0.5;" x="109.686457532" xlink:href="#ma9c915e141" y="21.29375"/>
      </g>
     </g>
    </g>
    <g id="xtick_12">
     <g id="line2d_33">
      <g>
       <use style="stroke:#000000;stroke-width:0.5;" x="113.492205202" xlink:href="#mc21db286a6" y="194.09375"/>
      </g>
     </g>
     <g id="line2d_34">
      <g>
       <use style="stroke:#000000;stroke-width:0.5;" x="113.492205202" xlink:href="#ma9c915e141" y="21.29375"/>
      </g>
     </g>
    </g>
    <g id="xtick_13">
     <g id="line2d_35">
      <g>
       <use style="stroke:#000000;stroke-width:0.5;" x="139.293194177" xlink:href="#mc21db286a6" y="194.09375"/>
      </g>
     </g>
     <g id="line2d_36">
      <g>
       <use style="stroke:#000000;stroke-width:0.5;" x="139.293194177" xlink:href="#ma9c915e141" y="21.29375"/>
      </g>
     </g>
    </g>
    <g id="xtick_14">
     <g id="line2d_37">
      <g>
       <use style="stroke:#000000;stroke-width:0.5;" x="152.394383851" xlink:href="#mc21db286a6" y="194.09375"/>
      </g>
     </g>
     <g id="line2d_38">
      <g>
       <use style="stroke:#000000;stroke-width:0.5;" x="152.394383851" xlink:href="#ma9c915e141" y="21.29375"/>
      </g>
     </g>
    </g>
    <g id="xtick_15">
     <g id="line2d_39">
      <g>
       <use style="stroke:#000000;stroke-width:0.5;" x="161.689825855" xlink:href="#mc21db286a6" y="194.09375"/>
      </g>
     </g>
     <g id="line2d_40">
      <g>
       <use style="stroke:#000000;stroke-width:0.5;" x="161.689825855" xlink:href="#ma9c915e141" y="21.29375"/>
      </g>
     </g>
    </g>
    <g id="xtick_16">
     <g id="line2d_41">
      <g>
       <use style="stroke:#000000;stroke-width:0.5;" x="168.899930823" xlink:href="#mc21db286a6" y="194.09375"/>
      </g>
     </g>
     <g id="line2d_42">
      <g>
       <use style="stroke:#000000;stroke-width:0.5;" x="168.899930823" xlink:href="#ma9c915e141" y="21.29375"/>
      </g>
     </g>
    </g>
    <g id="xtick_17">
     <g id="line2d_43">
      <g>
       <use style="stroke:#000000;stroke-width:0.5;" x="174.791015529" xlink:href="#mc21db286a6" y="194.09375"/>
      </g>
     </g>
     <g id="line2d_44">
      <g>
       <use style="stroke:#000000;stroke-width:0.5;" x="174.791015529" xlink:href="#ma9c915e141" y="21.29375"/>
      </g>
     </g>
    </g>
    <g id="xtick_18">
     <g id="line2d_45">
      <g>
       <use style="stroke:#000000;stroke-width:0.5;" x="179.771856677" xlink:href="#mc21db286a6" y="194.09375"/>
      </g>
     </g>
     <g id="line2d_46">
      <g>
       <use style="stroke:#000000;stroke-width:0.5;" x="179.771856677" xlink:href="#ma9c915e141" y="21.29375"/>
      </g>
     </g>
    </g>
    <g id="xtick_19">
     <g id="line2d_47">
      <g>
       <use style="stroke:#000000;stroke-width:0.5;" x="184.086457532" xlink:href="#mc21db286a6" y="194.09375"/>
      </g>
     </g>
     <g id="line2d_48">
      <g>
       <use style="stroke:#000000;stroke-width:0.5;" x="184.086457532" xlink:href="#ma9c915e141" y="21.29375"/>
      </g>
     </g>
    </g>
    <g id="xtick_20">
     <g id="line2d_49">
      <g>
       <use style="stroke:#000000;stroke-width:0.5;" x="187.892205202" xlink:href="#mc21db286a6" y="194.09375"/>
      </g>
     </g>
     <g id="line2d_50">
      <g>
       <use style="stroke:#000000;stroke-width:0.5;" x="187.892205202" xlink:href="#ma9c915e141" y="21.29375"/>
      </g>
     </g>
    </g>
    <g id="xtick_21">
     <g id="line2d_51">
      <g>
       <use style="stroke:#000000;stroke-width:0.5;" x="213.693194177" xlink:href="#mc21db286a6" y="194.09375"/>
      </g>
     </g>
     <g id="line2d_52">
      <g>
       <use style="stroke:#000000;stroke-width:0.5;" x="213.693194177" xlink:href="#ma9c915e141" y="21.29375"/>
      </g>
     </g>
    </g>
    <g id="xtick_22">
     <g id="line2d_53">
      <g>
       <use style="stroke:#000000;stroke-width:0.5;" x="226.794383851" xlink:href="#mc21db286a6" y="194.09375"/>
      </g>
     </g>
     <g id="line2d_54">
      <g>
       <use style="stroke:#000000;stroke-width:0.5;" x="226.794383851" xlink:href="#ma9c915e141" y="21.29375"/>
      </g>
     </g>
    </g>
    <g id="xtick_23">
     <g id="line2d_55">
      <g>
       <use style="stroke:#000000;stroke-width:0.5;" x="236.089825855" xlink:href="#mc21db286a6" y="194.09375"/>
      </g>
     </g>
     <g id="line2d_56">
      <g>
       <use style="stroke:#000000;stroke-width:0.5;" x="236.089825855" xlink:href="#ma9c915e141" y="21.29375"/>
      </g>
     </g>
    </g>
    <g id="xtick_24">
     <g id="line2d_57">
      <g>
       <use style="stroke:#000000;stroke-width:0.5;" x="243.299930823" xlink:href="#mc21db286a6" y="194.09375"/>
      </g>
     </g>
     <g id="line2d_58">
      <g>
       <use style="stroke:#000000;stroke-width:0.5;" x="243.299930823" xlink:href="#ma9c915e141" y="21.29375"/>
      </g>
     </g>
    </g>
    <g id="xtick_25">
     <g id="line2d_59">
      <g>
       <use style="stroke:#000000;stroke-width:0.5;" x="249.191015529" xlink:href="#mc21db286a6" y="194.09375"/>
      </g>
     </g>
     <g id="line2d_60">
      <g>
       <use style="stroke:#000000;stroke-width:0.5;" x="249.191015529" xlink:href="#ma9c915e141" y="21.29375"/>
      </g>
     </g>
    </g>
    <g id="xtick_26">
     <g id="line2d_61">
      <g>
       <use style="stroke:#000000;stroke-width:0.5;" x="254.171856677" xlink:href="#mc21db286a6" y="194.09375"/>
      </g>
     </g>
     <g id="line2d_62">
      <g>
       <use style="stroke:#000000;stroke-width:0.5;" x="254.171856677" xlink:href="#ma9c915e141" y="21.29375"/>
      </g>
     </g>
    </g>
    <g id="xtick_27">
     <g id="line2d_63">
      <g>
       <use style="stroke:#000000;stroke-width:0.5;" x="258.486457532" xlink:href="#mc21db286a6" y="194.09375"/>
      </g>
     </g>
     <g id="line2d_64">
      <g>
       <use style="stroke:#000000;stroke-width:0.5;" x="258.486457532" xlink:href="#ma9c915e141" y="21.29375"/>
      </g>
     </g>
    </g>
    <g id="xtick_28">
     <g id="line2d_65">
      <g>
       <use style="stroke:#000000;stroke-width:0.5;" x="262.292205202" xlink:href="#mc21db286a6" y="194.09375"/>
      </g>
     </g>
     <g id="line2d_66">
      <g>
       <use style="stroke:#000000;stroke-width:0.5;" x="262.292205202" xlink:href="#ma9c915e141" y="21.29375"/>
      </g>
     </g>
    </g>
    <g id="text_5">
     <!-- $\Delta r$ -->
     <defs>
      <path d="
M5.42188 0
Q4.59375 0 4.59375 0.78125
Q4.64062 0.875 4.65625 0.921875
Q4.6875 0.984375 4.6875 1.125
L39.1094 70.5156
Q39.5469 71.5781 40.9219 71.5781
L42.2812 71.5781
Q43.6562 71.5781 44.0938 70.5156
L78.5156 1.125
Q78.5625 1.03125 78.5781 0.953125
Q78.6094 0.875 78.6094 0.78125
Q78.6094 0 77.7812 0
z

M12.0156 8.01562
L64.7031 8.01562
L38.375 61.0781
z
" id="Cmr10-a2"/>
      <path d="
M7.71875 1.70312
Q7.71875 2.29688 7.8125 2.59375
L15.2812 32.4219
Q16.0156 35.2031 16.0156 37.3125
Q16.0156 41.6094 13.0938 41.6094
Q9.96875 41.6094 8.45312 37.8594
Q6.9375 34.125 5.51562 28.4219
Q5.51562 28.125 5.21875 27.9531
Q4.9375 27.7812 4.6875 27.7812
L3.51562 27.7812
Q3.17188 27.7812 2.92188 28.1406
Q2.6875 28.5156 2.6875 28.8125
Q3.76562 33.1562 4.76562 36.1719
Q5.76562 39.2031 7.89062 41.6875
Q10.0156 44.1875 13.1875 44.1875
Q16.6562 44.1875 19.2656 42.1875
Q21.875 40.1875 22.5156 36.9219
Q25.0469 40.2344 28.2969 42.2031
Q31.5469 44.1875 35.4062 44.1875
Q38.5781 44.1875 40.9844 42.3281
Q43.4062 40.4844 43.4062 37.3125
Q43.4062 34.7656 41.8125 32.875
Q40.2344 31 37.5938 31
Q35.9844 31 34.8906 32
Q33.7969 33.0156 33.7969 34.625
Q33.7969 36.8125 35.4062 38.5469
Q37.0156 40.2812 39.1094 40.2812
Q37.5 41.6094 35.2031 41.6094
Q30.9062 41.6094 27.7344 38.5469
Q24.5625 35.5 22.0156 30.8125
L14.8906 2.20312
Q14.5469 0.828125 13.3438 -0.140625
Q12.1562 -1.125 10.6875 -1.125
Q9.46875 -1.125 8.59375 -0.34375
Q7.71875 0.4375 7.71875 1.70312" id="Cmmi10-72"/>
     </defs>
     <g transform="translate(146.3565625 222.911875)scale(0.12 -0.12)">
      <use transform="translate(0.0 0.421875)" xlink:href="#Cmr10-a2"/>
      <use transform="translate(83.30078125 0.421875)" xlink:href="#Cmmi10-72"/>
     </g>
    </g>
   </g>
   <g id="matplotlib.axis_2">
    <g id="ytick_1">
     <g id="line2d_67">
      <defs>
       <path d="
M0 0
L4 0" id="md7965d1ba0" style="stroke:#000000;stroke-width:0.5;"/>
      </defs>
      <g>
       <use style="stroke:#000000;stroke-width:0.5;" x="42.4965625" xlink:href="#md7965d1ba0" y="194.09375"/>
      </g>
     </g>
     <g id="line2d_68">
      <defs>
       <path d="
M0 0
L-4 0" id="md9a1c1a7cd" style="stroke:#000000;stroke-width:0.5;"/>
      </defs>
      <g>
       <use style="stroke:#000000;stroke-width:0.5;" x="265.6965625" xlink:href="#md9a1c1a7cd" y="194.09375"/>
      </g>
     </g>
     <g id="text_6">
      <!-- 0.0 -->
      <defs>
       <path d="
M10.6875 12.4062
L21 12.4062
L21 0
L10.6875 0
z
" id="BitstreamVeraSans-Roman-2e"/>
      </defs>
      <g transform="translate(23.916875 196.853125)scale(0.1 -0.1)">
       <use xlink:href="#BitstreamVeraSans-Roman-30"/>
       <use x="63.623046875" xlink:href="#BitstreamVeraSans-Roman-2e"/>
       <use x="95.41015625" xlink:href="#BitstreamVeraSans-Roman-30"/>
      </g>
     </g>
    </g>
    <g id="ytick_2">
     <g id="line2d_69">
      <g>
       <use style="stroke:#000000;stroke-width:0.5;" x="42.4965625" xlink:href="#md7965d1ba0" y="172.49375"/>
      </g>
     </g>
     <g id="line2d_70">
      <g>
       <use style="stroke:#000000;stroke-width:0.5;" x="265.6965625" xlink:href="#md9a1c1a7cd" y="172.49375"/>
      </g>
     </g>
     <g id="text_7">
      <!-- 0.2 -->
      <g transform="translate(24.254375 175.253125)scale(0.1 -0.1)">
       <use xlink:href="#BitstreamVeraSans-Roman-30"/>
       <use x="63.623046875" xlink:href="#BitstreamVeraSans-Roman-2e"/>
       <use x="95.41015625" xlink:href="#BitstreamVeraSans-Roman-32"/>
      </g>
     </g>
    </g>
    <g id="ytick_3">
     <g id="line2d_71">
      <g>
       <use style="stroke:#000000;stroke-width:0.5;" x="42.4965625" xlink:href="#md7965d1ba0" y="150.89375"/>
      </g>
     </g>
     <g id="line2d_72">
      <g>
       <use style="stroke:#000000;stroke-width:0.5;" x="265.6965625" xlink:href="#md9a1c1a7cd" y="150.89375"/>
      </g>
     </g>
     <g id="text_8">
      <!-- 0.4 -->
      <defs>
       <path d="
M37.7969 64.3125
L12.8906 25.3906
L37.7969 25.3906
z

M35.2031 72.9062
L47.6094 72.9062
L47.6094 25.3906
L58.0156 25.3906
L58.0156 17.1875
L47.6094 17.1875
L47.6094 0
L37.7969 0
L37.7969 17.1875
L4.89062 17.1875
L4.89062 26.7031
z
" id="BitstreamVeraSans-Roman-34"/>
      </defs>
      <g transform="translate(23.81375 153.653125)scale(0.1 -0.1)">
       <use xlink:href="#BitstreamVeraSans-Roman-30"/>
       <use x="63.623046875" xlink:href="#BitstreamVeraSans-Roman-2e"/>
       <use x="95.41015625" xlink:href="#BitstreamVeraSans-Roman-34"/>
      </g>
     </g>
    </g>
    <g id="ytick_4">
     <g id="line2d_73">
      <g>
       <use style="stroke:#000000;stroke-width:0.5;" x="42.4965625" xlink:href="#md7965d1ba0" y="129.29375"/>
      </g>
     </g>
     <g id="line2d_74">
      <g>
       <use style="stroke:#000000;stroke-width:0.5;" x="265.6965625" xlink:href="#md9a1c1a7cd" y="129.29375"/>
      </g>
     </g>
     <g id="text_9">
      <!-- 0.6 -->
      <defs>
       <path d="
M33.0156 40.375
Q26.375 40.375 22.4844 35.8281
Q18.6094 31.2969 18.6094 23.3906
Q18.6094 15.5312 22.4844 10.9531
Q26.375 6.39062 33.0156 6.39062
Q39.6562 6.39062 43.5312 10.9531
Q47.4062 15.5312 47.4062 23.3906
Q47.4062 31.2969 43.5312 35.8281
Q39.6562 40.375 33.0156 40.375
M52.5938 71.2969
L52.5938 62.3125
Q48.875 64.0625 45.0938 64.9844
Q41.3125 65.9219 37.5938 65.9219
Q27.8281 65.9219 22.6719 59.3281
Q17.5312 52.7344 16.7969 39.4062
Q19.6719 43.6562 24.0156 45.9219
Q28.375 48.1875 33.5938 48.1875
Q44.5781 48.1875 50.9531 41.5156
Q57.3281 34.8594 57.3281 23.3906
Q57.3281 12.1562 50.6875 5.35938
Q44.0469 -1.42188 33.0156 -1.42188
Q20.3594 -1.42188 13.6719 8.26562
Q6.98438 17.9688 6.98438 36.375
Q6.98438 53.6562 15.1875 63.9375
Q23.3906 74.2188 37.2031 74.2188
Q40.9219 74.2188 44.7031 73.4844
Q48.4844 72.75 52.5938 71.2969" id="BitstreamVeraSans-Roman-36"/>
      </defs>
      <g transform="translate(23.8825 132.053125)scale(0.1 -0.1)">
       <use xlink:href="#BitstreamVeraSans-Roman-30"/>
       <use x="63.623046875" xlink:href="#BitstreamVeraSans-Roman-2e"/>
       <use x="95.41015625" xlink:href="#BitstreamVeraSans-Roman-36"/>
      </g>
     </g>
    </g>
    <g id="ytick_5">
     <g id="line2d_75">
      <g>
       <use style="stroke:#000000;stroke-width:0.5;" x="42.4965625" xlink:href="#md7965d1ba0" y="107.69375"/>
      </g>
     </g>
     <g id="line2d_76">
      <g>
       <use style="stroke:#000000;stroke-width:0.5;" x="265.6965625" xlink:href="#md9a1c1a7cd" y="107.69375"/>
      </g>
     </g>
     <g id="text_10">
      <!-- 0.8 -->
      <defs>
       <path d="
M31.7812 34.625
Q24.75 34.625 20.7188 30.8594
Q16.7031 27.0938 16.7031 20.5156
Q16.7031 13.9219 20.7188 10.1562
Q24.75 6.39062 31.7812 6.39062
Q38.8125 6.39062 42.8594 10.1719
Q46.9219 13.9688 46.9219 20.5156
Q46.9219 27.0938 42.8906 30.8594
Q38.875 34.625 31.7812 34.625
M21.9219 38.8125
Q15.5781 40.375 12.0312 44.7188
Q8.5 49.0781 8.5 55.3281
Q8.5 64.0625 14.7188 69.1406
Q20.9531 74.2188 31.7812 74.2188
Q42.6719 74.2188 48.875 69.1406
Q55.0781 64.0625 55.0781 55.3281
Q55.0781 49.0781 51.5312 44.7188
Q48 40.375 41.7031 38.8125
Q48.8281 37.1562 52.7969 32.3125
Q56.7812 27.4844 56.7812 20.5156
Q56.7812 9.90625 50.3125 4.23438
Q43.8438 -1.42188 31.7812 -1.42188
Q19.7344 -1.42188 13.25 4.23438
Q6.78125 9.90625 6.78125 20.5156
Q6.78125 27.4844 10.7812 32.3125
Q14.7969 37.1562 21.9219 38.8125
M18.3125 54.3906
Q18.3125 48.7344 21.8438 45.5625
Q25.3906 42.3906 31.7812 42.3906
Q38.1406 42.3906 41.7188 45.5625
Q45.3125 48.7344 45.3125 54.3906
Q45.3125 60.0625 41.7188 63.2344
Q38.1406 66.4062 31.7812 66.4062
Q25.3906 66.4062 21.8438 63.2344
Q18.3125 60.0625 18.3125 54.3906" id="BitstreamVeraSans-Roman-38"/>
      </defs>
      <g transform="translate(23.9371875 110.453125)scale(0.1 -0.1)">
       <use xlink:href="#BitstreamVeraSans-Roman-30"/>
       <use x="63.623046875" xlink:href="#BitstreamVeraSans-Roman-2e"/>
       <use x="95.41015625" xlink:href="#BitstreamVeraSans-Roman-38"/>
      </g>
     </g>
    </g>
    <g id="ytick_6">
     <g id="line2d_77">
      <g>
       <use style="stroke:#000000;stroke-width:0.5;" x="42.4965625" xlink:href="#md7965d1ba0" y="86.09375"/>
      </g>
     </g>
     <g id="line2d_78">
      <g>
       <use style="stroke:#000000;stroke-width:0.5;" x="265.6965625" xlink:href="#md9a1c1a7cd" y="86.09375"/>
      </g>
     </g>
     <g id="text_11">
      <!-- 1.0 -->
      <g transform="translate(24.3559375 88.853125)scale(0.1 -0.1)">
       <use xlink:href="#BitstreamVeraSans-Roman-31"/>
       <use x="63.623046875" xlink:href="#BitstreamVeraSans-Roman-2e"/>
       <use x="95.41015625" xlink:href="#BitstreamVeraSans-Roman-30"/>
      </g>
     </g>
    </g>
    <g id="ytick_7">
     <g id="line2d_79">
      <g>
       <use style="stroke:#000000;stroke-width:0.5;" x="42.4965625" xlink:href="#md7965d1ba0" y="64.49375"/>
      </g>
     </g>
     <g id="line2d_80">
      <g>
       <use style="stroke:#000000;stroke-width:0.5;" x="265.6965625" xlink:href="#md9a1c1a7cd" y="64.49375"/>
      </g>
     </g>
     <g id="text_12">
      <!-- 1.2 -->
      <g transform="translate(24.6934375 67.253125)scale(0.1 -0.1)">
       <use xlink:href="#BitstreamVeraSans-Roman-31"/>
       <use x="63.623046875" xlink:href="#BitstreamVeraSans-Roman-2e"/>
       <use x="95.41015625" xlink:href="#BitstreamVeraSans-Roman-32"/>
      </g>
     </g>
    </g>
    <g id="ytick_8">
     <g id="line2d_81">
      <g>
       <use style="stroke:#000000;stroke-width:0.5;" x="42.4965625" xlink:href="#md7965d1ba0" y="42.89375"/>
      </g>
     </g>
     <g id="line2d_82">
      <g>
       <use style="stroke:#000000;stroke-width:0.5;" x="265.6965625" xlink:href="#md9a1c1a7cd" y="42.89375"/>
      </g>
     </g>
     <g id="text_13">
      <!-- 1.4 -->
      <g transform="translate(24.2528125 45.653125)scale(0.1 -0.1)">
       <use xlink:href="#BitstreamVeraSans-Roman-31"/>
       <use x="63.623046875" xlink:href="#BitstreamVeraSans-Roman-2e"/>
       <use x="95.41015625" xlink:href="#BitstreamVeraSans-Roman-34"/>
      </g>
     </g>
    </g>
    <g id="ytick_9">
     <g id="line2d_83">
      <g>
       <use style="stroke:#000000;stroke-width:0.5;" x="42.4965625" xlink:href="#md7965d1ba0" y="21.29375"/>
      </g>
     </g>
     <g id="line2d_84">
      <g>
       <use style="stroke:#000000;stroke-width:0.5;" x="265.6965625" xlink:href="#md9a1c1a7cd" y="21.29375"/>
      </g>
     </g>
     <g id="text_14">
      <!-- 1.6 -->
      <g transform="translate(24.3215625 24.053125)scale(0.1 -0.1)">
       <use xlink:href="#BitstreamVeraSans-Roman-31"/>
       <use x="63.623046875" xlink:href="#BitstreamVeraSans-Roman-2e"/>
       <use x="95.41015625" xlink:href="#BitstreamVeraSans-Roman-36"/>
      </g>
     </g>
    </g>
    <g id="text_15">
     <!-- $P\left(\log\left(\Delta r\right)\right)$ -->
     <defs>
      <path d="
M2.78125 -7.8125
Q2.78125 -4.25 5.35938 -1.57812
Q7.95312 1.07812 11.5312 2.20312
Q9.51562 3.71875 8.46875 6
Q7.42188 8.29688 7.42188 10.8906
Q7.42188 15.5781 10.4062 19.1875
Q5.8125 23.6875 5.8125 29.5
Q5.8125 32.625 7.15625 35.3594
Q8.5 38.0938 10.8906 40.0938
Q13.2812 42.0938 16.2031 43.1406
Q19.1406 44.1875 22.2188 44.1875
Q28.1719 44.1875 32.9062 40.7188
Q34.9688 42.9219 37.7656 44.1094
Q40.5781 45.3125 43.6094 45.3125
Q45.75 45.3125 47.1094 43.7656
Q48.4844 42.2344 48.4844 40.0938
Q48.4844 38.875 47.5469 37.9375
Q46.625 37.0156 45.4062 37.0156
Q44.1406 37.0156 43.2031 37.9375
Q42.2812 38.875 42.2812 40.0938
Q42.2812 41.9375 43.5 42.6719
Q38.3281 42.6719 34.625 39.1094
Q36.4219 37.3125 37.5156 34.6875
Q38.625 32.0781 38.625 29.5
Q38.625 25.25 36.2812 21.8438
Q33.9375 18.4531 30.0938 16.5781
Q26.2656 14.7031 22.2188 14.7031
Q16.75 14.7031 12.2031 17.6719
Q10.7969 15.7188 10.7969 13.2812
Q10.7969 10.6406 12.5312 8.65625
Q14.2656 6.6875 16.8906 6.6875
L25.0938 6.6875
Q31.0625 6.6875 35.8438 5.60938
Q40.625 4.54688 43.875 1.3125
Q47.125 -1.90625 47.125 -7.8125
Q47.125 -12.2031 43.4062 -15.1094
Q39.7031 -18.0156 34.5469 -19.3125
Q29.3906 -20.6094 25 -20.6094
Q20.5625 -20.6094 15.375 -19.3125
Q10.2031 -18.0156 6.48438 -15.1094
Q2.78125 -12.2031 2.78125 -7.8125
M8.40625 -7.8125
Q8.40625 -11.1875 11.1406 -13.4531
Q13.875 -15.7188 17.7188 -16.8125
Q21.5781 -17.9219 25 -17.9219
Q28.375 -17.9219 32.2188 -16.8125
Q36.0781 -15.7188 38.7812 -13.4531
Q41.5 -11.1875 41.5 -7.8125
Q41.5 -2.59375 36.7188 -1.04688
Q31.9375 0.484375 25.0938 0.484375
L16.8906 0.484375
Q14.5938 0.484375 12.6719 -0.609375
Q10.75 -1.70312 9.57812 -3.6875
Q8.40625 -5.67188 8.40625 -7.8125
M22.2188 17.3906
Q30.7188 17.3906 30.7188 29.5
Q30.7188 34.7188 28.9062 38.1094
Q27.0938 41.5 22.2188 41.5
Q17.3281 41.5 15.5156 38.1094
Q13.7188 34.7188 13.7188 29.5
Q13.7188 26.1719 14.4062 23.4844
Q15.0938 20.7969 16.9375 19.0938
Q18.7969 17.3906 22.2188 17.3906" id="Cmr10-67"/>
      <path d="
M25 -1.125
Q19 -1.125 13.8594 1.92188
Q8.73438 4.98438 5.75 10.1094
Q2.78125 15.2344 2.78125 21.2969
Q2.78125 25.875 4.42188 30.125
Q6.0625 34.375 9.10938 37.7188
Q12.1562 41.0625 16.2031 42.9375
Q20.2656 44.8281 25 44.8281
Q31.1562 44.8281 36.2031 41.5781
Q41.2656 38.3281 44.1875 32.875
Q47.125 27.4375 47.125 21.2969
Q47.125 15.2812 44.1406 10.125
Q41.1562 4.98438 36.0469 1.92188
Q30.9531 -1.125 25 -1.125
M25 1.8125
Q33.0156 1.8125 35.6875 7.60938
Q38.375 13.4219 38.375 22.4062
Q38.375 27.4375 37.8438 30.7344
Q37.3125 34.0312 35.5 36.7188
Q34.375 38.375 32.6406 39.625
Q30.9062 40.875 28.9688 41.5312
Q27.0469 42.1875 25 42.1875
Q21.875 42.1875 19.0625 40.7656
Q16.2656 39.3594 14.4062 36.7188
Q12.5469 33.8906 12.0312 30.4844
Q11.5312 27.0938 11.5312 22.4062
Q11.5312 16.7969 12.5 12.3281
Q13.4844 7.85938 16.4375 4.82812
Q19.3906 1.8125 25 1.8125" id="Cmr10-6f"/>
      <path d="
M3.07812 0
L3.07812 3.51562
Q6.5 3.51562 8.6875 4.04688
Q10.8906 4.59375 10.8906 6.6875
L10.8906 59.1875
Q10.8906 61.8594 10.0781 63.0625
Q9.28125 64.2656 7.76562 64.5312
Q6.25 64.7969 3.07812 64.7969
L3.07812 68.3125
L17.9219 69.3906
L17.9219 6.6875
Q17.9219 4.59375 20.1094 4.04688
Q22.3125 3.51562 25.6875 3.51562
L25.6875 0
z
" id="Cmr10-6c"/>
      <path d="
M31 -24.8125
Q25.4375 -20.4062 21.4062 -14.7188
Q17.3906 -9.03125 14.8125 -2.57812
Q12.25 3.85938 10.9844 10.8906
Q9.71875 17.9219 9.71875 25
Q9.71875 32.1719 10.9844 39.2031
Q12.25 46.2344 14.8594 52.7344
Q17.4844 59.2344 21.5312 64.8906
Q25.5938 70.5625 31 74.8125
Q31 75 31.5 75
L32.4219 75
Q32.7188 75 32.9531 74.7344
Q33.2031 74.4688 33.2031 74.125
Q33.2031 73.6875 33.0156 73.4844
Q28.125 68.7031 24.875 63.2344
Q21.625 57.7656 19.6406 51.5781
Q17.6719 45.4062 16.7969 38.7812
Q15.9219 32.1719 15.9219 25
Q15.9219 -6.78125 32.9062 -23.2969
Q33.2031 -23.5781 33.2031 -24.125
Q33.2031 -24.3594 32.9375 -24.6719
Q32.6719 -25 32.4219 -25
L31.5 -25
Q31 -25 31 -24.8125" id="Cmr10-28"/>
      <path d="
M6.5 -25
Q5.60938 -25 5.60938 -24.125
Q5.60938 -23.6875 5.8125 -23.4844
Q22.9062 -6.78125 22.9062 25
Q22.9062 56.7812 6 73.2969
Q5.60938 73.5312 5.60938 74.125
Q5.60938 74.4688 5.875 74.7344
Q6.15625 75 6.5 75
L7.42188 75
Q7.71875 75 7.90625 74.8125
Q15.0938 69.1406 19.875 61.0312
Q24.6562 52.9375 26.875 43.75
Q29.1094 34.5781 29.1094 25
Q29.1094 17.9219 27.9062 11.0625
Q26.7031 4.20312 24.0938 -2.45312
Q21.4844 -9.125 17.4844 -14.7656
Q13.4844 -20.4062 7.90625 -24.8125
Q7.71875 -25 7.42188 -25
z
" id="Cmr10-29"/>
      <path d="
M4.89062 0
Q3.90625 0 3.90625 1.3125
Q3.95312 1.5625 4.09375 2.17188
Q4.25 2.78125 4.51562 3.14062
Q4.78125 3.51562 5.17188 3.51562
Q11.2812 3.51562 13.7188 4.20312
Q14.9844 4.64062 15.5781 6.89062
L29.2969 61.8125
Q29.5 62.7969 29.5 63.1875
Q29.5 64.2656 28.3281 64.4062
Q26.4219 64.7969 21.0938 64.7969
Q20.125 64.7969 20.125 66.1094
Q20.1719 66.3594 20.3125 66.9688
Q20.4531 67.5781 20.7188 67.9375
Q21 68.3125 21.3906 68.3125
L55.9062 68.3125
Q60.6406 68.3125 65.0781 66.625
Q69.5312 64.9375 72.3594 61.4688
Q75.2031 58.0156 75.2031 53.0781
Q75.2031 46.7344 70.7344 41.75
Q66.2656 36.7656 59.5938 33.9844
Q52.9375 31.2031 46.6875 31.2031
L30.4219 31.2031
L24.3125 6.5
Q24.125 5.51562 24.125 5.07812
Q24.125 4.6875 24.2344 4.42188
Q24.3594 4.15625 24.5781 4.07812
Q24.8125 4 25.2969 3.90625
Q27.2031 3.51562 32.5156 3.51562
Q33.5 3.51562 33.5 2.20312
Q33.1562 0.78125 32.9531 0.390625
Q32.7656 0 31.7812 0
z

M30.9062 34.1875
L44.9219 34.1875
Q54.6406 34.1875 59.7188 39.4062
Q62.3125 42 63.9375 46.875
Q65.5781 51.7656 65.5781 55.7188
Q65.5781 60.6406 61.8125 62.7188
Q58.0625 64.7969 52.4844 64.7969
L42.9219 64.7969
Q40.1875 64.7969 39.2969 64.3281
Q38.4219 63.875 37.7031 61.375
z
" id="Cmmi10-50"/>
     </defs>
     <g transform="translate(16.29375 134.63375)rotate(-90.0)scale(0.12 -0.12)">
      <use transform="translate(0.0 0.421875)" xlink:href="#Cmmi10-50"/>
      <use transform="translate(64.208984375 2.859375)scale(0.921875)" xlink:href="#Cmr10-28"/>
      <use transform="translate(99.99465942382812 0.421875)" xlink:href="#Cmr10-6c"/>
      <use transform="translate(127.68020629882812 0.421875)" xlink:href="#Cmr10-6f"/>
      <use transform="translate(177.68020629882812 0.421875)" xlink:href="#Cmr10-67"/>
      <use transform="translate(227.68020629882812 17.46875)scale(0.72703125)" xlink:href="#Cmr10-28"/>
      <use transform="translate(255.90235900878906 0.421875)" xlink:href="#Cmr10-a2"/>
      <use transform="translate(339.20314025878906 0.421875)" xlink:href="#Cmmi10-72"/>
      <use transform="translate(384.32032775878906 17.46875)scale(0.72703125)" xlink:href="#Cmr10-29"/>
      <use transform="translate(412.54248046875 2.859375)scale(0.921875)" xlink:href="#Cmr10-29"/>
     </g>
    </g>
   </g>
   <g id="text_16">
    <!-- $\phi = 0.584$ -->
    <defs>
     <path d="
M2.78125 16.5
L2.78125 20.0156
L33.6875 66.1094
Q34.0312 66.6094 34.7188 66.6094
L36.1875 66.6094
Q37.3125 66.6094 37.3125 65.4844
L37.3125 20.0156
L47.125 20.0156
L47.125 16.5
L37.3125 16.5
L37.3125 6.6875
Q37.3125 4.64062 40.2344 4.07812
Q43.1719 3.51562 47.0156 3.51562
L47.0156 0
L19.4844 0
L19.4844 3.51562
Q23.3438 3.51562 26.2656 4.07812
Q29.2031 4.64062 29.2031 6.6875
L29.2031 16.5
z

M6.10938 20.0156
L29.7812 20.0156
L29.7812 55.4219
z
" id="Cmr10-34"/>
     <path d="
M19.3906 -19.4844
L23.875 -1.42188
Q18.7969 -1.42188 14.4062 0.953125
Q10.0156 3.32812 7.34375 7.5625
Q4.6875 11.8125 4.6875 16.7969
Q4.6875 22.2188 7.375 27.1406
Q10.0625 32.0781 14.7188 36.1094
Q19.3906 40.1406 24.75 42.3125
Q30.125 44.4844 35.4062 44.4844
L41.4062 68.7969
Q41.6094 69.3906 42.1875 69.3906
L43.4062 69.3906
Q43.7969 69.3906 44.0312 69.0469
Q44.2812 68.7031 44.2812 68.4062
L38.2812 44.4844
Q42.0469 44.4844 45.5625 43.1094
Q49.0781 41.75 51.7812 39.2812
Q54.5 36.8125 56 33.4688
Q57.5156 30.125 57.5156 26.3125
Q57.5156 20.9062 54.8281 15.9688
Q52.1562 11.0312 47.6094 7.07812
Q43.0625 3.125 37.4688 0.84375
Q31.8906 -1.42188 26.8125 -1.42188
L22.2188 -19.9219
Q22.0156 -20.5156 21.3906 -20.5156
L20.2188 -20.5156
Q19.8281 -20.5156 19.6094 -20.1406
Q19.3906 -19.7812 19.3906 -19.4844
M24.5156 1.21875
L34.7188 41.8906
Q32.1719 41.8906 29.3906 40.8594
Q26.6094 39.8438 24.1406 38.2812
Q21.6875 36.7188 19.6719 34.7188
Q17.2344 32.2812 15.375 28.9531
Q13.5312 25.6406 12.5781 21.9531
Q11.625 18.2656 11.625 14.7031
Q11.625 10.9375 13.2344 7.85938
Q14.8438 4.78125 17.7656 3
Q20.7031 1.21875 24.5156 1.21875
M27.4844 1.21875
Q31.25 1.21875 35.5 3.35938
Q39.75 5.51562 42.4844 8.40625
Q46.2344 12.1094 48.4062 17.5
Q50.5938 22.9062 50.5938 28.4219
Q50.5938 32.125 48.9688 35.2188
Q47.3594 38.3281 44.4219 40.1094
Q41.5 41.8906 37.7031 41.8906
z
" id="Cmmi10-c1"/>
     <path d="
M8.40625 5.51562
Q8.40625 7.76562 10.0625 9.375
Q11.7188 10.9844 13.9219 10.9844
Q15.2812 10.9844 16.5938 10.25
Q17.9219 9.51562 18.6562 8.20312
Q19.3906 6.89062 19.3906 5.51562
Q19.3906 3.32812 17.7656 1.65625
Q16.1562 0 13.9219 0
Q11.7188 0 10.0625 1.65625
Q8.40625 3.32812 8.40625 5.51562" id="Cmmi10-3a"/>
     <path d="
M4.20312 15.1875
Q4.20312 21.1875 8.15625 25.7969
Q12.1094 30.4219 18.3125 33.5
L14.5938 35.8906
Q11.1875 38.1406 9.03125 41.875
Q6.89062 45.6094 6.89062 49.7031
Q6.89062 54.5 9.40625 58.3438
Q11.9219 62.2031 16.0938 64.4062
Q20.2656 66.6094 25 66.6094
Q29.4375 66.6094 33.5625 64.7969
Q37.7031 62.9844 40.3594 59.6094
Q43.0156 56.25 43.0156 51.6094
Q43.0156 48.25 41.4219 45.3594
Q39.8438 42.4844 37.0781 40.1875
Q34.3281 37.8906 31.2031 36.2812
L36.9219 32.625
Q40.875 30.0312 43.2812 25.8281
Q45.7031 21.625 45.7031 17
Q45.7031 11.5781 42.7969 7.125
Q39.8906 2.6875 35.1094 0.234375
Q30.3281 -2.20312 25 -2.20312
Q19.8281 -2.20312 15.0156 -0.09375
Q10.2031 2 7.20312 5.98438
Q4.20312 9.96875 4.20312 15.1875
M9.625 15.1875
Q9.625 11.2344 11.7969 7.95312
Q13.9688 4.6875 17.5312 2.82812
Q21.0938 0.984375 25 0.984375
Q30.8125 0.984375 35.5469 4.375
Q40.2812 7.76562 40.2812 13.375
Q40.2812 15.2812 39.5156 17.1562
Q38.7656 19.0469 37.4219 20.5781
Q36.0781 22.125 34.4219 23.0938
L21 31.7812
Q17.875 30.125 15.25 27.5781
Q12.6406 25.0469 11.125 21.875
Q9.625 18.7031 9.625 15.1875
M16.5 45.7031
L28.6094 37.8906
Q32.8125 40.3281 35.5 43.7969
Q38.1875 47.2656 38.1875 51.6094
Q38.1875 54.9844 36.2969 57.7812
Q34.4219 60.5938 31.3906 62.1562
Q28.375 63.7188 24.9062 63.7188
Q21.875 63.7188 18.7969 62.5469
Q15.7188 61.375 13.7188 59.0469
Q11.7188 56.7344 11.7188 53.6094
Q11.7188 48.9219 16.5 45.7031" id="Cmr10-38"/>
     <path d="
M25 -2.20312
Q12.75 -2.20312 8.32812 7.875
Q3.90625 17.9688 3.90625 31.8906
Q3.90625 40.5781 5.48438 48.2344
Q7.07812 55.9062 11.7812 61.25
Q16.5 66.6094 25 66.6094
Q31.5938 66.6094 35.7812 63.375
Q39.9844 60.1562 42.1875 55.0469
Q44.3906 49.9531 45.1875 44.1094
Q46 38.2812 46 31.8906
Q46 23.2969 44.4062 15.7969
Q42.8281 8.29688 38.1875 3.04688
Q33.5469 -2.20312 25 -2.20312
M25 0.390625
Q30.5625 0.390625 33.2969 6.09375
Q36.0312 11.8125 36.6719 18.75
Q37.3125 25.6875 37.3125 33.5
Q37.3125 41.0156 36.6719 47.3594
Q36.0312 53.7188 33.3125 58.8594
Q30.6094 64.0156 25 64.0156
Q19.3438 64.0156 16.6094 58.8281
Q13.875 53.6562 13.2344 47.3281
Q12.5938 41.0156 12.5938 33.5
Q12.5938 27.9375 12.8594 23
Q13.1406 18.0625 14.3125 12.8125
Q15.4844 7.5625 18.0938 3.96875
Q20.7031 0.390625 25 0.390625" id="Cmr10-30"/>
     <path d="
M7.51562 13.2812
Q6.6875 13.2812 6.14062 13.9062
Q5.60938 14.5469 5.60938 15.2812
Q5.60938 16.1094 6.14062 16.6875
Q6.6875 17.2812 7.51562 17.2812
L70.3125 17.2812
Q71.0469 17.2812 71.5781 16.6875
Q72.125 16.1094 72.125 15.2812
Q72.125 14.5469 71.5781 13.9062
Q71.0469 13.2812 70.3125 13.2812
z

M7.51562 32.7188
Q6.6875 32.7188 6.14062 33.2969
Q5.60938 33.8906 5.60938 34.7188
Q5.60938 35.4531 6.14062 36.0781
Q6.6875 36.7188 7.51562 36.7188
L70.3125 36.7188
Q71.0469 36.7188 71.5781 36.0781
Q72.125 35.4531 72.125 34.7188
Q72.125 33.8906 71.5781 33.2969
Q71.0469 32.7188 70.3125 32.7188
z
" id="Cmr10-3d"/>
     <path d="
M8.6875 11.375
Q9.71875 8.45312 11.8438 6.04688
Q13.9688 3.65625 16.875 2.3125
Q19.7812 0.984375 22.9062 0.984375
Q30.125 0.984375 32.8594 6.59375
Q35.5938 12.2031 35.5938 20.2188
Q35.5938 23.6875 35.4688 26.0469
Q35.3594 28.4219 34.8125 30.6094
Q33.8906 34.125 31.5625 36.7656
Q29.25 39.4062 25.875 39.4062
Q22.5156 39.4062 20.0938 38.375
Q17.6719 37.3594 16.1562 35.9844
Q14.6562 34.625 13.4844 33.1094
Q12.3125 31.5938 12.0156 31.5
L10.8906 31.5
Q10.6406 31.5 10.2656 31.8125
Q9.90625 32.125 9.90625 32.4219
L9.90625 65.8281
Q9.90625 66.0625 10.2188 66.3281
Q10.5469 66.6094 10.8906 66.6094
L11.1875 66.6094
Q17.9219 63.375 25.4844 63.375
Q32.9062 63.375 39.7969 66.6094
L40.0938 66.6094
Q40.4375 66.6094 40.7188 66.3594
Q41.0156 66.1094 41.0156 65.8281
L41.0156 64.8906
Q41.0156 64.4062 40.8281 64.4062
Q37.4062 59.8594 32.25 57.3125
Q27.0938 54.7812 21.5781 54.7812
Q17.5781 54.7812 13.375 55.9062
L13.375 37.0156
Q16.7031 39.7031 19.3125 40.8438
Q21.9219 42 25.9844 42
Q31.5 42 35.8594 38.8125
Q40.2344 35.6406 42.5781 30.5312
Q44.9219 25.4375 44.9219 20.125
Q44.9219 14.1094 41.9688 8.98438
Q39.0156 3.85938 33.9375 0.828125
Q28.8594 -2.20312 22.9062 -2.20312
Q17.9688 -2.20312 13.8438 0.328125
Q9.71875 2.875 7.34375 7.17188
Q4.98438 11.4688 4.98438 16.3125
Q4.98438 18.5625 6.4375 19.9688
Q7.90625 21.3906 10.1094 21.3906
Q12.3125 21.3906 13.7969 19.9375
Q15.2812 18.5 15.2812 16.3125
Q15.2812 14.1562 13.7969 12.6719
Q12.3125 11.1875 10.1094 11.1875
Q9.76562 11.1875 9.32812 11.25
Q8.89062 11.3281 8.6875 11.375" id="Cmr10-35"/>
    </defs>
    <g transform="translate(130.6965625 16.29375)scale(0.12 -0.12)">
     <use transform="translate(0.0 0.609375)" xlink:href="#Cmmi10-c1"/>
     <use transform="translate(77.080078125 0.609375)" xlink:href="#Cmr10-3d"/>
     <use transform="translate(161.138671875 0.609375)" xlink:href="#Cmr10-30"/>
     <use transform="translate(211.138671875 0.609375)" xlink:href="#Cmmi10-3a"/>
     <use transform="translate(239.681640625 0.609375)" xlink:href="#Cmr10-35"/>
     <use transform="translate(289.681640625 0.609375)" xlink:href="#Cmr10-38"/>
     <use transform="translate(339.681640625 0.609375)" xlink:href="#Cmr10-34"/>
    </g>
   </g>
   <g id="legend_1">
    <g id="patch_7">
     <path d="
M46.6616 89.0921
L99.3332 89.0921
L99.3332 25.4587
L46.6616 25.4587
z
" style="fill:#ffffff;stroke:#000000;stroke-linejoin:miter;"/>
    </g>
    <g id="line2d_85">
     <path d="
M52.4926 32.2047
L64.1546 32.2047" style="fill:none;stroke:#4daf4a;stroke-linecap:square;stroke-width:0.8;"/>
    </g>
    <g id="line2d_86"/>
    <g id="text_17">
     <!-- 100.0 -->
     <g transform="translate(73.3175625 35.1202484375)scale(0.0833 -0.0833)">
      <use xlink:href="#BitstreamVeraSans-Roman-31"/>
      <use x="63.623046875" xlink:href="#BitstreamVeraSans-Roman-30"/>
      <use x="127.24609375" xlink:href="#BitstreamVeraSans-Roman-30"/>
      <use x="190.869140625" xlink:href="#BitstreamVeraSans-Roman-2e"/>
      <use x="222.65625" xlink:href="#BitstreamVeraSans-Roman-30"/>
     </g>
    </g>
    <g id="line2d_87">
     <path d="
M52.4926 44.4316
L64.1546 44.4316" style="fill:none;stroke:#377eb8;stroke-linecap:square;stroke-width:0.8;"/>
    </g>
    <g id="line2d_88"/>
    <g id="text_18">
     <!-- 200.0 -->
     <g transform="translate(73.3175625 47.3471265625)scale(0.0833 -0.0833)">
      <use xlink:href="#BitstreamVeraSans-Roman-32"/>
      <use x="63.623046875" xlink:href="#BitstreamVeraSans-Roman-30"/>
      <use x="127.24609375" xlink:href="#BitstreamVeraSans-Roman-30"/>
      <use x="190.869140625" xlink:href="#BitstreamVeraSans-Roman-2e"/>
      <use x="222.65625" xlink:href="#BitstreamVeraSans-Roman-30"/>
     </g>
    </g>
    <g id="line2d_89">
     <path d="
M52.4926 56.6585
L64.1546 56.6585" style="fill:none;stroke:#994ea2;stroke-linecap:square;stroke-width:0.8;"/>
    </g>
    <g id="line2d_90"/>
    <g id="text_19">
     <!-- 300.0 -->
     <defs>
      <path d="
M40.5781 39.3125
Q47.6562 37.7969 51.625 33
Q55.6094 28.2188 55.6094 21.1875
Q55.6094 10.4062 48.1875 4.48438
Q40.7656 -1.42188 27.0938 -1.42188
Q22.5156 -1.42188 17.6562 -0.515625
Q12.7969 0.390625 7.625 2.20312
L7.625 11.7188
Q11.7188 9.32812 16.5938 8.10938
Q21.4844 6.89062 26.8125 6.89062
Q36.0781 6.89062 40.9375 10.5469
Q45.7969 14.2031 45.7969 21.1875
Q45.7969 27.6406 41.2812 31.2656
Q36.7656 34.9062 28.7188 34.9062
L20.2188 34.9062
L20.2188 43.0156
L29.1094 43.0156
Q36.375 43.0156 40.2344 45.9219
Q44.0938 48.8281 44.0938 54.2969
Q44.0938 59.9062 40.1094 62.9062
Q36.1406 65.9219 28.7188 65.9219
Q24.6562 65.9219 20.0156 65.0312
Q15.375 64.1562 9.8125 62.3125
L9.8125 71.0938
Q15.4375 72.6562 20.3438 73.4375
Q25.25 74.2188 29.5938 74.2188
Q40.8281 74.2188 47.3594 69.1094
Q53.9062 64.0156 53.9062 55.3281
Q53.9062 49.2656 50.4375 45.0938
Q46.9688 40.9219 40.5781 39.3125" id="BitstreamVeraSans-Roman-33"/>
     </defs>
     <g transform="translate(73.3175625 59.5740046875)scale(0.0833 -0.0833)">
      <use xlink:href="#BitstreamVeraSans-Roman-33"/>
      <use x="63.623046875" xlink:href="#BitstreamVeraSans-Roman-30"/>
      <use x="127.24609375" xlink:href="#BitstreamVeraSans-Roman-30"/>
      <use x="190.869140625" xlink:href="#BitstreamVeraSans-Roman-2e"/>
      <use x="222.65625" xlink:href="#BitstreamVeraSans-Roman-30"/>
     </g>
    </g>
    <g id="line2d_91">
     <path d="
M52.4926 68.8854
L64.1546 68.8854" style="fill:none;stroke:#e41b1c;stroke-linecap:square;stroke-width:0.8;"/>
    </g>
    <g id="line2d_92"/>
    <g id="text_20">
     <!-- 500.0 -->
     <defs>
      <path d="
M10.7969 72.9062
L49.5156 72.9062
L49.5156 64.5938
L19.8281 64.5938
L19.8281 46.7344
Q21.9688 47.4688 24.1094 47.8281
Q26.2656 48.1875 28.4219 48.1875
Q40.625 48.1875 47.75 41.5
Q54.8906 34.8125 54.8906 23.3906
Q54.8906 11.625 47.5625 5.09375
Q40.2344 -1.42188 26.9062 -1.42188
Q22.3125 -1.42188 17.5469 -0.640625
Q12.7969 0.140625 7.71875 1.70312
L7.71875 11.625
Q12.1094 9.23438 16.7969 8.0625
Q21.4844 6.89062 26.7031 6.89062
Q35.1562 6.89062 40.0781 11.3281
Q45.0156 15.7656 45.0156 23.3906
Q45.0156 31 40.0781 35.4375
Q35.1562 39.8906 26.7031 39.8906
Q22.75 39.8906 18.8125 39.0156
Q14.8906 38.1406 10.7969 36.2812
z
" id="BitstreamVeraSans-Roman-35"/>
     </defs>
     <g transform="translate(73.3175625 71.8008828125)scale(0.0833 -0.0833)">
      <use xlink:href="#BitstreamVeraSans-Roman-35"/>
      <use x="63.623046875" xlink:href="#BitstreamVeraSans-Roman-30"/>
      <use x="127.24609375" xlink:href="#BitstreamVeraSans-Roman-30"/>
      <use x="190.869140625" xlink:href="#BitstreamVeraSans-Roman-2e"/>
      <use x="222.65625" xlink:href="#BitstreamVeraSans-Roman-30"/>
     </g>
    </g>
    <g id="line2d_93">
     <path d="
M52.4926 81.1123
L64.1546 81.1123" style="fill:none;stroke:#ff7f00;stroke-linecap:square;stroke-width:0.8;"/>
    </g>
    <g id="line2d_94"/>
    <g id="text_21">
     <!-- 700.0 -->
     <defs>
      <path d="
M8.20312 72.9062
L55.0781 72.9062
L55.0781 68.7031
L28.6094 0
L18.3125 0
L43.2188 64.5938
L8.20312 64.5938
z
" id="BitstreamVeraSans-Roman-37"/>
     </defs>
     <g transform="translate(73.3175625 84.0277609375)scale(0.0833 -0.0833)">
      <use xlink:href="#BitstreamVeraSans-Roman-37"/>
      <use x="63.623046875" xlink:href="#BitstreamVeraSans-Roman-30"/>
      <use x="127.24609375" xlink:href="#BitstreamVeraSans-Roman-30"/>
      <use x="190.869140625" xlink:href="#BitstreamVeraSans-Roman-2e"/>
      <use x="222.65625" xlink:href="#BitstreamVeraSans-Roman-30"/>
     </g>
    </g>
   </g>
  </g>
 </g>
 <defs>
  <clipPath id="pfb350f5826">
   <rect height="172.8" width="223.2" x="42.4965625" y="21.29375"/>
  </clipPath>
 </defs>
</svg>
