<?xml version="1.0" encoding="utf-8" standalone="no"?>
<!DOCTYPE svg PUBLIC "-//W3C//DTD SVG 1.1//EN"
  "http://www.w3.org/Graphics/SVG/1.1/DTD/svg11.dtd">
<!-- Created with matplotlib (http://matplotlib.org/) -->
<svg height="180pt" version="1.1" viewBox="0 0 230 180" width="230pt" xmlns="http://www.w3.org/2000/svg" xmlns:xlink="http://www.w3.org/1999/xlink">
 <defs>
  <style type="text/css">
*{stroke-linecap:butt;stroke-linejoin:round;stroke-miterlimit:100000;}
  </style>
 </defs>
 <g id="figure_1">
  <g id="patch_1">
   <path d="M 0 180 
L 230.4 180 
L 230.4 0 
L 0 0 
z
" style="fill:#ffffff;"/>
  </g>
  <g id="axes_1">
   <g id="patch_2">
    <path d="M 46.2 137.064075 
L 211.908161 137.064075 
L 211.908161 15 
L 46.2 15 
z
" style="fill:#ffffff;"/>
   </g>
   <g id="line2d_1">
    <path clip-path="url(#pa896f30a35)" d="M 46.2 137.064075 
L 95.13284 136.9658 
L 96.459833 136.720647 
L 97.289203 136.362192 
L 97.952699 135.866118 
L 98.616195 135.08598 
L 99.279691 133.904111 
L 99.943187 132.180402 
L 100.606683 129.7621 
L 101.27018 126.501656 
L 102.09955 121.070027 
L 102.92892 114.065592 
L 104.090038 102.003967 
L 106.412275 76.94523 
L 107.075771 71.962708 
L 107.573393 69.44115 
L 107.905141 68.419587 
L 108.236889 67.956649 
L 108.402763 67.938782 
L 108.568637 68.063757 
L 108.900385 68.738265 
L 109.232133 69.963565 
L 109.729755 72.765537 
L 110.393251 78.053871 
L 111.388496 88.303245 
L 113.876606 115.213165 
L 114.87185 123.150322 
L 115.701221 128.040257 
L 116.530591 131.506541 
L 117.194087 133.430714 
L 117.857583 134.766 
L 118.521079 135.657868 
L 119.184575 136.231614 
L 120.013945 136.651457 
L 121.00919 136.898067 
L 122.66793 137.033226 
L 127.146529 137.063958 
L 211.908161 137.064075 
L 211.908161 137.064075 
" style="fill:none;stroke:#e41a1c;stroke-linecap:square;stroke-width:2.0;"/>
   </g>
   <g id="patch_3">
    <path d="M 46.2 15 
L 211.908161 15 
" style="fill:none;stroke:#000000;stroke-linecap:square;stroke-linejoin:miter;"/>
   </g>
   <g id="patch_4">
    <path d="M 211.908161 137.064075 
L 211.908161 15 
" style="fill:none;stroke:#000000;stroke-linecap:square;stroke-linejoin:miter;"/>
   </g>
   <g id="patch_5">
    <path d="M 46.2 137.064075 
L 211.908161 137.064075 
" style="fill:none;stroke:#000000;stroke-linecap:square;stroke-linejoin:miter;"/>
   </g>
   <g id="patch_6">
    <path d="M 46.2 137.064075 
L 46.2 15 
" style="fill:none;stroke:#000000;stroke-linecap:square;stroke-linejoin:miter;"/>
   </g>
   <g id="matplotlib.axis_1">
    <g id="xtick_1">
     <g id="line2d_2">
      <defs>
       <path d="M 0 0 
L 0 -4 
" id="m16c9fd2d1c" style="stroke:#000000;stroke-width:0.5;"/>
      </defs>
      <g>
       <use style="stroke:#000000;stroke-width:0.5;" x="46.2" xlink:href="#m16c9fd2d1c" y="137.064075"/>
      </g>
     </g>
     <g id="line2d_3">
      <defs>
       <path d="M 0 0 
L 0 4 
" id="m6972ec6927" style="stroke:#000000;stroke-width:0.5;"/>
      </defs>
      <g>
       <use style="stroke:#000000;stroke-width:0.5;" x="46.2" xlink:href="#m6972ec6927" y="15.0"/>
      </g>
     </g>
     <g id="text_1">
      <!-- $\mathdefault{10^{-6}}$ -->
      <defs>
       <path d="M 4.890625 31.390625 
L 31.203125 31.390625 
L 31.203125 23.390625 
L 4.890625 23.390625 
z
" id="BitstreamVeraSans-Roman-2d"/>
       <path d="M 33.015625 40.375 
Q 26.375 40.375 22.484375 35.828125 
Q 18.609375 31.296875 18.609375 23.390625 
Q 18.609375 15.53125 22.484375 10.953125 
Q 26.375 6.390625 33.015625 6.390625 
Q 39.65625 6.390625 43.53125 10.953125 
Q 47.40625 15.53125 47.40625 23.390625 
Q 47.40625 31.296875 43.53125 35.828125 
Q 39.65625 40.375 33.015625 40.375 
M 52.59375 71.296875 
L 52.59375 62.3125 
Q 48.875 64.0625 45.09375 64.984375 
Q 41.3125 65.921875 37.59375 65.921875 
Q 27.828125 65.921875 22.671875 59.328125 
Q 17.53125 52.734375 16.796875 39.40625 
Q 19.671875 43.65625 24.015625 45.921875 
Q 28.375 48.1875 33.59375 48.1875 
Q 44.578125 48.1875 50.953125 41.515625 
Q 57.328125 34.859375 57.328125 23.390625 
Q 57.328125 12.15625 50.6875 5.359375 
Q 44.046875 -1.421875 33.015625 -1.421875 
Q 20.359375 -1.421875 13.671875 8.265625 
Q 6.984375 17.96875 6.984375 36.375 
Q 6.984375 53.65625 15.1875 63.9375 
Q 23.390625 74.21875 37.203125 74.21875 
Q 40.921875 74.21875 44.703125 73.484375 
Q 48.484375 72.75 52.59375 71.296875 
" id="BitstreamVeraSans-Roman-36"/>
       <path d="M 31.78125 66.40625 
Q 24.171875 66.40625 20.328125 58.90625 
Q 16.5 51.421875 16.5 36.375 
Q 16.5 21.390625 20.328125 13.890625 
Q 24.171875 6.390625 31.78125 6.390625 
Q 39.453125 6.390625 43.28125 13.890625 
Q 47.125 21.390625 47.125 36.375 
Q 47.125 51.421875 43.28125 58.90625 
Q 39.453125 66.40625 31.78125 66.40625 
M 31.78125 74.21875 
Q 44.046875 74.21875 50.515625 64.515625 
Q 56.984375 54.828125 56.984375 36.375 
Q 56.984375 17.96875 50.515625 8.265625 
Q 44.046875 -1.421875 31.78125 -1.421875 
Q 19.53125 -1.421875 13.0625 8.265625 
Q 6.59375 17.96875 6.59375 36.375 
Q 6.59375 54.828125 13.0625 64.515625 
Q 19.53125 74.21875 31.78125 74.21875 
" id="BitstreamVeraSans-Roman-30"/>
       <path d="M 12.40625 8.296875 
L 28.515625 8.296875 
L 28.515625 63.921875 
L 10.984375 60.40625 
L 10.984375 69.390625 
L 28.421875 72.90625 
L 38.28125 72.90625 
L 38.28125 8.296875 
L 54.390625 8.296875 
L 54.390625 0 
L 12.40625 0 
z
" id="BitstreamVeraSans-Roman-31"/>
      </defs>
      <g transform="translate(37.41185 147.828295313)scale(0.0833 -0.0833)">
       <use transform="translate(0.0 0.796875)" xlink:href="#BitstreamVeraSans-Roman-31"/>
       <use transform="translate(63.623046875 0.796875)" xlink:href="#BitstreamVeraSans-Roman-30"/>
       <use transform="translate(132.75859375 48.046875)scale(0.7)" xlink:href="#BitstreamVeraSans-Roman-2d"/>
       <use transform="translate(158.0173828125 48.046875)scale(0.7)" xlink:href="#BitstreamVeraSans-Roman-36"/>
      </g>
     </g>
    </g>
    <g id="xtick_2">
     <g id="line2d_4">
      <g>
       <use style="stroke:#000000;stroke-width:0.5;" x="66.9135200903" xlink:href="#m16c9fd2d1c" y="137.064075"/>
      </g>
     </g>
     <g id="line2d_5">
      <g>
       <use style="stroke:#000000;stroke-width:0.5;" x="66.9135200903" xlink:href="#m6972ec6927" y="15.0"/>
      </g>
     </g>
     <g id="text_2">
      <!-- $\mathdefault{10^{-5}}$ -->
      <defs>
       <path d="M 10.796875 72.90625 
L 49.515625 72.90625 
L 49.515625 64.59375 
L 19.828125 64.59375 
L 19.828125 46.734375 
Q 21.96875 47.46875 24.109375 47.828125 
Q 26.265625 48.1875 28.421875 48.1875 
Q 40.625 48.1875 47.75 41.5 
Q 54.890625 34.8125 54.890625 23.390625 
Q 54.890625 11.625 47.5625 5.09375 
Q 40.234375 -1.421875 26.90625 -1.421875 
Q 22.3125 -1.421875 17.546875 -0.640625 
Q 12.796875 0.140625 7.71875 1.703125 
L 7.71875 11.625 
Q 12.109375 9.234375 16.796875 8.0625 
Q 21.484375 6.890625 26.703125 6.890625 
Q 35.15625 6.890625 40.078125 11.328125 
Q 45.015625 15.765625 45.015625 23.390625 
Q 45.015625 31 40.078125 35.4375 
Q 35.15625 39.890625 26.703125 39.890625 
Q 22.75 39.890625 18.8125 39.015625 
Q 14.890625 38.140625 10.796875 36.28125 
z
" id="BitstreamVeraSans-Roman-35"/>
      </defs>
      <g transform="translate(58.1253700903 147.744995313)scale(0.0833 -0.0833)">
       <use transform="translate(0.0 0.7156250000000028)" xlink:href="#BitstreamVeraSans-Roman-31"/>
       <use transform="translate(63.623046875 0.7156250000000028)" xlink:href="#BitstreamVeraSans-Roman-30"/>
       <use transform="translate(132.75859375 47.965625)scale(0.7)" xlink:href="#BitstreamVeraSans-Roman-2d"/>
       <use transform="translate(158.0173828125 47.965625)scale(0.7)" xlink:href="#BitstreamVeraSans-Roman-35"/>
      </g>
     </g>
    </g>
    <g id="xtick_3">
     <g id="line2d_6">
      <g>
       <use style="stroke:#000000;stroke-width:0.5;" x="87.6270401807" xlink:href="#m16c9fd2d1c" y="137.064075"/>
      </g>
     </g>
     <g id="line2d_7">
      <g>
       <use style="stroke:#000000;stroke-width:0.5;" x="87.6270401807" xlink:href="#m6972ec6927" y="15.0"/>
      </g>
     </g>
     <g id="text_3">
      <!-- $\mathdefault{10^{-4}}$ -->
      <defs>
       <path d="M 37.796875 64.3125 
L 12.890625 25.390625 
L 37.796875 25.390625 
z
M 35.203125 72.90625 
L 47.609375 72.90625 
L 47.609375 25.390625 
L 58.015625 25.390625 
L 58.015625 17.1875 
L 47.609375 17.1875 
L 47.609375 0 
L 37.796875 0 
L 37.796875 17.1875 
L 4.890625 17.1875 
L 4.890625 26.703125 
z
" id="BitstreamVeraSans-Roman-34"/>
      </defs>
      <g transform="translate(78.8388901807 147.744995313)scale(0.0833 -0.0833)">
       <use transform="translate(0.0 0.7156250000000028)" xlink:href="#BitstreamVeraSans-Roman-31"/>
       <use transform="translate(63.623046875 0.7156250000000028)" xlink:href="#BitstreamVeraSans-Roman-30"/>
       <use transform="translate(132.75859375 47.965625)scale(0.7)" xlink:href="#BitstreamVeraSans-Roman-2d"/>
       <use transform="translate(158.0173828125 47.965625)scale(0.7)" xlink:href="#BitstreamVeraSans-Roman-34"/>
      </g>
     </g>
    </g>
    <g id="xtick_4">
     <g id="line2d_8">
      <g>
       <use style="stroke:#000000;stroke-width:0.5;" x="108.340560271" xlink:href="#m16c9fd2d1c" y="137.064075"/>
      </g>
     </g>
     <g id="line2d_9">
      <g>
       <use style="stroke:#000000;stroke-width:0.5;" x="108.340560271" xlink:href="#m6972ec6927" y="15.0"/>
      </g>
     </g>
     <g id="text_4">
      <!-- $\mathdefault{10^{-3}}$ -->
      <defs>
       <path d="M 40.578125 39.3125 
Q 47.65625 37.796875 51.625 33 
Q 55.609375 28.21875 55.609375 21.1875 
Q 55.609375 10.40625 48.1875 4.484375 
Q 40.765625 -1.421875 27.09375 -1.421875 
Q 22.515625 -1.421875 17.65625 -0.515625 
Q 12.796875 0.390625 7.625 2.203125 
L 7.625 11.71875 
Q 11.71875 9.328125 16.59375 8.109375 
Q 21.484375 6.890625 26.8125 6.890625 
Q 36.078125 6.890625 40.9375 10.546875 
Q 45.796875 14.203125 45.796875 21.1875 
Q 45.796875 27.640625 41.28125 31.265625 
Q 36.765625 34.90625 28.71875 34.90625 
L 20.21875 34.90625 
L 20.21875 43.015625 
L 29.109375 43.015625 
Q 36.375 43.015625 40.234375 45.921875 
Q 44.09375 48.828125 44.09375 54.296875 
Q 44.09375 59.90625 40.109375 62.90625 
Q 36.140625 65.921875 28.71875 65.921875 
Q 24.65625 65.921875 20.015625 65.03125 
Q 15.375 64.15625 9.8125 62.3125 
L 9.8125 71.09375 
Q 15.4375 72.65625 20.34375 73.4375 
Q 25.25 74.21875 29.59375 74.21875 
Q 40.828125 74.21875 47.359375 69.109375 
Q 53.90625 64.015625 53.90625 55.328125 
Q 53.90625 49.265625 50.4375 45.09375 
Q 46.96875 40.921875 40.578125 39.3125 
" id="BitstreamVeraSans-Roman-33"/>
      </defs>
      <g transform="translate(99.552410271 147.828295313)scale(0.0833 -0.0833)">
       <use transform="translate(0.0 0.796875)" xlink:href="#BitstreamVeraSans-Roman-31"/>
       <use transform="translate(63.623046875 0.796875)" xlink:href="#BitstreamVeraSans-Roman-30"/>
       <use transform="translate(132.75859375 48.046875)scale(0.7)" xlink:href="#BitstreamVeraSans-Roman-2d"/>
       <use transform="translate(158.0173828125 48.046875)scale(0.7)" xlink:href="#BitstreamVeraSans-Roman-33"/>
      </g>
     </g>
    </g>
    <g id="xtick_5">
     <g id="line2d_10">
      <g>
       <use style="stroke:#000000;stroke-width:0.5;" x="129.054080361" xlink:href="#m16c9fd2d1c" y="137.064075"/>
      </g>
     </g>
     <g id="line2d_11">
      <g>
       <use style="stroke:#000000;stroke-width:0.5;" x="129.054080361" xlink:href="#m6972ec6927" y="15.0"/>
      </g>
     </g>
     <g id="text_5">
      <!-- $\mathdefault{10^{-2}}$ -->
      <defs>
       <path d="M 19.1875 8.296875 
L 53.609375 8.296875 
L 53.609375 0 
L 7.328125 0 
L 7.328125 8.296875 
Q 12.9375 14.109375 22.625 23.890625 
Q 32.328125 33.6875 34.8125 36.53125 
Q 39.546875 41.84375 41.421875 45.53125 
Q 43.3125 49.21875 43.3125 52.78125 
Q 43.3125 58.59375 39.234375 62.25 
Q 35.15625 65.921875 28.609375 65.921875 
Q 23.96875 65.921875 18.8125 64.3125 
Q 13.671875 62.703125 7.8125 59.421875 
L 7.8125 69.390625 
Q 13.765625 71.78125 18.9375 73 
Q 24.125 74.21875 28.421875 74.21875 
Q 39.75 74.21875 46.484375 68.546875 
Q 53.21875 62.890625 53.21875 53.421875 
Q 53.21875 48.921875 51.53125 44.890625 
Q 49.859375 40.875 45.40625 35.40625 
Q 44.1875 33.984375 37.640625 27.21875 
Q 31.109375 20.453125 19.1875 8.296875 
" id="BitstreamVeraSans-Roman-32"/>
      </defs>
      <g transform="translate(120.265930361 147.828295313)scale(0.0833 -0.0833)">
       <use transform="translate(0.0 0.796875)" xlink:href="#BitstreamVeraSans-Roman-31"/>
       <use transform="translate(63.623046875 0.796875)" xlink:href="#BitstreamVeraSans-Roman-30"/>
       <use transform="translate(132.75859375 48.046875)scale(0.7)" xlink:href="#BitstreamVeraSans-Roman-2d"/>
       <use transform="translate(158.0173828125 48.046875)scale(0.7)" xlink:href="#BitstreamVeraSans-Roman-32"/>
      </g>
     </g>
    </g>
    <g id="xtick_6">
     <g id="line2d_12">
      <g>
       <use style="stroke:#000000;stroke-width:0.5;" x="149.767600452" xlink:href="#m16c9fd2d1c" y="137.064075"/>
      </g>
     </g>
     <g id="line2d_13">
      <g>
       <use style="stroke:#000000;stroke-width:0.5;" x="149.767600452" xlink:href="#m6972ec6927" y="15.0"/>
      </g>
     </g>
     <g id="text_6">
      <!-- $\mathdefault{10^{-1}}$ -->
      <g transform="translate(140.979450452 147.744995313)scale(0.0833 -0.0833)">
       <use transform="translate(0.0 0.7156250000000028)" xlink:href="#BitstreamVeraSans-Roman-31"/>
       <use transform="translate(63.623046875 0.7156250000000028)" xlink:href="#BitstreamVeraSans-Roman-30"/>
       <use transform="translate(132.75859375 47.965625)scale(0.7)" xlink:href="#BitstreamVeraSans-Roman-2d"/>
       <use transform="translate(158.0173828125 47.965625)scale(0.7)" xlink:href="#BitstreamVeraSans-Roman-31"/>
      </g>
     </g>
    </g>
    <g id="xtick_7">
     <g id="line2d_14">
      <g>
       <use style="stroke:#000000;stroke-width:0.5;" x="170.481120542" xlink:href="#m16c9fd2d1c" y="137.064075"/>
      </g>
     </g>
     <g id="line2d_15">
      <g>
       <use style="stroke:#000000;stroke-width:0.5;" x="170.481120542" xlink:href="#m6972ec6927" y="15.0"/>
      </g>
     </g>
     <g id="text_7">
      <!-- $\mathdefault{10^{0}}$ -->
      <g transform="translate(162.734220542 147.828295313)scale(0.0833 -0.0833)">
       <use transform="translate(0.0 0.796875)" xlink:href="#BitstreamVeraSans-Roman-31"/>
       <use transform="translate(63.623046875 0.796875)" xlink:href="#BitstreamVeraSans-Roman-30"/>
       <use transform="translate(132.75859375 48.046875)scale(0.7)" xlink:href="#BitstreamVeraSans-Roman-30"/>
      </g>
     </g>
    </g>
    <g id="xtick_8">
     <g id="line2d_16">
      <g>
       <use style="stroke:#000000;stroke-width:0.5;" x="191.194640632" xlink:href="#m16c9fd2d1c" y="137.064075"/>
      </g>
     </g>
     <g id="line2d_17">
      <g>
       <use style="stroke:#000000;stroke-width:0.5;" x="191.194640632" xlink:href="#m6972ec6927" y="15.0"/>
      </g>
     </g>
     <g id="text_8">
      <!-- $\mathdefault{10^{1}}$ -->
      <g transform="translate(183.447740632 147.744995313)scale(0.0833 -0.0833)">
       <use transform="translate(0.0 0.7156250000000028)" xlink:href="#BitstreamVeraSans-Roman-31"/>
       <use transform="translate(63.623046875 0.7156250000000028)" xlink:href="#BitstreamVeraSans-Roman-30"/>
       <use transform="translate(132.75859375 47.965625)scale(0.7)" xlink:href="#BitstreamVeraSans-Roman-31"/>
      </g>
     </g>
    </g>
    <g id="xtick_9">
     <g id="line2d_18">
      <g>
       <use style="stroke:#000000;stroke-width:0.5;" x="211.908160723" xlink:href="#m16c9fd2d1c" y="137.064075"/>
      </g>
     </g>
     <g id="line2d_19">
      <g>
       <use style="stroke:#000000;stroke-width:0.5;" x="211.908160723" xlink:href="#m6972ec6927" y="15.0"/>
      </g>
     </g>
     <g id="text_9">
      <!-- $\mathdefault{10^{2}}$ -->
      <g transform="translate(204.161260723 147.828295313)scale(0.0833 -0.0833)">
       <use transform="translate(0.0 0.796875)" xlink:href="#BitstreamVeraSans-Roman-31"/>
       <use transform="translate(63.623046875 0.796875)" xlink:href="#BitstreamVeraSans-Roman-30"/>
       <use transform="translate(132.75859375 48.046875)scale(0.7)" xlink:href="#BitstreamVeraSans-Roman-32"/>
      </g>
     </g>
    </g>
    <g id="xtick_10">
     <g id="line2d_20">
      <defs>
       <path d="M 0 0 
L 0 -2 
" id="md6f8a1c5fd" style="stroke:#000000;stroke-width:0.5;"/>
      </defs>
      <g>
       <use style="stroke:#000000;stroke-width:0.5;" x="52.435390863" xlink:href="#md6f8a1c5fd" y="137.064075"/>
      </g>
     </g>
     <g id="line2d_21">
      <defs>
       <path d="M 0 0 
L 0 2 
" id="m36a8dc9c0b" style="stroke:#000000;stroke-width:0.5;"/>
      </defs>
      <g>
       <use style="stroke:#000000;stroke-width:0.5;" x="52.435390863" xlink:href="#m36a8dc9c0b" y="15.0"/>
      </g>
     </g>
    </g>
    <g id="xtick_11">
     <g id="line2d_22">
      <g>
       <use style="stroke:#000000;stroke-width:0.5;" x="58.670781726" xlink:href="#md6f8a1c5fd" y="137.064075"/>
      </g>
     </g>
     <g id="line2d_23">
      <g>
       <use style="stroke:#000000;stroke-width:0.5;" x="58.670781726" xlink:href="#m36a8dc9c0b" y="15.0"/>
      </g>
     </g>
    </g>
    <g id="xtick_12">
     <g id="line2d_24">
      <g>
       <use style="stroke:#000000;stroke-width:0.5;" x="62.3182515581" xlink:href="#md6f8a1c5fd" y="137.064075"/>
      </g>
     </g>
     <g id="line2d_25">
      <g>
       <use style="stroke:#000000;stroke-width:0.5;" x="62.3182515581" xlink:href="#m36a8dc9c0b" y="15.0"/>
      </g>
     </g>
    </g>
    <g id="xtick_13">
     <g id="line2d_26">
      <g>
       <use style="stroke:#000000;stroke-width:0.5;" x="64.9061725889" xlink:href="#md6f8a1c5fd" y="137.064075"/>
      </g>
     </g>
     <g id="line2d_27">
      <g>
       <use style="stroke:#000000;stroke-width:0.5;" x="64.9061725889" xlink:href="#m36a8dc9c0b" y="15.0"/>
      </g>
     </g>
    </g>
    <g id="xtick_14">
     <g id="line2d_28">
      <g>
       <use style="stroke:#000000;stroke-width:0.5;" x="73.1489109533" xlink:href="#md6f8a1c5fd" y="137.064075"/>
      </g>
     </g>
     <g id="line2d_29">
      <g>
       <use style="stroke:#000000;stroke-width:0.5;" x="73.1489109533" xlink:href="#m36a8dc9c0b" y="15.0"/>
      </g>
     </g>
    </g>
    <g id="xtick_15">
     <g id="line2d_30">
      <g>
       <use style="stroke:#000000;stroke-width:0.5;" x="79.3843018163" xlink:href="#md6f8a1c5fd" y="137.064075"/>
      </g>
     </g>
     <g id="line2d_31">
      <g>
       <use style="stroke:#000000;stroke-width:0.5;" x="79.3843018163" xlink:href="#m36a8dc9c0b" y="15.0"/>
      </g>
     </g>
    </g>
    <g id="xtick_16">
     <g id="line2d_32">
      <g>
       <use style="stroke:#000000;stroke-width:0.5;" x="83.0317716485" xlink:href="#md6f8a1c5fd" y="137.064075"/>
      </g>
     </g>
     <g id="line2d_33">
      <g>
       <use style="stroke:#000000;stroke-width:0.5;" x="83.0317716485" xlink:href="#m36a8dc9c0b" y="15.0"/>
      </g>
     </g>
    </g>
    <g id="xtick_17">
     <g id="line2d_34">
      <g>
       <use style="stroke:#000000;stroke-width:0.5;" x="85.6196926793" xlink:href="#md6f8a1c5fd" y="137.064075"/>
      </g>
     </g>
     <g id="line2d_35">
      <g>
       <use style="stroke:#000000;stroke-width:0.5;" x="85.6196926793" xlink:href="#m36a8dc9c0b" y="15.0"/>
      </g>
     </g>
    </g>
    <g id="xtick_18">
     <g id="line2d_36">
      <g>
       <use style="stroke:#000000;stroke-width:0.5;" x="93.8624310436" xlink:href="#md6f8a1c5fd" y="137.064075"/>
      </g>
     </g>
     <g id="line2d_37">
      <g>
       <use style="stroke:#000000;stroke-width:0.5;" x="93.8624310436" xlink:href="#m36a8dc9c0b" y="15.0"/>
      </g>
     </g>
    </g>
    <g id="xtick_19">
     <g id="line2d_38">
      <g>
       <use style="stroke:#000000;stroke-width:0.5;" x="100.097821907" xlink:href="#md6f8a1c5fd" y="137.064075"/>
      </g>
     </g>
     <g id="line2d_39">
      <g>
       <use style="stroke:#000000;stroke-width:0.5;" x="100.097821907" xlink:href="#m36a8dc9c0b" y="15.0"/>
      </g>
     </g>
    </g>
    <g id="xtick_20">
     <g id="line2d_40">
      <g>
       <use style="stroke:#000000;stroke-width:0.5;" x="103.745291739" xlink:href="#md6f8a1c5fd" y="137.064075"/>
      </g>
     </g>
     <g id="line2d_41">
      <g>
       <use style="stroke:#000000;stroke-width:0.5;" x="103.745291739" xlink:href="#m36a8dc9c0b" y="15.0"/>
      </g>
     </g>
    </g>
    <g id="xtick_21">
     <g id="line2d_42">
      <g>
       <use style="stroke:#000000;stroke-width:0.5;" x="106.33321277" xlink:href="#md6f8a1c5fd" y="137.064075"/>
      </g>
     </g>
     <g id="line2d_43">
      <g>
       <use style="stroke:#000000;stroke-width:0.5;" x="106.33321277" xlink:href="#m36a8dc9c0b" y="15.0"/>
      </g>
     </g>
    </g>
    <g id="xtick_22">
     <g id="line2d_44">
      <g>
       <use style="stroke:#000000;stroke-width:0.5;" x="114.575951134" xlink:href="#md6f8a1c5fd" y="137.064075"/>
      </g>
     </g>
     <g id="line2d_45">
      <g>
       <use style="stroke:#000000;stroke-width:0.5;" x="114.575951134" xlink:href="#m36a8dc9c0b" y="15.0"/>
      </g>
     </g>
    </g>
    <g id="xtick_23">
     <g id="line2d_46">
      <g>
       <use style="stroke:#000000;stroke-width:0.5;" x="120.811341997" xlink:href="#md6f8a1c5fd" y="137.064075"/>
      </g>
     </g>
     <g id="line2d_47">
      <g>
       <use style="stroke:#000000;stroke-width:0.5;" x="120.811341997" xlink:href="#m36a8dc9c0b" y="15.0"/>
      </g>
     </g>
    </g>
    <g id="xtick_24">
     <g id="line2d_48">
      <g>
       <use style="stroke:#000000;stroke-width:0.5;" x="124.458811829" xlink:href="#md6f8a1c5fd" y="137.064075"/>
      </g>
     </g>
     <g id="line2d_49">
      <g>
       <use style="stroke:#000000;stroke-width:0.5;" x="124.458811829" xlink:href="#m36a8dc9c0b" y="15.0"/>
      </g>
     </g>
    </g>
    <g id="xtick_25">
     <g id="line2d_50">
      <g>
       <use style="stroke:#000000;stroke-width:0.5;" x="127.04673286" xlink:href="#md6f8a1c5fd" y="137.064075"/>
      </g>
     </g>
     <g id="line2d_51">
      <g>
       <use style="stroke:#000000;stroke-width:0.5;" x="127.04673286" xlink:href="#m36a8dc9c0b" y="15.0"/>
      </g>
     </g>
    </g>
    <g id="xtick_26">
     <g id="line2d_52">
      <g>
       <use style="stroke:#000000;stroke-width:0.5;" x="135.289471224" xlink:href="#md6f8a1c5fd" y="137.064075"/>
      </g>
     </g>
     <g id="line2d_53">
      <g>
       <use style="stroke:#000000;stroke-width:0.5;" x="135.289471224" xlink:href="#m36a8dc9c0b" y="15.0"/>
      </g>
     </g>
    </g>
    <g id="xtick_27">
     <g id="line2d_54">
      <g>
       <use style="stroke:#000000;stroke-width:0.5;" x="141.524862087" xlink:href="#md6f8a1c5fd" y="137.064075"/>
      </g>
     </g>
     <g id="line2d_55">
      <g>
       <use style="stroke:#000000;stroke-width:0.5;" x="141.524862087" xlink:href="#m36a8dc9c0b" y="15.0"/>
      </g>
     </g>
    </g>
    <g id="xtick_28">
     <g id="line2d_56">
      <g>
       <use style="stroke:#000000;stroke-width:0.5;" x="145.172331919" xlink:href="#md6f8a1c5fd" y="137.064075"/>
      </g>
     </g>
     <g id="line2d_57">
      <g>
       <use style="stroke:#000000;stroke-width:0.5;" x="145.172331919" xlink:href="#m36a8dc9c0b" y="15.0"/>
      </g>
     </g>
    </g>
    <g id="xtick_29">
     <g id="line2d_58">
      <g>
       <use style="stroke:#000000;stroke-width:0.5;" x="147.76025295" xlink:href="#md6f8a1c5fd" y="137.064075"/>
      </g>
     </g>
     <g id="line2d_59">
      <g>
       <use style="stroke:#000000;stroke-width:0.5;" x="147.76025295" xlink:href="#m36a8dc9c0b" y="15.0"/>
      </g>
     </g>
    </g>
    <g id="xtick_30">
     <g id="line2d_60">
      <g>
       <use style="stroke:#000000;stroke-width:0.5;" x="156.002991315" xlink:href="#md6f8a1c5fd" y="137.064075"/>
      </g>
     </g>
     <g id="line2d_61">
      <g>
       <use style="stroke:#000000;stroke-width:0.5;" x="156.002991315" xlink:href="#m36a8dc9c0b" y="15.0"/>
      </g>
     </g>
    </g>
    <g id="xtick_31">
     <g id="line2d_62">
      <g>
       <use style="stroke:#000000;stroke-width:0.5;" x="162.238382178" xlink:href="#md6f8a1c5fd" y="137.064075"/>
      </g>
     </g>
     <g id="line2d_63">
      <g>
       <use style="stroke:#000000;stroke-width:0.5;" x="162.238382178" xlink:href="#m36a8dc9c0b" y="15.0"/>
      </g>
     </g>
    </g>
    <g id="xtick_32">
     <g id="line2d_64">
      <g>
       <use style="stroke:#000000;stroke-width:0.5;" x="165.88585201" xlink:href="#md6f8a1c5fd" y="137.064075"/>
      </g>
     </g>
     <g id="line2d_65">
      <g>
       <use style="stroke:#000000;stroke-width:0.5;" x="165.88585201" xlink:href="#m36a8dc9c0b" y="15.0"/>
      </g>
     </g>
    </g>
    <g id="xtick_33">
     <g id="line2d_66">
      <g>
       <use style="stroke:#000000;stroke-width:0.5;" x="168.473773041" xlink:href="#md6f8a1c5fd" y="137.064075"/>
      </g>
     </g>
     <g id="line2d_67">
      <g>
       <use style="stroke:#000000;stroke-width:0.5;" x="168.473773041" xlink:href="#m36a8dc9c0b" y="15.0"/>
      </g>
     </g>
    </g>
    <g id="xtick_34">
     <g id="line2d_68">
      <g>
       <use style="stroke:#000000;stroke-width:0.5;" x="176.716511405" xlink:href="#md6f8a1c5fd" y="137.064075"/>
      </g>
     </g>
     <g id="line2d_69">
      <g>
       <use style="stroke:#000000;stroke-width:0.5;" x="176.716511405" xlink:href="#m36a8dc9c0b" y="15.0"/>
      </g>
     </g>
    </g>
    <g id="xtick_35">
     <g id="line2d_70">
      <g>
       <use style="stroke:#000000;stroke-width:0.5;" x="182.951902268" xlink:href="#md6f8a1c5fd" y="137.064075"/>
      </g>
     </g>
     <g id="line2d_71">
      <g>
       <use style="stroke:#000000;stroke-width:0.5;" x="182.951902268" xlink:href="#m36a8dc9c0b" y="15.0"/>
      </g>
     </g>
    </g>
    <g id="xtick_36">
     <g id="line2d_72">
      <g>
       <use style="stroke:#000000;stroke-width:0.5;" x="186.5993721" xlink:href="#md6f8a1c5fd" y="137.064075"/>
      </g>
     </g>
     <g id="line2d_73">
      <g>
       <use style="stroke:#000000;stroke-width:0.5;" x="186.5993721" xlink:href="#m36a8dc9c0b" y="15.0"/>
      </g>
     </g>
    </g>
    <g id="xtick_37">
     <g id="line2d_74">
      <g>
       <use style="stroke:#000000;stroke-width:0.5;" x="189.187293131" xlink:href="#md6f8a1c5fd" y="137.064075"/>
      </g>
     </g>
     <g id="line2d_75">
      <g>
       <use style="stroke:#000000;stroke-width:0.5;" x="189.187293131" xlink:href="#m36a8dc9c0b" y="15.0"/>
      </g>
     </g>
    </g>
    <g id="xtick_38">
     <g id="line2d_76">
      <g>
       <use style="stroke:#000000;stroke-width:0.5;" x="197.430031495" xlink:href="#md6f8a1c5fd" y="137.064075"/>
      </g>
     </g>
     <g id="line2d_77">
      <g>
       <use style="stroke:#000000;stroke-width:0.5;" x="197.430031495" xlink:href="#m36a8dc9c0b" y="15.0"/>
      </g>
     </g>
    </g>
    <g id="xtick_39">
     <g id="line2d_78">
      <g>
       <use style="stroke:#000000;stroke-width:0.5;" x="203.665422358" xlink:href="#md6f8a1c5fd" y="137.064075"/>
      </g>
     </g>
     <g id="line2d_79">
      <g>
       <use style="stroke:#000000;stroke-width:0.5;" x="203.665422358" xlink:href="#m36a8dc9c0b" y="15.0"/>
      </g>
     </g>
    </g>
    <g id="xtick_40">
     <g id="line2d_80">
      <g>
       <use style="stroke:#000000;stroke-width:0.5;" x="207.31289219" xlink:href="#md6f8a1c5fd" y="137.064075"/>
      </g>
     </g>
     <g id="line2d_81">
      <g>
       <use style="stroke:#000000;stroke-width:0.5;" x="207.31289219" xlink:href="#m36a8dc9c0b" y="15.0"/>
      </g>
     </g>
    </g>
    <g id="xtick_41">
     <g id="line2d_82">
      <g>
       <use style="stroke:#000000;stroke-width:0.5;" x="209.900813221" xlink:href="#md6f8a1c5fd" y="137.064075"/>
      </g>
     </g>
     <g id="line2d_83">
      <g>
       <use style="stroke:#000000;stroke-width:0.5;" x="209.900813221" xlink:href="#m36a8dc9c0b" y="15.0"/>
      </g>
     </g>
    </g>
    <g id="text_10">
     <!-- $\Delta r$ -->
     <defs>
      <path d="M 7.71875 1.703125 
Q 7.71875 2.296875 7.8125 2.59375 
L 15.28125 32.421875 
Q 16.015625 35.203125 16.015625 37.3125 
Q 16.015625 41.609375 13.09375 41.609375 
Q 9.96875 41.609375 8.453125 37.859375 
Q 6.9375 34.125 5.515625 28.421875 
Q 5.515625 28.125 5.21875 27.953125 
Q 4.9375 27.78125 4.6875 27.78125 
L 3.515625 27.78125 
Q 3.171875 27.78125 2.921875 28.140625 
Q 2.6875 28.515625 2.6875 28.8125 
Q 3.765625 33.15625 4.765625 36.171875 
Q 5.765625 39.203125 7.890625 41.6875 
Q 10.015625 44.1875 13.1875 44.1875 
Q 16.65625 44.1875 19.265625 42.1875 
Q 21.875 40.1875 22.515625 36.921875 
Q 25.046875 40.234375 28.296875 42.203125 
Q 31.546875 44.1875 35.40625 44.1875 
Q 38.578125 44.1875 40.984375 42.328125 
Q 43.40625 40.484375 43.40625 37.3125 
Q 43.40625 34.765625 41.8125 32.875 
Q 40.234375 31 37.59375 31 
Q 35.984375 31 34.890625 32 
Q 33.796875 33.015625 33.796875 34.625 
Q 33.796875 36.8125 35.40625 38.546875 
Q 37.015625 40.28125 39.109375 40.28125 
Q 37.5 41.609375 35.203125 41.609375 
Q 30.90625 41.609375 27.734375 38.546875 
Q 24.5625 35.5 22.015625 30.8125 
L 14.890625 2.203125 
Q 14.546875 0.828125 13.34375 -0.140625 
Q 12.15625 -1.125 10.6875 -1.125 
Q 9.46875 -1.125 8.59375 -0.34375 
Q 7.71875 0.4375 7.71875 1.703125 
" id="Cmmi10-72"/>
      <path d="M 5.421875 0 
Q 4.59375 0 4.59375 0.78125 
Q 4.640625 0.875 4.65625 0.921875 
Q 4.6875 0.984375 4.6875 1.125 
L 39.109375 70.515625 
Q 39.546875 71.578125 40.921875 71.578125 
L 42.28125 71.578125 
Q 43.65625 71.578125 44.09375 70.515625 
L 78.515625 1.125 
Q 78.5625 1.03125 78.578125 0.953125 
Q 78.609375 0.875 78.609375 0.78125 
Q 78.609375 0 77.78125 0 
z
M 12.015625 8.015625 
L 64.703125 8.015625 
L 38.375 61.078125 
z
" id="Cmr10-a2"/>
     </defs>
     <g transform="translate(121.314080361 163.6788)scale(0.12 -0.12)">
      <use transform="translate(0.0 0.421875)" xlink:href="#Cmr10-a2"/>
      <use transform="translate(83.30078125 0.421875)" xlink:href="#Cmmi10-72"/>
     </g>
    </g>
   </g>
   <g id="matplotlib.axis_2">
    <g id="ytick_1">
     <g id="line2d_84">
      <defs>
       <path d="M 0 0 
L 4 0 
" id="m9c63d67c50" style="stroke:#000000;stroke-width:0.5;"/>
      </defs>
      <g>
       <use style="stroke:#000000;stroke-width:0.5;" x="46.2" xlink:href="#m9c63d67c50" y="137.064075"/>
      </g>
     </g>
     <g id="line2d_85">
      <defs>
       <path d="M 0 0 
L -4 0 
" id="ma0ece37321" style="stroke:#000000;stroke-width:0.5;"/>
      </defs>
      <g>
       <use style="stroke:#000000;stroke-width:0.5;" x="211.908160723" xlink:href="#ma0ece37321" y="137.064075"/>
      </g>
     </g>
     <g id="text_11">
      <!-- 0.0 -->
      <defs>
       <path d="M 10.6875 12.40625 
L 21 12.40625 
L 21 0 
L 10.6875 0 
z
" id="BitstreamVeraSans-Roman-2e"/>
      </defs>
      <g transform="translate(28.952696875 139.362634375)scale(0.0833 -0.0833)">
       <use xlink:href="#BitstreamVeraSans-Roman-30"/>
       <use x="63.623046875" xlink:href="#BitstreamVeraSans-Roman-2e"/>
       <use x="95.41015625" xlink:href="#BitstreamVeraSans-Roman-30"/>
      </g>
     </g>
    </g>
    <g id="ytick_2">
     <g id="line2d_86">
      <g>
       <use style="stroke:#000000;stroke-width:0.5;" x="46.2" xlink:href="#m9c63d67c50" y="121.806065625"/>
      </g>
     </g>
     <g id="line2d_87">
      <g>
       <use style="stroke:#000000;stroke-width:0.5;" x="211.908160723" xlink:href="#ma0ece37321" y="121.806065625"/>
      </g>
     </g>
     <g id="text_12">
      <!-- 0.5 -->
      <g transform="translate(28.952696875 124.104625)scale(0.0833 -0.0833)">
       <use xlink:href="#BitstreamVeraSans-Roman-30"/>
       <use x="63.623046875" xlink:href="#BitstreamVeraSans-Roman-2e"/>
       <use x="95.41015625" xlink:href="#BitstreamVeraSans-Roman-35"/>
      </g>
     </g>
    </g>
    <g id="ytick_3">
     <g id="line2d_88">
      <g>
       <use style="stroke:#000000;stroke-width:0.5;" x="46.2" xlink:href="#m9c63d67c50" y="106.54805625"/>
      </g>
     </g>
     <g id="line2d_89">
      <g>
       <use style="stroke:#000000;stroke-width:0.5;" x="211.908160723" xlink:href="#ma0ece37321" y="106.54805625"/>
      </g>
     </g>
     <g id="text_13">
      <!-- 1.0 -->
      <g transform="translate(28.952696875 108.846615625)scale(0.0833 -0.0833)">
       <use xlink:href="#BitstreamVeraSans-Roman-31"/>
       <use x="63.623046875" xlink:href="#BitstreamVeraSans-Roman-2e"/>
       <use x="95.41015625" xlink:href="#BitstreamVeraSans-Roman-30"/>
      </g>
     </g>
    </g>
    <g id="ytick_4">
     <g id="line2d_90">
      <g>
       <use style="stroke:#000000;stroke-width:0.5;" x="46.2" xlink:href="#m9c63d67c50" y="91.290046875"/>
      </g>
     </g>
     <g id="line2d_91">
      <g>
       <use style="stroke:#000000;stroke-width:0.5;" x="211.908160723" xlink:href="#ma0ece37321" y="91.290046875"/>
      </g>
     </g>
     <g id="text_14">
      <!-- 1.5 -->
      <g transform="translate(28.952696875 93.58860625)scale(0.0833 -0.0833)">
       <use xlink:href="#BitstreamVeraSans-Roman-31"/>
       <use x="63.623046875" xlink:href="#BitstreamVeraSans-Roman-2e"/>
       <use x="95.41015625" xlink:href="#BitstreamVeraSans-Roman-35"/>
      </g>
     </g>
    </g>
    <g id="ytick_5">
     <g id="line2d_92">
      <g>
       <use style="stroke:#000000;stroke-width:0.5;" x="46.2" xlink:href="#m9c63d67c50" y="76.0320375"/>
      </g>
     </g>
     <g id="line2d_93">
      <g>
       <use style="stroke:#000000;stroke-width:0.5;" x="211.908160723" xlink:href="#ma0ece37321" y="76.0320375"/>
      </g>
     </g>
     <g id="text_15">
      <!-- 2.0 -->
      <g transform="translate(28.952696875 78.330596875)scale(0.0833 -0.0833)">
       <use xlink:href="#BitstreamVeraSans-Roman-32"/>
       <use x="63.623046875" xlink:href="#BitstreamVeraSans-Roman-2e"/>
       <use x="95.41015625" xlink:href="#BitstreamVeraSans-Roman-30"/>
      </g>
     </g>
    </g>
    <g id="ytick_6">
     <g id="line2d_94">
      <g>
       <use style="stroke:#000000;stroke-width:0.5;" x="46.2" xlink:href="#m9c63d67c50" y="60.774028125"/>
      </g>
     </g>
     <g id="line2d_95">
      <g>
       <use style="stroke:#000000;stroke-width:0.5;" x="211.908160723" xlink:href="#ma0ece37321" y="60.774028125"/>
      </g>
     </g>
     <g id="text_16">
      <!-- 2.5 -->
      <g transform="translate(28.952696875 63.0725875)scale(0.0833 -0.0833)">
       <use xlink:href="#BitstreamVeraSans-Roman-32"/>
       <use x="63.623046875" xlink:href="#BitstreamVeraSans-Roman-2e"/>
       <use x="95.41015625" xlink:href="#BitstreamVeraSans-Roman-35"/>
      </g>
     </g>
    </g>
    <g id="ytick_7">
     <g id="line2d_96">
      <g>
       <use style="stroke:#000000;stroke-width:0.5;" x="46.2" xlink:href="#m9c63d67c50" y="45.51601875"/>
      </g>
     </g>
     <g id="line2d_97">
      <g>
       <use style="stroke:#000000;stroke-width:0.5;" x="211.908160723" xlink:href="#ma0ece37321" y="45.51601875"/>
      </g>
     </g>
     <g id="text_17">
      <!-- 3.0 -->
      <g transform="translate(28.952696875 47.814578125)scale(0.0833 -0.0833)">
       <use xlink:href="#BitstreamVeraSans-Roman-33"/>
       <use x="63.623046875" xlink:href="#BitstreamVeraSans-Roman-2e"/>
       <use x="95.41015625" xlink:href="#BitstreamVeraSans-Roman-30"/>
      </g>
     </g>
    </g>
    <g id="ytick_8">
     <g id="line2d_98">
      <g>
       <use style="stroke:#000000;stroke-width:0.5;" x="46.2" xlink:href="#m9c63d67c50" y="30.258009375"/>
      </g>
     </g>
     <g id="line2d_99">
      <g>
       <use style="stroke:#000000;stroke-width:0.5;" x="211.908160723" xlink:href="#ma0ece37321" y="30.258009375"/>
      </g>
     </g>
     <g id="text_18">
      <!-- 3.5 -->
      <g transform="translate(28.952696875 32.55656875)scale(0.0833 -0.0833)">
       <use xlink:href="#BitstreamVeraSans-Roman-33"/>
       <use x="63.623046875" xlink:href="#BitstreamVeraSans-Roman-2e"/>
       <use x="95.41015625" xlink:href="#BitstreamVeraSans-Roman-35"/>
      </g>
     </g>
    </g>
    <g id="ytick_9">
     <g id="line2d_100">
      <g>
       <use style="stroke:#000000;stroke-width:0.5;" x="46.2" xlink:href="#m9c63d67c50" y="15.0"/>
      </g>
     </g>
     <g id="line2d_101">
      <g>
       <use style="stroke:#000000;stroke-width:0.5;" x="211.908160723" xlink:href="#ma0ece37321" y="15.0"/>
      </g>
     </g>
     <g id="text_19">
      <!-- 4.0 -->
      <g transform="translate(28.952696875 17.298559375)scale(0.0833 -0.0833)">
       <use xlink:href="#BitstreamVeraSans-Roman-34"/>
       <use x="63.623046875" xlink:href="#BitstreamVeraSans-Roman-2e"/>
       <use x="95.41015625" xlink:href="#BitstreamVeraSans-Roman-30"/>
      </g>
     </g>
    </g>
    <g id="text_20">
     <!-- $P\left(\log\left(\Delta r\right)\right)$ -->
     <defs>
      <path d="M 3.078125 0 
L 3.078125 3.515625 
Q 6.5 3.515625 8.6875 4.046875 
Q 10.890625 4.59375 10.890625 6.6875 
L 10.890625 59.1875 
Q 10.890625 61.859375 10.078125 63.0625 
Q 9.28125 64.265625 7.765625 64.53125 
Q 6.25 64.796875 3.078125 64.796875 
L 3.078125 68.3125 
L 17.921875 69.390625 
L 17.921875 6.6875 
Q 17.921875 4.59375 20.109375 4.046875 
Q 22.3125 3.515625 25.6875 3.515625 
L 25.6875 0 
z
" id="Cmr10-6c"/>
      <path d="M 25 -1.125 
Q 19 -1.125 13.859375 1.921875 
Q 8.734375 4.984375 5.75 10.109375 
Q 2.78125 15.234375 2.78125 21.296875 
Q 2.78125 25.875 4.421875 30.125 
Q 6.0625 34.375 9.109375 37.71875 
Q 12.15625 41.0625 16.203125 42.9375 
Q 20.265625 44.828125 25 44.828125 
Q 31.15625 44.828125 36.203125 41.578125 
Q 41.265625 38.328125 44.1875 32.875 
Q 47.125 27.4375 47.125 21.296875 
Q 47.125 15.28125 44.140625 10.125 
Q 41.15625 4.984375 36.046875 1.921875 
Q 30.953125 -1.125 25 -1.125 
M 25 1.8125 
Q 33.015625 1.8125 35.6875 7.609375 
Q 38.375 13.421875 38.375 22.40625 
Q 38.375 27.4375 37.84375 30.734375 
Q 37.3125 34.03125 35.5 36.71875 
Q 34.375 38.375 32.640625 39.625 
Q 30.90625 40.875 28.96875 41.53125 
Q 27.046875 42.1875 25 42.1875 
Q 21.875 42.1875 19.0625 40.765625 
Q 16.265625 39.359375 14.40625 36.71875 
Q 12.546875 33.890625 12.03125 30.484375 
Q 11.53125 27.09375 11.53125 22.40625 
Q 11.53125 16.796875 12.5 12.328125 
Q 13.484375 7.859375 16.4375 4.828125 
Q 19.390625 1.8125 25 1.8125 
" id="Cmr10-6f"/>
      <path d="M 4.890625 0 
Q 3.90625 0 3.90625 1.3125 
Q 3.953125 1.5625 4.09375 2.171875 
Q 4.25 2.78125 4.515625 3.140625 
Q 4.78125 3.515625 5.171875 3.515625 
Q 11.28125 3.515625 13.71875 4.203125 
Q 14.984375 4.640625 15.578125 6.890625 
L 29.296875 61.8125 
Q 29.5 62.796875 29.5 63.1875 
Q 29.5 64.265625 28.328125 64.40625 
Q 26.421875 64.796875 21.09375 64.796875 
Q 20.125 64.796875 20.125 66.109375 
Q 20.171875 66.359375 20.3125 66.96875 
Q 20.453125 67.578125 20.71875 67.9375 
Q 21 68.3125 21.390625 68.3125 
L 55.90625 68.3125 
Q 60.640625 68.3125 65.078125 66.625 
Q 69.53125 64.9375 72.359375 61.46875 
Q 75.203125 58.015625 75.203125 53.078125 
Q 75.203125 46.734375 70.734375 41.75 
Q 66.265625 36.765625 59.59375 33.984375 
Q 52.9375 31.203125 46.6875 31.203125 
L 30.421875 31.203125 
L 24.3125 6.5 
Q 24.125 5.515625 24.125 5.078125 
Q 24.125 4.6875 24.234375 4.421875 
Q 24.359375 4.15625 24.578125 4.078125 
Q 24.8125 4 25.296875 3.90625 
Q 27.203125 3.515625 32.515625 3.515625 
Q 33.5 3.515625 33.5 2.203125 
Q 33.15625 0.78125 32.953125 0.390625 
Q 32.765625 0 31.78125 0 
z
M 30.90625 34.1875 
L 44.921875 34.1875 
Q 54.640625 34.1875 59.71875 39.40625 
Q 62.3125 42 63.9375 46.875 
Q 65.578125 51.765625 65.578125 55.71875 
Q 65.578125 60.640625 61.8125 62.71875 
Q 58.0625 64.796875 52.484375 64.796875 
L 42.921875 64.796875 
Q 40.1875 64.796875 39.296875 64.328125 
Q 38.421875 63.875 37.703125 61.375 
z
" id="Cmmi10-50"/>
      <path d="M 31 -24.8125 
Q 25.4375 -20.40625 21.40625 -14.71875 
Q 17.390625 -9.03125 14.8125 -2.578125 
Q 12.25 3.859375 10.984375 10.890625 
Q 9.71875 17.921875 9.71875 25 
Q 9.71875 32.171875 10.984375 39.203125 
Q 12.25 46.234375 14.859375 52.734375 
Q 17.484375 59.234375 21.53125 64.890625 
Q 25.59375 70.5625 31 74.8125 
Q 31 75 31.5 75 
L 32.421875 75 
Q 32.71875 75 32.953125 74.734375 
Q 33.203125 74.46875 33.203125 74.125 
Q 33.203125 73.6875 33.015625 73.484375 
Q 28.125 68.703125 24.875 63.234375 
Q 21.625 57.765625 19.640625 51.578125 
Q 17.671875 45.40625 16.796875 38.78125 
Q 15.921875 32.171875 15.921875 25 
Q 15.921875 -6.78125 32.90625 -23.296875 
Q 33.203125 -23.578125 33.203125 -24.125 
Q 33.203125 -24.359375 32.9375 -24.671875 
Q 32.671875 -25 32.421875 -25 
L 31.5 -25 
Q 31 -25 31 -24.8125 
" id="Cmr10-28"/>
      <path d="M 2.78125 -7.8125 
Q 2.78125 -4.25 5.359375 -1.578125 
Q 7.953125 1.078125 11.53125 2.203125 
Q 9.515625 3.71875 8.46875 6 
Q 7.421875 8.296875 7.421875 10.890625 
Q 7.421875 15.578125 10.40625 19.1875 
Q 5.8125 23.6875 5.8125 29.5 
Q 5.8125 32.625 7.15625 35.359375 
Q 8.5 38.09375 10.890625 40.09375 
Q 13.28125 42.09375 16.203125 43.140625 
Q 19.140625 44.1875 22.21875 44.1875 
Q 28.171875 44.1875 32.90625 40.71875 
Q 34.96875 42.921875 37.765625 44.109375 
Q 40.578125 45.3125 43.609375 45.3125 
Q 45.75 45.3125 47.109375 43.765625 
Q 48.484375 42.234375 48.484375 40.09375 
Q 48.484375 38.875 47.546875 37.9375 
Q 46.625 37.015625 45.40625 37.015625 
Q 44.140625 37.015625 43.203125 37.9375 
Q 42.28125 38.875 42.28125 40.09375 
Q 42.28125 41.9375 43.5 42.671875 
Q 38.328125 42.671875 34.625 39.109375 
Q 36.421875 37.3125 37.515625 34.6875 
Q 38.625 32.078125 38.625 29.5 
Q 38.625 25.25 36.28125 21.84375 
Q 33.9375 18.453125 30.09375 16.578125 
Q 26.265625 14.703125 22.21875 14.703125 
Q 16.75 14.703125 12.203125 17.671875 
Q 10.796875 15.71875 10.796875 13.28125 
Q 10.796875 10.640625 12.53125 8.65625 
Q 14.265625 6.6875 16.890625 6.6875 
L 25.09375 6.6875 
Q 31.0625 6.6875 35.84375 5.609375 
Q 40.625 4.546875 43.875 1.3125 
Q 47.125 -1.90625 47.125 -7.8125 
Q 47.125 -12.203125 43.40625 -15.109375 
Q 39.703125 -18.015625 34.546875 -19.3125 
Q 29.390625 -20.609375 25 -20.609375 
Q 20.5625 -20.609375 15.375 -19.3125 
Q 10.203125 -18.015625 6.484375 -15.109375 
Q 2.78125 -12.203125 2.78125 -7.8125 
M 8.40625 -7.8125 
Q 8.40625 -11.1875 11.140625 -13.453125 
Q 13.875 -15.71875 17.71875 -16.8125 
Q 21.578125 -17.921875 25 -17.921875 
Q 28.375 -17.921875 32.21875 -16.8125 
Q 36.078125 -15.71875 38.78125 -13.453125 
Q 41.5 -11.1875 41.5 -7.8125 
Q 41.5 -2.59375 36.71875 -1.046875 
Q 31.9375 0.484375 25.09375 0.484375 
L 16.890625 0.484375 
Q 14.59375 0.484375 12.671875 -0.609375 
Q 10.75 -1.703125 9.578125 -3.6875 
Q 8.40625 -5.671875 8.40625 -7.8125 
M 22.21875 17.390625 
Q 30.71875 17.390625 30.71875 29.5 
Q 30.71875 34.71875 28.90625 38.109375 
Q 27.09375 41.5 22.21875 41.5 
Q 17.328125 41.5 15.515625 38.109375 
Q 13.71875 34.71875 13.71875 29.5 
Q 13.71875 26.171875 14.40625 23.484375 
Q 15.09375 20.796875 16.9375 19.09375 
Q 18.796875 17.390625 22.21875 17.390625 
" id="Cmr10-67"/>
      <path d="M 6.5 -25 
Q 5.609375 -25 5.609375 -24.125 
Q 5.609375 -23.6875 5.8125 -23.484375 
Q 22.90625 -6.78125 22.90625 25 
Q 22.90625 56.78125 6 73.296875 
Q 5.609375 73.53125 5.609375 74.125 
Q 5.609375 74.46875 5.875 74.734375 
Q 6.15625 75 6.5 75 
L 7.421875 75 
Q 7.71875 75 7.90625 74.8125 
Q 15.09375 69.140625 19.875 61.03125 
Q 24.65625 52.9375 26.875 43.75 
Q 29.109375 34.578125 29.109375 25 
Q 29.109375 17.921875 27.90625 11.0625 
Q 26.703125 4.203125 24.09375 -2.453125 
Q 21.484375 -9.125 17.484375 -14.765625 
Q 13.484375 -20.40625 7.90625 -24.8125 
Q 7.71875 -25 7.421875 -25 
z
" id="Cmr10-29"/>
     </defs>
     <g transform="translate(21.432696875 102.9720375)rotate(-90.0)scale(0.12 -0.12)">
      <use transform="translate(0.0 0.421875)" xlink:href="#Cmmi10-50"/>
      <use transform="translate(64.208984375 2.859375)scale(0.921875)" xlink:href="#Cmr10-28"/>
      <use transform="translate(99.99465942382812 0.421875)" xlink:href="#Cmr10-6c"/>
      <use transform="translate(127.68020629882812 0.421875)" xlink:href="#Cmr10-6f"/>
      <use transform="translate(177.68020629882812 0.421875)" xlink:href="#Cmr10-67"/>
      <use transform="translate(227.68020629882812 17.46875)scale(0.72703125)" xlink:href="#Cmr10-28"/>
      <use transform="translate(255.90235900878906 0.421875)" xlink:href="#Cmr10-a2"/>
      <use transform="translate(339.20314025878906 0.421875)" xlink:href="#Cmmi10-72"/>
      <use transform="translate(384.32032775878906 17.46875)scale(0.72703125)" xlink:href="#Cmr10-29"/>
      <use transform="translate(412.54248046875 2.859375)scale(0.921875)" xlink:href="#Cmr10-29"/>
     </g>
    </g>
   </g>
   <g id="legend_1">
    <g id="patch_7">
     <path d="M 51.058 30.738619 
L 91.958456 30.738619 
Q 93.346456 30.738619 93.346456 29.350619 
L 93.346456 19.858 
Q 93.346456 18.47 91.958456 18.47 
L 51.058 18.47 
Q 49.67 18.47 49.67 19.858 
L 49.67 29.350619 
Q 49.67 30.738619 51.058 30.738619 
z
" style="fill:#ffffff;stroke:#000000;stroke-linejoin:miter;stroke-width:0.5;"/>
    </g>
    <g id="line2d_102">
     <path d="M 54.528 24.090316 
L 64.244 24.090316 
" style="fill:none;stroke:#e41a1c;stroke-linecap:square;stroke-width:2.0;"/>
    </g>
    <g id="line2d_103"/>
    <g id="text_21">
     <!-- Fixed -->
     <defs>
      <path d="M 45.40625 46.390625 
L 45.40625 75.984375 
L 54.390625 75.984375 
L 54.390625 0 
L 45.40625 0 
L 45.40625 8.203125 
Q 42.578125 3.328125 38.25 0.953125 
Q 33.9375 -1.421875 27.875 -1.421875 
Q 17.96875 -1.421875 11.734375 6.484375 
Q 5.515625 14.40625 5.515625 27.296875 
Q 5.515625 40.1875 11.734375 48.09375 
Q 17.96875 56 27.875 56 
Q 33.9375 56 38.25 53.625 
Q 42.578125 51.265625 45.40625 46.390625 
M 14.796875 27.296875 
Q 14.796875 17.390625 18.875 11.75 
Q 22.953125 6.109375 30.078125 6.109375 
Q 37.203125 6.109375 41.296875 11.75 
Q 45.40625 17.390625 45.40625 27.296875 
Q 45.40625 37.203125 41.296875 42.84375 
Q 37.203125 48.484375 30.078125 48.484375 
Q 22.953125 48.484375 18.875 42.84375 
Q 14.796875 37.203125 14.796875 27.296875 
" id="BitstreamVeraSans-Roman-64"/>
      <path d="M 9.8125 72.90625 
L 51.703125 72.90625 
L 51.703125 64.59375 
L 19.671875 64.59375 
L 19.671875 43.109375 
L 48.578125 43.109375 
L 48.578125 34.8125 
L 19.671875 34.8125 
L 19.671875 0 
L 9.8125 0 
z
" id="BitstreamVeraSans-Roman-46"/>
      <path d="M 56.203125 29.59375 
L 56.203125 25.203125 
L 14.890625 25.203125 
Q 15.484375 15.921875 20.484375 11.0625 
Q 25.484375 6.203125 34.421875 6.203125 
Q 39.59375 6.203125 44.453125 7.46875 
Q 49.3125 8.734375 54.109375 11.28125 
L 54.109375 2.78125 
Q 49.265625 0.734375 44.1875 -0.34375 
Q 39.109375 -1.421875 33.890625 -1.421875 
Q 20.796875 -1.421875 13.15625 6.1875 
Q 5.515625 13.8125 5.515625 26.8125 
Q 5.515625 40.234375 12.765625 48.109375 
Q 20.015625 56 32.328125 56 
Q 43.359375 56 49.78125 48.890625 
Q 56.203125 41.796875 56.203125 29.59375 
M 47.21875 32.234375 
Q 47.125 39.59375 43.09375 43.984375 
Q 39.0625 48.390625 32.421875 48.390625 
Q 24.90625 48.390625 20.390625 44.140625 
Q 15.875 39.890625 15.1875 32.171875 
z
" id="BitstreamVeraSans-Roman-65"/>
      <path d="M 9.421875 54.6875 
L 18.40625 54.6875 
L 18.40625 0 
L 9.421875 0 
z
M 9.421875 75.984375 
L 18.40625 75.984375 
L 18.40625 64.59375 
L 9.421875 64.59375 
z
" id="BitstreamVeraSans-Roman-69"/>
      <path d="M 54.890625 54.6875 
L 35.109375 28.078125 
L 55.90625 0 
L 45.3125 0 
L 29.390625 21.484375 
L 13.484375 0 
L 2.875 0 
L 24.125 28.609375 
L 4.6875 54.6875 
L 15.28125 54.6875 
L 29.78125 35.203125 
L 44.28125 54.6875 
z
" id="BitstreamVeraSans-Roman-78"/>
     </defs>
     <g transform="translate(71.878 26.519315625)scale(0.06939999999999999 -0.06939999999999999)">
      <use xlink:href="#BitstreamVeraSans-Roman-46"/>
      <use x="57.41015625" xlink:href="#BitstreamVeraSans-Roman-69"/>
      <use x="85.193359375" xlink:href="#BitstreamVeraSans-Roman-78"/>
      <use x="144.326171875" xlink:href="#BitstreamVeraSans-Roman-65"/>
      <use x="205.849609375" xlink:href="#BitstreamVeraSans-Roman-64"/>
     </g>
    </g>
   </g>
  </g>
 </g>
 <defs>
  <clipPath id="pa896f30a35">
   <rect height="122.064075" width="165.708160723" x="46.2" y="15.0"/>
  </clipPath>
 </defs>
</svg>
