<?xml version="1.0" encoding="utf-8" standalone="no"?>
<!DOCTYPE svg PUBLIC "-//W3C//DTD SVG 1.1//EN"
  "http://www.w3.org/Graphics/SVG/1.1/DTD/svg11.dtd">
<!-- Created with matplotlib (http://matplotlib.org/) -->
<svg height="136pt" version="1.1" viewBox="0 0 420 136" width="420pt" xmlns="http://www.w3.org/2000/svg" xmlns:xlink="http://www.w3.org/1999/xlink">
 <defs>
  <style type="text/css">
*{stroke-linecap:butt;stroke-linejoin:round;}
  </style>
 </defs>
 <g id="figure_1">
  <g id="patch_1">
   <path d="
M0 136.477
L420.993 136.477
L420.993 0
L0 0
z
" style="fill:#ffffff;"/>
  </g>
  <g id="axes_1">
   <g id="patch_2">
    <path d="
M60.384 112.663
L203.193 112.663
L203.193 8.31963
L60.384 8.31963
z
" style="fill:#ffffff;"/>
   </g>
   <g id="line2d_1">
    <path clip-path="url(#p7f44db3472)" d="
M60.384 40.9227
L75.9067 29.0977
L91.4295 29.1142
L106.952 28.3569
L122.475 30.2605
L137.998 30.1744
L153.52 28.2289
L169.043 30.6717
L184.566 28.9218
L200.089 29.768" style="fill:none;stroke:#c1325a;stroke-dasharray:6.000000,6.000000;stroke-dashoffset:0.0;"/>
   </g>
   <g id="line2d_2">
    <path clip-path="url(#p7f44db3472)" d="
M60.384 43.6692
L75.9067 39.4045
L91.4295 38.2559
L106.952 36.9788
L122.475 36.7122
L137.998 37.0716
L153.52 36.1774
L169.043 36.8495
L184.566 36.4795
L200.089 37.0837" style="fill:none;stroke:#e41a1c;stroke-dasharray:6.000000,6.000000;stroke-dashoffset:0.0;"/>
   </g>
   <g id="line2d_3">
    <path clip-path="url(#p7f44db3472)" d="
M60.384 43.6692
L75.9067 30.6962
L91.4295 29.8972
L106.952 30.0983
L122.475 30.7654
L137.998 28.2216
L153.52 30.6912
L169.043 31.0922
L184.566 30.3793
L200.089 29.3958" style="fill:none;stroke:#9e4a99;stroke-dasharray:6.000000,6.000000;stroke-dashoffset:0.0;"/>
   </g>
   <g id="line2d_4">
    <path clip-path="url(#p7f44db3472)" d="
M60.384 41.9774
L75.9067 50.5208
L91.4295 50.6808
L106.952 50.8461" style="fill:none;stroke:#4577b5;stroke-linecap:square;stroke-width:2;"/>
   </g>
   <g id="line2d_5">
    <path clip-path="url(#p7f44db3472)" d="
M60.384 43.6692
L75.9067 26.8831
L91.4295 26.3159
L106.952 27.8883
L122.475 26.1457
L137.998 26.4171
L153.52 26.9868
L169.043 27.1398
L184.566 26.3878
L200.089 27.1361" style="fill:none;stroke:#cd2a45;stroke-dasharray:6.000000,6.000000;stroke-dashoffset:0.0;"/>
   </g>
   <g id="line2d_6">
    <path clip-path="url(#p7f44db3472)" d="
M60.384 43.6692
L75.9067 31.5655
L91.4295 28.9572
L106.952 29.9472
L122.475 29.8743
L137.998 27.6722
L153.52 29.3695
L169.043 29.1509
L184.566 28.5708
L200.089 29.0297" style="fill:none;stroke:#aa4284;stroke-dasharray:6.000000,6.000000;stroke-dashoffset:0.0;"/>
   </g>
   <g id="line2d_7">
    <path clip-path="url(#p7f44db3472)" d="
M60.384 43.6692
L75.9067 26.7233
L91.4295 27.5107
L106.952 29.0656
L122.475 26.5401
L137.998 28.1166
L153.52 26.3805
L169.043 27.2894
L184.566 27.3749
L200.089 28.0961" style="fill:none;stroke:#c1325a;stroke-dasharray:6.000000,6.000000;stroke-dashoffset:0.0;"/>
   </g>
   <g id="line2d_8">
    <path clip-path="url(#p7f44db3472)" d="
M60.384 40.9227
L75.9067 50.3753
L91.4295 53.2884
L106.952 51.5295
L122.475 52.7113
L137.998 49.0241
L153.52 50.4795
L169.043 50.6568
L184.566 50.0332
L200.089 51.3374" style="fill:none;stroke:#4577b5;stroke-linecap:square;stroke-width:2;"/>
   </g>
   <g id="line2d_9">
    <path clip-path="url(#p7f44db3472)" d="
M60.384 39.7511
L75.9067 54.7221
L91.4295 50.0829
L106.952 54.1992
L122.475 50.647" style="fill:none;stroke:#377eb8;stroke-linecap:square;stroke-width:2;"/>
   </g>
   <g id="line2d_10">
    <path clip-path="url(#p7f44db3472)" d="
M60.384 43.6692
L75.9067 28.6632
L91.4295 30.5201
L106.952 31.0582
L122.475 32.0026
L137.998 30.4563
L153.52 30.9219
L169.043 31.1666
L184.566 32.2877
L200.089 32.2719" style="fill:none;stroke:#9152a5;stroke-dasharray:6.000000,6.000000;stroke-dashoffset:0.0;"/>
   </g>
   <g id="line2d_11">
    <path clip-path="url(#p7f44db3472)" d="
M60.384 40.9227
L75.9067 26.3069
L91.4295 26.4943
L106.952 27.1163
L122.475 25.5948
L137.998 26.089
L153.52 26.2033
L169.043 25.7015
L184.566 26.0542
L200.089 26.149" style="fill:none;stroke:#d92230;stroke-dasharray:6.000000,6.000000;stroke-dashoffset:0.0;"/>
   </g>
   <g id="line2d_12">
    <path clip-path="url(#p7f44db3472)" d="
M60.384 43.6692
L75.9067 47.6416
L91.4295 50.8934
L106.952 49.9528
L122.475 49.0327
L137.998 49.441
L153.52 51.3263
L169.043 50.0452
L184.566 49.233
L200.089 49.5587" style="fill:none;stroke:#556fb2;stroke-linecap:square;stroke-width:2;"/>
   </g>
   <g id="line2d_13">
    <path clip-path="url(#p7f44db3472)" d="
M60.384 41.9774
L75.9067 42.0514
L91.4295 27.3239" style="fill:none;stroke:#8259a8;stroke-linecap:square;stroke-width:2;"/>
   </g>
   <g id="line2d_14">
    <path clip-path="url(#p7f44db3472)" d="
M60.384 43.6692
L75.9067 30.3625
L91.4295 29.8499
L106.952 28.9661
L122.475 30.2924
L137.998 30.0928
L153.52 29.1176
L169.043 30.1677
L184.566 30.2845
L200.089 32.0221" style="fill:none;stroke:#b63a6f;stroke-dasharray:6.000000,6.000000;stroke-dashoffset:0.0;"/>
   </g>
   <g id="line2d_15">
    <path clip-path="url(#p7f44db3472)" d="
M60.384 41.0878
L75.9067 47.3238
L91.4295 48.8055" style="fill:none;stroke:#556fb2;stroke-linecap:square;stroke-width:2;"/>
   </g>
   <g id="line2d_16">
    <path clip-path="url(#p7f44db3472)" d="
M60.384 40.9227
L75.9067 49.704
L91.4295 49.2735
L106.952 48.3876
L122.475 49.111
L137.998 49.9644
L153.52 48.92
L169.043 48.0075
L184.566 49.4131
L200.089 48.8145" style="fill:none;stroke:#556fb2;stroke-linecap:square;stroke-width:2;"/>
   </g>
   <g id="line2d_17">
    <path clip-path="url(#p7f44db3472)" d="
M60.384 41.9774
L75.9067 48.0631
L91.4295 49.3821
L106.952 51.0283" style="fill:none;stroke:#556fb2;stroke-linecap:square;stroke-width:2;"/>
   </g>
   <g id="line2d_18">
    <path clip-path="url(#p7f44db3472)" d="
M60.384 43.6692
L75.9067 53.6877
L91.4295 52.5335
L106.952 51.8166
L122.475 51.8603
L137.998 52.2728
L153.52 52.1704
L169.043 51.4852
L184.566 53.517
L200.089 51.5162" style="fill:none;stroke:#377eb8;stroke-linecap:square;stroke-width:2;"/>
   </g>
   <g id="line2d_19">
    <path clip-path="url(#p7f44db3472)" d="
M60.384 40.9227
L75.9067 26.8924
L91.4295 27.3631
L106.952 26.0334
L122.475 26.8751
L137.998 26.0013
L153.52 26.4636
L169.043 25.4656
L184.566 25.9518
L200.089 26.1738" style="fill:none;stroke:#cd2a45;stroke-dasharray:6.000000,6.000000;stroke-dashoffset:0.0;"/>
   </g>
   <g id="line2d_20">
    <path clip-path="url(#p7f44db3472)" d="
M60.384 41.0878
L75.9067 52.8543
L91.4295 51.9201
L106.952 50.7739" style="fill:none;stroke:#377eb8;stroke-linecap:square;stroke-width:2;"/>
   </g>
   <g id="line2d_21">
    <path clip-path="url(#p7f44db3472)" d="
M60.384 41.0878
L75.9067 44.3995
L91.4295 48.0646" style="fill:none;stroke:#6468ae;stroke-linecap:square;stroke-width:2;"/>
   </g>
   <g id="line2d_22">
    <path clip-path="url(#p7f44db3472)" d="
M60.384 39.7511
L75.9067 34.5081
L91.4295 33.8038" style="fill:none;stroke:#8259a8;stroke-linecap:square;stroke-width:2;"/>
   </g>
   <g id="line2d_23">
    <path clip-path="url(#p7f44db3472)" d="
M60.384 43.6692
L75.9067 47.1005
L91.4295 47.245
L106.952 46.9126
L122.475 45.31
L137.998 46.9501
L153.52 45.5109
L169.043 47.9959
L184.566 45.6859
L200.089 46.528" style="fill:none;stroke:#6468ae;stroke-linecap:square;stroke-width:2;"/>
   </g>
   <g id="line2d_24">
    <path clip-path="url(#p7f44db3472)" d="
M60.384 41.9774
L75.9067 44.4539
L91.4295 45.771" style="fill:none;stroke:#7261ab;stroke-linecap:square;stroke-width:2;"/>
   </g>
   <g id="line2d_25">
    <path clip-path="url(#p7f44db3472)" d="
M60.384 39.7511
L75.9067 46.7351
L91.4295 45.1136" style="fill:none;stroke:#6468ae;stroke-linecap:square;stroke-width:2;"/>
   </g>
   <g id="line2d_26">
    <path clip-path="url(#p7f44db3472)" d="
M60.384 40.9227
L75.9067 46.6616
L91.4295 46.1464
L106.952 45.4376
L122.475 48.0903
L137.998 46.1705
L153.52 48.717
L169.043 49.0384
L184.566 46.8735
L200.089 44.6474" style="fill:none;stroke:#6468ae;stroke-linecap:square;stroke-width:2;"/>
   </g>
   <g id="line2d_27">
    <path clip-path="url(#p7f44db3472)" d="
M60.384 41.0878
L75.9067 48.8224
L91.4295 49.6708" style="fill:none;stroke:#4577b5;stroke-linecap:square;stroke-width:2;"/>
   </g>
   <g id="line2d_28">
    <path clip-path="url(#p7f44db3472)" d="
M60.384 40.9227
L75.9067 27.9531
L91.4295 28.1825
L106.952 27.7003
L122.475 28.0584
L137.998 27.642
L153.52 28.6416
L169.043 28.1353
L184.566 26.6111
L200.089 26.7272" style="fill:none;stroke:#b63a6f;stroke-dasharray:6.000000,6.000000;stroke-dashoffset:0.0;"/>
   </g>
   <g id="line2d_29">
    <path clip-path="url(#p7f44db3472)" d="
M60.384 40.9227
L75.9067 43.3114
L91.4295 36.9954
L106.952 44.982
L122.475 46.1806
L137.998 32.1771
L153.52 33.5825
L169.043 30.8314
L184.566 31.336
L200.089 30.6253" style="fill:none;stroke:#7261ab;stroke-linecap:square;stroke-width:2;"/>
   </g>
   <g id="line2d_30">
    <path clip-path="url(#p7f44db3472)" d="
M60.384 40.9227
L75.9067 31.8705
L91.4295 29.9514
L106.952 30.8656
L122.475 30.7935
L137.998 31.7419
L153.52 29.4736
L169.043 29.547
L184.566 29.34
L200.089 33.4569" style="fill:none;stroke:#9152a5;stroke-dasharray:6.000000,6.000000;stroke-dashoffset:0.0;"/>
   </g>
   <g id="line2d_31">
    <path clip-path="url(#p7f44db3472)" d="
M60.384 43.6692
L75.9067 34.3738
L91.4295 38.1699
L106.952 37.528
L122.475 37.8735
L137.998 35.9756
L153.52 37.5755
L169.043 39.135
L184.566 40.4384
L200.089 38.6738" style="fill:none;stroke:#8259a8;stroke-linecap:square;stroke-width:2;"/>
   </g>
   <g id="line2d_32">
    <path clip-path="url(#p7f44db3472)" d="
M60.384 41.9774
L75.9067 46.2815
L91.4295 48.2499
L106.952 49.2731" style="fill:none;stroke:#6468ae;stroke-linecap:square;stroke-width:2;"/>
   </g>
   <g id="line2d_33">
    <path clip-path="url(#p7f44db3472)" d="
M60.384 39.7511
L75.9067 50.6209
L91.4295 50.541
L106.952 50.2477" style="fill:none;stroke:#4577b5;stroke-linecap:square;stroke-width:2;"/>
   </g>
   <g id="line2d_34">
    <path clip-path="url(#p7f44db3472)" d="
M60.384 40.9227
L75.9067 30.9723
L91.4295 29.0739
L106.952 29.2329
L122.475 31.2331
L137.998 29.8487
L153.52 29.8965
L169.043 28.6501
L184.566 28.9327
L200.089 30.6103" style="fill:none;stroke:#9e4a99;stroke-dasharray:6.000000,6.000000;stroke-dashoffset:0.0;"/>
   </g>
   <g id="line2d_35">
    <path clip-path="url(#p7f44db3472)" d="
M60.384 40.9227
L75.9067 39.9284
L91.4295 36.9601
L106.952 34.9612
L122.475 33.9621
L137.998 40.9132
L153.52 36.9756
L169.043 37.6656
L184.566 34.5694
L200.089 37.387" style="fill:none;stroke:#8259a8;stroke-linecap:square;stroke-width:2;"/>
   </g>
   <g id="line2d_36">
    <path clip-path="url(#p7f44db3472)" d="
M60.384 40.9227
L75.9067 31.711
L91.4295 29.6144
L106.952 32.7652
L122.475 30.0832
L137.998 34.3086
L153.52 30.5116
L169.043 31.155
L184.566 30.6417
L200.089 32.5836" style="fill:none;stroke:#aa4284;stroke-dasharray:6.000000,6.000000;stroke-dashoffset:0.0;"/>
   </g>
   <g id="line2d_37">
    <path clip-path="url(#p7f44db3472)" d="
M60.384 39.7511
L75.9067 50.2695
L91.4295 48.6234
L106.952 47.5105" style="fill:none;stroke:#556fb2;stroke-linecap:square;stroke-width:2;"/>
   </g>
   <g id="line2d_38">
    <path clip-path="url(#p7f44db3472)" d="
M60.384 39.7511
L75.9067 32.1864
L91.4295 31.4974
L106.952 33.2942
L122.475 33.004
L137.998 32.848
L153.52 32.7901
L169.043 32.6268
L184.566 32.0141
L200.089 32.4272" style="fill:none;stroke:#d92230;stroke-dasharray:6.000000,6.000000;stroke-dashoffset:0.0;"/>
   </g>
   <g id="line2d_39">
    <path clip-path="url(#p7f44db3472)" d="
M60.384 40.9227
L75.9067 50.4156
L91.4295 51.2176
L106.952 51.7961
L122.475 51.9023
L137.998 50.8925
L153.52 51.7149
L169.043 50.27
L184.566 50.8827
L200.089 52.1603" style="fill:none;stroke:#377eb8;stroke-linecap:square;stroke-width:2;"/>
   </g>
   <g id="line2d_40">
    <path clip-path="url(#p7f44db3472)" d="
M60.384 43.6692
L75.9067 43.0861
L91.4295 31.4557
L106.952 44.4167
L122.475 43.0089
L137.998 34.0145
L153.52 42.4506
L169.043 45.3711
L184.566 42.3467
L200.089 44.5078" style="fill:none;stroke:#7261ab;stroke-linecap:square;stroke-width:2;"/>
   </g>
   <g id="line2d_41">
    <path clip-path="url(#p7f44db3472)" d="
M60.384 43.6692
L75.9067 31.3754
L91.4295 32.0733
L106.952 32.4916
L122.475 32.9695
L137.998 32.49
L153.52 32.9945
L169.043 31.9227
L184.566 31.3761
L200.089 32.9084" style="fill:none;stroke:#d92230;stroke-dasharray:6.000000,6.000000;stroke-dashoffset:0.0;"/>
   </g>
   <g id="line2d_42">
    <path clip-path="url(#p7f44db3472)" d="
M60.384 40.9227
L75.9067 28.7861
L91.4295 29.957
L106.952 30.1187
L122.475 29.4421
L137.998 29.853
L153.52 28.9672
L169.043 31.1169
L184.566 29.9471
L200.089 29.3404" style="fill:none;stroke:#e41a1c;stroke-dasharray:6.000000,6.000000;stroke-dashoffset:0.0;"/>
   </g>
   <g id="line2d_43">
    <path clip-path="url(#p7f44db3472)" d="
M60.384 43.6692
L75.9067 49.582
L91.4295 49.7744
L106.952 52.6856
L122.475 49.3981
L137.998 51.7584
L153.52 50.5665
L169.043 49.2317
L184.566 50.5552
L200.089 50.9355" style="fill:none;stroke:#4577b5;stroke-linecap:square;stroke-width:2;"/>
   </g>
   <g id="line2d_44">
    <path clip-path="url(#p7f44db3472)" d="
M60.384 41.9774
L75.9067 53.8126
L91.4295 50.1925
L106.952 51.9706
L122.475 52.9817" style="fill:none;stroke:#377eb8;stroke-linecap:square;stroke-width:2;"/>
   </g>
   <g id="line2d_45">
    <path clip-path="url(#p7f44db3472)" d="
M60.384 39.7511
L75.9067 39.5701
L91.4295 44.3858" style="fill:none;stroke:#7261ab;stroke-linecap:square;stroke-width:2;"/>
   </g>
   <g id="line2d_46">
    <path clip-path="url(#p7f44db3472)" d="
M60.384 12.75
L203.193 12.75" style="fill:none;stroke:#000000;stroke-dasharray:1.000000,3.000000;stroke-dashoffset:0.0;"/>
   </g>
   <g id="patch_3">
    <path d="
M203.193 112.663
L203.193 8.31963" style="fill:none;stroke:#000000;stroke-linecap:square;stroke-linejoin:miter;"/>
   </g>
   <g id="patch_4">
    <path d="
M60.384 8.31963
L203.193 8.31963" style="fill:none;stroke:#000000;stroke-linecap:square;stroke-linejoin:miter;"/>
   </g>
   <g id="patch_5">
    <path d="
M60.384 112.663
L203.193 112.663" style="fill:none;stroke:#000000;stroke-linecap:square;stroke-linejoin:miter;"/>
   </g>
   <g id="patch_6">
    <path d="
M60.384 112.663
L60.384 8.31963" style="fill:none;stroke:#000000;stroke-linecap:square;stroke-linejoin:miter;"/>
   </g>
   <g id="matplotlib.axis_1">
    <g id="text_1">
     <!-- time -->
     <defs>
      <path d="
M18.3125 70.2188
L18.3125 54.6875
L36.8125 54.6875
L36.8125 47.7031
L18.3125 47.7031
L18.3125 18.0156
Q18.3125 11.3281 20.1406 9.42188
Q21.9688 7.51562 27.5938 7.51562
L36.8125 7.51562
L36.8125 0
L27.5938 0
Q17.1875 0 13.2344 3.875
Q9.28125 7.76562 9.28125 18.0156
L9.28125 47.7031
L2.6875 47.7031
L2.6875 54.6875
L9.28125 54.6875
L9.28125 70.2188
z
" id="BitstreamVeraSans-Roman-74"/>
      <path d="
M9.42188 54.6875
L18.4062 54.6875
L18.4062 0
L9.42188 0
z

M9.42188 75.9844
L18.4062 75.9844
L18.4062 64.5938
L9.42188 64.5938
z
" id="BitstreamVeraSans-Roman-69"/>
      <path d="
M52 44.1875
Q55.375 50.25 60.0625 53.125
Q64.75 56 71.0938 56
Q79.6406 56 84.2812 50.0156
Q88.9219 44.0469 88.9219 33.0156
L88.9219 0
L79.8906 0
L79.8906 32.7188
Q79.8906 40.5781 77.0938 44.375
Q74.3125 48.1875 68.6094 48.1875
Q61.625 48.1875 57.5625 43.5469
Q53.5156 38.9219 53.5156 30.9062
L53.5156 0
L44.4844 0
L44.4844 32.7188
Q44.4844 40.625 41.7031 44.4062
Q38.9219 48.1875 33.1094 48.1875
Q26.2188 48.1875 22.1562 43.5312
Q18.1094 38.875 18.1094 30.9062
L18.1094 0
L9.07812 0
L9.07812 54.6875
L18.1094 54.6875
L18.1094 46.1875
Q21.1875 51.2188 25.4844 53.6094
Q29.7812 56 35.6875 56
Q41.6562 56 45.8281 52.9688
Q50 49.9531 52 44.1875" id="BitstreamVeraSans-Roman-6d"/>
      <path d="
M56.2031 29.5938
L56.2031 25.2031
L14.8906 25.2031
Q15.4844 15.9219 20.4844 11.0625
Q25.4844 6.20312 34.4219 6.20312
Q39.5938 6.20312 44.4531 7.46875
Q49.3125 8.73438 54.1094 11.2812
L54.1094 2.78125
Q49.2656 0.734375 44.1875 -0.34375
Q39.1094 -1.42188 33.8906 -1.42188
Q20.7969 -1.42188 13.1562 6.1875
Q5.51562 13.8125 5.51562 26.8125
Q5.51562 40.2344 12.7656 48.1094
Q20.0156 56 32.3281 56
Q43.3594 56 49.7812 48.8906
Q56.2031 41.7969 56.2031 29.5938
M47.2188 32.2344
Q47.125 39.5938 43.0938 43.9844
Q39.0625 48.3906 32.4219 48.3906
Q24.9062 48.3906 20.3906 44.1406
Q15.875 39.8906 15.1875 32.1719
z
" id="BitstreamVeraSans-Roman-65"/>
     </defs>
     <g transform="translate(118.714248523 126.781123917)scale(0.12 -0.12)">
      <use xlink:href="#BitstreamVeraSans-Roman-74"/>
      <use x="39.208984375" xlink:href="#BitstreamVeraSans-Roman-69"/>
      <use x="66.9921875" xlink:href="#BitstreamVeraSans-Roman-6d"/>
      <use x="164.404296875" xlink:href="#BitstreamVeraSans-Roman-65"/>
     </g>
    </g>
   </g>
   <g id="matplotlib.axis_2">
    <g id="ytick_1">
     <g id="line2d_47">
      <defs>
       <path d="
M0 0
L4 0" id="md7965d1ba0" style="stroke:#000000;stroke-width:0.5;"/>
      </defs>
      <g>
       <use style="stroke:#000000;stroke-width:0.5;" x="60.384" xlink:href="#md7965d1ba0" y="112.662998917"/>
      </g>
     </g>
     <g id="line2d_48">
      <defs>
       <path d="
M0 0
L-4 0" id="md9a1c1a7cd" style="stroke:#000000;stroke-width:0.5;"/>
      </defs>
      <g>
       <use style="stroke:#000000;stroke-width:0.5;" x="203.193247046" xlink:href="#md9a1c1a7cd" y="112.662998917"/>
      </g>
     </g>
     <g id="text_2">
      <!-- 0 -->
      <defs>
       <path d="
M31.7812 66.4062
Q24.1719 66.4062 20.3281 58.9062
Q16.5 51.4219 16.5 36.375
Q16.5 21.3906 20.3281 13.8906
Q24.1719 6.39062 31.7812 6.39062
Q39.4531 6.39062 43.2812 13.8906
Q47.125 21.3906 47.125 36.375
Q47.125 51.4219 43.2812 58.9062
Q39.4531 66.4062 31.7812 66.4062
M31.7812 74.2188
Q44.0469 74.2188 50.5156 64.5156
Q56.9844 54.8281 56.9844 36.375
Q56.9844 17.9688 50.5156 8.26562
Q44.0469 -1.42188 31.7812 -1.42188
Q19.5312 -1.42188 13.0625 8.26562
Q6.59375 17.9688 6.59375 36.375
Q6.59375 54.8281 13.0625 64.5156
Q19.5312 74.2188 31.7812 74.2188" id="BitstreamVeraSans-Roman-30"/>
      </defs>
      <g transform="translate(51.3449375 115.422373917)scale(0.1 -0.1)">
       <use xlink:href="#BitstreamVeraSans-Roman-30"/>
      </g>
     </g>
    </g>
    <g id="ytick_2">
     <g id="line2d_49">
      <g>
       <use style="stroke:#000000;stroke-width:0.5;" x="60.384" xlink:href="#md7965d1ba0" y="77.8818744551"/>
      </g>
     </g>
     <g id="line2d_50">
      <g>
       <use style="stroke:#000000;stroke-width:0.5;" x="203.193247046" xlink:href="#md9a1c1a7cd" y="77.8818744551"/>
      </g>
     </g>
     <g id="text_3">
      <!-- 0.2 -->
      <defs>
       <path d="
M19.1875 8.29688
L53.6094 8.29688
L53.6094 0
L7.32812 0
L7.32812 8.29688
Q12.9375 14.1094 22.625 23.8906
Q32.3281 33.6875 34.8125 36.5312
Q39.5469 41.8438 41.4219 45.5312
Q43.3125 49.2188 43.3125 52.7812
Q43.3125 58.5938 39.2344 62.25
Q35.1562 65.9219 28.6094 65.9219
Q23.9688 65.9219 18.8125 64.3125
Q13.6719 62.7031 7.8125 59.4219
L7.8125 69.3906
Q13.7656 71.7812 18.9375 73
Q24.125 74.2188 28.4219 74.2188
Q39.75 74.2188 46.4844 68.5469
Q53.2188 62.8906 53.2188 53.4219
Q53.2188 48.9219 51.5312 44.8906
Q49.8594 40.875 45.4062 35.4062
Q44.1875 33.9844 37.6406 27.2188
Q31.1094 20.4531 19.1875 8.29688" id="BitstreamVeraSans-Roman-32"/>
       <path d="
M10.6875 12.4062
L21 12.4062
L21 0
L10.6875 0
z
" id="BitstreamVeraSans-Roman-2e"/>
      </defs>
      <g transform="translate(42.1418125 80.6412494551)scale(0.1 -0.1)">
       <use xlink:href="#BitstreamVeraSans-Roman-30"/>
       <use x="63.623046875" xlink:href="#BitstreamVeraSans-Roman-2e"/>
       <use x="95.41015625" xlink:href="#BitstreamVeraSans-Roman-32"/>
      </g>
     </g>
    </g>
    <g id="ytick_3">
     <g id="line2d_51">
      <g>
       <use style="stroke:#000000;stroke-width:0.5;" x="60.384" xlink:href="#md7965d1ba0" y="43.1007499934"/>
      </g>
     </g>
     <g id="line2d_52">
      <g>
       <use style="stroke:#000000;stroke-width:0.5;" x="203.193247046" xlink:href="#md9a1c1a7cd" y="43.1007499934"/>
      </g>
     </g>
     <g id="text_4">
      <!-- 0.4 -->
      <defs>
       <path d="
M37.7969 64.3125
L12.8906 25.3906
L37.7969 25.3906
z

M35.2031 72.9062
L47.6094 72.9062
L47.6094 25.3906
L58.0156 25.3906
L58.0156 17.1875
L47.6094 17.1875
L47.6094 0
L37.7969 0
L37.7969 17.1875
L4.89062 17.1875
L4.89062 26.7031
z
" id="BitstreamVeraSans-Roman-34"/>
      </defs>
      <g transform="translate(41.7011875 45.8601249934)scale(0.1 -0.1)">
       <use xlink:href="#BitstreamVeraSans-Roman-30"/>
       <use x="63.623046875" xlink:href="#BitstreamVeraSans-Roman-2e"/>
       <use x="95.41015625" xlink:href="#BitstreamVeraSans-Roman-34"/>
      </g>
     </g>
    </g>
    <g id="ytick_4">
     <g id="line2d_53">
      <g>
       <use style="stroke:#000000;stroke-width:0.5;" x="60.384" xlink:href="#md7965d1ba0" y="12.75"/>
      </g>
     </g>
     <g id="line2d_54">
      <g>
       <use style="stroke:#000000;stroke-width:0.5;" x="203.193247046" xlink:href="#md9a1c1a7cd" y="12.75"/>
      </g>
     </g>
     <g id="text_5">
      <!-- $Q_{6,\mathrm{FCC}}$ -->
      <defs>
       <path d="
M22.7969 10.6875
Q26.2188 6.34375 31.3438 3.82812
Q36.4688 1.3125 42 1.3125
Q46.625 1.3125 50.5781 3.14062
Q54.5469 4.98438 57.5 8.25
Q60.4531 11.5312 62.0312 15.6719
Q63.625 19.8281 63.625 24.4219
Q63.625 25.2031 64.5 25.2031
L65.7188 25.2031
Q66.5 25.2031 66.5 24.2188
Q66.5 19 64.5 14.1406
Q62.5 9.28125 58.8281 5.59375
Q55.1719 1.90625 50.4062 -0.140625
Q45.6562 -2.20312 40.4844 -2.20312
Q33.2969 -2.20312 26.875 0.703125
Q20.4531 3.60938 15.6875 8.65625
Q10.9375 13.7188 8.26562 20.3594
Q5.60938 27 5.60938 34.1875
Q5.60938 41.3594 8.26562 48
Q10.9375 54.6406 15.6875 59.7188
Q20.4531 64.7969 26.875 67.6562
Q33.2969 70.5156 40.4844 70.5156
Q45.6094 70.5156 50.2969 68.2812
Q54.9844 66.0625 58.5 62.0156
L64.3125 70.2188
Q64.8906 70.5156 64.9844 70.5156
L65.7188 70.5156
Q66.0156 70.5156 66.25 70.2656
Q66.5 70.0156 66.5 69.6719
L66.5 42.6719
Q66.5 41.7969 65.7188 41.7969
L63.9219 41.7969
Q62.9844 41.7969 62.9844 42.6719
Q62.9844 45.5625 61.8281 49.125
Q60.6875 52.6875 58.9062 55.875
Q57.125 59.0781 54.7812 61.5312
Q49.1719 67 41.8906 67
Q36.375 67 31.3125 64.5
Q26.2656 62.0156 22.7969 57.625
Q19.1406 52.9375 17.7188 46.9531
Q16.3125 40.9688 16.3125 34.1875
Q16.3125 27.3906 17.7188 21.375
Q19.1406 15.375 22.7969 10.6875" id="Cmr10-43"/>
       <path d="
M30.4219 -2.20312
Q22.9062 -2.20312 17.0938 1.23438
Q11.2812 4.6875 8.125 10.8125
Q4.98438 16.9375 4.98438 24.4219
Q4.98438 35.2969 11.1562 46.0938
Q17.3281 56.8906 27.4375 63.7031
Q37.5469 70.5156 48.5781 70.5156
Q54.2969 70.5156 59.0312 68.4531
Q63.7656 66.4062 67.0312 62.7656
Q70.3125 59.125 72.0938 54.2344
Q73.875 49.3594 73.875 43.6094
Q73.875 36.9688 71.5781 30.25
Q69.2812 23.5312 65.1719 17.75
Q61.0781 11.9688 55.6094 7.5625
Q50.1406 3.17188 43.8906 0.59375
Q44.5312 -4 45.8438 -6.64062
Q47.1719 -9.28125 50.875 -9.28125
Q54.7812 -9.28125 58.2188 -6.4375
Q61.6719 -3.60938 62.5938 0.203125
Q62.7969 1.125 63.7188 1.125
Q64.7969 1.125 64.7969 -0.203125
Q64.0625 -3.42188 62.625 -6.71875
Q61.1875 -10.0156 59.1562 -12.8594
Q57.125 -15.7188 54.3438 -17.5469
Q51.5625 -19.3906 48.1875 -19.3906
Q39.7969 -19.3906 39.7969 -8.59375
Q39.7969 -7.95312 40.0312 -5.1875
Q40.2812 -2.4375 40.2812 -0.6875
Q35.4531 -2.20312 30.4219 -2.20312
M26.7031 4.6875
Q26.7031 0.6875 31.1094 0.6875
Q35.5469 0.6875 40.4844 2.875
L40.4844 3.8125
Q40.4844 7.85938 39.2031 10.125
Q37.9375 12.4062 34.2812 12.4062
Q32.4688 12.4062 30.6875 11.2969
Q28.9062 10.2031 27.7969 8.42188
Q26.7031 6.64062 26.7031 4.6875
M24.125 4.5
Q24.125 7.125 25.5781 9.5625
Q27.0469 12.0156 29.3906 13.5
Q31.7344 14.9844 34.4219 14.9844
Q38.7656 14.9844 40.7344 12.0469
Q42.7188 9.125 43.4062 4.39062
Q49.8125 8.20312 54.6875 15.2812
Q59.5781 22.3594 62.1406 30.8281
Q64.7031 39.3125 64.7031 46.9219
Q64.7031 52.4375 62.8594 57.125
Q61.0312 61.8125 57.25 64.6875
Q53.4688 67.5781 47.9062 67.5781
Q42.5312 67.5781 37.5469 64.9375
Q32.5625 62.3125 28.3281 57.9062
Q24.2188 53.6562 20.9688 47.375
Q17.7188 41.1094 15.9531 34.2656
Q14.2031 27.4375 14.2031 21.1875
Q14.2031 14.7969 16.6875 9.5625
Q19.1875 4.34375 24.5156 2
Q24.125 3.03125 24.125 4.5" id="Cmmi10-51"/>
       <path d="
M3.07812 0
L3.07812 3.51562
Q13.375 3.51562 13.375 6.6875
L13.375 61.625
Q13.375 64.7969 3.07812 64.7969
L3.07812 68.3125
L58.2031 68.3125
L60.9844 45.4062
L58.1094 45.4062
Q57.4219 51.7031 56.2656 55.3438
Q55.125 58.9844 52.9219 61.0625
Q50.7344 63.1406 47.0469 63.9688
Q43.3594 64.7969 36.9219 64.7969
L27.7812 64.7969
Q25.9844 64.7969 24.9688 64.6406
Q23.9688 64.5 23.3281 63.7969
Q22.7031 63.0938 22.7031 61.625
L22.7031 35.8906
L29.7812 35.8906
Q34.9062 35.8906 37.2969 36.7969
Q39.7031 37.7031 40.5938 40.0938
Q41.5 42.4844 41.5 47.6094
L44.3906 47.6094
L44.3906 20.7031
L41.5 20.7031
Q41.5 25.8281 40.5938 28.2188
Q39.7031 30.6094 37.2969 31.5156
Q34.9062 32.4219 29.7812 32.4219
L22.7031 32.4219
L22.7031 6.6875
Q22.7031 3.51562 35.5 3.51562
L35.5 0
z
" id="Cmr10-46"/>
       <path d="
M25 -2.20312
Q18.7969 -2.20312 14.6406 1.09375
Q10.5 4.39062 8.21875 9.64062
Q5.95312 14.8906 5.07812 20.6562
Q4.20312 26.4219 4.20312 32.3281
Q4.20312 40.2344 7.28125 48.1875
Q10.3594 56.1562 16.3281 61.375
Q22.3125 66.6094 30.5156 66.6094
Q33.9375 66.6094 36.8906 65.3125
Q39.8438 64.0156 41.5312 61.5
Q43.2188 58.9844 43.2188 55.4219
Q43.2188 53.375 41.8281 51.9844
Q40.4375 50.5938 38.375 50.5938
Q36.4219 50.5938 35 52
Q33.5938 53.4219 33.5938 55.4219
Q33.5938 57.375 35 58.7812
Q36.4219 60.2031 38.375 60.2031
L38.9219 60.2031
Q37.6406 62.0156 35.3281 62.8594
Q33.0156 63.7188 30.5156 63.7188
Q27.4844 63.7188 24.9219 62.3906
Q22.3594 61.0781 20.3125 58.8281
Q18.2656 56.5938 16.8906 53.875
Q15.5312 51.1719 14.7656 47.7031
Q14.0156 44.2344 13.8125 41.2031
Q13.625 38.1875 13.625 33.5938
Q15.375 37.7031 18.5938 40.3125
Q21.8281 42.9219 25.875 42.9219
Q30.3281 42.9219 33.9844 41.1094
Q37.6406 39.3125 40.2812 36.1094
Q42.9219 32.9062 44.3125 28.7969
Q45.7031 24.7031 45.7031 20.5156
Q45.7031 14.6562 43.0938 9.34375
Q40.4844 4.04688 35.7344 0.921875
Q31 -2.20312 25 -2.20312
M25 0.984375
Q28.8594 0.984375 31.2031 2.73438
Q33.5469 4.5 34.6406 7.39062
Q35.75 10.2969 36.0156 13.25
Q36.2812 16.2188 36.2812 20.5156
Q36.2812 26.1719 35.7344 30.1719
Q35.2031 34.1875 32.8125 37.2344
Q30.4219 40.2812 25.4844 40.2812
Q21.4375 40.2812 18.8281 37.5469
Q16.2188 34.8125 15.0156 30.6406
Q13.8125 26.4688 13.8125 22.6094
Q13.8125 21.2969 13.9219 20.6094
Q13.9219 20.4531 13.8906 20.3594
Q13.875 20.2656 13.8125 20.125
Q13.8125 15.8281 14.6875 11.4219
Q15.5781 7.03125 18.0625 4
Q20.5625 0.984375 25 0.984375" id="Cmr10-36"/>
       <path d="
M9.90625 -18.0156
Q9.90625 -17.5781 10.2969 -17.1875
Q13.9219 -13.7188 15.9219 -9.17188
Q17.9219 -4.64062 17.9219 0.390625
L17.9219 1.60938
Q16.3125 0 13.9219 0
Q11.625 0 10.0156 1.60938
Q8.40625 3.21875 8.40625 5.51562
Q8.40625 7.85938 10.0156 9.42188
Q11.625 10.9844 13.9219 10.9844
Q17.4844 10.9844 19 7.6875
Q20.5156 4.39062 20.5156 0.390625
Q20.5156 -5.17188 18.2812 -10.1719
Q16.0625 -15.1875 12.0156 -19.1875
Q11.625 -19.3906 11.375 -19.3906
Q10.8906 -19.3906 10.3906 -18.9375
Q9.90625 -18.5 9.90625 -18.0156" id="Cmmi10-3b"/>
      </defs>
      <g transform="translate(28.184 14.3)scale(0.1 -0.1)">
       <use transform="translate(0.0 0.484375)" xlink:href="#Cmmi10-51"/>
       <use transform="translate(79.00390625 -25.025000000000006)scale(0.7)" xlink:href="#Cmr10-36"/>
       <use transform="translate(114.00390625 -25.025000000000006)scale(0.7)" xlink:href="#Cmmi10-3b"/>
       <use transform="translate(134.946484375 -25.025000000000006)scale(0.7)" xlink:href="#Cmr10-46"/>
       <use transform="translate(180.5763671875 -25.025000000000006)scale(0.7)" xlink:href="#Cmr10-43"/>
       <use transform="translate(231.128125 -25.025000000000006)scale(0.7)" xlink:href="#Cmr10-43"/>
      </g>
     </g>
    </g>
    <g id="text_6">
     <!-- $Q_{6,\mathrm{global}}$ -->
     <defs>
      <path d="
M10.4062 0
L10.4062 59.1875
Q10.4062 61.8594 9.59375 63.0625
Q8.79688 64.2656 7.28125 64.5312
Q5.76562 64.7969 2.59375 64.7969
L2.59375 68.3125
L17.3906 69.3906
L17.3906 38.0938
Q19.0469 39.9375 21.2656 41.3281
Q23.4844 42.7188 26.0156 43.4531
Q28.5625 44.1875 31.2031 44.1875
Q35.6875 44.1875 39.5156 42.375
Q43.3594 40.5781 46.1875 37.4062
Q49.0312 34.2344 50.6094 30.1094
Q52.2031 25.9844 52.2031 21.5781
Q52.2031 15.5312 49.25 10.2969
Q46.2969 5.07812 41.1875 1.96875
Q36.0781 -1.125 29.9844 -1.125
Q26.1719 -1.125 22.6094 0.828125
Q19.0469 2.78125 16.7031 6
L13.2812 0
z

M17.6719 9.8125
Q19.3438 6.15625 22.4688 3.82812
Q25.5938 1.51562 29.3906 1.51562
Q34.5781 1.51562 37.7656 4.48438
Q40.9688 7.46875 42.2344 12
Q43.5 16.5469 43.5 21.5781
Q43.5 30.0312 41.3125 34.4219
Q40.3281 36.375 38.6406 38.0312
Q36.9688 39.7031 34.8906 40.6562
Q32.8125 41.6094 30.5156 41.6094
Q26.5156 41.6094 23.0938 39.4844
Q19.6719 37.3594 17.6719 33.7969
z
" id="Cmr10-62"/>
      <path d="
M2.78125 -7.8125
Q2.78125 -4.25 5.35938 -1.57812
Q7.95312 1.07812 11.5312 2.20312
Q9.51562 3.71875 8.46875 6
Q7.42188 8.29688 7.42188 10.8906
Q7.42188 15.5781 10.4062 19.1875
Q5.8125 23.6875 5.8125 29.5
Q5.8125 32.625 7.15625 35.3594
Q8.5 38.0938 10.8906 40.0938
Q13.2812 42.0938 16.2031 43.1406
Q19.1406 44.1875 22.2188 44.1875
Q28.1719 44.1875 32.9062 40.7188
Q34.9688 42.9219 37.7656 44.1094
Q40.5781 45.3125 43.6094 45.3125
Q45.75 45.3125 47.1094 43.7656
Q48.4844 42.2344 48.4844 40.0938
Q48.4844 38.875 47.5469 37.9375
Q46.625 37.0156 45.4062 37.0156
Q44.1406 37.0156 43.2031 37.9375
Q42.2812 38.875 42.2812 40.0938
Q42.2812 41.9375 43.5 42.6719
Q38.3281 42.6719 34.625 39.1094
Q36.4219 37.3125 37.5156 34.6875
Q38.625 32.0781 38.625 29.5
Q38.625 25.25 36.2812 21.8438
Q33.9375 18.4531 30.0938 16.5781
Q26.2656 14.7031 22.2188 14.7031
Q16.75 14.7031 12.2031 17.6719
Q10.7969 15.7188 10.7969 13.2812
Q10.7969 10.6406 12.5312 8.65625
Q14.2656 6.6875 16.8906 6.6875
L25.0938 6.6875
Q31.0625 6.6875 35.8438 5.60938
Q40.625 4.54688 43.875 1.3125
Q47.125 -1.90625 47.125 -7.8125
Q47.125 -12.2031 43.4062 -15.1094
Q39.7031 -18.0156 34.5469 -19.3125
Q29.3906 -20.6094 25 -20.6094
Q20.5625 -20.6094 15.375 -19.3125
Q10.2031 -18.0156 6.48438 -15.1094
Q2.78125 -12.2031 2.78125 -7.8125
M8.40625 -7.8125
Q8.40625 -11.1875 11.1406 -13.4531
Q13.875 -15.7188 17.7188 -16.8125
Q21.5781 -17.9219 25 -17.9219
Q28.375 -17.9219 32.2188 -16.8125
Q36.0781 -15.7188 38.7812 -13.4531
Q41.5 -11.1875 41.5 -7.8125
Q41.5 -2.59375 36.7188 -1.04688
Q31.9375 0.484375 25.0938 0.484375
L16.8906 0.484375
Q14.5938 0.484375 12.6719 -0.609375
Q10.75 -1.70312 9.57812 -3.6875
Q8.40625 -5.67188 8.40625 -7.8125
M22.2188 17.3906
Q30.7188 17.3906 30.7188 29.5
Q30.7188 34.7188 28.9062 38.1094
Q27.0938 41.5 22.2188 41.5
Q17.3281 41.5 15.5156 38.1094
Q13.7188 34.7188 13.7188 29.5
Q13.7188 26.1719 14.4062 23.4844
Q15.0938 20.7969 16.9375 19.0938
Q18.7969 17.3906 22.2188 17.3906" id="Cmr10-67"/>
      <path d="
M3.07812 0
L3.07812 3.51562
Q6.5 3.51562 8.6875 4.04688
Q10.8906 4.59375 10.8906 6.6875
L10.8906 59.1875
Q10.8906 61.8594 10.0781 63.0625
Q9.28125 64.2656 7.76562 64.5312
Q6.25 64.7969 3.07812 64.7969
L3.07812 68.3125
L17.9219 69.3906
L17.9219 6.6875
Q17.9219 4.59375 20.1094 4.04688
Q22.3125 3.51562 25.6875 3.51562
L25.6875 0
z
" id="Cmr10-6c"/>
      <path d="
M4 9.8125
Q4 15.7656 8.6875 19.5
Q13.375 23.25 19.9375 24.7812
Q26.5156 26.3125 32.4219 26.3125
L32.4219 30.4219
Q32.4219 33.2969 31.1562 36
Q29.8906 38.7188 27.4844 40.4531
Q25.0938 42.1875 22.2188 42.1875
Q15.5781 42.1875 12.1094 39.2031
Q14.0156 39.2031 15.25 37.7656
Q16.5 36.3281 16.5 34.4219
Q16.5 32.4219 15.0781 31
Q13.6719 29.5938 11.7188 29.5938
Q9.71875 29.5938 8.29688 31
Q6.89062 32.4219 6.89062 34.4219
Q6.89062 39.7031 11.6719 42.2656
Q16.4531 44.8281 22.2188 44.8281
Q26.2656 44.8281 30.3594 43.0938
Q34.4688 41.3594 37.0781 38.125
Q39.7031 34.9062 39.7031 30.6094
L39.7031 8.10938
Q39.7031 6.15625 40.5312 4.51562
Q41.3594 2.875 43.1094 2.875
Q44.7812 2.875 45.5781 4.53125
Q46.3906 6.20312 46.3906 8.10938
L46.3906 14.5
L49.3125 14.5
L49.3125 8.10938
Q49.3125 5.85938 48.1406 3.82812
Q46.9688 1.8125 44.9844 0.609375
Q43.0156 -0.59375 40.7188 -0.59375
Q37.7969 -0.59375 35.6719 1.67188
Q33.5469 3.95312 33.2969 7.07812
Q31.4531 3.32812 27.8281 1.09375
Q24.2188 -1.125 20.125 -1.125
Q16.3125 -1.125 12.625 0
Q8.9375 1.125 6.46875 3.53125
Q4 5.95312 4 9.8125
M12.1094 9.8125
Q12.1094 6.29688 14.6875 3.90625
Q17.2812 1.51562 20.7969 1.51562
Q24.0312 1.51562 26.6562 3.125
Q29.2969 4.73438 30.8594 7.51562
Q32.4219 10.2969 32.4219 13.375
L32.4219 23.7812
Q27.875 23.7812 23.1094 22.2812
Q18.3594 20.7969 15.2344 17.625
Q12.1094 14.4531 12.1094 9.8125" id="Cmr10-61"/>
      <path d="
M25 -1.125
Q19 -1.125 13.8594 1.92188
Q8.73438 4.98438 5.75 10.1094
Q2.78125 15.2344 2.78125 21.2969
Q2.78125 25.875 4.42188 30.125
Q6.0625 34.375 9.10938 37.7188
Q12.1562 41.0625 16.2031 42.9375
Q20.2656 44.8281 25 44.8281
Q31.1562 44.8281 36.2031 41.5781
Q41.2656 38.3281 44.1875 32.875
Q47.125 27.4375 47.125 21.2969
Q47.125 15.2812 44.1406 10.125
Q41.1562 4.98438 36.0469 1.92188
Q30.9531 -1.125 25 -1.125
M25 1.8125
Q33.0156 1.8125 35.6875 7.60938
Q38.375 13.4219 38.375 22.4062
Q38.375 27.4375 37.8438 30.7344
Q37.3125 34.0312 35.5 36.7188
Q34.375 38.375 32.6406 39.625
Q30.9062 40.875 28.9688 41.5312
Q27.0469 42.1875 25 42.1875
Q21.875 42.1875 19.0625 40.7656
Q16.2656 39.3594 14.4062 36.7188
Q12.5469 33.8906 12.0312 30.4844
Q11.5312 27.0938 11.5312 22.4062
Q11.5312 16.7969 12.5 12.3281
Q13.4844 7.85938 16.4375 4.82812
Q19.3906 1.8125 25 1.8125" id="Cmr10-6f"/>
     </defs>
     <g transform="translate(17.424 83.3873122243)rotate(-90.0)scale(0.144 -0.144)">
      <use transform="translate(0.0 0.484375)" xlink:href="#Cmmi10-51"/>
      <use transform="translate(79.00390625 -25.025000000000006)scale(0.7)" xlink:href="#Cmr10-36"/>
      <use transform="translate(114.00390625 -25.025000000000006)scale(0.7)" xlink:href="#Cmmi10-3b"/>
      <use transform="translate(134.946484375 -25.025000000000006)scale(0.7)" xlink:href="#Cmr10-67"/>
      <use transform="translate(169.946484375 -25.025000000000006)scale(0.7)" xlink:href="#Cmr10-6c"/>
      <use transform="translate(189.3263671875 -25.025000000000006)scale(0.7)" xlink:href="#Cmr10-6f"/>
      <use transform="translate(224.3263671875 -25.025000000000006)scale(0.7)" xlink:href="#Cmr10-62"/>
      <use transform="translate(263.188671875 -25.025000000000006)scale(0.7)" xlink:href="#Cmr10-61"/>
      <use transform="translate(298.188671875 -25.025000000000006)scale(0.7)" xlink:href="#Cmr10-6c"/>
     </g>
    </g>
   </g>
   <g id="legend_1">
    <g id="patch_7">
     <path d="
M74.2652 107.663
L189.312 107.663
Q191.312 107.663 191.312 105.663
L191.312 77.2864
Q191.312 75.2864 189.312 75.2864
L74.2652 75.2864
Q72.2652 75.2864 72.2652 77.2864
L72.2652 105.663
Q72.2652 107.663 74.2652 107.663
z
" style="fill:#ffffff;stroke:#000000;stroke-linejoin:miter;"/>
    </g>
    <g id="text_7">
     <!-- $\Delta \phi$ -->
     <defs>
      <path d="
M19.3906 -19.4844
L23.875 -1.42188
Q18.7969 -1.42188 14.4062 0.953125
Q10.0156 3.32812 7.34375 7.5625
Q4.6875 11.8125 4.6875 16.7969
Q4.6875 22.2188 7.375 27.1406
Q10.0625 32.0781 14.7188 36.1094
Q19.3906 40.1406 24.75 42.3125
Q30.125 44.4844 35.4062 44.4844
L41.4062 68.7969
Q41.6094 69.3906 42.1875 69.3906
L43.4062 69.3906
Q43.7969 69.3906 44.0312 69.0469
Q44.2812 68.7031 44.2812 68.4062
L38.2812 44.4844
Q42.0469 44.4844 45.5625 43.1094
Q49.0781 41.75 51.7812 39.2812
Q54.5 36.8125 56 33.4688
Q57.5156 30.125 57.5156 26.3125
Q57.5156 20.9062 54.8281 15.9688
Q52.1562 11.0312 47.6094 7.07812
Q43.0625 3.125 37.4688 0.84375
Q31.8906 -1.42188 26.8125 -1.42188
L22.2188 -19.9219
Q22.0156 -20.5156 21.3906 -20.5156
L20.2188 -20.5156
Q19.8281 -20.5156 19.6094 -20.1406
Q19.3906 -19.7812 19.3906 -19.4844
M24.5156 1.21875
L34.7188 41.8906
Q32.1719 41.8906 29.3906 40.8594
Q26.6094 39.8438 24.1406 38.2812
Q21.6875 36.7188 19.6719 34.7188
Q17.2344 32.2812 15.375 28.9531
Q13.5312 25.6406 12.5781 21.9531
Q11.625 18.2656 11.625 14.7031
Q11.625 10.9375 13.2344 7.85938
Q14.8438 4.78125 17.7656 3
Q20.7031 1.21875 24.5156 1.21875
M27.4844 1.21875
Q31.25 1.21875 35.5 3.35938
Q39.75 5.51562 42.4844 8.40625
Q46.2344 12.1094 48.4062 17.5
Q50.5938 22.9062 50.5938 28.4219
Q50.5938 32.125 48.9688 35.2188
Q47.3594 38.3281 44.4219 40.1094
Q41.5 41.8906 37.7031 41.8906
z
" id="Cmmi10-c1"/>
      <path d="
M5.42188 0
Q4.59375 0 4.59375 0.78125
Q4.64062 0.875 4.65625 0.921875
Q4.6875 0.984375 4.6875 1.125
L39.1094 70.5156
Q39.5469 71.5781 40.9219 71.5781
L42.2812 71.5781
Q43.6562 71.5781 44.0938 70.5156
L78.5156 1.125
Q78.5625 1.03125 78.5781 0.953125
Q78.6094 0.875 78.6094 0.78125
Q78.6094 0 77.7812 0
z

M12.0156 8.01562
L64.7031 8.01562
L38.375 61.0781
z
" id="Cmr10-a2"/>
     </defs>
     <g transform="translate(124.638623523 86.8848739167)scale(0.1 -0.1)">
      <use transform="translate(0.0 0.421875)" xlink:href="#Cmr10-a2"/>
      <use transform="translate(83.30078125 0.421875)" xlink:href="#Cmmi10-c1"/>
     </g>
    </g>
    <g id="line2d_55">
     <path d="
M79.2652 98.0833
L93.2652 98.0833" style="fill:none;stroke:#e41a1c;stroke-dasharray:6.000000,6.000000;stroke-dashoffset:0.0;"/>
    </g>
    <g id="line2d_56"/>
    <g id="text_8">
     <!-- 0.02 -->
     <g transform="translate(104.265186023 101.583311417)scale(0.1 -0.1)">
      <use xlink:href="#BitstreamVeraSans-Roman-30"/>
      <use x="63.623046875" xlink:href="#BitstreamVeraSans-Roman-2e"/>
      <use x="95.41015625" xlink:href="#BitstreamVeraSans-Roman-30"/>
      <use x="159.033203125" xlink:href="#BitstreamVeraSans-Roman-32"/>
     </g>
    </g>
    <g id="line2d_57">
     <path d="
M147.87 98.0833
L161.87 98.0833" style="fill:none;stroke:#377eb8;stroke-linecap:square;stroke-width:2;"/>
    </g>
    <g id="line2d_58"/>
    <g id="text_9">
     <!-- 0.3 -->
     <defs>
      <path d="
M40.5781 39.3125
Q47.6562 37.7969 51.625 33
Q55.6094 28.2188 55.6094 21.1875
Q55.6094 10.4062 48.1875 4.48438
Q40.7656 -1.42188 27.0938 -1.42188
Q22.5156 -1.42188 17.6562 -0.515625
Q12.7969 0.390625 7.625 2.20312
L7.625 11.7188
Q11.7188 9.32812 16.5938 8.10938
Q21.4844 6.89062 26.8125 6.89062
Q36.0781 6.89062 40.9375 10.5469
Q45.7969 14.2031 45.7969 21.1875
Q45.7969 27.6406 41.2812 31.2656
Q36.7656 34.9062 28.7188 34.9062
L20.2188 34.9062
L20.2188 43.0156
L29.1094 43.0156
Q36.375 43.0156 40.2344 45.9219
Q44.0938 48.8281 44.0938 54.2969
Q44.0938 59.9062 40.1094 62.9062
Q36.1406 65.9219 28.7188 65.9219
Q24.6562 65.9219 20.0156 65.0312
Q15.375 64.1562 9.8125 62.3125
L9.8125 71.0938
Q15.4375 72.6562 20.3438 73.4375
Q25.25 74.2188 29.5938 74.2188
Q40.8281 74.2188 47.3594 69.1094
Q53.9062 64.0156 53.9062 55.3281
Q53.9062 49.2656 50.4375 45.0938
Q46.9688 40.9219 40.5781 39.3125" id="BitstreamVeraSans-Roman-33"/>
     </defs>
     <g transform="translate(172.869873523 101.583311417)scale(0.1 -0.1)">
      <use xlink:href="#BitstreamVeraSans-Roman-30"/>
      <use x="63.623046875" xlink:href="#BitstreamVeraSans-Roman-2e"/>
      <use x="95.41015625" xlink:href="#BitstreamVeraSans-Roman-33"/>
     </g>
    </g>
   </g>
  </g>
  <g id="axes_2">
   <g id="patch_8">
    <path d="
M270.984 112.663
L413.793 112.663
L413.793 8.31963
L270.984 8.31963
z
" style="fill:#ffffff;"/>
   </g>
   <g id="line2d_59">
    <path clip-path="url(#pd0335e5121)" d="
M270.984 95.5156
L286.507 40.1574
L302.029 40.6865
L317.552 39.414
L333.075 42.9893
L348.598 40.2699
L364.12 39.5662
L379.643 42.2757
L395.166 40.8565
L410.689 42.2469" style="fill:none;stroke:#c1325a;stroke-dasharray:6.000000,6.000000;stroke-dashoffset:0.0;"/>
   </g>
   <g id="line2d_60">
    <path clip-path="url(#pd0335e5121)" d="
M270.984 92.7785
L286.507 70.3092
L302.029 71.9687
L317.552 51.1808
L333.075 49.7243
L348.598 52.1512
L364.12 51.9663
L379.643 53.6249
L395.166 52.0792
L410.689 53.726" style="fill:none;stroke:#e41a1c;stroke-dasharray:6.000000,6.000000;stroke-dashoffset:0.0;"/>
   </g>
   <g id="line2d_61">
    <path clip-path="url(#pd0335e5121)" d="
M270.984 92.7785
L286.507 48.748
L302.029 46.2995
L317.552 46.2772
L333.075 49.038
L348.598 44.1057
L364.12 49.7106
L379.643 49.4873
L395.166 49.2626
L410.689 47.4247" style="fill:none;stroke:#9e4a99;stroke-dasharray:6.000000,6.000000;stroke-dashoffset:0.0;"/>
   </g>
   <g id="line2d_62">
    <path clip-path="url(#pd0335e5121)" d="
M270.984 91.9038
L286.507 98.6195
L302.029 100.905
L317.552 102.583" style="fill:none;stroke:#4577b5;stroke-linecap:square;stroke-width:2;"/>
   </g>
   <g id="line2d_63">
    <path clip-path="url(#pd0335e5121)" d="
M270.984 92.7785
L286.507 43.5029
L302.029 42.3599
L317.552 44.5744
L333.075 41.4927
L348.598 43.1592
L364.12 42.8715
L379.643 43.0721
L395.166 42.5396
L410.689 43.3692" style="fill:none;stroke:#cd2a45;stroke-dasharray:6.000000,6.000000;stroke-dashoffset:0.0;"/>
   </g>
   <g id="line2d_64">
    <path clip-path="url(#pd0335e5121)" d="
M270.984 92.7785
L286.507 44.6957
L302.029 46.3051
L317.552 48.1801
L333.075 48.1043
L348.598 43.1045
L364.12 46.6769
L379.643 46.0381
L395.166 45.376
L410.689 45.4411" style="fill:none;stroke:#aa4284;stroke-dasharray:6.000000,6.000000;stroke-dashoffset:0.0;"/>
   </g>
   <g id="line2d_65">
    <path clip-path="url(#pd0335e5121)" d="
M270.984 92.7785
L286.507 42.376
L302.029 44.9215
L317.552 48.2531
L333.075 41.8922
L348.598 45.5343
L364.12 41.0392
L379.643 43.8887
L395.166 42.7877
L410.689 45.1807" style="fill:none;stroke:#c1325a;stroke-dasharray:6.000000,6.000000;stroke-dashoffset:0.0;"/>
   </g>
   <g id="line2d_66">
    <path clip-path="url(#pd0335e5121)" d="
M270.984 95.5156
L286.507 100.743
L302.029 104.599
L317.552 99.3547
L333.075 100.685
L348.598 99.6121
L364.12 99.8629
L379.643 100.896
L395.166 102.322
L410.689 102.903" style="fill:none;stroke:#4577b5;stroke-linecap:square;stroke-width:2;"/>
   </g>
   <g id="line2d_67">
    <path clip-path="url(#pd0335e5121)" d="
M270.984 81.1174
L286.507 106.417
L302.029 104.495
L317.552 105.763
L333.075 102.478" style="fill:none;stroke:#377eb8;stroke-linecap:square;stroke-width:2;"/>
   </g>
   <g id="line2d_68">
    <path clip-path="url(#pd0335e5121)" d="
M270.984 92.7785
L286.507 44.555
L302.029 47.7237
L317.552 50.5298
L333.075 49.9696
L348.598 48.7961
L364.12 48.5736
L379.643 48.0288
L395.166 52.1903
L410.689 49.9608" style="fill:none;stroke:#9152a5;stroke-dasharray:6.000000,6.000000;stroke-dashoffset:0.0;"/>
   </g>
   <g id="line2d_69">
    <path clip-path="url(#pd0335e5121)" d="
M270.984 95.5156
L286.507 42.7291
L302.029 42.8859
L317.552 43.9099
L333.075 41.0643
L348.598 42.6574
L364.12 42.8225
L379.643 41.0299
L395.166 42.4818
L410.689 41.4676" style="fill:none;stroke:#d92230;stroke-dasharray:6.000000,6.000000;stroke-dashoffset:0.0;"/>
   </g>
   <g id="line2d_70">
    <path clip-path="url(#pd0335e5121)" d="
M270.984 92.7785
L286.507 99.9002
L302.029 97.3848
L317.552 102.729
L333.075 100.292
L348.598 102.266
L364.12 97.8401
L379.643 104.121
L395.166 100.827
L410.689 104.136" style="fill:none;stroke:#556fb2;stroke-linecap:square;stroke-width:2;"/>
   </g>
   <g id="line2d_71">
    <path clip-path="url(#pd0335e5121)" d="
M270.984 91.9038
L286.507 86.3109
L302.029 33.7262" style="fill:none;stroke:#8259a8;stroke-linecap:square;stroke-width:2;"/>
   </g>
   <g id="line2d_72">
    <path clip-path="url(#pd0335e5121)" d="
M270.984 92.7785
L286.507 41.2271
L302.029 40.7994
L317.552 41.1077
L333.075 42.63
L348.598 43.1166
L364.12 41.2875
L379.643 42.235
L395.166 42.4304
L410.689 44.233" style="fill:none;stroke:#b63a6f;stroke-dasharray:6.000000,6.000000;stroke-dashoffset:0.0;"/>
   </g>
   <g id="line2d_73">
    <path clip-path="url(#pd0335e5121)" d="
M270.984 93.6636
L286.507 100.24
L302.029 97.5376" style="fill:none;stroke:#556fb2;stroke-linecap:square;stroke-width:2;"/>
   </g>
   <g id="line2d_74">
    <path clip-path="url(#pd0335e5121)" d="
M270.984 95.5156
L286.507 99.8391
L302.029 99.6154
L317.552 99.1318
L333.075 98.3233
L348.598 102.609
L364.12 100.735
L379.643 94.3544
L395.166 100.905
L410.689 95.6769" style="fill:none;stroke:#556fb2;stroke-linecap:square;stroke-width:2;"/>
   </g>
   <g id="line2d_75">
    <path clip-path="url(#pd0335e5121)" d="
M270.984 91.9038
L286.507 101.71
L302.029 102.942
L317.552 104.209" style="fill:none;stroke:#556fb2;stroke-linecap:square;stroke-width:2;"/>
   </g>
   <g id="line2d_76">
    <path clip-path="url(#pd0335e5121)" d="
M270.984 92.7785
L286.507 104.09
L302.029 104.215
L317.552 105.367
L333.075 103.05
L348.598 102.628
L364.12 101.294
L379.643 101.235
L395.166 104.296
L410.689 101.844" style="fill:none;stroke:#377eb8;stroke-linecap:square;stroke-width:2;"/>
   </g>
   <g id="line2d_77">
    <path clip-path="url(#pd0335e5121)" d="
M270.984 95.5156
L286.507 43.2504
L302.029 44.4362
L317.552 41.8301
L333.075 42.6663
L348.598 42.5911
L364.12 42.7472
L379.643 40.7937
L395.166 41.7098
L410.689 42.6358" style="fill:none;stroke:#cd2a45;stroke-dasharray:6.000000,6.000000;stroke-dashoffset:0.0;"/>
   </g>
   <g id="line2d_78">
    <path clip-path="url(#pd0335e5121)" d="
M270.984 93.6636
L286.507 102.408
L302.029 105.165
L317.552 99.5151" style="fill:none;stroke:#377eb8;stroke-linecap:square;stroke-width:2;"/>
   </g>
   <g id="line2d_79">
    <path clip-path="url(#pd0335e5121)" d="
M270.984 93.6636
L286.507 100.07
L302.029 96.4595" style="fill:none;stroke:#6468ae;stroke-linecap:square;stroke-width:2;"/>
   </g>
   <g id="line2d_80">
    <path clip-path="url(#pd0335e5121)" d="
M270.984 81.1174
L286.507 47.6871
L302.029 50.5929" style="fill:none;stroke:#8259a8;stroke-linecap:square;stroke-width:2;"/>
   </g>
   <g id="line2d_81">
    <path clip-path="url(#pd0335e5121)" d="
M270.984 92.7785
L286.507 100.324
L302.029 98.0911
L317.552 97.4512
L333.075 92.0693
L348.598 97.1262
L364.12 95.931
L379.643 94.0747
L395.166 91.9302
L410.689 98.8193" style="fill:none;stroke:#6468ae;stroke-linecap:square;stroke-width:2;"/>
   </g>
   <g id="line2d_82">
    <path clip-path="url(#pd0335e5121)" d="
M270.984 91.9038
L286.507 96.9674
L302.029 97.2045" style="fill:none;stroke:#7261ab;stroke-linecap:square;stroke-width:2;"/>
   </g>
   <g id="line2d_83">
    <path clip-path="url(#pd0335e5121)" d="
M270.984 81.1174
L286.507 99.892
L302.029 94.0298" style="fill:none;stroke:#6468ae;stroke-linecap:square;stroke-width:2;"/>
   </g>
   <g id="line2d_84">
    <path clip-path="url(#pd0335e5121)" d="
M270.984 95.5156
L286.507 91.9395
L302.029 92.748
L317.552 95.3066
L333.075 98.4492
L348.598 97.4113
L364.12 98.5331
L379.643 101.214
L395.166 99.8786
L410.689 92.2129" style="fill:none;stroke:#6468ae;stroke-linecap:square;stroke-width:2;"/>
   </g>
   <g id="line2d_85">
    <path clip-path="url(#pd0335e5121)" d="
M270.984 93.6636
L286.507 98.7949
L302.029 100.183" style="fill:none;stroke:#4577b5;stroke-linecap:square;stroke-width:2;"/>
   </g>
   <g id="line2d_86">
    <path clip-path="url(#pd0335e5121)" d="
M270.984 95.5156
L286.507 45.4235
L302.029 45.0863
L317.552 44.8974
L333.075 45.2002
L348.598 43.8833
L364.12 45.4554
L379.643 45.6658
L395.166 43.2043
L410.689 42.8137" style="fill:none;stroke:#b63a6f;stroke-dasharray:6.000000,6.000000;stroke-dashoffset:0.0;"/>
   </g>
   <g id="line2d_87">
    <path clip-path="url(#pd0335e5121)" d="
M270.984 95.5156
L286.507 88.0967
L302.029 60.5014
L317.552 101.161
L333.075 92.1645
L348.598 41.9926
L364.12 46.6501
L379.643 39.559
L395.166 39.7021
L410.689 36.8747" style="fill:none;stroke:#7261ab;stroke-linecap:square;stroke-width:2;"/>
   </g>
   <g id="line2d_88">
    <path clip-path="url(#pd0335e5121)" d="
M270.984 95.5156
L286.507 50.663
L302.029 46.3309
L317.552 49.7129
L333.075 47.7006
L348.598 50.5945
L364.12 45.8671
L379.643 46.9384
L395.166 45.3427
L410.689 52.9667" style="fill:none;stroke:#9152a5;stroke-dasharray:6.000000,6.000000;stroke-dashoffset:0.0;"/>
   </g>
   <g id="line2d_89">
    <path clip-path="url(#pd0335e5121)" d="
M270.984 92.7785
L286.507 49.3803
L302.029 56.5853
L317.552 59.0159
L333.075 62.9601
L348.598 50.256
L364.12 55.1069
L379.643 58.1733
L395.166 69.408
L410.689 61.3965" style="fill:none;stroke:#8259a8;stroke-linecap:square;stroke-width:2;"/>
   </g>
   <g id="line2d_90">
    <path clip-path="url(#pd0335e5121)" d="
M270.984 91.9038
L286.507 88.9252
L302.029 99.1857
L317.552 98.6365" style="fill:none;stroke:#6468ae;stroke-linecap:square;stroke-width:2;"/>
   </g>
   <g id="line2d_91">
    <path clip-path="url(#pd0335e5121)" d="
M270.984 81.1174
L286.507 100.641
L302.029 97.4317
L317.552 101.263" style="fill:none;stroke:#4577b5;stroke-linecap:square;stroke-width:2;"/>
   </g>
   <g id="line2d_92">
    <path clip-path="url(#pd0335e5121)" d="
M270.984 95.5156
L286.507 49.5732
L302.029 45.5731
L317.552 45.4278
L333.075 50.4694
L348.598 46.8592
L364.12 45.9055
L379.643 44.8663
L395.166 45.0004
L410.689 48.5186" style="fill:none;stroke:#9e4a99;stroke-dasharray:6.000000,6.000000;stroke-dashoffset:0.0;"/>
   </g>
   <g id="line2d_93">
    <path clip-path="url(#pd0335e5121)" d="
M270.984 95.5156
L286.507 66.4805
L302.029 58.7601
L317.552 49.4081
L333.075 55.9353
L348.598 66.1734
L364.12 58.7674
L379.643 56.2543
L395.166 51.6242
L410.689 61.6989" style="fill:none;stroke:#8259a8;stroke-linecap:square;stroke-width:2;"/>
   </g>
   <g id="line2d_94">
    <path clip-path="url(#pd0335e5121)" d="
M270.984 95.5156
L286.507 43.51
L302.029 40.1715
L317.552 55.1573
L333.075 40.4659
L348.598 47.1103
L364.12 38.6714
L379.643 42.6779
L395.166 40.0597
L410.689 51.4251" style="fill:none;stroke:#aa4284;stroke-dasharray:6.000000,6.000000;stroke-dashoffset:0.0;"/>
   </g>
   <g id="line2d_95">
    <path clip-path="url(#pd0335e5121)" d="
M270.984 81.1174
L286.507 104.644
L302.029 100.12
L317.552 98.7174" style="fill:none;stroke:#556fb2;stroke-linecap:square;stroke-width:2;"/>
   </g>
   <g id="line2d_96">
    <path clip-path="url(#pd0335e5121)" d="
M270.984 81.1174
L286.507 50.7133
L302.029 47.5971
L317.552 50.6752
L333.075 48.4371
L348.598 50.5376
L364.12 50.9088
L379.643 51.5115
L395.166 50.0936
L410.689 51.6133" style="fill:none;stroke:#d92230;stroke-dasharray:6.000000,6.000000;stroke-dashoffset:0.0;"/>
   </g>
   <g id="line2d_97">
    <path clip-path="url(#pd0335e5121)" d="
M270.984 95.5156
L286.507 102.264
L302.029 105.23
L317.552 102.79
L333.075 102.346
L348.598 103.355
L364.12 102.968
L379.643 101.599
L395.166 105.275
L410.689 100.482" style="fill:none;stroke:#377eb8;stroke-linecap:square;stroke-width:2;"/>
   </g>
   <g id="line2d_98">
    <path clip-path="url(#pd0335e5121)" d="
M270.984 92.7785
L286.507 93.8631
L302.029 40.2561
L317.552 99.482
L333.075 90.089
L348.598 45.6715
L364.12 81.3764
L379.643 94.1558
L395.166 84.9035
L410.689 94.5761" style="fill:none;stroke:#7261ab;stroke-linecap:square;stroke-width:2;"/>
   </g>
   <g id="line2d_99">
    <path clip-path="url(#pd0335e5121)" d="
M270.984 92.7785
L286.507 52.5417
L302.029 54.8604
L317.552 52.6287
L333.075 52.5052
L348.598 51.2269
L364.12 50.535
L379.643 50.5858
L395.166 52.9322
L410.689 51.9396" style="fill:none;stroke:#d92230;stroke-dasharray:6.000000,6.000000;stroke-dashoffset:0.0;"/>
   </g>
   <g id="line2d_100">
    <path clip-path="url(#pd0335e5121)" d="
M270.984 95.5156
L286.507 37.5705
L302.029 39.9412
L317.552 40.8813
L333.075 38.8587
L348.598 38.3883
L364.12 37.2526
L379.643 41.282
L395.166 40.1632
L410.689 39.6581" style="fill:none;stroke:#e41a1c;stroke-dasharray:6.000000,6.000000;stroke-dashoffset:0.0;"/>
   </g>
   <g id="line2d_101">
    <path clip-path="url(#pd0335e5121)" d="
M270.984 92.7785
L286.507 101.865
L302.029 102.553
L317.552 105.008
L333.075 100.473
L348.598 102.173
L364.12 103.904
L379.643 102.379
L395.166 101.077
L410.689 102.448" style="fill:none;stroke:#4577b5;stroke-linecap:square;stroke-width:2;"/>
   </g>
   <g id="line2d_102">
    <path clip-path="url(#pd0335e5121)" d="
M270.984 91.9038
L286.507 101.695
L302.029 100.832
L317.552 103.503
L333.075 102.977" style="fill:none;stroke:#377eb8;stroke-linecap:square;stroke-width:2;"/>
   </g>
   <g id="line2d_103">
    <path clip-path="url(#pd0335e5121)" d="
M270.984 81.1174
L286.507 65.6549
L302.029 92.943" style="fill:none;stroke:#7261ab;stroke-linecap:square;stroke-width:2;"/>
   </g>
   <g id="line2d_104">
    <path clip-path="url(#pd0335e5121)" d="
M270.984 12.75
L413.793 12.75" style="fill:none;stroke:#000000;stroke-dasharray:1.000000,3.000000;stroke-dashoffset:0.0;"/>
   </g>
   <g id="patch_9">
    <path d="
M413.793 112.663
L413.793 8.31963" style="fill:none;stroke:#000000;stroke-linecap:square;stroke-linejoin:miter;"/>
   </g>
   <g id="patch_10">
    <path d="
M270.984 8.31963
L413.793 8.31963" style="fill:none;stroke:#000000;stroke-linecap:square;stroke-linejoin:miter;"/>
   </g>
   <g id="patch_11">
    <path d="
M270.984 112.663
L413.793 112.663" style="fill:none;stroke:#000000;stroke-linecap:square;stroke-linejoin:miter;"/>
   </g>
   <g id="patch_12">
    <path d="
M270.984 112.663
L270.984 8.31963" style="fill:none;stroke:#000000;stroke-linecap:square;stroke-linejoin:miter;"/>
   </g>
   <g id="matplotlib.axis_3">
    <g id="text_10">
     <!-- time -->
     <g transform="translate(329.314248523 126.781123917)scale(0.12 -0.12)">
      <use xlink:href="#BitstreamVeraSans-Roman-74"/>
      <use x="39.208984375" xlink:href="#BitstreamVeraSans-Roman-69"/>
      <use x="66.9921875" xlink:href="#BitstreamVeraSans-Roman-6d"/>
      <use x="164.404296875" xlink:href="#BitstreamVeraSans-Roman-65"/>
     </g>
    </g>
   </g>
   <g id="matplotlib.axis_4">
    <g id="ytick_5">
     <g id="line2d_105">
      <g>
       <use style="stroke:#000000;stroke-width:0.5;" x="270.984" xlink:href="#md7965d1ba0" y="112.662998917"/>
      </g>
     </g>
     <g id="line2d_106">
      <g>
       <use style="stroke:#000000;stroke-width:0.5;" x="413.793247046" xlink:href="#md9a1c1a7cd" y="112.662998917"/>
      </g>
     </g>
     <g id="text_11">
      <!-- 0 -->
      <g transform="translate(261.9449375 115.422373917)scale(0.1 -0.1)">
       <use xlink:href="#BitstreamVeraSans-Roman-30"/>
      </g>
     </g>
    </g>
    <g id="ytick_6">
     <g id="line2d_107">
      <g>
       <use style="stroke:#000000;stroke-width:0.5;" x="270.984" xlink:href="#md7965d1ba0" y="77.8818744551"/>
      </g>
     </g>
     <g id="line2d_108">
      <g>
       <use style="stroke:#000000;stroke-width:0.5;" x="413.793247046" xlink:href="#md9a1c1a7cd" y="77.8818744551"/>
      </g>
     </g>
     <g id="text_12">
      <!-- 0.2 -->
      <g transform="translate(252.7418125 80.6412494551)scale(0.1 -0.1)">
       <use xlink:href="#BitstreamVeraSans-Roman-30"/>
       <use x="63.623046875" xlink:href="#BitstreamVeraSans-Roman-2e"/>
       <use x="95.41015625" xlink:href="#BitstreamVeraSans-Roman-32"/>
      </g>
     </g>
    </g>
    <g id="ytick_7">
     <g id="line2d_109">
      <g>
       <use style="stroke:#000000;stroke-width:0.5;" x="270.984" xlink:href="#md7965d1ba0" y="43.1007499934"/>
      </g>
     </g>
     <g id="line2d_110">
      <g>
       <use style="stroke:#000000;stroke-width:0.5;" x="413.793247046" xlink:href="#md9a1c1a7cd" y="43.1007499934"/>
      </g>
     </g>
     <g id="text_13">
      <!-- 0.4 -->
      <g transform="translate(252.3011875 45.8601249934)scale(0.1 -0.1)">
       <use xlink:href="#BitstreamVeraSans-Roman-30"/>
       <use x="63.623046875" xlink:href="#BitstreamVeraSans-Roman-2e"/>
       <use x="95.41015625" xlink:href="#BitstreamVeraSans-Roman-34"/>
      </g>
     </g>
    </g>
    <g id="ytick_8">
     <g id="line2d_111">
      <g>
       <use style="stroke:#000000;stroke-width:0.5;" x="270.984" xlink:href="#md7965d1ba0" y="12.75"/>
      </g>
     </g>
     <g id="line2d_112">
      <g>
       <use style="stroke:#000000;stroke-width:0.5;" x="413.793247046" xlink:href="#md9a1c1a7cd" y="12.75"/>
      </g>
     </g>
     <g id="text_14">
      <!-- $Q_{6,\mathrm{FCC}}$ -->
      <g transform="translate(238.784 14.3)scale(0.1 -0.1)">
       <use transform="translate(0.0 0.484375)" xlink:href="#Cmmi10-51"/>
       <use transform="translate(79.00390625 -25.025000000000006)scale(0.7)" xlink:href="#Cmr10-36"/>
       <use transform="translate(114.00390625 -25.025000000000006)scale(0.7)" xlink:href="#Cmmi10-3b"/>
       <use transform="translate(134.946484375 -25.025000000000006)scale(0.7)" xlink:href="#Cmr10-46"/>
       <use transform="translate(180.5763671875 -25.025000000000006)scale(0.7)" xlink:href="#Cmr10-43"/>
       <use transform="translate(231.128125 -25.025000000000006)scale(0.7)" xlink:href="#Cmr10-43"/>
      </g>
     </g>
    </g>
    <g id="text_15">
     <!-- $Q_{6,\mathrm{local}}$ -->
     <defs>
      <path d="
M24.9062 -1.125
Q18.8438 -1.125 13.9062 2.01562
Q8.98438 5.17188 6.15625 10.4219
Q3.32812 15.6719 3.32812 21.5781
Q3.32812 27.4844 6.125 32.9062
Q8.9375 38.3281 13.8906 41.5781
Q18.8438 44.8281 24.9062 44.8281
Q30.7656 44.8281 35.5625 42.5312
Q40.375 40.2344 40.375 35.0156
Q40.375 33.0625 38.9844 31.6094
Q37.5938 30.1719 35.5938 30.1719
Q33.5938 30.1719 32.2031 31.6094
Q30.8125 33.0625 30.8125 35.0156
Q30.8125 36.7656 31.9375 38.0625
Q33.0625 39.3594 34.7188 39.7031
Q31.25 41.8906 25 41.8906
Q20.2188 41.8906 17.2812 38.7188
Q14.3594 35.5469 13.1875 30.8594
Q12.0156 26.1719 12.0156 21.5781
Q12.0156 16.75 13.4531 12.2344
Q14.8906 7.71875 18.0938 4.76562
Q21.2969 1.8125 26.125 1.8125
Q30.8594 1.8125 34.1719 4.71875
Q37.5 7.625 38.7188 12.3125
Q38.7188 12.8906 39.5 12.8906
L40.7188 12.8906
Q41.0156 12.8906 41.25 12.625
Q41.5 12.3594 41.5 12.0156
L41.5 11.7188
Q39.9844 5.8125 35.4844 2.34375
Q31 -1.125 24.9062 -1.125" id="Cmr10-63"/>
     </defs>
     <g transform="translate(228.024 80.2913122243)rotate(-90.0)scale(0.144 -0.144)">
      <use transform="translate(0.0 0.484375)" xlink:href="#Cmmi10-51"/>
      <use transform="translate(79.00390625 -25.025000000000006)scale(0.7)" xlink:href="#Cmr10-36"/>
      <use transform="translate(114.00390625 -25.025000000000006)scale(0.7)" xlink:href="#Cmmi10-3b"/>
      <use transform="translate(134.946484375 -25.025000000000006)scale(0.7)" xlink:href="#Cmr10-6c"/>
      <use transform="translate(154.3263671875 -25.025000000000006)scale(0.7)" xlink:href="#Cmr10-6f"/>
      <use transform="translate(189.3263671875 -25.025000000000006)scale(0.7)" xlink:href="#Cmr10-63"/>
      <use transform="translate(220.395703125 -25.025000000000006)scale(0.7)" xlink:href="#Cmr10-61"/>
      <use transform="translate(255.395703125 -25.025000000000006)scale(0.7)" xlink:href="#Cmr10-6c"/>
     </g>
    </g>
   </g>
  </g>
 </g>
 <defs>
  <clipPath id="p7f44db3472">
   <rect height="104.343373385" width="142.809247046" x="60.384" y="8.31962553181"/>
  </clipPath>
  <clipPath id="pd0335e5121">
   <rect height="104.343373385" width="142.809247046" x="270.984" y="8.31962553181"/>
  </clipPath>
 </defs>
</svg>
