<?xml version="1.0" encoding="utf-8" standalone="no"?>
<!DOCTYPE svg PUBLIC "-//W3C//DTD SVG 1.1//EN"
  "http://www.w3.org/Graphics/SVG/1.1/DTD/svg11.dtd">
<!-- Created with matplotlib (http://matplotlib.org/) -->
<svg height="129pt" version="1.1" viewBox="0 0 181 129" width="181pt" xmlns="http://www.w3.org/2000/svg" xmlns:xlink="http://www.w3.org/1999/xlink">
 <defs>
  <style type="text/css">
*{stroke-linecap:butt;stroke-linejoin:round;}
  </style>
 </defs>
 <g id="figure_1">
  <g id="patch_1">
   <path d="
M0 129.6
L181.8 129.6
L181.8 0
L0 0
z
" style="fill:#ffffff;"/>
  </g>
  <g id="axes_1">
   <g id="line2d_1">
    <path clip-path="url(#p4f1cd30cb5)" d="
M7.07414 122.4
L40.3024 122.4
L40.8059 64.8
L140.994 64.8
L141.498 122.4
L174.726 122.4
L174.726 122.4" style="fill:none;stroke:#377eb8;stroke-linecap:square;stroke-width:2.0;"/>
   </g>
   <g id="legend_1">
    <g id="line2d_2">
     <path d="
M108.48 22.9181
L125.28 22.9181" style="fill:none;stroke:#377eb8;stroke-linecap:square;stroke-width:2.0;"/>
    </g>
    <g id="line2d_3"/>
    <g id="text_1">
     <!-- $t \gg 0$ -->
     <defs>
      <path d="
M5.60938 -4.6875
Q5.60938 -3.5625 6.59375 -2.98438
L57.625 25
L6.59375 52.9844
Q5.60938 53.5625 5.60938 54.6875
Q5.60938 55.4688 6.17188 56.0781
Q6.73438 56.6875 7.625 56.6875
Q7.85938 56.6875 8.15625 56.5938
Q8.45312 56.5 8.6875 56.3906
L62.8906 26.7031
Q63.8125 26.1719 63.8125 25
Q63.8125 23.8281 62.8906 23.2969
L8.6875 -6.39062
Q8.40625 -6.45312 8.125 -6.5625
Q7.85938 -6.6875 7.625 -6.6875
Q6.73438 -6.6875 6.17188 -6.07812
Q5.60938 -5.46875 5.60938 -4.6875
M36.0781 -4.6875
Q36.0781 -3.5625 37.1094 -2.98438
L88.0938 25
L37.1094 52.9844
Q36.0781 53.5625 36.0781 54.6875
Q36.0781 55.4688 36.6875 56.0781
Q37.3125 56.6875 38.0938 56.6875
Q38.3281 56.6875 38.625 56.5938
Q38.9219 56.5 39.2031 56.3906
L93.4062 26.7031
Q94.2812 26.1719 94.2812 25
Q94.2812 23.8281 93.4062 23.2969
L39.2031 -6.39062
Q38.8125 -6.5 38.5625 -6.59375
Q38.3281 -6.6875 38.0938 -6.6875
Q37.3125 -6.6875 36.6875 -6.07812
Q36.0781 -5.46875 36.0781 -4.6875" id="Cmsy10-c0"/>
      <path d="
M25 -2.20312
Q12.75 -2.20312 8.32812 7.875
Q3.90625 17.9688 3.90625 31.8906
Q3.90625 40.5781 5.48438 48.2344
Q7.07812 55.9062 11.7812 61.25
Q16.5 66.6094 25 66.6094
Q31.5938 66.6094 35.7812 63.375
Q39.9844 60.1562 42.1875 55.0469
Q44.3906 49.9531 45.1875 44.1094
Q46 38.2812 46 31.8906
Q46 23.2969 44.4062 15.7969
Q42.8281 8.29688 38.1875 3.04688
Q33.5469 -2.20312 25 -2.20312
M25 0.390625
Q30.5625 0.390625 33.2969 6.09375
Q36.0312 11.8125 36.6719 18.75
Q37.3125 25.6875 37.3125 33.5
Q37.3125 41.0156 36.6719 47.3594
Q36.0312 53.7188 33.3125 58.8594
Q30.6094 64.0156 25 64.0156
Q19.3438 64.0156 16.6094 58.8281
Q13.875 53.6562 13.2344 47.3281
Q12.5938 41.0156 12.5938 33.5
Q12.5938 27.9375 12.8594 23
Q13.1406 18.0625 14.3125 12.8125
Q15.4844 7.5625 18.0938 3.96875
Q20.7031 0.390625 25 0.390625" id="Cmr10-30"/>
      <path d="
M6.20312 8.10938
Q6.20312 9.57812 6.5 10.8906
L13.7188 39.5938
L3.21875 39.5938
Q2.20312 39.5938 2.20312 40.9219
Q2.59375 43.1094 3.51562 43.1094
L14.5938 43.1094
L18.6094 59.4219
Q19 60.75 20.1719 61.6719
Q21.3438 62.5938 22.7969 62.5938
Q24.0781 62.5938 24.9219 61.8281
Q25.7812 61.0781 25.7812 59.8125
Q25.7812 59.5156 25.75 59.3438
Q25.7344 59.1875 25.6875 58.9844
L21.6875 43.1094
L31.9844 43.1094
Q33.0156 43.1094 33.0156 41.7969
Q32.9531 41.5469 32.8125 40.9531
Q32.6719 40.375 32.4219 39.9844
Q32.1719 39.5938 31.6875 39.5938
L20.7969 39.5938
L13.625 10.6875
Q12.8906 7.85938 12.8906 5.8125
Q12.8906 1.51562 15.8281 1.51562
Q20.2188 1.51562 23.6094 5.64062
Q27 9.76562 28.8125 14.7031
Q29.2031 15.2812 29.5938 15.2812
L30.8125 15.2812
Q31.2031 15.2812 31.4375 15.0156
Q31.6875 14.75 31.6875 14.4062
Q31.6875 14.2031 31.5938 14.1094
Q29.3906 8.0625 25.1875 3.46875
Q21 -1.125 15.5781 -1.125
Q11.625 -1.125 8.90625 1.45312
Q6.20312 4.04688 6.20312 8.10938" id="Cmmi10-74"/>
     </defs>
     <g transform="translate(138.48 27.118125)scale(0.12 -0.12)">
      <use transform="translate(0.0 0.390625)" xlink:href="#Cmmi10-74"/>
      <use transform="translate(53.642578125 0.390625)" xlink:href="#Cmsy10-c0"/>
      <use transform="translate(160.123046875 0.390625)" xlink:href="#Cmr10-30"/>
     </g>
    </g>
   </g>
  </g>
 </g>
 <defs>
  <clipPath id="p4f1cd30cb5">
   <rect height="115.2" width="167.4" x="7.2" y="7.2"/>
  </clipPath>
 </defs>
</svg>
