<?xml version="1.0" encoding="utf-8" standalone="no"?>
<!DOCTYPE svg PUBLIC "-//W3C//DTD SVG 1.1//EN"
  "http://www.w3.org/Graphics/SVG/1.1/DTD/svg11.dtd">
<!-- Created with matplotlib (http://matplotlib.org/) -->
<svg height="129pt" version="1.1" viewBox="0 0 181 129" width="181pt" xmlns="http://www.w3.org/2000/svg" xmlns:xlink="http://www.w3.org/1999/xlink">
 <defs>
  <style type="text/css">
*{stroke-linecap:butt;stroke-linejoin:round;}
  </style>
 </defs>
 <g id="figure_1">
  <g id="patch_1">
   <path d="
M0 129.6
L181.8 129.6
L181.8 0
L0 0
z
" style="fill:#ffffff;"/>
  </g>
  <g id="axes_1">
   <g id="line2d_1">
    <path clip-path="url(#p4f1cd30cb5)" d="
M7.2 122.4
L50.4135 122.289
L54.609 122.051
L57.5459 121.675
L60.0632 121.11
L62.1609 120.385
L63.8391 119.585
L65.5173 118.547
L67.1955 117.23
L68.8737 115.601
L70.5519 113.637
L72.2301 111.331
L74.3278 107.989
L76.4256 104.218
L82.2992 92.9091
L82.7188 53.7587
L84.397 50.9789
L86.0752 48.661
L87.3338 47.3037
L88.5925 46.3228
L89.4316 45.8943
L90.2707 45.6542
L91.1098 45.606
L91.9489 45.7505
L92.788 46.0853
L93.6271 46.6057
L94.8857 47.7163
L96.1444 49.1898
L97.403 50.9789
L99.0812 53.7587
L99.5008 92.9091
L102.018 97.6964
L106.633 106.525
L108.731 110.052
L110.409 112.526
L112.087 114.662
L113.765 116.456
L115.444 117.925
L117.122 119.098
L118.8 120.012
L120.478 120.708
L122.576 121.33
L125.093 121.808
L128.03 122.12
L132.226 122.313
L139.777 122.392
L174.6 122.4
L174.6 122.4" style="fill:none;stroke:#377eb8;stroke-linecap:square;stroke-width:2.0;"/>
   </g>
   <g id="line2d_2">
    <path clip-path="url(#p4f1cd30cb5)" d="
M7.2 122.4
L35.3098 122.291
L41.603 122.045
L45.7985 121.68
L49.1549 121.188
L52.0917 120.552
L54.609 119.81
L57.1263 118.853
L59.6436 117.649
L62.1609 116.18
L64.6782 114.438
L67.1955 112.437
L70.1323 109.822
L74.7474 105.353
L78.9429 101.361
L81.4602 99.2386
L82.2992 98.6045
L82.7188 59.9037
L84.8165 58.5822
L86.4947 57.7712
L88.1729 57.205
L89.8511 56.9003
L91.5293 56.8663
L93.2075 57.1038
L94.8857 57.6059
L96.5639 58.3577
L98.2421 59.3371
L99.0812 59.9037
L99.5008 98.6045
L101.598 100.263
L104.535 102.913
L115.024 112.787
L117.541 114.747
L120.059 116.444
L122.576 117.868
L125.093 119.028
L127.611 119.948
L130.547 120.757
L133.484 121.332
L136.841 121.771
L141.036 122.094
L146.91 122.299
L156.979 122.389
L174.6 122.4
L174.6 122.4" style="fill:none;stroke:#785eaa;stroke-linecap:square;stroke-width:2.0;"/>
   </g>
   <g id="line2d_3">
    <path clip-path="url(#p4f1cd30cb5)" d="
M7.2 122.363
L19.7865 122.189
L27.3383 121.878
L33.212 121.414
L37.8271 120.844
L42.0226 120.121
L46.218 119.166
L49.994 118.085
L53.7699 116.788
L57.9654 115.105
L62.5805 113.012
L77.2647 106.135
L80.6211 104.927
L82.2992 104.426
L82.7188 65.9129
L85.6556 65.2654
L88.1729 64.927
L90.6902 64.8008
L93.2075 64.891
L95.7248 65.1946
L98.2421 65.7015
L99.0812 65.9129
L99.5008 104.426
L102.438 105.35
L105.794 106.647
L109.989 108.529
L125.932 115.976
L130.128 117.535
L133.904 118.712
L137.68 119.675
L141.875 120.51
L146.49 121.181
L151.525 121.677
L157.398 122.028
L165.37 122.264
L174.6 122.363
L174.6 122.363" style="fill:none;stroke:#b13d76;stroke-linecap:square;stroke-width:2.0;"/>
   </g>
   <g id="line2d_4">
    <path clip-path="url(#p4f1cd30cb5)" d="
M7.2 121.803
L15.591 121.318
L22.7233 120.693
L29.4361 119.883
L35.7293 118.908
L42.4421 117.637
L49.994 115.964
L73.4887 110.541
L78.5233 109.72
L82.2992 109.264
L82.7188 70.8229
L87.3338 70.5003
L91.5293 70.4259
L95.7248 70.5638
L99.0812 70.8229
L99.5008 109.264
L104.116 109.841
L109.15 110.698
L115.024 111.928
L123.835 114.031
L136.421 117.013
L143.553 118.458
L150.266 119.581
L156.979 120.464
L163.692 121.123
L171.244 121.637
L174.6 121.803
L174.6 121.803" style="fill:none;stroke:#e41a1c;stroke-linecap:square;stroke-width:2.0;"/>
   </g>
   <g id="legend_1">
    <g id="line2d_5">
     <path d="
M111.24 22.9181
L128.04 22.9181" style="fill:none;stroke:#377eb8;stroke-linecap:square;stroke-width:2.0;"/>
    </g>
    <g id="line2d_6"/>
    <g id="text_1">
     <!-- $t=1$ -->
     <defs>
      <path d="
M9.28125 0
L9.28125 3.51562
Q21.7812 3.51562 21.7812 6.6875
L21.7812 59.1875
Q16.6094 56.6875 8.6875 56.6875
L8.6875 60.2031
Q20.9531 60.2031 27.2031 66.6094
L28.6094 66.6094
Q28.9531 66.6094 29.2656 66.3281
Q29.5938 66.0625 29.5938 65.7188
L29.5938 6.6875
Q29.5938 3.51562 42.0938 3.51562
L42.0938 0
z
" id="Cmr10-31"/>
      <path d="
M6.20312 8.10938
Q6.20312 9.57812 6.5 10.8906
L13.7188 39.5938
L3.21875 39.5938
Q2.20312 39.5938 2.20312 40.9219
Q2.59375 43.1094 3.51562 43.1094
L14.5938 43.1094
L18.6094 59.4219
Q19 60.75 20.1719 61.6719
Q21.3438 62.5938 22.7969 62.5938
Q24.0781 62.5938 24.9219 61.8281
Q25.7812 61.0781 25.7812 59.8125
Q25.7812 59.5156 25.75 59.3438
Q25.7344 59.1875 25.6875 58.9844
L21.6875 43.1094
L31.9844 43.1094
Q33.0156 43.1094 33.0156 41.7969
Q32.9531 41.5469 32.8125 40.9531
Q32.6719 40.375 32.4219 39.9844
Q32.1719 39.5938 31.6875 39.5938
L20.7969 39.5938
L13.625 10.6875
Q12.8906 7.85938 12.8906 5.8125
Q12.8906 1.51562 15.8281 1.51562
Q20.2188 1.51562 23.6094 5.64062
Q27 9.76562 28.8125 14.7031
Q29.2031 15.2812 29.5938 15.2812
L30.8125 15.2812
Q31.2031 15.2812 31.4375 15.0156
Q31.6875 14.75 31.6875 14.4062
Q31.6875 14.2031 31.5938 14.1094
Q29.3906 8.0625 25.1875 3.46875
Q21 -1.125 15.5781 -1.125
Q11.625 -1.125 8.90625 1.45312
Q6.20312 4.04688 6.20312 8.10938" id="Cmmi10-74"/>
      <path d="
M7.51562 13.2812
Q6.6875 13.2812 6.14062 13.9062
Q5.60938 14.5469 5.60938 15.2812
Q5.60938 16.1094 6.14062 16.6875
Q6.6875 17.2812 7.51562 17.2812
L70.3125 17.2812
Q71.0469 17.2812 71.5781 16.6875
Q72.125 16.1094 72.125 15.2812
Q72.125 14.5469 71.5781 13.9062
Q71.0469 13.2812 70.3125 13.2812
z

M7.51562 32.7188
Q6.6875 32.7188 6.14062 33.2969
Q5.60938 33.8906 5.60938 34.7188
Q5.60938 35.4531 6.14062 36.0781
Q6.6875 36.7188 7.51562 36.7188
L70.3125 36.7188
Q71.0469 36.7188 71.5781 36.0781
Q72.125 35.4531 72.125 34.7188
Q72.125 33.8906 71.5781 33.2969
Q71.0469 32.7188 70.3125 32.7188
z
" id="Cmr10-3d"/>
     </defs>
     <g transform="translate(141.24 27.118125)scale(0.12 -0.12)">
      <use transform="translate(0.0 0.390625)" xlink:href="#Cmmi10-74"/>
      <use transform="translate(53.642578125 0.390625)" xlink:href="#Cmr10-3d"/>
      <use transform="translate(137.951171875 0.390625)" xlink:href="#Cmr10-31"/>
     </g>
    </g>
    <g id="line2d_7">
     <path d="
M111.24 40.5319
L128.04 40.5319" style="fill:none;stroke:#785eaa;stroke-linecap:square;stroke-width:2.0;"/>
    </g>
    <g id="line2d_8"/>
    <g id="text_2">
     <!-- $t=2$ -->
     <defs>
      <path d="
M4.98438 0
L4.98438 2.6875
Q4.98438 2.9375 5.17188 3.21875
L20.7031 20.4062
Q24.2188 24.2188 26.4062 26.7969
Q28.6094 29.3906 30.75 32.7656
Q32.9062 36.1406 34.1562 39.625
Q35.4062 43.1094 35.4062 47.0156
Q35.4062 51.125 33.8906 54.8594
Q32.375 58.5938 29.375 60.8438
Q26.375 63.0938 22.125 63.0938
Q17.7812 63.0938 14.3125 60.4688
Q10.8438 57.8594 9.42188 53.7188
Q9.8125 53.8125 10.5 53.8125
Q12.75 53.8125 14.3281 52.2969
Q15.9219 50.7812 15.9219 48.3906
Q15.9219 46.0938 14.3281 44.5
Q12.75 42.9219 10.5 42.9219
Q8.15625 42.9219 6.5625 44.5469
Q4.98438 46.1875 4.98438 48.3906
Q4.98438 52.1562 6.39062 55.4375
Q7.8125 58.7344 10.4688 61.2969
Q13.1406 63.875 16.4844 65.2344
Q19.8281 66.6094 23.5781 66.6094
Q29.2969 66.6094 34.2188 64.1875
Q39.1562 61.7656 42.0312 57.3438
Q44.9219 52.9375 44.9219 47.0156
Q44.9219 42.6719 43.0156 38.7656
Q41.1094 34.8594 38.125 31.6562
Q35.1562 28.4688 30.5156 24.4062
Q25.875 20.3594 24.4219 19
L13.0938 8.10938
L22.7031 8.10938
Q29.7812 8.10938 34.5469 8.21875
Q39.3125 8.34375 39.5938 8.59375
Q40.7656 9.85938 42 17.8281
L44.9219 17.8281
L42.0938 0
z
" id="Cmr10-32"/>
     </defs>
     <g transform="translate(141.24 44.731875)scale(0.12 -0.12)">
      <use transform="translate(0.0 0.390625)" xlink:href="#Cmmi10-74"/>
      <use transform="translate(53.642578125 0.390625)" xlink:href="#Cmr10-3d"/>
      <use transform="translate(137.951171875 0.390625)" xlink:href="#Cmr10-32"/>
     </g>
    </g>
    <g id="line2d_9">
     <path d="
M111.24 58.1456
L128.04 58.1456" style="fill:none;stroke:#b13d76;stroke-linecap:square;stroke-width:2.0;"/>
    </g>
    <g id="line2d_10"/>
    <g id="text_3">
     <!-- $t=4$ -->
     <defs>
      <path d="
M2.78125 16.5
L2.78125 20.0156
L33.6875 66.1094
Q34.0312 66.6094 34.7188 66.6094
L36.1875 66.6094
Q37.3125 66.6094 37.3125 65.4844
L37.3125 20.0156
L47.125 20.0156
L47.125 16.5
L37.3125 16.5
L37.3125 6.6875
Q37.3125 4.64062 40.2344 4.07812
Q43.1719 3.51562 47.0156 3.51562
L47.0156 0
L19.4844 0
L19.4844 3.51562
Q23.3438 3.51562 26.2656 4.07812
Q29.2031 4.64062 29.2031 6.6875
L29.2031 16.5
z

M6.10938 20.0156
L29.7812 20.0156
L29.7812 55.4219
z
" id="Cmr10-34"/>
     </defs>
     <g transform="translate(141.24 62.345625)scale(0.12 -0.12)">
      <use transform="translate(0.0 0.390625)" xlink:href="#Cmmi10-74"/>
      <use transform="translate(53.642578125 0.390625)" xlink:href="#Cmr10-3d"/>
      <use transform="translate(137.951171875 0.390625)" xlink:href="#Cmr10-34"/>
     </g>
    </g>
    <g id="line2d_11">
     <path d="
M111.24 75.7594
L128.04 75.7594" style="fill:none;stroke:#e41a1c;stroke-linecap:square;stroke-width:2.0;"/>
    </g>
    <g id="line2d_12"/>
    <g id="text_4">
     <!-- $t=8$ -->
     <defs>
      <path d="
M4.20312 15.1875
Q4.20312 21.1875 8.15625 25.7969
Q12.1094 30.4219 18.3125 33.5
L14.5938 35.8906
Q11.1875 38.1406 9.03125 41.875
Q6.89062 45.6094 6.89062 49.7031
Q6.89062 54.5 9.40625 58.3438
Q11.9219 62.2031 16.0938 64.4062
Q20.2656 66.6094 25 66.6094
Q29.4375 66.6094 33.5625 64.7969
Q37.7031 62.9844 40.3594 59.6094
Q43.0156 56.25 43.0156 51.6094
Q43.0156 48.25 41.4219 45.3594
Q39.8438 42.4844 37.0781 40.1875
Q34.3281 37.8906 31.2031 36.2812
L36.9219 32.625
Q40.875 30.0312 43.2812 25.8281
Q45.7031 21.625 45.7031 17
Q45.7031 11.5781 42.7969 7.125
Q39.8906 2.6875 35.1094 0.234375
Q30.3281 -2.20312 25 -2.20312
Q19.8281 -2.20312 15.0156 -0.09375
Q10.2031 2 7.20312 5.98438
Q4.20312 9.96875 4.20312 15.1875
M9.625 15.1875
Q9.625 11.2344 11.7969 7.95312
Q13.9688 4.6875 17.5312 2.82812
Q21.0938 0.984375 25 0.984375
Q30.8125 0.984375 35.5469 4.375
Q40.2812 7.76562 40.2812 13.375
Q40.2812 15.2812 39.5156 17.1562
Q38.7656 19.0469 37.4219 20.5781
Q36.0781 22.125 34.4219 23.0938
L21 31.7812
Q17.875 30.125 15.25 27.5781
Q12.6406 25.0469 11.125 21.875
Q9.625 18.7031 9.625 15.1875
M16.5 45.7031
L28.6094 37.8906
Q32.8125 40.3281 35.5 43.7969
Q38.1875 47.2656 38.1875 51.6094
Q38.1875 54.9844 36.2969 57.7812
Q34.4219 60.5938 31.3906 62.1562
Q28.375 63.7188 24.9062 63.7188
Q21.875 63.7188 18.7969 62.5469
Q15.7188 61.375 13.7188 59.0469
Q11.7188 56.7344 11.7188 53.6094
Q11.7188 48.9219 16.5 45.7031" id="Cmr10-38"/>
     </defs>
     <g transform="translate(141.24 79.959375)scale(0.12 -0.12)">
      <use transform="translate(0.0 0.390625)" xlink:href="#Cmmi10-74"/>
      <use transform="translate(53.642578125 0.390625)" xlink:href="#Cmr10-3d"/>
      <use transform="translate(137.951171875 0.390625)" xlink:href="#Cmr10-38"/>
     </g>
    </g>
   </g>
  </g>
 </g>
 <defs>
  <clipPath id="p4f1cd30cb5">
   <rect height="115.2" width="167.4" x="7.2" y="7.2"/>
  </clipPath>
 </defs>
</svg>
