<?xml version="1.0" encoding="utf-8" standalone="no"?>
<!DOCTYPE svg PUBLIC "-//W3C//DTD SVG 1.1//EN"
  "http://www.w3.org/Graphics/SVG/1.1/DTD/svg11.dtd">
<!-- Created with matplotlib (http://matplotlib.org/) -->
<svg height="129pt" version="1.1" viewBox="0 0 181 129" width="181pt" xmlns="http://www.w3.org/2000/svg" xmlns:xlink="http://www.w3.org/1999/xlink">
 <defs>
  <style type="text/css">
*{stroke-linecap:butt;stroke-linejoin:round;}
  </style>
 </defs>
 <g id="figure_1">
  <g id="patch_1">
   <path d="
M0 129.6
L181.8 129.6
L181.8 0
L0 0
z
" style="fill:#ffffff;"/>
  </g>
  <g id="axes_1">
   <g id="line2d_1">
    <path clip-path="url(#p4f1cd30cb5)" d="
M7.2 122.4
L55.0286 122.289
L58.385 122.04
L60.4827 121.691
L62.1609 121.219
L63.8391 120.49
L65.0977 119.711
L66.3564 118.676
L67.615 117.326
L68.8737 115.599
L70.1323 113.43
L71.391 110.76
L72.6496 107.541
L73.9083 103.737
L75.1669 99.3372
L76.8451 92.5823
L78.9429 82.9315
L85.2361 52.6199
L86.4947 47.9242
L87.7534 44.1962
L88.5925 42.3352
L89.4316 41.021
L90.2707 40.2816
L90.6902 40.1329
L91.1098 40.1329
L91.5293 40.2816
L91.9489 40.5782
L92.788 41.6078
L93.6271 43.1996
L94.4662 45.3198
L95.7248 49.3916
L96.9835 54.365
L98.6617 62.0219
L105.374 94.361
L107.053 100.869
L108.731 106.339
L109.989 109.75
L111.248 112.598
L112.507 114.928
L113.765 116.796
L115.024 118.264
L116.283 119.398
L117.541 120.255
L118.8 120.893
L120.478 121.482
L122.576 121.926
L125.093 122.198
L128.869 122.35
L137.68 122.399
L174.6 122.4
L174.6 122.4" style="fill:none;stroke:#377eb8;stroke-linecap:square;stroke-width:2.0;"/>
   </g>
   <g id="line2d_2">
    <path clip-path="url(#p4f1cd30cb5)" d="
M7.2 122.4
L41.1835 122.298
L46.218 122.056
L49.5744 121.677
L52.0917 121.186
L54.1895 120.576
L56.2872 119.721
L57.9654 118.815
L59.6436 117.672
L61.3218 116.254
L63 114.526
L64.6782 112.456
L66.3564 110.022
L68.0346 107.215
L70.1323 103.189
L72.2301 98.6392
L74.7474 92.6371
L81.8797 75.1918
L83.5579 71.7409
L85.2361 68.8187
L86.4947 67.0453
L87.7534 65.6767
L88.5925 65.0058
L89.4316 64.5367
L90.2707 64.2744
L91.1098 64.2218
L91.9489 64.3794
L92.788 64.7457
L93.6271 65.3164
L94.8857 66.5423
L96.1444 68.185
L97.403 70.2059
L99.0812 73.4082
L101.179 78.0481
L104.116 85.2535
L109.15 97.6744
L111.668 103.189
L113.765 107.215
L115.444 110.022
L117.122 112.456
L118.8 114.526
L120.478 116.254
L122.156 117.672
L123.835 118.815
L125.513 119.721
L127.611 120.576
L129.708 121.186
L132.226 121.677
L135.162 122.021
L139.358 122.26
L146.071 122.377
L167.468 122.4
L174.6 122.4
L174.6 122.4" style="fill:none;stroke:#785eaa;stroke-linecap:square;stroke-width:2.0;"/>
   </g>
   <g id="line2d_3">
    <path clip-path="url(#p4f1cd30cb5)" d="
M7.2 122.395
L23.982 122.269
L30.6947 122.009
L35.3098 121.623
L39.0857 121.093
L42.4421 120.385
L45.3789 119.528
L47.8962 118.576
L50.4135 117.391
L52.9308 115.944
L55.4481 114.214
L57.9654 112.188
L60.4827 109.866
L63.4195 106.806
L66.7759 102.92
L71.391 97.1683
L76.4256 90.9657
L79.3624 87.7243
L81.4602 85.7075
L83.5579 84.01
L85.2361 82.9183
L86.9143 82.0883
L88.5925 81.5376
L90.2707 81.2781
L91.5293 81.2781
L93.2075 81.5376
L94.8857 82.0883
L96.5639 82.9183
L98.2421 84.01
L99.9203 85.3406
L102.018 87.2982
L104.535 89.9986
L107.892 94.007
L117.541 105.869
L120.478 109.028
L122.995 111.446
L125.513 113.572
L128.03 115.4
L130.547 116.939
L133.065 118.208
L135.582 119.235
L138.519 120.166
L141.456 120.857
L144.812 121.417
L149.008 121.862
L154.042 122.155
L161.174 122.328
L174.6 122.395
L174.6 122.395" style="fill:none;stroke:#b13d76;stroke-linecap:square;stroke-width:2.0;"/>
   </g>
   <g id="line2d_4">
    <path clip-path="url(#p4f1cd30cb5)" d="
M7.2 122.077
L14.7519 121.698
L20.6256 121.181
L25.6602 120.51
L29.8556 119.744
L34.0511 118.751
L37.8271 117.636
L41.603 116.293
L45.3789 114.714
L49.1549 112.902
L53.3504 110.639
L58.385 107.648
L73.0692 98.6815
L76.4256 96.9707
L79.3624 95.6918
L82.2992 94.6576
L84.8165 93.991
L87.3338 93.5443
L89.8511 93.3282
L92.3684 93.3479
L94.8857 93.603
L97.403 94.0872
L99.9203 94.789
L102.857 95.8603
L105.794 97.1712
L109.15 98.911
L113.346 101.351
L120.898 106.079
L127.191 109.915
L131.806 112.469
L136.002 114.524
L139.777 116.129
L143.553 117.498
L147.329 118.637
L151.525 119.655
L155.72 120.443
L160.335 121.085
L165.789 121.607
L172.083 121.978
L174.6 122.077
L174.6 122.077" style="fill:none;stroke:#e41a1c;stroke-linecap:square;stroke-width:2.0;"/>
   </g>
   <g id="legend_1">
    <g id="line2d_5">
     <path d="
M111.24 22.9181
L128.04 22.9181" style="fill:none;stroke:#377eb8;stroke-linecap:square;stroke-width:2.0;"/>
    </g>
    <g id="line2d_6"/>
    <g id="text_1">
     <!-- $t=1$ -->
     <defs>
      <path d="
M9.28125 0
L9.28125 3.51562
Q21.7812 3.51562 21.7812 6.6875
L21.7812 59.1875
Q16.6094 56.6875 8.6875 56.6875
L8.6875 60.2031
Q20.9531 60.2031 27.2031 66.6094
L28.6094 66.6094
Q28.9531 66.6094 29.2656 66.3281
Q29.5938 66.0625 29.5938 65.7188
L29.5938 6.6875
Q29.5938 3.51562 42.0938 3.51562
L42.0938 0
z
" id="Cmr10-31"/>
      <path d="
M6.20312 8.10938
Q6.20312 9.57812 6.5 10.8906
L13.7188 39.5938
L3.21875 39.5938
Q2.20312 39.5938 2.20312 40.9219
Q2.59375 43.1094 3.51562 43.1094
L14.5938 43.1094
L18.6094 59.4219
Q19 60.75 20.1719 61.6719
Q21.3438 62.5938 22.7969 62.5938
Q24.0781 62.5938 24.9219 61.8281
Q25.7812 61.0781 25.7812 59.8125
Q25.7812 59.5156 25.75 59.3438
Q25.7344 59.1875 25.6875 58.9844
L21.6875 43.1094
L31.9844 43.1094
Q33.0156 43.1094 33.0156 41.7969
Q32.9531 41.5469 32.8125 40.9531
Q32.6719 40.375 32.4219 39.9844
Q32.1719 39.5938 31.6875 39.5938
L20.7969 39.5938
L13.625 10.6875
Q12.8906 7.85938 12.8906 5.8125
Q12.8906 1.51562 15.8281 1.51562
Q20.2188 1.51562 23.6094 5.64062
Q27 9.76562 28.8125 14.7031
Q29.2031 15.2812 29.5938 15.2812
L30.8125 15.2812
Q31.2031 15.2812 31.4375 15.0156
Q31.6875 14.75 31.6875 14.4062
Q31.6875 14.2031 31.5938 14.1094
Q29.3906 8.0625 25.1875 3.46875
Q21 -1.125 15.5781 -1.125
Q11.625 -1.125 8.90625 1.45312
Q6.20312 4.04688 6.20312 8.10938" id="Cmmi10-74"/>
      <path d="
M7.51562 13.2812
Q6.6875 13.2812 6.14062 13.9062
Q5.60938 14.5469 5.60938 15.2812
Q5.60938 16.1094 6.14062 16.6875
Q6.6875 17.2812 7.51562 17.2812
L70.3125 17.2812
Q71.0469 17.2812 71.5781 16.6875
Q72.125 16.1094 72.125 15.2812
Q72.125 14.5469 71.5781 13.9062
Q71.0469 13.2812 70.3125 13.2812
z

M7.51562 32.7188
Q6.6875 32.7188 6.14062 33.2969
Q5.60938 33.8906 5.60938 34.7188
Q5.60938 35.4531 6.14062 36.0781
Q6.6875 36.7188 7.51562 36.7188
L70.3125 36.7188
Q71.0469 36.7188 71.5781 36.0781
Q72.125 35.4531 72.125 34.7188
Q72.125 33.8906 71.5781 33.2969
Q71.0469 32.7188 70.3125 32.7188
z
" id="Cmr10-3d"/>
     </defs>
     <g transform="translate(141.24 27.118125)scale(0.12 -0.12)">
      <use transform="translate(0.0 0.390625)" xlink:href="#Cmmi10-74"/>
      <use transform="translate(53.642578125 0.390625)" xlink:href="#Cmr10-3d"/>
      <use transform="translate(137.951171875 0.390625)" xlink:href="#Cmr10-31"/>
     </g>
    </g>
    <g id="line2d_7">
     <path d="
M111.24 40.5319
L128.04 40.5319" style="fill:none;stroke:#785eaa;stroke-linecap:square;stroke-width:2.0;"/>
    </g>
    <g id="line2d_8"/>
    <g id="text_2">
     <!-- $t=2$ -->
     <defs>
      <path d="
M4.98438 0
L4.98438 2.6875
Q4.98438 2.9375 5.17188 3.21875
L20.7031 20.4062
Q24.2188 24.2188 26.4062 26.7969
Q28.6094 29.3906 30.75 32.7656
Q32.9062 36.1406 34.1562 39.625
Q35.4062 43.1094 35.4062 47.0156
Q35.4062 51.125 33.8906 54.8594
Q32.375 58.5938 29.375 60.8438
Q26.375 63.0938 22.125 63.0938
Q17.7812 63.0938 14.3125 60.4688
Q10.8438 57.8594 9.42188 53.7188
Q9.8125 53.8125 10.5 53.8125
Q12.75 53.8125 14.3281 52.2969
Q15.9219 50.7812 15.9219 48.3906
Q15.9219 46.0938 14.3281 44.5
Q12.75 42.9219 10.5 42.9219
Q8.15625 42.9219 6.5625 44.5469
Q4.98438 46.1875 4.98438 48.3906
Q4.98438 52.1562 6.39062 55.4375
Q7.8125 58.7344 10.4688 61.2969
Q13.1406 63.875 16.4844 65.2344
Q19.8281 66.6094 23.5781 66.6094
Q29.2969 66.6094 34.2188 64.1875
Q39.1562 61.7656 42.0312 57.3438
Q44.9219 52.9375 44.9219 47.0156
Q44.9219 42.6719 43.0156 38.7656
Q41.1094 34.8594 38.125 31.6562
Q35.1562 28.4688 30.5156 24.4062
Q25.875 20.3594 24.4219 19
L13.0938 8.10938
L22.7031 8.10938
Q29.7812 8.10938 34.5469 8.21875
Q39.3125 8.34375 39.5938 8.59375
Q40.7656 9.85938 42 17.8281
L44.9219 17.8281
L42.0938 0
z
" id="Cmr10-32"/>
     </defs>
     <g transform="translate(141.24 44.731875)scale(0.12 -0.12)">
      <use transform="translate(0.0 0.390625)" xlink:href="#Cmmi10-74"/>
      <use transform="translate(53.642578125 0.390625)" xlink:href="#Cmr10-3d"/>
      <use transform="translate(137.951171875 0.390625)" xlink:href="#Cmr10-32"/>
     </g>
    </g>
    <g id="line2d_9">
     <path d="
M111.24 58.1456
L128.04 58.1456" style="fill:none;stroke:#b13d76;stroke-linecap:square;stroke-width:2.0;"/>
    </g>
    <g id="line2d_10"/>
    <g id="text_3">
     <!-- $t=4$ -->
     <defs>
      <path d="
M2.78125 16.5
L2.78125 20.0156
L33.6875 66.1094
Q34.0312 66.6094 34.7188 66.6094
L36.1875 66.6094
Q37.3125 66.6094 37.3125 65.4844
L37.3125 20.0156
L47.125 20.0156
L47.125 16.5
L37.3125 16.5
L37.3125 6.6875
Q37.3125 4.64062 40.2344 4.07812
Q43.1719 3.51562 47.0156 3.51562
L47.0156 0
L19.4844 0
L19.4844 3.51562
Q23.3438 3.51562 26.2656 4.07812
Q29.2031 4.64062 29.2031 6.6875
L29.2031 16.5
z

M6.10938 20.0156
L29.7812 20.0156
L29.7812 55.4219
z
" id="Cmr10-34"/>
     </defs>
     <g transform="translate(141.24 62.345625)scale(0.12 -0.12)">
      <use transform="translate(0.0 0.390625)" xlink:href="#Cmmi10-74"/>
      <use transform="translate(53.642578125 0.390625)" xlink:href="#Cmr10-3d"/>
      <use transform="translate(137.951171875 0.390625)" xlink:href="#Cmr10-34"/>
     </g>
    </g>
    <g id="line2d_11">
     <path d="
M111.24 75.7594
L128.04 75.7594" style="fill:none;stroke:#e41a1c;stroke-linecap:square;stroke-width:2.0;"/>
    </g>
    <g id="line2d_12"/>
    <g id="text_4">
     <!-- $t=8$ -->
     <defs>
      <path d="
M4.20312 15.1875
Q4.20312 21.1875 8.15625 25.7969
Q12.1094 30.4219 18.3125 33.5
L14.5938 35.8906
Q11.1875 38.1406 9.03125 41.875
Q6.89062 45.6094 6.89062 49.7031
Q6.89062 54.5 9.40625 58.3438
Q11.9219 62.2031 16.0938 64.4062
Q20.2656 66.6094 25 66.6094
Q29.4375 66.6094 33.5625 64.7969
Q37.7031 62.9844 40.3594 59.6094
Q43.0156 56.25 43.0156 51.6094
Q43.0156 48.25 41.4219 45.3594
Q39.8438 42.4844 37.0781 40.1875
Q34.3281 37.8906 31.2031 36.2812
L36.9219 32.625
Q40.875 30.0312 43.2812 25.8281
Q45.7031 21.625 45.7031 17
Q45.7031 11.5781 42.7969 7.125
Q39.8906 2.6875 35.1094 0.234375
Q30.3281 -2.20312 25 -2.20312
Q19.8281 -2.20312 15.0156 -0.09375
Q10.2031 2 7.20312 5.98438
Q4.20312 9.96875 4.20312 15.1875
M9.625 15.1875
Q9.625 11.2344 11.7969 7.95312
Q13.9688 4.6875 17.5312 2.82812
Q21.0938 0.984375 25 0.984375
Q30.8125 0.984375 35.5469 4.375
Q40.2812 7.76562 40.2812 13.375
Q40.2812 15.2812 39.5156 17.1562
Q38.7656 19.0469 37.4219 20.5781
Q36.0781 22.125 34.4219 23.0938
L21 31.7812
Q17.875 30.125 15.25 27.5781
Q12.6406 25.0469 11.125 21.875
Q9.625 18.7031 9.625 15.1875
M16.5 45.7031
L28.6094 37.8906
Q32.8125 40.3281 35.5 43.7969
Q38.1875 47.2656 38.1875 51.6094
Q38.1875 54.9844 36.2969 57.7812
Q34.4219 60.5938 31.3906 62.1562
Q28.375 63.7188 24.9062 63.7188
Q21.875 63.7188 18.7969 62.5469
Q15.7188 61.375 13.7188 59.0469
Q11.7188 56.7344 11.7188 53.6094
Q11.7188 48.9219 16.5 45.7031" id="Cmr10-38"/>
     </defs>
     <g transform="translate(141.24 79.959375)scale(0.12 -0.12)">
      <use transform="translate(0.0 0.390625)" xlink:href="#Cmmi10-74"/>
      <use transform="translate(53.642578125 0.390625)" xlink:href="#Cmr10-3d"/>
      <use transform="translate(137.951171875 0.390625)" xlink:href="#Cmr10-38"/>
     </g>
    </g>
   </g>
  </g>
 </g>
 <defs>
  <clipPath id="p4f1cd30cb5">
   <rect height="115.2" width="167.4" x="7.2" y="7.2"/>
  </clipPath>
 </defs>
</svg>
