<?xml version="1.0" encoding="utf-8" standalone="no"?>
<!DOCTYPE svg PUBLIC "-//W3C//DTD SVG 1.1//EN"
  "http://www.w3.org/Graphics/SVG/1.1/DTD/svg11.dtd">
<!-- Created with matplotlib (http://matplotlib.org/) -->
<svg height="157pt" version="1.1" viewBox="0 0 175 157" width="175pt" xmlns="http://www.w3.org/2000/svg" xmlns:xlink="http://www.w3.org/1999/xlink">
 <defs>
  <style type="text/css">
*{stroke-linecap:butt;stroke-linejoin:round;}
  </style>
 </defs>
 <g id="figure_1">
  <g id="patch_1">
   <path d="
M0 157.956
L175.763 157.956
L175.763 0
L0 0
z
" style="fill:#ffffff;"/>
  </g>
  <g id="axes_1">
   <g id="patch_2">
    <path d="
M21.8781 122.4
L161.378 122.4
L161.378 7.2
L21.8781 7.2
z
" style="fill:#ffffff;"/>
   </g>
   <g id="line2d_1">
    <defs>
     <path d="
M0 1.5
C0.397805 1.5 0.77937 1.34195 1.06066 1.06066
C1.34195 0.77937 1.5 0.397805 1.5 0
C1.5 -0.397805 1.34195 -0.77937 1.06066 -1.06066
C0.77937 -1.34195 0.397805 -1.5 0 -1.5
C-0.397805 -1.5 -0.77937 -1.34195 -1.06066 -1.06066
C-1.34195 -0.77937 -1.5 -0.397805 -1.5 0
C-1.5 0.397805 -1.34195 0.77937 -1.06066 1.06066
C-0.77937 1.34195 -0.397805 1.5 0 1.5
z
" id="m8185dd89ac" style="stroke:#000000;stroke-width:0.5;"/>
    </defs>
    <g clip-path="url(#p4881865bdf)">
     <use style="stroke:#000000;stroke-width:0.5;" x="22.988266" xlink:href="#m8185dd89ac" y="90.01152"/>
     <use style="stroke:#000000;stroke-width:0.5;" x="24.0982675" xlink:href="#m8185dd89ac" y="88.907328"/>
     <use style="stroke:#000000;stroke-width:0.5;" x="24.838315" xlink:href="#m8185dd89ac" y="87.8032512"/>
     <use style="stroke:#000000;stroke-width:0.5;" x="25.948456" xlink:href="#m8185dd89ac" y="86.6990592"/>
     <use style="stroke:#000000;stroke-width:0.5;" x="27.0584575" xlink:href="#m8185dd89ac" y="85.5948672"/>
     <use style="stroke:#000000;stroke-width:0.5;" x="27.798505" xlink:href="#m8185dd89ac" y="84.4907904"/>
     <use style="stroke:#000000;stroke-width:0.5;" x="28.908646" xlink:href="#m8185dd89ac" y="83.3865984"/>
     <use style="stroke:#000000;stroke-width:0.5;" x="29.6486935" xlink:href="#m8185dd89ac" y="82.2824064"/>
     <use style="stroke:#000000;stroke-width:0.5;" x="30.388741" xlink:href="#m8185dd89ac" y="80.8102656"/>
     <use style="stroke:#000000;stroke-width:0.5;" x="31.1287885" xlink:href="#m8185dd89ac" y="79.7060736"/>
     <use style="stroke:#000000;stroke-width:0.5;" x="31.868836" xlink:href="#m8185dd89ac" y="78.6018816"/>
     <use style="stroke:#000000;stroke-width:0.5;" x="32.978977" xlink:href="#m8185dd89ac" y="77.1297408"/>
     <use style="stroke:#000000;stroke-width:0.5;" x="33.7190245" xlink:href="#m8185dd89ac" y="76.0255488"/>
     <use style="stroke:#000000;stroke-width:0.5;" x="34.459072" xlink:href="#m8185dd89ac" y="74.553408"/>
     <use style="stroke:#000000;stroke-width:0.5;" x="35.1991195" xlink:href="#m8185dd89ac" y="73.449216"/>
     <use style="stroke:#000000;stroke-width:0.5;" x="35.939167" xlink:href="#m8185dd89ac" y="71.97696"/>
     <use style="stroke:#000000;stroke-width:0.5;" x="36.6792145" xlink:href="#m8185dd89ac" y="70.8728832"/>
     <use style="stroke:#000000;stroke-width:0.5;" x="37.419262" xlink:href="#m8185dd89ac" y="69.7686912"/>
     <use style="stroke:#000000;stroke-width:0.5;" x="38.1593095" xlink:href="#m8185dd89ac" y="68.2964352"/>
     <use style="stroke:#000000;stroke-width:0.5;" x="38.899357" xlink:href="#m8185dd89ac" y="67.1923584"/>
     <use style="stroke:#000000;stroke-width:0.5;" x="39.6394045" xlink:href="#m8185dd89ac" y="65.7201024"/>
     <use style="stroke:#000000;stroke-width:0.5;" x="40.0093585" xlink:href="#m8185dd89ac" y="64.2479616"/>
     <use style="stroke:#000000;stroke-width:0.5;" x="40.7495455" xlink:href="#m8185dd89ac" y="63.1437696"/>
     <use style="stroke:#000000;stroke-width:0.5;" x="41.489593" xlink:href="#m8185dd89ac" y="61.6715136"/>
     <use style="stroke:#000000;stroke-width:0.5;" x="42.2296405" xlink:href="#m8185dd89ac" y="60.5674368"/>
     <use style="stroke:#000000;stroke-width:0.5;" x="42.5995945" xlink:href="#m8185dd89ac" y="59.0951808"/>
     <use style="stroke:#000000;stroke-width:0.5;" x="43.339642" xlink:href="#m8185dd89ac" y="57.62304"/>
     <use style="stroke:#000000;stroke-width:0.5;" x="44.0796895" xlink:href="#m8185dd89ac" y="56.518848"/>
     <use style="stroke:#000000;stroke-width:0.5;" x="44.819737" xlink:href="#m8185dd89ac" y="55.046592"/>
     <use style="stroke:#000000;stroke-width:0.5;" x="45.5597845" xlink:href="#m8185dd89ac" y="53.9425152"/>
     <use style="stroke:#000000;stroke-width:0.5;" x="45.929878" xlink:href="#m8185dd89ac" y="52.4702592"/>
     <use style="stroke:#000000;stroke-width:0.5;" x="46.6699255" xlink:href="#m8185dd89ac" y="51.3661824"/>
     <use style="stroke:#000000;stroke-width:0.5;" x="47.409973" xlink:href="#m8185dd89ac" y="49.8939264"/>
     <use style="stroke:#000000;stroke-width:0.5;" x="48.1500205" xlink:href="#m8185dd89ac" y="48.4216704"/>
     <use style="stroke:#000000;stroke-width:0.5;" x="48.890068" xlink:href="#m8185dd89ac" y="47.3175936"/>
     <use style="stroke:#000000;stroke-width:0.5;" x="49.260022" xlink:href="#m8185dd89ac" y="45.8453376"/>
     <use style="stroke:#000000;stroke-width:0.5;" x="50.000209" xlink:href="#m8185dd89ac" y="44.7412608"/>
     <use style="stroke:#000000;stroke-width:0.5;" x="50.7402565" xlink:href="#m8185dd89ac" y="43.2690048"/>
     <use style="stroke:#000000;stroke-width:0.5;" x="51.480304" xlink:href="#m8185dd89ac" y="42.1648128"/>
     <use style="stroke:#000000;stroke-width:0.5;" x="52.2203515" xlink:href="#m8185dd89ac" y="40.692672"/>
     <use style="stroke:#000000;stroke-width:0.5;" x="52.960399" xlink:href="#m8185dd89ac" y="39.58848"/>
     <use style="stroke:#000000;stroke-width:0.5;" x="53.7004465" xlink:href="#m8185dd89ac" y="38.1163392"/>
     <use style="stroke:#000000;stroke-width:0.5;" x="54.440494" xlink:href="#m8185dd89ac" y="37.0121472"/>
     <use style="stroke:#000000;stroke-width:0.5;" x="55.1805415" xlink:href="#m8185dd89ac" y="35.9079552"/>
     <use style="stroke:#000000;stroke-width:0.5;" x="56.290543" xlink:href="#m8185dd89ac" y="34.8038784"/>
     <use style="stroke:#000000;stroke-width:0.5;" x="57.400684" xlink:href="#m8185dd89ac" y="33.6996864"/>
     <use style="stroke:#000000;stroke-width:0.5;" x="58.1407315" xlink:href="#m8185dd89ac" y="32.2274304"/>
     <use style="stroke:#000000;stroke-width:0.5;" x="59.2508725" xlink:href="#m8185dd89ac" y="31.1233536"/>
     <use style="stroke:#000000;stroke-width:0.5;" x="60.360874" xlink:href="#m8185dd89ac" y="30.3872256"/>
     <use style="stroke:#000000;stroke-width:0.5;" x="61.1009215" xlink:href="#m8185dd89ac" y="29.2830336"/>
     <use style="stroke:#000000;stroke-width:0.5;" x="62.2110625" xlink:href="#m8185dd89ac" y="28.5470208"/>
     <use style="stroke:#000000;stroke-width:0.5;" x="63.6911575" xlink:href="#m8185dd89ac" y="27.8108928"/>
     <use style="stroke:#000000;stroke-width:0.5;" x="64.801159" xlink:href="#m8185dd89ac" y="27.0747648"/>
     <use style="stroke:#000000;stroke-width:0.5;" x="66.281254" xlink:href="#m8185dd89ac" y="26.3386368"/>
     <use style="stroke:#000000;stroke-width:0.5;" x="67.761349" xlink:href="#m8185dd89ac" y="25.9705728"/>
     <use style="stroke:#000000;stroke-width:0.5;" x="69.2415835" xlink:href="#m8185dd89ac" y="25.9705728"/>
     <use style="stroke:#000000;stroke-width:0.5;" x="70.351585" xlink:href="#m8185dd89ac" y="25.6025088"/>
     <use style="stroke:#000000;stroke-width:0.5;" x="71.83168" xlink:href="#m8185dd89ac" y="25.9705728"/>
     <use style="stroke:#000000;stroke-width:0.5;" x="73.311775" xlink:href="#m8185dd89ac" y="25.9705728"/>
     <use style="stroke:#000000;stroke-width:0.5;" x="74.79187" xlink:href="#m8185dd89ac" y="26.3386368"/>
     <use style="stroke:#000000;stroke-width:0.5;" x="76.271965" xlink:href="#m8185dd89ac" y="27.0747648"/>
     <use style="stroke:#000000;stroke-width:0.5;" x="77.382106" xlink:href="#m8185dd89ac" y="27.8108928"/>
     <use style="stroke:#000000;stroke-width:0.5;" x="78.49217725" xlink:href="#m8185dd89ac" y="28.5470208"/>
     <use style="stroke:#000000;stroke-width:0.5;" x="79.9722862" xlink:href="#m8185dd89ac" y="29.2830336"/>
     <use style="stroke:#000000;stroke-width:0.5;" x="81.0823714" xlink:href="#m8185dd89ac" y="30.3872256"/>
     <use style="stroke:#000000;stroke-width:0.5;" x="82.19244265" xlink:href="#m8185dd89ac" y="30.7552896"/>
     <use style="stroke:#000000;stroke-width:0.5;" x="83.6725516" xlink:href="#m8185dd89ac" y="31.4914176"/>
     <use style="stroke:#000000;stroke-width:0.5;" x="84.7826368" xlink:href="#m8185dd89ac" y="31.8594816"/>
     <use style="stroke:#000000;stroke-width:0.5;" x="86.26274575" xlink:href="#m8185dd89ac" y="32.5954944"/>
     <use style="stroke:#000000;stroke-width:0.5;" x="87.372817" xlink:href="#m8185dd89ac" y="33.3316224"/>
     <use style="stroke:#000000;stroke-width:0.5;" x="88.85292595" xlink:href="#m8185dd89ac" y="33.6996864"/>
     <use style="stroke:#000000;stroke-width:0.5;" x="89.96301115" xlink:href="#m8185dd89ac" y="34.4358144"/>
     <use style="stroke:#000000;stroke-width:0.5;" x="92.55319135" xlink:href="#m8185dd89ac" y="35.1719424"/>
     <use style="stroke:#000000;stroke-width:0.5;" x="94.0333003" xlink:href="#m8185dd89ac" y="35.1719424"/>
     <use style="stroke:#000000;stroke-width:0.5;" x="95.51340925" xlink:href="#m8185dd89ac" y="35.1719424"/>
     <use style="stroke:#000000;stroke-width:0.5;" x="96.99350425" xlink:href="#m8185dd89ac" y="34.8038784"/>
     <use style="stroke:#000000;stroke-width:0.5;" x="98.10358945" xlink:href="#m8185dd89ac" y="34.0677504"/>
     <use style="stroke:#000000;stroke-width:0.5;" x="99.5836984" xlink:href="#m8185dd89ac" y="33.6996864"/>
     <use style="stroke:#000000;stroke-width:0.5;" x="100.69376965" xlink:href="#m8185dd89ac" y="32.9635584"/>
     <use style="stroke:#000000;stroke-width:0.5;" x="102.1738786" xlink:href="#m8185dd89ac" y="31.8594816"/>
     <use style="stroke:#000000;stroke-width:0.5;" x="103.2839638" xlink:href="#m8185dd89ac" y="31.1233536"/>
     <use style="stroke:#000000;stroke-width:0.5;" x="104.76407275" xlink:href="#m8185dd89ac" y="30.3872256"/>
     <use style="stroke:#000000;stroke-width:0.5;" x="105.874144" xlink:href="#m8185dd89ac" y="29.6510976"/>
     <use style="stroke:#000000;stroke-width:0.5;" x="107.354239" xlink:href="#m8185dd89ac" y="28.9149696"/>
     <use style="stroke:#000000;stroke-width:0.5;" x="108.46438" xlink:href="#m8185dd89ac" y="28.1789568"/>
     <use style="stroke:#000000;stroke-width:0.5;" x="109.5743815" xlink:href="#m8185dd89ac" y="27.4428288"/>
     <use style="stroke:#000000;stroke-width:0.5;" x="111.0544765" xlink:href="#m8185dd89ac" y="26.7067008"/>
     <use style="stroke:#000000;stroke-width:0.5;" x="112.1646175" xlink:href="#m8185dd89ac" y="25.9705728"/>
     <use style="stroke:#000000;stroke-width:0.5;" x="113.6447125" xlink:href="#m8185dd89ac" y="25.6025088"/>
     <use style="stroke:#000000;stroke-width:0.5;" x="115.1248075" xlink:href="#m8185dd89ac" y="25.23456"/>
     <use style="stroke:#000000;stroke-width:0.5;" x="116.6049025" xlink:href="#m8185dd89ac" y="25.23456"/>
     <use style="stroke:#000000;stroke-width:0.5;" x="118.0849975" xlink:href="#m8185dd89ac" y="25.23456"/>
     <use style="stroke:#000000;stroke-width:0.5;" x="119.5650925" xlink:href="#m8185dd89ac" y="25.6025088"/>
     <use style="stroke:#000000;stroke-width:0.5;" x="120.6752335" xlink:href="#m8185dd89ac" y="26.3386368"/>
     <use style="stroke:#000000;stroke-width:0.5;" x="122.1553285" xlink:href="#m8185dd89ac" y="26.7067008"/>
     <use style="stroke:#000000;stroke-width:0.5;" x="123.26533" xlink:href="#m8185dd89ac" y="27.4428288"/>
     <use style="stroke:#000000;stroke-width:0.5;" x="124.375471" xlink:href="#m8185dd89ac" y="28.5470208"/>
     <use style="stroke:#000000;stroke-width:0.5;" x="125.485612" xlink:href="#m8185dd89ac" y="29.2830336"/>
     <use style="stroke:#000000;stroke-width:0.5;" x="126.5956135" xlink:href="#m8185dd89ac" y="30.7552896"/>
     <use style="stroke:#000000;stroke-width:0.5;" x="127.335661" xlink:href="#m8185dd89ac" y="31.8594816"/>
     <use style="stroke:#000000;stroke-width:0.5;" x="128.445802" xlink:href="#m8185dd89ac" y="32.9635584"/>
     <use style="stroke:#000000;stroke-width:0.5;" x="129.1858495" xlink:href="#m8185dd89ac" y="34.0677504"/>
     <use style="stroke:#000000;stroke-width:0.5;" x="130.295851" xlink:href="#m8185dd89ac" y="35.1719424"/>
     <use style="stroke:#000000;stroke-width:0.5;" x="131.0358985" xlink:href="#m8185dd89ac" y="36.2760192"/>
     <use style="stroke:#000000;stroke-width:0.5;" x="132.1460395" xlink:href="#m8185dd89ac" y="37.3802112"/>
     <use style="stroke:#000000;stroke-width:0.5;" x="132.886087" xlink:href="#m8185dd89ac" y="38.852352"/>
     <use style="stroke:#000000;stroke-width:0.5;" x="133.6261345" xlink:href="#m8185dd89ac" y="39.956544"/>
     <use style="stroke:#000000;stroke-width:0.5;" x="134.366182" xlink:href="#m8185dd89ac" y="41.4288"/>
     <use style="stroke:#000000;stroke-width:0.5;" x="135.1062295" xlink:href="#m8185dd89ac" y="42.5328768"/>
     <use style="stroke:#000000;stroke-width:0.5;" x="135.846277" xlink:href="#m8185dd89ac" y="43.6370688"/>
     <use style="stroke:#000000;stroke-width:0.5;" x="136.5863245" xlink:href="#m8185dd89ac" y="45.1092096"/>
     <use style="stroke:#000000;stroke-width:0.5;" x="137.326372" xlink:href="#m8185dd89ac" y="46.2134016"/>
     <use style="stroke:#000000;stroke-width:0.5;" x="138.0664195" xlink:href="#m8185dd89ac" y="47.6856576"/>
     <use style="stroke:#000000;stroke-width:0.5;" x="138.806467" xlink:href="#m8185dd89ac" y="48.7897344"/>
     <use style="stroke:#000000;stroke-width:0.5;" x="139.5465145" xlink:href="#m8185dd89ac" y="50.2619904"/>
     <use style="stroke:#000000;stroke-width:0.5;" x="140.286562" xlink:href="#m8185dd89ac" y="51.3661824"/>
     <use style="stroke:#000000;stroke-width:0.5;" x="141.0266095" xlink:href="#m8185dd89ac" y="52.8383232"/>
     <use style="stroke:#000000;stroke-width:0.5;" x="141.766657" xlink:href="#m8185dd89ac" y="53.9425152"/>
     <use style="stroke:#000000;stroke-width:0.5;" x="142.1367505" xlink:href="#m8185dd89ac" y="55.414656"/>
     <use style="stroke:#000000;stroke-width:0.5;" x="142.876798" xlink:href="#m8185dd89ac" y="56.886912"/>
     <use style="stroke:#000000;stroke-width:0.5;" x="143.6168455" xlink:href="#m8185dd89ac" y="57.991104"/>
     <use style="stroke:#000000;stroke-width:0.5;" x="144.356893" xlink:href="#m8185dd89ac" y="59.4632448"/>
     <use style="stroke:#000000;stroke-width:0.5;" x="145.0969405" xlink:href="#m8185dd89ac" y="60.5674368"/>
     <use style="stroke:#000000;stroke-width:0.5;" x="145.467034" xlink:href="#m8185dd89ac" y="62.0395776"/>
     <use style="stroke:#000000;stroke-width:0.5;" x="146.2070815" xlink:href="#m8185dd89ac" y="63.1437696"/>
     <use style="stroke:#000000;stroke-width:0.5;" x="146.947129" xlink:href="#m8185dd89ac" y="64.6160256"/>
     <use style="stroke:#000000;stroke-width:0.5;" x="147.6871765" xlink:href="#m8185dd89ac" y="66.0881664"/>
     <use style="stroke:#000000;stroke-width:0.5;" x="148.427224" xlink:href="#m8185dd89ac" y="67.1923584"/>
     <use style="stroke:#000000;stroke-width:0.5;" x="148.797178" xlink:href="#m8185dd89ac" y="68.6644992"/>
     <use style="stroke:#000000;stroke-width:0.5;" x="149.5372255" xlink:href="#m8185dd89ac" y="69.7686912"/>
     <use style="stroke:#000000;stroke-width:0.5;" x="150.277273" xlink:href="#m8185dd89ac" y="71.2409472"/>
     <use style="stroke:#000000;stroke-width:0.5;" x="151.0173205" xlink:href="#m8185dd89ac" y="72.345024"/>
     <use style="stroke:#000000;stroke-width:0.5;" x="151.757368" xlink:href="#m8185dd89ac" y="73.81728"/>
     <use style="stroke:#000000;stroke-width:0.5;" x="152.1274615" xlink:href="#m8185dd89ac" y="75.2894208"/>
     <use style="stroke:#000000;stroke-width:0.5;" x="153.2376025" xlink:href="#m8185dd89ac" y="76.3936128"/>
     <use style="stroke:#000000;stroke-width:0.5;" x="153.97765" xlink:href="#m8185dd89ac" y="77.4978048"/>
     <use style="stroke:#000000;stroke-width:0.5;" x="154.7176975" xlink:href="#m8185dd89ac" y="78.6018816"/>
     <use style="stroke:#000000;stroke-width:0.5;" x="155.827699" xlink:href="#m8185dd89ac" y="79.7060736"/>
     <use style="stroke:#000000;stroke-width:0.5;" x="156.5677465" xlink:href="#m8185dd89ac" y="81.1783296"/>
     <use style="stroke:#000000;stroke-width:0.5;" x="157.6778875" xlink:href="#m8185dd89ac" y="82.2824064"/>
     <use style="stroke:#000000;stroke-width:0.5;" x="158.417935" xlink:href="#m8185dd89ac" y="83.3865984"/>
     <use style="stroke:#000000;stroke-width:0.5;" x="159.1579825" xlink:href="#m8185dd89ac" y="84.4907904"/>
     <use style="stroke:#000000;stroke-width:0.5;" x="160.267984" xlink:href="#m8185dd89ac" y="85.9629312"/>
     <use style="stroke:#000000;stroke-width:0.5;" x="161.0080315" xlink:href="#m8185dd89ac" y="87.0671232"/>
    </g>
   </g>
   <g id="line2d_2">
    <path clip-path="url(#p4881865bdf)" d="
M23.0046 89.9712
L26.892 85.577
L29.5967 82.1479
L32.1003 78.514
L34.4472 74.7193
L37.3959 69.5645
L40.8318 63.084
L45.3824 53.8344
L48.7055 47.2188
L51.5122 42.071
L53.7522 38.3181
L56.2099 34.6805
L58.0515 32.3745
L60.1186 30.2498
L62.4415 28.4167
L63.6966 27.6488
L65.0062 27.0005
L66.3603 26.4854
L67.746 26.1144
L69.1493 25.8951
L70.5554 25.8307
L71.9508 25.9203
L73.3245 26.1583
L74.6691 26.5349
L77.2651 27.6441
L79.7726 29.0975
L84.902 32.2731
L87.6934 33.5926
L89.1542 34.1035
L90.6482 34.4895
L92.1627 34.7357
L93.6824 34.8312
L95.1914 34.77
L96.6749 34.5514
L98.1213 34.18
L99.523 33.6665
L100.878 33.0266
L103.462 31.4552
L109.728 27.1753
L111.041 26.5073
L112.386 25.9672
L113.76 25.5757
L115.154 25.3484
L116.557 25.2952
L117.955 25.42
L119.333 25.721
L120.676 26.1905
L121.973 26.8163
L123.215 27.5818
L124.396 28.468
L126.57 30.5193
L128.517 32.8091
L131.132 36.4195
L134.322 41.2819
L137.356 46.2556
L140.258 51.4614
L143.675 58.0828
L150.977 72.4907
L153.312 76.4025
L155.767 80.0428
L159.106 84.4736
L160.842 86.7183
L160.842 86.7183" style="fill:none;stroke:#e41a1c;stroke-linecap:square;stroke-width:1.2;"/>
   </g>
   <g id="patch_3">
    <path d="
M161.378 122.4
L161.378 7.2" style="fill:none;stroke:#000000;stroke-linecap:square;stroke-linejoin:miter;"/>
   </g>
   <g id="patch_4">
    <path d="
M21.8781 122.4
L21.8781 7.2" style="fill:none;stroke:#000000;stroke-linecap:square;stroke-linejoin:miter;"/>
   </g>
   <g id="patch_5">
    <path d="
M21.8781 7.2
L161.378 7.2" style="fill:none;stroke:#000000;stroke-linecap:square;stroke-linejoin:miter;"/>
   </g>
   <g id="patch_6">
    <path d="
M21.8781 122.4
L161.378 122.4" style="fill:none;stroke:#000000;stroke-linecap:square;stroke-linejoin:miter;"/>
   </g>
   <g id="matplotlib.axis_1">
    <g id="xtick_1">
     <g id="line2d_3">
      <defs>
       <path d="
M0 0
L0 -4" id="mc7db9fdffb" style="stroke:#000000;stroke-width:0.5;"/>
      </defs>
      <g>
       <use style="stroke:#000000;stroke-width:0.5;" x="21.878125" xlink:href="#mc7db9fdffb" y="122.4"/>
      </g>
     </g>
     <g id="line2d_4">
      <defs>
       <path d="
M0 0
L0 4" id="m5a7d422ac3" style="stroke:#000000;stroke-width:0.5;"/>
      </defs>
      <g>
       <use style="stroke:#000000;stroke-width:0.5;" x="21.878125" xlink:href="#m5a7d422ac3" y="7.2"/>
      </g>
     </g>
     <g id="text_1">
      <!-- −0.5 -->
      <defs>
       <path d="
M10.7969 72.9062
L49.5156 72.9062
L49.5156 64.5938
L19.8281 64.5938
L19.8281 46.7344
Q21.9688 47.4688 24.1094 47.8281
Q26.2656 48.1875 28.4219 48.1875
Q40.625 48.1875 47.75 41.5
Q54.8906 34.8125 54.8906 23.3906
Q54.8906 11.625 47.5625 5.09375
Q40.2344 -1.42188 26.9062 -1.42188
Q22.3125 -1.42188 17.5469 -0.640625
Q12.7969 0.140625 7.71875 1.70312
L7.71875 11.625
Q12.1094 9.23438 16.7969 8.0625
Q21.4844 6.89062 26.7031 6.89062
Q35.1562 6.89062 40.0781 11.3281
Q45.0156 15.7656 45.0156 23.3906
Q45.0156 31 40.0781 35.4375
Q35.1562 39.8906 26.7031 39.8906
Q22.75 39.8906 18.8125 39.0156
Q14.8906 38.1406 10.7969 36.2812
z
" id="BitstreamVeraSans-Roman-35"/>
       <path d="
M10.6875 12.4062
L21 12.4062
L21 0
L10.6875 0
z
" id="BitstreamVeraSans-Roman-2e"/>
       <path d="
M10.5938 35.5
L73.1875 35.5
L73.1875 27.2031
L10.5938 27.2031
z
" id="BitstreamVeraSans-Roman-2212"/>
       <path d="
M31.7812 66.4062
Q24.1719 66.4062 20.3281 58.9062
Q16.5 51.4219 16.5 36.375
Q16.5 21.3906 20.3281 13.8906
Q24.1719 6.39062 31.7812 6.39062
Q39.4531 6.39062 43.2812 13.8906
Q47.125 21.3906 47.125 36.375
Q47.125 51.4219 43.2812 58.9062
Q39.4531 66.4062 31.7812 66.4062
M31.7812 74.2188
Q44.0469 74.2188 50.5156 64.5156
Q56.9844 54.8281 56.9844 36.375
Q56.9844 17.9688 50.5156 8.26562
Q44.0469 -1.42188 31.7812 -1.42188
Q19.5312 -1.42188 13.0625 8.26562
Q6.59375 17.9688 6.59375 36.375
Q6.59375 54.8281 13.0625 64.5156
Q19.5312 74.2188 31.7812 74.2188" id="BitstreamVeraSans-Roman-30"/>
      </defs>
      <g transform="translate(10.703125 133.9984375)scale(0.1 -0.1)">
       <use xlink:href="#BitstreamVeraSans-Roman-2212"/>
       <use x="83.7890625" xlink:href="#BitstreamVeraSans-Roman-30"/>
       <use x="147.412109375" xlink:href="#BitstreamVeraSans-Roman-2e"/>
       <use x="179.19921875" xlink:href="#BitstreamVeraSans-Roman-35"/>
      </g>
     </g>
    </g>
    <g id="xtick_2">
     <g id="line2d_5">
      <g>
       <use style="stroke:#000000;stroke-width:0.5;" x="91.628125" xlink:href="#mc7db9fdffb" y="122.4"/>
      </g>
     </g>
     <g id="line2d_6">
      <g>
       <use style="stroke:#000000;stroke-width:0.5;" x="91.628125" xlink:href="#m5a7d422ac3" y="7.2"/>
      </g>
     </g>
     <g id="text_2">
      <!-- 0.0 -->
      <g transform="translate(84.33828125 133.9984375)scale(0.1 -0.1)">
       <use xlink:href="#BitstreamVeraSans-Roman-30"/>
       <use x="63.623046875" xlink:href="#BitstreamVeraSans-Roman-2e"/>
       <use x="95.41015625" xlink:href="#BitstreamVeraSans-Roman-30"/>
      </g>
     </g>
    </g>
    <g id="xtick_3">
     <g id="line2d_7">
      <g>
       <use style="stroke:#000000;stroke-width:0.5;" x="161.378125" xlink:href="#mc7db9fdffb" y="122.4"/>
      </g>
     </g>
     <g id="line2d_8">
      <g>
       <use style="stroke:#000000;stroke-width:0.5;" x="161.378125" xlink:href="#m5a7d422ac3" y="7.2"/>
      </g>
     </g>
     <g id="text_3">
      <!-- 0.5 -->
      <g transform="translate(154.19296875 133.9984375)scale(0.1 -0.1)">
       <use xlink:href="#BitstreamVeraSans-Roman-30"/>
       <use x="63.623046875" xlink:href="#BitstreamVeraSans-Roman-2e"/>
       <use x="95.41015625" xlink:href="#BitstreamVeraSans-Roman-35"/>
      </g>
     </g>
    </g>
    <g id="text_4">
     <!-- Relative Position -->
     <defs>
      <path d="
M54.8906 33.0156
L54.8906 0
L45.9062 0
L45.9062 32.7188
Q45.9062 40.4844 42.875 44.3281
Q39.8438 48.1875 33.7969 48.1875
Q26.5156 48.1875 22.3125 43.5469
Q18.1094 38.9219 18.1094 30.9062
L18.1094 0
L9.07812 0
L9.07812 54.6875
L18.1094 54.6875
L18.1094 46.1875
Q21.3438 51.125 25.7031 53.5625
Q30.0781 56 35.7969 56
Q45.2188 56 50.0469 50.1719
Q54.8906 44.3438 54.8906 33.0156" id="BitstreamVeraSans-Roman-6e"/>
      <path d="
M2.98438 54.6875
L12.5 54.6875
L29.5938 8.79688
L46.6875 54.6875
L56.2031 54.6875
L35.6875 0
L23.4844 0
z
" id="BitstreamVeraSans-Roman-76"/>
      <path d="
M34.2812 27.4844
Q23.3906 27.4844 19.1875 25
Q14.9844 22.5156 14.9844 16.5
Q14.9844 11.7188 18.1406 8.90625
Q21.2969 6.10938 26.7031 6.10938
Q34.1875 6.10938 38.7031 11.4062
Q43.2188 16.7031 43.2188 25.4844
L43.2188 27.4844
z

M52.2031 31.2031
L52.2031 0
L43.2188 0
L43.2188 8.29688
Q40.1406 3.32812 35.5469 0.953125
Q30.9531 -1.42188 24.3125 -1.42188
Q15.9219 -1.42188 10.9531 3.29688
Q6 8.01562 6 15.9219
Q6 25.1406 12.1719 29.8281
Q18.3594 34.5156 30.6094 34.5156
L43.2188 34.5156
L43.2188 35.4062
Q43.2188 41.6094 39.1406 45
Q35.0625 48.3906 27.6875 48.3906
Q23 48.3906 18.5469 47.2656
Q14.1094 46.1406 10.0156 43.8906
L10.0156 52.2031
Q14.9375 54.1094 19.5781 55.0469
Q24.2188 56 28.6094 56
Q40.4844 56 46.3438 49.8438
Q52.2031 43.7031 52.2031 31.2031" id="BitstreamVeraSans-Roman-61"/>
      <path d="
M44.2812 53.0781
L44.2812 44.5781
Q40.4844 46.5312 36.375 47.5
Q32.2812 48.4844 27.875 48.4844
Q21.1875 48.4844 17.8438 46.4375
Q14.5 44.3906 14.5 40.2812
Q14.5 37.1562 16.8906 35.375
Q19.2812 33.5938 26.5156 31.9844
L29.5938 31.2969
Q39.1562 29.25 43.1875 25.5156
Q47.2188 21.7812 47.2188 15.0938
Q47.2188 7.46875 41.1875 3.01562
Q35.1562 -1.42188 24.6094 -1.42188
Q20.2188 -1.42188 15.4531 -0.5625
Q10.6875 0.296875 5.42188 2
L5.42188 11.2812
Q10.4062 8.6875 15.2344 7.39062
Q20.0625 6.10938 24.8125 6.10938
Q31.1562 6.10938 34.5625 8.28125
Q37.9844 10.4531 37.9844 14.4062
Q37.9844 18.0625 35.5156 20.0156
Q33.0625 21.9688 24.7031 23.7812
L21.5781 24.5156
Q13.2344 26.2656 9.51562 29.9062
Q5.8125 33.5469 5.8125 39.8906
Q5.8125 47.6094 11.2812 51.7969
Q16.75 56 26.8125 56
Q31.7812 56 36.1719 55.2656
Q40.5781 54.5469 44.2812 53.0781" id="BitstreamVeraSans-Roman-73"/>
      <path d="
M30.6094 48.3906
Q23.3906 48.3906 19.1875 42.75
Q14.9844 37.1094 14.9844 27.2969
Q14.9844 17.4844 19.1562 11.8438
Q23.3438 6.20312 30.6094 6.20312
Q37.7969 6.20312 41.9844 11.8594
Q46.1875 17.5312 46.1875 27.2969
Q46.1875 37.0156 41.9844 42.7031
Q37.7969 48.3906 30.6094 48.3906
M30.6094 56
Q42.3281 56 49.0156 48.375
Q55.7188 40.7656 55.7188 27.2969
Q55.7188 13.875 49.0156 6.21875
Q42.3281 -1.42188 30.6094 -1.42188
Q18.8438 -1.42188 12.1719 6.21875
Q5.51562 13.875 5.51562 27.2969
Q5.51562 40.7656 12.1719 48.375
Q18.8438 56 30.6094 56" id="BitstreamVeraSans-Roman-6f"/>
      <path id="BitstreamVeraSans-Roman-20"/>
      <path d="
M44.3906 34.1875
Q47.5625 33.1094 50.5625 29.5938
Q53.5625 26.0781 56.5938 19.9219
L66.6094 0
L56 0
L46.6875 18.7031
Q43.0625 26.0312 39.6719 28.4219
Q36.2812 30.8125 30.4219 30.8125
L19.6719 30.8125
L19.6719 0
L9.8125 0
L9.8125 72.9062
L32.0781 72.9062
Q44.5781 72.9062 50.7344 67.6719
Q56.8906 62.4531 56.8906 51.9062
Q56.8906 45.0156 53.6875 40.4688
Q50.4844 35.9375 44.3906 34.1875
M19.6719 64.7969
L19.6719 38.9219
L32.0781 38.9219
Q39.2031 38.9219 42.8438 42.2188
Q46.4844 45.5156 46.4844 51.9062
Q46.4844 58.2969 42.8438 61.5469
Q39.2031 64.7969 32.0781 64.7969
z
" id="BitstreamVeraSans-Roman-52"/>
      <path d="
M19.6719 64.7969
L19.6719 37.4062
L32.0781 37.4062
Q38.9688 37.4062 42.7188 40.9688
Q46.4844 44.5312 46.4844 51.125
Q46.4844 57.6719 42.7188 61.2344
Q38.9688 64.7969 32.0781 64.7969
z

M9.8125 72.9062
L32.0781 72.9062
Q44.3438 72.9062 50.6094 67.3594
Q56.8906 61.8125 56.8906 51.125
Q56.8906 40.3281 50.6094 34.8125
Q44.3438 29.2969 32.0781 29.2969
L19.6719 29.2969
L19.6719 0
L9.8125 0
z
" id="BitstreamVeraSans-Roman-50"/>
      <path d="
M9.42188 75.9844
L18.4062 75.9844
L18.4062 0
L9.42188 0
z
" id="BitstreamVeraSans-Roman-6c"/>
      <path d="
M9.42188 54.6875
L18.4062 54.6875
L18.4062 0
L9.42188 0
z

M9.42188 75.9844
L18.4062 75.9844
L18.4062 64.5938
L9.42188 64.5938
z
" id="BitstreamVeraSans-Roman-69"/>
      <path d="
M18.3125 70.2188
L18.3125 54.6875
L36.8125 54.6875
L36.8125 47.7031
L18.3125 47.7031
L18.3125 18.0156
Q18.3125 11.3281 20.1406 9.42188
Q21.9688 7.51562 27.5938 7.51562
L36.8125 7.51562
L36.8125 0
L27.5938 0
Q17.1875 0 13.2344 3.875
Q9.28125 7.76562 9.28125 18.0156
L9.28125 47.7031
L2.6875 47.7031
L2.6875 54.6875
L9.28125 54.6875
L9.28125 70.2188
z
" id="BitstreamVeraSans-Roman-74"/>
      <path d="
M56.2031 29.5938
L56.2031 25.2031
L14.8906 25.2031
Q15.4844 15.9219 20.4844 11.0625
Q25.4844 6.20312 34.4219 6.20312
Q39.5938 6.20312 44.4531 7.46875
Q49.3125 8.73438 54.1094 11.2812
L54.1094 2.78125
Q49.2656 0.734375 44.1875 -0.34375
Q39.1094 -1.42188 33.8906 -1.42188
Q20.7969 -1.42188 13.1562 6.1875
Q5.51562 13.8125 5.51562 26.8125
Q5.51562 40.2344 12.7656 48.1094
Q20.0156 56 32.3281 56
Q43.3594 56 49.7812 48.8906
Q56.2031 41.7969 56.2031 29.5938
M47.2188 32.2344
Q47.125 39.5938 43.0938 43.9844
Q39.0625 48.3906 32.4219 48.3906
Q24.9062 48.3906 20.3906 44.1406
Q15.875 39.8906 15.1875 32.1719
z
" id="BitstreamVeraSans-Roman-65"/>
     </defs>
     <g transform="translate(50.83515625 148.6765625)scale(0.1 -0.1)">
      <use xlink:href="#BitstreamVeraSans-Roman-52"/>
      <use x="64.982421875" xlink:href="#BitstreamVeraSans-Roman-65"/>
      <use x="126.505859375" xlink:href="#BitstreamVeraSans-Roman-6c"/>
      <use x="154.2890625" xlink:href="#BitstreamVeraSans-Roman-61"/>
      <use x="215.568359375" xlink:href="#BitstreamVeraSans-Roman-74"/>
      <use x="254.77734375" xlink:href="#BitstreamVeraSans-Roman-69"/>
      <use x="282.560546875" xlink:href="#BitstreamVeraSans-Roman-76"/>
      <use x="341.740234375" xlink:href="#BitstreamVeraSans-Roman-65"/>
      <use x="403.263671875" xlink:href="#BitstreamVeraSans-Roman-20"/>
      <use x="435.05078125" xlink:href="#BitstreamVeraSans-Roman-50"/>
      <use x="491.728515625" xlink:href="#BitstreamVeraSans-Roman-6f"/>
      <use x="552.91015625" xlink:href="#BitstreamVeraSans-Roman-73"/>
      <use x="605.009765625" xlink:href="#BitstreamVeraSans-Roman-69"/>
      <use x="632.79296875" xlink:href="#BitstreamVeraSans-Roman-74"/>
      <use x="672.001953125" xlink:href="#BitstreamVeraSans-Roman-69"/>
      <use x="699.78515625" xlink:href="#BitstreamVeraSans-Roman-6f"/>
      <use x="760.966796875" xlink:href="#BitstreamVeraSans-Roman-6e"/>
     </g>
    </g>
   </g>
   <g id="matplotlib.axis_2">
    <g id="text_5">
     <!-- Nucleoid Density -->
     <defs>
      <path d="
M48.7812 52.5938
L48.7812 44.1875
Q44.9688 46.2969 41.1406 47.3438
Q37.3125 48.3906 33.4062 48.3906
Q24.6562 48.3906 19.8125 42.8438
Q14.9844 37.3125 14.9844 27.2969
Q14.9844 17.2812 19.8125 11.7344
Q24.6562 6.20312 33.4062 6.20312
Q37.3125 6.20312 41.1406 7.25
Q44.9688 8.29688 48.7812 10.4062
L48.7812 2.09375
Q45.0156 0.34375 40.9844 -0.53125
Q36.9688 -1.42188 32.4219 -1.42188
Q20.0625 -1.42188 12.7812 6.34375
Q5.51562 14.1094 5.51562 27.2969
Q5.51562 40.6719 12.8594 48.3281
Q20.2188 56 33.0156 56
Q37.1562 56 41.1094 55.1406
Q45.0625 54.2969 48.7812 52.5938" id="BitstreamVeraSans-Roman-63"/>
      <path d="
M32.1719 -5.07812
Q28.375 -14.8438 24.75 -17.8125
Q21.1406 -20.7969 15.0938 -20.7969
L7.90625 -20.7969
L7.90625 -13.2812
L13.1875 -13.2812
Q16.8906 -13.2812 18.9375 -11.5156
Q21 -9.76562 23.4844 -3.21875
L25.0938 0.875
L2.98438 54.6875
L12.5 54.6875
L29.5938 11.9219
L46.6875 54.6875
L56.2031 54.6875
z
" id="BitstreamVeraSans-Roman-79"/>
      <path d="
M19.6719 64.7969
L19.6719 8.10938
L31.5938 8.10938
Q46.6875 8.10938 53.6875 14.9375
Q60.6875 21.7812 60.6875 36.5312
Q60.6875 51.1719 53.6875 57.9844
Q46.6875 64.7969 31.5938 64.7969
z

M9.8125 72.9062
L30.0781 72.9062
Q51.2656 72.9062 61.1719 64.0938
Q71.0938 55.2812 71.0938 36.5312
Q71.0938 17.6719 61.125 8.82812
Q51.1719 0 30.0781 0
L9.8125 0
z
" id="BitstreamVeraSans-Roman-44"/>
      <path d="
M9.8125 72.9062
L23.0938 72.9062
L55.4219 11.9219
L55.4219 72.9062
L64.9844 72.9062
L64.9844 0
L51.7031 0
L19.3906 60.9844
L19.3906 0
L9.8125 0
z
" id="BitstreamVeraSans-Roman-4e"/>
      <path d="
M8.5 21.5781
L8.5 54.6875
L17.4844 54.6875
L17.4844 21.9219
Q17.4844 14.1562 20.5 10.2656
Q23.5312 6.39062 29.5938 6.39062
Q36.8594 6.39062 41.0781 11.0312
Q45.3125 15.6719 45.3125 23.6875
L45.3125 54.6875
L54.2969 54.6875
L54.2969 0
L45.3125 0
L45.3125 8.40625
Q42.0469 3.42188 37.7188 1
Q33.4062 -1.42188 27.6875 -1.42188
Q18.2656 -1.42188 13.375 4.4375
Q8.5 10.2969 8.5 21.5781" id="BitstreamVeraSans-Roman-75"/>
      <path d="
M45.4062 46.3906
L45.4062 75.9844
L54.3906 75.9844
L54.3906 0
L45.4062 0
L45.4062 8.20312
Q42.5781 3.32812 38.25 0.953125
Q33.9375 -1.42188 27.875 -1.42188
Q17.9688 -1.42188 11.7344 6.48438
Q5.51562 14.4062 5.51562 27.2969
Q5.51562 40.1875 11.7344 48.0938
Q17.9688 56 27.875 56
Q33.9375 56 38.25 53.625
Q42.5781 51.2656 45.4062 46.3906
M14.7969 27.2969
Q14.7969 17.3906 18.875 11.75
Q22.9531 6.10938 30.0781 6.10938
Q37.2031 6.10938 41.2969 11.75
Q45.4062 17.3906 45.4062 27.2969
Q45.4062 37.2031 41.2969 42.8438
Q37.2031 48.4844 30.0781 48.4844
Q22.9531 48.4844 18.875 42.8438
Q14.7969 37.2031 14.7969 27.2969" id="BitstreamVeraSans-Roman-64"/>
     </defs>
     <g transform="translate(14.7984375 106.9953125)rotate(-90.0)scale(0.1 -0.1)">
      <use xlink:href="#BitstreamVeraSans-Roman-4e"/>
      <use x="74.8046875" xlink:href="#BitstreamVeraSans-Roman-75"/>
      <use x="138.18359375" xlink:href="#BitstreamVeraSans-Roman-63"/>
      <use x="193.1640625" xlink:href="#BitstreamVeraSans-Roman-6c"/>
      <use x="220.947265625" xlink:href="#BitstreamVeraSans-Roman-65"/>
      <use x="282.470703125" xlink:href="#BitstreamVeraSans-Roman-6f"/>
      <use x="343.65234375" xlink:href="#BitstreamVeraSans-Roman-69"/>
      <use x="371.435546875" xlink:href="#BitstreamVeraSans-Roman-64"/>
      <use x="434.912109375" xlink:href="#BitstreamVeraSans-Roman-20"/>
      <use x="466.69921875" xlink:href="#BitstreamVeraSans-Roman-44"/>
      <use x="543.701171875" xlink:href="#BitstreamVeraSans-Roman-65"/>
      <use x="605.224609375" xlink:href="#BitstreamVeraSans-Roman-6e"/>
      <use x="668.603515625" xlink:href="#BitstreamVeraSans-Roman-73"/>
      <use x="720.703125" xlink:href="#BitstreamVeraSans-Roman-69"/>
      <use x="748.486328125" xlink:href="#BitstreamVeraSans-Roman-74"/>
      <use x="787.6953125" xlink:href="#BitstreamVeraSans-Roman-79"/>
     </g>
    </g>
   </g>
   <g id="legend_1">
    <g id="line2d_9"/>
    <g id="line2d_10">
     <g>
      <use style="stroke:#000000;stroke-width:0.5;" x="55.86953125" xlink:href="#m8185dd89ac" y="93.1421875"/>
      <use style="stroke:#000000;stroke-width:0.5;" x="69.86953125" xlink:href="#m8185dd89ac" y="93.1421875"/>
     </g>
    </g>
    <g id="text_6">
     <!-- Digitized -->
     <defs>
      <path d="
M5.51562 54.6875
L48.1875 54.6875
L48.1875 46.4844
L14.4062 7.17188
L48.1875 7.17188
L48.1875 0
L4.29688 0
L4.29688 8.20312
L38.0938 47.5156
L5.51562 47.5156
z
" id="BitstreamVeraSans-Roman-7a"/>
      <path d="
M45.4062 27.9844
Q45.4062 37.75 41.375 43.1094
Q37.3594 48.4844 30.0781 48.4844
Q22.8594 48.4844 18.8281 43.1094
Q14.7969 37.75 14.7969 27.9844
Q14.7969 18.2656 18.8281 12.8906
Q22.8594 7.51562 30.0781 7.51562
Q37.3594 7.51562 41.375 12.8906
Q45.4062 18.2656 45.4062 27.9844
M54.3906 6.78125
Q54.3906 -7.17188 48.1875 -13.9844
Q42 -20.7969 29.2031 -20.7969
Q24.4688 -20.7969 20.2656 -20.0938
Q16.0625 -19.3906 12.1094 -17.9219
L12.1094 -9.1875
Q16.0625 -11.3281 19.9219 -12.3438
Q23.7812 -13.375 27.7812 -13.375
Q36.625 -13.375 41.0156 -8.76562
Q45.4062 -4.15625 45.4062 5.17188
L45.4062 9.625
Q42.625 4.78125 38.2812 2.39062
Q33.9375 0 27.875 0
Q17.8281 0 11.6719 7.65625
Q5.51562 15.3281 5.51562 27.9844
Q5.51562 40.6719 11.6719 48.3281
Q17.8281 56 27.875 56
Q33.9375 56 38.2812 53.6094
Q42.625 51.2188 45.4062 46.3906
L45.4062 54.6875
L54.3906 54.6875
z
" id="BitstreamVeraSans-Roman-67"/>
     </defs>
     <g transform="translate(80.86953125 96.6421875)scale(0.1 -0.1)">
      <use xlink:href="#BitstreamVeraSans-Roman-44"/>
      <use x="77.001953125" xlink:href="#BitstreamVeraSans-Roman-69"/>
      <use x="104.78515625" xlink:href="#BitstreamVeraSans-Roman-67"/>
      <use x="168.26171875" xlink:href="#BitstreamVeraSans-Roman-69"/>
      <use x="196.044921875" xlink:href="#BitstreamVeraSans-Roman-74"/>
      <use x="235.25390625" xlink:href="#BitstreamVeraSans-Roman-69"/>
      <use x="263.037109375" xlink:href="#BitstreamVeraSans-Roman-7a"/>
      <use x="315.52734375" xlink:href="#BitstreamVeraSans-Roman-65"/>
      <use x="377.05078125" xlink:href="#BitstreamVeraSans-Roman-64"/>
     </g>
    </g>
    <g id="line2d_11">
     <path d="
M55.8695 107.82
L69.8695 107.82" style="fill:none;stroke:#e41a1c;stroke-linecap:square;stroke-width:1.2;"/>
    </g>
    <g id="line2d_12"/>
    <g id="text_7">
     <!-- Smoothed -->
     <defs>
      <path d="
M53.5156 70.5156
L53.5156 60.8906
Q47.9062 63.5781 42.9219 64.8906
Q37.9375 66.2188 33.2969 66.2188
Q25.25 66.2188 20.875 63.0938
Q16.5 59.9688 16.5 54.2031
Q16.5 49.3594 19.4062 46.8906
Q22.3125 44.4375 30.4219 42.9219
L36.375 41.7031
Q47.4062 39.5938 52.6562 34.2969
Q57.9062 29 57.9062 20.125
Q57.9062 9.51562 50.7969 4.04688
Q43.7031 -1.42188 29.9844 -1.42188
Q24.8125 -1.42188 18.9688 -0.25
Q13.1406 0.921875 6.89062 3.21875
L6.89062 13.375
Q12.8906 10.0156 18.6562 8.29688
Q24.4219 6.59375 29.9844 6.59375
Q38.4219 6.59375 43.0156 9.90625
Q47.6094 13.2344 47.6094 19.3906
Q47.6094 24.75 44.3125 27.7812
Q41.0156 30.8125 33.5 32.3281
L27.4844 33.5
Q16.4531 35.6875 11.5156 40.375
Q6.59375 45.0625 6.59375 53.4219
Q6.59375 63.0938 13.4062 68.6562
Q20.2188 74.2188 32.1719 74.2188
Q37.3125 74.2188 42.625 73.2812
Q47.9531 72.3594 53.5156 70.5156" id="BitstreamVeraSans-Roman-53"/>
      <path d="
M54.8906 33.0156
L54.8906 0
L45.9062 0
L45.9062 32.7188
Q45.9062 40.4844 42.875 44.3281
Q39.8438 48.1875 33.7969 48.1875
Q26.5156 48.1875 22.3125 43.5469
Q18.1094 38.9219 18.1094 30.9062
L18.1094 0
L9.07812 0
L9.07812 75.9844
L18.1094 75.9844
L18.1094 46.1875
Q21.3438 51.125 25.7031 53.5625
Q30.0781 56 35.7969 56
Q45.2188 56 50.0469 50.1719
Q54.8906 44.3438 54.8906 33.0156" id="BitstreamVeraSans-Roman-68"/>
      <path d="
M52 44.1875
Q55.375 50.25 60.0625 53.125
Q64.75 56 71.0938 56
Q79.6406 56 84.2812 50.0156
Q88.9219 44.0469 88.9219 33.0156
L88.9219 0
L79.8906 0
L79.8906 32.7188
Q79.8906 40.5781 77.0938 44.375
Q74.3125 48.1875 68.6094 48.1875
Q61.625 48.1875 57.5625 43.5469
Q53.5156 38.9219 53.5156 30.9062
L53.5156 0
L44.4844 0
L44.4844 32.7188
Q44.4844 40.625 41.7031 44.4062
Q38.9219 48.1875 33.1094 48.1875
Q26.2188 48.1875 22.1562 43.5312
Q18.1094 38.875 18.1094 30.9062
L18.1094 0
L9.07812 0
L9.07812 54.6875
L18.1094 54.6875
L18.1094 46.1875
Q21.1875 51.2188 25.4844 53.6094
Q29.7812 56 35.6875 56
Q41.6562 56 45.8281 52.9688
Q50 49.9531 52 44.1875" id="BitstreamVeraSans-Roman-6d"/>
     </defs>
     <g transform="translate(80.86953125 111.3203125)scale(0.1 -0.1)">
      <use xlink:href="#BitstreamVeraSans-Roman-53"/>
      <use x="63.4765625" xlink:href="#BitstreamVeraSans-Roman-6d"/>
      <use x="160.888671875" xlink:href="#BitstreamVeraSans-Roman-6f"/>
      <use x="222.0703125" xlink:href="#BitstreamVeraSans-Roman-6f"/>
      <use x="283.251953125" xlink:href="#BitstreamVeraSans-Roman-74"/>
      <use x="322.4609375" xlink:href="#BitstreamVeraSans-Roman-68"/>
      <use x="385.83984375" xlink:href="#BitstreamVeraSans-Roman-65"/>
      <use x="447.36328125" xlink:href="#BitstreamVeraSans-Roman-64"/>
     </g>
    </g>
   </g>
  </g>
 </g>
 <defs>
  <clipPath id="p4881865bdf">
   <rect height="115.2" width="139.5" x="21.878125" y="7.2"/>
  </clipPath>
 </defs>
</svg>
